<svg width="10" height="10" viewBox="0 0 10 10" fill="none" xmlns="http://www.w3.org/2000/svg">
<path fill-rule="evenodd" clip-rule="evenodd" d="M8.7 1.30085C8.3 0.899718 7.7 0.899718 7.3 1.30085L5 3.61859L2.7 1.30085C2.3 0.899718 1.7 0.899718 1.3 1.30085C0.9 1.70197 0.9 2.30366 1.3 2.70479L3.6 5.02254L1.3 7.34028C0.9 7.74141 0.9 8.3431 1.3 8.74423C1.5 8.94479 1.7 9.04507 2 9.04507C2.3 9.04507 2.5 8.94479 2.7 8.74423L5 6.42648L7.3 8.74423C7.5 8.94479 7.8 9.04507 8 9.04507C8.2 9.04507 8.5 8.94479 8.7 8.74423C9.1 8.3431 9.1 7.74141 8.7 7.34028L6.4 5.02254L8.7 2.70479C9.1 2.30366 9.1 1.70197 8.7 1.30085Z" fill="#4B6C89"/>
</svg>
