<svg width="11" height="11" viewBox="0 0 11 11" fill="none" xmlns="http://www.w3.org/2000/svg">
<path fill-rule="evenodd" clip-rule="evenodd" d="M7.79557 10.1461C6.99756 10.6852 6.03554 11 5 11C2.23858 11 0 8.76142 0 6C0 3.23858 2.23858 1 5 1C6.74456 1 8.28045 1.89347 9.17503 3.24778L7.54429 4.40972C7.01396 3.56304 6.07273 3 5 3C3.34315 3 2 4.34315 2 6C2 7.65685 3.34315 9 5 9C5.6028 9 6.16408 8.82221 6.63426 8.51621L7.79557 10.1461Z" fill="#4B6C89"/>
<path d="M10.1237 4.82963L8.82963 2.68221e-06L4.97057 4.91632L10.1237 4.82963Z" fill="#4B6C89"/>
</svg>
