<svg width="10" height="10" viewBox="0 0 10 10" fill="none" xmlns="http://www.w3.org/2000/svg">
<path fill-rule="evenodd" clip-rule="evenodd" d="M5 0C4.44772 0 4 0.447715 4 1V6.58134L2.71931 5.30479C2.46824 5.04528 2.09643 4.9412 1.7468 5.03256C1.39718 5.12392 1.12413 5.39649 1.03262 5.74552C0.941101 6.09454 1.04536 6.4657 1.30531 6.71635L4.3053 9.70772C4.6958 10.0974 5.3288 10.0974 5.7193 9.70772L8.71929 6.71635C9.09826 6.32464 9.09284 5.70201 8.70711 5.31695C8.32137 4.93188 7.69767 4.92647 7.30529 5.30479L6 6.60587V1C6 0.447715 5.55228 0 5 0Z" fill="#4B6C89"/>
</svg>
