<svg width="12" height="12" viewBox="0 0 12 12" fill="none" xmlns="http://www.w3.org/2000/svg">
<path d="M12 5.63901V2.67705e-05L10.229 1.75202C9.67509 1.19467 9.01607 0.752805 8.29012 0.45206C7.56418 0.151314 6.78576 -0.00233283 5.99999 2.67705e-05C4.97725 2.67705e-05 3.97149 0.261458 3.07821 0.759494C2.18493 1.25753 1.43378 1.97564 0.896094 2.84563C0.358409 3.71563 0.0520352 4.70862 0.00606497 5.73032C-0.0399053 6.75203 0.176054 7.76852 0.633436 8.68329C1.09082 9.59805 1.77444 10.3807 2.61938 10.957C3.46433 11.5332 4.44255 11.8839 5.46115 11.9758C6.47976 12.0676 7.50494 11.8975 8.43933 11.4817C9.37373 11.0659 10.1863 10.4182 10.8 9.6L9.19998 8.40001C8.79088 8.94547 8.24915 9.3773 7.62622 9.6545C7.00329 9.9317 6.31983 10.0451 5.64077 9.98384C4.9617 9.92261 4.30955 9.68881 3.74625 9.30465C3.18296 8.92048 2.72721 8.39871 2.42229 7.78886C2.11737 7.17902 1.97339 6.50136 2.00404 5.82022C2.03469 5.13908 2.23894 4.47709 2.59739 3.89709C2.95585 3.3171 3.45661 2.83836 4.05213 2.50633C4.64765 2.17431 5.31816 2.00002 5.99999 2.00002C6.5199 2.00142 7.0344 2.10559 7.5139 2.30656C7.9934 2.50752 8.42844 2.80131 8.79398 3.17102L6.87498 5.07101L12 5.63901Z" fill="#4B6C89"/>
</svg>
