<svg width="12" height="12" viewBox="0 0 12 12" fill="none" xmlns="http://www.w3.org/2000/svg">
<path fill-rule="evenodd" clip-rule="evenodd" d="M12 6C12 5.44771 11.5523 5 11 5L3.42018 5L6.69521 1.71931C6.95472 1.46823 7.0588 1.09643 6.96744 0.746804C6.87608 0.397176 6.60351 0.124131 6.25448 0.0326155C5.90546 -0.0588997 5.53429 0.045356 5.28365 0.305312L0.292281 5.3053C-0.0974276 5.6958 -0.0974276 6.3288 0.292281 6.7193L5.28365 11.7193C5.67535 12.0983 6.29798 12.0928 6.68305 11.7071C7.06812 11.3214 7.07353 10.6977 6.69521 10.3053L3.39562 7L11 7C11.5523 7 12 6.55228 12 6Z" fill="#4B6C89"/>
</svg>
