<svg width="12" height="12" viewBox="0 0 12 12" fill="none" xmlns="http://www.w3.org/2000/svg">
<path fill-rule="evenodd" clip-rule="evenodd" d="M10.7 1.30085C10.3 0.899718 9.7 0.899718 9.3 1.30085L6 4.61859L2.7 1.30085C2.3 0.899718 1.7 0.899718 1.3 1.30085C0.9 1.70197 0.9 2.30366 1.3 2.70479L4.6 6.02254L1.3 9.34028C0.9 9.74141 0.9 10.3431 1.3 10.7442C1.5 10.9448 1.7 11.0451 2 11.0451C2.3 11.0451 2.5 10.9448 2.7 10.7442L6 7.42648L9.3 10.7442C9.5 10.9448 9.8 11.0451 10 11.0451C10.2 11.0451 10.5 10.9448 10.7 10.7442C11.1 10.3431 11.1 9.74141 10.7 9.34028L7.4 6.02254L10.7 2.70479C11.1 2.30366 11.1 1.70197 10.7 1.30085Z" fill="#4B6C89"/>
</svg>
