<svg width="214" height="76" viewBox="0 0 214 76" fill="none" xmlns="http://www.w3.org/2000/svg">
<path d="M0 4C0 1.79086 1.79086 0 4 0H210C212.209 0 214 1.79086 214 4V72C214 74.2091 212.209 76 210 76H4C1.79086 76 0 74.2091 0 72V4Z" fill="#FEFEFE"/>
<path fill-rule="evenodd" clip-rule="evenodd" d="M49.1341 42.8297C47.4876 44.4149 44.9148 44.4149 43.2682 42.8297C41.6217 41.2446 41.5188 38.8669 43.1653 37.3808L47.7963 32.9226C48.8254 31.9319 50.472 31.9319 51.3981 32.9226C52.4272 33.9133 52.4272 35.4985 51.3981 36.3901L47.7963 39.9567C47.3846 40.3529 46.7672 40.3529 46.3555 39.9567C45.9439 39.5604 45.9439 38.9659 46.3555 38.5697L49.237 35.7957L47.6934 34.4087L44.9148 37.0836C43.6799 38.2724 43.6799 40.1548 44.9148 41.2446C46.1497 42.3344 48.105 42.4334 49.237 41.2446L52.9418 37.678C54.7942 35.8947 54.7942 33.1207 52.9418 31.3375C51.0894 29.5542 48.2079 29.5542 46.3555 31.3375L41.7246 35.9938C39.3577 38.2724 39.4606 41.9381 41.8275 44.2167C43.0624 45.4056 44.6061 46 46.2526 46C47.8992 46 49.4428 45.4056 50.5749 44.2167L55 39.9567L53.5593 38.5697L49.1341 42.8297Z" fill="#6F89A1"/>
<path d="M66.0312 40.4023H61.8613L60.9248 43H59.5713L63.3721 33.0469H64.5205L68.3281 43H66.9814L66.0312 40.4023ZM62.2578 39.3223H65.6416L63.9463 34.667L62.2578 39.3223ZM70.1621 39.2402C70.1621 38.1055 70.431 37.194 70.9688 36.5059C71.5065 35.8132 72.2106 35.4668 73.0811 35.4668C73.9469 35.4668 74.6328 35.763 75.1387 36.3555V32.5H76.4033V43H75.2412L75.1797 42.207C74.6738 42.8268 73.9697 43.1367 73.0674 43.1367C72.2106 43.1367 71.5111 42.7858 70.9688 42.084C70.431 41.3822 70.1621 40.4661 70.1621 39.3359V39.2402ZM71.4268 39.3838C71.4268 40.2223 71.5999 40.8786 71.9463 41.3525C72.2926 41.8265 72.7712 42.0635 73.3818 42.0635C74.1839 42.0635 74.7695 41.7035 75.1387 40.9834V37.5859C74.7604 36.8887 74.1794 36.54 73.3955 36.54C72.7757 36.54 72.2926 36.7793 71.9463 37.2578C71.5999 37.7363 71.4268 38.445 71.4268 39.3838ZM79.0645 39.2402C79.0645 38.1055 79.3333 37.194 79.8711 36.5059C80.4089 35.8132 81.113 35.4668 81.9834 35.4668C82.8493 35.4668 83.5352 35.763 84.041 36.3555V32.5H85.3057V43H84.1436L84.082 42.207C83.5762 42.8268 82.8721 43.1367 81.9697 43.1367C81.113 43.1367 80.4134 42.7858 79.8711 42.084C79.3333 41.3822 79.0645 40.4661 79.0645 39.3359V39.2402ZM80.3291 39.3838C80.3291 40.2223 80.5023 40.8786 80.8486 41.3525C81.195 41.8265 81.6735 42.0635 82.2842 42.0635C83.0863 42.0635 83.6719 41.7035 84.041 40.9834V37.5859C83.6628 36.8887 83.0817 36.54 82.2979 36.54C81.6781 36.54 81.195 36.7793 80.8486 37.2578C80.5023 37.7363 80.3291 38.445 80.3291 39.3838ZM98.4414 40.4023H94.2715L93.335 43H91.9814L95.7822 33.0469H96.9307L100.738 43H99.3916L98.4414 40.4023ZM94.668 39.3223H98.0518L96.3564 34.667L94.668 39.3223ZM104.473 33.8125V35.6035H105.854V36.5811H104.473V41.168C104.473 41.4642 104.534 41.6875 104.657 41.8379C104.78 41.9837 104.99 42.0566 105.286 42.0566C105.432 42.0566 105.632 42.0293 105.888 41.9746V43C105.555 43.0911 105.231 43.1367 104.917 43.1367C104.352 43.1367 103.926 42.9658 103.639 42.624C103.352 42.2822 103.208 41.7969 103.208 41.168V36.5811H101.861V35.6035H103.208V33.8125H104.473ZM110.053 33.8125V35.6035H111.434V36.5811H110.053V41.168C110.053 41.4642 110.114 41.6875 110.237 41.8379C110.36 41.9837 110.57 42.0566 110.866 42.0566C111.012 42.0566 111.213 42.0293 111.468 41.9746V43C111.135 43.0911 110.812 43.1367 110.497 43.1367C109.932 43.1367 109.506 42.9658 109.219 42.624C108.932 42.2822 108.788 41.7969 108.788 41.168V36.5811H107.441V35.6035H108.788V33.8125H110.053ZM118.483 43C118.41 42.8542 118.351 42.5944 118.306 42.2207C117.718 42.8314 117.016 43.1367 116.2 43.1367C115.471 43.1367 114.872 42.9316 114.402 42.5215C113.938 42.1068 113.705 41.5827 113.705 40.9492C113.705 40.179 113.997 39.582 114.58 39.1582C115.168 38.7298 115.993 38.5156 117.055 38.5156H118.285V37.9346C118.285 37.4925 118.153 37.1416 117.889 36.8818C117.624 36.6175 117.235 36.4854 116.72 36.4854C116.269 36.4854 115.89 36.5993 115.585 36.8271C115.28 37.055 115.127 37.3307 115.127 37.6543H113.855C113.855 37.2852 113.985 36.9297 114.245 36.5879C114.509 36.2415 114.865 35.9681 115.312 35.7676C115.763 35.5671 116.257 35.4668 116.795 35.4668C117.647 35.4668 118.315 35.681 118.798 36.1094C119.281 36.5332 119.532 37.1188 119.55 37.8662V41.2705C119.55 41.9495 119.636 42.4896 119.81 42.8906V43H118.483ZM116.385 42.0361C116.781 42.0361 117.157 41.9336 117.513 41.7285C117.868 41.5234 118.126 41.2568 118.285 40.9287V39.4111H117.294C115.744 39.4111 114.97 39.8646 114.97 40.7715C114.97 41.168 115.102 41.4779 115.366 41.7012C115.631 41.9245 115.97 42.0361 116.385 42.0361ZM125.499 42.1045C125.95 42.1045 126.344 41.9678 126.682 41.6943C127.019 41.4209 127.206 41.0791 127.242 40.6689H128.438C128.416 41.0928 128.27 41.4961 128.001 41.8789C127.732 42.2617 127.372 42.5671 126.921 42.7949C126.474 43.0228 126 43.1367 125.499 43.1367C124.492 43.1367 123.69 42.8018 123.093 42.1318C122.5 41.4574 122.204 40.5368 122.204 39.3701V39.1582C122.204 38.4382 122.336 37.7979 122.601 37.2373C122.865 36.6768 123.243 36.2415 123.735 35.9316C124.232 35.6217 124.818 35.4668 125.492 35.4668C126.322 35.4668 127.01 35.7152 127.557 36.2119C128.108 36.7087 128.402 37.3535 128.438 38.1465H127.242C127.206 37.668 127.023 37.276 126.695 36.9707C126.372 36.6608 125.971 36.5059 125.492 36.5059C124.85 36.5059 124.351 36.7383 123.995 37.2031C123.644 37.6634 123.469 38.3311 123.469 39.2061V39.4453C123.469 40.2975 123.644 40.9538 123.995 41.4141C124.346 41.8743 124.847 42.1045 125.499 42.1045ZM132.125 36.499C132.686 35.8109 133.415 35.4668 134.312 35.4668C135.876 35.4668 136.664 36.3486 136.678 38.1123V43H135.413V38.1055C135.409 37.5723 135.285 37.1781 135.044 36.9229C134.807 36.6676 134.436 36.54 133.93 36.54C133.52 36.54 133.16 36.6494 132.85 36.8682C132.54 37.0869 132.298 37.374 132.125 37.7295V43H130.86V32.5H132.125V36.499ZM140.761 35.6035L140.795 36.4238C141.337 35.7858 142.069 35.4668 142.989 35.4668C144.024 35.4668 144.728 35.8633 145.102 36.6562C145.348 36.3008 145.667 36.0137 146.059 35.7949C146.455 35.5762 146.922 35.4668 147.46 35.4668C149.082 35.4668 149.907 36.3258 149.935 38.0439V43H148.67V38.1191C148.67 37.5905 148.549 37.1963 148.308 36.9365C148.066 36.6722 147.66 36.54 147.091 36.54C146.621 36.54 146.232 36.6813 145.922 36.9639C145.612 37.2419 145.432 37.6178 145.382 38.0918V43H144.11V38.1533C144.11 37.0778 143.584 36.54 142.531 36.54C141.702 36.54 141.134 36.8932 140.829 37.5996V43H139.564V35.6035H140.761ZM155.918 43.1367C154.915 43.1367 154.1 42.8086 153.471 42.1523C152.842 41.4915 152.527 40.6097 152.527 39.5068V39.2744C152.527 38.5407 152.666 37.8867 152.944 37.3125C153.227 36.7337 153.619 36.2826 154.12 35.959C154.626 35.6309 155.173 35.4668 155.761 35.4668C156.722 35.4668 157.47 35.7835 158.003 36.417C158.536 37.0505 158.803 37.9574 158.803 39.1377V39.6641H153.792C153.81 40.3932 154.022 40.9834 154.428 41.4346C154.838 41.8812 155.357 42.1045 155.986 42.1045C156.433 42.1045 156.811 42.0133 157.121 41.8311C157.431 41.6488 157.702 41.4072 157.935 41.1064L158.707 41.708C158.087 42.6605 157.158 43.1367 155.918 43.1367ZM155.761 36.5059C155.25 36.5059 154.822 36.6927 154.476 37.0664C154.129 37.4355 153.915 37.9551 153.833 38.625H157.538V38.5293C157.502 37.8867 157.328 37.39 157.019 37.0391C156.709 36.6836 156.289 36.5059 155.761 36.5059ZM162.469 35.6035L162.51 36.5332C163.075 35.8223 163.813 35.4668 164.725 35.4668C166.288 35.4668 167.076 36.3486 167.09 38.1123V43H165.825V38.1055C165.821 37.5723 165.698 37.1781 165.456 36.9229C165.219 36.6676 164.848 36.54 164.342 36.54C163.932 36.54 163.572 36.6494 163.262 36.8682C162.952 37.0869 162.71 37.374 162.537 37.7295V43H161.272V35.6035H162.469ZM171.713 33.8125V35.6035H173.094V36.5811H171.713V41.168C171.713 41.4642 171.774 41.6875 171.897 41.8379C172.021 41.9837 172.23 42.0566 172.526 42.0566C172.672 42.0566 172.873 42.0293 173.128 41.9746V43C172.795 43.0911 172.472 43.1367 172.157 43.1367C171.592 43.1367 171.166 42.9658 170.879 42.624C170.592 42.2822 170.448 41.7969 170.448 41.168V36.5811H169.102V35.6035H170.448V33.8125H171.713Z" fill="#4B6C89"/>
<path d="M4 75.5C3.52451 75.5 3.07236 75.4055 2.66038 75.2346L2.27732 76.1583C2.8086 76.3787 3.39076 76.5 4 76.5V75.5ZM0.765386 73.3396C0.594543 72.9276 0.5 72.4755 0.5 72H-0.5C-0.5 72.6092 -0.378653 73.1914 -0.15834 73.7227L0.765386 73.3396ZM0.5 72V70H-0.5V72H0.5ZM0.5 66V62H-0.5V66H0.5ZM0.5 58V54H-0.5V58H0.5ZM0.5 50V46H-0.5V50H0.5ZM0.5 42V38H-0.5V42H0.5ZM0.5 34V30H-0.5V34H0.5ZM0.5 26V22H-0.5V26H0.5ZM0.5 18V14H-0.5V18H0.5ZM0.5 10V6H-0.5V10H0.5ZM0.5 4C0.5 3.52451 0.594542 3.07236 0.765385 2.66037L-0.158341 2.27732C-0.378653 2.8086 -0.5 3.39076 -0.5 4H0.5ZM2.66038 0.765385C3.07236 0.594542 3.52451 0.5 4 0.5V-0.5C3.39076 -0.5 2.8086 -0.378653 2.27732 -0.158341L2.66038 0.765385ZM4 0.5H5.98077V-0.5H4V0.5ZM9.94231 0.5H13.9038V-0.5H9.94231V0.5ZM17.8654 0.5H21.8269V-0.5H17.8654V0.5ZM25.7885 0.5H29.75V-0.5H25.7885V0.5ZM33.7115 0.5H37.6731V-0.5H33.7115V0.5ZM41.6346 0.5H45.5962V-0.5H41.6346V0.5ZM49.5577 0.5H53.5192V-0.5H49.5577V0.5ZM57.4808 0.5H61.4423V-0.5H57.4808V0.5ZM65.4039 0.5H69.3654V-0.5H65.4039V0.5ZM73.3269 0.5H77.2885V-0.5H73.3269V0.5ZM81.25 0.5H85.2116V-0.5H81.25V0.5ZM89.1731 0.5H93.1346V-0.5H89.1731V0.5ZM97.0962 0.5H101.058V-0.5H97.0962V0.5ZM105.019 0.5H108.981V-0.5H105.019V0.5ZM112.942 0.5H116.904V-0.5H112.942V0.5ZM120.865 0.5H124.827V-0.5H120.865V0.5ZM128.788 0.5H132.75V-0.5H128.788V0.5ZM136.712 0.5H140.673V-0.5H136.712V0.5ZM144.635 0.5H148.596V-0.5H144.635V0.5ZM152.558 0.5H156.519V-0.5H152.558V0.5ZM160.481 0.5H164.442V-0.5H160.481V0.5ZM168.404 0.5H172.365V-0.5H168.404V0.5ZM176.327 0.5H180.288V-0.5H176.327V0.5ZM184.25 0.5H188.211V-0.5H184.25V0.5ZM192.173 0.5H196.135V-0.5H192.173V0.5ZM200.096 0.5H204.058V-0.5H200.096V0.5ZM208.019 0.5H210V-0.5H208.019V0.5ZM210 0.5C210.475 0.5 210.928 0.594542 211.34 0.765385L211.723 -0.158341C211.191 -0.378653 210.609 -0.5 210 -0.5V0.5ZM213.235 2.66038C213.405 3.07236 213.5 3.52451 213.5 4H214.5C214.5 3.39076 214.379 2.8086 214.158 2.27732L213.235 2.66038ZM213.5 4V6H214.5V4H213.5ZM213.5 10V14H214.5V10H213.5ZM213.5 18V22H214.5V18H213.5ZM213.5 26V30H214.5V26H213.5ZM213.5 34V38H214.5V34H213.5ZM213.5 42V46H214.5V42H213.5ZM213.5 50V54H214.5V50H213.5ZM213.5 58V62H214.5V58H213.5ZM213.5 66V70H214.5V66H213.5ZM213.5 72C213.5 72.4755 213.405 72.9276 213.235 73.3396L214.158 73.7227C214.379 73.1914 214.5 72.6092 214.5 72H213.5ZM211.34 75.2346C210.928 75.4055 210.475 75.5 210 75.5V76.5C210.609 76.5 211.191 76.3787 211.723 76.1583L211.34 75.2346ZM210 75.5H208.019V76.5H210V75.5ZM204.058 75.5H200.096V76.5H204.058V75.5ZM196.135 75.5H192.173V76.5H196.135V75.5ZM188.212 75.5H184.25V76.5H188.212V75.5ZM180.288 75.5H176.327V76.5H180.288V75.5ZM172.365 75.5H168.404V76.5H172.365V75.5ZM164.442 75.5H160.481V76.5H164.442V75.5ZM156.519 75.5H152.558V76.5H156.519V75.5ZM148.596 75.5H144.635V76.5H148.596V75.5ZM140.673 75.5H136.712V76.5H140.673V75.5ZM132.75 75.5H128.788V76.5H132.75V75.5ZM124.827 75.5H120.865V76.5H124.827V75.5ZM116.904 75.5H112.942V76.5H116.904V75.5ZM108.981 75.5H105.019V76.5H108.981V75.5ZM101.058 75.5H97.0961V76.5H101.058V75.5ZM93.1346 75.5H89.173V76.5H93.1346V75.5ZM85.2115 75.5H81.25V76.5H85.2115V75.5ZM77.2884 75.5H73.3269V76.5H77.2884V75.5ZM69.3654 75.5H65.4038V76.5H69.3654V75.5ZM61.4423 75.5H57.4808V76.5H61.4423V75.5ZM53.5192 75.5H49.5577V76.5H53.5192V75.5ZM45.5962 75.5H41.6347V76.5H45.5962V75.5ZM37.6731 75.5H33.7116V76.5H37.6731V75.5ZM29.7501 75.5H25.7885V76.5H29.7501V75.5ZM21.827 75.5H17.8655V76.5H21.827V75.5ZM13.9039 75.5H9.94238V76.5H13.9039V75.5ZM5.98085 75.5H4V76.5H5.98085V75.5ZM4 75C3.59138 75 3.20424 74.9189 2.8519 74.7728L2.0858 76.6202C2.67672 76.8653 3.32389 77 4 77V75ZM1.22725 73.1481C1.08114 72.7958 1 72.4086 1 72H-1C-1 72.6761 -0.865251 73.3233 -0.620203 73.9142L1.22725 73.1481ZM1 72V70H-1V72H1ZM1 66V62H-1V66H1ZM1 58V54H-1V58H1ZM1 50V46H-1V50H1ZM1 42V38H-1V42H1ZM1 34V30H-1V34H1ZM1 26V22H-1V26H1ZM1 18V14H-1V18H1ZM1 10V6H-1V10H1ZM1 4C1 3.59138 1.08114 3.20424 1.22725 2.8519L-0.620204 2.08579C-0.865251 2.67672 -1 3.32388 -1 4H1ZM2.8519 1.22725C3.20424 1.08114 3.59138 1 4 1V-1C3.32389 -1 2.67672 -0.865251 2.0858 -0.620204L2.8519 1.22725ZM4 1H5.98077V-1H4V1ZM9.94231 1H13.9038V-1H9.94231V1ZM17.8654 1H21.8269V-1H17.8654V1ZM25.7885 1H29.75V-1H25.7885V1ZM33.7115 1H37.6731V-1H33.7115V1ZM41.6346 1H45.5962V-1H41.6346V1ZM49.5577 1H53.5192V-1H49.5577V1ZM57.4808 1H61.4423V-1H57.4808V1ZM65.4039 1H69.3654V-1H65.4039V1ZM73.3269 1H77.2885V-1H73.3269V1ZM81.25 1H85.2116V-1H81.25V1ZM89.1731 1H93.1346V-1H89.1731V1ZM97.0962 1H101.058V-1H97.0962V1ZM105.019 1H108.981V-1H105.019V1ZM112.942 1H116.904V-1H112.942V1ZM120.865 1H124.827V-1H120.865V1ZM128.788 1H132.75V-1H128.788V1ZM136.712 1H140.673V-1H136.712V1ZM144.635 1H148.596V-1H144.635V1ZM152.558 1H156.519V-1H152.558V1ZM160.481 1H164.442V-1H160.481V1ZM168.404 1H172.365V-1H168.404V1ZM176.327 1H180.288V-1H176.327V1ZM184.25 1H188.211V-1H184.25V1ZM192.173 1H196.135V-1H192.173V1ZM200.096 1H204.058V-1H200.096V1ZM208.019 1H210V-1H208.019V1ZM210 1C210.409 1 210.796 1.08114 211.148 1.22725L211.914 -0.620204C211.323 -0.865251 210.676 -1 210 -1V1ZM212.773 2.8519C212.919 3.20424 213 3.59138 213 4H215C215 3.32388 214.865 2.67672 214.62 2.08579L212.773 2.8519ZM213 4V6H215V4H213ZM213 10V14H215V10H213ZM213 18V22H215V18H213ZM213 26V30H215V26H213ZM213 34V38H215V34H213ZM213 42V46H215V42H213ZM213 50V54H215V50H213ZM213 58V62H215V58H213ZM213 66V70H215V66H213ZM213 72C213 72.4086 212.919 72.7958 212.773 73.1481L214.62 73.9142C214.865 73.3233 215 72.6761 215 72H213ZM211.148 74.7728C210.796 74.9189 210.409 75 210 75V77C210.676 77 211.323 76.8653 211.914 76.6202L211.148 74.7728ZM210 75H208.019V77H210V75ZM204.058 75H200.096V77H204.058V75ZM196.135 75H192.173V77H196.135V75ZM188.212 75H184.25V77H188.212V75ZM180.288 75H176.327V77H180.288V75ZM172.365 75H168.404V77H172.365V75ZM164.442 75H160.481V77H164.442V75ZM156.519 75H152.558V77H156.519V75ZM148.596 75H144.635V77H148.596V75ZM140.673 75H136.712V77H140.673V75ZM132.75 75H128.788V77H132.75V75ZM124.827 75H120.865V77H124.827V75ZM116.904 75H112.942V77H116.904V75ZM108.981 75H105.019V77H108.981V75ZM101.058 75H97.0961V77H101.058V75ZM93.1346 75H89.173V77H93.1346V75ZM85.2115 75H81.25V77H85.2115V75ZM77.2884 75H73.3269V77H77.2884V75ZM69.3654 75H65.4038V77H69.3654V75ZM61.4423 75H57.4808V77H61.4423V75ZM53.5192 75H49.5577V77H53.5192V75ZM45.5962 75H41.6347V77H45.5962V75ZM37.6731 75H33.7116V77H37.6731V75ZM29.7501 75H25.7885V77H29.7501V75ZM21.827 75H17.8655V77H21.827V75ZM13.9039 75H9.94238V77H13.9039V75ZM5.98085 75H4V77H5.98085V75Z" fill="#B7C4D0"/>
</svg>
