<svg width="125" height="32" viewBox="0 0 125 32" fill="none" xmlns="http://www.w3.org/2000/svg">
<path d="M0 16C0 7.16344 7.16345 0 16 0H109C117.837 0 125 7.16344 125 16V16C125 24.8366 117.837 32 109 32H16C7.16345 32 0 24.8366 0 16V16Z" fill="#4B6C89"/>
<rect x="17" y="11" width="10" height="10" fill="#FBFCFD"/>
<path fill-rule="evenodd" clip-rule="evenodd" d="M16 10H28V13V14V22H16V14V13V10ZM17 14V21H27V14H17ZM27 13H17V11H27V13Z" fill="#4B6C89"/>
<path d="M38.666 15.2646H39.6777C40.1882 15.2601 40.5915 15.1279 40.8877 14.8682C41.1885 14.6084 41.3389 14.2324 41.3389 13.7402C41.3389 13.2663 41.2135 12.8994 40.9629 12.6396C40.7168 12.3753 40.3385 12.2432 39.8281 12.2432C39.3815 12.2432 39.0146 12.373 38.7275 12.6328C38.4404 12.888 38.2969 13.223 38.2969 13.6377H36.6357C36.6357 13.1273 36.7702 12.6624 37.0391 12.2432C37.3125 11.8239 37.6908 11.498 38.1738 11.2656C38.6615 11.0286 39.2061 10.9102 39.8076 10.9102C40.8011 10.9102 41.5804 11.1608 42.1455 11.6621C42.7152 12.1589 43 12.8516 43 13.7402C43 14.1868 42.8564 14.6084 42.5693 15.0049C42.2868 15.3968 41.9199 15.693 41.4688 15.8936C42.0156 16.0804 42.4303 16.3743 42.7129 16.7754C43 17.1764 43.1436 17.6549 43.1436 18.2109C43.1436 19.1042 42.8359 19.8151 42.2207 20.3438C41.61 20.8724 40.8057 21.1367 39.8076 21.1367C38.8506 21.1367 38.0667 20.8815 37.4561 20.3711C36.8454 19.8607 36.54 19.1816 36.54 18.334H38.2012C38.2012 18.7715 38.347 19.127 38.6387 19.4004C38.9349 19.6738 39.3314 19.8105 39.8281 19.8105C40.3431 19.8105 40.7487 19.6738 41.0449 19.4004C41.3411 19.127 41.4893 18.7305 41.4893 18.2109C41.4893 17.6868 41.3343 17.2835 41.0244 17.001C40.7145 16.7184 40.2542 16.5771 39.6436 16.5771H38.666V15.2646ZM51.3945 21H44.7021V19.8584L48.0176 16.2422C48.4961 15.709 48.8356 15.2646 49.0361 14.9092C49.2412 14.5492 49.3438 14.1891 49.3438 13.8291C49.3438 13.3551 49.2093 12.9723 48.9404 12.6807C48.6761 12.389 48.3184 12.2432 47.8672 12.2432C47.3294 12.2432 46.9124 12.4072 46.6162 12.7354C46.32 13.0635 46.1719 13.5124 46.1719 14.082H44.5107C44.5107 13.4759 44.6475 12.9313 44.9209 12.4482C45.1989 11.9606 45.5931 11.5824 46.1035 11.3135C46.6185 11.0446 47.2109 10.9102 47.8809 10.9102C48.847 10.9102 49.6081 11.154 50.1641 11.6416C50.7246 12.1247 51.0049 12.7946 51.0049 13.6514C51.0049 14.1481 50.8636 14.6699 50.5811 15.2168C50.3031 15.7591 49.8451 16.3766 49.207 17.0693L46.7734 19.6738H51.3945V21ZM58.1416 19.6191H62.6602V21H56.4121V11.0469H58.1416V19.6191ZM67.083 21.1367C66.0303 21.1367 65.1758 20.8063 64.5195 20.1455C63.8678 19.4801 63.542 18.596 63.542 17.4932V17.2881C63.542 16.5498 63.6833 15.8913 63.9658 15.3125C64.2529 14.7292 64.654 14.2757 65.1689 13.9521C65.6839 13.6286 66.2581 13.4668 66.8916 13.4668C67.8988 13.4668 68.6758 13.7881 69.2227 14.4307C69.7741 15.0732 70.0498 15.9824 70.0498 17.1582V17.8281H65.2168C65.2669 18.4388 65.4697 18.9219 65.8252 19.2773C66.1852 19.6328 66.6364 19.8105 67.1787 19.8105C67.9398 19.8105 68.5596 19.5029 69.0381 18.8877L69.9336 19.7422C69.6374 20.1842 69.2409 20.5283 68.7441 20.7744C68.252 21.016 67.6982 21.1367 67.083 21.1367ZM66.8848 14.7998C66.429 14.7998 66.0599 14.9593 65.7773 15.2783C65.4993 15.5973 65.3216 16.0417 65.2441 16.6113H68.4092V16.4883C68.3727 15.9323 68.2246 15.513 67.9648 15.2305C67.7051 14.9434 67.3451 14.7998 66.8848 14.7998ZM71.9297 21V14.834H70.8018V13.6035H71.9297V12.9268C71.9297 12.1064 72.1576 11.473 72.6133 11.0264C73.069 10.5798 73.707 10.3564 74.5273 10.3564C74.819 10.3564 75.1289 10.3975 75.457 10.4795L75.416 11.7783C75.2337 11.7419 75.0218 11.7236 74.7803 11.7236C73.9873 11.7236 73.5908 12.1315 73.5908 12.9473V13.6035H75.0947V14.834H73.5908V21H71.9297ZM78.3896 11.8057V13.6035H79.6953V14.834H78.3896V18.9629C78.3896 19.2454 78.4443 19.4505 78.5537 19.5781C78.6676 19.7012 78.8682 19.7627 79.1553 19.7627C79.3467 19.7627 79.5404 19.7399 79.7363 19.6943V20.9795C79.3581 21.0843 78.9935 21.1367 78.6426 21.1367C77.3665 21.1367 76.7285 20.4326 76.7285 19.0244V14.834H75.5117V13.6035H76.7285V11.8057H78.3896Z" fill="#FBFCFD"/>
<path fill-rule="evenodd" clip-rule="evenodd" d="M107.633 14.6402C108.176 13.9889 107.713 13 106.865 13H101.135C100.287 13 99.824 13.9889 100.367 14.6402L103.232 18.0781C103.632 18.5579 104.368 18.5579 104.768 18.0781L107.633 14.6402Z" fill="#FBFCFD"/>
</svg>
