<svg width="123" height="36" viewBox="0 0 123 36" fill="none" xmlns="http://www.w3.org/2000/svg">
<path d="M0 18C0 8.05887 8.05887 0 18 0H105C114.941 0 123 8.05887 123 18V18C123 27.9411 114.941 36 105 36H18C8.05887 36 0 27.9411 0 18V18Z" fill="white"/>
<rect x="17" y="13" width="10" height="10" fill="#F9FAFB"/>
<path fill-rule="evenodd" clip-rule="evenodd" d="M16 12H28V15V16V24H16V16V15V12ZM17 16V23H27V16H17ZM27 15H17V13H27V15Z" fill="#0371FF"/>
<path d="M36.666 17.2646H37.6777C38.1882 17.2601 38.5915 17.1279 38.8877 16.8682C39.1885 16.6084 39.3389 16.2324 39.3389 15.7402C39.3389 15.2663 39.2135 14.8994 38.9629 14.6396C38.7168 14.3753 38.3385 14.2432 37.8281 14.2432C37.3815 14.2432 37.0146 14.373 36.7275 14.6328C36.4404 14.888 36.2969 15.223 36.2969 15.6377H34.6357C34.6357 15.1273 34.7702 14.6624 35.0391 14.2432C35.3125 13.8239 35.6908 13.498 36.1738 13.2656C36.6615 13.0286 37.2061 12.9102 37.8076 12.9102C38.8011 12.9102 39.5804 13.1608 40.1455 13.6621C40.7152 14.1589 41 14.8516 41 15.7402C41 16.1868 40.8564 16.6084 40.5693 17.0049C40.2868 17.3968 39.9199 17.693 39.4688 17.8936C40.0156 18.0804 40.4303 18.3743 40.7129 18.7754C41 19.1764 41.1436 19.6549 41.1436 20.2109C41.1436 21.1042 40.8359 21.8151 40.2207 22.3438C39.61 22.8724 38.8057 23.1367 37.8076 23.1367C36.8506 23.1367 36.0667 22.8815 35.4561 22.3711C34.8454 21.8607 34.54 21.1816 34.54 20.334H36.2012C36.2012 20.7715 36.347 21.127 36.6387 21.4004C36.9349 21.6738 37.3314 21.8105 37.8281 21.8105C38.3431 21.8105 38.7487 21.6738 39.0449 21.4004C39.3411 21.127 39.4893 20.7305 39.4893 20.2109C39.4893 19.6868 39.3343 19.2835 39.0244 19.001C38.7145 18.7184 38.2542 18.5771 37.6436 18.5771H36.666V17.2646ZM47.8701 12.999V14.373H47.665C46.7354 14.3867 45.9925 14.6419 45.4365 15.1387C44.8805 15.6354 44.5501 16.3395 44.4453 17.251C44.9785 16.6904 45.6598 16.4102 46.4893 16.4102C47.3688 16.4102 48.0615 16.7201 48.5674 17.3398C49.0778 17.9596 49.333 18.7594 49.333 19.7393C49.333 20.751 49.0345 21.5713 48.4375 22.2002C47.8451 22.8245 47.0658 23.1367 46.0996 23.1367C45.1061 23.1367 44.2995 22.7699 43.6797 22.0361C43.0645 21.3024 42.7568 20.3408 42.7568 19.1514V18.584C42.7568 16.8385 43.1807 15.4714 44.0283 14.4824C44.8805 13.4935 46.1042 12.999 47.6992 12.999H47.8701ZM46.0859 17.75C45.7214 17.75 45.3864 17.8525 45.0811 18.0576C44.7803 18.2627 44.5592 18.5361 44.418 18.8779V19.3838C44.418 20.1221 44.5729 20.71 44.8828 21.1475C45.1927 21.5804 45.5938 21.7969 46.0859 21.7969C46.5781 21.7969 46.9678 21.6123 47.2549 21.2432C47.542 20.874 47.6855 20.3887 47.6855 19.7871C47.6855 19.1855 47.5397 18.6956 47.248 18.3174C46.9564 17.9391 46.569 17.75 46.0859 17.75ZM56.2373 23H54.5146V13.0469H56.2373V23ZM61.2412 21.8105C61.6559 21.8105 62 21.6898 62.2734 21.4482C62.5469 21.2067 62.6927 20.9082 62.7109 20.5527H64.2764C64.2581 21.013 64.1146 21.4437 63.8457 21.8447C63.5768 22.2412 63.2122 22.5557 62.752 22.7881C62.2917 23.0205 61.7949 23.1367 61.2617 23.1367C60.2272 23.1367 59.4069 22.8018 58.8008 22.1318C58.1947 21.4619 57.8916 20.5368 57.8916 19.3564V19.1855C57.8916 18.0599 58.1924 17.1598 58.7939 16.4854C59.3955 15.8063 60.2158 15.4668 61.2549 15.4668C62.1344 15.4668 62.8499 15.7243 63.4014 16.2393C63.9574 16.7497 64.249 17.4219 64.2764 18.2559H62.7109C62.6927 17.832 62.5469 17.4834 62.2734 17.21C62.0046 16.9365 61.6605 16.7998 61.2412 16.7998C60.7035 16.7998 60.2887 16.9958 59.9971 17.3877C59.7054 17.7751 59.5573 18.3652 59.5527 19.1582V19.4248C59.5527 20.2269 59.6963 20.8262 59.9834 21.2227C60.2751 21.6146 60.6943 21.8105 61.2412 21.8105ZM65.2197 19.2334C65.2197 18.5088 65.3633 17.8571 65.6504 17.2783C65.9375 16.695 66.3408 16.2484 66.8604 15.9385C67.3799 15.624 67.9769 15.4668 68.6514 15.4668C69.6494 15.4668 70.4583 15.7881 71.0781 16.4307C71.7025 17.0732 72.0397 17.9255 72.0898 18.9873L72.0967 19.377C72.0967 20.1061 71.9554 20.7578 71.6729 21.332C71.3949 21.9062 70.9938 22.3506 70.4697 22.665C69.9502 22.9795 69.3486 23.1367 68.665 23.1367C67.6214 23.1367 66.7852 22.7904 66.1562 22.0977C65.5319 21.4004 65.2197 20.473 65.2197 19.3154V19.2334ZM66.8809 19.377C66.8809 20.138 67.0381 20.735 67.3525 21.168C67.667 21.5964 68.1045 21.8105 68.665 21.8105C69.2256 21.8105 69.6608 21.5918 69.9707 21.1543C70.2852 20.7168 70.4424 20.0765 70.4424 19.2334C70.4424 18.486 70.2806 17.8936 69.957 17.4561C69.638 17.0186 69.2028 16.7998 68.6514 16.7998C68.109 16.7998 67.6784 17.0163 67.3594 17.4492C67.0404 17.8776 66.8809 18.5202 66.8809 19.377ZM75.043 15.6035L75.0908 16.458C75.6377 15.7972 76.3555 15.4668 77.2441 15.4668C78.7845 15.4668 79.5684 16.3486 79.5957 18.1123V23H77.9346V18.208C77.9346 17.7386 77.832 17.3923 77.627 17.1689C77.4264 16.9411 77.096 16.8271 76.6357 16.8271C75.9658 16.8271 75.4668 17.1302 75.1387 17.7363V23H73.4775V15.6035H75.043Z" fill="#0371FF"/>
<path fill-rule="evenodd" clip-rule="evenodd" d="M105.633 16.6402C106.176 15.9889 105.713 15 104.865 15H99.135C98.2872 15 97.824 15.9889 98.3668 16.6402L101.232 20.0781C101.632 20.5579 102.368 20.5579 102.768 20.0781L105.633 16.6402Z" fill="#0371FF"/>
<path d="M18 1H105V-1H18V1ZM105 35H18V37H105V35ZM18 35C8.61116 35 1 27.3888 1 18H-1C-1 28.4934 7.50659 37 18 37V35ZM122 18C122 27.3888 114.389 35 105 35V37C115.493 37 124 28.4934 124 18H122ZM105 1C114.389 1 122 8.61116 122 18H124C124 7.50659 115.493 -1 105 -1V1ZM18 -1C7.50659 -1 -1 7.50659 -1 18H1C1 8.61116 8.61116 1 18 1V-1Z" fill="#0371FF"/>
</svg>
