<svg width="112" height="32" viewBox="0 0 112 32" fill="none" xmlns="http://www.w3.org/2000/svg">
<path d="M0 16C0 7.16344 7.16344 0 16 0H96C104.837 0 112 7.16344 112 16V16C112 24.8366 104.837 32 96 32H16C7.16344 32 0 24.8366 0 16V16Z" fill="#F2F8FF"/>
<path d="M18.666 15.2646H19.6777C20.1882 15.2601 20.5915 15.1279 20.8877 14.8682C21.1885 14.6084 21.3389 14.2324 21.3389 13.7402C21.3389 13.2663 21.2135 12.8994 20.9629 12.6396C20.7168 12.3753 20.3385 12.2432 19.8281 12.2432C19.3815 12.2432 19.0146 12.373 18.7275 12.6328C18.4404 12.888 18.2969 13.223 18.2969 13.6377H16.6357C16.6357 13.1273 16.7702 12.6624 17.0391 12.2432C17.3125 11.8239 17.6908 11.498 18.1738 11.2656C18.6615 11.0286 19.2061 10.9102 19.8076 10.9102C20.8011 10.9102 21.5804 11.1608 22.1455 11.6621C22.7152 12.1589 23 12.8516 23 13.7402C23 14.1868 22.8564 14.6084 22.5693 15.0049C22.2868 15.3968 21.9199 15.693 21.4688 15.8936C22.0156 16.0804 22.4303 16.3743 22.7129 16.7754C23 17.1764 23.1436 17.6549 23.1436 18.2109C23.1436 19.1042 22.8359 19.8151 22.2207 20.3438C21.61 20.8724 20.8057 21.1367 19.8076 21.1367C18.8506 21.1367 18.0667 20.8815 17.4561 20.3711C16.8454 19.8607 16.54 19.1816 16.54 18.334H18.2012C18.2012 18.7715 18.347 19.127 18.6387 19.4004C18.9349 19.6738 19.3314 19.8105 19.8281 19.8105C20.3431 19.8105 20.7487 19.6738 21.0449 19.4004C21.3411 19.127 21.4893 18.7305 21.4893 18.2109C21.4893 17.6868 21.3343 17.2835 21.0244 17.001C20.7145 16.7184 20.2542 16.5771 19.6436 16.5771H18.666V15.2646ZM32.3945 21H25.7021V19.8584L29.0176 16.2422C29.4961 15.709 29.8356 15.2646 30.0361 14.9092C30.2412 14.5492 30.3438 14.1891 30.3438 13.8291C30.3438 13.3551 30.2093 12.9723 29.9404 12.6807C29.6761 12.389 29.3184 12.2432 28.8672 12.2432C28.3294 12.2432 27.9124 12.4072 27.6162 12.7354C27.32 13.0635 27.1719 13.5124 27.1719 14.082H25.5107C25.5107 13.4759 25.6475 12.9313 25.9209 12.4482C26.1989 11.9606 26.5931 11.5824 27.1035 11.3135C27.6185 11.0446 28.2109 10.9102 28.8809 10.9102C29.847 10.9102 30.6081 11.154 31.1641 11.6416C31.7246 12.1247 32.0049 12.7946 32.0049 13.6514C32.0049 14.1481 31.8636 14.6699 31.5811 15.2168C31.3031 15.7591 30.8451 16.3766 30.207 17.0693L27.7734 19.6738H32.3945V21ZM46.1934 12.4414H43.0898V21H41.374V12.4414H38.2979V11.0469H46.1934V12.4414ZM50.9873 21.1367C49.9346 21.1367 49.0801 20.8063 48.4238 20.1455C47.7721 19.4801 47.4463 18.596 47.4463 17.4932V17.2881C47.4463 16.5498 47.5876 15.8913 47.8701 15.3125C48.1572 14.7292 48.5583 14.2757 49.0732 13.9521C49.5882 13.6286 50.1624 13.4668 50.7959 13.4668C51.8031 13.4668 52.5801 13.7881 53.127 14.4307C53.6784 15.0732 53.9541 15.9824 53.9541 17.1582V17.8281H49.1211C49.1712 18.4388 49.374 18.9219 49.7295 19.2773C50.0895 19.6328 50.5407 19.8105 51.083 19.8105C51.8441 19.8105 52.4639 19.5029 52.9424 18.8877L53.8379 19.7422C53.5417 20.1842 53.1452 20.5283 52.6484 20.7744C52.1562 21.016 51.6025 21.1367 50.9873 21.1367ZM50.7891 14.7998C50.3333 14.7998 49.9642 14.9593 49.6816 15.2783C49.4036 15.5973 49.2259 16.0417 49.1484 16.6113H52.3135V16.4883C52.277 15.9323 52.1289 15.513 51.8691 15.2305C51.6094 14.9434 51.2493 14.7998 50.7891 14.7998ZM58.9053 16.0371L60.3135 13.6035H62.1592L59.8965 17.2471L62.2344 21H60.4023L58.9258 18.4707L57.4561 21H55.6104L57.9482 17.2471L55.6924 13.6035H57.5244L58.9053 16.0371ZM66.3721 11.8057V13.6035H67.6777V14.834H66.3721V18.9629C66.3721 19.2454 66.4268 19.4505 66.5361 19.5781C66.6501 19.7012 66.8506 19.7627 67.1377 19.7627C67.3291 19.7627 67.5228 19.7399 67.7188 19.6943V20.9795C67.3405 21.0843 66.9759 21.1367 66.625 21.1367C65.349 21.1367 64.7109 20.4326 64.7109 19.0244V14.834H63.4941V13.6035H64.7109V11.8057H66.3721Z" fill="#0371FF"/>
<path fill-rule="evenodd" clip-rule="evenodd" d="M94.6332 14.6402C95.176 13.9889 94.7128 13 93.865 13H88.135C87.2872 13 86.824 13.9889 87.3668 14.6402L90.2318 18.0781C90.6316 18.5579 91.3684 18.5579 91.7682 18.0781L94.6332 14.6402Z" fill="#0371FF"/>
<path d="M16 1H96V-1H16V1ZM96 31H16V33H96V31ZM16 31C7.71573 31 1 24.2843 1 16H-1C-1 25.3888 6.61116 33 16 33V31ZM111 16C111 24.2843 104.284 31 96 31V33C105.389 33 113 25.3888 113 16H111ZM96 1C104.284 1 111 7.71573 111 16H113C113 6.61116 105.389 -1 96 -1V1ZM16 -1C6.61116 -1 -1 6.61116 -1 16H1C1 7.71573 7.71573 1 16 1V-1Z" fill="#0371FF"/>
</svg>
