<svg width="98" height="24" viewBox="0 0 98 24" fill="none" xmlns="http://www.w3.org/2000/svg">
<path d="M0 12C0 5.37258 5.37258 0 12 0H86C92.6274 0 98 5.37258 98 12V12C98 18.6274 92.6274 24 86 24H12C5.37258 24 0 18.6274 0 12V12Z" fill="url(#paint0_linear)"/>
<rect x="13" y="7" width="10" height="10" fill="url(#paint1_linear)"/>
<path fill-rule="evenodd" clip-rule="evenodd" d="M12 6H24V9V10V18H12V10V9V6ZM13 10V17H23V10H13ZM23 9H13V7H23V9Z" fill="#0371FF"/>
<path d="M36.375 16H30.6387V15.0215L33.4805 11.9219C33.8906 11.4648 34.1816 11.084 34.3535 10.7793C34.5293 10.4707 34.6172 10.1621 34.6172 9.85352C34.6172 9.44727 34.502 9.11914 34.2715 8.86914C34.0449 8.61914 33.7383 8.49414 33.3516 8.49414C32.8906 8.49414 32.5332 8.63477 32.2793 8.91602C32.0254 9.19727 31.8984 9.58203 31.8984 10.0703H30.4746C30.4746 9.55078 30.5918 9.08398 30.8262 8.66992C31.0645 8.25195 31.4023 7.92773 31.8398 7.69727C32.2812 7.4668 32.7891 7.35156 33.3633 7.35156C34.1914 7.35156 34.8438 7.56055 35.3203 7.97852C35.8008 8.39258 36.041 8.9668 36.041 9.70117C36.041 10.127 35.9199 10.5742 35.6777 11.043C35.4395 11.5078 35.0469 12.0371 34.5 12.6309L32.4141 14.8633H36.375V16ZM42.2754 12.959H43.3359V14.1016H42.2754V16H40.8516V14.1016H37.166L37.125 13.2344L40.8047 7.46875H42.2754V12.959ZM38.6191 12.959H40.8516V9.39648L40.7461 9.58398L38.6191 12.959ZM48.9785 14.8164H52.8516V16H47.4961V7.46875H48.9785V14.8164ZM56.6426 16.1172C55.7402 16.1172 55.0078 15.834 54.4453 15.2676C53.8867 14.6973 53.6074 13.9395 53.6074 12.9941V12.8184C53.6074 12.1855 53.7285 11.6211 53.9707 11.125C54.2168 10.625 54.5605 10.2363 55.002 9.95898C55.4434 9.68164 55.9355 9.54297 56.4785 9.54297C57.3418 9.54297 58.0078 9.81836 58.4766 10.3691C58.9492 10.9199 59.1855 11.6992 59.1855 12.707V13.2812H55.043C55.0859 13.8047 55.2598 14.2188 55.5645 14.5234C55.873 14.8281 56.2598 14.9805 56.7246 14.9805C57.377 14.9805 57.9082 14.7168 58.3184 14.1895L59.0859 14.9219C58.832 15.3008 58.4922 15.5957 58.0664 15.8066C57.6445 16.0137 57.1699 16.1172 56.6426 16.1172ZM56.4727 10.6855C56.082 10.6855 55.7656 10.8223 55.5234 11.0957C55.2852 11.3691 55.1328 11.75 55.0664 12.2383H57.7793V12.1328C57.748 11.6562 57.6211 11.2969 57.3984 11.0547C57.1758 10.8086 56.8672 10.6855 56.4727 10.6855ZM60.7969 16V10.7148H59.8301V9.66016H60.7969V9.08008C60.7969 8.37695 60.9922 7.83398 61.3828 7.45117C61.7734 7.06836 62.3203 6.87695 63.0234 6.87695C63.2734 6.87695 63.5391 6.91211 63.8203 6.98242L63.7852 8.0957C63.6289 8.06445 63.4473 8.04883 63.2402 8.04883C62.5605 8.04883 62.2207 8.39844 62.2207 9.09766V9.66016H63.5098V10.7148H62.2207V16H60.7969ZM66.334 8.11914V9.66016H67.4531V10.7148H66.334V14.2539C66.334 14.4961 66.3809 14.6719 66.4746 14.7812C66.5723 14.8867 66.7441 14.9395 66.9902 14.9395C67.1543 14.9395 67.3203 14.9199 67.4883 14.8809V15.9824C67.1641 16.0723 66.8516 16.1172 66.5508 16.1172C65.457 16.1172 64.9102 15.5137 64.9102 14.3066V10.7148H63.8672V9.66016H64.9102V8.11914H66.334Z" fill="#0371FF"/>
<path fill-rule="evenodd" clip-rule="evenodd" d="M84.6332 10.6402C85.176 9.98886 84.7128 9 83.865 9H78.135C77.2872 9 76.824 9.98886 77.3668 10.6402L80.2318 14.0781C80.6316 14.5579 81.3684 14.5579 81.7682 14.0781L84.6332 10.6402Z" fill="#0371FF"/>
<path d="M12 1H86V-1H12V1ZM86 23H12V25H86V23ZM12 23C5.92487 23 1 18.0751 1 12H-1C-1 19.1797 4.8203 25 12 25V23ZM97 12C97 18.0751 92.0751 23 86 23V25C93.1797 25 99 19.1797 99 12H97ZM86 1C92.0751 1 97 5.92487 97 12H99C99 4.8203 93.1797 -1 86 -1V1ZM12 -1C4.8203 -1 -1 4.8203 -1 12H1C1 5.92487 5.92487 1 12 1V-1Z" fill="#0371FF"/>
<defs>
<linearGradient id="paint0_linear" x1="0" y1="12" x2="98" y2="12" gradientUnits="userSpaceOnUse">
<stop stop-color="#F7FAFF"/>
<stop offset="1" stop-color="#F7FAFF"/>
</linearGradient>
<linearGradient id="paint1_linear" x1="13" y1="12" x2="23" y2="12" gradientUnits="userSpaceOnUse">
<stop stop-color="#F7FAFF"/>
<stop offset="1" stop-color="#F7FAFF"/>
</linearGradient>
</defs>
</svg>
