<svg width="86" height="24" viewBox="0 0 86 24" fill="none" xmlns="http://www.w3.org/2000/svg">
<path d="M0 12C0 5.37258 5.37258 0 12 0H74C80.6274 0 86 5.37258 86 12V12C86 18.6274 80.6274 24 74 24H12C5.37258 24 0 18.6274 0 12V12Z" fill="white"/>
<path d="M18.375 16H12.6387V15.0215L15.4805 11.9219C15.8906 11.4648 16.1816 11.084 16.3535 10.7793C16.5293 10.4707 16.6172 10.1621 16.6172 9.85352C16.6172 9.44727 16.502 9.11914 16.2715 8.86914C16.0449 8.61914 15.7383 8.49414 15.3516 8.49414C14.8906 8.49414 14.5332 8.63477 14.2793 8.91602C14.0254 9.19727 13.8984 9.58203 13.8984 10.0703H12.4746C12.4746 9.55078 12.5918 9.08398 12.8262 8.66992C13.0645 8.25195 13.4023 7.92773 13.8398 7.69727C14.2812 7.4668 14.7891 7.35156 15.3633 7.35156C16.1914 7.35156 16.8438 7.56055 17.3203 7.97852C17.8008 8.39258 18.041 8.9668 18.041 9.70117C18.041 10.127 17.9199 10.5742 17.6777 11.043C17.4395 11.5078 17.0469 12.0371 16.5 12.6309L14.4141 14.8633H18.375V16ZM24.2754 12.959H25.3359V14.1016H24.2754V16H22.8516V14.1016H19.166L19.125 13.2344L22.8047 7.46875H24.2754V12.959ZM20.6191 12.959H22.8516V9.39648L22.7461 9.58398L20.6191 12.959ZM35.3086 8.66406H32.6484V16H31.1777V8.66406H28.541V7.46875H35.3086V8.66406ZM38.5605 16.1172C37.6582 16.1172 36.9258 15.834 36.3633 15.2676C35.8047 14.6973 35.5254 13.9395 35.5254 12.9941V12.8184C35.5254 12.1855 35.6465 11.6211 35.8887 11.125C36.1348 10.625 36.4785 10.2363 36.9199 9.95898C37.3613 9.68164 37.8535 9.54297 38.3965 9.54297C39.2598 9.54297 39.9258 9.81836 40.3945 10.3691C40.8672 10.9199 41.1035 11.6992 41.1035 12.707V13.2812H36.9609C37.0039 13.8047 37.1777 14.2188 37.4824 14.5234C37.791 14.8281 38.1777 14.9805 38.6426 14.9805C39.2949 14.9805 39.8262 14.7168 40.2363 14.1895L41.0039 14.9219C40.75 15.3008 40.4102 15.5957 39.9844 15.8066C39.5625 16.0137 39.0879 16.1172 38.5605 16.1172ZM38.3906 10.6855C38 10.6855 37.6836 10.8223 37.4414 11.0957C37.2031 11.3691 37.0508 11.75 36.9844 12.2383H39.6973V12.1328C39.666 11.6562 39.5391 11.2969 39.3164 11.0547C39.0938 10.8086 38.7852 10.6855 38.3906 10.6855ZM44.4902 11.7461L45.6973 9.66016H47.2793L45.3398 12.7832L47.3438 16H45.7734L44.5078 13.832L43.248 16H41.666L43.6699 12.7832L41.7363 9.66016H43.3066L44.4902 11.7461ZM50.0332 8.11914V9.66016H51.1523V10.7148H50.0332V14.2539C50.0332 14.4961 50.0801 14.6719 50.1738 14.7812C50.2715 14.8867 50.4434 14.9395 50.6895 14.9395C50.8535 14.9395 51.0195 14.9199 51.1875 14.8809V15.9824C50.8633 16.0723 50.5508 16.1172 50.25 16.1172C49.1562 16.1172 48.6094 15.5137 48.6094 14.3066V10.7148H47.5664V9.66016H48.6094V8.11914H50.0332Z" fill="#0371FF"/>
<path fill-rule="evenodd" clip-rule="evenodd" d="M72.6332 10.6402C73.176 9.98886 72.7128 9 71.865 9H66.135C65.2872 9 64.824 9.98886 65.3668 10.6402L68.2318 14.0781C68.6316 14.5579 69.3684 14.5579 69.7682 14.0781L72.6332 10.6402Z" fill="#0371FF"/>
<path d="M12 1H74V-1H12V1ZM74 23H12V25H74V23ZM12 23C5.92487 23 1 18.0751 1 12H-1C-1 19.1797 4.8203 25 12 25V23ZM85 12C85 18.0751 80.0751 23 74 23V25C81.1797 25 87 19.1797 87 12H85ZM74 1C80.0751 1 85 5.92487 85 12H87C87 4.8203 81.1797 -1 74 -1V1ZM12 -1C4.8203 -1 -1 4.8203 -1 12H1C1 5.92487 5.92487 1 12 1V-1Z" fill="#0371FF"/>
</svg>
