<svg width="64" height="64" viewBox="0 0 64 64" fill="none" xmlns="http://www.w3.org/2000/svg">
<circle cx="32" cy="32" r="31.5" fill="#FBFCFD" stroke="#B7C4D0"/>
<path fill-rule="evenodd" clip-rule="evenodd" d="M1 32C1 49.1208 14.8792 63 32 63C49.1208 63 63 49.1208 63 32H1Z" fill="#F6F7F9"/>
<path fill-rule="evenodd" clip-rule="evenodd" d="M40 23C41.1046 23 42 22.1046 42 21C42 19.8954 41.1046 19 40 19C38.8954 19 38 19.8954 38 21C38 22.1046 38.8954 23 40 23ZM44 21C44 22.914 42.6557 24.514 40.8598 24.9074C40.4257 27.12 38.9991 29.3614 36.8053 31H42.126C42.5701 29.2748 44.1362 28 46 28C48.2091 28 50 29.7909 50 32C50 34.2091 48.2091 36 46 36C44.1362 36 42.5701 34.7252 42.126 33H36.082C38.4996 34.5443 40.133 36.7951 40.7385 39.068C42.5948 39.4145 44 41.0432 44 43C44 45.2091 42.2091 47 40 47C37.7909 47 36 45.2091 36 43C36 41.2487 37.1255 39.7603 38.6926 39.2185C37.8616 36.722 35.3725 34.0997 31.5578 33.2688C31.0121 33.3699 30.4472 33.4396 29.8644 33.4744C29.1725 37.1884 25.9146 40 22 40C17.5817 40 14 36.4183 14 32C14 27.5817 17.5817 24 22 24C26.0796 24 29.446 27.0537 29.9381 31H32.4425C35.9783 29.9165 38.211 27.2537 38.8265 24.8251C37.19 24.3236 36 22.8008 36 21C36 18.7909 37.7909 17 40 17C42.2091 17 44 18.7909 44 21ZM40 41C38.8954 41 38 41.8954 38 43C38 44.1046 38.8954 45 40 45C41.1046 45 42 44.1046 42 43C42 41.8954 41.1046 41 40 41ZM46 34C47.1046 34 48 33.1046 48 32C48 30.8954 47.1046 30 46 30C44.8954 30 44 30.8954 44 32C44 33.1046 44.8954 34 46 34Z" fill="#93A7B8"/>
</svg>
