<svg width="64" height="64" viewBox="0 0 64 64" fill="none" xmlns="http://www.w3.org/2000/svg">
<circle cx="32" cy="32" r="31.5" fill="#FEFEFE" stroke="#B7C4D0"/>
<path fill-rule="evenodd" clip-rule="evenodd" d="M38.5 13L48 22.5V49.4167C48 50.2911 47.2837 51 46.4 51H17.6C16.7163 51 16 50.2911 16 49.4167V14.5833C16 13.7089 16.7163 13 17.6 13H38.5Z" fill="#B7C4D0"/>
<circle cx="44" cy="35" r="11" fill="#B7C4D0" stroke="#FEFEFE" stroke-width="2"/>
<mask id="path-4-inside-1" fill="white">
<path fill-rule="evenodd" clip-rule="evenodd" d="M48.1822 36.7705L49.7197 38.308C50.0981 38.6998 50.0927 39.3225 49.7076 39.7076C49.3225 40.0927 48.6998 40.0981 48.308 39.7197L46.7705 38.1822C44.6266 39.6012 41.7563 39.1659 40.1296 37.1749C38.5029 35.1839 38.6486 32.2845 40.4665 30.4665C42.2845 28.6486 45.1839 28.5029 47.1749 30.1296C49.1659 31.7563 49.6012 34.6266 48.1822 36.7705ZM44.022 31.0268C42.3678 31.0268 41.0268 32.3678 41.0268 34.022C41.0268 35.6761 42.3678 37.0171 44.022 37.0171C45.6761 37.0171 47.0171 35.6761 47.0171 34.022C47.0171 32.3678 45.6761 31.0268 44.022 31.0268Z"/>
</mask>
<path fill-rule="evenodd" clip-rule="evenodd" d="M48.1822 36.7705L49.7197 38.308C50.0981 38.6998 50.0927 39.3225 49.7076 39.7076C49.3225 40.0927 48.6998 40.0981 48.308 39.7197L46.7705 38.1822C44.6266 39.6012 41.7563 39.1659 40.1296 37.1749C38.5029 35.1839 38.6486 32.2845 40.4665 30.4665C42.2845 28.6486 45.1839 28.5029 47.1749 30.1296C49.1659 31.7563 49.6012 34.6266 48.1822 36.7705ZM44.022 31.0268C42.3678 31.0268 41.0268 32.3678 41.0268 34.022C41.0268 35.6761 42.3678 37.0171 44.022 37.0171C45.6761 37.0171 47.0171 35.6761 47.0171 34.022C47.0171 32.3678 45.6761 31.0268 44.022 31.0268Z" fill="#FEFEFE"/>
<path d="M49.7197 38.308L50.439 37.6133L50.433 37.607L50.4268 37.6009L49.7197 38.308ZM48.1822 36.7705L47.3483 36.2185L46.8974 36.8999L47.4751 37.4776L48.1822 36.7705ZM48.308 39.7197L47.6009 40.4268L47.607 40.433L47.6133 40.439L48.308 39.7197ZM46.7705 38.1822L47.4776 37.4751L46.8999 36.8974L46.2185 37.3483L46.7705 38.1822ZM40.1296 37.1749L40.904 36.5422L40.1296 37.1749ZM47.1749 30.1296L46.5422 30.904L47.1749 30.1296ZM50.4268 37.6009L48.8893 36.0634L47.4751 37.4776L49.0126 39.0151L50.4268 37.6009ZM50.4147 40.4147C51.1855 39.6438 51.1964 38.3974 50.439 37.6133L49.0005 39.0027C49.0012 39.0035 49.0013 39.0037 49.0009 39.0032C49.0007 39.0028 49.0004 39.0022 49.0002 39.0017C48.9998 39.0008 49 39.0008 49 39.0016C49 39.0024 48.9998 39.0024 49.0002 39.0015C49.0004 39.001 49.0007 39.0004 49.001 39C49.0013 38.9995 49.0013 38.9997 49.0005 39.0005L50.4147 40.4147ZM47.6133 40.439C48.3974 41.1964 49.6438 41.1855 50.4147 40.4147L49.0005 39.0005C48.9997 39.0013 48.9995 39.0013 49 39.001C49.0004 39.0007 49.001 39.0004 49.0015 39.0002C49.0024 38.9998 49.0024 39 49.0016 39C49.0008 39 49.0008 38.9998 49.0017 39.0002C49.0022 39.0004 49.0028 39.0007 49.0032 39.0009C49.0037 39.0013 49.0035 39.0012 49.0027 39.0005L47.6133 40.439ZM46.0634 38.8893L47.6009 40.4268L49.0151 39.0126L47.4776 37.4751L46.0634 38.8893ZM39.3552 37.8076C41.3068 40.1962 44.7503 40.7185 47.3224 39.0161L46.2185 37.3483C44.5028 38.4839 42.2058 38.1355 40.904 36.5422L39.3552 37.8076ZM39.7594 29.7594C37.5784 31.9405 37.4037 35.419 39.3552 37.8076L40.904 36.5422C39.6022 34.9489 39.7188 32.6285 41.1736 31.1736L39.7594 29.7594ZM47.8076 29.3552C45.419 27.4037 41.9405 27.5784 39.7594 29.7594L41.1736 31.1736C42.6285 29.7188 44.9489 29.6022 46.5422 30.904L47.8076 29.3552ZM49.0161 37.3224C50.7185 34.7503 50.1962 31.3068 47.8076 29.3552L46.5422 30.904C48.1355 32.2058 48.4839 34.5028 47.3483 36.2185L49.0161 37.3224ZM42.0268 34.022C42.0268 32.92 42.92 32.0268 44.022 32.0268V30.0268C41.8155 30.0268 40.0268 31.8155 40.0268 34.022H42.0268ZM44.022 36.0171C42.92 36.0171 42.0268 35.1239 42.0268 34.022H40.0268C40.0268 36.2284 41.8155 38.0171 44.022 38.0171V36.0171ZM46.0171 34.022C46.0171 35.1239 45.1239 36.0171 44.022 36.0171V38.0171C46.2284 38.0171 48.0171 36.2284 48.0171 34.022H46.0171ZM44.022 32.0268C45.1239 32.0268 46.0171 32.92 46.0171 34.022H48.0171C48.0171 31.8155 46.2284 30.0268 44.022 30.0268V32.0268Z" fill="#FEFEFE" mask="url(#path-4-inside-1)"/>
</svg>
