<svg width="64" height="64" viewBox="0 0 64 64" fill="none" xmlns="http://www.w3.org/2000/svg">
<circle cx="32" cy="32" r="31.5" fill="#FFD9D9" stroke="#D13240"/>
<path fill-rule="evenodd" clip-rule="evenodd" d="M34.5408 38.0417C34.5181 39.1298 33.6296 40 32.5412 40H32.4588C31.3704 40 30.4819 39.1298 30.4592 38.0417L30.0521 18.4995C30.0235 17.1275 31.1278 16 32.5 16C33.8722 16 34.9765 17.1275 34.9479 18.4995L34.5408 38.0417ZM32.5 48C33.8807 48 35 46.8807 35 45.5C35 44.1193 33.8807 43 32.5 43C31.1193 43 30 44.1193 30 45.5C30 46.8807 31.1193 48 32.5 48Z" fill="#D13240"/>
</svg>
