<svg width="64" height="64" viewBox="0 0 64 64" fill="none" xmlns="http://www.w3.org/2000/svg">
<circle cx="32" cy="32" r="31.5" fill="#FEFEFE" stroke="#B7C4D0"/>
<path fill-rule="evenodd" clip-rule="evenodd" d="M1 32C1 49.1208 14.8792 63 32 63C49.1208 63 63 49.1208 63 32H1Z" fill="#F6F7F9"/>
<path fill-rule="evenodd" clip-rule="evenodd" d="M36.2045 18.1082L32.471 16.117C32.177 15.961 31.824 15.961 31.53 16.117L16.53 24.117C16.204 24.291 16 24.631 16 25V29C16 29.553 16.448 30 17 30H31.1659C31.0568 29.3496 31 28.6814 31 28C31 27.2597 31.067 26.535 31.1954 25.8317C30.4913 25.5222 30 24.8187 30 24C30 22.895 30.895 22 32 22C32.1944 22 32.3822 22.0277 32.5599 22.0793C33.4599 20.4957 34.7098 19.137 36.2045 18.1082ZM43 40C43.6814 40 44.3496 39.9432 45 39.8341V42H43V40ZM35 36.9444C35.6132 37.4932 36.2832 37.9799 37 38.3946V42H35V36.9444ZM21 32H19V42H21V32ZM29 32H27V42H29V32ZM47 44C47.552 44 48 44.447 48 45V47C48 47.553 47.552 48 47 48H17C16.448 48 16 47.553 16 47V45C16 44.447 16.448 44 17 44H47Z" fill="#93A7B8"/>
<path fill-rule="evenodd" clip-rule="evenodd" d="M43 38C48.5228 38 53 33.5228 53 28C53 22.4772 48.5228 18 43 18C37.4772 18 33 22.4772 33 28C33 33.5228 37.4772 38 43 38ZM41 26H48V24H41V22L37 25L41 28V26ZM45 30H38V32H45V34L49 31L45 28V30Z" fill="#93A7B8"/>
</svg>
