<svg width="40" height="40" viewBox="0 0 40 40" fill="none" xmlns="http://www.w3.org/2000/svg">
<circle cx="20" cy="20" r="20" fill="#EDF0F3"/>
<path fill-rule="evenodd" clip-rule="evenodd" d="M25.2921 9.70696L26.7063 8.29275L31.7063 13.2927L30.2921 14.7069L25.2921 9.70696ZM8.29231 13.2932L13.2923 8.29327L14.7065 9.70748L9.70653 14.7074L8.29231 13.2932ZM27.2 26.927C31.0036 22.9864 30.9298 16.7193 27.0343 12.8694C23.1388 9.01962 16.8712 9.01962 12.9757 12.8694C9.08025 16.7193 9.00636 22.9864 12.81 26.927L10.2 30.4C9.98564 30.6858 9.94005 31.0643 10.0804 31.3928C10.2207 31.7214 10.5257 31.9501 10.8804 31.9928C11.2351 32.0356 11.5856 31.8858 11.8 31.6L14.329 28.227C17.7401 30.591 22.2599 30.591 25.671 28.227L28.2 31.6C28.4144 31.8858 28.7649 32.0356 29.1196 31.9928C29.4743 31.9501 29.7793 31.7214 29.9196 31.3928C30.06 31.0643 30.0144 30.6858 29.8 30.4L27.2 26.927ZM26 21H19V14H21V19H26V21Z" fill="#6F89A1"/>
</svg>
