<svg width="64" height="64" viewBox="0 0 64 64" fill="none" xmlns="http://www.w3.org/2000/svg">
<circle cx="32" cy="32" r="31.5" fill="#FEFEFE" stroke="#B7C4D0"/>
<path fill-rule="evenodd" clip-rule="evenodd" d="M38.5 13L48 22.5V49.4167C48 50.2911 47.2837 51 46.4 51H17.6C16.7163 51 16 50.2911 16 49.4167V14.5833C16 13.7089 16.7163 13 17.6 13H38.5Z" fill="#B7C4D0"/>
<circle cx="44" cy="35" r="11" fill="#B7C4D0" stroke="#FEFEFE" stroke-width="2"/>
<path fill-rule="evenodd" clip-rule="evenodd" d="M44 28C40.829 28 38.1505 30.1085 37.2899 33H39.4161C40.1876 31.2341 41.9497 30 44 30C45.6339 30 47.0847 30.7837 47.9971 31.9956L46.1521 31.9764L49.3602 36.0101L52.4017 32.0416L50.3359 32.02C49.2165 29.6443 46.8003 28 44 28ZM40.0014 38.0023L42.25 38.0074L39.0091 34L36 37.9932L37.6722 37.997C38.7951 40.3636 41.2065 42 44 42C47.1711 42 49.8496 39.8915 50.7102 37H48.584C47.8124 38.7659 46.0504 40 44 40C42.3652 40 40.9137 39.2154 40.0014 38.0023Z" fill="#FEFEFE"/>
</svg>
