<svg width="64" height="64" viewBox="0 0 64 64" fill="none" xmlns="http://www.w3.org/2000/svg">
<circle cx="32" cy="32" r="31.5" fill="#FBFCFD" stroke="#B7C4D0"/>
<path fill-rule="evenodd" clip-rule="evenodd" d="M24 13H21V16H17C15.8954 16 15 16.8954 15 18V22H49V18C49 16.8954 48.1046 16 47 16H43V13H40V16H24V13ZM49 24H15V46C15 47.1046 15.8954 48 17 48H47C48.1046 48 49 47.1046 49 46V24ZM35.7 31.3008C35.3 30.8997 34.7 30.8997 34.3 31.3008L32 33.6186L29.7 31.3008C29.3 30.8997 28.7 30.8997 28.3 31.3008C27.9 31.702 27.9 32.3037 28.3 32.7048L30.6 35.0225L28.3 37.3403C27.9 37.7414 27.9 38.3431 28.3 38.7442C28.5 38.9448 28.7 39.0451 29 39.0451C29.3 39.0451 29.5 38.9448 29.7 38.7442L32 36.4265L34.3 38.7442C34.5 38.9448 34.8 39.0451 35 39.0451C35.2 39.0451 35.5 38.9448 35.7 38.7442C36.1 38.3431 36.1 37.7414 35.7 37.3403L33.4 35.0225L35.7 32.7048C36.1 32.3037 36.1 31.702 35.7 31.3008Z" fill="#B7C4D0"/>
</svg>
