<svg width="64" height="64" viewBox="0 0 64 64" fill="none" xmlns="http://www.w3.org/2000/svg">
<circle cx="32" cy="32" r="31.5" fill="#FEFEFE" stroke="#B7C4D0"/>
<path fill-rule="evenodd" clip-rule="evenodd" d="M1 32C1 49.1208 14.8792 63 32 63C49.1208 63 63 49.1208 63 32H1Z" fill="#F6F7F9"/>
<path fill-rule="evenodd" clip-rule="evenodd" d="M30.2618 12.0543C31.0288 10.7066 32.9713 10.7066 33.7382 12.0543L50.2174 41.0108C50.9762 42.3441 50.0133 44 48.4792 44H15.5208C13.9867 44 13.0238 42.3441 13.7826 41.0108L30.2618 12.0543ZM30.1109 22.9969C30.0507 21.9124 30.9138 21 32 21C33.0862 21 33.9493 21.9124 33.8891 22.9969L33.4073 31.6687C33.3658 32.4156 32.748 33 32 33C31.252 33 30.6342 32.4156 30.5927 31.6687L30.1109 22.9969ZM32 39C33.1046 39 34 38.1046 34 37C34 35.8954 33.1046 35 32 35C30.8954 35 30 35.8954 30 37C30 38.1046 30.8954 39 32 39Z" fill="#B7C4D0"/>
</svg>
