<svg width="64" height="64" viewBox="0 0 64 64" fill="none" xmlns="http://www.w3.org/2000/svg">
<circle cx="32" cy="32" r="31.5" fill="#FBFCFD" stroke="#B7C4D0"/>
<path fill-rule="evenodd" clip-rule="evenodd" d="M1 32C1 49.1208 14.8792 63 32 63C49.1208 63 63 49.1208 63 32H1Z" fill="#F6F7F9"/>
<path fill-rule="evenodd" clip-rule="evenodd" d="M53.2642 9.32233L54.6784 10.7365L10.7372 54.6777L9.32302 53.2635L53.2642 9.32233Z" fill="#93A7B8"/>
<path fill-rule="evenodd" clip-rule="evenodd" d="M39.1609 19.685L32.471 16.117C32.177 15.961 31.824 15.961 31.53 16.117L16.53 24.117C16.204 24.291 16 24.631 16 25V29C16 29.553 16.448 30 17 30H28.8459L39.1609 19.685ZM27 35.5902L29 33.5902V44H35V32H37V44H43V32H45V44H47C47.552 44 48 44.447 48 45V47C48 47.553 47.552 48 47 48H17C16.448 48 16 47.553 16 47V46.5902L18.5902 44H19V43.5902L21 41.5902V44H27V35.5902ZM21 37.8459V32H19V39.8459L21 37.8459ZM32.5902 30L41.6029 20.9873L47.471 24.117C47.796 24.291 48 24.631 48 25V29C48 29.553 47.552 30 47 30H32.5902ZM32 26C30.895 26 30 25.105 30 24C30 22.895 30.895 22 32 22C33.105 22 34 22.895 34 24C34 25.105 33.105 26 32 26Z" fill="#93A7B8"/>
</svg>
