<svg width="40" height="40" viewBox="0 0 40 40" fill="none" xmlns="http://www.w3.org/2000/svg">
<circle cx="20" cy="20" r="20" fill="#EDF0F3"/>
<path fill-rule="evenodd" clip-rule="evenodd" d="M21.8758 24.95C20.2758 26.55 17.7758 26.55 16.1758 24.95C14.5758 23.35 14.4758 20.95 16.0758 19.45L20.5758 14.95C21.5758 13.95 23.1758 13.95 24.0758 14.95C25.0758 15.95 25.0758 17.55 24.0758 18.45L20.5758 22.05C20.1758 22.45 19.5758 22.45 19.1758 22.05C18.7758 21.65 18.7758 21.05 19.1758 20.65L21.9758 17.85L20.4758 16.45L17.7758 19.15C16.5758 20.35 16.5758 22.25 17.7758 23.35C18.9758 24.45 20.8758 24.55 21.9758 23.35L25.5758 19.75C27.3758 17.95 27.3758 15.15 25.5758 13.35C23.7758 11.55 20.9758 11.55 19.1758 13.35L14.6758 18.05C12.3758 20.35 12.4758 24.05 14.7758 26.35C15.9758 27.55 17.4758 28.15 19.0758 28.15C20.6758 28.15 22.1758 27.55 23.2758 26.35L27.5758 22.05L26.1758 20.65L21.8758 24.95Z" fill="#6F89A1"/>
</svg>
