<svg width="61" height="24" viewBox="0 0 61 24" fill="none" xmlns="http://www.w3.org/2000/svg">
<path d="M0 12C0 5.37258 5.37258 0 12 0H49C55.6274 0 61 5.37258 61 12C61 18.6274 55.6274 24 49 24H12C5.37258 24 0 18.6274 0 12Z" fill="#F6F6F6"/>
<path d="M20.8047 17H19.4854V12.3994H14.4678V17H13.1553V7.04688H14.4678V11.3262H19.4854V7.04688H20.8047V17ZM22.6025 13.2334C22.6025 12.5088 22.7438 11.8571 23.0264 11.2783C23.3135 10.6995 23.71 10.2529 24.2158 9.93848C24.7262 9.62402 25.3073 9.4668 25.959 9.4668C26.9661 9.4668 27.7796 9.81543 28.3994 10.5127C29.0238 11.21 29.3359 12.1374 29.3359 13.2949V13.3838C29.3359 14.1038 29.1969 14.751 28.9189 15.3252C28.6455 15.8949 28.2513 16.3392 27.7363 16.6582C27.2259 16.9772 26.638 17.1367 25.9727 17.1367C24.9701 17.1367 24.1566 16.7881 23.5322 16.0908C22.9124 15.3936 22.6025 14.4707 22.6025 13.3223V13.2334ZM23.874 13.3838C23.874 14.2041 24.0632 14.8626 24.4414 15.3594C24.8242 15.8561 25.3346 16.1045 25.9727 16.1045C26.6152 16.1045 27.1257 15.8538 27.5039 15.3525C27.8822 14.8467 28.0713 14.1403 28.0713 13.2334C28.0713 12.4222 27.8776 11.766 27.4902 11.2646C27.1074 10.7588 26.597 10.5059 25.959 10.5059C25.3346 10.5059 24.8311 10.7542 24.4482 11.251C24.0654 11.7477 23.874 12.4587 23.874 13.3838ZM33.2529 15.2842L35.085 9.60352H36.377L33.7246 17H32.7607L30.0811 9.60352H31.373L33.2529 15.2842ZM40.5674 17.1367C39.5648 17.1367 38.749 16.8086 38.1201 16.1523C37.4912 15.4915 37.1768 14.6097 37.1768 13.5068V13.2744C37.1768 12.5407 37.3158 11.8867 37.5938 11.3125C37.8763 10.7337 38.2682 10.2826 38.7695 9.95898C39.2754 9.63086 39.8223 9.4668 40.4102 9.4668C41.3717 9.4668 42.1191 9.78353 42.6523 10.417C43.1855 11.0505 43.4521 11.9574 43.4521 13.1377V13.6641H38.4414C38.4596 14.3932 38.6715 14.9834 39.0771 15.4346C39.4873 15.8812 40.0068 16.1045 40.6357 16.1045C41.0824 16.1045 41.4606 16.0133 41.7705 15.8311C42.0804 15.6488 42.3516 15.4072 42.584 15.1064L43.3564 15.708C42.7367 16.6605 41.807 17.1367 40.5674 17.1367ZM40.4102 10.5059C39.8997 10.5059 39.4714 10.6927 39.125 11.0664C38.7786 11.4355 38.5645 11.9551 38.4824 12.625H42.1875V12.5293C42.151 11.8867 41.9779 11.39 41.668 11.0391C41.3581 10.6836 40.9388 10.5059 40.4102 10.5059ZM48.4971 10.7383C48.3057 10.7064 48.0983 10.6904 47.875 10.6904C47.0456 10.6904 46.4827 11.0436 46.1865 11.75V17H44.9219V9.60352H46.1523L46.1729 10.458C46.5876 9.7972 47.1755 9.4668 47.9365 9.4668C48.1826 9.4668 48.3695 9.4987 48.4971 9.5625V10.7383Z" fill="#2B455D"/>
</svg>
