<svg width="82" height="24" viewBox="0 0 82 24" fill="none" xmlns="http://www.w3.org/2000/svg">
<path d="M0 12C0 5.37258 5.37258 0 12 0H70C76.6274 0 82 5.37258 82 12V12C82 18.6274 76.6274 24 70 24H12C5.37258 24 0 18.6274 0 12V12Z" fill="#F6F6F6"/>
<path fill-rule="evenodd" clip-rule="evenodd" d="M12.4268 14C13.4563 16.913 16.2344 19 19.5 19C22.7655 19 25.5436 16.913 26.5732 14H12.4268Z" fill="#F6F7F9"/>
<path fill-rule="evenodd" clip-rule="evenodd" d="M27 11.5C27 15.6421 23.6421 19 19.5 19C15.3579 19 12 15.6421 12 11.5C12 7.35786 15.3579 4 19.5 4C23.6421 4 27 7.35786 27 11.5ZM25.5018 14C24.5223 16.349 22.2039 18 19.5 18C16.7961 18 14.4777 16.349 13.4982 14H18.2H19.341H25.5018ZM25.8261 13H19.891L22.366 8.5L21.5 8L18.75 13H13.1739C13.0602 12.5185 13 12.0163 13 11.5C13 7.91015 15.9101 5 19.5 5C23.0899 5 26 7.91015 26 11.5C26 12.0163 25.9398 12.5185 25.8261 13Z" fill="#4B6C89"/>
<path d="M41.8047 17H40.4854V12.3994H35.4678V17H34.1553V7.04688H35.4678V11.3262H40.4854V7.04688H41.8047V17ZM43.6025 13.2334C43.6025 12.5088 43.7438 11.8571 44.0264 11.2783C44.3135 10.6995 44.71 10.2529 45.2158 9.93848C45.7262 9.62402 46.3073 9.4668 46.959 9.4668C47.9661 9.4668 48.7796 9.81543 49.3994 10.5127C50.0238 11.21 50.3359 12.1374 50.3359 13.2949V13.3838C50.3359 14.1038 50.1969 14.751 49.9189 15.3252C49.6455 15.8949 49.2513 16.3392 48.7363 16.6582C48.2259 16.9772 47.638 17.1367 46.9727 17.1367C45.9701 17.1367 45.1566 16.7881 44.5322 16.0908C43.9124 15.3936 43.6025 14.4707 43.6025 13.3223V13.2334ZM44.874 13.3838C44.874 14.2041 45.0632 14.8626 45.4414 15.3594C45.8242 15.8561 46.3346 16.1045 46.9727 16.1045C47.6152 16.1045 48.1257 15.8538 48.5039 15.3525C48.8822 14.8467 49.0713 14.1403 49.0713 13.2334C49.0713 12.4222 48.8776 11.766 48.4902 11.2646C48.1074 10.7588 47.597 10.5059 46.959 10.5059C46.3346 10.5059 45.8311 10.7542 45.4482 11.251C45.0654 11.7477 44.874 12.4587 44.874 13.3838ZM54.2529 15.2842L56.085 9.60352H57.377L54.7246 17H53.7607L51.0811 9.60352H52.373L54.2529 15.2842ZM61.5674 17.1367C60.5648 17.1367 59.749 16.8086 59.1201 16.1523C58.4912 15.4915 58.1768 14.6097 58.1768 13.5068V13.2744C58.1768 12.5407 58.3158 11.8867 58.5938 11.3125C58.8763 10.7337 59.2682 10.2826 59.7695 9.95898C60.2754 9.63086 60.8223 9.4668 61.4102 9.4668C62.3717 9.4668 63.1191 9.78353 63.6523 10.417C64.1855 11.0505 64.4521 11.9574 64.4521 13.1377V13.6641H59.4414C59.4596 14.3932 59.6715 14.9834 60.0771 15.4346C60.4873 15.8812 61.0068 16.1045 61.6357 16.1045C62.0824 16.1045 62.4606 16.0133 62.7705 15.8311C63.0804 15.6488 63.3516 15.4072 63.584 15.1064L64.3564 15.708C63.7367 16.6605 62.807 17.1367 61.5674 17.1367ZM61.4102 10.5059C60.8997 10.5059 60.4714 10.6927 60.125 11.0664C59.7786 11.4355 59.5645 11.9551 59.4824 12.625H63.1875V12.5293C63.151 11.8867 62.9779 11.39 62.668 11.0391C62.3581 10.6836 61.9388 10.5059 61.4102 10.5059ZM69.4971 10.7383C69.3057 10.7064 69.0983 10.6904 68.875 10.6904C68.0456 10.6904 67.4827 11.0436 67.1865 11.75V17H65.9219V9.60352H67.1523L67.1729 10.458C67.5876 9.7972 68.1755 9.4668 68.9365 9.4668C69.1826 9.4668 69.3695 9.4987 69.4971 9.5625V10.7383Z" fill="#2B455D"/>
</svg>
