<svg width="79" height="24" viewBox="0 0 79 24" fill="none" xmlns="http://www.w3.org/2000/svg">
<path d="M0 12C0 5.37258 5.37258 0 12 0H67C73.6274 0 79 5.37258 79 12C79 18.6274 73.6274 24 67 24H12C5.37258 24 0 18.6274 0 12Z" fill="white"/>
<path d="M13.1553 17V7.04688H15.9648C16.8307 7.04688 17.5964 7.23828 18.2617 7.62109C18.9271 8.00391 19.4398 8.5485 19.7998 9.25488C20.1644 9.96126 20.349 10.7725 20.3535 11.6885V12.3242C20.3535 13.263 20.1712 14.0856 19.8066 14.792C19.4466 15.4984 18.9294 16.0407 18.2549 16.4189C17.585 16.7972 16.8034 16.9909 15.9102 17H13.1553ZM14.4678 8.12695V15.9268H15.8486C16.8604 15.9268 17.6465 15.6123 18.207 14.9834C18.7721 14.3545 19.0547 13.459 19.0547 12.2969V11.7158C19.0547 10.5856 18.7881 9.70833 18.2549 9.08398C17.7262 8.45508 16.9743 8.13607 15.999 8.12695H14.4678ZM23.5186 17H22.2539V9.60352H23.5186V17ZM22.1514 7.6416C22.1514 7.43652 22.2129 7.26335 22.3359 7.12207C22.4635 6.98079 22.6504 6.91016 22.8965 6.91016C23.1426 6.91016 23.3294 6.98079 23.457 7.12207C23.5846 7.26335 23.6484 7.43652 23.6484 7.6416C23.6484 7.84668 23.5846 8.01758 23.457 8.1543C23.3294 8.29102 23.1426 8.35938 22.8965 8.35938C22.6504 8.35938 22.4635 8.29102 22.3359 8.1543C22.2129 8.01758 22.1514 7.84668 22.1514 7.6416ZM29.8555 15.0381C29.8555 14.6963 29.7256 14.432 29.4658 14.2451C29.2106 14.0537 28.7617 13.8896 28.1191 13.7529C27.4811 13.6162 26.973 13.4521 26.5947 13.2607C26.221 13.0693 25.943 12.8415 25.7607 12.5771C25.583 12.3128 25.4941 11.9984 25.4941 11.6338C25.4941 11.0277 25.7493 10.515 26.2598 10.0957C26.7747 9.67643 27.431 9.4668 28.2285 9.4668C29.0671 9.4668 29.7461 9.68327 30.2656 10.1162C30.7897 10.5492 31.0518 11.1029 31.0518 11.7773H29.7803C29.7803 11.431 29.6322 11.1325 29.3359 10.8818C29.0443 10.6312 28.6751 10.5059 28.2285 10.5059C27.7682 10.5059 27.4082 10.6061 27.1484 10.8066C26.8887 11.0072 26.7588 11.2692 26.7588 11.5928C26.7588 11.8981 26.8796 12.1283 27.1211 12.2832C27.3626 12.4382 27.7979 12.5863 28.4268 12.7275C29.0602 12.8688 29.5729 13.0374 29.9648 13.2334C30.3568 13.4294 30.6462 13.6663 30.833 13.9443C31.0244 14.2178 31.1201 14.5527 31.1201 14.9492C31.1201 15.61 30.8558 16.141 30.3271 16.542C29.7985 16.9385 29.1126 17.1367 28.2695 17.1367C27.6771 17.1367 27.153 17.0319 26.6973 16.8223C26.2415 16.6126 25.8838 16.321 25.624 15.9473C25.3688 15.569 25.2412 15.1611 25.2412 14.7236H26.5059C26.5286 15.1475 26.6973 15.4847 27.0117 15.7354C27.3307 15.9814 27.75 16.1045 28.2695 16.1045C28.748 16.1045 29.1309 16.0088 29.418 15.8174C29.7096 15.6214 29.8555 15.3617 29.8555 15.0381ZM37.334 17C37.2611 16.8542 37.2018 16.5944 37.1562 16.2207C36.5684 16.8314 35.8665 17.1367 35.0508 17.1367C34.3216 17.1367 33.7223 16.9316 33.2529 16.5215C32.7881 16.1068 32.5557 15.5827 32.5557 14.9492C32.5557 14.179 32.8473 13.582 33.4307 13.1582C34.0186 12.7298 34.8434 12.5156 35.9053 12.5156H37.1357V11.9346C37.1357 11.4925 37.0036 11.1416 36.7393 10.8818C36.4749 10.6175 36.0853 10.4854 35.5703 10.4854C35.1191 10.4854 34.7409 10.5993 34.4355 10.8271C34.1302 11.055 33.9775 11.3307 33.9775 11.6543H32.7061C32.7061 11.2852 32.8359 10.9297 33.0957 10.5879C33.36 10.2415 33.7155 9.9681 34.1621 9.76758C34.6133 9.56706 35.1077 9.4668 35.6455 9.4668C36.4977 9.4668 37.1654 9.68099 37.6484 10.1094C38.1315 10.5332 38.3822 11.1188 38.4004 11.8662V15.2705C38.4004 15.9495 38.487 16.4896 38.6602 16.8906V17H37.334ZM35.2354 16.0361C35.6318 16.0361 36.0078 15.9336 36.3633 15.7285C36.7188 15.5234 36.9762 15.2568 37.1357 14.9287V13.4111H36.1445C34.5951 13.4111 33.8203 13.8646 33.8203 14.7715C33.8203 15.168 33.9525 15.4779 34.2168 15.7012C34.4811 15.9245 34.8206 16.0361 35.2354 16.0361ZM46.6445 13.3838C46.6445 14.514 46.3848 15.4232 45.8652 16.1113C45.3457 16.7949 44.6484 17.1367 43.7734 17.1367C42.8392 17.1367 42.1169 16.8063 41.6064 16.1455L41.5449 17H40.3828V6.5H41.6475V10.417C42.1579 9.78353 42.862 9.4668 43.7598 9.4668C44.6576 9.4668 45.3617 9.80632 45.8721 10.4854C46.387 11.1644 46.6445 12.0941 46.6445 13.2744V13.3838ZM45.3799 13.2402C45.3799 12.3789 45.2135 11.7135 44.8809 11.2441C44.5482 10.7747 44.0697 10.54 43.4453 10.54C42.6113 10.54 42.012 10.9274 41.6475 11.7021V14.9014C42.0348 15.6761 42.6387 16.0635 43.459 16.0635C44.0651 16.0635 44.5368 15.8288 44.874 15.3594C45.2113 14.89 45.3799 14.1836 45.3799 13.2402ZM49.6182 17H48.3535V6.5H49.6182V17ZM54.7178 17.1367C53.7152 17.1367 52.8994 16.8086 52.2705 16.1523C51.6416 15.4915 51.3271 14.6097 51.3271 13.5068V13.2744C51.3271 12.5407 51.4661 11.8867 51.7441 11.3125C52.0267 10.7337 52.4186 10.2826 52.9199 9.95898C53.4258 9.63086 53.9727 9.4668 54.5605 9.4668C55.5221 9.4668 56.2695 9.78353 56.8027 10.417C57.3359 11.0505 57.6025 11.9574 57.6025 13.1377V13.6641H52.5918C52.61 14.3932 52.8219 14.9834 53.2275 15.4346C53.6377 15.8812 54.1572 16.1045 54.7861 16.1045C55.2327 16.1045 55.611 16.0133 55.9209 15.8311C56.2308 15.6488 56.502 15.4072 56.7344 15.1064L57.5068 15.708C56.887 16.6605 55.9574 17.1367 54.7178 17.1367ZM54.5605 10.5059C54.0501 10.5059 53.6217 10.6927 53.2754 11.0664C52.929 11.4355 52.7148 11.9551 52.6328 12.625H56.3379V12.5293C56.3014 11.8867 56.1283 11.39 55.8184 11.0391C55.5085 10.6836 55.0892 10.5059 54.5605 10.5059ZM58.7646 13.2402C58.7646 12.1055 59.0335 11.194 59.5713 10.5059C60.109 9.81315 60.8132 9.4668 61.6836 9.4668C62.5495 9.4668 63.2354 9.76302 63.7412 10.3555V6.5H65.0059V17H63.8438L63.7822 16.207C63.2764 16.8268 62.5723 17.1367 61.6699 17.1367C60.8132 17.1367 60.1136 16.7858 59.5713 16.084C59.0335 15.3822 58.7646 14.4661 58.7646 13.3359V13.2402ZM60.0293 13.3838C60.0293 14.2223 60.2025 14.8786 60.5488 15.3525C60.8952 15.8265 61.3737 16.0635 61.9844 16.0635C62.7865 16.0635 63.3721 15.7035 63.7412 14.9834V11.5859C63.363 10.8887 62.7819 10.54 61.998 10.54C61.3783 10.54 60.8952 10.7793 60.5488 11.2578C60.2025 11.7363 60.0293 12.445 60.0293 13.3838Z" fill="#B7C4D0"/>
</svg>
