<svg width="146" height="146" viewBox="0 0 146 146" fill="none" xmlns="http://www.w3.org/2000/svg">
<circle cx="73" cy="73" r="73" fill="white"/>
<mask id="mask0" mask-type="alpha" maskUnits="userSpaceOnUse" x="0" y="0" width="146" height="146">
<circle cx="73" cy="73" r="73" fill="white"/>
</mask>
<g mask="url(#mask0)">
<circle cx="73" cy="73" r="73" fill="#DAF5FF"/>
<path fill-rule="evenodd" clip-rule="evenodd" d="M-63.5887 80.9951L-17.5366 91.3882C-17.5366 91.3882 3.20712 96.5922 -4.45929 114.615C-12.1257 132.638 -32.9896 180.195 -32.9896 180.195L-44.5216 171.055C-44.5216 171.055 -35.8949 117.981 -29.0225 114.615C-42.9291 114.048 -62.9916 111.861 -62.9916 111.861L-63.5887 80.9951Z" fill="#1B32CF"/>
<path fill-rule="evenodd" clip-rule="evenodd" d="M-95 76C-95 75.4477 -94.5523 75 -94 75H77.8145C78.3668 75 78.8145 75.4477 78.8145 76V83.6235C78.8145 84.1758 78.3668 84.6235 77.8145 84.6235H-94C-94.5523 84.6235 -95 84.1758 -95 83.6235V76Z" fill="#071471"/>
<path fill-rule="evenodd" clip-rule="evenodd" d="M62.7206 83.0196H65.9394V213.739H62.7206L62.7206 83.0196Z" fill="#071471"/>
<path fill-rule="evenodd" clip-rule="evenodd" d="M18.0008 31L15.0293 70.8728H-29.0003L-29 74.8601H43.3451L46.4128 35.7847L18.0008 31Z" fill="#3048E9"/>
<ellipse cx="32.1736" cy="55.1568" rx="2.83399" ry="5.22295" transform="rotate(7 32.1736 55.1568)" fill="white"/>
<path fill-rule="evenodd" clip-rule="evenodd" d="M37 75.4646H52.3394C52.3394 75.4646 50.1133 68.1533 44.9148 67.5585C39.7163 66.9637 37 75.4646 37 75.4646Z" fill="#2E9CF2"/>
<path fill-rule="evenodd" clip-rule="evenodd" d="M43.3842 67.5195C48.3301 67.5195 50.6624 73.5184 50.6624 75.4645C50.6624 77.4107 50.6624 128.82 50.6624 128.82C50.6624 128.82 52.4289 135.847 58.6511 135.847C64.8733 135.847 66.8715 130.848 66.8715 128.82C66.8715 126.792 66.8715 67.5195 66.8715 67.5195C66.8715 67.5195 38.4383 67.5195 43.3842 67.5195Z" fill="#B1EAFF"/>
<path fill-rule="evenodd" clip-rule="evenodd" d="M72.5229 27C72.5229 27 79.8534 28.5179 79.8534 36.5776C79.8534 44.6373 79.8534 89.6641 79.8534 89.6641C79.8534 89.6641 81.2061 96.1304 87.3189 96.1304C93.4318 96.1304 94.5684 89.6641 94.5684 89.6641V56.1661C94.5684 56.1661 95.9337 48.4243 102.17 48.4243C108.407 48.4243 118.541 48.4243 118.541 48.4243V33.9482C118.541 33.9482 116.071 27 111.214 27C106.356 27 72.5229 27 72.5229 27Z" fill="#B1EAFF"/>
<path fill-rule="evenodd" clip-rule="evenodd" d="M101.587 48.4515C101.587 48.4515 108.128 50.6201 108.128 57.5621C108.128 64.5041 108.128 108.039 108.128 108.039C108.128 108.039 108.128 116.779 114.83 116.779C121.532 116.779 122.038 108.039 122.038 108.039H146.798V57.5621C146.798 57.5621 146.798 48.4515 139.451 48.4515C132.103 48.4515 101.587 48.4515 101.587 48.4515Z" fill="#B1EAFF"/>
<path fill-rule="evenodd" clip-rule="evenodd" d="M57.1835 135.845H89.9241C89.9241 135.845 97.5504 135.943 97.5504 129.177C97.5504 122.411 97.5504 95.7715 97.5504 95.7715H85.9716C85.9716 95.7715 79.7891 94.24 79.7891 88.2055C79.7891 82.1711 79.9188 34.0803 79.9188 34.0803C79.9188 34.0803 78.3834 27 72.5031 27C66.6229 27 65.2569 31.0409 65.2569 34.0803C65.2569 37.1197 65.2569 129.177 65.2569 129.177C65.2569 129.177 64.7602 131.976 62.8348 133.629C60.9095 135.282 57.1835 135.845 57.1835 135.845Z" fill="#2E9CF2"/>
<path fill-rule="evenodd" clip-rule="evenodd" d="M86.2477 96.1216C86.2477 96.1216 92.458 94.282 93.6652 89.2939C94.8724 84.3057 94.3165 56.7029 94.3165 56.7029C94.3165 56.7029 95.0879 48.4515 101.756 48.4515C108.423 48.4515 108.853 54.3546 108.853 56.7029C108.853 59.0513 108.853 96.1216 108.853 96.1216H86.2477Z" fill="#2E9CF2"/>
<path fill-rule="evenodd" clip-rule="evenodd" d="M113.697 116.779C113.697 116.779 120.648 115.191 122.116 108.044C125.449 108.035 155.679 108.044 155.679 108.044C155.679 108.044 152.752 116.779 147.867 116.779C142.982 116.779 113.697 116.779 113.697 116.779Z" fill="#2E9CF2"/>
</g>
</svg>
