<svg width="1160" height="32" viewBox="0 0 1160 32" fill="none" xmlns="http://www.w3.org/2000/svg">
<path fill-rule="evenodd" clip-rule="evenodd" d="M0 4C0 1.79086 1.79086 0 4 0H1156C1158.21 0 1160 1.79086 1160 4V28C1160 30.2091 1158.21 32 1156 32H3.99997C1.79083 32 0 30.2091 0 28V4Z" fill="#FFD9D9"/>
<path d="M1077.87 18.1426L1080.04 11.4688H1081.67L1078.6 20H1077.16L1074.11 11.4688H1075.73L1077.87 18.1426ZM1084.01 20H1082.59V13.6602H1084.01V20ZM1082.5 12.0137C1082.5 11.7949 1082.57 11.6133 1082.71 11.4688C1082.85 11.3242 1083.05 11.252 1083.3 11.252C1083.56 11.252 1083.76 11.3242 1083.9 11.4688C1084.04 11.6133 1084.11 11.7949 1084.11 12.0137C1084.11 12.2285 1084.04 12.4082 1083.9 12.5527C1083.76 12.6934 1083.56 12.7637 1083.3 12.7637C1083.05 12.7637 1082.85 12.6934 1082.71 12.5527C1082.57 12.4082 1082.5 12.2285 1082.5 12.0137ZM1088.36 20.1172C1087.46 20.1172 1086.73 19.834 1086.16 19.2676C1085.61 18.6973 1085.33 17.9395 1085.33 16.9941V16.8184C1085.33 16.1855 1085.45 15.6211 1085.69 15.125C1085.94 14.625 1086.28 14.2363 1086.72 13.959C1087.16 13.6816 1087.65 13.543 1088.2 13.543C1089.06 13.543 1089.73 13.8184 1090.2 14.3691C1090.67 14.9199 1090.9 15.6992 1090.9 16.707V17.2812H1086.76C1086.8 17.8047 1086.98 18.2188 1087.28 18.5234C1087.59 18.8281 1087.98 18.9805 1088.44 18.9805C1089.1 18.9805 1089.63 18.7168 1090.04 18.1895L1090.8 18.9219C1090.55 19.3008 1090.21 19.5957 1089.79 19.8066C1089.36 20.0137 1088.89 20.1172 1088.36 20.1172ZM1088.19 14.6855C1087.8 14.6855 1087.48 14.8223 1087.24 15.0957C1087 15.3691 1086.85 15.75 1086.79 16.2383H1089.5V16.1328C1089.47 15.6562 1089.34 15.2969 1089.12 15.0547C1088.89 14.8086 1088.59 14.6855 1088.19 14.6855ZM1097.58 18.0371L1098.59 13.6602H1099.98L1098.25 20H1097.08L1095.72 15.6465L1094.38 20H1093.21L1091.48 13.6602H1092.87L1093.89 17.9902L1095.19 13.6602H1096.27L1097.58 18.0371ZM1107.19 16.7129H1105.54V20H1104.06V11.4688H1107.06C1108.04 11.4688 1108.8 11.6895 1109.34 12.1309C1109.87 12.5723 1110.14 13.2109 1110.14 14.0469C1110.14 14.6172 1110 15.0957 1109.72 15.4824C1109.45 15.8652 1109.07 16.1602 1108.58 16.3672L1110.49 19.9238V20H1108.9L1107.19 16.7129ZM1105.54 15.5234H1107.06C1107.56 15.5234 1107.96 15.3984 1108.24 15.1484C1108.52 14.8945 1108.66 14.5488 1108.66 14.1113C1108.66 13.6543 1108.53 13.3008 1108.27 13.0508C1108.01 12.8008 1107.62 12.6719 1107.11 12.6641H1105.54V15.5234ZM1114.2 20.1172C1113.3 20.1172 1112.57 19.834 1112 19.2676C1111.45 18.6973 1111.17 17.9395 1111.17 16.9941V16.8184C1111.17 16.1855 1111.29 15.6211 1111.53 15.125C1111.78 14.625 1112.12 14.2363 1112.56 13.959C1113 13.6816 1113.49 13.543 1114.04 13.543C1114.9 13.543 1115.57 13.8184 1116.04 14.3691C1116.51 14.9199 1116.74 15.6992 1116.74 16.707V17.2812H1112.6C1112.64 17.8047 1112.82 18.2188 1113.12 18.5234C1113.43 18.8281 1113.82 18.9805 1114.28 18.9805C1114.94 18.9805 1115.47 18.7168 1115.88 18.1895L1116.64 18.9219C1116.39 19.3008 1116.05 19.5957 1115.62 19.8066C1115.2 20.0137 1114.73 20.1172 1114.2 20.1172ZM1114.03 14.6855C1113.64 14.6855 1113.32 14.8223 1113.08 15.0957C1112.84 15.3691 1112.69 15.75 1112.62 16.2383H1115.34V16.1328C1115.31 15.6562 1115.18 15.2969 1114.96 15.0547C1114.73 14.8086 1114.43 14.6855 1114.03 14.6855ZM1123.41 16.8945C1123.41 17.875 1123.18 18.6582 1122.74 19.2441C1122.29 19.8262 1121.7 20.1172 1120.95 20.1172C1120.25 20.1172 1119.69 19.8887 1119.28 19.4316V22.4375H1117.85V13.6602H1119.16L1119.22 14.3047C1119.64 13.7969 1120.21 13.543 1120.93 13.543C1121.7 13.543 1122.31 13.832 1122.74 14.4102C1123.19 14.9844 1123.41 15.7832 1123.41 16.8066V16.8945ZM1121.99 16.7715C1121.99 16.1387 1121.86 15.6367 1121.61 15.2656C1121.36 14.8945 1121 14.709 1120.53 14.709C1119.95 14.709 1119.53 14.9492 1119.28 15.4297V18.2422C1119.53 18.7344 1119.96 18.9805 1120.54 18.9805C1120.99 18.9805 1121.35 18.7988 1121.6 18.4355C1121.86 18.0684 1121.99 17.5137 1121.99 16.7715ZM1124.35 16.7715C1124.35 16.1504 1124.47 15.5918 1124.72 15.0957C1124.96 14.5957 1125.31 14.2129 1125.76 13.9473C1126.2 13.6777 1126.71 13.543 1127.29 13.543C1128.15 13.543 1128.84 13.8184 1129.37 14.3691C1129.91 14.9199 1130.2 15.6504 1130.24 16.5605L1130.24 16.8945C1130.24 17.5195 1130.12 18.0781 1129.88 18.5703C1129.64 19.0625 1129.3 19.4434 1128.85 19.7129C1128.4 19.9824 1127.89 20.1172 1127.3 20.1172C1126.41 20.1172 1125.69 19.8203 1125.15 19.2266C1124.62 18.6289 1124.35 17.834 1124.35 16.8418V16.7715ZM1125.77 16.8945C1125.77 17.5469 1125.91 18.0586 1126.18 18.4297C1126.45 18.7969 1126.82 18.9805 1127.3 18.9805C1127.78 18.9805 1128.16 18.793 1128.42 18.418C1128.69 18.043 1128.83 17.4941 1128.83 16.7715C1128.83 16.1309 1128.69 15.623 1128.41 15.248C1128.14 14.873 1127.76 14.6855 1127.29 14.6855C1126.83 14.6855 1126.46 14.8711 1126.18 15.2422C1125.91 15.6094 1125.77 16.1602 1125.77 16.8945ZM1134.77 14.9609C1134.58 14.9297 1134.39 14.9141 1134.19 14.9141C1133.54 14.9141 1133.1 15.1641 1132.87 15.6641V20H1131.45V13.6602H1132.8L1132.84 14.3691C1133.18 13.8184 1133.66 13.543 1134.27 13.543C1134.47 13.543 1134.64 13.5703 1134.77 13.625L1134.77 14.9609ZM1137.74 12.1191V13.6602H1138.86V14.7148H1137.74V18.2539C1137.74 18.4961 1137.79 18.6719 1137.88 18.7812C1137.98 18.8867 1138.15 18.9395 1138.4 18.9395C1138.56 18.9395 1138.73 18.9199 1138.9 18.8809V19.9824C1138.57 20.0723 1138.26 20.1172 1137.96 20.1172C1136.87 20.1172 1136.32 19.5137 1136.32 18.3066V14.7148H1135.28V13.6602H1136.32V12.1191H1137.74Z" fill="#D13240"/>
<path d="M42.666 15.4082H43.6162C44.2132 15.3991 44.6826 15.2419 45.0244 14.9365C45.3662 14.6312 45.5371 14.2188 45.5371 13.6992C45.5371 12.5326 44.9561 11.9492 43.7939 11.9492C43.2471 11.9492 42.8096 12.1064 42.4814 12.4209C42.1579 12.7308 41.9961 13.1432 41.9961 13.6582H40.7314C40.7314 12.8698 41.0186 12.2158 41.5928 11.6963C42.1715 11.1722 42.9053 10.9102 43.7939 10.9102C44.7327 10.9102 45.4688 11.1585 46.002 11.6553C46.5352 12.152 46.8018 12.8424 46.8018 13.7266C46.8018 14.1595 46.6605 14.5788 46.3779 14.9844C46.0999 15.39 45.7194 15.693 45.2363 15.8936C45.7832 16.0667 46.2048 16.3538 46.501 16.7549C46.8018 17.1559 46.9521 17.6458 46.9521 18.2246C46.9521 19.1178 46.6605 19.8265 46.0771 20.3506C45.4938 20.8747 44.735 21.1367 43.8008 21.1367C42.8665 21.1367 42.1055 20.8838 41.5176 20.3779C40.9342 19.8721 40.6426 19.2044 40.6426 18.375H41.9141C41.9141 18.8991 42.085 19.3184 42.4268 19.6328C42.7686 19.9473 43.2266 20.1045 43.8008 20.1045C44.4115 20.1045 44.8786 19.945 45.2021 19.626C45.5257 19.307 45.6875 18.849 45.6875 18.252C45.6875 17.6732 45.5098 17.2288 45.1543 16.9189C44.7988 16.609 44.2861 16.4495 43.6162 16.4404H42.666V15.4082ZM49.2695 16.0098L49.7754 11.0469H54.875V12.2158H50.8486L50.5479 14.9297C51.0355 14.6426 51.5892 14.499 52.209 14.499C53.1159 14.499 53.8359 14.7998 54.3691 15.4014C54.9023 15.9984 55.1689 16.8073 55.1689 17.8281C55.1689 18.8535 54.891 19.6624 54.335 20.2549C53.7835 20.8428 53.0111 21.1367 52.0176 21.1367C51.138 21.1367 50.4202 20.8929 49.8643 20.4053C49.3083 19.9176 48.9915 19.2432 48.9141 18.3818H50.1104C50.1878 18.9515 50.3906 19.3822 50.7188 19.6738C51.0469 19.9609 51.4798 20.1045 52.0176 20.1045C52.6055 20.1045 53.0658 19.904 53.3984 19.5029C53.7357 19.1019 53.9043 18.5482 53.9043 17.8418C53.9043 17.1764 53.722 16.6432 53.3574 16.2422C52.9974 15.8366 52.5166 15.6338 51.915 15.6338C51.3636 15.6338 50.9307 15.7546 50.6162 15.9961L50.2812 16.2695L49.2695 16.0098ZM65.9766 16.3994H61.6631V19.9268H66.6738V21H60.3506V11.0469H66.6055V12.127H61.6631V15.3262H65.9766V16.3994ZM69.2988 13.6035L69.333 14.4238C69.8753 13.7858 70.6068 13.4668 71.5273 13.4668C72.5618 13.4668 73.266 13.8633 73.6396 14.6562C73.8857 14.3008 74.2048 14.0137 74.5967 13.7949C74.9932 13.5762 75.4603 13.4668 75.998 13.4668C77.6204 13.4668 78.4453 14.3258 78.4727 16.0439V21H77.208V16.1191C77.208 15.5905 77.0872 15.1963 76.8457 14.9365C76.6042 14.6722 76.1986 14.54 75.6289 14.54C75.1595 14.54 74.7699 14.6813 74.46 14.9639C74.1501 15.2419 73.9701 15.6178 73.9199 16.0918V21H72.6484V16.1533C72.6484 15.0778 72.1221 14.54 71.0693 14.54C70.2399 14.54 69.6725 14.8932 69.3672 15.5996V21H68.1025V13.6035H69.2988ZM86.6348 17.3838C86.6348 18.5094 86.3773 19.4163 85.8623 20.1045C85.3473 20.7926 84.6501 21.1367 83.7705 21.1367C82.8727 21.1367 82.1663 20.8519 81.6514 20.2822V23.8438H80.3867V13.6035H81.542L81.6035 14.4238C82.1185 13.7858 82.834 13.4668 83.75 13.4668C84.6387 13.4668 85.3405 13.8018 85.8555 14.4717C86.375 15.1416 86.6348 16.0736 86.6348 17.2676V17.3838ZM85.3701 17.2402C85.3701 16.4062 85.1924 15.7477 84.8369 15.2646C84.4814 14.7816 83.9938 14.54 83.374 14.54C82.6084 14.54 82.0342 14.8796 81.6514 15.5586V19.0928C82.0296 19.7673 82.6084 20.1045 83.3877 20.1045C83.9938 20.1045 84.4746 19.8652 84.8301 19.3867C85.1901 18.9036 85.3701 18.1882 85.3701 17.2402ZM89.6221 21H88.3574V10.5H89.6221V21ZM91.3174 17.2334C91.3174 16.5088 91.4587 15.8571 91.7412 15.2783C92.0283 14.6995 92.4248 14.2529 92.9307 13.9385C93.4411 13.624 94.0221 13.4668 94.6738 13.4668C95.681 13.4668 96.4945 13.8154 97.1143 14.5127C97.7386 15.21 98.0508 16.1374 98.0508 17.2949V17.3838C98.0508 18.1038 97.9118 18.751 97.6338 19.3252C97.3604 19.8949 96.9661 20.3392 96.4512 20.6582C95.9408 20.9772 95.3529 21.1367 94.6875 21.1367C93.6849 21.1367 92.8714 20.7881 92.2471 20.0908C91.6273 19.3936 91.3174 18.4707 91.3174 17.3223V17.2334ZM92.5889 17.3838C92.5889 18.2041 92.778 18.8626 93.1562 19.3594C93.5391 19.8561 94.0495 20.1045 94.6875 20.1045C95.3301 20.1045 95.8405 19.8538 96.2188 19.3525C96.597 18.8467 96.7861 18.1403 96.7861 17.2334C96.7861 16.4222 96.5924 15.766 96.2051 15.2646C95.8223 14.7588 95.3118 14.5059 94.6738 14.5059C94.0495 14.5059 93.5459 14.7542 93.1631 15.251C92.7803 15.7477 92.5889 16.4587 92.5889 17.3838ZM101.947 19.1475L103.67 13.6035H105.023L102.05 22.1416C101.59 23.3721 100.858 23.9873 99.8555 23.9873L99.6162 23.9668L99.1445 23.8779V22.8525L99.4863 22.8799C99.9147 22.8799 100.247 22.7933 100.484 22.6201C100.726 22.4469 100.924 22.1302 101.079 21.6699L101.359 20.918L98.7207 13.6035H100.102L101.947 19.1475ZM109.132 21.1367C108.129 21.1367 107.313 20.8086 106.685 20.1523C106.056 19.4915 105.741 18.6097 105.741 17.5068V17.2744C105.741 16.5407 105.88 15.8867 106.158 15.3125C106.441 14.7337 106.833 14.2826 107.334 13.959C107.84 13.6309 108.387 13.4668 108.975 13.4668C109.936 13.4668 110.684 13.7835 111.217 14.417C111.75 15.0505 112.017 15.9574 112.017 17.1377V17.6641H107.006C107.024 18.3932 107.236 18.9834 107.642 19.4346C108.052 19.8812 108.571 20.1045 109.2 20.1045C109.647 20.1045 110.025 20.0133 110.335 19.8311C110.645 19.6488 110.916 19.4072 111.148 19.1064L111.921 19.708C111.301 20.6605 110.371 21.1367 109.132 21.1367ZM108.975 14.5059C108.464 14.5059 108.036 14.6927 107.689 15.0664C107.343 15.4355 107.129 15.9551 107.047 16.625H110.752V16.5293C110.715 15.8867 110.542 15.39 110.232 15.0391C109.923 14.6836 109.503 14.5059 108.975 14.5059ZM116.556 21.1367C115.553 21.1367 114.737 20.8086 114.108 20.1523C113.479 19.4915 113.165 18.6097 113.165 17.5068V17.2744C113.165 16.5407 113.304 15.8867 113.582 15.3125C113.865 14.7337 114.257 14.2826 114.758 13.959C115.264 13.6309 115.811 13.4668 116.398 13.4668C117.36 13.4668 118.107 13.7835 118.641 14.417C119.174 15.0505 119.44 15.9574 119.44 17.1377V17.6641H114.43C114.448 18.3932 114.66 18.9834 115.065 19.4346C115.476 19.8812 115.995 20.1045 116.624 20.1045C117.071 20.1045 117.449 20.0133 117.759 19.8311C118.069 19.6488 118.34 19.4072 118.572 19.1064L119.345 19.708C118.725 20.6605 117.795 21.1367 116.556 21.1367ZM116.398 14.5059C115.888 14.5059 115.46 14.6927 115.113 15.0664C114.767 15.4355 114.553 15.9551 114.471 16.625H118.176V16.5293C118.139 15.8867 117.966 15.39 117.656 15.0391C117.346 14.6836 116.927 14.5059 116.398 14.5059ZM125.217 19.0381C125.217 18.6963 125.087 18.432 124.827 18.2451C124.572 18.0537 124.123 17.8896 123.48 17.7529C122.842 17.6162 122.334 17.4521 121.956 17.2607C121.582 17.0693 121.304 16.8415 121.122 16.5771C120.944 16.3128 120.855 15.9984 120.855 15.6338C120.855 15.0277 121.111 14.515 121.621 14.0957C122.136 13.6764 122.792 13.4668 123.59 13.4668C124.428 13.4668 125.107 13.6833 125.627 14.1162C126.151 14.5492 126.413 15.1029 126.413 15.7773H125.142C125.142 15.431 124.993 15.1325 124.697 14.8818C124.406 14.6312 124.036 14.5059 123.59 14.5059C123.13 14.5059 122.77 14.6061 122.51 14.8066C122.25 15.0072 122.12 15.2692 122.12 15.5928C122.12 15.8981 122.241 16.1283 122.482 16.2832C122.724 16.4382 123.159 16.5863 123.788 16.7275C124.422 16.8688 124.934 17.0374 125.326 17.2334C125.718 17.4294 126.007 17.6663 126.194 17.9443C126.386 18.2178 126.481 18.5527 126.481 18.9492C126.481 19.61 126.217 20.141 125.688 20.542C125.16 20.9385 124.474 21.1367 123.631 21.1367C123.038 21.1367 122.514 21.0319 122.059 20.8223C121.603 20.6126 121.245 20.321 120.985 19.9473C120.73 19.569 120.603 19.1611 120.603 18.7236H121.867C121.89 19.1475 122.059 19.4847 122.373 19.7354C122.692 19.9814 123.111 20.1045 123.631 20.1045C124.109 20.1045 124.492 20.0088 124.779 19.8174C125.071 19.6214 125.217 19.3617 125.217 19.0381ZM132.866 14.499C133.427 13.8109 134.156 13.4668 135.054 13.4668C136.617 13.4668 137.405 14.3486 137.419 16.1123V21H136.154V16.1055C136.15 15.5723 136.027 15.1781 135.785 14.9229C135.548 14.6676 135.177 14.54 134.671 14.54C134.261 14.54 133.901 14.6494 133.591 14.8682C133.281 15.0869 133.039 15.374 132.866 15.7295V21H131.602V10.5H132.866V14.499ZM143.879 21C143.806 20.8542 143.747 20.5944 143.701 20.2207C143.113 20.8314 142.411 21.1367 141.596 21.1367C140.867 21.1367 140.267 20.9316 139.798 20.5215C139.333 20.1068 139.101 19.5827 139.101 18.9492C139.101 18.179 139.392 17.582 139.976 17.1582C140.563 16.7298 141.388 16.5156 142.45 16.5156H143.681V15.9346C143.681 15.4925 143.549 15.1416 143.284 14.8818C143.02 14.6175 142.63 14.4854 142.115 14.4854C141.664 14.4854 141.286 14.5993 140.98 14.8271C140.675 15.055 140.522 15.3307 140.522 15.6543H139.251C139.251 15.2852 139.381 14.9297 139.641 14.5879C139.905 14.2415 140.26 13.9681 140.707 13.7676C141.158 13.5671 141.653 13.4668 142.19 13.4668C143.043 13.4668 143.71 13.681 144.193 14.1094C144.676 14.5332 144.927 15.1188 144.945 15.8662V19.2705C144.945 19.9495 145.032 20.4896 145.205 20.8906V21H143.879ZM141.78 20.0361C142.177 20.0361 142.553 19.9336 142.908 19.7285C143.264 19.5234 143.521 19.2568 143.681 18.9287V17.4111H142.689C141.14 17.4111 140.365 17.8646 140.365 18.7715C140.365 19.168 140.497 19.4779 140.762 19.7012C141.026 19.9245 141.366 20.0361 141.78 20.0361ZM149.259 19.2842L151.091 13.6035H152.383L149.73 21H148.767L146.087 13.6035H147.379L149.259 19.2842ZM156.573 21.1367C155.571 21.1367 154.755 20.8086 154.126 20.1523C153.497 19.4915 153.183 18.6097 153.183 17.5068V17.2744C153.183 16.5407 153.322 15.8867 153.6 15.3125C153.882 14.7337 154.274 14.2826 154.775 13.959C155.281 13.6309 155.828 13.4668 156.416 13.4668C157.378 13.4668 158.125 13.7835 158.658 14.417C159.191 15.0505 159.458 15.9574 159.458 17.1377V17.6641H154.447C154.465 18.3932 154.677 18.9834 155.083 19.4346C155.493 19.8812 156.013 20.1045 156.642 20.1045C157.088 20.1045 157.466 20.0133 157.776 19.8311C158.086 19.6488 158.357 19.4072 158.59 19.1064L159.362 19.708C158.743 20.6605 157.813 21.1367 156.573 21.1367ZM156.416 14.5059C155.906 14.5059 155.477 14.6927 155.131 15.0664C154.785 15.4355 154.57 15.9551 154.488 16.625H158.193V16.5293C158.157 15.8867 157.984 15.39 157.674 15.0391C157.364 14.6836 156.945 14.5059 156.416 14.5059ZM162.124 13.6035L162.165 14.5332C162.73 13.8223 163.468 13.4668 164.38 13.4668C165.943 13.4668 166.731 14.3486 166.745 16.1123V21H165.48V16.1055C165.476 15.5723 165.353 15.1781 165.111 14.9229C164.874 14.6676 164.503 14.54 163.997 14.54C163.587 14.54 163.227 14.6494 162.917 14.8682C162.607 15.0869 162.366 15.374 162.192 15.7295V21H160.928V13.6035H162.124ZM168.194 13.8496L167.477 13.3574C167.9 12.765 168.119 12.1406 168.133 11.4844V10.5H169.384V11.3887C169.379 11.8444 169.265 12.3001 169.042 12.7559C168.823 13.207 168.541 13.5716 168.194 13.8496ZM172.624 11.8125V13.6035H174.005V14.5811H172.624V19.168C172.624 19.4642 172.686 19.6875 172.809 19.8379C172.932 19.9837 173.141 20.0566 173.438 20.0566C173.583 20.0566 173.784 20.0293 174.039 19.9746V21C173.706 21.0911 173.383 21.1367 173.068 21.1367C172.503 21.1367 172.077 20.9658 171.79 20.624C171.503 20.2822 171.359 19.7969 171.359 19.168V14.5811H170.013V13.6035H171.359V11.8125H172.624ZM182.536 14.7383C182.345 14.7064 182.137 14.6904 181.914 14.6904C181.085 14.6904 180.522 15.0436 180.226 15.75V21H178.961V13.6035H180.191L180.212 14.458C180.627 13.7972 181.215 13.4668 181.976 13.4668C182.222 13.4668 182.409 13.4987 182.536 13.5625V14.7383ZM186.638 21.1367C185.635 21.1367 184.819 20.8086 184.19 20.1523C183.562 19.4915 183.247 18.6097 183.247 17.5068V17.2744C183.247 16.5407 183.386 15.8867 183.664 15.3125C183.947 14.7337 184.339 14.2826 184.84 13.959C185.346 13.6309 185.893 13.4668 186.48 13.4668C187.442 13.4668 188.189 13.7835 188.723 14.417C189.256 15.0505 189.522 15.9574 189.522 17.1377V17.6641H184.512C184.53 18.3932 184.742 18.9834 185.147 19.4346C185.558 19.8812 186.077 20.1045 186.706 20.1045C187.153 20.1045 187.531 20.0133 187.841 19.8311C188.151 19.6488 188.422 19.4072 188.654 19.1064L189.427 19.708C188.807 20.6605 187.877 21.1367 186.638 21.1367ZM186.48 14.5059C185.97 14.5059 185.542 14.6927 185.195 15.0664C184.849 15.4355 184.635 15.9551 184.553 16.625H188.258V16.5293C188.221 15.8867 188.048 15.39 187.738 15.0391C187.428 14.6836 187.009 14.5059 186.48 14.5059ZM190.691 17.2402C190.691 16.0872 190.958 15.1712 191.491 14.4922C192.024 13.8086 192.731 13.4668 193.61 13.4668C194.513 13.4668 195.217 13.7858 195.723 14.4238L195.784 13.6035H196.939V20.8223C196.939 21.7793 196.655 22.5335 196.085 23.085C195.52 23.6364 194.759 23.9121 193.802 23.9121C193.269 23.9121 192.747 23.7982 192.236 23.5703C191.726 23.3424 191.336 23.0303 191.067 22.6338L191.724 21.875C192.266 22.5449 192.929 22.8799 193.713 22.8799C194.328 22.8799 194.807 22.7067 195.148 22.3604C195.495 22.014 195.668 21.5264 195.668 20.8975V20.2617C195.162 20.8451 194.472 21.1367 193.597 21.1367C192.731 21.1367 192.029 20.7881 191.491 20.0908C190.958 19.3936 190.691 18.4434 190.691 17.2402ZM191.963 17.3838C191.963 18.2178 192.134 18.874 192.476 19.3525C192.817 19.8265 193.296 20.0635 193.911 20.0635C194.709 20.0635 195.294 19.7012 195.668 18.9766V15.5996C195.281 14.8932 194.7 14.54 193.925 14.54C193.31 14.54 192.829 14.7793 192.482 15.2578C192.136 15.7363 191.963 16.445 191.963 17.3838ZM200.228 21H198.963V13.6035H200.228V21ZM198.86 11.6416C198.86 11.4365 198.922 11.2633 199.045 11.1221C199.173 10.9808 199.359 10.9102 199.605 10.9102C199.852 10.9102 200.038 10.9808 200.166 11.1221C200.294 11.2633 200.357 11.4365 200.357 11.6416C200.357 11.8467 200.294 12.0176 200.166 12.1543C200.038 12.291 199.852 12.3594 199.605 12.3594C199.359 12.3594 199.173 12.291 199.045 12.1543C198.922 12.0176 198.86 11.8467 198.86 11.6416ZM206.564 19.0381C206.564 18.6963 206.435 18.432 206.175 18.2451C205.92 18.0537 205.471 17.8896 204.828 17.7529C204.19 17.6162 203.682 17.4521 203.304 17.2607C202.93 17.0693 202.652 16.8415 202.47 16.5771C202.292 16.3128 202.203 15.9984 202.203 15.6338C202.203 15.0277 202.458 14.515 202.969 14.0957C203.484 13.6764 204.14 13.4668 204.938 13.4668C205.776 13.4668 206.455 13.6833 206.975 14.1162C207.499 14.5492 207.761 15.1029 207.761 15.7773H206.489C206.489 15.431 206.341 15.1325 206.045 14.8818C205.753 14.6312 205.384 14.5059 204.938 14.5059C204.477 14.5059 204.117 14.6061 203.857 14.8066C203.598 15.0072 203.468 15.2692 203.468 15.5928C203.468 15.8981 203.589 16.1283 203.83 16.2832C204.072 16.4382 204.507 16.5863 205.136 16.7275C205.769 16.8688 206.282 17.0374 206.674 17.2334C207.066 17.4294 207.355 17.6663 207.542 17.9443C207.733 18.2178 207.829 18.5527 207.829 18.9492C207.829 19.61 207.565 20.141 207.036 20.542C206.507 20.9385 205.822 21.1367 204.979 21.1367C204.386 21.1367 203.862 21.0319 203.406 20.8223C202.951 20.6126 202.593 20.321 202.333 19.9473C202.078 19.569 201.95 19.1611 201.95 18.7236H203.215C203.238 19.1475 203.406 19.4847 203.721 19.7354C204.04 19.9814 204.459 20.1045 204.979 20.1045C205.457 20.1045 205.84 20.0088 206.127 19.8174C206.419 19.6214 206.564 19.3617 206.564 19.0381ZM211.192 11.8125V13.6035H212.573V14.5811H211.192V19.168C211.192 19.4642 211.254 19.6875 211.377 19.8379C211.5 19.9837 211.71 20.0566 212.006 20.0566C212.152 20.0566 212.352 20.0293 212.607 19.9746V21C212.275 21.0911 211.951 21.1367 211.637 21.1367C211.072 21.1367 210.646 20.9658 210.358 20.624C210.071 20.2822 209.928 19.7969 209.928 19.168V14.5811H208.581V13.6035H209.928V11.8125H211.192ZM217.126 21.1367C216.123 21.1367 215.308 20.8086 214.679 20.1523C214.05 19.4915 213.735 18.6097 213.735 17.5068V17.2744C213.735 16.5407 213.874 15.8867 214.152 15.3125C214.435 14.7337 214.827 14.2826 215.328 13.959C215.834 13.6309 216.381 13.4668 216.969 13.4668C217.93 13.4668 218.678 13.7835 219.211 14.417C219.744 15.0505 220.011 15.9574 220.011 17.1377V17.6641H215C215.018 18.3932 215.23 18.9834 215.636 19.4346C216.046 19.8812 216.565 20.1045 217.194 20.1045C217.641 20.1045 218.019 20.0133 218.329 19.8311C218.639 19.6488 218.91 19.4072 219.143 19.1064L219.915 19.708C219.295 20.6605 218.366 21.1367 217.126 21.1367ZM216.969 14.5059C216.458 14.5059 216.03 14.6927 215.684 15.0664C215.337 15.4355 215.123 15.9551 215.041 16.625H218.746V16.5293C218.71 15.8867 218.536 15.39 218.227 15.0391C217.917 14.6836 217.497 14.5059 216.969 14.5059ZM225.056 14.7383C224.864 14.7064 224.657 14.6904 224.434 14.6904C223.604 14.6904 223.041 15.0436 222.745 15.75V21H221.48V13.6035H222.711L222.731 14.458C223.146 13.7972 223.734 13.4668 224.495 13.4668C224.741 13.4668 224.928 13.4987 225.056 13.5625V14.7383ZM229.157 21.1367C228.155 21.1367 227.339 20.8086 226.71 20.1523C226.081 19.4915 225.767 18.6097 225.767 17.5068V17.2744C225.767 16.5407 225.906 15.8867 226.184 15.3125C226.466 14.7337 226.858 14.2826 227.359 13.959C227.865 13.6309 228.412 13.4668 229 13.4668C229.962 13.4668 230.709 13.7835 231.242 14.417C231.775 15.0505 232.042 15.9574 232.042 17.1377V17.6641H227.031C227.049 18.3932 227.261 18.9834 227.667 19.4346C228.077 19.8812 228.597 20.1045 229.226 20.1045C229.672 20.1045 230.05 20.0133 230.36 19.8311C230.67 19.6488 230.941 19.4072 231.174 19.1064L231.946 19.708C231.326 20.6605 230.397 21.1367 229.157 21.1367ZM229 14.5059C228.49 14.5059 228.061 14.6927 227.715 15.0664C227.368 15.4355 227.154 15.9551 227.072 16.625H230.777V16.5293C230.741 15.8867 230.568 15.39 230.258 15.0391C229.948 14.6836 229.529 14.5059 229 14.5059ZM233.204 17.2402C233.204 16.1055 233.473 15.194 234.011 14.5059C234.549 13.8132 235.253 13.4668 236.123 13.4668C236.989 13.4668 237.675 13.763 238.181 14.3555V10.5H239.445V21H238.283L238.222 20.207C237.716 20.8268 237.012 21.1367 236.109 21.1367C235.253 21.1367 234.553 20.7858 234.011 20.084C233.473 19.3822 233.204 18.4661 233.204 17.3359V17.2402ZM234.469 17.3838C234.469 18.2223 234.642 18.8786 234.988 19.3525C235.335 19.8265 235.813 20.0635 236.424 20.0635C237.226 20.0635 237.812 19.7035 238.181 18.9834V15.5859C237.802 14.8887 237.221 14.54 236.438 14.54C235.818 14.54 235.335 14.7793 234.988 15.2578C234.642 15.7363 234.469 16.445 234.469 17.3838ZM246.603 11.8125V13.6035H247.983V14.5811H246.603V19.168C246.603 19.4642 246.664 19.6875 246.787 19.8379C246.91 19.9837 247.12 20.0566 247.416 20.0566C247.562 20.0566 247.762 20.0293 248.018 19.9746V21C247.685 21.0911 247.361 21.1367 247.047 21.1367C246.482 21.1367 246.056 20.9658 245.769 20.624C245.481 20.2822 245.338 19.7969 245.338 19.168V14.5811H243.991V13.6035H245.338V11.8125H246.603ZM250.731 14.499C251.292 13.8109 252.021 13.4668 252.919 13.4668C254.482 13.4668 255.271 14.3486 255.284 16.1123V21H254.02V16.1055C254.015 15.5723 253.892 15.1781 253.65 14.9229C253.413 14.6676 253.042 14.54 252.536 14.54C252.126 14.54 251.766 14.6494 251.456 14.8682C251.146 15.0869 250.905 15.374 250.731 15.7295V21H249.467V10.5H250.731V14.499ZM260.247 21.1367C259.244 21.1367 258.429 20.8086 257.8 20.1523C257.171 19.4915 256.856 18.6097 256.856 17.5068V17.2744C256.856 16.5407 256.995 15.8867 257.273 15.3125C257.556 14.7337 257.948 14.2826 258.449 13.959C258.955 13.6309 259.502 13.4668 260.09 13.4668C261.051 13.4668 261.799 13.7835 262.332 14.417C262.865 15.0505 263.132 15.9574 263.132 17.1377V17.6641H258.121C258.139 18.3932 258.351 18.9834 258.757 19.4346C259.167 19.8812 259.687 20.1045 260.315 20.1045C260.762 20.1045 261.14 20.0133 261.45 19.8311C261.76 19.6488 262.031 19.4072 262.264 19.1064L263.036 19.708C262.416 20.6605 261.487 21.1367 260.247 21.1367ZM260.09 14.5059C259.579 14.5059 259.151 14.6927 258.805 15.0664C258.458 15.4355 258.244 15.9551 258.162 16.625H261.867V16.5293C261.831 15.8867 261.658 15.39 261.348 15.0391C261.038 14.6836 260.618 14.5059 260.09 14.5059ZM265.976 21H264.711V13.6035H265.976V21ZM264.608 11.6416C264.608 11.4365 264.67 11.2633 264.793 11.1221C264.921 10.9808 265.107 10.9102 265.354 10.9102C265.6 10.9102 265.786 10.9808 265.914 11.1221C266.042 11.2633 266.105 11.4365 266.105 11.6416C266.105 11.8467 266.042 12.0176 265.914 12.1543C265.786 12.291 265.6 12.3594 265.354 12.3594C265.107 12.3594 264.921 12.291 264.793 12.1543C264.67 12.0176 264.608 11.8467 264.608 11.6416ZM271.581 14.7383C271.39 14.7064 271.182 14.6904 270.959 14.6904C270.13 14.6904 269.567 15.0436 269.271 15.75V21H268.006V13.6035H269.236L269.257 14.458C269.672 13.7972 270.259 13.4668 271.021 13.4668C271.267 13.4668 271.453 13.4987 271.581 13.5625V14.7383ZM276.646 21V14.5811H275.478V13.6035H276.646V12.9746C276.646 12.1497 276.881 11.5072 277.351 11.0469C277.825 10.5866 278.492 10.3564 279.354 10.3564C279.864 10.3564 280.509 10.4954 281.288 10.7734L281.076 11.8398C280.507 11.612 279.964 11.498 279.449 11.498C278.907 11.498 278.515 11.6211 278.273 11.8672C278.036 12.1087 277.918 12.4733 277.918 12.9609V13.6035H279.429V14.5811H277.918V21H276.646ZM281.917 21H280.646V13.6035H281.917V21ZM285.171 13.6035L285.212 14.5332C285.777 13.8223 286.515 13.4668 287.427 13.4668C288.99 13.4668 289.778 14.3486 289.792 16.1123V21H288.527V16.1055C288.523 15.5723 288.4 15.1781 288.158 14.9229C287.921 14.6676 287.55 14.54 287.044 14.54C286.634 14.54 286.274 14.6494 285.964 14.8682C285.654 15.0869 285.412 15.374 285.239 15.7295V21H283.975V13.6035H285.171ZM291.398 17.2402C291.398 16.0872 291.665 15.1712 292.198 14.4922C292.731 13.8086 293.438 13.4668 294.317 13.4668C295.22 13.4668 295.924 13.7858 296.43 14.4238L296.491 13.6035H297.646V20.8223C297.646 21.7793 297.362 22.5335 296.792 23.085C296.227 23.6364 295.466 23.9121 294.509 23.9121C293.976 23.9121 293.454 23.7982 292.943 23.5703C292.433 23.3424 292.043 23.0303 291.774 22.6338L292.431 21.875C292.973 22.5449 293.636 22.8799 294.42 22.8799C295.035 22.8799 295.514 22.7067 295.855 22.3604C296.202 22.014 296.375 21.5264 296.375 20.8975V20.2617C295.869 20.8451 295.179 21.1367 294.304 21.1367C293.438 21.1367 292.736 20.7881 292.198 20.0908C291.665 19.3936 291.398 18.4434 291.398 17.2402ZM292.67 17.3838C292.67 18.2178 292.841 18.874 293.183 19.3525C293.524 19.8265 294.003 20.0635 294.618 20.0635C295.416 20.0635 296.001 19.7012 296.375 18.9766V15.5996C295.988 14.8932 295.407 14.54 294.632 14.54C294.017 14.54 293.536 14.7793 293.189 15.2578C292.843 15.7363 292.67 16.445 292.67 17.3838ZM302.63 21.1367C301.627 21.1367 300.812 20.8086 300.183 20.1523C299.554 19.4915 299.239 18.6097 299.239 17.5068V17.2744C299.239 16.5407 299.378 15.8867 299.656 15.3125C299.939 14.7337 300.331 14.2826 300.832 13.959C301.338 13.6309 301.885 13.4668 302.473 13.4668C303.434 13.4668 304.182 13.7835 304.715 14.417C305.248 15.0505 305.515 15.9574 305.515 17.1377V17.6641H300.504C300.522 18.3932 300.734 18.9834 301.14 19.4346C301.55 19.8812 302.069 20.1045 302.698 20.1045C303.145 20.1045 303.523 20.0133 303.833 19.8311C304.143 19.6488 304.414 19.4072 304.646 19.1064L305.419 19.708C304.799 20.6605 303.869 21.1367 302.63 21.1367ZM302.473 14.5059C301.962 14.5059 301.534 14.6927 301.188 15.0664C300.841 15.4355 300.627 15.9551 300.545 16.625H304.25V16.5293C304.214 15.8867 304.04 15.39 303.73 15.0391C303.421 14.6836 303.001 14.5059 302.473 14.5059ZM310.56 14.7383C310.368 14.7064 310.161 14.6904 309.938 14.6904C309.108 14.6904 308.545 15.0436 308.249 15.75V21H306.984V13.6035H308.215L308.235 14.458C308.65 13.7972 309.238 13.4668 309.999 13.4668C310.245 13.4668 310.432 13.4987 310.56 13.5625V14.7383ZM321.449 17.3838C321.449 18.5094 321.192 19.4163 320.677 20.1045C320.162 20.7926 319.465 21.1367 318.585 21.1367C317.687 21.1367 316.981 20.8519 316.466 20.2822V23.8438H315.201V13.6035H316.356L316.418 14.4238C316.933 13.7858 317.648 13.4668 318.564 13.4668C319.453 13.4668 320.155 13.8018 320.67 14.4717C321.189 15.1416 321.449 16.0736 321.449 17.2676V17.3838ZM320.185 17.2402C320.185 16.4062 320.007 15.7477 319.651 15.2646C319.296 14.7816 318.808 14.54 318.188 14.54C317.423 14.54 316.849 14.8796 316.466 15.5586V19.0928C316.844 19.7673 317.423 20.1045 318.202 20.1045C318.808 20.1045 319.289 19.8652 319.645 19.3867C320.005 18.9036 320.185 18.1882 320.185 17.2402ZM326.638 14.7383C326.446 14.7064 326.239 14.6904 326.016 14.6904C325.186 14.6904 324.623 15.0436 324.327 15.75V21H323.062V13.6035H324.293L324.313 14.458C324.728 13.7972 325.316 13.4668 326.077 13.4668C326.323 13.4668 326.51 13.4987 326.638 13.5625V14.7383ZM329.181 21H327.916V13.6035H329.181V21ZM327.813 11.6416C327.813 11.4365 327.875 11.2633 327.998 11.1221C328.126 10.9808 328.312 10.9102 328.559 10.9102C328.805 10.9102 328.992 10.9808 329.119 11.1221C329.247 11.2633 329.311 11.4365 329.311 11.6416C329.311 11.8467 329.247 12.0176 329.119 12.1543C328.992 12.291 328.805 12.3594 328.559 12.3594C328.312 12.3594 328.126 12.291 327.998 12.1543C327.875 12.0176 327.813 11.8467 327.813 11.6416ZM332.407 13.6035L332.448 14.5332C333.013 13.8223 333.752 13.4668 334.663 13.4668C336.226 13.4668 337.015 14.3486 337.028 16.1123V21H335.764V16.1055C335.759 15.5723 335.636 15.1781 335.395 14.9229C335.158 14.6676 334.786 14.54 334.28 14.54C333.87 14.54 333.51 14.6494 333.2 14.8682C332.89 15.0869 332.649 15.374 332.476 15.7295V21H331.211V13.6035H332.407ZM340.651 11.8125V13.6035H342.032V14.5811H340.651V19.168C340.651 19.4642 340.713 19.6875 340.836 19.8379C340.959 19.9837 341.169 20.0566 341.465 20.0566C341.611 20.0566 341.811 20.0293 342.066 19.9746V21C341.734 21.0911 341.41 21.1367 341.096 21.1367C340.531 21.1367 340.104 20.9658 339.817 20.624C339.53 20.2822 339.387 19.7969 339.387 19.168V14.5811H338.04V13.6035H339.387V11.8125H340.651ZM347.822 19.0381C347.822 18.6963 347.692 18.432 347.433 18.2451C347.177 18.0537 346.729 17.8896 346.086 17.7529C345.448 17.6162 344.94 17.4521 344.562 17.2607C344.188 17.0693 343.91 16.8415 343.728 16.5771C343.55 16.3128 343.461 15.9984 343.461 15.6338C343.461 15.0277 343.716 14.515 344.227 14.0957C344.742 13.6764 345.398 13.4668 346.195 13.4668C347.034 13.4668 347.713 13.6833 348.232 14.1162C348.757 14.5492 349.019 15.1029 349.019 15.7773H347.747C347.747 15.431 347.599 15.1325 347.303 14.8818C347.011 14.6312 346.642 14.5059 346.195 14.5059C345.735 14.5059 345.375 14.6061 345.115 14.8066C344.855 15.0072 344.726 15.2692 344.726 15.5928C344.726 15.8981 344.846 16.1283 345.088 16.2832C345.329 16.4382 345.765 16.5863 346.394 16.7275C347.027 16.8688 347.54 17.0374 347.932 17.2334C348.324 17.4294 348.613 17.6663 348.8 17.9443C348.991 18.2178 349.087 18.5527 349.087 18.9492C349.087 19.61 348.823 20.141 348.294 20.542C347.765 20.9385 347.079 21.1367 346.236 21.1367C345.644 21.1367 345.12 21.0319 344.664 20.8223C344.208 20.6126 343.851 20.321 343.591 19.9473C343.336 19.569 343.208 19.1611 343.208 18.7236H344.473C344.495 19.1475 344.664 19.4847 344.979 19.7354C345.298 19.9814 345.717 20.1045 346.236 20.1045C346.715 20.1045 347.098 20.0088 347.385 19.8174C347.676 19.6214 347.822 19.3617 347.822 19.0381ZM350.762 20.3369C350.762 20.1182 350.826 19.9359 350.953 19.79C351.085 19.6442 351.281 19.5713 351.541 19.5713C351.801 19.5713 351.997 19.6442 352.129 19.79C352.266 19.9359 352.334 20.1182 352.334 20.3369C352.334 20.5465 352.266 20.722 352.129 20.8633C351.997 21.0046 351.801 21.0752 351.541 21.0752C351.281 21.0752 351.085 21.0046 350.953 20.8633C350.826 20.722 350.762 20.5465 350.762 20.3369Z" fill="#404040"/>
<path fill-rule="evenodd" clip-rule="evenodd" d="M34 16C34 19.866 30.866 23 27 23C23.134 23 20 19.866 20 16C20 12.134 23.134 9 27 9C30.866 9 34 12.134 34 16ZM33 16C33 19.3137 30.3137 22 27 22C23.6863 22 21 19.3137 21 16C21 12.6863 23.6863 10 27 10C30.3137 10 33 12.6863 33 16ZM28.3 13.3008C28.7 12.8997 29.3 12.8997 29.7 13.3008C30.1 13.702 30.1 14.3037 29.7 14.7048L28.4 16.0225L29.7 17.3403C30.1 17.7414 30.1 18.3431 29.7 18.7442C29.5 18.9448 29.2 19.0451 29 19.0451C28.8 19.0451 28.5 18.9448 28.3 18.7442L27 17.4265L25.7 18.7442C25.5 18.9448 25.3 19.0451 25 19.0451C24.7 19.0451 24.5 18.9448 24.3 18.7442C23.9 18.3431 23.9 17.7414 24.3 17.3403L25.6 16.0225L24.3 14.7048C23.9 14.3037 23.9 13.702 24.3 13.3008C24.7 12.8997 25.3 12.8997 25.7 13.3008L27 14.6186L28.3 13.3008Z" fill="#4B6C89"/>
</svg>
