<svg width="1160" height="32" viewBox="0 0 1160 32" fill="none" xmlns="http://www.w3.org/2000/svg">
<path fill-rule="evenodd" clip-rule="evenodd" d="M0 4C0 1.79086 1.79086 0 4 0H1156C1158.21 0 1160 1.79086 1160 4V28C1160 30.2091 1158.21 32 1156 32H3.99997C1.79083 32 0 30.2091 0 28V4Z" fill="#E2F5DD"/>
<path d="M1077.87 18.1426L1080.04 11.4688H1081.67L1078.6 20H1077.16L1074.11 11.4688H1075.73L1077.87 18.1426ZM1084.01 20H1082.59V13.6602H1084.01V20ZM1082.5 12.0137C1082.5 11.7949 1082.57 11.6133 1082.71 11.4688C1082.85 11.3242 1083.05 11.252 1083.3 11.252C1083.56 11.252 1083.76 11.3242 1083.9 11.4688C1084.04 11.6133 1084.11 11.7949 1084.11 12.0137C1084.11 12.2285 1084.04 12.4082 1083.9 12.5527C1083.76 12.6934 1083.56 12.7637 1083.3 12.7637C1083.05 12.7637 1082.85 12.6934 1082.71 12.5527C1082.57 12.4082 1082.5 12.2285 1082.5 12.0137ZM1088.36 20.1172C1087.46 20.1172 1086.73 19.834 1086.16 19.2676C1085.61 18.6973 1085.33 17.9395 1085.33 16.9941V16.8184C1085.33 16.1855 1085.45 15.6211 1085.69 15.125C1085.94 14.625 1086.28 14.2363 1086.72 13.959C1087.16 13.6816 1087.65 13.543 1088.2 13.543C1089.06 13.543 1089.73 13.8184 1090.2 14.3691C1090.67 14.9199 1090.9 15.6992 1090.9 16.707V17.2812H1086.76C1086.8 17.8047 1086.98 18.2188 1087.28 18.5234C1087.59 18.8281 1087.98 18.9805 1088.44 18.9805C1089.1 18.9805 1089.63 18.7168 1090.04 18.1895L1090.8 18.9219C1090.55 19.3008 1090.21 19.5957 1089.79 19.8066C1089.36 20.0137 1088.89 20.1172 1088.36 20.1172ZM1088.19 14.6855C1087.8 14.6855 1087.48 14.8223 1087.24 15.0957C1087 15.3691 1086.85 15.75 1086.79 16.2383H1089.5V16.1328C1089.47 15.6562 1089.34 15.2969 1089.12 15.0547C1088.89 14.8086 1088.59 14.6855 1088.19 14.6855ZM1097.58 18.0371L1098.59 13.6602H1099.98L1098.25 20H1097.08L1095.72 15.6465L1094.38 20H1093.21L1091.48 13.6602H1092.87L1093.89 17.9902L1095.19 13.6602H1096.27L1097.58 18.0371ZM1107.19 16.7129H1105.54V20H1104.06V11.4688H1107.06C1108.04 11.4688 1108.8 11.6895 1109.34 12.1309C1109.87 12.5723 1110.14 13.2109 1110.14 14.0469C1110.14 14.6172 1110 15.0957 1109.72 15.4824C1109.45 15.8652 1109.07 16.1602 1108.58 16.3672L1110.49 19.9238V20H1108.9L1107.19 16.7129ZM1105.54 15.5234H1107.06C1107.56 15.5234 1107.96 15.3984 1108.24 15.1484C1108.52 14.8945 1108.66 14.5488 1108.66 14.1113C1108.66 13.6543 1108.53 13.3008 1108.27 13.0508C1108.01 12.8008 1107.62 12.6719 1107.11 12.6641H1105.54V15.5234ZM1114.2 20.1172C1113.3 20.1172 1112.57 19.834 1112 19.2676C1111.45 18.6973 1111.17 17.9395 1111.17 16.9941V16.8184C1111.17 16.1855 1111.29 15.6211 1111.53 15.125C1111.78 14.625 1112.12 14.2363 1112.56 13.959C1113 13.6816 1113.49 13.543 1114.04 13.543C1114.9 13.543 1115.57 13.8184 1116.04 14.3691C1116.51 14.9199 1116.74 15.6992 1116.74 16.707V17.2812H1112.6C1112.64 17.8047 1112.82 18.2188 1113.12 18.5234C1113.43 18.8281 1113.82 18.9805 1114.28 18.9805C1114.94 18.9805 1115.47 18.7168 1115.88 18.1895L1116.64 18.9219C1116.39 19.3008 1116.05 19.5957 1115.62 19.8066C1115.2 20.0137 1114.73 20.1172 1114.2 20.1172ZM1114.03 14.6855C1113.64 14.6855 1113.32 14.8223 1113.08 15.0957C1112.84 15.3691 1112.69 15.75 1112.62 16.2383H1115.34V16.1328C1115.31 15.6562 1115.18 15.2969 1114.96 15.0547C1114.73 14.8086 1114.43 14.6855 1114.03 14.6855ZM1123.41 16.8945C1123.41 17.875 1123.18 18.6582 1122.74 19.2441C1122.29 19.8262 1121.7 20.1172 1120.95 20.1172C1120.25 20.1172 1119.69 19.8887 1119.28 19.4316V22.4375H1117.85V13.6602H1119.16L1119.22 14.3047C1119.64 13.7969 1120.21 13.543 1120.93 13.543C1121.7 13.543 1122.31 13.832 1122.74 14.4102C1123.19 14.9844 1123.41 15.7832 1123.41 16.8066V16.8945ZM1121.99 16.7715C1121.99 16.1387 1121.86 15.6367 1121.61 15.2656C1121.36 14.8945 1121 14.709 1120.53 14.709C1119.95 14.709 1119.53 14.9492 1119.28 15.4297V18.2422C1119.53 18.7344 1119.96 18.9805 1120.54 18.9805C1120.99 18.9805 1121.35 18.7988 1121.6 18.4355C1121.86 18.0684 1121.99 17.5137 1121.99 16.7715ZM1124.35 16.7715C1124.35 16.1504 1124.47 15.5918 1124.72 15.0957C1124.96 14.5957 1125.31 14.2129 1125.76 13.9473C1126.2 13.6777 1126.71 13.543 1127.29 13.543C1128.15 13.543 1128.84 13.8184 1129.37 14.3691C1129.91 14.9199 1130.2 15.6504 1130.24 16.5605L1130.24 16.8945C1130.24 17.5195 1130.12 18.0781 1129.88 18.5703C1129.64 19.0625 1129.3 19.4434 1128.85 19.7129C1128.4 19.9824 1127.89 20.1172 1127.3 20.1172C1126.41 20.1172 1125.69 19.8203 1125.15 19.2266C1124.62 18.6289 1124.35 17.834 1124.35 16.8418V16.7715ZM1125.77 16.8945C1125.77 17.5469 1125.91 18.0586 1126.18 18.4297C1126.45 18.7969 1126.82 18.9805 1127.3 18.9805C1127.78 18.9805 1128.16 18.793 1128.42 18.418C1128.69 18.043 1128.83 17.4941 1128.83 16.7715C1128.83 16.1309 1128.69 15.623 1128.41 15.248C1128.14 14.873 1127.76 14.6855 1127.29 14.6855C1126.83 14.6855 1126.46 14.8711 1126.18 15.2422C1125.91 15.6094 1125.77 16.1602 1125.77 16.8945ZM1134.77 14.9609C1134.58 14.9297 1134.39 14.9141 1134.19 14.9141C1133.54 14.9141 1133.1 15.1641 1132.87 15.6641V20H1131.45V13.6602H1132.8L1132.84 14.3691C1133.18 13.8184 1133.66 13.543 1134.27 13.543C1134.47 13.543 1134.64 13.5703 1134.77 13.625L1134.77 14.9609ZM1137.74 12.1191V13.6602H1138.86V14.7148H1137.74V18.2539C1137.74 18.4961 1137.79 18.6719 1137.88 18.7812C1137.98 18.8867 1138.15 18.9395 1138.4 18.9395C1138.56 18.9395 1138.73 18.9199 1138.9 18.8809V19.9824C1138.57 20.0723 1138.26 20.1172 1137.96 20.1172C1136.87 20.1172 1136.32 19.5137 1136.32 18.3066V14.7148H1135.28V13.6602H1136.32V12.1191H1137.74Z" fill="#689E38"/>
<path d="M42.666 15.4082H43.6162C44.2132 15.3991 44.6826 15.2419 45.0244 14.9365C45.3662 14.6312 45.5371 14.2188 45.5371 13.6992C45.5371 12.5326 44.9561 11.9492 43.7939 11.9492C43.2471 11.9492 42.8096 12.1064 42.4814 12.4209C42.1579 12.7308 41.9961 13.1432 41.9961 13.6582H40.7314C40.7314 12.8698 41.0186 12.2158 41.5928 11.6963C42.1715 11.1722 42.9053 10.9102 43.7939 10.9102C44.7327 10.9102 45.4688 11.1585 46.002 11.6553C46.5352 12.152 46.8018 12.8424 46.8018 13.7266C46.8018 14.1595 46.6605 14.5788 46.3779 14.9844C46.0999 15.39 45.7194 15.693 45.2363 15.8936C45.7832 16.0667 46.2048 16.3538 46.501 16.7549C46.8018 17.1559 46.9521 17.6458 46.9521 18.2246C46.9521 19.1178 46.6605 19.8265 46.0771 20.3506C45.4938 20.8747 44.735 21.1367 43.8008 21.1367C42.8665 21.1367 42.1055 20.8838 41.5176 20.3779C40.9342 19.8721 40.6426 19.2044 40.6426 18.375H41.9141C41.9141 18.8991 42.085 19.3184 42.4268 19.6328C42.7686 19.9473 43.2266 20.1045 43.8008 20.1045C44.4115 20.1045 44.8786 19.945 45.2021 19.626C45.5257 19.307 45.6875 18.849 45.6875 18.252C45.6875 17.6732 45.5098 17.2288 45.1543 16.9189C44.7988 16.609 44.2861 16.4495 43.6162 16.4404H42.666V15.4082ZM55.21 21H48.6885V20.0908L52.1338 16.2627C52.6442 15.6839 52.9951 15.2145 53.1865 14.8545C53.3825 14.4899 53.4805 14.1139 53.4805 13.7266C53.4805 13.207 53.3232 12.7809 53.0088 12.4482C52.6943 12.1156 52.2751 11.9492 51.751 11.9492C51.1221 11.9492 50.6322 12.1292 50.2812 12.4893C49.9349 12.8447 49.7617 13.3415 49.7617 13.9795H48.4971C48.4971 13.0635 48.791 12.3229 49.3789 11.7578C49.9714 11.1927 50.762 10.9102 51.751 10.9102C52.6761 10.9102 53.4076 11.154 53.9453 11.6416C54.4831 12.1247 54.752 12.7695 54.752 13.5762C54.752 14.556 54.1276 15.7227 52.8789 17.0762L50.2129 19.9678H55.21V21ZM61.8887 17.6572H63.2695V18.6895H61.8887V21H60.6172V18.6895H56.085V17.9443L60.542 11.0469H61.8887V17.6572ZM57.5205 17.6572H60.6172V12.7764L60.4668 13.0498L57.5205 17.6572ZM71.083 21.1367C70.0804 21.1367 69.2646 20.8086 68.6357 20.1523C68.0068 19.4915 67.6924 18.6097 67.6924 17.5068V17.2744C67.6924 16.5407 67.8314 15.8867 68.1094 15.3125C68.3919 14.7337 68.7839 14.2826 69.2852 13.959C69.791 13.6309 70.3379 13.4668 70.9258 13.4668C71.8874 13.4668 72.6348 13.7835 73.168 14.417C73.7012 15.0505 73.9678 15.9574 73.9678 17.1377V17.6641H68.957C68.9753 18.3932 69.1872 18.9834 69.5928 19.4346C70.0029 19.8812 70.5225 20.1045 71.1514 20.1045C71.598 20.1045 71.9762 20.0133 72.2861 19.8311C72.596 19.6488 72.8672 19.4072 73.0996 19.1064L73.8721 19.708C73.2523 20.6605 72.3226 21.1367 71.083 21.1367ZM70.9258 14.5059C70.4154 14.5059 69.987 14.6927 69.6406 15.0664C69.2943 15.4355 69.0801 15.9551 68.998 16.625H72.7031V16.5293C72.6667 15.8867 72.4935 15.39 72.1836 15.0391C71.8737 14.6836 71.4544 14.5059 70.9258 14.5059ZM76.627 13.6035L76.6611 14.4238C77.2035 13.7858 77.9349 13.4668 78.8555 13.4668C79.89 13.4668 80.5941 13.8633 80.9678 14.6562C81.2139 14.3008 81.5329 14.0137 81.9248 13.7949C82.3213 13.5762 82.7884 13.4668 83.3262 13.4668C84.9486 13.4668 85.7734 14.3258 85.8008 16.0439V21H84.5361V16.1191C84.5361 15.5905 84.4154 15.1963 84.1738 14.9365C83.9323 14.6722 83.5267 14.54 82.957 14.54C82.4876 14.54 82.098 14.6813 81.7881 14.9639C81.4782 15.2419 81.2982 15.6178 81.248 16.0918V21H79.9766V16.1533C79.9766 15.0778 79.4502 14.54 78.3975 14.54C77.568 14.54 77.0007 14.8932 76.6953 15.5996V21H75.4307V13.6035H76.627ZM93.9629 17.3838C93.9629 18.5094 93.7054 19.4163 93.1904 20.1045C92.6755 20.7926 91.9782 21.1367 91.0986 21.1367C90.2008 21.1367 89.4945 20.8519 88.9795 20.2822V23.8438H87.7148V13.6035H88.8701L88.9316 14.4238C89.4466 13.7858 90.1621 13.4668 91.0781 13.4668C91.9668 13.4668 92.6686 13.8018 93.1836 14.4717C93.7031 15.1416 93.9629 16.0736 93.9629 17.2676V17.3838ZM92.6982 17.2402C92.6982 16.4062 92.5205 15.7477 92.165 15.2646C91.8096 14.7816 91.3219 14.54 90.7021 14.54C89.9365 14.54 89.3623 14.8796 88.9795 15.5586V19.0928C89.3577 19.7673 89.9365 20.1045 90.7158 20.1045C91.3219 20.1045 91.8027 19.8652 92.1582 19.3867C92.5182 18.9036 92.6982 18.1882 92.6982 17.2402ZM96.9502 21H95.6855V10.5H96.9502V21ZM98.6455 17.2334C98.6455 16.5088 98.7868 15.8571 99.0693 15.2783C99.3564 14.6995 99.7529 14.2529 100.259 13.9385C100.769 13.624 101.35 13.4668 102.002 13.4668C103.009 13.4668 103.823 13.8154 104.442 14.5127C105.067 15.21 105.379 16.1374 105.379 17.2949V17.3838C105.379 18.1038 105.24 18.751 104.962 19.3252C104.688 19.8949 104.294 20.3392 103.779 20.6582C103.269 20.9772 102.681 21.1367 102.016 21.1367C101.013 21.1367 100.2 20.7881 99.5752 20.0908C98.9554 19.3936 98.6455 18.4707 98.6455 17.3223V17.2334ZM99.917 17.3838C99.917 18.2041 100.106 18.8626 100.484 19.3594C100.867 19.8561 101.378 20.1045 102.016 20.1045C102.658 20.1045 103.169 19.8538 103.547 19.3525C103.925 18.8467 104.114 18.1403 104.114 17.2334C104.114 16.4222 103.921 15.766 103.533 15.2646C103.15 14.7588 102.64 14.5059 102.002 14.5059C101.378 14.5059 100.874 14.7542 100.491 15.251C100.108 15.7477 99.917 16.4587 99.917 17.3838ZM109.275 19.1475L110.998 13.6035H112.352L109.378 22.1416C108.918 23.3721 108.186 23.9873 107.184 23.9873L106.944 23.9668L106.473 23.8779V22.8525L106.814 22.8799C107.243 22.8799 107.576 22.7933 107.812 22.6201C108.054 22.4469 108.252 22.1302 108.407 21.6699L108.688 20.918L106.049 13.6035H107.43L109.275 19.1475ZM116.46 21.1367C115.457 21.1367 114.642 20.8086 114.013 20.1523C113.384 19.4915 113.069 18.6097 113.069 17.5068V17.2744C113.069 16.5407 113.208 15.8867 113.486 15.3125C113.769 14.7337 114.161 14.2826 114.662 13.959C115.168 13.6309 115.715 13.4668 116.303 13.4668C117.264 13.4668 118.012 13.7835 118.545 14.417C119.078 15.0505 119.345 15.9574 119.345 17.1377V17.6641H114.334C114.352 18.3932 114.564 18.9834 114.97 19.4346C115.38 19.8812 115.899 20.1045 116.528 20.1045C116.975 20.1045 117.353 20.0133 117.663 19.8311C117.973 19.6488 118.244 19.4072 118.477 19.1064L119.249 19.708C118.629 20.6605 117.7 21.1367 116.46 21.1367ZM116.303 14.5059C115.792 14.5059 115.364 14.6927 115.018 15.0664C114.671 15.4355 114.457 15.9551 114.375 16.625H118.08V16.5293C118.044 15.8867 117.87 15.39 117.561 15.0391C117.251 14.6836 116.831 14.5059 116.303 14.5059ZM123.884 21.1367C122.881 21.1367 122.065 20.8086 121.437 20.1523C120.808 19.4915 120.493 18.6097 120.493 17.5068V17.2744C120.493 16.5407 120.632 15.8867 120.91 15.3125C121.193 14.7337 121.585 14.2826 122.086 13.959C122.592 13.6309 123.139 13.4668 123.727 13.4668C124.688 13.4668 125.436 13.7835 125.969 14.417C126.502 15.0505 126.769 15.9574 126.769 17.1377V17.6641H121.758C121.776 18.3932 121.988 18.9834 122.394 19.4346C122.804 19.8812 123.323 20.1045 123.952 20.1045C124.399 20.1045 124.777 20.0133 125.087 19.8311C125.397 19.6488 125.668 19.4072 125.9 19.1064L126.673 19.708C126.053 20.6605 125.123 21.1367 123.884 21.1367ZM123.727 14.5059C123.216 14.5059 122.788 14.6927 122.441 15.0664C122.095 15.4355 121.881 15.9551 121.799 16.625H125.504V16.5293C125.467 15.8867 125.294 15.39 124.984 15.0391C124.674 14.6836 124.255 14.5059 123.727 14.5059ZM136.018 19.0381C136.018 18.6963 135.888 18.432 135.628 18.2451C135.373 18.0537 134.924 17.8896 134.281 17.7529C133.643 17.6162 133.135 17.4521 132.757 17.2607C132.383 17.0693 132.105 16.8415 131.923 16.5771C131.745 16.3128 131.656 15.9984 131.656 15.6338C131.656 15.0277 131.911 14.515 132.422 14.0957C132.937 13.6764 133.593 13.4668 134.391 13.4668C135.229 13.4668 135.908 13.6833 136.428 14.1162C136.952 14.5492 137.214 15.1029 137.214 15.7773H135.942C135.942 15.431 135.794 15.1325 135.498 14.8818C135.206 14.6312 134.837 14.5059 134.391 14.5059C133.93 14.5059 133.57 14.6061 133.311 14.8066C133.051 15.0072 132.921 15.2692 132.921 15.5928C132.921 15.8981 133.042 16.1283 133.283 16.2832C133.525 16.4382 133.96 16.5863 134.589 16.7275C135.222 16.8688 135.735 17.0374 136.127 17.2334C136.519 17.4294 136.808 17.6663 136.995 17.9443C137.187 18.2178 137.282 18.5527 137.282 18.9492C137.282 19.61 137.018 20.141 136.489 20.542C135.961 20.9385 135.275 21.1367 134.432 21.1367C133.839 21.1367 133.315 21.0319 132.859 20.8223C132.404 20.6126 132.046 20.321 131.786 19.9473C131.531 19.569 131.403 19.1611 131.403 18.7236H132.668C132.691 19.1475 132.859 19.4847 133.174 19.7354C133.493 19.9814 133.912 20.1045 134.432 20.1045C134.91 20.1045 135.293 20.0088 135.58 19.8174C135.872 19.6214 136.018 19.3617 136.018 19.0381ZM140.194 14.499C140.755 13.8109 141.484 13.4668 142.382 13.4668C143.945 13.4668 144.733 14.3486 144.747 16.1123V21H143.482V16.1055C143.478 15.5723 143.355 15.1781 143.113 14.9229C142.876 14.6676 142.505 14.54 141.999 14.54C141.589 14.54 141.229 14.6494 140.919 14.8682C140.609 15.0869 140.368 15.374 140.194 15.7295V21H138.93V10.5H140.194V14.499ZM148.015 21H146.75V13.6035H148.015V21ZM146.647 11.6416C146.647 11.4365 146.709 11.2633 146.832 11.1221C146.96 10.9808 147.146 10.9102 147.393 10.9102C147.639 10.9102 147.826 10.9808 147.953 11.1221C148.081 11.2633 148.145 11.4365 148.145 11.6416C148.145 11.8467 148.081 12.0176 147.953 12.1543C147.826 12.291 147.639 12.3594 147.393 12.3594C147.146 12.3594 146.96 12.291 146.832 12.1543C146.709 12.0176 146.647 11.8467 146.647 11.6416ZM150.667 21V14.5811H149.498V13.6035H150.667V12.8447C150.667 12.0518 150.879 11.4388 151.303 11.0059C151.727 10.5729 152.326 10.3564 153.101 10.3564C153.392 10.3564 153.682 10.3952 153.969 10.4727L153.9 11.498C153.686 11.457 153.458 11.4365 153.217 11.4365C152.807 11.4365 152.49 11.5573 152.267 11.7988C152.043 12.0358 151.932 12.3776 151.932 12.8242V13.6035H153.511V14.5811H151.932V21H150.667ZM156.628 11.8125V13.6035H158.009V14.5811H156.628V19.168C156.628 19.4642 156.689 19.6875 156.812 19.8379C156.936 19.9837 157.145 20.0566 157.441 20.0566C157.587 20.0566 157.788 20.0293 158.043 19.9746V21C157.71 21.0911 157.387 21.1367 157.072 21.1367C156.507 21.1367 156.081 20.9658 155.794 20.624C155.507 20.2822 155.363 19.7969 155.363 19.168V14.5811H154.017V13.6035H155.363V11.8125H156.628ZM163.799 19.0381C163.799 18.6963 163.669 18.432 163.409 18.2451C163.154 18.0537 162.705 17.8896 162.062 17.7529C161.424 17.6162 160.916 17.4521 160.538 17.2607C160.164 17.0693 159.886 16.8415 159.704 16.5771C159.526 16.3128 159.438 15.9984 159.438 15.6338C159.438 15.0277 159.693 14.515 160.203 14.0957C160.718 13.6764 161.374 13.4668 162.172 13.4668C163.01 13.4668 163.689 13.6833 164.209 14.1162C164.733 14.5492 164.995 15.1029 164.995 15.7773H163.724C163.724 15.431 163.576 15.1325 163.279 14.8818C162.988 14.6312 162.618 14.5059 162.172 14.5059C161.712 14.5059 161.352 14.6061 161.092 14.8066C160.832 15.0072 160.702 15.2692 160.702 15.5928C160.702 15.8981 160.823 16.1283 161.064 16.2832C161.306 16.4382 161.741 16.5863 162.37 16.7275C163.004 16.8688 163.516 17.0374 163.908 17.2334C164.3 17.4294 164.59 17.6663 164.776 17.9443C164.968 18.2178 165.063 18.5527 165.063 18.9492C165.063 19.61 164.799 20.141 164.271 20.542C163.742 20.9385 163.056 21.1367 162.213 21.1367C161.62 21.1367 161.096 21.0319 160.641 20.8223C160.185 20.6126 159.827 20.321 159.567 19.9473C159.312 19.569 159.185 19.1611 159.185 18.7236H160.449C160.472 19.1475 160.641 19.4847 160.955 19.7354C161.274 19.9814 161.693 20.1045 162.213 20.1045C162.691 20.1045 163.074 20.0088 163.361 19.8174C163.653 19.6214 163.799 19.3617 163.799 19.0381ZM171.448 14.499C172.009 13.8109 172.738 13.4668 173.636 13.4668C175.199 13.4668 175.987 14.3486 176.001 16.1123V21H174.736V16.1055C174.732 15.5723 174.609 15.1781 174.367 14.9229C174.13 14.6676 173.759 14.54 173.253 14.54C172.843 14.54 172.483 14.6494 172.173 14.8682C171.863 15.0869 171.621 15.374 171.448 15.7295V21H170.184V10.5H171.448V14.499ZM182.461 21C182.388 20.8542 182.329 20.5944 182.283 20.2207C181.695 20.8314 180.993 21.1367 180.178 21.1367C179.449 21.1367 178.849 20.9316 178.38 20.5215C177.915 20.1068 177.683 19.5827 177.683 18.9492C177.683 18.179 177.974 17.582 178.558 17.1582C179.146 16.7298 179.97 16.5156 181.032 16.5156H182.263V15.9346C182.263 15.4925 182.131 15.1416 181.866 14.8818C181.602 14.6175 181.212 14.4854 180.697 14.4854C180.246 14.4854 179.868 14.5993 179.562 14.8271C179.257 15.055 179.104 15.3307 179.104 15.6543H177.833C177.833 15.2852 177.963 14.9297 178.223 14.5879C178.487 14.2415 178.842 13.9681 179.289 13.7676C179.74 13.5671 180.235 13.4668 180.772 13.4668C181.625 13.4668 182.292 13.681 182.775 14.1094C183.258 14.5332 183.509 15.1188 183.527 15.8662V19.2705C183.527 19.9495 183.614 20.4896 183.787 20.8906V21H182.461ZM180.362 20.0361C180.759 20.0361 181.135 19.9336 181.49 19.7285C181.846 19.5234 182.103 19.2568 182.263 18.9287V17.4111H181.271C179.722 17.4111 178.947 17.8646 178.947 18.7715C178.947 19.168 179.079 19.4779 179.344 19.7012C179.608 19.9245 179.948 20.0361 180.362 20.0361ZM187.841 19.2842L189.673 13.6035H190.965L188.312 21H187.349L184.669 13.6035H185.961L187.841 19.2842ZM195.155 21.1367C194.153 21.1367 193.337 20.8086 192.708 20.1523C192.079 19.4915 191.765 18.6097 191.765 17.5068V17.2744C191.765 16.5407 191.904 15.8867 192.182 15.3125C192.464 14.7337 192.856 14.2826 193.357 13.959C193.863 13.6309 194.41 13.4668 194.998 13.4668C195.96 13.4668 196.707 13.7835 197.24 14.417C197.773 15.0505 198.04 15.9574 198.04 17.1377V17.6641H193.029C193.048 18.3932 193.259 18.9834 193.665 19.4346C194.075 19.8812 194.595 20.1045 195.224 20.1045C195.67 20.1045 196.049 20.0133 196.358 19.8311C196.668 19.6488 196.939 19.4072 197.172 19.1064L197.944 19.708C197.325 20.6605 196.395 21.1367 195.155 21.1367ZM194.998 14.5059C194.488 14.5059 194.059 14.6927 193.713 15.0664C193.367 15.4355 193.152 15.9551 193.07 16.625H196.775V16.5293C196.739 15.8867 196.566 15.39 196.256 15.0391C195.946 14.6836 195.527 14.5059 194.998 14.5059ZM206.113 16.5635C204.988 16.2399 204.167 15.8434 203.652 15.374C203.142 14.9001 202.887 14.3167 202.887 13.624C202.887 12.8402 203.199 12.193 203.823 11.6826C204.452 11.1676 205.268 10.9102 206.271 10.9102C206.954 10.9102 207.562 11.0423 208.096 11.3066C208.633 11.571 209.048 11.9355 209.34 12.4004C209.636 12.8652 209.784 13.3734 209.784 13.9248H208.465C208.465 13.3232 208.273 12.8516 207.891 12.5098C207.508 12.1634 206.968 11.9902 206.271 11.9902C205.623 11.9902 205.118 12.1338 204.753 12.4209C204.393 12.7035 204.213 13.0977 204.213 13.6035C204.213 14.0091 204.384 14.3532 204.726 14.6357C205.072 14.9137 205.658 15.1689 206.482 15.4014C207.312 15.6338 207.959 15.8913 208.424 16.1738C208.893 16.4518 209.24 16.7777 209.463 17.1514C209.691 17.5251 209.805 17.9648 209.805 18.4707C209.805 19.2773 209.49 19.9245 208.861 20.4121C208.232 20.8952 207.392 21.1367 206.339 21.1367C205.655 21.1367 205.017 21.0068 204.425 20.7471C203.832 20.4827 203.374 20.1227 203.051 19.667C202.732 19.2113 202.572 18.694 202.572 18.1152H203.892C203.892 18.7168 204.113 19.193 204.555 19.5439C205.001 19.8903 205.596 20.0635 206.339 20.0635C207.032 20.0635 207.562 19.9222 207.932 19.6396C208.301 19.3571 208.485 18.972 208.485 18.4844C208.485 17.9967 208.314 17.6208 207.973 17.3564C207.631 17.0876 207.011 16.8232 206.113 16.5635ZM215.861 20.2686C215.369 20.8473 214.647 21.1367 213.694 21.1367C212.906 21.1367 212.304 20.9089 211.89 20.4531C211.479 19.9928 211.272 19.3138 211.268 18.416V13.6035H212.532V18.3818C212.532 19.5029 212.988 20.0635 213.899 20.0635C214.866 20.0635 215.508 19.7035 215.827 18.9834V13.6035H217.092V21H215.889L215.861 20.2686ZM221.986 20.1045C222.438 20.1045 222.832 19.9678 223.169 19.6943C223.506 19.4209 223.693 19.0791 223.729 18.6689H224.926C224.903 19.0928 224.757 19.4961 224.488 19.8789C224.219 20.2617 223.859 20.5671 223.408 20.7949C222.962 21.0228 222.488 21.1367 221.986 21.1367C220.979 21.1367 220.177 20.8018 219.58 20.1318C218.988 19.4574 218.691 18.5368 218.691 17.3701V17.1582C218.691 16.4382 218.824 15.7979 219.088 15.2373C219.352 14.6768 219.73 14.2415 220.223 13.9316C220.719 13.6217 221.305 13.4668 221.979 13.4668C222.809 13.4668 223.497 13.7152 224.044 14.2119C224.595 14.7087 224.889 15.3535 224.926 16.1465H223.729C223.693 15.668 223.511 15.276 223.183 14.9707C222.859 14.6608 222.458 14.5059 221.979 14.5059C221.337 14.5059 220.838 14.7383 220.482 15.2031C220.132 15.6634 219.956 16.3311 219.956 17.2061V17.4453C219.956 18.2975 220.132 18.9538 220.482 19.4141C220.833 19.8743 221.335 20.1045 221.986 20.1045ZM229.314 20.1045C229.766 20.1045 230.16 19.9678 230.497 19.6943C230.834 19.4209 231.021 19.0791 231.058 18.6689H232.254C232.231 19.0928 232.085 19.4961 231.816 19.8789C231.548 20.2617 231.188 20.5671 230.736 20.7949C230.29 21.0228 229.816 21.1367 229.314 21.1367C228.307 21.1367 227.505 20.8018 226.908 20.1318C226.316 19.4574 226.02 18.5368 226.02 17.3701V17.1582C226.02 16.4382 226.152 15.7979 226.416 15.2373C226.68 14.6768 227.059 14.2415 227.551 13.9316C228.048 13.6217 228.633 13.4668 229.308 13.4668C230.137 13.4668 230.825 13.7152 231.372 14.2119C231.924 14.7087 232.217 15.3535 232.254 16.1465H231.058C231.021 15.668 230.839 15.276 230.511 14.9707C230.187 14.6608 229.786 14.5059 229.308 14.5059C228.665 14.5059 228.166 14.7383 227.811 15.2031C227.46 15.6634 227.284 16.3311 227.284 17.2061V17.4453C227.284 18.2975 227.46 18.9538 227.811 19.4141C228.161 19.8743 228.663 20.1045 229.314 20.1045ZM236.745 21.1367C235.743 21.1367 234.927 20.8086 234.298 20.1523C233.669 19.4915 233.354 18.6097 233.354 17.5068V17.2744C233.354 16.5407 233.493 15.8867 233.771 15.3125C234.054 14.7337 234.446 14.2826 234.947 13.959C235.453 13.6309 236 13.4668 236.588 13.4668C237.549 13.4668 238.297 13.7835 238.83 14.417C239.363 15.0505 239.63 15.9574 239.63 17.1377V17.6641H234.619C234.637 18.3932 234.849 18.9834 235.255 19.4346C235.665 19.8812 236.185 20.1045 236.813 20.1045C237.26 20.1045 237.638 20.0133 237.948 19.8311C238.258 19.6488 238.529 19.4072 238.762 19.1064L239.534 19.708C238.914 20.6605 237.985 21.1367 236.745 21.1367ZM236.588 14.5059C236.077 14.5059 235.649 14.6927 235.303 15.0664C234.956 15.4355 234.742 15.9551 234.66 16.625H238.365V16.5293C238.329 15.8867 238.156 15.39 237.846 15.0391C237.536 14.6836 237.117 14.5059 236.588 14.5059ZM245.406 19.0381C245.406 18.6963 245.276 18.432 245.017 18.2451C244.761 18.0537 244.312 17.8896 243.67 17.7529C243.032 17.6162 242.524 17.4521 242.146 17.2607C241.772 17.0693 241.494 16.8415 241.312 16.5771C241.134 16.3128 241.045 15.9984 241.045 15.6338C241.045 15.0277 241.3 14.515 241.811 14.0957C242.326 13.6764 242.982 13.4668 243.779 13.4668C244.618 13.4668 245.297 13.6833 245.816 14.1162C246.34 14.5492 246.603 15.1029 246.603 15.7773H245.331C245.331 15.431 245.183 15.1325 244.887 14.8818C244.595 14.6312 244.226 14.5059 243.779 14.5059C243.319 14.5059 242.959 14.6061 242.699 14.8066C242.439 15.0072 242.31 15.2692 242.31 15.5928C242.31 15.8981 242.43 16.1283 242.672 16.2832C242.913 16.4382 243.349 16.5863 243.978 16.7275C244.611 16.8688 245.124 17.0374 245.516 17.2334C245.908 17.4294 246.197 17.6663 246.384 17.9443C246.575 18.2178 246.671 18.5527 246.671 18.9492C246.671 19.61 246.407 20.141 245.878 20.542C245.349 20.9385 244.663 21.1367 243.82 21.1367C243.228 21.1367 242.704 21.0319 242.248 20.8223C241.792 20.6126 241.435 20.321 241.175 19.9473C240.92 19.569 240.792 19.1611 240.792 18.7236H242.057C242.079 19.1475 242.248 19.4847 242.562 19.7354C242.882 19.9814 243.301 20.1045 243.82 20.1045C244.299 20.1045 244.682 20.0088 244.969 19.8174C245.26 19.6214 245.406 19.3617 245.406 19.0381ZM252.625 19.0381C252.625 18.6963 252.495 18.432 252.235 18.2451C251.98 18.0537 251.531 17.8896 250.889 17.7529C250.251 17.6162 249.743 17.4521 249.364 17.2607C248.991 17.0693 248.713 16.8415 248.53 16.5771C248.353 16.3128 248.264 15.9984 248.264 15.6338C248.264 15.0277 248.519 14.515 249.029 14.0957C249.544 13.6764 250.201 13.4668 250.998 13.4668C251.837 13.4668 252.516 13.6833 253.035 14.1162C253.559 14.5492 253.821 15.1029 253.821 15.7773H252.55C252.55 15.431 252.402 15.1325 252.105 14.8818C251.814 14.6312 251.445 14.5059 250.998 14.5059C250.538 14.5059 250.178 14.6061 249.918 14.8066C249.658 15.0072 249.528 15.2692 249.528 15.5928C249.528 15.8981 249.649 16.1283 249.891 16.2832C250.132 16.4382 250.567 16.5863 251.196 16.7275C251.83 16.8688 252.342 17.0374 252.734 17.2334C253.126 17.4294 253.416 17.6663 253.603 17.9443C253.794 18.2178 253.89 18.5527 253.89 18.9492C253.89 19.61 253.625 20.141 253.097 20.542C252.568 20.9385 251.882 21.1367 251.039 21.1367C250.447 21.1367 249.923 21.0319 249.467 20.8223C249.011 20.6126 248.653 20.321 248.394 19.9473C248.138 19.569 248.011 19.1611 248.011 18.7236H249.275C249.298 19.1475 249.467 19.4847 249.781 19.7354C250.1 19.9814 250.52 20.1045 251.039 20.1045C251.518 20.1045 251.9 20.0088 252.188 19.8174C252.479 19.6214 252.625 19.3617 252.625 19.0381ZM256.159 21V14.5811H254.99V13.6035H256.159V12.8447C256.159 12.0518 256.371 11.4388 256.795 11.0059C257.219 10.5729 257.818 10.3564 258.593 10.3564C258.884 10.3564 259.174 10.3952 259.461 10.4727L259.393 11.498C259.178 11.457 258.951 11.4365 258.709 11.4365C258.299 11.4365 257.982 11.5573 257.759 11.7988C257.535 12.0358 257.424 12.3776 257.424 12.8242V13.6035H259.003V14.5811H257.424V21H256.159ZM264.971 20.2686C264.479 20.8473 263.756 21.1367 262.804 21.1367C262.015 21.1367 261.414 20.9089 260.999 20.4531C260.589 19.9928 260.382 19.3138 260.377 18.416V13.6035H261.642V18.3818C261.642 19.5029 262.097 20.0635 263.009 20.0635C263.975 20.0635 264.618 19.7035 264.937 18.9834V13.6035H266.201V21H264.998L264.971 20.2686ZM269.503 21H268.238V10.5H269.503V21ZM272.907 21H271.643V10.5H272.907V21ZM277.357 19.1475L279.08 13.6035H280.434L277.46 22.1416C277 23.3721 276.268 23.9873 275.266 23.9873L275.026 23.9668L274.555 23.8779V22.8525L274.896 22.8799C275.325 22.8799 275.658 22.7933 275.895 22.6201C276.136 22.4469 276.334 22.1302 276.489 21.6699L276.77 20.918L274.131 13.6035H275.512L277.357 19.1475ZM291.303 17.3838C291.303 18.514 291.043 19.4232 290.523 20.1113C290.004 20.7949 289.307 21.1367 288.432 21.1367C287.497 21.1367 286.775 20.8063 286.265 20.1455L286.203 21H285.041V10.5H286.306V14.417C286.816 13.7835 287.52 13.4668 288.418 13.4668C289.316 13.4668 290.02 13.8063 290.53 14.4854C291.045 15.1644 291.303 16.0941 291.303 17.2744V17.3838ZM290.038 17.2402C290.038 16.3789 289.872 15.7135 289.539 15.2441C289.206 14.7747 288.728 14.54 288.104 14.54C287.27 14.54 286.67 14.9274 286.306 15.7021V18.9014C286.693 19.6761 287.297 20.0635 288.117 20.0635C288.723 20.0635 289.195 19.8288 289.532 19.3594C289.869 18.89 290.038 18.1836 290.038 17.2402ZM295.972 21.1367C294.969 21.1367 294.153 20.8086 293.524 20.1523C292.896 19.4915 292.581 18.6097 292.581 17.5068V17.2744C292.581 16.5407 292.72 15.8867 292.998 15.3125C293.281 14.7337 293.673 14.2826 294.174 13.959C294.68 13.6309 295.227 13.4668 295.814 13.4668C296.776 13.4668 297.523 13.7835 298.057 14.417C298.59 15.0505 298.856 15.9574 298.856 17.1377V17.6641H293.846C293.864 18.3932 294.076 18.9834 294.481 19.4346C294.892 19.8812 295.411 20.1045 296.04 20.1045C296.487 20.1045 296.865 20.0133 297.175 19.8311C297.485 19.6488 297.756 19.4072 297.988 19.1064L298.761 19.708C298.141 20.6605 297.211 21.1367 295.972 21.1367ZM295.814 14.5059C295.304 14.5059 294.876 14.6927 294.529 15.0664C294.183 15.4355 293.969 15.9551 293.887 16.625H297.592V16.5293C297.555 15.8867 297.382 15.39 297.072 15.0391C296.762 14.6836 296.343 14.5059 295.814 14.5059ZM303.396 21.1367C302.393 21.1367 301.577 20.8086 300.948 20.1523C300.319 19.4915 300.005 18.6097 300.005 17.5068V17.2744C300.005 16.5407 300.144 15.8867 300.422 15.3125C300.704 14.7337 301.096 14.2826 301.598 13.959C302.104 13.6309 302.65 13.4668 303.238 13.4668C304.2 13.4668 304.947 13.7835 305.48 14.417C306.014 15.0505 306.28 15.9574 306.28 17.1377V17.6641H301.27C301.288 18.3932 301.5 18.9834 301.905 19.4346C302.315 19.8812 302.835 20.1045 303.464 20.1045C303.91 20.1045 304.289 20.0133 304.599 19.8311C304.909 19.6488 305.18 19.4072 305.412 19.1064L306.185 19.708C305.565 20.6605 304.635 21.1367 303.396 21.1367ZM303.238 14.5059C302.728 14.5059 302.299 14.6927 301.953 15.0664C301.607 15.4355 301.393 15.9551 301.311 16.625H305.016V16.5293C304.979 15.8867 304.806 15.39 304.496 15.0391C304.186 14.6836 303.767 14.5059 303.238 14.5059ZM308.946 13.6035L308.987 14.5332C309.552 13.8223 310.291 13.4668 311.202 13.4668C312.765 13.4668 313.554 14.3486 313.567 16.1123V21H312.303V16.1055C312.298 15.5723 312.175 15.1781 311.934 14.9229C311.697 14.6676 311.325 14.54 310.819 14.54C310.409 14.54 310.049 14.6494 309.739 14.8682C309.429 15.0869 309.188 15.374 309.015 15.7295V21H307.75V13.6035H308.946ZM323.514 21C323.441 20.8542 323.382 20.5944 323.336 20.2207C322.748 20.8314 322.046 21.1367 321.23 21.1367C320.501 21.1367 319.902 20.9316 319.433 20.5215C318.968 20.1068 318.735 19.5827 318.735 18.9492C318.735 18.179 319.027 17.582 319.61 17.1582C320.198 16.7298 321.023 16.5156 322.085 16.5156H323.315V15.9346C323.315 15.4925 323.183 15.1416 322.919 14.8818C322.655 14.6175 322.265 14.4854 321.75 14.4854C321.299 14.4854 320.921 14.5993 320.615 14.8271C320.31 15.055 320.157 15.3307 320.157 15.6543H318.886C318.886 15.2852 319.016 14.9297 319.275 14.5879C319.54 14.2415 319.895 13.9681 320.342 13.7676C320.793 13.5671 321.287 13.4668 321.825 13.4668C322.677 13.4668 323.345 13.681 323.828 14.1094C324.311 14.5332 324.562 15.1188 324.58 15.8662V19.2705C324.58 19.9495 324.667 20.4896 324.84 20.8906V21H323.514ZM321.415 20.0361C321.812 20.0361 322.188 19.9336 322.543 19.7285C322.898 19.5234 323.156 19.2568 323.315 18.9287V17.4111H322.324C320.775 17.4111 320 17.8646 320 18.7715C320 19.168 320.132 19.4779 320.396 19.7012C320.661 19.9245 321 20.0361 321.415 20.0361ZM326.255 17.2402C326.255 16.1055 326.524 15.194 327.062 14.5059C327.599 13.8132 328.303 13.4668 329.174 13.4668C330.04 13.4668 330.726 13.763 331.231 14.3555V10.5H332.496V21H331.334L331.272 20.207C330.767 20.8268 330.062 21.1367 329.16 21.1367C328.303 21.1367 327.604 20.7858 327.062 20.084C326.524 19.3822 326.255 18.4661 326.255 17.3359V17.2402ZM327.52 17.3838C327.52 18.2223 327.693 18.8786 328.039 19.3525C328.385 19.8265 328.864 20.0635 329.475 20.0635C330.277 20.0635 330.862 19.7035 331.231 18.9834V15.5859C330.853 14.8887 330.272 14.54 329.488 14.54C328.868 14.54 328.385 14.7793 328.039 15.2578C327.693 15.7363 327.52 16.445 327.52 17.3838ZM334.157 17.2402C334.157 16.1055 334.426 15.194 334.964 14.5059C335.502 13.8132 336.206 13.4668 337.076 13.4668C337.942 13.4668 338.628 13.763 339.134 14.3555V10.5H340.398V21H339.236L339.175 20.207C338.669 20.8268 337.965 21.1367 337.062 21.1367C336.206 21.1367 335.506 20.7858 334.964 20.084C334.426 19.3822 334.157 18.4661 334.157 17.3359V17.2402ZM335.422 17.3838C335.422 18.2223 335.595 18.8786 335.941 19.3525C336.288 19.8265 336.766 20.0635 337.377 20.0635C338.179 20.0635 338.765 19.7035 339.134 18.9834V15.5859C338.756 14.8887 338.174 14.54 337.391 14.54C336.771 14.54 336.288 14.7793 335.941 15.2578C335.595 15.7363 335.422 16.445 335.422 17.3838ZM345.437 21.1367C344.434 21.1367 343.618 20.8086 342.989 20.1523C342.36 19.4915 342.046 18.6097 342.046 17.5068V17.2744C342.046 16.5407 342.185 15.8867 342.463 15.3125C342.745 14.7337 343.137 14.2826 343.639 13.959C344.145 13.6309 344.691 13.4668 345.279 13.4668C346.241 13.4668 346.988 13.7835 347.521 14.417C348.055 15.0505 348.321 15.9574 348.321 17.1377V17.6641H343.311C343.329 18.3932 343.541 18.9834 343.946 19.4346C344.356 19.8812 344.876 20.1045 345.505 20.1045C345.951 20.1045 346.33 20.0133 346.64 19.8311C346.95 19.6488 347.221 19.4072 347.453 19.1064L348.226 19.708C347.606 20.6605 346.676 21.1367 345.437 21.1367ZM345.279 14.5059C344.769 14.5059 344.34 14.6927 343.994 15.0664C343.648 15.4355 343.434 15.9551 343.352 16.625H347.057V16.5293C347.02 15.8867 346.847 15.39 346.537 15.0391C346.227 14.6836 345.808 14.5059 345.279 14.5059ZM349.483 17.2402C349.483 16.1055 349.752 15.194 350.29 14.5059C350.828 13.8132 351.532 13.4668 352.402 13.4668C353.268 13.4668 353.954 13.763 354.46 14.3555V10.5H355.725V21H354.562L354.501 20.207C353.995 20.8268 353.291 21.1367 352.389 21.1367C351.532 21.1367 350.832 20.7858 350.29 20.084C349.752 19.3822 349.483 18.4661 349.483 17.3359V17.2402ZM350.748 17.3838C350.748 18.2223 350.921 18.8786 351.268 19.3525C351.614 19.8265 352.092 20.0635 352.703 20.0635C353.505 20.0635 354.091 19.7035 354.46 18.9834V15.5859C354.082 14.8887 353.501 14.54 352.717 14.54C352.097 14.54 351.614 14.7793 351.268 15.2578C350.921 15.7363 350.748 16.445 350.748 17.3838ZM357.721 20.3369C357.721 20.1182 357.785 19.9359 357.912 19.79C358.044 19.6442 358.24 19.5713 358.5 19.5713C358.76 19.5713 358.956 19.6442 359.088 19.79C359.225 19.9359 359.293 20.1182 359.293 20.3369C359.293 20.5465 359.225 20.722 359.088 20.8633C358.956 21.0046 358.76 21.0752 358.5 21.0752C358.24 21.0752 358.044 21.0046 357.912 20.8633C357.785 20.722 357.721 20.5465 357.721 20.3369ZM372.377 17.8418C372.254 18.8945 371.864 19.708 371.208 20.2822C370.556 20.8519 369.688 21.1367 368.604 21.1367C367.428 21.1367 366.484 20.7152 365.773 19.8721C365.067 19.029 364.714 17.901 364.714 16.4883V15.5312C364.714 14.6061 364.878 13.7926 365.206 13.0908C365.539 12.389 366.008 11.8512 366.614 11.4775C367.22 11.0993 367.922 10.9102 368.72 10.9102C369.777 10.9102 370.625 11.2064 371.263 11.7988C371.901 12.3867 372.272 13.2025 372.377 14.2461H371.058C370.944 13.4531 370.695 12.8789 370.312 12.5234C369.934 12.168 369.403 11.9902 368.72 11.9902C367.881 11.9902 367.223 12.3001 366.744 12.9199C366.27 13.5397 366.033 14.4215 366.033 15.5654V16.5293C366.033 17.6094 366.259 18.4684 366.71 19.1064C367.161 19.7445 367.792 20.0635 368.604 20.0635C369.333 20.0635 369.891 19.8994 370.278 19.5713C370.67 19.2386 370.93 18.6621 371.058 17.8418H372.377ZM373.642 17.2334C373.642 16.5088 373.783 15.8571 374.065 15.2783C374.353 14.6995 374.749 14.2529 375.255 13.9385C375.765 13.624 376.346 13.4668 376.998 13.4668C378.005 13.4668 378.819 13.8154 379.438 14.5127C380.063 15.21 380.375 16.1374 380.375 17.2949V17.3838C380.375 18.1038 380.236 18.751 379.958 19.3252C379.685 19.8949 379.29 20.3392 378.775 20.6582C378.265 20.9772 377.677 21.1367 377.012 21.1367C376.009 21.1367 375.196 20.7881 374.571 20.0908C373.951 19.3936 373.642 18.4707 373.642 17.3223V17.2334ZM374.913 17.3838C374.913 18.2041 375.102 18.8626 375.48 19.3594C375.863 19.8561 376.374 20.1045 377.012 20.1045C377.654 20.1045 378.165 19.8538 378.543 19.3525C378.921 18.8467 379.11 18.1403 379.11 17.2334C379.11 16.4222 378.917 15.766 378.529 15.2646C378.146 14.7588 377.636 14.5059 376.998 14.5059C376.374 14.5059 375.87 14.7542 375.487 15.251C375.104 15.7477 374.913 16.4587 374.913 17.3838ZM383.157 13.6035L383.198 14.5332C383.763 13.8223 384.502 13.4668 385.413 13.4668C386.976 13.4668 387.765 14.3486 387.778 16.1123V21H386.514V16.1055C386.509 15.5723 386.386 15.1781 386.145 14.9229C385.908 14.6676 385.536 14.54 385.03 14.54C384.62 14.54 384.26 14.6494 383.95 14.8682C383.64 15.0869 383.399 15.374 383.226 15.7295V21H381.961V13.6035H383.157ZM389.385 17.2402C389.385 16.0872 389.651 15.1712 390.185 14.4922C390.718 13.8086 391.424 13.4668 392.304 13.4668C393.206 13.4668 393.91 13.7858 394.416 14.4238L394.478 13.6035H395.633V20.8223C395.633 21.7793 395.348 22.5335 394.778 23.085C394.213 23.6364 393.452 23.9121 392.495 23.9121C391.962 23.9121 391.44 23.7982 390.93 23.5703C390.419 23.3424 390.03 23.0303 389.761 22.6338L390.417 21.875C390.959 22.5449 391.622 22.8799 392.406 22.8799C393.021 22.8799 393.5 22.7067 393.842 22.3604C394.188 22.014 394.361 21.5264 394.361 20.8975V20.2617C393.855 20.8451 393.165 21.1367 392.29 21.1367C391.424 21.1367 390.722 20.7881 390.185 20.0908C389.651 19.3936 389.385 18.4434 389.385 17.2402ZM390.656 17.3838C390.656 18.2178 390.827 18.874 391.169 19.3525C391.511 19.8265 391.989 20.0635 392.604 20.0635C393.402 20.0635 393.988 19.7012 394.361 18.9766V15.5996C393.974 14.8932 393.393 14.54 392.618 14.54C392.003 14.54 391.522 14.7793 391.176 15.2578C390.829 15.7363 390.656 16.445 390.656 17.3838ZM401.122 14.7383C400.931 14.7064 400.723 14.6904 400.5 14.6904C399.671 14.6904 399.108 15.0436 398.812 15.75V21H397.547V13.6035H398.777L398.798 14.458C399.213 13.7972 399.8 13.4668 400.562 13.4668C400.808 13.4668 400.994 13.4987 401.122 13.5625V14.7383ZM406.584 21C406.511 20.8542 406.452 20.5944 406.406 20.2207C405.818 20.8314 405.117 21.1367 404.301 21.1367C403.572 21.1367 402.972 20.9316 402.503 20.5215C402.038 20.1068 401.806 19.5827 401.806 18.9492C401.806 18.179 402.097 17.582 402.681 17.1582C403.269 16.7298 404.093 16.5156 405.155 16.5156H406.386V15.9346C406.386 15.4925 406.254 15.1416 405.989 14.8818C405.725 14.6175 405.335 14.4854 404.82 14.4854C404.369 14.4854 403.991 14.5993 403.686 14.8271C403.38 15.055 403.228 15.3307 403.228 15.6543H401.956C401.956 15.2852 402.086 14.9297 402.346 14.5879C402.61 14.2415 402.965 13.9681 403.412 13.7676C403.863 13.5671 404.358 13.4668 404.896 13.4668C405.748 13.4668 406.415 13.681 406.898 14.1094C407.382 14.5332 407.632 15.1188 407.65 15.8662V19.2705C407.65 19.9495 407.737 20.4896 407.91 20.8906V21H406.584ZM404.485 20.0361C404.882 20.0361 405.258 19.9336 405.613 19.7285C405.969 19.5234 406.226 19.2568 406.386 18.9287V17.4111H405.395C403.845 17.4111 403.07 17.8646 403.07 18.7715C403.07 19.168 403.202 19.4779 403.467 19.7012C403.731 19.9245 404.071 20.0361 404.485 20.0361ZM411.349 11.8125V13.6035H412.729V14.5811H411.349V19.168C411.349 19.4642 411.41 19.6875 411.533 19.8379C411.656 19.9837 411.866 20.0566 412.162 20.0566C412.308 20.0566 412.508 20.0293 412.764 19.9746V21C412.431 21.0911 412.107 21.1367 411.793 21.1367C411.228 21.1367 410.802 20.9658 410.515 20.624C410.228 20.2822 410.084 19.7969 410.084 19.168V14.5811H408.737V13.6035H410.084V11.8125H411.349ZM418.52 19.0381C418.52 18.6963 418.39 18.432 418.13 18.2451C417.875 18.0537 417.426 17.8896 416.783 17.7529C416.145 17.6162 415.637 17.4521 415.259 17.2607C414.885 17.0693 414.607 16.8415 414.425 16.5771C414.247 16.3128 414.158 15.9984 414.158 15.6338C414.158 15.0277 414.413 14.515 414.924 14.0957C415.439 13.6764 416.095 13.4668 416.893 13.4668C417.731 13.4668 418.41 13.6833 418.93 14.1162C419.454 14.5492 419.716 15.1029 419.716 15.7773H418.444C418.444 15.431 418.296 15.1325 418 14.8818C417.708 14.6312 417.339 14.5059 416.893 14.5059C416.432 14.5059 416.072 14.6061 415.812 14.8066C415.553 15.0072 415.423 15.2692 415.423 15.5928C415.423 15.8981 415.544 16.1283 415.785 16.2832C416.027 16.4382 416.462 16.5863 417.091 16.7275C417.724 16.8688 418.237 17.0374 418.629 17.2334C419.021 17.4294 419.31 17.6663 419.497 17.9443C419.688 18.2178 419.784 18.5527 419.784 18.9492C419.784 19.61 419.52 20.141 418.991 20.542C418.463 20.9385 417.777 21.1367 416.934 21.1367C416.341 21.1367 415.817 21.0319 415.361 20.8223C414.906 20.6126 414.548 20.321 414.288 19.9473C414.033 19.569 413.905 19.1611 413.905 18.7236H415.17C415.193 19.1475 415.361 19.4847 415.676 19.7354C415.995 19.9814 416.414 20.1045 416.934 20.1045C417.412 20.1045 417.795 20.0088 418.082 19.8174C418.374 19.6214 418.52 19.3617 418.52 19.0381ZM422.847 18.1904H421.705L421.616 11.0469H422.942L422.847 18.1904ZM421.568 20.3643C421.568 20.1592 421.63 19.9883 421.753 19.8516C421.881 19.7103 422.067 19.6396 422.313 19.6396C422.56 19.6396 422.746 19.7103 422.874 19.8516C423.002 19.9883 423.065 20.1592 423.065 20.3643C423.065 20.5693 423.002 20.7402 422.874 20.877C422.746 21.0091 422.56 21.0752 422.313 21.0752C422.067 21.0752 421.881 21.0091 421.753 20.877C421.63 20.7402 421.568 20.5693 421.568 20.3643Z" fill="#404040"/>
<path fill-rule="evenodd" clip-rule="evenodd" d="M34 16C34 19.866 30.866 23 27 23C23.134 23 20 19.866 20 16C20 12.134 23.134 9 27 9C30.866 9 34 12.134 34 16ZM33 16C33 19.3137 30.3137 22 27 22C23.6863 22 21 19.3137 21 16C21 12.6863 23.6863 10 27 10C30.3137 10 33 12.6863 33 16ZM25.2807 19.7076C25.4682 19.8951 25.7225 20.0005 25.9877 20.0006H26.0497C26.3366 19.9825 26.6018 19.8419 26.7777 19.6146L30.7777 14.6146C31.1168 14.1783 31.038 13.5497 30.6017 13.2106C30.1654 12.8715 29.5368 12.9503 29.1977 13.3866L25.8947 17.4936L24.6947 16.2936C24.3023 15.9146 23.6786 15.92 23.2929 16.3058C22.9072 16.6915 22.9017 17.3152 23.2807 17.7076L25.2807 19.7076Z" fill="#4B6C89"/>
</svg>
