<svg width="31" height="24" viewBox="0 0 31 24" fill="none" xmlns="http://www.w3.org/2000/svg">
<path d="M0 12C0 5.37258 5.37258 0 12 0H19C25.6274 0 31 5.37258 31 12C31 18.6274 25.6274 24 19 24H12C5.37258 24 0 18.6274 0 12Z" fill="#4B6C89"/>
<path d="M18.4648 16H12.7285V15.0215L15.5703 11.9219C15.9805 11.4648 16.2715 11.084 16.4434 10.7793C16.6191 10.4707 16.707 10.1621 16.707 9.85352C16.707 9.44727 16.5918 9.11914 16.3613 8.86914C16.1348 8.61914 15.8281 8.49414 15.4414 8.49414C14.9805 8.49414 14.623 8.63477 14.3691 8.91602C14.1152 9.19727 13.9883 9.58203 13.9883 10.0703H12.5645C12.5645 9.55078 12.6816 9.08398 12.916 8.66992C13.1543 8.25195 13.4922 7.92773 13.9297 7.69727C14.3711 7.4668 14.8789 7.35156 15.4531 7.35156C16.2812 7.35156 16.9336 7.56055 17.4102 7.97852C17.8906 8.39258 18.1309 8.9668 18.1309 9.70117C18.1309 10.127 18.0098 10.5742 17.7676 11.043C17.5293 11.5078 17.1367 12.0371 16.5898 12.6309L14.5039 14.8633H18.4648V16Z" fill="white"/>
</svg>
