<svg width="65" height="21" viewBox="0 0 65 21" fill="none" xmlns="http://www.w3.org/2000/svg">
<circle cx="10" cy="11" r="9.5" fill="white" stroke="#B7C4D0"/>
<path fill-rule="evenodd" clip-rule="evenodd" d="M14.3015 7.2811L7.9944 13.5829L5.69851 11.2881C5.30525 10.9086 4.68015 10.914 4.29355 11.3003C3.90695 11.6865 3.90152 12.3111 4.28134 12.704L7.28582 15.7068C7.67719 16.0977 8.31161 16.0977 8.70299 15.7068L15.7187 8.69707C16.0985 8.30414 16.093 7.67957 15.7065 7.2933C15.3199 6.90703 14.6948 6.9016 14.3015 7.2811Z" fill="#DBE2E7"/>
<path d="M30.4502 14.2568L33.2939 6.04688H34.7295L31.0381 16H29.876L26.1914 6.04688H27.6201L30.4502 14.2568ZM40.123 16C40.0501 15.8542 39.9909 15.5944 39.9453 15.2207C39.3574 15.8314 38.6556 16.1367 37.8398 16.1367C37.1107 16.1367 36.5114 15.9316 36.042 15.5215C35.5771 15.1068 35.3447 14.5827 35.3447 13.9492C35.3447 13.179 35.6364 12.582 36.2197 12.1582C36.8076 11.7298 37.6325 11.5156 38.6943 11.5156H39.9248V10.9346C39.9248 10.4925 39.7926 10.1416 39.5283 9.88184C39.264 9.61751 38.8743 9.48535 38.3594 9.48535C37.9082 9.48535 37.5299 9.59928 37.2246 9.82715C36.9193 10.055 36.7666 10.3307 36.7666 10.6543H35.4951C35.4951 10.2852 35.625 9.92969 35.8848 9.58789C36.1491 9.24154 36.5046 8.9681 36.9512 8.76758C37.4023 8.56706 37.8968 8.4668 38.4346 8.4668C39.2868 8.4668 39.9544 8.68099 40.4375 9.10938C40.9206 9.5332 41.1712 10.1188 41.1895 10.8662V14.2705C41.1895 14.9495 41.276 15.4896 41.4492 15.8906V16H40.123ZM38.0244 15.0361C38.4209 15.0361 38.7969 14.9336 39.1523 14.7285C39.5078 14.5234 39.7653 14.2568 39.9248 13.9287V12.4111H38.9336C37.3841 12.4111 36.6094 12.8646 36.6094 13.7715C36.6094 14.168 36.7415 14.4779 37.0059 14.7012C37.2702 14.9245 37.6097 15.0361 38.0244 15.0361ZM44.5459 16H43.2812V5.5H44.5459V16ZM51.1426 15.2686C50.6504 15.8473 49.9281 16.1367 48.9756 16.1367C48.1872 16.1367 47.5856 15.9089 47.1709 15.4531C46.7607 14.9928 46.5534 14.3138 46.5488 13.416V8.60352H47.8135V13.3818C47.8135 14.5029 48.2692 15.0635 49.1807 15.0635C50.1468 15.0635 50.7894 14.7035 51.1084 13.9834V8.60352H52.373V16H51.1699L51.1426 15.2686ZM57.3701 16.1367C56.3675 16.1367 55.5518 15.8086 54.9229 15.1523C54.2939 14.4915 53.9795 13.6097 53.9795 12.5068V12.2744C53.9795 11.5407 54.1185 10.8867 54.3965 10.3125C54.679 9.73372 55.071 9.28255 55.5723 8.95898C56.0781 8.63086 56.625 8.4668 57.2129 8.4668C58.1745 8.4668 58.9219 8.78353 59.4551 9.41699C59.9883 10.0505 60.2549 10.9574 60.2549 12.1377V12.6641H55.2441C55.2624 13.3932 55.4743 13.9834 55.8799 14.4346C56.29 14.8812 56.8096 15.1045 57.4385 15.1045C57.8851 15.1045 58.2633 15.0133 58.5732 14.8311C58.8831 14.6488 59.1543 14.4072 59.3867 14.1064L60.1592 14.708C59.5394 15.6605 58.6097 16.1367 57.3701 16.1367ZM57.2129 9.50586C56.7025 9.50586 56.2741 9.69271 55.9277 10.0664C55.5814 10.4355 55.3672 10.9551 55.2852 11.625H58.9902V11.5293C58.9538 10.8867 58.7806 10.39 58.4707 10.0391C58.1608 9.68359 57.7415 9.50586 57.2129 9.50586Z" fill="#404040"/>
</svg>
