<svg width="15" height="15" viewBox="0 0 15 15" fill="none" xmlns="http://www.w3.org/2000/svg">
<rect width="15" height="15" fill="#0371FF"/>
<path fill-rule="evenodd" clip-rule="evenodd" d="M12.0003 7.38462C12.0003 10 13.032 10.1538 13.032 10.1538C13.6128 10.1538 14 10.5231 14 11.0769C14 11.6308 13.6128 12 13.032 12H1.96796C1.38718 12 1 11.6308 1 11.0769C1 10.5231 1.38718 10.1538 1.96796 10.1538C1.96796 10.1538 2.9864 10 2.9864 7.38462V4.61538C2.9864 2.03077 4.79327 0 7.50356 0C10.2139 0 12.0003 2.03077 12.0003 4.61538V7.38462ZM9.00071 13.5L9 13H6L6.00071 13.5C6.00071 14.3284 6.67228 15 7.50071 15C8.32913 15 9.00071 14.3284 9.00071 13.5Z" fill="white"/>
</svg>
