<svg width="15" height="15" viewBox="0 0 15 15" fill="none" xmlns="http://www.w3.org/2000/svg">
<rect width="15" height="15" fill="#0371FF"/>
<path fill-rule="evenodd" clip-rule="evenodd" d="M0 1C0 0.447715 0.447715 0 1 0H14C14.5523 0 15 0.447715 15 1V13V14.5C15 14.7761 14.7761 15 14.5 15H12.5C12.2239 15 12 14.7761 12 14.5V13H3V13.6396C3 13.8548 2.86228 14.0459 2.65811 14.114L0.658114 14.7806C0.334348 14.8886 0 14.6476 0 14.3063V13V1ZM13 2H2V11H13V2ZM12 3H3V10H12V3ZM10 4H11V9H10V4ZM7 6.5C7 7.32843 6.32843 8 5.5 8C4.67157 8 4 7.32843 4 6.5C4 5.67157 4.67157 5 5.5 5C6.32843 5 7 5.67157 7 6.5Z" fill="white"/>
</svg>
