<svg width="15" height="15" viewBox="0 0 15 15" fill="none" xmlns="http://www.w3.org/2000/svg">
<circle cx="7.5" cy="7.5" r="6.5" fill="#F9FAFB"/>
<path fill-rule="evenodd" clip-rule="evenodd" d="M15 7.5C15 11.6421 11.6421 15 7.5 15C3.35786 15 0 11.6421 0 7.5C0 3.35786 3.35786 0 7.5 0C11.6421 0 15 3.35786 15 7.5ZM14 7.5C14 11.0899 11.0899 14 7.5 14C3.91015 14 1 11.0899 1 7.5C1 3.91015 3.91015 1 7.5 1C11.0899 1 14 3.91015 14 7.5ZM8.02947 11.5822V13H6.97053V11.594C5.15521 11.4404 4 10.4952 4 9.08915H6.32417C6.35167 9.52632 6.69548 9.88077 7.49312 9.88077C8.08448 9.88077 8.66208 9.65628 8.66208 9.14823C8.66208 9.01826 8.66208 8.74651 7.71316 8.47476L6.59921 8.15575C4.48134 7.65951 4.12377 6.50161 4.12377 5.75725C4.12377 4.3985 5.30648 3.44146 6.97053 3.28786V2H8.02947V3.29968C9.5835 3.47691 10.6974 4.37487 10.6974 5.80451H8.40079C8.40079 5.36735 8.11198 5.04834 7.41061 5.04834C6.79175 5.04834 6.40668 5.30827 6.40668 5.69817C6.40668 5.85177 6.46169 6.14715 7.28684 6.35983L8.37328 6.65521C10.8625 7.31686 11 8.55747 11 9.13641C11 10.7433 9.48723 11.4522 8.02947 11.5822Z" fill="#4B6C89"/>
</svg>
