<svg width="15" height="15" viewBox="0 0 15 15" fill="none" xmlns="http://www.w3.org/2000/svg">
<rect width="15" height="15" fill="#0371FF"/>
<path fill-rule="evenodd" clip-rule="evenodd" d="M9.91946 1C10.6424 1 11.3091 1.39016 11.6632 2.02048L14.4085 6.90764C14.7723 7.55515 14.7472 8.35089 14.3436 8.97427L11.6802 13.0871C11.3116 13.6563 10.6796 14 10.0014 14H4.99856C4.3204 14 3.68844 13.6563 3.31982 13.0871L0.656522 8.97439C0.252796 8.35094 0.227817 7.55511 0.591652 6.90758L3.3377 2.0203C3.6918 1.39009 4.35843 1 5.08131 1H9.91946ZM7.5 10C8.88071 10 10 8.88071 10 7.5C10 6.11929 8.88071 5 7.5 5C6.11929 5 5 6.11929 5 7.5C5 8.88071 6.11929 10 7.5 10Z" fill="white"/>
</svg>
