<svg width="15" height="15" viewBox="0 0 15 15" fill="none" xmlns="http://www.w3.org/2000/svg">
<path fill-rule="evenodd" clip-rule="evenodd" d="M11.6632 2.02048C11.3091 1.39016 10.6424 1 9.91946 1H5.08131C4.35843 1 3.6918 1.39009 3.3377 2.0203L0.591652 6.90758C0.227817 7.55511 0.252796 8.35094 0.656522 8.97439L3.31982 13.0871C3.68844 13.6563 4.3204 14 4.99856 14H10.0014C10.6796 14 11.3116 13.6563 11.6802 13.0871L14.3436 8.97427C14.7472 8.35089 14.7723 7.55515 14.4085 6.90764L11.6632 2.02048Z" fill="#F6F7F9"/>
<path fill-rule="evenodd" clip-rule="evenodd" d="M11.6632 2.02048C11.3091 1.39016 10.6424 1 9.91947 1H5.08131C4.35843 1 3.6918 1.39009 3.3377 2.0203L0.591652 6.90758C0.227817 7.55511 0.252796 8.35094 0.656522 8.97439L3.31982 13.0871C3.68844 13.6563 4.3204 14 4.99856 14H10.0014C10.6796 14 11.3116 13.6563 11.6802 13.0871L14.3436 8.97427C14.7472 8.35089 14.7723 7.55515 14.4085 6.90764L11.6632 2.02048ZM5.06164 13C4.72164 13 4.40764 12.829 4.22264 12.543L1.55964 8.431C1.35664 8.118 1.34464 7.722 1.52664 7.397L4.27264 2.51C4.44964 2.195 4.78364 2 5.14464 2H9.98264C10.3436 2 10.6776 2.195 10.8536 2.51L13.5996 7.397C13.7826 7.722 13.7696 8.118 13.5676 8.431L10.9036 12.543C10.7186 12.829 10.4046 13 10.0646 13H5.06164ZM7.5 10C8.88071 10 10 8.88071 10 7.5C10 6.11929 8.88071 5 7.5 5C6.11929 5 5 6.11929 5 7.5C5 8.88071 6.11929 10 7.5 10Z" fill="#4B6C89"/>
</svg>
