<svg width="15" height="15" viewBox="0 0 15 15" fill="none" xmlns="http://www.w3.org/2000/svg">
<rect width="15" height="15" fill="#0371FF"/>
<path fill-rule="evenodd" clip-rule="evenodd" d="M9.64479 0.29289C9.45725 0.10535 9.20289 -5.62011e-06 8.93767 2.24856e-10L1.99996 0.000147019C1.44769 0.000158722 0.999989 0.447866 0.999989 1.00014V14C0.999989 14.5523 1.4477 15 1.99998 15H12.9999C13.5521 15 13.9998 14.5523 13.9998 14V5.06215C13.9998 4.79693 13.8945 4.54258 13.707 4.35505L9.64479 0.29289ZM8.83624 11.1299C9.04056 11.3157 9.05562 11.6319 8.86987 11.8362C8.70476 12.0178 8.43656 12.0499 8.23549 11.9243L8.16357 11.8698L5.16361 8.86987C4.97584 8.69918 4.94878 8.41977 5.08686 8.21801L5.14639 8.14636L8.14636 5.14639C8.34162 4.95113 8.65819 4.95113 8.85345 5.14639C9.02702 5.31995 9.0463 5.58938 8.91131 5.78424L8.85345 5.85349L6.70695 7.99991H12.9999V8.9999H6.73575L8.83624 11.1299Z" fill="white"/>
</svg>
