<svg width="15" height="15" viewBox="0 0 15 15" fill="none" xmlns="http://www.w3.org/2000/svg">
<path fill-rule="evenodd" clip-rule="evenodd" d="M13.032 10.1538C13.032 10.1538 12.0003 10 12.0003 7.38462V4.61538C12.0003 2.03077 10.2139 0 7.50356 0C4.79327 0 2.9864 2.03077 2.9864 4.61538V7.38462C2.9864 10 1.96796 10.1538 1.96796 10.1538C1.38718 10.1538 1 10.5231 1 11.0769C1 11.6308 1.38718 12 1.96796 12H13.032C13.6128 12 14 11.6308 14 11.0769C14 10.5231 13.6128 10.1538 13.032 10.1538Z" fill="#F6F7F9"/>
<path fill-rule="evenodd" clip-rule="evenodd" d="M13.032 10.1538C13.032 10.1538 12.0003 10 12.0003 7.38462V4.61538C12.0003 2.03077 10.2139 0 7.50356 0C4.79327 0 2.9864 2.03077 2.9864 4.61538V7.38462C2.9864 10 1.96796 10.1538 1.96796 10.1538C1.38718 10.1538 1 10.5231 1 11.0769C1 11.6308 1.38718 12 1.96796 12H13.032C13.6128 12 14 11.6308 14 11.0769C14 10.5231 13.6128 10.1538 13.032 10.1538ZM2.73001 11.0019C4.03481 11.0019 4.02098 8.65692 4.0156 7.74459C4.01529 7.69201 4.01501 7.64419 4.01501 7.60186V4.616C4.01501 2.487 5.45401 1 7.52501 1C9.58401 1 11.015 2.487 11.015 4.616V7.60186C11.015 8.37886 11.124 11.0019 12.514 11.0019H2.73001ZM9.00071 13.5L9 13H6L6.00071 13.5C6.00071 14.3284 6.67228 15 7.50071 15C8.32913 15 9.00071 14.3284 9.00071 13.5Z" fill="#4B6C89"/>
</svg>
