<svg width="15" height="15" viewBox="0 0 15 15" fill="none" xmlns="http://www.w3.org/2000/svg">
<path fill-rule="evenodd" clip-rule="evenodd" d="M13 0C13.5126 0 13.9355 0.386286 13.9933 0.883431L14 1V15L11.5 13L9.5 15L7.5 13L5.5 15L3.5 13L1 15V1C1 0.487429 1.38629 0.0645306 1.88343 0.00673178L2 0H13Z" fill="#F9FAFB"/>
<path fill-rule="evenodd" clip-rule="evenodd" d="M13 0C13.5126 0 13.9355 0.386286 13.9933 0.883431L14 1V15L11.5 13L9.5 15L7.5 13L5.5 15L3.5 13L1 15V1C1 0.487429 1.38629 0.0645306 1.88343 0.00673178L2 0H13ZM13 1H2V12.919L2.8753 12.2191C3.24004 11.9273 3.75242 11.9297 4.11281 12.2097L4.20711 12.2929L5.5 13.585L6.79289 12.2929C7.15338 11.9324 7.72061 11.9047 8.1129 12.2097L8.20711 12.2929L9.5 13.585L10.7929 12.2929C11.1232 11.9626 11.6327 11.9084 12.0218 12.1468L12.1247 12.2191L13 12.92V1ZM11 5V3H3.99341V5H11ZM11.0061 6V7H3.99341V6H11.0061ZM11.0061 9V8H3.99341V9H11.0061Z" fill="#4B6C89"/>
</svg>
