<svg width="15" height="15" viewBox="0 0 15 15" fill="none" xmlns="http://www.w3.org/2000/svg">
<path fill-rule="evenodd" clip-rule="evenodd" d="M8.93777 1.15419e-05C9.203 4.15176e-06 9.45736 0.105362 9.64491 0.292905L13.7071 4.35511C13.8946 4.54264 14 4.797 14 5.06221V12.0002C14 12.5525 13.5523 13.0002 13 13.0002H4C3.44771 13.0002 3 12.5525 3 12.0002V1.00015C3 0.447875 3.4477 0.000164514 3.99997 0.000149126L8.93777 1.15419e-05Z" fill="#F6F7F9"/>
<path fill-rule="evenodd" clip-rule="evenodd" d="M8.93777 3.88709e-10C9.203 -7.38935e-06 9.45736 0.10535 9.64491 0.292893L13.7071 4.35509C13.8946 4.54263 14 4.79699 14 5.0622V12.0002C14 12.5525 13.5523 13.0002 13 13.0002H4C3.44772 13.0002 3 12.5525 3 12.0002V1.00014C3 0.447864 3.4477 0.000152973 3.99997 0.000137585L8.93777 3.88709e-10ZM4 0.999988V12H13V5.06199L8.938 0.999988H4ZM2 2.5C2 2.22386 1.77614 2 1.5 2C1.22386 2 1 2.22386 1 2.5V14.8911C1 14.9512 1.04876 15 1.10891 15H11.5C11.7761 15 12 14.7761 12 14.5C12 14.2239 11.7761 14 11.5 14H2V2.5Z" fill="#4B6C89"/>
</svg>
