<svg width="15" height="15" viewBox="0 0 15 15" fill="none" xmlns="http://www.w3.org/2000/svg">
<rect width="15" height="15" fill="#0371FF"/>
<path fill-rule="evenodd" clip-rule="evenodd" d="M9.64478 0.292905C9.45724 0.105366 9.20288 9.6385e-06 8.93766 1.52588e-05L1.99995 0.000162277C1.44768 0.00017398 0.999988 0.447881 0.999988 1.00015V14C0.999988 14.5523 1.4477 15 1.99998 15H12.9998C13.5521 15 13.9998 14.5523 13.9998 14V5.06216C13.9998 4.79694 13.8945 4.54259 13.7069 4.35506L9.64478 0.292905ZM6.99991 3.99996H3.99995V4.99995H6.99991V3.99996ZM3.99995 6.99992H10.9999V7.99991H3.99995V6.99992ZM10.9999 9.99988H3.99995V10.9999H10.9999V9.99988Z" fill="white"/>
</svg>
