<svg width="15" height="15" viewBox="0 0 15 15" fill="none" xmlns="http://www.w3.org/2000/svg">
<rect x="1" y="2" width="11" height="9" fill="#F6F7F9"/>
<path fill-rule="evenodd" clip-rule="evenodd" d="M1 1C0.447715 1 0 1.44771 0 2V11C0 11.5523 0.447715 12 1 12H12C12.5523 12 13 11.5523 13 11V2C13 1.44772 12.5523 1 12 1H1ZM12 2H1V11H12V2ZM14 3C14.5523 3 15 3.44772 15 4V13C15 13.5523 14.5523 14 14 14H3C2.44772 14 2 13.5523 2 13H14V3ZM10.8363 3.13003C10.632 2.94428 10.3158 2.95933 10.13 3.16366L5.482 8.775L3.85355 7.14645L3.78431 7.08859C3.58944 6.9536 3.32001 6.97288 3.14645 7.14645C2.95118 7.34171 2.95118 7.65829 3.14645 7.85355L5.14645 9.85355L5.2181 9.91308C5.41986 10.0512 5.69927 10.0241 5.86997 9.83634L10.87 3.83634L10.9245 3.76442C11.05 3.56335 11.018 3.29514 10.8363 3.13003Z" fill="#4B6C89"/>
</svg>
