<svg width="15" height="15" viewBox="0 0 15 15" fill="none" xmlns="http://www.w3.org/2000/svg">
<rect width="15" height="15" fill="#0371FF"/>
<path fill-rule="evenodd" clip-rule="evenodd" d="M5.5 1C7.433 1 9 2.567 9 4.5C9 5.80628 8.28439 7.40209 7.2238 8.29957C8.27921 8.65928 9.33515 9.35147 10.3912 10.374C10.7803 10.7507 11 11.2692 11 11.8108V12.5C11 13.3284 10.3284 14 9.5 14H1.5C0.671573 14 0 13.3284 0 12.5V11.806C8.04285e-06 11.2671 0.2175 10.751 0.60321 10.3746C1.6564 9.34689 2.71212 8.65277 3.77037 8.29223C2.71292 7.39609 2 5.80382 2 4.5C2 2.567 3.567 1 5.5 1Z" fill="white"/>
<path fill-rule="evenodd" clip-rule="evenodd" d="M10 5C10 6.16668 9.64037 7.24003 9.03757 8.09066C9.90768 8.5442 10.6857 9.0518 11.2259 9.42956C11.7242 9.77809 12 10.3541 12 10.9623V11H13C14.1046 11 15 10.1046 15 9V8.75352C15 8.26784 14.8255 7.79554 14.45 7.48752C13.9654 7.09004 13.1777 6.55652 12.1552 6.24829C12.6733 5.69863 13 4.89509 13 4C13 2.34315 11.8807 1 10.5 1C9.88527 1 9.32237 1.26624 8.88699 1.70788C9.58001 2.58739 10 3.7392 10 5Z" fill="white"/>
</svg>
