<svg width="15" height="15" viewBox="0 0 15 15" fill="none" xmlns="http://www.w3.org/2000/svg">
<rect width="15" height="15" fill="#0371FF"/>
<path fill-rule="evenodd" clip-rule="evenodd" d="M14 3.648L10.352 0H4C3.44772 0 3 0.447715 3 1V12C3 12.5523 3.44772 13 4 13H13C13.5523 13 14 12.5523 14 12V3.648ZM2 2.49982C2 2.22368 1.77614 1.99982 1.5 1.99982C1.22386 1.99982 1 2.22368 1 2.49982V14.8909C1 14.9511 1.04876 14.9998 1.10891 14.9998H11.5C11.7761 14.9998 12 14.776 12 14.4998C12 14.2237 11.7761 13.9998 11.5 13.9998H2V2.49982Z" fill="#FBFCFD"/>
</svg>
