<svg width="15" height="15" viewBox="0 0 15 15" fill="none" xmlns="http://www.w3.org/2000/svg">
<rect x="2" y="2" width="11" height="9" fill="#F6F7F9"/>
<path fill-rule="evenodd" clip-rule="evenodd" d="M1 0C0.447715 0 0 0.447715 0 1V13V14.3063C0 14.6476 0.334348 14.8886 0.658114 14.7806L2.65811 14.114C2.86228 14.0459 3 13.8548 3 13.6396V13H12V14.5C12 14.7761 12.2239 15 12.5 15H14.5C14.7761 15 15 14.7761 15 14.5V13V1C15 0.447715 14.5523 0 14 0H1ZM1 13.613V1H14V13.613L13 13.279V12H2V13.279L1 13.613ZM13 2H2V11H13V2ZM12 3H3V10H12V3ZM10 4H11V9H10V4ZM7 6.5C7 7.32843 6.32843 8 5.5 8C4.67157 8 4 7.32843 4 6.5C4 5.67157 4.67157 5 5.5 5C6.32843 5 7 5.67157 7 6.5Z" fill="#4B6C89"/>
</svg>
