<svg width="15" height="15" viewBox="0 0 15 15" fill="none" xmlns="http://www.w3.org/2000/svg">
<path fill-rule="evenodd" clip-rule="evenodd" d="M8.93767 8.77785e-06C9.20289 3.1575e-06 9.45725 0.105359 9.64479 0.292899L13.707 4.35506C13.8945 4.54259 13.9998 4.79694 13.9998 5.06216V14C13.9998 14.5523 13.5521 15 12.9999 15H1.99998C1.4477 15 0.999989 14.5523 0.999989 14V1.00015C0.999989 0.447875 1.44769 0.0001675 1.99996 0.000155796L8.93767 8.77785e-06Z" fill="#F6F7F9"/>
<path fill-rule="evenodd" clip-rule="evenodd" d="M8.93767 2.24838e-10C9.20289 -5.61988e-06 9.45725 0.10535 9.64479 0.29289L13.707 4.35505C13.8945 4.54258 13.9998 4.79693 13.9998 5.06215V14C13.9998 14.5523 13.5521 15 12.9999 15H1.99998C1.4477 15 0.999989 14.5523 0.999989 14V1.00014C0.999989 0.447866 1.44769 0.000158722 1.99996 0.000147019L8.93767 2.24838e-10ZM1.99998 0.99998V13.9998H12.9999V5.06193L8.9379 0.99998H1.99998ZM6.99992 3.99995H3.99995V4.99994H6.99992V3.99995ZM3.99995 6.99991H10.9999V7.9999H3.99995V6.99991ZM10.9999 9.99988H3.99995V10.9999H10.9999V9.99988Z" fill="#4B6C89"/>
</svg>
