<svg width="16" height="16" viewBox="0 0 16 16" fill="none" xmlns="http://www.w3.org/2000/svg">
<path fill-rule="evenodd" clip-rule="evenodd" d="M6.99995 1.0165C3.09096 1.27379 0 4.52596 0 8.50005C0 12.6422 3.35784 16 7.49995 16C11.4741 16 14.7263 12.909 14.9835 8.99995H13.981C13.7257 12.3562 10.9216 15 7.49995 15C3.91012 15 0.999993 12.0899 0.999993 8.50005C0.999993 5.07846 3.64375 2.27435 6.99995 2.01904V1.0165Z" fill="#4B6C89"/>
<path fill-rule="evenodd" clip-rule="evenodd" d="M8.49994 0C12.6421 0 15.9999 3.35784 15.9999 7.49995C15.9999 7.66816 15.9944 7.83508 15.9835 8.00054L7.99995 7.99995L8.00029 0.0163793C8.16544 0.00551691 8.33205 0 8.49994 0Z" fill="#DBE2E7"/>
<path fill-rule="evenodd" clip-rule="evenodd" d="M15.9999 7.49995C15.9999 3.35784 12.6421 0 8.49994 0C8.33205 0 8.16544 0.00551691 8.00029 0.0163793L7.99995 7.99995L15.9835 8.00054C15.9944 7.83508 15.9999 7.66816 15.9999 7.49995ZM8.99894 6.99995L8.99994 1.01899L9.19301 1.03651C12.2293 1.35833 14.6416 3.77064 14.9634 6.80688L14.9799 6.99995H8.99894Z" fill="#4B6C89"/>
</svg>
