<svg width="15" height="15" viewBox="0 0 15 15" fill="none" xmlns="http://www.w3.org/2000/svg">
<path fill-rule="evenodd" clip-rule="evenodd" d="M8.93767 8.77785e-06C9.20289 3.1575e-06 9.45725 0.105359 9.64479 0.292899L13.707 4.35506C13.8945 4.54259 13.9998 4.79694 13.9998 5.06216V14C13.9998 14.5523 13.5521 15 12.9999 15H1.99998C1.4477 15 0.999989 14.5523 0.999989 14V1.00015C0.999989 0.447875 1.44769 0.0001675 1.99996 0.000155796L8.93767 8.77785e-06Z" fill="#F9FAFB"/>
<path fill-rule="evenodd" clip-rule="evenodd" d="M8.93767 2.24838e-10C9.20289 -5.61988e-06 9.45725 0.10535 9.64479 0.29289L13.707 4.35505C13.8945 4.54258 13.9998 4.79693 13.9998 5.06215V14C13.9998 14.5523 13.5521 15 12.9999 15H1.99998C1.4477 15 0.999989 14.5523 0.999989 14V1.00014C0.999989 0.447866 1.44769 0.000158722 1.99996 0.000147019L8.93767 2.24838e-10ZM1.99998 0.99998V13.9998H12.9999L12.9999 8.9999H6.73575L8.83624 11.1299C9.04056 11.3157 9.05562 11.6319 8.86987 11.8362C8.70476 12.0178 8.43656 12.0499 8.23549 11.9243L8.16357 11.8698L5.16361 8.86987C4.97584 8.69918 4.94878 8.41977 5.08686 8.21801L5.14639 8.14636L8.14636 5.14639C8.34162 4.95113 8.65819 4.95113 8.85345 5.14639C9.02702 5.31995 9.0463 5.58938 8.91131 5.78424L8.85345 5.85349L6.70695 7.99991H12.9999L12.9999 5.06193L8.9379 0.99998H1.99998Z" fill="#4B6C89"/>
</svg>
