<svg width="119" height="44" viewBox="0 0 119 44" fill="none" xmlns="http://www.w3.org/2000/svg">
<rect width="119" height="42" fill="#F9FAFB"/>
<path d="M25.9526 21.7056H27.1016V22.9434H25.9526V25H24.4102V22.9434H20.4175L20.373 22.0039L24.3594 15.7578H25.9526V21.7056ZM21.9917 21.7056H24.4102V17.8462L24.2959 18.0493L21.9917 21.7056ZM33.3413 21.7056H34.4902V22.9434H33.3413V25H31.7988V22.9434H27.8062L27.7617 22.0039L31.748 15.7578H33.3413V21.7056ZM29.3804 21.7056H31.7988V17.8462L31.6846 18.0493L29.3804 21.7056ZM38.6035 21.6929H35.271V20.4487H38.6035V21.6929ZM45.8906 21.6357C45.8906 22.6979 45.6494 23.5464 45.167 24.1812C44.6846 24.8117 44.0371 25.127 43.2246 25.127C42.4714 25.127 41.8683 24.8794 41.4155 24.3843V27.6406H39.873V18.1318H41.2949L41.3584 18.8301C41.8112 18.2799 42.4269 18.0049 43.2056 18.0049C44.0435 18.0049 44.6994 18.318 45.1733 18.9443C45.6515 19.5664 45.8906 20.4318 45.8906 21.5405V21.6357ZM44.3545 21.5024C44.3545 20.8169 44.217 20.2731 43.9419 19.8711C43.6711 19.4691 43.2817 19.2681 42.7739 19.2681C42.1434 19.2681 41.6906 19.5283 41.4155 20.0488V23.0957C41.6948 23.6289 42.1519 23.8955 42.7866 23.8955C43.2775 23.8955 43.6605 23.6987 43.9355 23.3052C44.2148 22.9074 44.3545 22.3065 44.3545 21.5024ZM49.5659 20.3916L50.8735 18.1318H52.5874L50.4863 21.5151L52.6572 25H50.9561L49.585 22.6514L48.2202 25H46.5063L48.6772 21.5151L46.5825 18.1318H48.2837L49.5659 20.3916ZM64.356 25H62.75L58.6304 18.4429V25H57.0244V15.7578H58.6304L62.7627 22.3403V15.7578H64.356V25ZM65.8159 21.5024C65.8159 20.8296 65.9492 20.2244 66.2158 19.687C66.4824 19.1453 66.8569 18.7306 67.3394 18.4429C67.8218 18.1509 68.3761 18.0049 69.0024 18.0049C69.9292 18.0049 70.6803 18.3032 71.2559 18.8999C71.8356 19.4966 72.1488 20.2879 72.1953 21.2739L72.2017 21.6357C72.2017 22.3128 72.0705 22.918 71.8081 23.4512C71.55 23.9844 71.1776 24.397 70.6909 24.689C70.2085 24.981 69.6499 25.127 69.0151 25.127C68.0461 25.127 67.2695 24.8053 66.6855 24.1621C66.1058 23.5146 65.8159 22.6535 65.8159 21.5786V21.5024ZM67.3584 21.6357C67.3584 22.3424 67.5044 22.8968 67.7964 23.2988C68.0884 23.6966 68.4946 23.8955 69.0151 23.8955C69.5356 23.8955 69.9398 23.6924 70.2275 23.2861C70.5195 22.8799 70.6655 22.2853 70.6655 21.5024C70.6655 20.8084 70.5153 20.2583 70.2148 19.8521C69.9186 19.4458 69.5145 19.2427 69.0024 19.2427C68.4989 19.2427 68.099 19.4437 67.8027 19.8457C67.5065 20.2435 67.3584 20.8402 67.3584 21.6357ZM77.1021 19.541C76.8989 19.5072 76.6895 19.4902 76.4736 19.4902C75.7669 19.4902 75.2909 19.7611 75.0454 20.3027V25H73.5029V18.1318H74.9756L75.0137 18.8999C75.3861 18.3032 75.9023 18.0049 76.5625 18.0049C76.7826 18.0049 76.9645 18.0345 77.1084 18.0938L77.1021 19.541ZM79.5269 18.1318L79.5713 18.8491C80.0537 18.2863 80.7139 18.0049 81.5518 18.0049C82.4701 18.0049 83.0985 18.3561 83.437 19.0586C83.9364 18.3561 84.6388 18.0049 85.5444 18.0049C86.3019 18.0049 86.8647 18.2144 87.2329 18.6333C87.6053 19.0522 87.7957 19.6701 87.8042 20.4868V25H86.2617V20.5312C86.2617 20.0954 86.1665 19.7759 85.9761 19.5728C85.7856 19.3696 85.4704 19.2681 85.0303 19.2681C84.679 19.2681 84.3913 19.3633 84.167 19.5537C83.9469 19.7399 83.7925 19.9854 83.7036 20.29L83.71 25H82.1675V20.4805C82.1463 19.6722 81.7337 19.2681 80.9297 19.2681C80.3118 19.2681 79.8739 19.5199 79.6157 20.0234V25H78.0732V18.1318H79.5269ZM93.4917 25C93.424 24.8688 93.3647 24.6551 93.314 24.3589C92.8231 24.8709 92.2222 25.127 91.5112 25.127C90.8215 25.127 90.2586 24.9302 89.8228 24.5366C89.3869 24.1431 89.1689 23.6564 89.1689 23.0767C89.1689 22.3446 89.4398 21.7839 89.9814 21.3945C90.5273 21.001 91.306 20.8042 92.3174 20.8042H93.2632V20.3535C93.2632 19.998 93.1637 19.7145 92.9648 19.5029C92.766 19.2871 92.4634 19.1792 92.0571 19.1792C91.7059 19.1792 91.4181 19.2681 91.1938 19.4458C90.9696 19.6193 90.8574 19.8415 90.8574 20.1123H89.3149C89.3149 19.7357 89.4398 19.3844 89.6895 19.0586C89.9391 18.7285 90.2777 18.4704 90.7051 18.2842C91.1367 18.098 91.617 18.0049 92.146 18.0049C92.95 18.0049 93.5911 18.208 94.0693 18.6143C94.5475 19.0163 94.793 19.5833 94.8057 20.3154V23.4131C94.8057 24.0309 94.8924 24.5239 95.0659 24.8921V25H93.4917ZM91.7969 23.8892C92.1016 23.8892 92.3872 23.8151 92.6538 23.667C92.9246 23.5189 93.1278 23.32 93.2632 23.0703V21.7754H92.4316C91.8604 21.7754 91.4308 21.8748 91.1431 22.0737C90.8553 22.2726 90.7114 22.554 90.7114 22.918C90.7114 23.2142 90.8088 23.4512 91.0034 23.6289C91.2023 23.8024 91.4668 23.8892 91.7969 23.8892ZM98.062 25H96.5195V15.25H98.062V25Z" fill="#4B6C89"/>
<path fill-rule="evenodd" clip-rule="evenodd" d="M0 42H119V44H0V42Z" fill="#93A7B8"/>
</svg>
