<svg width="127" height="44" viewBox="0 0 127 44" fill="none" xmlns="http://www.w3.org/2000/svg">
<rect width="127" height="42" fill="#F9FAFB"/>
<path d="M26.1187 21.7056H27.2676V22.9434H26.1187V25H24.5762V22.9434H20.5835L20.5391 22.0039L24.5254 15.7578H26.1187V21.7056ZM22.1577 21.7056H24.5762V17.8462L24.4619 18.0493L22.1577 21.7056ZM33.5073 21.7056H34.6562V22.9434H33.5073V25H31.9648V22.9434H27.9722L27.9277 22.0039L31.9141 15.7578H33.5073V21.7056ZM29.5464 21.7056H31.9648V17.8462L31.8506 18.0493L29.5464 21.7056ZM38.7695 21.6929H35.437V20.4487H38.7695V21.6929ZM46.0566 21.6357C46.0566 22.6979 45.8154 23.5464 45.333 24.1812C44.8506 24.8117 44.2031 25.127 43.3906 25.127C42.6374 25.127 42.0343 24.8794 41.5815 24.3843V27.6406H40.0391V18.1318H41.4609L41.5244 18.8301C41.9772 18.2799 42.5929 18.0049 43.3716 18.0049C44.2095 18.0049 44.8654 18.318 45.3394 18.9443C45.8175 19.5664 46.0566 20.4318 46.0566 21.5405V21.6357ZM44.5205 21.5024C44.5205 20.8169 44.383 20.2731 44.1079 19.8711C43.8371 19.4691 43.4478 19.2681 42.9399 19.2681C42.3094 19.2681 41.8566 19.5283 41.5815 20.0488V23.0957C41.8608 23.6289 42.3179 23.8955 42.9526 23.8955C43.4435 23.8955 43.8265 23.6987 44.1016 23.3052C44.3809 22.9074 44.5205 22.3065 44.5205 21.5024ZM49.7319 20.3916L51.0396 18.1318H52.7534L50.6523 21.5151L52.8232 25H51.1221L49.751 22.6514L48.3862 25H46.6724L48.8433 21.5151L46.7485 18.1318H48.4497L49.7319 20.3916ZM57.1904 25V15.7578H59.9199C60.7367 15.7578 61.4603 15.9398 62.0908 16.3037C62.7256 16.6676 63.2165 17.1839 63.5635 17.8525C63.9105 18.5212 64.084 19.2871 64.084 20.1504V20.6138C64.084 21.4897 63.9084 22.2599 63.5571 22.9243C63.2101 23.5887 62.7129 24.1007 62.0654 24.4604C61.4222 24.8201 60.6838 25 59.8501 25H57.1904ZM58.7964 17.0527V23.7178H59.8438C60.6859 23.7178 61.3312 23.4554 61.7798 22.9307C62.2326 22.4017 62.4632 21.6442 62.4717 20.6582V20.144C62.4717 19.1411 62.2537 18.3752 61.8179 17.8462C61.382 17.3172 60.7493 17.0527 59.9199 17.0527H58.7964ZM67.1753 25H65.6328V18.1318H67.1753V25ZM65.5376 16.3481C65.5376 16.1112 65.6117 15.9144 65.7598 15.7578C65.9121 15.6012 66.1279 15.5229 66.4072 15.5229C66.6865 15.5229 66.9023 15.6012 67.0547 15.7578C67.207 15.9144 67.2832 16.1112 67.2832 16.3481C67.2832 16.5809 67.207 16.7756 67.0547 16.9321C66.9023 17.0845 66.6865 17.1606 66.4072 17.1606C66.1279 17.1606 65.9121 17.0845 65.7598 16.9321C65.6117 16.7756 65.5376 16.5809 65.5376 16.3481ZM72.7104 23.1338C72.7104 22.8587 72.5962 22.6493 72.3677 22.5054C72.1434 22.3615 71.7689 22.2345 71.2441 22.1245C70.7194 22.0145 70.2814 21.8748 69.9302 21.7056C69.16 21.3332 68.7749 20.7936 68.7749 20.0869C68.7749 19.4945 69.0246 18.9993 69.5239 18.6016C70.0233 18.2038 70.658 18.0049 71.4282 18.0049C72.2492 18.0049 72.9115 18.208 73.415 18.6143C73.9229 19.0205 74.1768 19.5474 74.1768 20.1948H72.6343C72.6343 19.8986 72.5243 19.6532 72.3042 19.4585C72.0841 19.2596 71.7922 19.1602 71.4282 19.1602C71.0897 19.1602 70.8125 19.2384 70.5967 19.395C70.3851 19.5516 70.2793 19.7611 70.2793 20.0234C70.2793 20.2604 70.3787 20.4445 70.5776 20.5757C70.7765 20.7069 71.1785 20.8402 71.7837 20.9756C72.3888 21.1068 72.8628 21.2655 73.2056 21.4517C73.5526 21.6336 73.8086 21.8537 73.9736 22.1118C74.1429 22.37 74.2275 22.6831 74.2275 23.0513C74.2275 23.6691 73.9715 24.1706 73.4595 24.5557C72.9474 24.9365 72.2767 25.127 71.4473 25.127C70.8844 25.127 70.383 25.0254 69.9429 24.8223C69.5028 24.6191 69.16 24.3398 68.9146 23.9844C68.6691 23.6289 68.5464 23.2459 68.5464 22.8354H70.0444C70.0656 23.1994 70.2031 23.4808 70.457 23.6797C70.7109 23.8743 71.0474 23.9717 71.4663 23.9717C71.8726 23.9717 72.1815 23.8955 72.3931 23.7432C72.6047 23.5866 72.7104 23.3835 72.7104 23.1338ZM79.6802 25C79.6125 24.8688 79.5532 24.6551 79.5024 24.3589C79.0116 24.8709 78.4106 25.127 77.6997 25.127C77.0099 25.127 76.4471 24.9302 76.0112 24.5366C75.5754 24.1431 75.3574 23.6564 75.3574 23.0767C75.3574 22.3446 75.6283 21.7839 76.1699 21.3945C76.7158 21.001 77.4945 20.8042 78.5059 20.8042H79.4517V20.3535C79.4517 19.998 79.3522 19.7145 79.1533 19.5029C78.9544 19.2871 78.6519 19.1792 78.2456 19.1792C77.8944 19.1792 77.6066 19.2681 77.3823 19.4458C77.158 19.6193 77.0459 19.8415 77.0459 20.1123H75.5034C75.5034 19.7357 75.6283 19.3844 75.8779 19.0586C76.1276 18.7285 76.4661 18.4704 76.8936 18.2842C77.3252 18.098 77.8055 18.0049 78.3345 18.0049C79.1385 18.0049 79.7796 18.208 80.2578 18.6143C80.736 19.0163 80.9814 19.5833 80.9941 20.3154V23.4131C80.9941 24.0309 81.0809 24.5239 81.2544 24.8921V25H79.6802ZM77.9854 23.8892C78.29 23.8892 78.5757 23.8151 78.8423 23.667C79.1131 23.5189 79.3162 23.32 79.4517 23.0703V21.7754H78.6201C78.0488 21.7754 77.6193 21.8748 77.3315 22.0737C77.0438 22.2726 76.8999 22.554 76.8999 22.918C76.8999 23.2142 76.9972 23.4512 77.1919 23.6289C77.3908 23.8024 77.6553 23.8892 77.9854 23.8892ZM88.6367 21.6357C88.6367 22.7021 88.3976 23.5506 87.9194 24.1812C87.4455 24.8117 86.7917 25.127 85.958 25.127C85.154 25.127 84.5277 24.8371 84.0791 24.2573L84.0029 25H82.6064V15.25H84.1489V18.792C84.5933 18.2673 85.1921 18.0049 85.9453 18.0049C86.7832 18.0049 87.4412 18.3159 87.9194 18.938C88.3976 19.5601 88.6367 20.4297 88.6367 21.5469V21.6357ZM87.0942 21.5024C87.0942 20.7576 86.9631 20.1991 86.7007 19.8267C86.4383 19.4543 86.0575 19.2681 85.5581 19.2681C84.8895 19.2681 84.4198 19.5601 84.1489 20.144V22.9751C84.424 23.5718 84.8979 23.8701 85.5708 23.8701C86.0532 23.8701 86.4256 23.6903 86.688 23.3306C86.9504 22.9709 87.0858 22.4271 87.0942 21.6992V21.5024ZM91.5757 25H90.0332V15.25H91.5757V25ZM96.2856 25.127C95.3081 25.127 94.5146 24.8201 93.9053 24.2065C93.3001 23.5887 92.9976 22.7677 92.9976 21.7437V21.5532C92.9976 20.8677 93.1287 20.2562 93.3911 19.7188C93.6577 19.1771 94.0301 18.756 94.5083 18.4556C94.9865 18.1551 95.5197 18.0049 96.1079 18.0049C97.0431 18.0049 97.7646 18.3032 98.2725 18.8999C98.7845 19.4966 99.0405 20.3408 99.0405 21.4326V22.0547H94.5527C94.5993 22.6217 94.7876 23.0703 95.1177 23.4004C95.452 23.7305 95.8709 23.8955 96.3745 23.8955C97.0812 23.8955 97.6567 23.6099 98.1011 23.0386L98.9326 23.832C98.6576 24.2425 98.2894 24.562 97.8281 24.7905C97.3711 25.0148 96.8569 25.127 96.2856 25.127ZM96.1016 19.2427C95.6784 19.2427 95.3356 19.3908 95.0732 19.687C94.8151 19.9832 94.6501 20.3958 94.5781 20.9248H97.5171V20.8105C97.4832 20.2943 97.3457 19.9049 97.1045 19.6426C96.8633 19.376 96.529 19.2427 96.1016 19.2427ZM99.9546 21.5151C99.9546 20.4572 100.2 19.6087 100.691 18.9697C101.182 18.3265 101.84 18.0049 102.665 18.0049C103.393 18.0049 103.981 18.2588 104.43 18.7666V15.25H105.972V25H104.576L104.5 24.2891C104.038 24.8477 103.423 25.127 102.652 25.127C101.848 25.127 101.197 24.8032 100.697 24.1558C100.202 23.5083 99.9546 22.6281 99.9546 21.5151ZM101.497 21.6484C101.497 22.3467 101.63 22.8926 101.897 23.2861C102.168 23.6755 102.551 23.8701 103.046 23.8701C103.676 23.8701 104.138 23.5887 104.43 23.0259V20.0933C104.146 19.5431 103.689 19.2681 103.059 19.2681C102.559 19.2681 102.174 19.467 101.903 19.8647C101.632 20.2583 101.497 20.8529 101.497 21.6484Z" fill="#B7C4D0"/>
<path fill-rule="evenodd" clip-rule="evenodd" d="M0 42H127V44H0V42Z" fill="#B7C4D0"/>
</svg>
