<svg width="88" height="28" viewBox="0 0 88 28" fill="none" xmlns="http://www.w3.org/2000/svg">
<rect width="88" height="28" fill="url(#paint0_linear)"/>
<path d="M18.1763 15.5879H14.3042L13.4346 18H12.1777L15.707 8.75781H16.7734L20.3091 18H19.0586L18.1763 15.5879ZM14.6724 14.585H17.8145L16.2402 10.2622L14.6724 14.585ZM24.124 17.1685C24.543 17.1685 24.909 17.0415 25.2222 16.7876C25.5353 16.5337 25.7088 16.2163 25.7427 15.8354H26.8535C26.8324 16.229 26.6969 16.6035 26.4473 16.959C26.1976 17.3145 25.8633 17.598 25.4443 17.8096C25.0296 18.0212 24.5895 18.127 24.124 18.127C23.1888 18.127 22.444 17.8159 21.8896 17.1938C21.3395 16.5675 21.0645 15.7127 21.0645 14.6294V14.4326C21.0645 13.764 21.1872 13.1694 21.4326 12.6489C21.6781 12.1284 22.0293 11.7243 22.4863 11.4365C22.9476 11.1488 23.4914 11.0049 24.1177 11.0049C24.8879 11.0049 25.5269 11.2355 26.0347 11.6968C26.5467 12.158 26.8197 12.7568 26.8535 13.4932H25.7427C25.7088 13.0488 25.5396 12.6849 25.2349 12.4014C24.9344 12.1136 24.562 11.9697 24.1177 11.9697C23.521 11.9697 23.0576 12.1855 22.7275 12.6172C22.4017 13.0446 22.2388 13.6646 22.2388 14.4771V14.6992C22.2388 15.4906 22.4017 16.0999 22.7275 16.5273C23.0534 16.9548 23.5189 17.1685 24.124 17.1685ZM29.7671 9.46875V11.1318H31.0493V12.0396H29.7671V16.2988C29.7671 16.5739 29.8242 16.7812 29.9385 16.9209C30.0527 17.0563 30.2474 17.124 30.5225 17.124C30.6579 17.124 30.8441 17.0986 31.0811 17.0479V18C30.7721 18.0846 30.4717 18.127 30.1797 18.127C29.6549 18.127 29.2593 17.9683 28.9927 17.6509C28.7261 17.3335 28.5928 16.8828 28.5928 16.2988V12.0396H27.3423V11.1318H28.5928V9.46875H29.7671ZM33.7026 18H32.5283V11.1318H33.7026V18ZM32.4331 9.31006C32.4331 9.11963 32.4902 8.95882 32.6045 8.82764C32.723 8.69645 32.8965 8.63086 33.125 8.63086C33.3535 8.63086 33.527 8.69645 33.6455 8.82764C33.764 8.95882 33.8232 9.11963 33.8232 9.31006C33.8232 9.50049 33.764 9.65918 33.6455 9.78613C33.527 9.91309 33.3535 9.97656 33.125 9.97656C32.8965 9.97656 32.723 9.91309 32.6045 9.78613C32.4902 9.65918 32.4331 9.50049 32.4331 9.31006ZM37.854 16.4067L39.5552 11.1318H40.7549L38.292 18H37.397L34.9087 11.1318H36.1084L37.854 16.4067ZM44.646 18.127C43.715 18.127 42.9575 17.8223 42.3735 17.2129C41.7896 16.5993 41.4976 15.7804 41.4976 14.7563V14.5405C41.4976 13.8592 41.6266 13.252 41.8848 12.7188C42.1471 12.1813 42.5111 11.7624 42.9766 11.4619C43.4463 11.1572 43.9541 11.0049 44.5 11.0049C45.3929 11.0049 46.0869 11.299 46.582 11.8872C47.0771 12.4754 47.3247 13.3175 47.3247 14.4136V14.9023H42.6719C42.6888 15.5794 42.8856 16.1274 43.2622 16.5464C43.6431 16.9611 44.1255 17.1685 44.7095 17.1685C45.1242 17.1685 45.4754 17.0838 45.7632 16.9146C46.0509 16.7453 46.3027 16.521 46.5186 16.2417L47.2358 16.8003C46.6603 17.6847 45.797 18.127 44.646 18.127ZM44.5 11.9697C44.026 11.9697 43.6283 12.1432 43.3066 12.4902C42.985 12.833 42.7861 13.3154 42.71 13.9375H46.1504V13.8486C46.1165 13.252 45.9557 12.7907 45.668 12.4648C45.3802 12.1348 44.9909 11.9697 44.5 11.9697Z" fill="#4B6C89"/>
<defs>
<linearGradient id="paint0_linear" x1="0" y1="14" x2="88" y2="14" gradientUnits="userSpaceOnUse">
<stop stop-color="#F7FAFF"/>
<stop offset="1" stop-color="#F7FAFF"/>
</linearGradient>
</defs>
</svg>
