<svg width="95" height="28" viewBox="0 0 95 28" fill="none" xmlns="http://www.w3.org/2000/svg">
<rect width="95" height="28" fill="#FBFCFD"/>
<path d="M20.1758 18H18.9507L14.2979 10.8779V18H13.0728V8.75781H14.2979L18.9634 15.9116V8.75781H20.1758V18ZM21.8452 14.5024C21.8452 13.8296 21.9764 13.2244 22.2388 12.687C22.5054 12.1496 22.8735 11.7349 23.3433 11.4429C23.8172 11.1509 24.3568 11.0049 24.9619 11.0049C25.8971 11.0049 26.6525 11.3286 27.228 11.9761C27.8078 12.6235 28.0977 13.4847 28.0977 14.5596V14.6421C28.0977 15.3107 27.9686 15.9116 27.7104 16.4448C27.4565 16.9738 27.0905 17.3864 26.6123 17.6826C26.1383 17.9788 25.5924 18.127 24.9746 18.127C24.0436 18.127 23.2882 17.8032 22.7085 17.1558C22.133 16.5083 21.8452 15.6514 21.8452 14.585V14.5024ZM23.0259 14.6421C23.0259 15.4038 23.2015 16.0153 23.5527 16.4766C23.9082 16.9378 24.3822 17.1685 24.9746 17.1685C25.5713 17.1685 26.0452 16.9357 26.3965 16.4702C26.7477 16.0005 26.9233 15.3446 26.9233 14.5024C26.9233 13.7492 26.7435 13.1398 26.3838 12.6743C26.0283 12.2046 25.5544 11.9697 24.9619 11.9697C24.3822 11.9697 23.9146 12.2004 23.5591 12.6616C23.2036 13.1229 23.0259 13.783 23.0259 14.6421ZM32.8901 12.1855C32.7124 12.1559 32.5199 12.1411 32.3125 12.1411C31.5423 12.1411 31.0197 12.4691 30.7446 13.125V18H29.5703V11.1318H30.7129L30.7319 11.9253C31.117 11.3117 31.6629 11.0049 32.3696 11.0049C32.5981 11.0049 32.7716 11.0345 32.8901 11.0938V12.1855ZM35.0801 11.1318L35.1118 11.8936C35.6154 11.3011 36.2946 11.0049 37.1494 11.0049C38.11 11.0049 38.7638 11.373 39.1108 12.1094C39.3394 11.7793 39.6356 11.5127 39.9995 11.3096C40.3677 11.1064 40.8014 11.0049 41.3008 11.0049C42.8073 11.0049 43.5732 11.8026 43.5986 13.3979V18H42.4243V13.4678C42.4243 12.9769 42.3122 12.6108 42.0879 12.3696C41.8636 12.1242 41.487 12.0015 40.958 12.0015C40.5221 12.0015 40.1603 12.1326 39.8726 12.395C39.5848 12.6532 39.4176 13.0023 39.3711 13.4424V18H38.1904V13.4995C38.1904 12.5008 37.7017 12.0015 36.7241 12.0015C35.9539 12.0015 35.4271 12.3294 35.1436 12.9854V18H33.9692V11.1318H35.0801ZM49.6162 18C49.5485 17.8646 49.4935 17.6234 49.4512 17.2764C48.9053 17.8434 48.2536 18.127 47.4961 18.127C46.819 18.127 46.2625 17.9365 45.8267 17.5557C45.395 17.1706 45.1792 16.6839 45.1792 16.0957C45.1792 15.3805 45.45 14.8262 45.9917 14.4326C46.5376 14.0348 47.3035 13.8359 48.2896 13.8359H49.4321V13.2964C49.4321 12.8859 49.3094 12.5601 49.064 12.3188C48.8185 12.0734 48.4567 11.9507 47.9785 11.9507C47.5596 11.9507 47.2083 12.0565 46.9248 12.2681C46.6413 12.4797 46.4995 12.7357 46.4995 13.0361H45.3188C45.3188 12.6934 45.4395 12.3633 45.6807 12.0459C45.9261 11.7243 46.2562 11.4704 46.6709 11.2842C47.0898 11.098 47.549 11.0049 48.0483 11.0049C48.8397 11.0049 49.4596 11.2038 49.9082 11.6016C50.3568 11.9951 50.5895 12.5389 50.6064 13.2329V16.394C50.6064 17.0246 50.6868 17.526 50.8477 17.8984V18H49.6162ZM47.6675 17.105C48.0356 17.105 48.3848 17.0098 48.7148 16.8193C49.0449 16.6289 49.284 16.3813 49.4321 16.0767V14.6675H48.5117C47.0729 14.6675 46.3535 15.0885 46.3535 15.9307C46.3535 16.2988 46.4762 16.5866 46.7217 16.7939C46.9671 17.0013 47.2824 17.105 47.6675 17.105ZM53.7231 18H52.5488V8.25H53.7231V18Z" fill="#4B6C89"/>
</svg>
