<svg width="14" height="14" viewBox="0 0 14 14" fill="none" xmlns="http://www.w3.org/2000/svg">
<path fill-rule="evenodd" clip-rule="evenodd" d="M14 7C14 10.866 10.866 14 7 14C3.13401 14 0 10.866 0 7C0 3.13401 3.13401 0 7 0C10.866 0 14 3.13401 14 7ZM13 7C13 10.3137 10.3137 13 7 13C3.68629 13 1 10.3137 1 7C1 3.68629 3.68629 1 7 1C10.3137 1 13 3.68629 13 7ZM8.3 4.30085C8.7 3.89972 9.3 3.89972 9.7 4.30085C10.1 4.70197 10.1 5.30366 9.7 5.70479L8.4 7.02254L9.7 8.34028C10.1 8.74141 10.1 9.3431 9.7 9.74423C9.5 9.94479 9.2 10.0451 9 10.0451C8.8 10.0451 8.5 9.94479 8.3 9.74423L7 8.42648L5.7 9.74423C5.5 9.94479 5.3 10.0451 5 10.0451C4.7 10.0451 4.5 9.94479 4.3 9.74423C3.9 9.3431 3.9 8.74141 4.3 8.34028L5.6 7.02254L4.3 5.70479C3.9 5.30366 3.9 4.70197 4.3 4.30085C4.7 3.89972 5.3 3.89972 5.7 4.30085L7 5.61859L8.3 4.30085Z" fill="#4B6C89"/>
</svg>
