<svg width="14" height="14" viewBox="0 0 14 14" fill="none" xmlns="http://www.w3.org/2000/svg">
<path fill-rule="evenodd" clip-rule="evenodd" d="M14 7C14 10.866 10.866 14 7 14C3.13401 14 -2.73984e-07 10.866 -6.11959e-07 7C3.73896e-09 3.13401 3.13401 -3.73909e-09 7 6.11959e-07C10.866 2.73983e-07 14 3.13401 14 7ZM13 7C13 10.3137 10.3137 13 7 13C3.68629 13 1 10.3137 0.999999 7C1 3.68629 3.68629 1 7 1C10.3137 1 13 3.68629 13 7ZM6 4C6 3.44772 6.44771 3 7 3C7.55228 3 8 3.44771 8 4L8 7.60587L9.30529 6.30479C9.69767 5.92647 10.3214 5.93188 10.7071 6.31695C11.0928 6.70201 11.0983 7.32464 10.7193 7.71635L7.7193 10.7077C7.3288 11.0974 6.6958 11.0974 6.3053 10.7077L3.30531 7.71635C3.04536 7.4657 2.9411 7.09454 3.03262 6.74552C3.12413 6.39649 3.39717 6.12392 3.7468 6.03256C4.09643 5.9412 4.46823 6.04528 4.71931 6.30479L6 7.58134L6 4Z" fill="#4B6C89"/>
</svg>
