<svg width="200" height="24" viewBox="0 0 200 24" fill="none" xmlns="http://www.w3.org/2000/svg">
<path d="M0 4C0 1.79086 1.79086 0 4 0H196C198.209 0 200 1.79086 200 4V20C200 22.2091 198.209 24 196 24H4C1.79086 24 0 22.2091 0 20V4Z" fill="white"/>
<path d="M17.8125 12.5566H14.1152V15.5801H18.4102V16.5H12.9902V7.96875H18.3516V8.89453H14.1152V11.6367H17.8125V12.5566ZM22.7051 11.1328C22.541 11.1055 22.3633 11.0918 22.1719 11.0918C21.4609 11.0918 20.9785 11.3945 20.7246 12V16.5H19.6406V10.1602H20.6953L20.7129 10.8926C21.0684 10.3262 21.5723 10.043 22.2246 10.043C22.4355 10.043 22.5957 10.0703 22.7051 10.125V11.1328ZM23.3027 13.2715C23.3027 12.6504 23.4238 12.0918 23.666 11.5957C23.9121 11.0996 24.252 10.7168 24.6855 10.4473C25.123 10.1777 25.6211 10.043 26.1797 10.043C27.043 10.043 27.7402 10.3418 28.2715 10.9395C28.8066 11.5371 29.0742 12.332 29.0742 13.3242V13.4004C29.0742 14.0176 28.9551 14.5723 28.7168 15.0645C28.4824 15.5527 28.1445 15.9336 27.7031 16.207C27.2656 16.4805 26.7617 16.6172 26.1914 16.6172C25.332 16.6172 24.6348 16.3184 24.0996 15.7207C23.5684 15.123 23.3027 14.332 23.3027 13.3477V13.2715ZM24.3926 13.4004C24.3926 14.1035 24.5547 14.668 24.8789 15.0938C25.207 15.5195 25.6445 15.7324 26.1914 15.7324C26.7422 15.7324 27.1797 15.5176 27.5039 15.0879C27.8281 14.6543 27.9902 14.0488 27.9902 13.2715C27.9902 12.5762 27.8242 12.0137 27.4922 11.584C27.1641 11.1504 26.7266 10.9336 26.1797 10.9336C25.6445 10.9336 25.2129 11.1465 24.8848 11.5723C24.5566 11.998 24.3926 12.6074 24.3926 13.4004ZM33.498 11.1328C33.334 11.1055 33.1562 11.0918 32.9648 11.0918C32.2539 11.0918 31.7715 11.3945 31.5176 12V16.5H30.4336V10.1602H31.4883L31.5059 10.8926C31.8613 10.3262 32.3652 10.043 33.0176 10.043C33.2285 10.043 33.3887 10.0703 33.498 10.125V11.1328ZM37.5645 11.1328C37.4004 11.1055 37.2227 11.0918 37.0312 11.0918C36.3203 11.0918 35.8379 11.3945 35.584 12V16.5H34.5V10.1602H35.5547L35.5723 10.8926C35.9277 10.3262 36.4316 10.043 37.084 10.043C37.2949 10.043 37.4551 10.0703 37.5645 10.125V11.1328Z" fill="#404040"/>
<path d="M4 1H196V-1H4V1ZM199 4V20H201V4H199ZM196 23H4V25H196V23ZM1 20V4H-1V20H1ZM4 23C2.34314 23 1 21.6569 1 20H-1C-1 22.7614 1.23857 25 4 25V23ZM199 20C199 21.6569 197.657 23 196 23V25C198.761 25 201 22.7614 201 20H199ZM196 1C197.657 1 199 2.34314 199 4H201C201 1.23858 198.761 -1 196 -1V1ZM4 -1C1.23858 -1 -1 1.23858 -1 4H1C1 2.34315 2.34315 1 4 1V-1Z" fill="#DB3535"/>
</svg>
