<svg width="200" height="24" viewBox="0 0 200 24" fill="none" xmlns="http://www.w3.org/2000/svg">
<path d="M0 4C0 1.79086 1.79086 0 4 0H196C198.209 0 200 1.79086 200 4V20C200 22.2091 198.209 24 196 24H4C1.79086 24 0 22.2091 0 20V4Z" fill="white"/>
<path d="M19.5469 16H18.416V12.0566H14.1152V16H12.9902V7.46875H14.1152V11.1367H18.416V7.46875H19.5469V16ZM21.0879 12.7715C21.0879 12.1504 21.209 11.5918 21.4512 11.0957C21.6973 10.5996 22.0371 10.2168 22.4707 9.94727C22.9082 9.67773 23.4062 9.54297 23.9648 9.54297C24.8281 9.54297 25.5254 9.8418 26.0566 10.4395C26.5918 11.0371 26.8594 11.832 26.8594 12.8242V12.9004C26.8594 13.5176 26.7402 14.0723 26.502 14.5645C26.2676 15.0527 25.9297 15.4336 25.4883 15.707C25.0508 15.9805 24.5469 16.1172 23.9766 16.1172C23.1172 16.1172 22.4199 15.8184 21.8848 15.2207C21.3535 14.623 21.0879 13.832 21.0879 12.8477V12.7715ZM22.1777 12.9004C22.1777 13.6035 22.3398 14.168 22.6641 14.5938C22.9922 15.0195 23.4297 15.2324 23.9766 15.2324C24.5273 15.2324 24.9648 15.0176 25.2891 14.5879C25.6133 14.1543 25.7754 13.5488 25.7754 12.7715C25.7754 12.0762 25.6094 11.5137 25.2773 11.084C24.9492 10.6504 24.5117 10.4336 23.9648 10.4336C23.4297 10.4336 22.998 10.6465 22.6699 11.0723C22.3418 11.498 22.1777 12.1074 22.1777 12.9004ZM30.2168 14.5293L31.7871 9.66016H32.8945L30.6211 16H29.7949L27.498 9.66016H28.6055L30.2168 14.5293ZM36.4863 16.1172C35.627 16.1172 34.9277 15.8359 34.3887 15.2734C33.8496 14.707 33.5801 13.9512 33.5801 13.0059V12.8066C33.5801 12.1777 33.6992 11.6172 33.9375 11.125C34.1797 10.6289 34.5156 10.2422 34.9453 9.96484C35.3789 9.68359 35.8477 9.54297 36.3516 9.54297C37.1758 9.54297 37.8164 9.81445 38.2734 10.3574C38.7305 10.9004 38.959 11.6777 38.959 12.6895V13.1406H34.6641C34.6797 13.7656 34.8613 14.2715 35.209 14.6582C35.5605 15.041 36.0059 15.2324 36.5449 15.2324C36.9277 15.2324 37.252 15.1543 37.5176 14.998C37.7832 14.8418 38.0156 14.6348 38.2148 14.377L38.877 14.8926C38.3457 15.709 37.5488 16.1172 36.4863 16.1172ZM36.3516 10.4336C35.9141 10.4336 35.5469 10.5938 35.25 10.9141C34.9531 11.2305 34.7695 11.6758 34.6992 12.25H37.875V12.168C37.8438 11.6172 37.6953 11.1914 37.4297 10.8906C37.1641 10.5859 36.8047 10.4336 36.3516 10.4336ZM43.2832 10.6328C43.1191 10.6055 42.9414 10.5918 42.75 10.5918C42.0391 10.5918 41.5566 10.8945 41.3027 11.5V16H40.2188V9.66016H41.2734L41.291 10.3926C41.6465 9.82617 42.1504 9.54297 42.8027 9.54297C43.0137 9.54297 43.1738 9.57031 43.2832 9.625V10.6328Z" fill="#404040"/>
<path d="M4 1H196V-1H4V1ZM199 4V20H201V4H199ZM196 23H4V25H196V23ZM1 20V4H-1V20H1ZM4 23C2.34314 23 1 21.6569 1 20H-1C-1 22.7614 1.23857 25 4 25V23ZM199 20C199 21.6569 197.657 23 196 23V25C198.761 25 201 22.7614 201 20H199ZM196 1C197.657 1 199 2.34314 199 4H201C201 1.23858 198.761 -1 196 -1V1ZM4 -1C1.23858 -1 -1 1.23858 -1 4H1C1 2.34315 2.34315 1 4 1V-1Z" fill="#93A7B8"/>
</svg>
