<svg width="453" height="48" viewBox="0 0 453 48" fill="none" xmlns="http://www.w3.org/2000/svg">
<rect x="0.5" y="20.5" width="452" height="27" rx="3.5" fill="white"/>
<path d="M33.7012 35.7734H30.127L29.3242 38H28.1641L31.4219 29.4688H32.4062L35.6699 38H34.5156L33.7012 35.7734ZM30.4668 34.8477H33.3672L31.9141 30.8574L30.4668 34.8477ZM37.8262 38H36.7422V29H37.8262V38ZM40.7441 38H39.6602V29H40.7441V38ZM45.6309 38V29.4688H48.0391C48.7812 29.4688 49.4375 29.6328 50.0078 29.9609C50.5781 30.2891 51.0176 30.7559 51.3262 31.3613C51.6387 31.9668 51.7969 32.6621 51.8008 33.4473V33.9922C51.8008 34.7969 51.6445 35.502 51.332 36.1074C51.0234 36.7129 50.5801 37.1777 50.002 37.502C49.4277 37.8262 48.7578 37.9922 47.9922 38H45.6309ZM46.7559 30.3945V37.0801H47.9395C48.8066 37.0801 49.4805 36.8105 49.9609 36.2715C50.4453 35.7324 50.6875 34.9648 50.6875 33.9688V33.4707C50.6875 32.502 50.459 31.75 50.002 31.2148C49.5488 30.6758 48.9043 30.4023 48.0684 30.3945H46.7559ZM53.0488 34.7715C53.0488 34.1504 53.1699 33.5918 53.4121 33.0957C53.6582 32.5996 53.998 32.2168 54.4316 31.9473C54.8691 31.6777 55.3672 31.543 55.9258 31.543C56.7891 31.543 57.4863 31.8418 58.0176 32.4395C58.5527 33.0371 58.8203 33.832 58.8203 34.8242V34.9004C58.8203 35.5176 58.7012 36.0723 58.4629 36.5645C58.2285 37.0527 57.8906 37.4336 57.4492 37.707C57.0117 37.9805 56.5078 38.1172 55.9375 38.1172C55.0781 38.1172 54.3809 37.8184 53.8457 37.2207C53.3145 36.623 53.0488 35.832 53.0488 34.8477V34.7715ZM54.1387 34.9004C54.1387 35.6035 54.3008 36.168 54.625 36.5938C54.9531 37.0195 55.3906 37.2324 55.9375 37.2324C56.4883 37.2324 56.9258 37.0176 57.25 36.5879C57.5742 36.1543 57.7363 35.5488 57.7363 34.7715C57.7363 34.0762 57.5703 33.5137 57.2383 33.084C56.9102 32.6504 56.4727 32.4336 55.9258 32.4336C55.3906 32.4336 54.959 32.6465 54.6309 33.0723C54.3027 33.498 54.1387 34.1074 54.1387 34.9004ZM62.7227 37.2324C63.1094 37.2324 63.4473 37.1152 63.7363 36.8809C64.0254 36.6465 64.1855 36.3535 64.2168 36.002H65.2422C65.2227 36.3652 65.0977 36.7109 64.8672 37.0391C64.6367 37.3672 64.3281 37.6289 63.9414 37.8242C63.5586 38.0195 63.1523 38.1172 62.7227 38.1172C61.8594 38.1172 61.1719 37.8301 60.6602 37.2559C60.1523 36.6777 59.8984 35.8887 59.8984 34.8887V34.707C59.8984 34.0898 60.0117 33.541 60.2383 33.0605C60.4648 32.5801 60.7891 32.207 61.2109 31.9414C61.6367 31.6758 62.1387 31.543 62.7168 31.543C63.4277 31.543 64.0176 31.7559 64.4863 32.1816C64.959 32.6074 65.2109 33.1602 65.2422 33.8398H64.2168C64.1855 33.4297 64.0293 33.0938 63.748 32.832C63.4707 32.5664 63.127 32.4336 62.7168 32.4336C62.166 32.4336 61.7383 32.6328 61.4336 33.0312C61.1328 33.4258 60.9824 33.998 60.9824 34.748V34.9531C60.9824 35.6836 61.1328 36.2461 61.4336 36.6406C61.7344 37.0352 62.1641 37.2324 62.7227 37.2324ZM70.375 37.373C69.9531 37.8691 69.334 38.1172 68.5176 38.1172C67.8418 38.1172 67.3262 37.9219 66.9707 37.5312C66.6191 37.1367 66.4414 36.5547 66.4375 35.7852V31.6602H67.5215V35.7559C67.5215 36.7168 67.9121 37.1973 68.6934 37.1973C69.5215 37.1973 70.0723 36.8887 70.3457 36.2715V31.6602H71.4297V38H70.3984L70.375 37.373ZM74.1016 31.6602L74.1309 32.3633C74.5957 31.8164 75.2227 31.543 76.0117 31.543C76.8984 31.543 77.502 31.8828 77.8223 32.5625C78.0332 32.2578 78.3066 32.0117 78.6426 31.8242C78.9824 31.6367 79.3828 31.543 79.8438 31.543C81.2344 31.543 81.9414 32.2793 81.9648 33.752V38H80.8809V33.8164C80.8809 33.3633 80.7773 33.0254 80.5703 32.8027C80.3633 32.5762 80.0156 32.4629 79.5273 32.4629C79.125 32.4629 78.791 32.584 78.5254 32.8262C78.2598 33.0645 78.1055 33.3867 78.0625 33.793V38H76.9727V33.8457C76.9727 32.9238 76.5215 32.4629 75.6191 32.4629C74.9082 32.4629 74.4219 32.7656 74.1602 33.3711V38H73.0762V31.6602H74.1016ZM86.2363 38.1172C85.377 38.1172 84.6777 37.8359 84.1387 37.2734C83.5996 36.707 83.3301 35.9512 83.3301 35.0059V34.8066C83.3301 34.1777 83.4492 33.6172 83.6875 33.125C83.9297 32.6289 84.2656 32.2422 84.6953 31.9648C85.1289 31.6836 85.5977 31.543 86.1016 31.543C86.9258 31.543 87.5664 31.8145 88.0234 32.3574C88.4805 32.9004 88.709 33.6777 88.709 34.6895V35.1406H84.4141C84.4297 35.7656 84.6113 36.2715 84.959 36.6582C85.3105 37.041 85.7559 37.2324 86.2949 37.2324C86.6777 37.2324 87.002 37.1543 87.2676 36.998C87.5332 36.8418 87.7656 36.6348 87.9648 36.377L88.627 36.8926C88.0957 37.709 87.2988 38.1172 86.2363 38.1172ZM86.1016 32.4336C85.6641 32.4336 85.2969 32.5938 85 32.9141C84.7031 33.2305 84.5195 33.6758 84.4492 34.25H87.625V34.168C87.5938 33.6172 87.4453 33.1914 87.1797 32.8906C86.9141 32.5859 86.5547 32.4336 86.1016 32.4336ZM90.9941 31.6602L91.0293 32.457C91.5137 31.8477 92.1465 31.543 92.9277 31.543C94.2676 31.543 94.9434 32.2988 94.9551 33.8105V38H93.8711V33.8047C93.8672 33.3477 93.7617 33.0098 93.5547 32.791C93.3516 32.5723 93.0332 32.4629 92.5996 32.4629C92.248 32.4629 91.9395 32.5566 91.6738 32.7441C91.4082 32.9316 91.2012 33.1777 91.0527 33.4824V38H89.9688V31.6602H90.9941ZM98.0605 30.125V31.6602H99.2441V32.498H98.0605V36.4297C98.0605 36.6836 98.1133 36.875 98.2188 37.0039C98.3242 37.1289 98.5039 37.1914 98.7578 37.1914C98.8828 37.1914 99.0547 37.168 99.2734 37.1211V38C98.9883 38.0781 98.7109 38.1172 98.4414 38.1172C97.957 38.1172 97.5918 37.9707 97.3457 37.6777C97.0996 37.3848 96.9766 36.9688 96.9766 36.4297V32.498H95.8223V31.6602H96.9766V30.125H98.0605ZM104.207 36.3184C104.207 36.0254 104.096 35.7988 103.873 35.6387C103.654 35.4746 103.27 35.334 102.719 35.2168C102.172 35.0996 101.736 34.959 101.412 34.7949C101.092 34.6309 100.854 34.4355 100.697 34.209C100.545 33.9824 100.469 33.7129 100.469 33.4004C100.469 32.8809 100.688 32.4414 101.125 32.082C101.566 31.7227 102.129 31.543 102.812 31.543C103.531 31.543 104.113 31.7285 104.559 32.0996C105.008 32.4707 105.232 32.9453 105.232 33.5234H104.143C104.143 33.2266 104.016 32.9707 103.762 32.7559C103.512 32.541 103.195 32.4336 102.812 32.4336C102.418 32.4336 102.109 32.5195 101.887 32.6914C101.664 32.8633 101.553 33.0879 101.553 33.3652C101.553 33.627 101.656 33.8242 101.863 33.957C102.07 34.0898 102.443 34.2168 102.982 34.3379C103.525 34.459 103.965 34.6035 104.301 34.7715C104.637 34.9395 104.885 35.1426 105.045 35.3809C105.209 35.6152 105.291 35.9023 105.291 36.2422C105.291 36.8086 105.064 37.2637 104.611 37.6074C104.158 37.9473 103.57 38.1172 102.848 38.1172C102.34 38.1172 101.891 38.0273 101.5 37.8477C101.109 37.668 100.803 37.418 100.58 37.0977C100.361 36.7734 100.252 36.4238 100.252 36.0488H101.336C101.355 36.4121 101.5 36.7012 101.77 36.916C102.043 37.127 102.402 37.2324 102.848 37.2324C103.258 37.2324 103.586 37.1504 103.832 36.9863C104.082 36.8184 104.207 36.5957 104.207 36.3184Z" fill="#404040"/>
<path fill-rule="evenodd" clip-rule="evenodd" d="M439.633 32.6402C440.176 31.9889 439.713 31 438.865 31H433.135C432.287 31 431.824 31.9889 432.367 32.6402L435.232 36.0781C435.632 36.5579 436.368 36.5579 436.768 36.0781L439.633 32.6402Z" fill="#4B6C89"/>
<path fill-rule="evenodd" clip-rule="evenodd" d="M13 28H23V29V39V40H13V39V29V28ZM21 38V37H15V38H21ZM21 34V35H15V34H21ZM15 32H18V31H15V32Z" fill="#4B6C89"/>
<rect x="0.5" y="20.5" width="452" height="27" rx="3.5" stroke="#B7C4D0"/>
<path d="M6.91797 11H5.88135L1.94434 4.97363V11H0.907715V3.17969H1.94434L5.89209 9.23291V3.17969H6.91797V11ZM8.33057 8.04053C8.33057 7.47119 8.44157 6.95915 8.66357 6.50439C8.88916 6.04964 9.20068 5.69873 9.59814 5.45166C9.99919 5.20459 10.4557 5.08105 10.9678 5.08105C11.7591 5.08105 12.3983 5.35498 12.8853 5.90283C13.3758 6.45068 13.6211 7.17936 13.6211 8.08887V8.15869C13.6211 8.72445 13.5119 9.23291 13.2935 9.68408C13.0786 10.1317 12.7689 10.4808 12.3643 10.7314C11.9632 10.9821 11.5013 11.1074 10.9785 11.1074C10.1908 11.1074 9.5516 10.8335 9.06104 10.2856C8.57406 9.73779 8.33057 9.0127 8.33057 8.11035V8.04053ZM9.32959 8.15869C9.32959 8.80322 9.47819 9.32064 9.77539 9.71094C10.0762 10.1012 10.4772 10.2964 10.9785 10.2964C11.4834 10.2964 11.8844 10.0994 12.1816 9.70557C12.4788 9.30811 12.6274 8.75309 12.6274 8.04053C12.6274 7.40316 12.4753 6.88753 12.1709 6.49365C11.8701 6.09619 11.4691 5.89746 10.9678 5.89746C10.4772 5.89746 10.0815 6.09261 9.78076 6.48291C9.47998 6.87321 9.32959 7.4318 9.32959 8.15869ZM17.6763 6.08008C17.5259 6.05501 17.363 6.04248 17.1875 6.04248C16.5358 6.04248 16.0936 6.31999 15.8608 6.875V11H14.8672V5.18848H15.834L15.8501 5.85986C16.1759 5.34066 16.6379 5.08105 17.2358 5.08105C17.4292 5.08105 17.576 5.10612 17.6763 5.15625V6.08008ZM19.5293 5.18848L19.5562 5.83301C19.9823 5.33171 20.557 5.08105 21.2803 5.08105C22.0931 5.08105 22.6463 5.39258 22.9399 6.01562C23.1333 5.73633 23.384 5.51074 23.6919 5.33887C24.0034 5.16699 24.3704 5.08105 24.793 5.08105C26.0677 5.08105 26.7158 5.75602 26.7373 7.10596V11H25.7437V7.16504C25.7437 6.74967 25.6488 6.43994 25.459 6.23584C25.2692 6.02816 24.9505 5.92432 24.5029 5.92432C24.1341 5.92432 23.828 6.03532 23.5845 6.25732C23.341 6.47575 23.1995 6.77116 23.1602 7.14355V11H22.1611V7.19189C22.1611 6.34684 21.7476 5.92432 20.9204 5.92432C20.2687 5.92432 19.8229 6.20182 19.583 6.75684V11H18.5894V5.18848H19.5293ZM31.8291 11C31.7718 10.8854 31.7253 10.6813 31.6895 10.3877C31.2275 10.8675 30.6761 11.1074 30.0352 11.1074C29.4622 11.1074 28.9914 10.9463 28.6226 10.624C28.2573 10.2982 28.0747 9.88639 28.0747 9.38867C28.0747 8.78353 28.3039 8.31445 28.7622 7.98145C29.2241 7.64486 29.8722 7.47656 30.7065 7.47656H31.6733V7.02002C31.6733 6.67269 31.5695 6.39697 31.3618 6.19287C31.1541 5.98519 30.848 5.88135 30.4434 5.88135C30.0889 5.88135 29.7917 5.97087 29.5518 6.1499C29.3118 6.32894 29.1919 6.54557 29.1919 6.7998H28.1929C28.1929 6.50977 28.2949 6.23047 28.499 5.96191C28.7067 5.68978 28.986 5.47493 29.3369 5.31738C29.6914 5.15983 30.0799 5.08105 30.5024 5.08105C31.172 5.08105 31.6966 5.24935 32.0762 5.58594C32.4557 5.91895 32.6527 6.37907 32.667 6.96631V9.64111C32.667 10.1746 32.735 10.599 32.8711 10.9141V11H31.8291ZM30.1802 10.2427C30.4917 10.2427 30.7871 10.1621 31.0664 10.001C31.3457 9.83984 31.548 9.63037 31.6733 9.37256V8.18018H30.8945C29.6771 8.18018 29.0684 8.53646 29.0684 9.24902C29.0684 9.56055 29.1722 9.80404 29.3799 9.97949C29.5876 10.1549 29.8543 10.2427 30.1802 10.2427ZM35.3042 11H34.3105V2.75H35.3042V11Z" fill="#6F89A1"/>
</svg>
