<svg width="452" height="47" viewBox="0 0 452 47" fill="none" xmlns="http://www.w3.org/2000/svg">
<rect x="0.5" y="19.5" width="451" height="27" rx="3.5" fill="white"/>
<path d="M19.2656 34.293C19.1602 35.1953 18.8262 35.8926 18.2637 36.3848C17.7051 36.873 16.9609 37.1172 16.0312 37.1172C15.0234 37.1172 14.2148 36.7559 13.6055 36.0332C13 35.3105 12.6973 34.3438 12.6973 33.1328V32.3125C12.6973 31.5195 12.8379 30.8223 13.1191 30.2207C13.4043 29.6191 13.8066 29.1582 14.3262 28.8379C14.8457 28.5137 15.4473 28.3516 16.1309 28.3516C17.0371 28.3516 17.7637 28.6055 18.3105 29.1133C18.8574 29.6172 19.1758 30.3164 19.2656 31.2109H18.1348C18.0371 30.5312 17.8242 30.0391 17.4961 29.7344C17.1719 29.4297 16.7168 29.2773 16.1309 29.2773C15.4121 29.2773 14.8477 29.543 14.4375 30.0742C14.0312 30.6055 13.8281 31.3613 13.8281 32.3418V33.168C13.8281 34.0938 14.0215 34.8301 14.4082 35.377C14.7949 35.9238 15.3359 36.1973 16.0312 36.1973C16.6562 36.1973 17.1348 36.0566 17.4668 35.7754C17.8027 35.4902 18.0254 34.9961 18.1348 34.293H19.2656ZM21.7207 31.4277C22.2012 30.8379 22.8262 30.543 23.5957 30.543C24.9355 30.543 25.6113 31.2988 25.623 32.8105V37H24.5391V32.8047C24.5352 32.3477 24.4297 32.0098 24.2227 31.791C24.0195 31.5723 23.7012 31.4629 23.2676 31.4629C22.916 31.4629 22.6074 31.5566 22.3418 31.7441C22.0762 31.9316 21.8691 32.1777 21.7207 32.4824V37H20.6367V28H21.7207V31.4277ZM26.959 33.7715C26.959 33.1504 27.0801 32.5918 27.3223 32.0957C27.5684 31.5996 27.9082 31.2168 28.3418 30.9473C28.7793 30.6777 29.2773 30.543 29.8359 30.543C30.6992 30.543 31.3965 30.8418 31.9277 31.4395C32.4629 32.0371 32.7305 32.832 32.7305 33.8242V33.9004C32.7305 34.5176 32.6113 35.0723 32.373 35.5645C32.1387 36.0527 31.8008 36.4336 31.3594 36.707C30.9219 36.9805 30.418 37.1172 29.8477 37.1172C28.9883 37.1172 28.291 36.8184 27.7559 36.2207C27.2246 35.623 26.959 34.832 26.959 33.8477V33.7715ZM28.0488 33.9004C28.0488 34.6035 28.2109 35.168 28.5352 35.5938C28.8633 36.0195 29.3008 36.2324 29.8477 36.2324C30.3984 36.2324 30.8359 36.0176 31.1602 35.5879C31.4844 35.1543 31.6465 34.5488 31.6465 33.7715C31.6465 33.0762 31.4805 32.5137 31.1484 32.084C30.8203 31.6504 30.3828 31.4336 29.8359 31.4336C29.3008 31.4336 28.8691 31.6465 28.541 32.0723C28.2129 32.498 28.0488 33.1074 28.0488 33.9004ZM33.8027 33.7715C33.8027 33.1504 33.9238 32.5918 34.166 32.0957C34.4121 31.5996 34.752 31.2168 35.1855 30.9473C35.623 30.6777 36.1211 30.543 36.6797 30.543C37.543 30.543 38.2402 30.8418 38.7715 31.4395C39.3066 32.0371 39.5742 32.832 39.5742 33.8242V33.9004C39.5742 34.5176 39.4551 35.0723 39.2168 35.5645C38.9824 36.0527 38.6445 36.4336 38.2031 36.707C37.7656 36.9805 37.2617 37.1172 36.6914 37.1172C35.832 37.1172 35.1348 36.8184 34.5996 36.2207C34.0684 35.623 33.8027 34.832 33.8027 33.8477V33.7715ZM34.8926 33.9004C34.8926 34.6035 35.0547 35.168 35.3789 35.5938C35.707 36.0195 36.1445 36.2324 36.6914 36.2324C37.2422 36.2324 37.6797 36.0176 38.0039 35.5879C38.3281 35.1543 38.4902 34.5488 38.4902 33.7715C38.4902 33.0762 38.3242 32.5137 37.9922 32.084C37.6641 31.6504 37.2266 31.4336 36.6797 31.4336C36.1445 31.4336 35.7129 31.6465 35.3848 32.0723C35.0566 32.498 34.8926 33.1074 34.8926 33.9004ZM44.625 35.3184C44.625 35.0254 44.5137 34.7988 44.291 34.6387C44.0723 34.4746 43.6875 34.334 43.1367 34.2168C42.5898 34.0996 42.1543 33.959 41.8301 33.7949C41.5098 33.6309 41.2715 33.4355 41.1152 33.209C40.9629 32.9824 40.8867 32.7129 40.8867 32.4004C40.8867 31.8809 41.1055 31.4414 41.543 31.082C41.9844 30.7227 42.5469 30.543 43.2305 30.543C43.9492 30.543 44.5312 30.7285 44.9766 31.0996C45.4258 31.4707 45.6504 31.9453 45.6504 32.5234H44.5605C44.5605 32.2266 44.4336 31.9707 44.1797 31.7559C43.9297 31.541 43.6133 31.4336 43.2305 31.4336C42.8359 31.4336 42.5273 31.5195 42.3047 31.6914C42.082 31.8633 41.9707 32.0879 41.9707 32.3652C41.9707 32.627 42.0742 32.8242 42.2812 32.957C42.4883 33.0898 42.8613 33.2168 43.4004 33.3379C43.9434 33.459 44.3828 33.6035 44.7188 33.7715C45.0547 33.9395 45.3027 34.1426 45.4629 34.3809C45.627 34.6152 45.709 34.9023 45.709 35.2422C45.709 35.8086 45.4824 36.2637 45.0293 36.6074C44.5762 36.9473 43.9883 37.1172 43.2656 37.1172C42.7578 37.1172 42.3086 37.0273 41.918 36.8477C41.5273 36.668 41.2207 36.418 40.998 36.0977C40.7793 35.7734 40.6699 35.4238 40.6699 35.0488H41.7539C41.7734 35.4121 41.918 35.7012 42.1875 35.916C42.4609 36.127 42.8203 36.2324 43.2656 36.2324C43.6758 36.2324 44.0039 36.1504 44.25 35.9863C44.5 35.8184 44.625 35.5957 44.625 35.3184ZM49.752 37.1172C48.8926 37.1172 48.1934 36.8359 47.6543 36.2734C47.1152 35.707 46.8457 34.9512 46.8457 34.0059V33.8066C46.8457 33.1777 46.9648 32.6172 47.2031 32.125C47.4453 31.6289 47.7812 31.2422 48.2109 30.9648C48.6445 30.6836 49.1133 30.543 49.6172 30.543C50.4414 30.543 51.082 30.8145 51.5391 31.3574C51.9961 31.9004 52.2246 32.6777 52.2246 33.6895V34.1406H47.9297C47.9453 34.7656 48.127 35.2715 48.4746 35.6582C48.8262 36.041 49.2715 36.2324 49.8105 36.2324C50.1934 36.2324 50.5176 36.1543 50.7832 35.998C51.0488 35.8418 51.2812 35.6348 51.4805 35.377L52.1426 35.8926C51.6113 36.709 50.8145 37.1172 49.752 37.1172ZM49.6172 31.4336C49.1797 31.4336 48.8125 31.5938 48.5156 31.9141C48.2188 32.2305 48.0352 32.6758 47.9648 33.25H51.1406V33.168C51.1094 32.6172 50.9609 32.1914 50.6953 31.8906C50.4297 31.5859 50.0703 31.4336 49.6172 31.4336ZM59.1445 33.1973C58.1797 32.9199 57.4766 32.5801 57.0352 32.1777C56.5977 31.7715 56.3789 31.2715 56.3789 30.6777C56.3789 30.0059 56.6465 29.4512 57.1816 29.0137C57.7207 28.5723 58.4199 28.3516 59.2793 28.3516C59.8652 28.3516 60.3867 28.4648 60.8438 28.6914C61.3047 28.918 61.6602 29.2305 61.9102 29.6289C62.1641 30.0273 62.291 30.4629 62.291 30.9355H61.1602C61.1602 30.4199 60.9961 30.0156 60.668 29.7227C60.3398 29.4258 59.877 29.2773 59.2793 29.2773C58.7246 29.2773 58.291 29.4004 57.9785 29.6465C57.6699 29.8887 57.5156 30.2266 57.5156 30.6602C57.5156 31.0078 57.6621 31.3027 57.9551 31.5449C58.252 31.7832 58.7539 32.002 59.4609 32.2012C60.1719 32.4004 60.7266 32.6211 61.125 32.8633C61.5273 33.1016 61.8242 33.3809 62.0156 33.7012C62.2109 34.0215 62.3086 34.3984 62.3086 34.832C62.3086 35.5234 62.0391 36.0781 61.5 36.4961C60.9609 36.9102 60.2402 37.1172 59.3379 37.1172C58.752 37.1172 58.2051 37.0059 57.6973 36.7832C57.1895 36.5566 56.7969 36.248 56.5195 35.8574C56.2461 35.4668 56.1094 35.0234 56.1094 34.5273H57.2402C57.2402 35.043 57.4297 35.4512 57.8086 35.752C58.1914 36.0488 58.7012 36.1973 59.3379 36.1973C59.9316 36.1973 60.3867 36.0762 60.7031 35.834C61.0195 35.5918 61.1777 35.2617 61.1777 34.8438C61.1777 34.4258 61.0312 34.1035 60.7383 33.877C60.4453 33.6465 59.9141 33.4199 59.1445 33.1973ZM63.2988 33.7715C63.2988 33.1504 63.4199 32.5918 63.6621 32.0957C63.9082 31.5996 64.248 31.2168 64.6816 30.9473C65.1191 30.6777 65.6172 30.543 66.1758 30.543C67.0391 30.543 67.7363 30.8418 68.2676 31.4395C68.8027 32.0371 69.0703 32.832 69.0703 33.8242V33.9004C69.0703 34.5176 68.9512 35.0723 68.7129 35.5645C68.4785 36.0527 68.1406 36.4336 67.6992 36.707C67.2617 36.9805 66.7578 37.1172 66.1875 37.1172C65.3281 37.1172 64.6309 36.8184 64.0957 36.2207C63.5645 35.623 63.2988 34.832 63.2988 33.8477V33.7715ZM64.3887 33.9004C64.3887 34.6035 64.5508 35.168 64.875 35.5938C65.2031 36.0195 65.6406 36.2324 66.1875 36.2324C66.7383 36.2324 67.1758 36.0176 67.5 35.5879C67.8242 35.1543 67.9863 34.5488 67.9863 33.7715C67.9863 33.0762 67.8203 32.5137 67.4883 32.084C67.1602 31.6504 66.7227 31.4336 66.1758 31.4336C65.6406 31.4336 65.209 31.6465 64.8809 32.0723C64.5527 32.498 64.3887 33.1074 64.3887 33.9004ZM71.4492 30.6602L71.4785 31.3633C71.9434 30.8164 72.5703 30.543 73.3594 30.543C74.2461 30.543 74.8496 30.8828 75.1699 31.5625C75.3809 31.2578 75.6543 31.0117 75.9902 30.8242C76.3301 30.6367 76.7305 30.543 77.1914 30.543C78.582 30.543 79.2891 31.2793 79.3125 32.752V37H78.2285V32.8164C78.2285 32.3633 78.125 32.0254 77.918 31.8027C77.7109 31.5762 77.3633 31.4629 76.875 31.4629C76.4727 31.4629 76.1387 31.584 75.873 31.8262C75.6074 32.0645 75.4531 32.3867 75.4102 32.793V37H74.3203V32.8457C74.3203 31.9238 73.8691 31.4629 72.9668 31.4629C72.2559 31.4629 71.7695 31.7656 71.5078 32.3711V37H70.4238V30.6602H71.4492ZM82.4238 29.125V30.6602H83.6074V31.498H82.4238V35.4297C82.4238 35.6836 82.4766 35.875 82.582 36.0039C82.6875 36.1289 82.8672 36.1914 83.1211 36.1914C83.2461 36.1914 83.418 36.168 83.6367 36.1211V37C83.3516 37.0781 83.0742 37.1172 82.8047 37.1172C82.3203 37.1172 81.9551 36.9707 81.709 36.6777C81.4629 36.3848 81.3398 35.9688 81.3398 35.4297V31.498H80.1855V30.6602H81.3398V29.125H82.4238ZM85.9629 31.4277C86.4434 30.8379 87.0684 30.543 87.8379 30.543C89.1777 30.543 89.8535 31.2988 89.8652 32.8105V37H88.7812V32.8047C88.7773 32.3477 88.6719 32.0098 88.4648 31.791C88.2617 31.5723 87.9434 31.4629 87.5098 31.4629C87.1582 31.4629 86.8496 31.5566 86.584 31.7441C86.3184 31.9316 86.1113 32.1777 85.9629 32.4824V37H84.8789V28H85.9629V31.4277ZM92.666 37H91.582V30.6602H92.666V37ZM91.4941 28.9785C91.4941 28.8027 91.5469 28.6543 91.6523 28.5332C91.7617 28.4121 91.9219 28.3516 92.1328 28.3516C92.3438 28.3516 92.5039 28.4121 92.6133 28.5332C92.7227 28.6543 92.7773 28.8027 92.7773 28.9785C92.7773 29.1543 92.7227 29.3008 92.6133 29.418C92.5039 29.5352 92.3438 29.5938 92.1328 29.5938C91.9219 29.5938 91.7617 29.5352 91.6523 29.418C91.5469 29.3008 91.4941 29.1543 91.4941 28.9785ZM95.4316 30.6602L95.4668 31.457C95.9512 30.8477 96.584 30.543 97.3652 30.543C98.7051 30.543 99.3809 31.2988 99.3926 32.8105V37H98.3086V32.8047C98.3047 32.3477 98.1992 32.0098 97.9922 31.791C97.7891 31.5723 97.4707 31.4629 97.0371 31.4629C96.6855 31.4629 96.377 31.5566 96.1113 31.7441C95.8457 31.9316 95.6387 32.1777 95.4902 32.4824V37H94.4062V30.6602H95.4316ZM100.77 33.7773C100.77 32.7891 100.998 32.0039 101.455 31.4219C101.912 30.8359 102.518 30.543 103.271 30.543C104.045 30.543 104.648 30.8164 105.082 31.3633L105.135 30.6602H106.125V36.8477C106.125 37.668 105.881 38.3145 105.393 38.7871C104.908 39.2598 104.256 39.4961 103.436 39.4961C102.979 39.4961 102.531 39.3984 102.094 39.2031C101.656 39.0078 101.322 38.7402 101.092 38.4004L101.654 37.75C102.119 38.3242 102.688 38.6113 103.359 38.6113C103.887 38.6113 104.297 38.4629 104.59 38.166C104.887 37.8691 105.035 37.4512 105.035 36.9121V36.3672C104.602 36.8672 104.01 37.1172 103.26 37.1172C102.518 37.1172 101.916 36.8184 101.455 36.2207C100.998 35.623 100.77 34.8086 100.77 33.7773ZM101.859 33.9004C101.859 34.6152 102.006 35.1777 102.299 35.5879C102.592 35.9941 103.002 36.1973 103.529 36.1973C104.213 36.1973 104.715 35.8867 105.035 35.2656V32.3711C104.703 31.7656 104.205 31.4629 103.541 31.4629C103.014 31.4629 102.602 31.668 102.305 32.0781C102.008 32.4883 101.859 33.0957 101.859 33.9004Z" fill="#404040"/>
<path fill-rule="evenodd" clip-rule="evenodd" d="M438.633 31.6402C439.176 30.9889 438.713 30 437.865 30H432.135C431.287 30 430.824 30.9889 431.367 31.6402L434.232 35.0781C434.632 35.5579 435.368 35.5579 435.768 35.0781L438.633 31.6402Z" fill="#4B6C89"/>
<rect x="0.5" y="19.5" width="451" height="27" rx="3.5" stroke="#DB3535"/>
<path d="M5.32812 6.38525H1.93896V9.15674H5.87598V10H0.907715V2.17969H5.82227V3.02832H1.93896V5.54199H5.32812V6.38525ZM9.81299 5.08008C9.6626 5.05501 9.49967 5.04248 9.32422 5.04248C8.67253 5.04248 8.23031 5.31999 7.99756 5.875V10H7.00391V4.18848H7.9707L7.98682 4.85986C8.31266 4.34066 8.77458 4.08105 9.37256 4.08105C9.56592 4.08105 9.71273 4.10612 9.81299 4.15625V5.08008ZM13.5405 5.08008C13.3901 5.05501 13.2272 5.04248 13.0518 5.04248C12.4001 5.04248 11.9578 5.31999 11.7251 5.875V10H10.7314V4.18848H11.6982L11.7144 4.85986C12.0402 4.34066 12.5021 4.08105 13.1001 4.08105C13.2935 4.08105 13.4403 4.10612 13.5405 4.15625V5.08008ZM14.0884 7.04053C14.0884 6.47119 14.1994 5.95915 14.4214 5.50439C14.647 5.04964 14.9585 4.69873 15.356 4.45166C15.757 4.20459 16.2135 4.08105 16.7256 4.08105C17.5169 4.08105 18.1561 4.35498 18.6431 4.90283C19.1336 5.45068 19.3789 6.17936 19.3789 7.08887V7.15869C19.3789 7.72445 19.2697 8.23291 19.0513 8.68408C18.8364 9.13167 18.5267 9.48079 18.1221 9.73145C17.721 9.9821 17.2591 10.1074 16.7363 10.1074C15.9486 10.1074 15.3094 9.8335 14.8188 9.28564C14.3319 8.73779 14.0884 8.0127 14.0884 7.11035V7.04053ZM15.0874 7.15869C15.0874 7.80322 15.236 8.32064 15.5332 8.71094C15.834 9.10124 16.235 9.29639 16.7363 9.29639C17.2412 9.29639 17.6423 9.09945 17.9395 8.70557C18.2367 8.30811 18.3853 7.75309 18.3853 7.04053C18.3853 6.40316 18.2331 5.88753 17.9287 5.49365C17.6279 5.09619 17.2269 4.89746 16.7256 4.89746C16.235 4.89746 15.8394 5.09261 15.5386 5.48291C15.2378 5.87321 15.0874 6.4318 15.0874 7.15869ZM23.4341 5.08008C23.2837 5.05501 23.1208 5.04248 22.9453 5.04248C22.2936 5.04248 21.8514 5.31999 21.6187 5.875V10H20.625V4.18848H21.5918L21.6079 4.85986C21.9338 4.34066 22.3957 4.08105 22.9937 4.08105C23.187 4.08105 23.3338 4.10612 23.4341 4.15625V5.08008Z" fill="#DB3535"/>
</svg>
