<svg width="452" height="52" viewBox="0 0 452 52" fill="none" xmlns="http://www.w3.org/2000/svg">
<rect x="0.5" y="20.5" width="451" height="31" rx="3.5" fill="white"/>
<path d="M14.8506 31.0469L18.1045 39.168L21.3584 31.0469H23.0605V41H21.748V37.124L21.8711 32.9404L18.6035 41H17.5986L14.3379 32.9609L14.4678 37.124V41H13.1553V31.0469H14.8506ZM24.8447 37.2334C24.8447 36.5088 24.986 35.8571 25.2686 35.2783C25.5557 34.6995 25.9521 34.2529 26.458 33.9385C26.9684 33.624 27.5495 33.4668 28.2012 33.4668C29.2083 33.4668 30.0218 33.8154 30.6416 34.5127C31.266 35.21 31.5781 36.1374 31.5781 37.2949V37.3838C31.5781 38.1038 31.4391 38.751 31.1611 39.3252C30.8877 39.8949 30.4935 40.3392 29.9785 40.6582C29.4681 40.9772 28.8802 41.1367 28.2148 41.1367C27.2122 41.1367 26.3988 40.7881 25.7744 40.0908C25.1546 39.3936 24.8447 38.4707 24.8447 37.3223V37.2334ZM26.1162 37.3838C26.1162 38.2041 26.3053 38.8626 26.6836 39.3594C27.0664 39.8561 27.5768 40.1045 28.2148 40.1045C28.8574 40.1045 29.3678 39.8538 29.7461 39.3525C30.1243 38.8467 30.3135 38.1403 30.3135 37.2334C30.3135 36.4222 30.1198 35.766 29.7324 35.2646C29.3496 34.7588 28.8392 34.5059 28.2012 34.5059C27.5768 34.5059 27.0732 34.7542 26.6904 35.251C26.3076 35.7477 26.1162 36.4587 26.1162 37.3838ZM34.4287 34.499C34.9893 33.8109 35.7184 33.4668 36.6162 33.4668C38.1794 33.4668 38.9678 34.3486 38.9814 36.1123V41H37.7168V36.1055C37.7122 35.5723 37.5892 35.1781 37.3477 34.9229C37.1107 34.6676 36.7393 34.54 36.2334 34.54C35.8232 34.54 35.4632 34.6494 35.1533 34.8682C34.8434 35.0869 34.6019 35.374 34.4287 35.7295V41H33.1641V30.5H34.4287V34.499ZM45.4414 41C45.3685 40.8542 45.3092 40.5944 45.2637 40.2207C44.6758 40.8314 43.974 41.1367 43.1582 41.1367C42.429 41.1367 41.8298 40.9316 41.3604 40.5215C40.8955 40.1068 40.6631 39.5827 40.6631 38.9492C40.6631 38.179 40.9548 37.582 41.5381 37.1582C42.126 36.7298 42.9508 36.5156 44.0127 36.5156H45.2432V35.9346C45.2432 35.4925 45.111 35.1416 44.8467 34.8818C44.5824 34.6175 44.1927 34.4854 43.6777 34.4854C43.2266 34.4854 42.8483 34.5993 42.543 34.8271C42.2376 35.055 42.085 35.3307 42.085 35.6543H40.8135C40.8135 35.2852 40.9434 34.9297 41.2031 34.5879C41.4674 34.2415 41.8229 33.9681 42.2695 33.7676C42.7207 33.5671 43.2152 33.4668 43.7529 33.4668C44.6051 33.4668 45.2728 33.681 45.7559 34.1094C46.2389 34.5332 46.4896 35.1188 46.5078 35.8662V39.2705C46.5078 39.9495 46.5944 40.4896 46.7676 40.8906V41H45.4414ZM43.3428 40.0361C43.7393 40.0361 44.1152 39.9336 44.4707 39.7285C44.8262 39.5234 45.0837 39.2568 45.2432 38.9287V37.4111H44.252C42.7025 37.4111 41.9277 37.8646 41.9277 38.7715C41.9277 39.168 42.0599 39.4779 42.3242 39.7012C42.5885 39.9245 42.9281 40.0361 43.3428 40.0361ZM49.6797 33.6035L49.7139 34.4238C50.2562 33.7858 50.9876 33.4668 51.9082 33.4668C52.9427 33.4668 53.6468 33.8633 54.0205 34.6562C54.2666 34.3008 54.5856 34.0137 54.9775 33.7949C55.374 33.5762 55.8411 33.4668 56.3789 33.4668C58.0013 33.4668 58.8262 34.3258 58.8535 36.0439V41H57.5889V36.1191C57.5889 35.5905 57.4681 35.1963 57.2266 34.9365C56.985 34.6722 56.5794 34.54 56.0098 34.54C55.5404 34.54 55.1507 34.6813 54.8408 34.9639C54.5309 35.2419 54.3509 35.6178 54.3008 36.0918V41H53.0293V36.1533C53.0293 35.0778 52.5029 34.54 51.4502 34.54C50.6208 34.54 50.0534 34.8932 49.748 35.5996V41H48.4834V33.6035H49.6797ZM61.957 33.6035L61.9912 34.4238C62.5335 33.7858 63.265 33.4668 64.1855 33.4668C65.2201 33.4668 65.9242 33.8633 66.2979 34.6562C66.5439 34.3008 66.863 34.0137 67.2549 33.7949C67.6514 33.5762 68.1185 33.4668 68.6562 33.4668C70.2786 33.4668 71.1035 34.3258 71.1309 36.0439V41H69.8662V36.1191C69.8662 35.5905 69.7454 35.1963 69.5039 34.9365C69.2624 34.6722 68.8568 34.54 68.2871 34.54C67.8177 34.54 67.4281 34.6813 67.1182 34.9639C66.8083 35.2419 66.6283 35.6178 66.5781 36.0918V41H65.3066V36.1533C65.3066 35.0778 64.7803 34.54 63.7275 34.54C62.8981 34.54 62.3307 34.8932 62.0254 35.5996V41H60.7607V33.6035H61.957ZM76.1143 41.1367C75.1117 41.1367 74.2959 40.8086 73.667 40.1523C73.0381 39.4915 72.7236 38.6097 72.7236 37.5068V37.2744C72.7236 36.5407 72.8626 35.8867 73.1406 35.3125C73.4232 34.7337 73.8151 34.2826 74.3164 33.959C74.8223 33.6309 75.3691 33.4668 75.957 33.4668C76.9186 33.4668 77.666 33.7835 78.1992 34.417C78.7324 35.0505 78.999 35.9574 78.999 37.1377V37.6641H73.9883C74.0065 38.3932 74.2184 38.9834 74.624 39.4346C75.0342 39.8812 75.5537 40.1045 76.1826 40.1045C76.6292 40.1045 77.0075 40.0133 77.3174 39.8311C77.6273 39.6488 77.8984 39.4072 78.1309 39.1064L78.9033 39.708C78.2835 40.6605 77.3538 41.1367 76.1143 41.1367ZM75.957 34.5059C75.4466 34.5059 75.0182 34.6927 74.6719 35.0664C74.3255 35.4355 74.1113 35.9551 74.0293 36.625H77.7344V36.5293C77.6979 35.8867 77.5247 35.39 77.2148 35.0391C76.9049 34.6836 76.4857 34.5059 75.957 34.5059ZM80.1611 37.2402C80.1611 36.1055 80.43 35.194 80.9678 34.5059C81.5055 33.8132 82.2096 33.4668 83.0801 33.4668C83.946 33.4668 84.6318 33.763 85.1377 34.3555V30.5H86.4023V41H85.2402L85.1787 40.207C84.6729 40.8268 83.9688 41.1367 83.0664 41.1367C82.2096 41.1367 81.5101 40.7858 80.9678 40.084C80.43 39.3822 80.1611 38.4661 80.1611 37.3359V37.2402ZM81.4258 37.3838C81.4258 38.2223 81.599 38.8786 81.9453 39.3525C82.2917 39.8265 82.7702 40.0635 83.3809 40.0635C84.1829 40.0635 84.7686 39.7035 85.1377 38.9834V35.5859C84.7594 34.8887 84.1784 34.54 83.3945 34.54C82.7747 34.54 82.2917 34.7793 81.9453 35.2578C81.599 35.7363 81.4258 36.445 81.4258 37.3838ZM97.5381 38.4023H93.3682L92.4316 41H91.0781L94.8789 31.0469H96.0273L99.835 41H98.4883L97.5381 38.4023ZM93.7646 37.3223H97.1484L95.4531 32.667L93.7646 37.3223ZM103.041 37.5752L102.248 38.4023V41H100.983V30.5H102.248V36.8506L102.925 36.0371L105.229 33.6035H106.767L103.889 36.6934L107.102 41H105.618L103.041 37.5752ZM110.137 37.5752L109.344 38.4023V41H108.079V30.5H109.344V36.8506L110.021 36.0371L112.324 33.6035H113.862L110.984 36.6934L114.197 41H112.714L110.137 37.5752ZM119.734 41C119.661 40.8542 119.602 40.5944 119.557 40.2207C118.969 40.8314 118.267 41.1367 117.451 41.1367C116.722 41.1367 116.123 40.9316 115.653 40.5215C115.188 40.1068 114.956 39.5827 114.956 38.9492C114.956 38.179 115.248 37.582 115.831 37.1582C116.419 36.7298 117.244 36.5156 118.306 36.5156H119.536V35.9346C119.536 35.4925 119.404 35.1416 119.14 34.8818C118.875 34.6175 118.486 34.4854 117.971 34.4854C117.52 34.4854 117.141 34.5993 116.836 34.8271C116.531 35.055 116.378 35.3307 116.378 35.6543H115.106C115.106 35.2852 115.236 34.9297 115.496 34.5879C115.76 34.2415 116.116 33.9681 116.562 33.7676C117.014 33.5671 117.508 33.4668 118.046 33.4668C118.898 33.4668 119.566 33.681 120.049 34.1094C120.532 34.5332 120.783 35.1188 120.801 35.8662V39.2705C120.801 39.9495 120.887 40.4896 121.061 40.8906V41H119.734ZM117.636 40.0361C118.032 40.0361 118.408 39.9336 118.764 39.7285C119.119 39.5234 119.377 39.2568 119.536 38.9287V37.4111H118.545C116.995 37.4111 116.221 37.8646 116.221 38.7715C116.221 39.168 116.353 39.4779 116.617 39.7012C116.882 39.9245 117.221 40.0361 117.636 40.0361ZM126.358 34.7383C126.167 34.7064 125.96 34.6904 125.736 34.6904C124.907 34.6904 124.344 35.0436 124.048 35.75V41H122.783V33.6035H124.014L124.034 34.458C124.449 33.7972 125.037 33.4668 125.798 33.4668C126.044 33.4668 126.231 33.4987 126.358 33.5625V34.7383Z" fill="#404040"/>
<rect x="0.5" y="20.5" width="451" height="31" rx="3.5" stroke="#0371FF"/>
<path d="M18.7012 8.77344H15.127L14.3242 11H13.1641L16.4219 2.46875H17.4062L20.6699 11H19.5156L18.7012 8.77344ZM15.4668 7.84766H18.3672L16.9141 3.85742L15.4668 7.84766ZM24.1914 10.2324C24.5781 10.2324 24.916 10.1152 25.2051 9.88086C25.4941 9.64648 25.6543 9.35352 25.6855 9.00195H26.7109C26.6914 9.36523 26.5664 9.71094 26.3359 10.0391C26.1055 10.3672 25.7969 10.6289 25.4102 10.8242C25.0273 11.0195 24.6211 11.1172 24.1914 11.1172C23.3281 11.1172 22.6406 10.8301 22.1289 10.2559C21.6211 9.67773 21.3672 8.88867 21.3672 7.88867V7.70703C21.3672 7.08984 21.4805 6.54102 21.707 6.06055C21.9336 5.58008 22.2578 5.20703 22.6797 4.94141C23.1055 4.67578 23.6074 4.54297 24.1855 4.54297C24.8965 4.54297 25.4863 4.75586 25.9551 5.18164C26.4277 5.60742 26.6797 6.16016 26.7109 6.83984H25.6855C25.6543 6.42969 25.498 6.09375 25.2168 5.83203C24.9395 5.56641 24.5957 5.43359 24.1855 5.43359C23.6348 5.43359 23.207 5.63281 22.9023 6.03125C22.6016 6.42578 22.4512 6.99805 22.4512 7.74805V7.95312C22.4512 8.68359 22.6016 9.24609 22.9023 9.64062C23.2031 10.0352 23.6328 10.2324 24.1914 10.2324ZM29.4004 3.125V4.66016H30.584V5.49805H29.4004V9.42969C29.4004 9.68359 29.4531 9.875 29.5586 10.0039C29.6641 10.1289 29.8438 10.1914 30.0977 10.1914C30.2227 10.1914 30.3945 10.168 30.6133 10.1211V11C30.3281 11.0781 30.0508 11.1172 29.7812 11.1172C29.2969 11.1172 28.9316 10.9707 28.6855 10.6777C28.4395 10.3848 28.3164 9.96875 28.3164 9.42969V5.49805H27.1621V4.66016H28.3164V3.125H29.4004ZM33.0332 11H31.9492V4.66016H33.0332V11ZM31.8613 2.97852C31.8613 2.80273 31.9141 2.6543 32.0195 2.5332C32.1289 2.41211 32.2891 2.35156 32.5 2.35156C32.7109 2.35156 32.8711 2.41211 32.9805 2.5332C33.0898 2.6543 33.1445 2.80273 33.1445 2.97852C33.1445 3.1543 33.0898 3.30078 32.9805 3.41797C32.8711 3.53516 32.7109 3.59375 32.5 3.59375C32.2891 3.59375 32.1289 3.53516 32.0195 3.41797C31.9141 3.30078 31.8613 3.1543 31.8613 2.97852ZM36.8652 9.5293L38.4355 4.66016H39.543L37.2695 11H36.4434L34.1465 4.66016H35.2539L36.8652 9.5293ZM43.1348 11.1172C42.2754 11.1172 41.5762 10.8359 41.0371 10.2734C40.498 9.70703 40.2285 8.95117 40.2285 8.00586V7.80664C40.2285 7.17773 40.3477 6.61719 40.5859 6.125C40.8281 5.62891 41.1641 5.24219 41.5938 4.96484C42.0273 4.68359 42.4961 4.54297 43 4.54297C43.8242 4.54297 44.4648 4.81445 44.9219 5.35742C45.3789 5.90039 45.6074 6.67773 45.6074 7.68945V8.14062H41.3125C41.3281 8.76562 41.5098 9.27148 41.8574 9.6582C42.209 10.041 42.6543 10.2324 43.1934 10.2324C43.5762 10.2324 43.9004 10.1543 44.166 9.99805C44.4316 9.8418 44.6641 9.63477 44.8633 9.37695L45.5254 9.89258C44.9941 10.709 44.1973 11.1172 43.1348 11.1172ZM43 5.43359C42.5625 5.43359 42.1953 5.59375 41.8984 5.91406C41.6016 6.23047 41.418 6.67578 41.3477 7.25H44.5234V7.16797C44.4922 6.61719 44.3438 6.19141 44.0781 5.89062C43.8125 5.58594 43.4531 5.43359 43 5.43359Z" fill="#6F89A1"/>
<path fill-rule="evenodd" clip-rule="evenodd" d="M4.5 11C6.98528 11 9 8.98528 9 6.5C9 4.01472 6.98528 2 4.5 2C2.01472 2 0 4.01472 0 6.5C0 8.98528 2.01472 11 4.5 11ZM4.5 11L3.64058 7.98857L0.602886 8.75L2.78115 6.5L0.602886 4.25L3.64058 5.01143L4.5 2L5.35942 5.01143L8.39711 4.25L6.21885 6.5L8.39711 8.75L5.35942 7.98857L4.5 11Z" fill="#6F89A1"/>
</svg>
