<svg width="97" height="32" viewBox="0 0 97 32" fill="none" xmlns="http://www.w3.org/2000/svg">
<path d="M0 16C0 7.16344 7.16344 0 16 0H81C89.8366 0 97 7.16344 97 16V16C97 24.8366 89.8366 32 81 32H16C7.16345 32 0 24.8366 0 16V16Z" fill="#F9FAFB"/>
<path fill-rule="evenodd" clip-rule="evenodd" d="M23 10H21V15H16V17H21V22H23V17H28V15H23V10Z" fill="#4B6C89"/>
<path d="M39.1064 15.2646H40.1182C40.6286 15.2601 41.0319 15.1279 41.3281 14.8682C41.6289 14.6084 41.7793 14.2324 41.7793 13.7402C41.7793 13.2663 41.654 12.8994 41.4033 12.6396C41.1572 12.3753 40.779 12.2432 40.2686 12.2432C39.8219 12.2432 39.4551 12.373 39.168 12.6328C38.8809 12.888 38.7373 13.223 38.7373 13.6377H37.0762C37.0762 13.1273 37.2106 12.6624 37.4795 12.2432C37.7529 11.8239 38.1312 11.498 38.6143 11.2656C39.1019 11.0286 39.6465 10.9102 40.248 10.9102C41.2415 10.9102 42.0208 11.1608 42.5859 11.6621C43.1556 12.1589 43.4404 12.8516 43.4404 13.7402C43.4404 14.1868 43.2969 14.6084 43.0098 15.0049C42.7272 15.3968 42.3604 15.693 41.9092 15.8936C42.4561 16.0804 42.8708 16.3743 43.1533 16.7754C43.4404 17.1764 43.584 17.6549 43.584 18.2109C43.584 19.1042 43.2764 19.8151 42.6611 20.3438C42.0505 20.8724 41.2461 21.1367 40.248 21.1367C39.291 21.1367 38.5072 20.8815 37.8965 20.3711C37.2858 19.8607 36.9805 19.1816 36.9805 18.334H38.6416C38.6416 18.7715 38.7874 19.127 39.0791 19.4004C39.3753 19.6738 39.7718 19.8105 40.2686 19.8105C40.7835 19.8105 41.1891 19.6738 41.4854 19.4004C41.7816 19.127 41.9297 18.7305 41.9297 18.2109C41.9297 17.6868 41.7747 17.2835 41.4648 17.001C41.1549 16.7184 40.6947 16.5771 40.084 16.5771H39.1064V15.2646ZM51.835 21H45.1426V19.8584L48.458 16.2422C48.9365 15.709 49.276 15.2646 49.4766 14.9092C49.6816 14.5492 49.7842 14.1891 49.7842 13.8291C49.7842 13.3551 49.6497 12.9723 49.3809 12.6807C49.1165 12.389 48.7588 12.2432 48.3076 12.2432C47.7699 12.2432 47.3529 12.4072 47.0566 12.7354C46.7604 13.0635 46.6123 13.5124 46.6123 14.082H44.9512C44.9512 13.4759 45.0879 12.9313 45.3613 12.4482C45.6393 11.9606 46.0335 11.5824 46.5439 11.3135C47.0589 11.0446 47.6514 10.9102 48.3213 10.9102C49.2874 10.9102 50.0485 11.154 50.6045 11.6416C51.165 12.1247 51.4453 12.7946 51.4453 13.6514C51.4453 14.1481 51.304 14.6699 51.0215 15.2168C50.7435 15.7591 50.2855 16.3766 49.6475 17.0693L47.2139 19.6738H51.835V21ZM58.582 19.6191H63.1006V21H56.8525V11.0469H58.582V19.6191ZM67.5234 21.1367C66.4707 21.1367 65.6162 20.8063 64.96 20.1455C64.3083 19.4801 63.9824 18.596 63.9824 17.4932V17.2881C63.9824 16.5498 64.1237 15.8913 64.4062 15.3125C64.6934 14.7292 65.0944 14.2757 65.6094 13.9521C66.1243 13.6286 66.6986 13.4668 67.332 13.4668C68.3392 13.4668 69.1162 13.7881 69.6631 14.4307C70.2145 15.0732 70.4902 15.9824 70.4902 17.1582V17.8281H65.6572C65.7074 18.4388 65.9102 18.9219 66.2656 19.2773C66.6257 19.6328 67.0768 19.8105 67.6191 19.8105C68.3802 19.8105 69 19.5029 69.4785 18.8877L70.374 19.7422C70.0778 20.1842 69.6813 20.5283 69.1846 20.7744C68.6924 21.016 68.1387 21.1367 67.5234 21.1367ZM67.3252 14.7998C66.8695 14.7998 66.5003 14.9593 66.2178 15.2783C65.9398 15.5973 65.762 16.0417 65.6846 16.6113H68.8496V16.4883C68.8132 15.9323 68.665 15.513 68.4053 15.2305C68.1455 14.9434 67.7855 14.7998 67.3252 14.7998ZM72.3701 21V14.834H71.2422V13.6035H72.3701V12.9268C72.3701 12.1064 72.598 11.473 73.0537 11.0264C73.5094 10.5798 74.1475 10.3564 74.9678 10.3564C75.2594 10.3564 75.5693 10.3975 75.8975 10.4795L75.8564 11.7783C75.6742 11.7419 75.4622 11.7236 75.2207 11.7236C74.4277 11.7236 74.0312 12.1315 74.0312 12.9473V13.6035H75.5352V14.834H74.0312V21H72.3701ZM78.8301 11.8057V13.6035H80.1357V14.834H78.8301V18.9629C78.8301 19.2454 78.8848 19.4505 78.9941 19.5781C79.1081 19.7012 79.3086 19.7627 79.5957 19.7627C79.7871 19.7627 79.9808 19.7399 80.1768 19.6943V20.9795C79.7985 21.0843 79.4339 21.1367 79.083 21.1367C77.807 21.1367 77.1689 20.4326 77.1689 19.0244V14.834H75.9521V13.6035H77.1689V11.8057H78.8301Z" fill="#4B6C89"/>
<path d="M16 1H81V-1H16V1ZM81 31H16V33H81V31ZM16 31C7.71573 31 1 24.2843 1 16H-1C-1 25.3888 6.61116 33 16 33V31ZM96 16C96 24.2843 89.2843 31 81 31V33C90.3888 33 98 25.3888 98 16H96ZM81 1C89.2843 1 96 7.71573 96 16H98C98 6.61116 90.3888 -1 81 -1V1ZM16 -1C6.61116 -1 -1 6.61116 -1 16H1C1 7.71573 7.71573 1 16 1V-1Z" fill="#B7C4D0"/>
</svg>
