<svg width="452" height="52" viewBox="0 0 452 52" fill="none" xmlns="http://www.w3.org/2000/svg">
<rect x="0.5" y="20.5" width="451" height="31" rx="3.5" fill="#F6F7F9"/>
<path d="M16.0879 36.5635C14.9622 36.2399 14.1419 35.8434 13.627 35.374C13.1165 34.9001 12.8613 34.3167 12.8613 33.624C12.8613 32.8402 13.1735 32.193 13.7979 31.6826C14.4268 31.1676 15.2425 30.9102 16.2451 30.9102C16.9287 30.9102 17.5371 31.0423 18.0703 31.3066C18.6081 31.571 19.0228 31.9355 19.3145 32.4004C19.6107 32.8652 19.7588 33.3734 19.7588 33.9248H18.4395C18.4395 33.3232 18.248 32.8516 17.8652 32.5098C17.4824 32.1634 16.9424 31.9902 16.2451 31.9902C15.598 31.9902 15.0921 32.1338 14.7275 32.4209C14.3675 32.7035 14.1875 33.0977 14.1875 33.6035C14.1875 34.0091 14.3584 34.3532 14.7002 34.6357C15.0465 34.9137 15.6322 35.1689 16.457 35.4014C17.2865 35.6338 17.9336 35.8913 18.3984 36.1738C18.8678 36.4518 19.2142 36.7777 19.4375 37.1514C19.6654 37.5251 19.7793 37.9648 19.7793 38.4707C19.7793 39.2773 19.4648 39.9245 18.8359 40.4121C18.207 40.8952 17.3662 41.1367 16.3135 41.1367C15.6299 41.1367 14.9919 41.0068 14.3994 40.7471C13.807 40.4827 13.349 40.1227 13.0254 39.667C12.7064 39.2113 12.5469 38.694 12.5469 38.1152H13.8662C13.8662 38.7168 14.0872 39.193 14.5293 39.5439C14.9759 39.8903 15.5706 40.0635 16.3135 40.0635C17.0062 40.0635 17.5371 39.9222 17.9062 39.6396C18.2754 39.3571 18.46 38.972 18.46 38.4844C18.46 37.9967 18.2891 37.6208 17.9473 37.3564C17.6055 37.0876 16.9857 36.8232 16.0879 36.5635ZM25.8359 41C25.763 40.8542 25.7038 40.5944 25.6582 40.2207C25.0703 40.8314 24.3685 41.1367 23.5527 41.1367C22.8236 41.1367 22.2243 40.9316 21.7549 40.5215C21.29 40.1068 21.0576 39.5827 21.0576 38.9492C21.0576 38.179 21.3493 37.582 21.9326 37.1582C22.5205 36.7298 23.3454 36.5156 24.4072 36.5156H25.6377V35.9346C25.6377 35.4925 25.5055 35.1416 25.2412 34.8818C24.9769 34.6175 24.5872 34.4854 24.0723 34.4854C23.6211 34.4854 23.2428 34.5993 22.9375 34.8271C22.6322 35.055 22.4795 35.3307 22.4795 35.6543H21.208C21.208 35.2852 21.3379 34.9297 21.5977 34.5879C21.862 34.2415 22.2174 33.9681 22.6641 33.7676C23.1152 33.5671 23.6097 33.4668 24.1475 33.4668C24.9997 33.4668 25.6673 33.681 26.1504 34.1094C26.6335 34.5332 26.8841 35.1188 26.9023 35.8662V39.2705C26.9023 39.9495 26.9889 40.4896 27.1621 40.8906V41H25.8359ZM23.7373 40.0361C24.1338 40.0361 24.5098 39.9336 24.8652 39.7285C25.2207 39.5234 25.4782 39.2568 25.6377 38.9287V37.4111H24.6465C23.097 37.4111 22.3223 37.8646 22.3223 38.7715C22.3223 39.168 22.4544 39.4779 22.7188 39.7012C22.9831 39.9245 23.3226 40.0361 23.7373 40.0361ZM33.4512 40.2686C32.959 40.8473 32.2367 41.1367 31.2842 41.1367C30.4958 41.1367 29.8942 40.9089 29.4795 40.4531C29.0693 39.9928 28.862 39.3138 28.8574 38.416V33.6035H30.1221V38.3818C30.1221 39.5029 30.5778 40.0635 31.4893 40.0635C32.4554 40.0635 33.098 39.7035 33.417 38.9834V33.6035H34.6816V41H33.4785L33.4512 40.2686ZM36.3018 37.2402C36.3018 36.1055 36.5706 35.194 37.1084 34.5059C37.6462 33.8132 38.3503 33.4668 39.2207 33.4668C40.0866 33.4668 40.7725 33.763 41.2783 34.3555V30.5H42.543V41H41.3809L41.3193 40.207C40.8135 40.8268 40.1094 41.1367 39.207 41.1367C38.3503 41.1367 37.6507 40.7858 37.1084 40.084C36.5706 39.3822 36.3018 38.4661 36.3018 37.3359V37.2402ZM37.5664 37.3838C37.5664 38.2223 37.7396 38.8786 38.0859 39.3525C38.4323 39.8265 38.9108 40.0635 39.5215 40.0635C40.3236 40.0635 40.9092 39.7035 41.2783 38.9834V35.5859C40.9001 34.8887 40.319 34.54 39.5352 34.54C38.9154 34.54 38.4323 34.7793 38.0859 35.2578C37.7396 35.7363 37.5664 36.445 37.5664 37.3838ZM45.8857 41H44.6211V33.6035H45.8857V41ZM44.5186 31.6416C44.5186 31.4365 44.5801 31.2633 44.7031 31.1221C44.8307 30.9808 45.0176 30.9102 45.2637 30.9102C45.5098 30.9102 45.6966 30.9808 45.8242 31.1221C45.9518 31.2633 46.0156 31.4365 46.0156 31.6416C46.0156 31.8467 45.9518 32.0176 45.8242 32.1543C45.6966 32.291 45.5098 32.3594 45.2637 32.3594C45.0176 32.3594 44.8307 32.291 44.7031 32.1543C44.5801 32.0176 44.5186 31.8467 44.5186 31.6416ZM57.083 38.4023H52.9131L51.9766 41H50.623L54.4238 31.0469H55.5723L59.3799 41H58.0332L57.083 38.4023ZM53.3096 37.3223H56.6934L54.998 32.667L53.3096 37.3223ZM64.0967 34.7383C63.9053 34.7064 63.6979 34.6904 63.4746 34.6904C62.6452 34.6904 62.0824 35.0436 61.7861 35.75V41H60.5215V33.6035H61.752L61.7725 34.458C62.1872 33.7972 62.7751 33.4668 63.5361 33.4668C63.7822 33.4668 63.9691 33.4987 64.0967 33.5625V34.7383ZM69.5586 41C69.4857 40.8542 69.4264 40.5944 69.3809 40.2207C68.793 40.8314 68.0911 41.1367 67.2754 41.1367C66.5462 41.1367 65.9469 40.9316 65.4775 40.5215C65.0127 40.1068 64.7803 39.5827 64.7803 38.9492C64.7803 38.179 65.0719 37.582 65.6553 37.1582C66.2432 36.7298 67.068 36.5156 68.1299 36.5156H69.3604V35.9346C69.3604 35.4925 69.2282 35.1416 68.9639 34.8818C68.6995 34.6175 68.3099 34.4854 67.7949 34.4854C67.3438 34.4854 66.9655 34.5993 66.6602 34.8271C66.3548 35.055 66.2021 35.3307 66.2021 35.6543H64.9307C64.9307 35.2852 65.0605 34.9297 65.3203 34.5879C65.5846 34.2415 65.9401 33.9681 66.3867 33.7676C66.8379 33.5671 67.3324 33.4668 67.8701 33.4668C68.7223 33.4668 69.39 33.681 69.873 34.1094C70.3561 34.5332 70.6068 35.1188 70.625 35.8662V39.2705C70.625 39.9495 70.7116 40.4896 70.8848 40.8906V41H69.5586ZM67.46 40.0361C67.8564 40.0361 68.2324 39.9336 68.5879 39.7285C68.9434 39.5234 69.2008 39.2568 69.3604 38.9287V37.4111H68.3691C66.8197 37.4111 66.0449 37.8646 66.0449 38.7715C66.0449 39.168 66.1771 39.4779 66.4414 39.7012C66.7057 39.9245 67.0452 40.0361 67.46 40.0361ZM78.8691 37.3838C78.8691 38.514 78.6094 39.4232 78.0898 40.1113C77.5703 40.7949 76.873 41.1367 75.998 41.1367C75.0638 41.1367 74.3415 40.8063 73.8311 40.1455L73.7695 41H72.6074V30.5H73.8721V34.417C74.3825 33.7835 75.0866 33.4668 75.9844 33.4668C76.8822 33.4668 77.5863 33.8063 78.0967 34.4854C78.6117 35.1644 78.8691 36.0941 78.8691 37.2744V37.3838ZM77.6045 37.2402C77.6045 36.3789 77.4382 35.7135 77.1055 35.2441C76.7728 34.7747 76.2943 34.54 75.6699 34.54C74.8359 34.54 74.2367 34.9274 73.8721 35.7021V38.9014C74.2594 39.6761 74.8633 40.0635 75.6836 40.0635C76.2897 40.0635 76.7614 39.8288 77.0986 39.3594C77.4359 38.89 77.6045 38.1836 77.6045 37.2402ZM81.8428 41H80.5781V33.6035H81.8428V41ZM80.4756 31.6416C80.4756 31.4365 80.5371 31.2633 80.6602 31.1221C80.7878 30.9808 80.9746 30.9102 81.2207 30.9102C81.4668 30.9102 81.6536 30.9808 81.7812 31.1221C81.9089 31.2633 81.9727 31.4365 81.9727 31.6416C81.9727 31.8467 81.9089 32.0176 81.7812 32.1543C81.6536 32.291 81.4668 32.3594 81.2207 32.3594C80.9746 32.3594 80.7878 32.291 80.6602 32.1543C80.5371 32.0176 80.4756 31.8467 80.4756 31.6416ZM88.4395 41C88.3665 40.8542 88.3073 40.5944 88.2617 40.2207C87.6738 40.8314 86.972 41.1367 86.1562 41.1367C85.4271 41.1367 84.8278 40.9316 84.3584 40.5215C83.8936 40.1068 83.6611 39.5827 83.6611 38.9492C83.6611 38.179 83.9528 37.582 84.5361 37.1582C85.124 36.7298 85.9489 36.5156 87.0107 36.5156H88.2412V35.9346C88.2412 35.4925 88.109 35.1416 87.8447 34.8818C87.5804 34.6175 87.1908 34.4854 86.6758 34.4854C86.2246 34.4854 85.8464 34.5993 85.541 34.8271C85.2357 35.055 85.083 35.3307 85.083 35.6543H83.8115C83.8115 35.2852 83.9414 34.9297 84.2012 34.5879C84.4655 34.2415 84.821 33.9681 85.2676 33.7676C85.7188 33.5671 86.2132 33.4668 86.751 33.4668C87.6032 33.4668 88.2708 33.681 88.7539 34.1094C89.237 34.5332 89.4876 35.1188 89.5059 35.8662V39.2705C89.5059 39.9495 89.5924 40.4896 89.7656 40.8906V41H88.4395ZM86.3408 40.0361C86.7373 40.0361 87.1133 39.9336 87.4688 39.7285C87.8242 39.5234 88.0817 39.2568 88.2412 38.9287V37.4111H87.25C85.7005 37.4111 84.9258 37.8646 84.9258 38.7715C84.9258 39.168 85.0579 39.4779 85.3223 39.7012C85.5866 39.9245 85.9261 40.0361 86.3408 40.0361Z" fill="#606060"/>
<path fill-rule="evenodd" clip-rule="evenodd" d="M438.633 34.6402C439.176 33.9889 438.713 33 437.865 33H432.135C431.287 33 430.824 33.9889 431.367 34.6402L434.232 38.0781C434.632 38.5579 435.368 38.5579 435.768 38.0781L438.633 34.6402Z" fill="#4B6C89"/>
<rect x="0.5" y="20.5" width="451" height="31" rx="3.5" stroke="#B7C4D0"/>
<path d="M0.990234 11V2.46875H3.39844C4.14062 2.46875 4.79688 2.63281 5.36719 2.96094C5.9375 3.28906 6.37695 3.75586 6.68555 4.36133C6.99805 4.9668 7.15625 5.66211 7.16016 6.44727V6.99219C7.16016 7.79688 7.00391 8.50195 6.69141 9.10742C6.38281 9.71289 5.93945 10.1777 5.36133 10.502C4.78711 10.8262 4.11719 10.9922 3.35156 11H0.990234ZM2.11523 3.39453V10.0801H3.29883C4.16602 10.0801 4.83984 9.81055 5.32031 9.27148C5.80469 8.73242 6.04688 7.96484 6.04688 6.96875V6.4707C6.04688 5.50195 5.81836 4.75 5.36133 4.21484C4.9082 3.67578 4.26367 3.40234 3.42773 3.39453H2.11523ZM9.87305 11H8.78906V4.66016H9.87305V11ZM8.70117 2.97852C8.70117 2.80273 8.75391 2.6543 8.85938 2.5332C8.96875 2.41211 9.12891 2.35156 9.33984 2.35156C9.55078 2.35156 9.71094 2.41211 9.82031 2.5332C9.92969 2.6543 9.98438 2.80273 9.98438 2.97852C9.98438 3.1543 9.92969 3.30078 9.82031 3.41797C9.71094 3.53516 9.55078 3.59375 9.33984 3.59375C9.12891 3.59375 8.96875 3.53516 8.85938 3.41797C8.75391 3.30078 8.70117 3.1543 8.70117 2.97852ZM15.3047 9.31836C15.3047 9.02539 15.1934 8.79883 14.9707 8.63867C14.752 8.47461 14.3672 8.33398 13.8164 8.2168C13.2695 8.09961 12.834 7.95898 12.5098 7.79492C12.1895 7.63086 11.9512 7.43555 11.7949 7.20898C11.6426 6.98242 11.5664 6.71289 11.5664 6.40039C11.5664 5.88086 11.7852 5.44141 12.2227 5.08203C12.6641 4.72266 13.2266 4.54297 13.9102 4.54297C14.6289 4.54297 15.2109 4.72852 15.6562 5.09961C16.1055 5.4707 16.3301 5.94531 16.3301 6.52344H15.2402C15.2402 6.22656 15.1133 5.9707 14.8594 5.75586C14.6094 5.54102 14.293 5.43359 13.9102 5.43359C13.5156 5.43359 13.207 5.51953 12.9844 5.69141C12.7617 5.86328 12.6504 6.08789 12.6504 6.36523C12.6504 6.62695 12.7539 6.82422 12.9609 6.95703C13.168 7.08984 13.541 7.2168 14.0801 7.33789C14.623 7.45898 15.0625 7.60352 15.3984 7.77148C15.7344 7.93945 15.9824 8.14258 16.1426 8.38086C16.3066 8.61523 16.3887 8.90234 16.3887 9.24219C16.3887 9.80859 16.1621 10.2637 15.709 10.6074C15.2559 10.9473 14.668 11.1172 13.9453 11.1172C13.4375 11.1172 12.9883 11.0273 12.5977 10.8477C12.207 10.668 11.9004 10.418 11.6777 10.0977C11.459 9.77344 11.3496 9.42383 11.3496 9.04883H12.4336C12.4531 9.41211 12.5977 9.70117 12.8672 9.91602C13.1406 10.127 13.5 10.2324 13.9453 10.2324C14.3555 10.2324 14.6836 10.1504 14.9297 9.98633C15.1797 9.81836 15.3047 9.5957 15.3047 9.31836ZM21.7148 11C21.6523 10.875 21.6016 10.6523 21.5625 10.332C21.0586 10.8555 20.457 11.1172 19.7578 11.1172C19.1328 11.1172 18.6191 10.9414 18.2168 10.5898C17.8184 10.2344 17.6191 9.78516 17.6191 9.24219C17.6191 8.58203 17.8691 8.07031 18.3691 7.70703C18.873 7.33984 19.5801 7.15625 20.4902 7.15625H21.5449V6.6582C21.5449 6.2793 21.4316 5.97852 21.2051 5.75586C20.9785 5.5293 20.6445 5.41602 20.2031 5.41602C19.8164 5.41602 19.4922 5.51367 19.2305 5.70898C18.9688 5.9043 18.8379 6.14062 18.8379 6.41797H17.748C17.748 6.10156 17.8594 5.79688 18.082 5.50391C18.3086 5.20703 18.6133 4.97266 18.9961 4.80078C19.3828 4.62891 19.8066 4.54297 20.2676 4.54297C20.998 4.54297 21.5703 4.72656 21.9844 5.09375C22.3984 5.45703 22.6133 5.95898 22.6289 6.59961V9.51758C22.6289 10.0996 22.7031 10.5625 22.8516 10.9062V11H21.7148ZM19.916 10.1738C20.2559 10.1738 20.5781 10.0859 20.8828 9.91016C21.1875 9.73438 21.4082 9.50586 21.5449 9.22461V7.92383H20.6953C19.3672 7.92383 18.7031 8.3125 18.7031 9.08984C18.7031 9.42969 18.8164 9.69531 19.043 9.88672C19.2695 10.0781 19.5605 10.1738 19.916 10.1738ZM29.6953 7.90039C29.6953 8.86914 29.4727 9.64844 29.0273 10.2383C28.582 10.8242 27.9844 11.1172 27.2344 11.1172C26.4336 11.1172 25.8145 10.834 25.377 10.2676L25.3242 11H24.3281V2H25.4121V5.35742C25.8496 4.81445 26.4531 4.54297 27.2227 4.54297C27.9922 4.54297 28.5957 4.83398 29.0332 5.41602C29.4746 5.99805 29.6953 6.79492 29.6953 7.80664V7.90039ZM28.6113 7.77734C28.6113 7.03906 28.4688 6.46875 28.1836 6.06641C27.8984 5.66406 27.4883 5.46289 26.9531 5.46289C26.2383 5.46289 25.7246 5.79492 25.4121 6.45898V9.20117C25.7441 9.86523 26.2617 10.1973 26.9648 10.1973C27.4844 10.1973 27.8887 9.99609 28.1777 9.59375C28.4668 9.19141 28.6113 8.58594 28.6113 7.77734ZM32.2441 11H31.1602V2H32.2441V11ZM36.6152 11.1172C35.7559 11.1172 35.0566 10.8359 34.5176 10.2734C33.9785 9.70703 33.709 8.95117 33.709 8.00586V7.80664C33.709 7.17773 33.8281 6.61719 34.0664 6.125C34.3086 5.62891 34.6445 5.24219 35.0742 4.96484C35.5078 4.68359 35.9766 4.54297 36.4805 4.54297C37.3047 4.54297 37.9453 4.81445 38.4023 5.35742C38.8594 5.90039 39.0879 6.67773 39.0879 7.68945V8.14062H34.793C34.8086 8.76562 34.9902 9.27148 35.3379 9.6582C35.6895 10.041 36.1348 10.2324 36.6738 10.2324C37.0566 10.2324 37.3809 10.1543 37.6465 9.99805C37.9121 9.8418 38.1445 9.63477 38.3438 9.37695L39.0059 9.89258C38.4746 10.709 37.6777 11.1172 36.6152 11.1172ZM36.4805 5.43359C36.043 5.43359 35.6758 5.59375 35.3789 5.91406C35.082 6.23047 34.8984 6.67578 34.8281 7.25H38.0039V7.16797C37.9727 6.61719 37.8242 6.19141 37.5586 5.89062C37.293 5.58594 36.9336 5.43359 36.4805 5.43359ZM40.084 7.77734C40.084 6.80469 40.3145 6.02344 40.7754 5.43359C41.2363 4.83984 41.8398 4.54297 42.5859 4.54297C43.3281 4.54297 43.916 4.79688 44.3496 5.30469V2H45.4336V11H44.4375L44.3848 10.3203C43.9512 10.8516 43.3477 11.1172 42.5742 11.1172C41.8398 11.1172 41.2402 10.8164 40.7754 10.2148C40.3145 9.61328 40.084 8.82812 40.084 7.85938V7.77734ZM41.168 7.90039C41.168 8.61914 41.3164 9.18164 41.6133 9.58789C41.9102 9.99414 42.3203 10.1973 42.8438 10.1973C43.5312 10.1973 44.0332 9.88867 44.3496 9.27148V6.35938C44.0254 5.76172 43.5273 5.46289 42.8555 5.46289C42.3242 5.46289 41.9102 5.66797 41.6133 6.07812C41.3164 6.48828 41.168 7.0957 41.168 7.90039Z" fill="#6F89A1"/>
</svg>
