<svg width="108" height="24" viewBox="0 0 108 24" fill="none" xmlns="http://www.w3.org/2000/svg">
<path opacity="0.2" fill-rule="evenodd" clip-rule="evenodd" d="M0 8C0 3.58172 3.58172 0 8 0H100C104.418 0 108 3.58172 108 8V16C108 20.4183 104.418 24 100 24H8C3.58172 24 0 20.4183 0 16V8Z" fill="#31B407"/>
<path d="M34.5938 13.3818V17H33.375V7.75781H36.7837C37.7951 7.75781 38.5864 8.01595 39.1577 8.53223C39.7332 9.0485 40.021 9.73193 40.021 10.5825C40.021 11.4797 39.7396 12.1715 39.1768 12.6582C38.6182 13.1406 37.8162 13.3818 36.771 13.3818H34.5938ZM34.5938 12.3853H36.7837C37.4354 12.3853 37.9347 12.2329 38.2817 11.9282C38.6287 11.6193 38.8022 11.175 38.8022 10.5952C38.8022 10.0451 38.6287 9.60498 38.2817 9.2749C37.9347 8.94482 37.4587 8.77344 36.8535 8.76074H34.5938V12.3853ZM44.7119 11.1855C44.5342 11.1559 44.3416 11.1411 44.1343 11.1411C43.3641 11.1411 42.8415 11.4691 42.5664 12.125V17H41.3921V10.1318H42.5347L42.5537 10.9253C42.9388 10.3117 43.4847 10.0049 44.1914 10.0049C44.4199 10.0049 44.5934 10.0345 44.7119 10.0938V11.1855ZM48.5205 17.127C47.5895 17.127 46.832 16.8223 46.248 16.2129C45.6641 15.5993 45.3721 14.7804 45.3721 13.7563V13.5405C45.3721 12.8592 45.5011 12.252 45.7593 11.7188C46.0216 11.1813 46.3856 10.7624 46.8511 10.4619C47.3208 10.1572 47.8286 10.0049 48.3745 10.0049C49.2674 10.0049 49.9614 10.299 50.4565 10.8872C50.9517 11.4754 51.1992 12.3175 51.1992 13.4136V13.9023H46.5464C46.5633 14.5794 46.7601 15.1274 47.1367 15.5464C47.5176 15.9611 48 16.1685 48.584 16.1685C48.9987 16.1685 49.3499 16.0838 49.6377 15.9146C49.9255 15.7453 50.1772 15.521 50.3931 15.2417L51.1104 15.8003C50.5348 16.6847 49.6715 17.127 48.5205 17.127ZM48.3745 10.9697C47.9006 10.9697 47.5028 11.1432 47.1812 11.4902C46.8595 11.833 46.6606 12.3154 46.5845 12.9375H50.0249V12.8486C49.991 12.252 49.8302 11.7907 49.5425 11.4648C49.2547 11.1348 48.8654 10.9697 48.3745 10.9697ZM56.563 15.1782C56.563 14.8608 56.4424 14.6154 56.2012 14.4419C55.9642 14.2642 55.5474 14.1118 54.9507 13.9849C54.3582 13.8579 53.8864 13.7056 53.5352 13.5278C53.1882 13.3501 52.93 13.1385 52.7607 12.8931C52.5957 12.6476 52.5132 12.3556 52.5132 12.0171C52.5132 11.4543 52.7502 10.9782 53.2241 10.5889C53.7023 10.1995 54.3117 10.0049 55.0522 10.0049C55.8309 10.0049 56.4614 10.2059 56.9438 10.6079C57.4305 11.0099 57.6738 11.5241 57.6738 12.1504H56.4932C56.4932 11.8288 56.3556 11.5516 56.0806 11.3188C55.8097 11.0861 55.467 10.9697 55.0522 10.9697C54.6248 10.9697 54.2905 11.0628 54.0493 11.249C53.8081 11.4352 53.6875 11.6785 53.6875 11.979C53.6875 12.2625 53.7996 12.4762 54.0239 12.6201C54.2482 12.764 54.6523 12.9015 55.2363 13.0327C55.8245 13.1639 56.3006 13.3205 56.6646 13.5024C57.0285 13.6844 57.2972 13.9045 57.4707 14.1626C57.6484 14.4165 57.7373 14.7275 57.7373 15.0957C57.7373 15.7093 57.4919 16.2023 57.001 16.5747C56.5101 16.9429 55.8732 17.127 55.0903 17.127C54.5402 17.127 54.0535 17.0296 53.6304 16.835C53.2072 16.6403 52.875 16.3695 52.6338 16.0225C52.3968 15.6712 52.2783 15.2925 52.2783 14.8862H53.4526C53.4738 15.2798 53.6304 15.5929 53.9224 15.8257C54.2186 16.0542 54.6079 16.1685 55.0903 16.1685C55.5347 16.1685 55.8901 16.0796 56.1567 15.9019C56.4276 15.7199 56.563 15.4787 56.563 15.1782ZM62.1172 17.127C61.1862 17.127 60.4287 16.8223 59.8447 16.2129C59.2607 15.5993 58.9688 14.7804 58.9688 13.7563V13.5405C58.9688 12.8592 59.0978 12.252 59.356 11.7188C59.6183 11.1813 59.9823 10.7624 60.4478 10.4619C60.9175 10.1572 61.4253 10.0049 61.9712 10.0049C62.8641 10.0049 63.5581 10.299 64.0532 10.8872C64.5483 11.4754 64.7959 12.3175 64.7959 13.4136V13.9023H60.1431C60.16 14.5794 60.3568 15.1274 60.7334 15.5464C61.1143 15.9611 61.5967 16.1685 62.1807 16.1685C62.5954 16.1685 62.9466 16.0838 63.2344 15.9146C63.5221 15.7453 63.7739 15.521 63.9897 15.2417L64.707 15.8003C64.1315 16.6847 63.2682 17.127 62.1172 17.127ZM61.9712 10.9697C61.4972 10.9697 61.0994 11.1432 60.7778 11.4902C60.4562 11.833 60.2573 12.3154 60.1812 12.9375H63.6216V12.8486C63.5877 12.252 63.4269 11.7907 63.1392 11.4648C62.8514 11.1348 62.4621 10.9697 61.9712 10.9697ZM67.2715 10.1318L67.3096 10.9951C67.8343 10.335 68.5199 10.0049 69.3662 10.0049C70.8177 10.0049 71.5498 10.8237 71.5625 12.4614V17H70.3882V12.4551C70.384 11.96 70.2697 11.5939 70.0454 11.3569C69.8254 11.12 69.4805 11.0015 69.0107 11.0015C68.6299 11.0015 68.2956 11.103 68.0078 11.3062C67.7201 11.5093 67.4958 11.7759 67.335 12.106V17H66.1606V10.1318H67.2715ZM74.9268 8.46875V10.1318H76.209V11.0396H74.9268V15.2988C74.9268 15.5739 74.9839 15.7812 75.0981 15.9209C75.2124 16.0563 75.4071 16.124 75.6821 16.124C75.8175 16.124 76.0037 16.0986 76.2407 16.0479V17C75.9318 17.0846 75.6313 17.127 75.3394 17.127C74.8146 17.127 74.4189 16.9683 74.1523 16.6509C73.8857 16.3335 73.7524 15.8828 73.7524 15.2988V11.0396H72.502V10.1318H73.7524V8.46875H74.9268Z" fill="#606060"/>
</svg>
