<svg width="320" height="28" viewBox="0 0 320 28" fill="none" xmlns="http://www.w3.org/2000/svg">
<path d="M0 14C0 6.26801 6.26801 0 14 0H306C313.732 0 320 6.26801 320 14V14C320 21.732 313.732 28 306 28H14C6.26801 28 0 21.732 0 14V14Z" fill="white"/>
<path d="M37.8506 9.04688L41.1045 17.168L44.3584 9.04688H46.0605V19H44.748V15.124L44.8711 10.9404L41.6035 19H40.5986L37.3379 10.9609L37.4678 15.124V19H36.1553V9.04688H37.8506ZM47.8447 15.2334C47.8447 14.5088 47.986 13.8571 48.2686 13.2783C48.5557 12.6995 48.9521 12.2529 49.458 11.9385C49.9684 11.624 50.5495 11.4668 51.2012 11.4668C52.2083 11.4668 53.0218 11.8154 53.6416 12.5127C54.266 13.21 54.5781 14.1374 54.5781 15.2949V15.3838C54.5781 16.1038 54.4391 16.751 54.1611 17.3252C53.8877 17.8949 53.4935 18.3392 52.9785 18.6582C52.4681 18.9772 51.8802 19.1367 51.2148 19.1367C50.2122 19.1367 49.3988 18.7881 48.7744 18.0908C48.1546 17.3936 47.8447 16.4707 47.8447 15.3223V15.2334ZM49.1162 15.3838C49.1162 16.2041 49.3053 16.8626 49.6836 17.3594C50.0664 17.8561 50.5768 18.1045 51.2148 18.1045C51.8574 18.1045 52.3678 17.8538 52.7461 17.3525C53.1243 16.8467 53.3135 16.1403 53.3135 15.2334C53.3135 14.4222 53.1198 13.766 52.7324 13.2646C52.3496 12.7588 51.8392 12.5059 51.2012 12.5059C50.5768 12.5059 50.0732 12.7542 49.6904 13.251C49.3076 13.7477 49.1162 14.4587 49.1162 15.3838ZM57.4287 12.499C57.9893 11.8109 58.7184 11.4668 59.6162 11.4668C61.1794 11.4668 61.9678 12.3486 61.9814 14.1123V19H60.7168V14.1055C60.7122 13.5723 60.5892 13.1781 60.3477 12.9229C60.1107 12.6676 59.7393 12.54 59.2334 12.54C58.8232 12.54 58.4632 12.6494 58.1533 12.8682C57.8434 13.0869 57.6019 13.374 57.4287 13.7295V19H56.1641V8.5H57.4287V12.499ZM68.4414 19C68.3685 18.8542 68.3092 18.5944 68.2637 18.2207C67.6758 18.8314 66.974 19.1367 66.1582 19.1367C65.429 19.1367 64.8298 18.9316 64.3604 18.5215C63.8955 18.1068 63.6631 17.5827 63.6631 16.9492C63.6631 16.179 63.9548 15.582 64.5381 15.1582C65.126 14.7298 65.9508 14.5156 67.0127 14.5156H68.2432V13.9346C68.2432 13.4925 68.111 13.1416 67.8467 12.8818C67.5824 12.6175 67.1927 12.4854 66.6777 12.4854C66.2266 12.4854 65.8483 12.5993 65.543 12.8271C65.2376 13.055 65.085 13.3307 65.085 13.6543H63.8135C63.8135 13.2852 63.9434 12.9297 64.2031 12.5879C64.4674 12.2415 64.8229 11.9681 65.2695 11.7676C65.7207 11.5671 66.2152 11.4668 66.7529 11.4668C67.6051 11.4668 68.2728 11.681 68.7559 12.1094C69.2389 12.5332 69.4896 13.1188 69.5078 13.8662V17.2705C69.5078 17.9495 69.5944 18.4896 69.7676 18.8906V19H68.4414ZM66.3428 18.0361C66.7393 18.0361 67.1152 17.9336 67.4707 17.7285C67.8262 17.5234 68.0837 17.2568 68.2432 16.9287V15.4111H67.252C65.7025 15.4111 64.9277 15.8646 64.9277 16.7715C64.9277 17.168 65.0599 17.4779 65.3242 17.7012C65.5885 17.9245 65.9281 18.0361 66.3428 18.0361ZM72.6797 11.6035L72.7139 12.4238C73.2562 11.7858 73.9876 11.4668 74.9082 11.4668C75.9427 11.4668 76.6468 11.8633 77.0205 12.6562C77.2666 12.3008 77.5856 12.0137 77.9775 11.7949C78.374 11.5762 78.8411 11.4668 79.3789 11.4668C81.0013 11.4668 81.8262 12.3258 81.8535 14.0439V19H80.5889V14.1191C80.5889 13.5905 80.4681 13.1963 80.2266 12.9365C79.985 12.6722 79.5794 12.54 79.0098 12.54C78.5404 12.54 78.1507 12.6813 77.8408 12.9639C77.5309 13.2419 77.3509 13.6178 77.3008 14.0918V19H76.0293V14.1533C76.0293 13.0778 75.5029 12.54 74.4502 12.54C73.6208 12.54 73.0534 12.8932 72.748 13.5996V19H71.4834V11.6035H72.6797ZM84.957 11.6035L84.9912 12.4238C85.5335 11.7858 86.265 11.4668 87.1855 11.4668C88.2201 11.4668 88.9242 11.8633 89.2979 12.6562C89.5439 12.3008 89.863 12.0137 90.2549 11.7949C90.6514 11.5762 91.1185 11.4668 91.6562 11.4668C93.2786 11.4668 94.1035 12.3258 94.1309 14.0439V19H92.8662V14.1191C92.8662 13.5905 92.7454 13.1963 92.5039 12.9365C92.2624 12.6722 91.8568 12.54 91.2871 12.54C90.8177 12.54 90.4281 12.6813 90.1182 12.9639C89.8083 13.2419 89.6283 13.6178 89.5781 14.0918V19H88.3066V14.1533C88.3066 13.0778 87.7803 12.54 86.7275 12.54C85.8981 12.54 85.3307 12.8932 85.0254 13.5996V19H83.7607V11.6035H84.957ZM99.1143 19.1367C98.1117 19.1367 97.2959 18.8086 96.667 18.1523C96.0381 17.4915 95.7236 16.6097 95.7236 15.5068V15.2744C95.7236 14.5407 95.8626 13.8867 96.1406 13.3125C96.4232 12.7337 96.8151 12.2826 97.3164 11.959C97.8223 11.6309 98.3691 11.4668 98.957 11.4668C99.9186 11.4668 100.666 11.7835 101.199 12.417C101.732 13.0505 101.999 13.9574 101.999 15.1377V15.6641H96.9883C97.0065 16.3932 97.2184 16.9834 97.624 17.4346C98.0342 17.8812 98.5537 18.1045 99.1826 18.1045C99.6292 18.1045 100.007 18.0133 100.317 17.8311C100.627 17.6488 100.898 17.4072 101.131 17.1064L101.903 17.708C101.284 18.6605 100.354 19.1367 99.1143 19.1367ZM98.957 12.5059C98.4466 12.5059 98.0182 12.6927 97.6719 13.0664C97.3255 13.4355 97.1113 13.9551 97.0293 14.625H100.734V14.5293C100.698 13.8867 100.525 13.39 100.215 13.0391C99.9049 12.6836 99.4857 12.5059 98.957 12.5059ZM103.161 15.2402C103.161 14.1055 103.43 13.194 103.968 12.5059C104.506 11.8132 105.21 11.4668 106.08 11.4668C106.946 11.4668 107.632 11.763 108.138 12.3555V8.5H109.402V19H108.24L108.179 18.207C107.673 18.8268 106.969 19.1367 106.066 19.1367C105.21 19.1367 104.51 18.7858 103.968 18.084C103.43 17.3822 103.161 16.4661 103.161 15.3359V15.2402ZM104.426 15.3838C104.426 16.2223 104.599 16.8786 104.945 17.3525C105.292 17.8265 105.77 18.0635 106.381 18.0635C107.183 18.0635 107.769 17.7035 108.138 16.9834V13.5859C107.759 12.8887 107.178 12.54 106.395 12.54C105.775 12.54 105.292 12.7793 104.945 13.2578C104.599 13.7363 104.426 14.445 104.426 15.3838ZM120.538 16.4023H116.368L115.432 19H114.078L117.879 9.04688H119.027L122.835 19H121.488L120.538 16.4023ZM116.765 15.3223H120.148L118.453 10.667L116.765 15.3223ZM126.041 15.5752L125.248 16.4023V19H123.983V8.5H125.248V14.8506L125.925 14.0371L128.229 11.6035H129.767L126.889 14.6934L130.102 19H128.618L126.041 15.5752ZM133.137 15.5752L132.344 16.4023V19H131.079V8.5H132.344V14.8506L133.021 14.0371L135.324 11.6035H136.862L133.984 14.6934L137.197 19H135.714L133.137 15.5752ZM142.734 19C142.661 18.8542 142.602 18.5944 142.557 18.2207C141.969 18.8314 141.267 19.1367 140.451 19.1367C139.722 19.1367 139.123 18.9316 138.653 18.5215C138.188 18.1068 137.956 17.5827 137.956 16.9492C137.956 16.179 138.248 15.582 138.831 15.1582C139.419 14.7298 140.244 14.5156 141.306 14.5156H142.536V13.9346C142.536 13.4925 142.404 13.1416 142.14 12.8818C141.875 12.6175 141.486 12.4854 140.971 12.4854C140.52 12.4854 140.141 12.5993 139.836 12.8271C139.531 13.055 139.378 13.3307 139.378 13.6543H138.106C138.106 13.2852 138.236 12.9297 138.496 12.5879C138.76 12.2415 139.116 11.9681 139.562 11.7676C140.014 11.5671 140.508 11.4668 141.046 11.4668C141.898 11.4668 142.566 11.681 143.049 12.1094C143.532 12.5332 143.783 13.1188 143.801 13.8662V17.2705C143.801 17.9495 143.887 18.4896 144.061 18.8906V19H142.734ZM140.636 18.0361C141.032 18.0361 141.408 17.9336 141.764 17.7285C142.119 17.5234 142.377 17.2568 142.536 16.9287V15.4111H141.545C139.995 15.4111 139.221 15.8646 139.221 16.7715C139.221 17.168 139.353 17.4779 139.617 17.7012C139.882 17.9245 140.221 18.0361 140.636 18.0361ZM149.358 12.7383C149.167 12.7064 148.96 12.6904 148.736 12.6904C147.907 12.6904 147.344 13.0436 147.048 13.75V19H145.783V11.6035H147.014L147.034 12.458C147.449 11.7972 148.037 11.4668 148.798 11.4668C149.044 11.4668 149.231 11.4987 149.358 11.5625V12.7383Z" fill="#404040"/>
<path fill-rule="evenodd" clip-rule="evenodd" d="M27.1822 16.7705L28.7197 18.308C29.0981 18.6998 29.0927 19.3225 28.7076 19.7076C28.3225 20.0927 27.6998 20.0981 27.308 19.7197L25.7705 18.1822C23.6266 19.6012 20.7563 19.1659 19.1296 17.1749C17.5029 15.1839 17.6486 12.2845 19.4665 10.4665C21.2845 8.64856 24.1839 8.50294 26.1749 10.1296C28.1659 11.7563 28.6012 14.6266 27.1822 16.7705ZM23.022 11.0268C21.3678 11.0268 20.0268 12.3678 20.0268 14.022C20.0268 15.6761 21.3678 17.0171 23.022 17.0171C24.6761 17.0171 26.0171 15.6761 26.0171 14.022C26.0171 12.3678 24.6761 11.0268 23.022 11.0268Z" fill="#404040"/>
<path d="M14 1H306V-1H14V1ZM306 27H14V29H306V27ZM14 27C6.8203 27 1 21.1797 1 14H-1C-1 22.2843 5.71572 29 14 29V27ZM319 14C319 21.1797 313.18 27 306 27V29C314.284 29 321 22.2843 321 14H319ZM306 1C313.18 1 319 6.8203 319 14H321C321 5.71573 314.284 -1 306 -1V1ZM14 -1C5.71573 -1 -1 5.71573 -1 14H1C1 6.8203 6.8203 1 14 1V-1Z" fill="#0371FF"/>
</svg>
