<svg width="453" height="52" viewBox="0 0 453 52" fill="none" xmlns="http://www.w3.org/2000/svg">
<rect x="0.5" y="20.5" width="452" height="31" rx="3.5" fill="white"/>
<path d="M34.6514 38.4023H30.4814L29.5449 41H28.1914L31.9922 31.0469H33.1406L36.9482 41H35.6016L34.6514 38.4023ZM30.8779 37.3223H34.2617L32.5664 32.667L30.8779 37.3223ZM39.4639 41H38.1992V30.5H39.4639V41ZM42.8682 41H41.6035V30.5H42.8682V41ZM48.5693 41V31.0469H51.3789C52.2448 31.0469 53.0104 31.2383 53.6758 31.6211C54.3411 32.0039 54.8538 32.5485 55.2139 33.2549C55.5785 33.9613 55.763 34.7725 55.7676 35.6885V36.3242C55.7676 37.263 55.5853 38.0856 55.2207 38.792C54.8607 39.4984 54.3434 40.0407 53.6689 40.4189C52.999 40.7972 52.2174 40.9909 51.3242 41H48.5693ZM49.8818 32.127V39.9268H51.2627C52.2744 39.9268 53.0605 39.6123 53.6211 38.9834C54.1862 38.3545 54.4688 37.459 54.4688 36.2969V35.7158C54.4688 34.5856 54.2021 33.7083 53.6689 33.084C53.1403 32.4551 52.3883 32.1361 51.4131 32.127H49.8818ZM57.2236 37.2334C57.2236 36.5088 57.3649 35.8571 57.6475 35.2783C57.9346 34.6995 58.3311 34.2529 58.8369 33.9385C59.3473 33.624 59.9284 33.4668 60.5801 33.4668C61.5872 33.4668 62.4007 33.8154 63.0205 34.5127C63.6449 35.21 63.957 36.1374 63.957 37.2949V37.3838C63.957 38.1038 63.818 38.751 63.54 39.3252C63.2666 39.8949 62.8724 40.3392 62.3574 40.6582C61.847 40.9772 61.2591 41.1367 60.5938 41.1367C59.5911 41.1367 58.7777 40.7881 58.1533 40.0908C57.5335 39.3936 57.2236 38.4707 57.2236 37.3223V37.2334ZM58.4951 37.3838C58.4951 38.2041 58.6842 38.8626 59.0625 39.3594C59.4453 39.8561 59.9557 40.1045 60.5938 40.1045C61.2363 40.1045 61.7467 39.8538 62.125 39.3525C62.5033 38.8467 62.6924 38.1403 62.6924 37.2334C62.6924 36.4222 62.4987 35.766 62.1113 35.2646C61.7285 34.7588 61.2181 34.5059 60.5801 34.5059C59.9557 34.5059 59.4521 34.7542 59.0693 35.251C58.6865 35.7477 58.4951 36.4587 58.4951 37.3838ZM68.5098 40.1045C68.9609 40.1045 69.3551 39.9678 69.6924 39.6943C70.0296 39.4209 70.2165 39.0791 70.2529 38.6689H71.4492C71.4264 39.0928 71.2806 39.4961 71.0117 39.8789C70.7428 40.2617 70.3828 40.5671 69.9316 40.7949C69.485 41.0228 69.0111 41.1367 68.5098 41.1367C67.5026 41.1367 66.7005 40.8018 66.1035 40.1318C65.5111 39.4574 65.2148 38.5368 65.2148 37.3701V37.1582C65.2148 36.4382 65.347 35.7979 65.6113 35.2373C65.8757 34.6768 66.2539 34.2415 66.7461 33.9316C67.2428 33.6217 67.8285 33.4668 68.5029 33.4668C69.3324 33.4668 70.0205 33.7152 70.5674 34.2119C71.1188 34.7087 71.4128 35.3535 71.4492 36.1465H70.2529C70.2165 35.668 70.0342 35.276 69.7061 34.9707C69.3825 34.6608 68.9814 34.5059 68.5029 34.5059C67.8604 34.5059 67.3613 34.7383 67.0059 35.2031C66.6549 35.6634 66.4795 36.3311 66.4795 37.2061V37.4453C66.4795 38.2975 66.6549 38.9538 67.0059 39.4141C67.3568 39.8743 67.8581 40.1045 68.5098 40.1045ZM77.4375 40.2686C76.9453 40.8473 76.223 41.1367 75.2705 41.1367C74.4821 41.1367 73.8805 40.9089 73.4658 40.4531C73.0557 39.9928 72.8483 39.3138 72.8438 38.416V33.6035H74.1084V38.3818C74.1084 39.5029 74.5641 40.0635 75.4756 40.0635C76.4417 40.0635 77.0843 39.7035 77.4033 38.9834V33.6035H78.668V41H77.4648L77.4375 40.2686ZM81.7852 33.6035L81.8193 34.4238C82.3617 33.7858 83.0931 33.4668 84.0137 33.4668C85.0482 33.4668 85.7523 33.8633 86.126 34.6562C86.3721 34.3008 86.6911 34.0137 87.083 33.7949C87.4795 33.5762 87.9466 33.4668 88.4844 33.4668C90.1068 33.4668 90.9316 34.3258 90.959 36.0439V41H89.6943V36.1191C89.6943 35.5905 89.5736 35.1963 89.332 34.9365C89.0905 34.6722 88.6849 34.54 88.1152 34.54C87.6458 34.54 87.2562 34.6813 86.9463 34.9639C86.6364 35.2419 86.4564 35.6178 86.4062 36.0918V41H85.1348V36.1533C85.1348 35.0778 84.6084 34.54 83.5557 34.54C82.7262 34.54 82.1589 34.8932 81.8535 35.5996V41H80.5889V33.6035H81.7852ZM95.9424 41.1367C94.9398 41.1367 94.124 40.8086 93.4951 40.1523C92.8662 39.4915 92.5518 38.6097 92.5518 37.5068V37.2744C92.5518 36.5407 92.6908 35.8867 92.9688 35.3125C93.2513 34.7337 93.6432 34.2826 94.1445 33.959C94.6504 33.6309 95.1973 33.4668 95.7852 33.4668C96.7467 33.4668 97.4941 33.7835 98.0273 34.417C98.5605 35.0505 98.8271 35.9574 98.8271 37.1377V37.6641H93.8164C93.8346 38.3932 94.0465 38.9834 94.4521 39.4346C94.8623 39.8812 95.3818 40.1045 96.0107 40.1045C96.4574 40.1045 96.8356 40.0133 97.1455 39.8311C97.4554 39.6488 97.7266 39.4072 97.959 39.1064L98.7314 39.708C98.1117 40.6605 97.182 41.1367 95.9424 41.1367ZM95.7852 34.5059C95.2747 34.5059 94.8464 34.6927 94.5 35.0664C94.1536 35.4355 93.9395 35.9551 93.8574 36.625H97.5625V36.5293C97.526 35.8867 97.3529 35.39 97.043 35.0391C96.7331 34.6836 96.3138 34.5059 95.7852 34.5059ZM101.493 33.6035L101.534 34.5332C102.099 33.8223 102.838 33.4668 103.749 33.4668C105.312 33.4668 106.101 34.3486 106.114 36.1123V41H104.85V36.1055C104.845 35.5723 104.722 35.1781 104.48 34.9229C104.243 34.6676 103.872 34.54 103.366 34.54C102.956 34.54 102.596 34.6494 102.286 34.8682C101.976 35.0869 101.735 35.374 101.562 35.7295V41H100.297V33.6035H101.493ZM109.737 31.8125V33.6035H111.118V34.5811H109.737V39.168C109.737 39.4642 109.799 39.6875 109.922 39.8379C110.045 39.9837 110.255 40.0566 110.551 40.0566C110.697 40.0566 110.897 40.0293 111.152 39.9746V41C110.82 41.0911 110.496 41.1367 110.182 41.1367C109.617 41.1367 109.19 40.9658 108.903 40.624C108.616 40.2822 108.473 39.7969 108.473 39.168V34.5811H107.126V33.6035H108.473V31.8125H109.737ZM116.908 39.0381C116.908 38.6963 116.778 38.432 116.519 38.2451C116.263 38.0537 115.814 37.8896 115.172 37.7529C114.534 37.6162 114.026 37.4521 113.647 37.2607C113.274 37.0693 112.996 36.8415 112.813 36.5771C112.636 36.3128 112.547 35.9984 112.547 35.6338C112.547 35.0277 112.802 34.515 113.312 34.0957C113.827 33.6764 114.484 33.4668 115.281 33.4668C116.12 33.4668 116.799 33.6833 117.318 34.1162C117.842 34.5492 118.104 35.1029 118.104 35.7773H116.833C116.833 35.431 116.685 35.1325 116.389 34.8818C116.097 34.6312 115.728 34.5059 115.281 34.5059C114.821 34.5059 114.461 34.6061 114.201 34.8066C113.941 35.0072 113.812 35.2692 113.812 35.5928C113.812 35.8981 113.932 36.1283 114.174 36.2832C114.415 36.4382 114.851 36.5863 115.479 36.7275C116.113 36.8688 116.626 37.0374 117.018 37.2334C117.41 37.4294 117.699 37.6663 117.886 37.9443C118.077 38.2178 118.173 38.5527 118.173 38.9492C118.173 39.61 117.909 40.141 117.38 40.542C116.851 40.9385 116.165 41.1367 115.322 41.1367C114.73 41.1367 114.206 41.0319 113.75 40.8223C113.294 40.6126 112.937 40.321 112.677 39.9473C112.422 39.569 112.294 39.1611 112.294 38.7236H113.559C113.581 39.1475 113.75 39.4847 114.064 39.7354C114.383 39.9814 114.803 40.1045 115.322 40.1045C115.801 40.1045 116.184 40.0088 116.471 39.8174C116.762 39.6214 116.908 39.3617 116.908 39.0381Z" fill="#B4B4B4"/>
<path fill-rule="evenodd" clip-rule="evenodd" d="M439.633 34.6402C440.176 33.9889 439.713 33 438.865 33H433.135C432.287 33 431.824 33.9889 432.367 34.6402L435.232 38.0781C435.632 38.5579 436.368 38.5579 436.768 38.0781L439.633 34.6402Z" fill="#4B6C89"/>
<path fill-rule="evenodd" clip-rule="evenodd" d="M13 30H23V31V41V42H13V41V31V30ZM21 40V39H15V40H21ZM21 36V37H15V36H21ZM15 34H18V33H15V34Z" fill="#4B6C89"/>
<rect x="0.5" y="20.5" width="452" height="31" rx="3.5" stroke="#B7C4D0"/>
<path d="M5.8125 7.05664H2.11523V10.0801H6.41016V11H0.990234V2.46875H6.35156V3.39453H2.11523V6.13672H5.8125V7.05664ZM8.66016 4.66016L8.68945 5.36328C9.1543 4.81641 9.78125 4.54297 10.5703 4.54297C11.457 4.54297 12.0605 4.88281 12.3809 5.5625C12.5918 5.25781 12.8652 5.01172 13.2012 4.82422C13.541 4.63672 13.9414 4.54297 14.4023 4.54297C15.793 4.54297 16.5 5.2793 16.5234 6.75195V11H15.4395V6.81641C15.4395 6.36328 15.3359 6.02539 15.1289 5.80273C14.9219 5.57617 14.5742 5.46289 14.0859 5.46289C13.6836 5.46289 13.3496 5.58398 13.084 5.82617C12.8184 6.06445 12.6641 6.38672 12.6211 6.79297V11H11.5312V6.8457C11.5312 5.92383 11.0801 5.46289 10.1777 5.46289C9.4668 5.46289 8.98047 5.76562 8.71875 6.37109V11H7.63477V4.66016H8.66016ZM23.5195 7.90039C23.5195 8.86523 23.2988 9.64258 22.8574 10.2324C22.416 10.8223 21.8184 11.1172 21.0645 11.1172C20.2949 11.1172 19.6895 10.873 19.248 10.3848V13.4375H18.1641V4.66016H19.1543L19.207 5.36328C19.6484 4.81641 20.2617 4.54297 21.0469 4.54297C21.8086 4.54297 22.4102 4.83008 22.8516 5.4043C23.2969 5.97852 23.5195 6.77734 23.5195 7.80078V7.90039ZM22.4355 7.77734C22.4355 7.0625 22.2832 6.49805 21.9785 6.08398C21.6738 5.66992 21.2559 5.46289 20.7246 5.46289C20.0684 5.46289 19.5762 5.75391 19.248 6.33594V9.36523C19.5723 9.94336 20.0684 10.2324 20.7363 10.2324C21.2559 10.2324 21.668 10.0273 21.9727 9.61719C22.2812 9.20312 22.4355 8.58984 22.4355 7.77734ZM26.373 3.125V4.66016H27.5566V5.49805H26.373V9.42969C26.373 9.68359 26.4258 9.875 26.5312 10.0039C26.6367 10.1289 26.8164 10.1914 27.0703 10.1914C27.1953 10.1914 27.3672 10.168 27.5859 10.1211V11C27.3008 11.0781 27.0234 11.1172 26.7539 11.1172C26.2695 11.1172 25.9043 10.9707 25.6582 10.6777C25.4121 10.3848 25.2891 9.96875 25.2891 9.42969V5.49805H24.1348V4.66016H25.2891V3.125H26.373ZM30.9023 9.41211L32.3789 4.66016H33.5391L30.9902 11.9785C30.5957 13.0332 29.9688 13.5605 29.1094 13.5605L28.9043 13.543L28.5 13.4668V12.5879L28.793 12.6113C29.1602 12.6113 29.4453 12.5371 29.6484 12.3887C29.8555 12.2402 30.0254 11.9688 30.1582 11.5742L30.3984 10.9297L28.1367 4.66016H29.3203L30.9023 9.41211Z" fill="#6F89A1"/>
</svg>
