<svg width="452" height="52" viewBox="0 0 452 52" fill="none" xmlns="http://www.w3.org/2000/svg">
<rect x="0.5" y="20.5" width="451" height="31" rx="3.5" fill="#F6F7F9"/>
<path fill-rule="evenodd" clip-rule="evenodd" d="M438.633 34.6402C439.176 33.9889 438.713 33 437.865 33H432.135C431.287 33 430.824 33.9889 431.367 34.6402L434.232 38.0781C434.632 38.5579 435.368 38.5579 435.768 38.0781L438.633 34.6402Z" fill="#6F89A1"/>
<path d="M34.6514 38.4023H30.4814L29.5449 41H28.1914L31.9922 31.0469H33.1406L36.9482 41H35.6016L34.6514 38.4023ZM30.8779 37.3223H34.2617L32.5664 32.667L30.8779 37.3223ZM39.4639 41H38.1992V30.5H39.4639V41ZM42.8682 41H41.6035V30.5H42.8682V41ZM48.5693 41V31.0469H51.3789C52.2448 31.0469 53.0104 31.2383 53.6758 31.6211C54.3411 32.0039 54.8538 32.5485 55.2139 33.2549C55.5785 33.9613 55.763 34.7725 55.7676 35.6885V36.3242C55.7676 37.263 55.5853 38.0856 55.2207 38.792C54.8607 39.4984 54.3434 40.0407 53.6689 40.4189C52.999 40.7972 52.2174 40.9909 51.3242 41H48.5693ZM49.8818 32.127V39.9268H51.2627C52.2744 39.9268 53.0605 39.6123 53.6211 38.9834C54.1862 38.3545 54.4688 37.459 54.4688 36.2969V35.7158C54.4688 34.5856 54.2021 33.7083 53.6689 33.084C53.1403 32.4551 52.3883 32.1361 51.4131 32.127H49.8818ZM57.2236 37.2334C57.2236 36.5088 57.3649 35.8571 57.6475 35.2783C57.9346 34.6995 58.3311 34.2529 58.8369 33.9385C59.3473 33.624 59.9284 33.4668 60.5801 33.4668C61.5872 33.4668 62.4007 33.8154 63.0205 34.5127C63.6449 35.21 63.957 36.1374 63.957 37.2949V37.3838C63.957 38.1038 63.818 38.751 63.54 39.3252C63.2666 39.8949 62.8724 40.3392 62.3574 40.6582C61.847 40.9772 61.2591 41.1367 60.5938 41.1367C59.5911 41.1367 58.7777 40.7881 58.1533 40.0908C57.5335 39.3936 57.2236 38.4707 57.2236 37.3223V37.2334ZM58.4951 37.3838C58.4951 38.2041 58.6842 38.8626 59.0625 39.3594C59.4453 39.8561 59.9557 40.1045 60.5938 40.1045C61.2363 40.1045 61.7467 39.8538 62.125 39.3525C62.5033 38.8467 62.6924 38.1403 62.6924 37.2334C62.6924 36.4222 62.4987 35.766 62.1113 35.2646C61.7285 34.7588 61.2181 34.5059 60.5801 34.5059C59.9557 34.5059 59.4521 34.7542 59.0693 35.251C58.6865 35.7477 58.4951 36.4587 58.4951 37.3838ZM68.5098 40.1045C68.9609 40.1045 69.3551 39.9678 69.6924 39.6943C70.0296 39.4209 70.2165 39.0791 70.2529 38.6689H71.4492C71.4264 39.0928 71.2806 39.4961 71.0117 39.8789C70.7428 40.2617 70.3828 40.5671 69.9316 40.7949C69.485 41.0228 69.0111 41.1367 68.5098 41.1367C67.5026 41.1367 66.7005 40.8018 66.1035 40.1318C65.5111 39.4574 65.2148 38.5368 65.2148 37.3701V37.1582C65.2148 36.4382 65.347 35.7979 65.6113 35.2373C65.8757 34.6768 66.2539 34.2415 66.7461 33.9316C67.2428 33.6217 67.8285 33.4668 68.5029 33.4668C69.3324 33.4668 70.0205 33.7152 70.5674 34.2119C71.1188 34.7087 71.4128 35.3535 71.4492 36.1465H70.2529C70.2165 35.668 70.0342 35.276 69.7061 34.9707C69.3825 34.6608 68.9814 34.5059 68.5029 34.5059C67.8604 34.5059 67.3613 34.7383 67.0059 35.2031C66.6549 35.6634 66.4795 36.3311 66.4795 37.2061V37.4453C66.4795 38.2975 66.6549 38.9538 67.0059 39.4141C67.3568 39.8743 67.8581 40.1045 68.5098 40.1045ZM77.4375 40.2686C76.9453 40.8473 76.223 41.1367 75.2705 41.1367C74.4821 41.1367 73.8805 40.9089 73.4658 40.4531C73.0557 39.9928 72.8483 39.3138 72.8438 38.416V33.6035H74.1084V38.3818C74.1084 39.5029 74.5641 40.0635 75.4756 40.0635C76.4417 40.0635 77.0843 39.7035 77.4033 38.9834V33.6035H78.668V41H77.4648L77.4375 40.2686ZM81.7852 33.6035L81.8193 34.4238C82.3617 33.7858 83.0931 33.4668 84.0137 33.4668C85.0482 33.4668 85.7523 33.8633 86.126 34.6562C86.3721 34.3008 86.6911 34.0137 87.083 33.7949C87.4795 33.5762 87.9466 33.4668 88.4844 33.4668C90.1068 33.4668 90.9316 34.3258 90.959 36.0439V41H89.6943V36.1191C89.6943 35.5905 89.5736 35.1963 89.332 34.9365C89.0905 34.6722 88.6849 34.54 88.1152 34.54C87.6458 34.54 87.2562 34.6813 86.9463 34.9639C86.6364 35.2419 86.4564 35.6178 86.4062 36.0918V41H85.1348V36.1533C85.1348 35.0778 84.6084 34.54 83.5557 34.54C82.7262 34.54 82.1589 34.8932 81.8535 35.5996V41H80.5889V33.6035H81.7852ZM95.9424 41.1367C94.9398 41.1367 94.124 40.8086 93.4951 40.1523C92.8662 39.4915 92.5518 38.6097 92.5518 37.5068V37.2744C92.5518 36.5407 92.6908 35.8867 92.9688 35.3125C93.2513 34.7337 93.6432 34.2826 94.1445 33.959C94.6504 33.6309 95.1973 33.4668 95.7852 33.4668C96.7467 33.4668 97.4941 33.7835 98.0273 34.417C98.5605 35.0505 98.8271 35.9574 98.8271 37.1377V37.6641H93.8164C93.8346 38.3932 94.0465 38.9834 94.4521 39.4346C94.8623 39.8812 95.3818 40.1045 96.0107 40.1045C96.4574 40.1045 96.8356 40.0133 97.1455 39.8311C97.4554 39.6488 97.7266 39.4072 97.959 39.1064L98.7314 39.708C98.1117 40.6605 97.182 41.1367 95.9424 41.1367ZM95.7852 34.5059C95.2747 34.5059 94.8464 34.6927 94.5 35.0664C94.1536 35.4355 93.9395 35.9551 93.8574 36.625H97.5625V36.5293C97.526 35.8867 97.3529 35.39 97.043 35.0391C96.7331 34.6836 96.3138 34.5059 95.7852 34.5059ZM101.493 33.6035L101.534 34.5332C102.099 33.8223 102.838 33.4668 103.749 33.4668C105.312 33.4668 106.101 34.3486 106.114 36.1123V41H104.85V36.1055C104.845 35.5723 104.722 35.1781 104.48 34.9229C104.243 34.6676 103.872 34.54 103.366 34.54C102.956 34.54 102.596 34.6494 102.286 34.8682C101.976 35.0869 101.735 35.374 101.562 35.7295V41H100.297V33.6035H101.493ZM109.737 31.8125V33.6035H111.118V34.5811H109.737V39.168C109.737 39.4642 109.799 39.6875 109.922 39.8379C110.045 39.9837 110.255 40.0566 110.551 40.0566C110.697 40.0566 110.897 40.0293 111.152 39.9746V41C110.82 41.0911 110.496 41.1367 110.182 41.1367C109.617 41.1367 109.19 40.9658 108.903 40.624C108.616 40.2822 108.473 39.7969 108.473 39.168V34.5811H107.126V33.6035H108.473V31.8125H109.737ZM116.908 39.0381C116.908 38.6963 116.778 38.432 116.519 38.2451C116.263 38.0537 115.814 37.8896 115.172 37.7529C114.534 37.6162 114.026 37.4521 113.647 37.2607C113.274 37.0693 112.996 36.8415 112.813 36.5771C112.636 36.3128 112.547 35.9984 112.547 35.6338C112.547 35.0277 112.802 34.515 113.312 34.0957C113.827 33.6764 114.484 33.4668 115.281 33.4668C116.12 33.4668 116.799 33.6833 117.318 34.1162C117.842 34.5492 118.104 35.1029 118.104 35.7773H116.833C116.833 35.431 116.685 35.1325 116.389 34.8818C116.097 34.6312 115.728 34.5059 115.281 34.5059C114.821 34.5059 114.461 34.6061 114.201 34.8066C113.941 35.0072 113.812 35.2692 113.812 35.5928C113.812 35.8981 113.932 36.1283 114.174 36.2832C114.415 36.4382 114.851 36.5863 115.479 36.7275C116.113 36.8688 116.626 37.0374 117.018 37.2334C117.41 37.4294 117.699 37.6663 117.886 37.9443C118.077 38.2178 118.173 38.5527 118.173 38.9492C118.173 39.61 117.909 40.141 117.38 40.542C116.851 40.9385 116.165 41.1367 115.322 41.1367C114.73 41.1367 114.206 41.0319 113.75 40.8223C113.294 40.6126 112.937 40.321 112.677 39.9473C112.422 39.569 112.294 39.1611 112.294 38.7236H113.559C113.581 39.1475 113.75 39.4847 114.064 39.7354C114.383 39.9814 114.803 40.1045 115.322 40.1045C115.801 40.1045 116.184 40.0088 116.471 39.8174C116.762 39.6214 116.908 39.3617 116.908 39.0381Z" fill="#606060"/>
<path fill-rule="evenodd" clip-rule="evenodd" d="M13 30H23V31V41V42H13V41V31V30ZM21 40V39H15V40H21ZM21 36V37H15V36H21ZM15 34H18V33H15V34Z" fill="#93A7B8"/>
<rect x="0.5" y="20.5" width="451" height="31" rx="3.5" stroke="#B7C4D0"/>
<path d="M0.990234 11V2.46875H3.39844C4.14062 2.46875 4.79688 2.63281 5.36719 2.96094C5.9375 3.28906 6.37695 3.75586 6.68555 4.36133C6.99805 4.9668 7.15625 5.66211 7.16016 6.44727V6.99219C7.16016 7.79688 7.00391 8.50195 6.69141 9.10742C6.38281 9.71289 5.93945 10.1777 5.36133 10.502C4.78711 10.8262 4.11719 10.9922 3.35156 11H0.990234ZM2.11523 3.39453V10.0801H3.29883C4.16602 10.0801 4.83984 9.81055 5.32031 9.27148C5.80469 8.73242 6.04688 7.96484 6.04688 6.96875V6.4707C6.04688 5.50195 5.81836 4.75 5.36133 4.21484C4.9082 3.67578 4.26367 3.40234 3.42773 3.39453H2.11523ZM9.87305 11H8.78906V4.66016H9.87305V11ZM8.70117 2.97852C8.70117 2.80273 8.75391 2.6543 8.85938 2.5332C8.96875 2.41211 9.12891 2.35156 9.33984 2.35156C9.55078 2.35156 9.71094 2.41211 9.82031 2.5332C9.92969 2.6543 9.98438 2.80273 9.98438 2.97852C9.98438 3.1543 9.92969 3.30078 9.82031 3.41797C9.71094 3.53516 9.55078 3.59375 9.33984 3.59375C9.12891 3.59375 8.96875 3.53516 8.85938 3.41797C8.75391 3.30078 8.70117 3.1543 8.70117 2.97852ZM15.3047 9.31836C15.3047 9.02539 15.1934 8.79883 14.9707 8.63867C14.752 8.47461 14.3672 8.33398 13.8164 8.2168C13.2695 8.09961 12.834 7.95898 12.5098 7.79492C12.1895 7.63086 11.9512 7.43555 11.7949 7.20898C11.6426 6.98242 11.5664 6.71289 11.5664 6.40039C11.5664 5.88086 11.7852 5.44141 12.2227 5.08203C12.6641 4.72266 13.2266 4.54297 13.9102 4.54297C14.6289 4.54297 15.2109 4.72852 15.6562 5.09961C16.1055 5.4707 16.3301 5.94531 16.3301 6.52344H15.2402C15.2402 6.22656 15.1133 5.9707 14.8594 5.75586C14.6094 5.54102 14.293 5.43359 13.9102 5.43359C13.5156 5.43359 13.207 5.51953 12.9844 5.69141C12.7617 5.86328 12.6504 6.08789 12.6504 6.36523C12.6504 6.62695 12.7539 6.82422 12.9609 6.95703C13.168 7.08984 13.541 7.2168 14.0801 7.33789C14.623 7.45898 15.0625 7.60352 15.3984 7.77148C15.7344 7.93945 15.9824 8.14258 16.1426 8.38086C16.3066 8.61523 16.3887 8.90234 16.3887 9.24219C16.3887 9.80859 16.1621 10.2637 15.709 10.6074C15.2559 10.9473 14.668 11.1172 13.9453 11.1172C13.4375 11.1172 12.9883 11.0273 12.5977 10.8477C12.207 10.668 11.9004 10.418 11.6777 10.0977C11.459 9.77344 11.3496 9.42383 11.3496 9.04883H12.4336C12.4531 9.41211 12.5977 9.70117 12.8672 9.91602C13.1406 10.127 13.5 10.2324 13.9453 10.2324C14.3555 10.2324 14.6836 10.1504 14.9297 9.98633C15.1797 9.81836 15.3047 9.5957 15.3047 9.31836ZM21.7148 11C21.6523 10.875 21.6016 10.6523 21.5625 10.332C21.0586 10.8555 20.457 11.1172 19.7578 11.1172C19.1328 11.1172 18.6191 10.9414 18.2168 10.5898C17.8184 10.2344 17.6191 9.78516 17.6191 9.24219C17.6191 8.58203 17.8691 8.07031 18.3691 7.70703C18.873 7.33984 19.5801 7.15625 20.4902 7.15625H21.5449V6.6582C21.5449 6.2793 21.4316 5.97852 21.2051 5.75586C20.9785 5.5293 20.6445 5.41602 20.2031 5.41602C19.8164 5.41602 19.4922 5.51367 19.2305 5.70898C18.9688 5.9043 18.8379 6.14062 18.8379 6.41797H17.748C17.748 6.10156 17.8594 5.79688 18.082 5.50391C18.3086 5.20703 18.6133 4.97266 18.9961 4.80078C19.3828 4.62891 19.8066 4.54297 20.2676 4.54297C20.998 4.54297 21.5703 4.72656 21.9844 5.09375C22.3984 5.45703 22.6133 5.95898 22.6289 6.59961V9.51758C22.6289 10.0996 22.7031 10.5625 22.8516 10.9062V11H21.7148ZM19.916 10.1738C20.2559 10.1738 20.5781 10.0859 20.8828 9.91016C21.1875 9.73438 21.4082 9.50586 21.5449 9.22461V7.92383H20.6953C19.3672 7.92383 18.7031 8.3125 18.7031 9.08984C18.7031 9.42969 18.8164 9.69531 19.043 9.88672C19.2695 10.0781 19.5605 10.1738 19.916 10.1738ZM29.6953 7.90039C29.6953 8.86914 29.4727 9.64844 29.0273 10.2383C28.582 10.8242 27.9844 11.1172 27.2344 11.1172C26.4336 11.1172 25.8145 10.834 25.377 10.2676L25.3242 11H24.3281V2H25.4121V5.35742C25.8496 4.81445 26.4531 4.54297 27.2227 4.54297C27.9922 4.54297 28.5957 4.83398 29.0332 5.41602C29.4746 5.99805 29.6953 6.79492 29.6953 7.80664V7.90039ZM28.6113 7.77734C28.6113 7.03906 28.4688 6.46875 28.1836 6.06641C27.8984 5.66406 27.4883 5.46289 26.9531 5.46289C26.2383 5.46289 25.7246 5.79492 25.4121 6.45898V9.20117C25.7441 9.86523 26.2617 10.1973 26.9648 10.1973C27.4844 10.1973 27.8887 9.99609 28.1777 9.59375C28.4668 9.19141 28.6113 8.58594 28.6113 7.77734ZM32.2441 11H31.1602V2H32.2441V11ZM36.6152 11.1172C35.7559 11.1172 35.0566 10.8359 34.5176 10.2734C33.9785 9.70703 33.709 8.95117 33.709 8.00586V7.80664C33.709 7.17773 33.8281 6.61719 34.0664 6.125C34.3086 5.62891 34.6445 5.24219 35.0742 4.96484C35.5078 4.68359 35.9766 4.54297 36.4805 4.54297C37.3047 4.54297 37.9453 4.81445 38.4023 5.35742C38.8594 5.90039 39.0879 6.67773 39.0879 7.68945V8.14062H34.793C34.8086 8.76562 34.9902 9.27148 35.3379 9.6582C35.6895 10.041 36.1348 10.2324 36.6738 10.2324C37.0566 10.2324 37.3809 10.1543 37.6465 9.99805C37.9121 9.8418 38.1445 9.63477 38.3438 9.37695L39.0059 9.89258C38.4746 10.709 37.6777 11.1172 36.6152 11.1172ZM36.4805 5.43359C36.043 5.43359 35.6758 5.59375 35.3789 5.91406C35.082 6.23047 34.8984 6.67578 34.8281 7.25H38.0039V7.16797C37.9727 6.61719 37.8242 6.19141 37.5586 5.89062C37.293 5.58594 36.9336 5.43359 36.4805 5.43359ZM40.084 7.77734C40.084 6.80469 40.3145 6.02344 40.7754 5.43359C41.2363 4.83984 41.8398 4.54297 42.5859 4.54297C43.3281 4.54297 43.916 4.79688 44.3496 5.30469V2H45.4336V11H44.4375L44.3848 10.3203C43.9512 10.8516 43.3477 11.1172 42.5742 11.1172C41.8398 11.1172 41.2402 10.8164 40.7754 10.2148C40.3145 9.61328 40.084 8.82812 40.084 7.85938V7.77734ZM41.168 7.90039C41.168 8.61914 41.3164 9.18164 41.6133 9.58789C41.9102 9.99414 42.3203 10.1973 42.8438 10.1973C43.5312 10.1973 44.0332 9.88867 44.3496 9.27148V6.35938C44.0254 5.76172 43.5273 5.46289 42.8555 5.46289C42.3242 5.46289 41.9102 5.66797 41.6133 6.07812C41.3164 6.48828 41.168 7.0957 41.168 7.90039Z" fill="#6F89A1"/>
</svg>
