<svg width="452" height="43" viewBox="0 0 452 43" fill="none" xmlns="http://www.w3.org/2000/svg">
<rect x="0.5" y="19.5" width="451" height="23" rx="3.5" fill="white"/>
<path d="M14.1152 31.6602V35H12.9902V26.4688H16.1367C17.0703 26.4688 17.8008 26.707 18.3281 27.1836C18.8594 27.6602 19.125 28.291 19.125 29.0762C19.125 29.9043 18.8652 30.543 18.3457 30.9922C17.8301 31.4375 17.0898 31.6602 16.125 31.6602H14.1152ZM14.1152 30.7402H16.1367C16.7383 30.7402 17.1992 30.5996 17.5195 30.3184C17.8398 30.0332 18 29.623 18 29.0879C18 28.5801 17.8398 28.1738 17.5195 27.8691C17.1992 27.5645 16.7598 27.4062 16.2012 27.3945H14.1152V30.7402ZM21.5684 35H20.4844V26H21.5684V35ZM25.9395 35.1172C25.0801 35.1172 24.3809 34.8359 23.8418 34.2734C23.3027 33.707 23.0332 32.9512 23.0332 32.0059V31.8066C23.0332 31.1777 23.1523 30.6172 23.3906 30.125C23.6328 29.6289 23.9688 29.2422 24.3984 28.9648C24.832 28.6836 25.3008 28.543 25.8047 28.543C26.6289 28.543 27.2695 28.8145 27.7266 29.3574C28.1836 29.9004 28.4121 30.6777 28.4121 31.6895V32.1406H24.1172C24.1328 32.7656 24.3145 33.2715 24.6621 33.6582C25.0137 34.041 25.459 34.2324 25.998 34.2324C26.3809 34.2324 26.7051 34.1543 26.9707 33.998C27.2363 33.8418 27.4688 33.6348 27.668 33.377L28.3301 33.8926C27.7988 34.709 27.002 35.1172 25.9395 35.1172ZM25.8047 29.4336C25.3672 29.4336 25 29.5938 24.7031 29.9141C24.4062 30.2305 24.2227 30.6758 24.1523 31.25H27.3281V31.168C27.2969 30.6172 27.1484 30.1914 26.8828 29.8906C26.6172 29.5859 26.2578 29.4336 25.8047 29.4336ZM33.5859 35C33.5234 34.875 33.4727 34.6523 33.4336 34.332C32.9297 34.8555 32.3281 35.1172 31.6289 35.1172C31.0039 35.1172 30.4902 34.9414 30.0879 34.5898C29.6895 34.2344 29.4902 33.7852 29.4902 33.2422C29.4902 32.582 29.7402 32.0703 30.2402 31.707C30.7441 31.3398 31.4512 31.1562 32.3613 31.1562H33.416V30.6582C33.416 30.2793 33.3027 29.9785 33.0762 29.7559C32.8496 29.5293 32.5156 29.416 32.0742 29.416C31.6875 29.416 31.3633 29.5137 31.1016 29.709C30.8398 29.9043 30.709 30.1406 30.709 30.418H29.6191C29.6191 30.1016 29.7305 29.7969 29.9531 29.5039C30.1797 29.207 30.4844 28.9727 30.8672 28.8008C31.2539 28.6289 31.6777 28.543 32.1387 28.543C32.8691 28.543 33.4414 28.7266 33.8555 29.0938C34.2695 29.457 34.4844 29.959 34.5 30.5996V33.5176C34.5 34.0996 34.5742 34.5625 34.7227 34.9062V35H33.5859ZM31.7871 34.1738C32.127 34.1738 32.4492 34.0859 32.7539 33.9102C33.0586 33.7344 33.2793 33.5059 33.416 33.2246V31.9238H32.5664C31.2383 31.9238 30.5742 32.3125 30.5742 33.0898C30.5742 33.4297 30.6875 33.6953 30.9141 33.8867C31.1406 34.0781 31.4316 34.1738 31.7871 34.1738ZM39.8906 33.3184C39.8906 33.0254 39.7793 32.7988 39.5566 32.6387C39.3379 32.4746 38.9531 32.334 38.4023 32.2168C37.8555 32.0996 37.4199 31.959 37.0957 31.7949C36.7754 31.6309 36.5371 31.4355 36.3809 31.209C36.2285 30.9824 36.1523 30.7129 36.1523 30.4004C36.1523 29.8809 36.3711 29.4414 36.8086 29.082C37.25 28.7227 37.8125 28.543 38.4961 28.543C39.2148 28.543 39.7969 28.7285 40.2422 29.0996C40.6914 29.4707 40.916 29.9453 40.916 30.5234H39.8262C39.8262 30.2266 39.6992 29.9707 39.4453 29.7559C39.1953 29.541 38.8789 29.4336 38.4961 29.4336C38.1016 29.4336 37.793 29.5195 37.5703 29.6914C37.3477 29.8633 37.2363 30.0879 37.2363 30.3652C37.2363 30.627 37.3398 30.8242 37.5469 30.957C37.7539 31.0898 38.127 31.2168 38.666 31.3379C39.209 31.459 39.6484 31.6035 39.9844 31.7715C40.3203 31.9395 40.5684 32.1426 40.7285 32.3809C40.8926 32.6152 40.9746 32.9023 40.9746 33.2422C40.9746 33.8086 40.748 34.2637 40.2949 34.6074C39.8418 34.9473 39.2539 35.1172 38.5312 35.1172C38.0234 35.1172 37.5742 35.0273 37.1836 34.8477C36.793 34.668 36.4863 34.418 36.2637 34.0977C36.0449 33.7734 35.9355 33.4238 35.9355 33.0488H37.0195C37.0391 33.4121 37.1836 33.7012 37.4531 33.916C37.7266 34.127 38.0859 34.2324 38.5312 34.2324C38.9414 34.2324 39.2695 34.1504 39.5156 33.9863C39.7656 33.8184 39.8906 33.5957 39.8906 33.3184ZM45.0176 35.1172C44.1582 35.1172 43.459 34.8359 42.9199 34.2734C42.3809 33.707 42.1113 32.9512 42.1113 32.0059V31.8066C42.1113 31.1777 42.2305 30.6172 42.4688 30.125C42.7109 29.6289 43.0469 29.2422 43.4766 28.9648C43.9102 28.6836 44.3789 28.543 44.8828 28.543C45.707 28.543 46.3477 28.8145 46.8047 29.3574C47.2617 29.9004 47.4902 30.6777 47.4902 31.6895V32.1406H43.1953C43.2109 32.7656 43.3926 33.2715 43.7402 33.6582C44.0918 34.041 44.5371 34.2324 45.0762 34.2324C45.459 34.2324 45.7832 34.1543 46.0488 33.998C46.3145 33.8418 46.5469 33.6348 46.7461 33.377L47.4082 33.8926C46.877 34.709 46.0801 35.1172 45.0176 35.1172ZM44.8828 29.4336C44.4453 29.4336 44.0781 29.5938 43.7812 29.9141C43.4844 30.2305 43.3008 30.6758 43.2305 31.25H46.4062V31.168C46.375 30.6172 46.2266 30.1914 45.9609 29.8906C45.6953 29.5859 45.3359 29.4336 44.8828 29.4336ZM56.7188 31.0566H53.0215V34.0801H57.3164V35H51.8965V26.4688H57.2578V27.3945H53.0215V30.1367H56.7188V31.0566ZM59.5723 28.6602L59.6074 29.457C60.0918 28.8477 60.7246 28.543 61.5059 28.543C62.8457 28.543 63.5215 29.2988 63.5332 30.8105V35H62.4492V30.8047C62.4453 30.3477 62.3398 30.0098 62.1328 29.791C61.9297 29.5723 61.6113 29.4629 61.1777 29.4629C60.8262 29.4629 60.5176 29.5566 60.252 29.7441C59.9863 29.9316 59.7793 30.1777 59.6309 30.4824V35H58.5469V28.6602H59.5723ZM66.6387 27.125V28.6602H67.8223V29.498H66.6387V33.4297C66.6387 33.6836 66.6914 33.875 66.7969 34.0039C66.9023 34.1289 67.082 34.1914 67.3359 34.1914C67.4609 34.1914 67.6328 34.168 67.8516 34.1211V35C67.5664 35.0781 67.2891 35.1172 67.0195 35.1172C66.5352 35.1172 66.1699 34.9707 65.9238 34.6777C65.6777 34.3848 65.5547 33.9688 65.5547 33.4297V29.498H64.4004V28.6602H65.5547V27.125H66.6387ZM71.7246 35.1172C70.8652 35.1172 70.166 34.8359 69.627 34.2734C69.0879 33.707 68.8184 32.9512 68.8184 32.0059V31.8066C68.8184 31.1777 68.9375 30.6172 69.1758 30.125C69.418 29.6289 69.7539 29.2422 70.1836 28.9648C70.6172 28.6836 71.0859 28.543 71.5898 28.543C72.4141 28.543 73.0547 28.8145 73.5117 29.3574C73.9688 29.9004 74.1973 30.6777 74.1973 31.6895V32.1406H69.9023C69.918 32.7656 70.0996 33.2715 70.4473 33.6582C70.7988 34.041 71.2441 34.2324 71.7832 34.2324C72.166 34.2324 72.4902 34.1543 72.7559 33.998C73.0215 33.8418 73.2539 33.6348 73.4531 33.377L74.1152 33.8926C73.584 34.709 72.7871 35.1172 71.7246 35.1172ZM71.5898 29.4336C71.1523 29.4336 70.7852 29.5938 70.4883 29.9141C70.1914 30.2305 70.0078 30.6758 69.9375 31.25H73.1133V31.168C73.082 30.6172 72.9336 30.1914 72.668 29.8906C72.4023 29.5859 72.043 29.4336 71.5898 29.4336ZM78.5215 29.6328C78.3574 29.6055 78.1797 29.5918 77.9883 29.5918C77.2773 29.5918 76.7949 29.8945 76.541 30.5V35H75.457V28.6602H76.5117L76.5293 29.3926C76.8848 28.8262 77.3887 28.543 78.041 28.543C78.252 28.543 78.4121 28.5703 78.5215 28.625V29.6328ZM83.877 35H82.752V26.4688H83.877V35ZM86.7949 28.6602L86.8301 29.457C87.3145 28.8477 87.9473 28.543 88.7285 28.543C90.0684 28.543 90.7441 29.2988 90.7559 30.8105V35H89.6719V30.8047C89.668 30.3477 89.5625 30.0098 89.3555 29.791C89.1523 29.5723 88.834 29.4629 88.4004 29.4629C88.0488 29.4629 87.7402 29.5566 87.4746 29.7441C87.209 29.9316 87.002 30.1777 86.8535 30.4824V35H85.7695V28.6602H86.7949ZM92.9238 35V29.498H91.9219V28.6602H92.9238V28.0098C92.9238 27.3301 93.1055 26.8047 93.4688 26.4336C93.832 26.0625 94.3457 25.877 95.0098 25.877C95.2598 25.877 95.5078 25.9102 95.7539 25.9766L95.6953 26.8555C95.5117 26.8203 95.3164 26.8027 95.1094 26.8027C94.7578 26.8027 94.4863 26.9062 94.2949 27.1133C94.1035 27.3164 94.0078 27.6094 94.0078 27.9922V28.6602H95.3613V29.498H94.0078V35H92.9238ZM96.2754 31.7715C96.2754 31.1504 96.3965 30.5918 96.6387 30.0957C96.8848 29.5996 97.2246 29.2168 97.6582 28.9473C98.0957 28.6777 98.5938 28.543 99.1523 28.543C100.016 28.543 100.713 28.8418 101.244 29.4395C101.779 30.0371 102.047 30.832 102.047 31.8242V31.9004C102.047 32.5176 101.928 33.0723 101.689 33.5645C101.455 34.0527 101.117 34.4336 100.676 34.707C100.238 34.9805 99.7344 35.1172 99.1641 35.1172C98.3047 35.1172 97.6074 34.8184 97.0723 34.2207C96.541 33.623 96.2754 32.832 96.2754 31.8477V31.7715ZM97.3652 31.9004C97.3652 32.6035 97.5273 33.168 97.8516 33.5938C98.1797 34.0195 98.6172 34.2324 99.1641 34.2324C99.7148 34.2324 100.152 34.0176 100.477 33.5879C100.801 33.1543 100.963 32.5488 100.963 31.7715C100.963 31.0762 100.797 30.5137 100.465 30.084C100.137 29.6504 99.6992 29.4336 99.1523 29.4336C98.6172 29.4336 98.1855 29.6465 97.8574 30.0723C97.5293 30.498 97.3652 31.1074 97.3652 31.9004ZM106.471 29.6328C106.307 29.6055 106.129 29.5918 105.938 29.5918C105.227 29.5918 104.744 29.8945 104.49 30.5V35H103.406V28.6602H104.461L104.479 29.3926C104.834 28.8262 105.338 28.543 105.99 28.543C106.201 28.543 106.361 28.5703 106.471 28.625V29.6328ZM108.492 28.6602L108.521 29.3633C108.986 28.8164 109.613 28.543 110.402 28.543C111.289 28.543 111.893 28.8828 112.213 29.5625C112.424 29.2578 112.697 29.0117 113.033 28.8242C113.373 28.6367 113.773 28.543 114.234 28.543C115.625 28.543 116.332 29.2793 116.355 30.752V35H115.271V30.8164C115.271 30.3633 115.168 30.0254 114.961 29.8027C114.754 29.5762 114.406 29.4629 113.918 29.4629C113.516 29.4629 113.182 29.584 112.916 29.8262C112.65 30.0645 112.496 30.3867 112.453 30.793V35H111.363V30.8457C111.363 29.9238 110.912 29.4629 110.01 29.4629C109.299 29.4629 108.812 29.7656 108.551 30.3711V35H107.467V28.6602H108.492ZM121.91 35C121.848 34.875 121.797 34.6523 121.758 34.332C121.254 34.8555 120.652 35.1172 119.953 35.1172C119.328 35.1172 118.814 34.9414 118.412 34.5898C118.014 34.2344 117.814 33.7852 117.814 33.2422C117.814 32.582 118.064 32.0703 118.564 31.707C119.068 31.3398 119.775 31.1562 120.686 31.1562H121.74V30.6582C121.74 30.2793 121.627 29.9785 121.4 29.7559C121.174 29.5293 120.84 29.416 120.398 29.416C120.012 29.416 119.688 29.5137 119.426 29.709C119.164 29.9043 119.033 30.1406 119.033 30.418H117.943C117.943 30.1016 118.055 29.7969 118.277 29.5039C118.504 29.207 118.809 28.9727 119.191 28.8008C119.578 28.6289 120.002 28.543 120.463 28.543C121.193 28.543 121.766 28.7266 122.18 29.0938C122.594 29.457 122.809 29.959 122.824 30.5996V33.5176C122.824 34.0996 122.898 34.5625 123.047 34.9062V35H121.91ZM120.111 34.1738C120.451 34.1738 120.773 34.0859 121.078 33.9102C121.383 33.7344 121.604 33.5059 121.74 33.2246V31.9238H120.891C119.562 31.9238 118.898 32.3125 118.898 33.0898C118.898 33.4297 119.012 33.6953 119.238 33.8867C119.465 34.0781 119.756 34.1738 120.111 34.1738ZM125.994 27.125V28.6602H127.178V29.498H125.994V33.4297C125.994 33.6836 126.047 33.875 126.152 34.0039C126.258 34.1289 126.438 34.1914 126.691 34.1914C126.816 34.1914 126.988 34.168 127.207 34.1211V35C126.922 35.0781 126.645 35.1172 126.375 35.1172C125.891 35.1172 125.525 34.9707 125.279 34.6777C125.033 34.3848 124.91 33.9688 124.91 33.4297V29.498H123.756V28.6602H124.91V27.125H125.994ZM129.627 35H128.543V28.6602H129.627V35ZM128.455 26.9785C128.455 26.8027 128.508 26.6543 128.613 26.5332C128.723 26.4121 128.883 26.3516 129.094 26.3516C129.305 26.3516 129.465 26.4121 129.574 26.5332C129.684 26.6543 129.738 26.8027 129.738 26.9785C129.738 27.1543 129.684 27.3008 129.574 27.418C129.465 27.5352 129.305 27.5938 129.094 27.5938C128.883 27.5938 128.723 27.5352 128.613 27.418C128.508 27.3008 128.455 27.1543 128.455 26.9785ZM131.08 31.7715C131.08 31.1504 131.201 30.5918 131.443 30.0957C131.689 29.5996 132.029 29.2168 132.463 28.9473C132.9 28.6777 133.398 28.543 133.957 28.543C134.82 28.543 135.518 28.8418 136.049 29.4395C136.584 30.0371 136.852 30.832 136.852 31.8242V31.9004C136.852 32.5176 136.732 33.0723 136.494 33.5645C136.26 34.0527 135.922 34.4336 135.48 34.707C135.043 34.9805 134.539 35.1172 133.969 35.1172C133.109 35.1172 132.412 34.8184 131.877 34.2207C131.346 33.623 131.08 32.832 131.08 31.8477V31.7715ZM132.17 31.9004C132.17 32.6035 132.332 33.168 132.656 33.5938C132.984 34.0195 133.422 34.2324 133.969 34.2324C134.52 34.2324 134.957 34.0176 135.281 33.5879C135.605 33.1543 135.768 32.5488 135.768 31.7715C135.768 31.0762 135.602 30.5137 135.27 30.084C134.941 29.6504 134.504 29.4336 133.957 29.4336C133.422 29.4336 132.99 29.6465 132.662 30.0723C132.334 30.498 132.17 31.1074 132.17 31.9004ZM139.236 28.6602L139.271 29.457C139.756 28.8477 140.389 28.543 141.17 28.543C142.51 28.543 143.186 29.2988 143.197 30.8105V35H142.113V30.8047C142.109 30.3477 142.004 30.0098 141.797 29.791C141.594 29.5723 141.275 29.4629 140.842 29.4629C140.49 29.4629 140.182 29.5566 139.916 29.7441C139.65 29.9316 139.443 30.1777 139.295 30.4824V35H138.211V28.6602H139.236Z" fill="#404040"/>
<rect x="0.5" y="19.5" width="451" height="23" rx="3.5" stroke="#DB3535"/>
<path d="M5.32812 6.38525H1.93896V9.15674H5.87598V10H0.907715V2.17969H5.82227V3.02832H1.93896V5.54199H5.32812V6.38525ZM9.81299 5.08008C9.6626 5.05501 9.49967 5.04248 9.32422 5.04248C8.67253 5.04248 8.23031 5.31999 7.99756 5.875V10H7.00391V4.18848H7.9707L7.98682 4.85986C8.31266 4.34066 8.77458 4.08105 9.37256 4.08105C9.56592 4.08105 9.71273 4.10612 9.81299 4.15625V5.08008ZM13.5405 5.08008C13.3901 5.05501 13.2272 5.04248 13.0518 5.04248C12.4001 5.04248 11.9578 5.31999 11.7251 5.875V10H10.7314V4.18848H11.6982L11.7144 4.85986C12.0402 4.34066 12.5021 4.08105 13.1001 4.08105C13.2935 4.08105 13.4403 4.10612 13.5405 4.15625V5.08008ZM14.0884 7.04053C14.0884 6.47119 14.1994 5.95915 14.4214 5.50439C14.647 5.04964 14.9585 4.69873 15.356 4.45166C15.757 4.20459 16.2135 4.08105 16.7256 4.08105C17.5169 4.08105 18.1561 4.35498 18.6431 4.90283C19.1336 5.45068 19.3789 6.17936 19.3789 7.08887V7.15869C19.3789 7.72445 19.2697 8.23291 19.0513 8.68408C18.8364 9.13167 18.5267 9.48079 18.1221 9.73145C17.721 9.9821 17.2591 10.1074 16.7363 10.1074C15.9486 10.1074 15.3094 9.8335 14.8188 9.28564C14.3319 8.73779 14.0884 8.0127 14.0884 7.11035V7.04053ZM15.0874 7.15869C15.0874 7.80322 15.236 8.32064 15.5332 8.71094C15.834 9.10124 16.235 9.29639 16.7363 9.29639C17.2412 9.29639 17.6423 9.09945 17.9395 8.70557C18.2367 8.30811 18.3853 7.75309 18.3853 7.04053C18.3853 6.40316 18.2331 5.88753 17.9287 5.49365C17.6279 5.09619 17.2269 4.89746 16.7256 4.89746C16.235 4.89746 15.8394 5.09261 15.5386 5.48291C15.2378 5.87321 15.0874 6.4318 15.0874 7.15869ZM23.4341 5.08008C23.2837 5.05501 23.1208 5.04248 22.9453 5.04248C22.2936 5.04248 21.8514 5.31999 21.6187 5.875V10H20.625V4.18848H21.5918L21.6079 4.85986C21.9338 4.34066 22.3957 4.08105 22.9937 4.08105C23.187 4.08105 23.3338 4.10612 23.4341 4.15625V5.08008Z" fill="#6F89A1"/>
</svg>
