<svg width="200" height="32" viewBox="0 0 200 32" fill="none" xmlns="http://www.w3.org/2000/svg">
<rect x="0.5" y="0.5" width="199" height="31" rx="3.5" fill="white"/>
<path d="M20.8047 21H19.4854L14.4746 13.3301V21H13.1553V11.0469H14.4746L19.499 18.751V11.0469H20.8047V21ZM22.6025 17.2334C22.6025 16.5088 22.7438 15.8571 23.0264 15.2783C23.3135 14.6995 23.71 14.2529 24.2158 13.9385C24.7262 13.624 25.3073 13.4668 25.959 13.4668C26.9661 13.4668 27.7796 13.8154 28.3994 14.5127C29.0238 15.21 29.3359 16.1374 29.3359 17.2949V17.3838C29.3359 18.1038 29.1969 18.751 28.9189 19.3252C28.6455 19.8949 28.2513 20.3392 27.7363 20.6582C27.2259 20.9772 26.638 21.1367 25.9727 21.1367C24.9701 21.1367 24.1566 20.7881 23.5322 20.0908C22.9124 19.3936 22.6025 18.4707 22.6025 17.3223V17.2334ZM23.874 17.3838C23.874 18.2041 24.0632 18.8626 24.4414 19.3594C24.8242 19.8561 25.3346 20.1045 25.9727 20.1045C26.6152 20.1045 27.1257 19.8538 27.5039 19.3525C27.8822 18.8467 28.0713 18.1403 28.0713 17.2334C28.0713 16.4222 27.8776 15.766 27.4902 15.2646C27.1074 14.7588 26.597 14.5059 25.959 14.5059C25.3346 14.5059 24.8311 14.7542 24.4482 15.251C24.0654 15.7477 23.874 16.4587 23.874 17.3838ZM34.4971 14.7383C34.3057 14.7064 34.0983 14.6904 33.875 14.6904C33.0456 14.6904 32.4827 15.0436 32.1865 15.75V21H30.9219V13.6035H32.1523L32.1729 14.458C32.5876 13.7972 33.1755 13.4668 33.9365 13.4668C34.1826 13.4668 34.3695 13.4987 34.4971 13.5625V14.7383ZM36.8555 13.6035L36.8896 14.4238C37.432 13.7858 38.1634 13.4668 39.084 13.4668C40.1185 13.4668 40.8226 13.8633 41.1963 14.6562C41.4424 14.3008 41.7614 14.0137 42.1533 13.7949C42.5498 13.5762 43.0169 13.4668 43.5547 13.4668C45.1771 13.4668 46.002 14.3258 46.0293 16.0439V21H44.7646V16.1191C44.7646 15.5905 44.6439 15.1963 44.4023 14.9365C44.1608 14.6722 43.7552 14.54 43.1855 14.54C42.7161 14.54 42.3265 14.6813 42.0166 14.9639C41.7067 15.2419 41.5267 15.6178 41.4766 16.0918V21H40.2051V16.1533C40.2051 15.0778 39.6787 14.54 38.626 14.54C37.7965 14.54 37.2292 14.8932 36.9238 15.5996V21H35.6592V13.6035H36.8555ZM52.5098 21C52.4368 20.8542 52.3776 20.5944 52.332 20.2207C51.7441 20.8314 51.0423 21.1367 50.2266 21.1367C49.4974 21.1367 48.8981 20.9316 48.4287 20.5215C47.9639 20.1068 47.7314 19.5827 47.7314 18.9492C47.7314 18.179 48.0231 17.582 48.6064 17.1582C49.1943 16.7298 50.0192 16.5156 51.0811 16.5156H52.3115V15.9346C52.3115 15.4925 52.1794 15.1416 51.915 14.8818C51.6507 14.6175 51.2611 14.4854 50.7461 14.4854C50.2949 14.4854 49.9167 14.5993 49.6113 14.8271C49.306 15.055 49.1533 15.3307 49.1533 15.6543H47.8818C47.8818 15.2852 48.0117 14.9297 48.2715 14.5879C48.5358 14.2415 48.8913 13.9681 49.3379 13.7676C49.7891 13.5671 50.2835 13.4668 50.8213 13.4668C51.6735 13.4668 52.3411 13.681 52.8242 14.1094C53.3073 14.5332 53.5579 15.1188 53.5762 15.8662V19.2705C53.5762 19.9495 53.6628 20.4896 53.8359 20.8906V21H52.5098ZM50.4111 20.0361C50.8076 20.0361 51.1836 19.9336 51.5391 19.7285C51.8945 19.5234 52.152 19.2568 52.3115 18.9287V17.4111H51.3203C49.7708 17.4111 48.9961 17.8646 48.9961 18.7715C48.9961 19.168 49.1283 19.4779 49.3926 19.7012C49.6569 19.9245 49.9964 20.0361 50.4111 20.0361ZM56.9326 21H55.668V10.5H56.9326V21Z" fill="#404040"/>
<rect x="0.5" y="0.5" width="199" height="31" rx="3.5" stroke="#B7C4D0"/>
</svg>
