<svg width="452" height="47" viewBox="0 0 452 47" fill="none" xmlns="http://www.w3.org/2000/svg">
<rect x="0.5" y="19.5" width="451" height="27" rx="3.5" fill="#F6F7F9"/>
<path d="M15.5039 33.1973C14.5391 32.9199 13.8359 32.5801 13.3945 32.1777C12.957 31.7715 12.7383 31.2715 12.7383 30.6777C12.7383 30.0059 13.0059 29.4512 13.541 29.0137C14.0801 28.5723 14.7793 28.3516 15.6387 28.3516C16.2246 28.3516 16.7461 28.4648 17.2031 28.6914C17.6641 28.918 18.0195 29.2305 18.2695 29.6289C18.5234 30.0273 18.6504 30.4629 18.6504 30.9355H17.5195C17.5195 30.4199 17.3555 30.0156 17.0273 29.7227C16.6992 29.4258 16.2363 29.2773 15.6387 29.2773C15.084 29.2773 14.6504 29.4004 14.3379 29.6465C14.0293 29.8887 13.875 30.2266 13.875 30.6602C13.875 31.0078 14.0215 31.3027 14.3145 31.5449C14.6113 31.7832 15.1133 32.002 15.8203 32.2012C16.5312 32.4004 17.0859 32.6211 17.4844 32.8633C17.8867 33.1016 18.1836 33.3809 18.375 33.7012C18.5703 34.0215 18.668 34.3984 18.668 34.832C18.668 35.5234 18.3984 36.0781 17.8594 36.4961C17.3203 36.9102 16.5996 37.1172 15.6973 37.1172C15.1113 37.1172 14.5645 37.0059 14.0566 36.7832C13.5488 36.5566 13.1562 36.248 12.8789 35.8574C12.6055 35.4668 12.4688 35.0234 12.4688 34.5273H13.5996C13.5996 35.043 13.7891 35.4512 14.168 35.752C14.5508 36.0488 15.0605 36.1973 15.6973 36.1973C16.291 36.1973 16.7461 36.0762 17.0625 35.834C17.3789 35.5918 17.5371 35.2617 17.5371 34.8438C17.5371 34.4258 17.3906 34.1035 17.0977 33.877C16.8047 33.6465 16.2734 33.4199 15.5039 33.1973ZM23.8594 37C23.7969 36.875 23.7461 36.6523 23.707 36.332C23.2031 36.8555 22.6016 37.1172 21.9023 37.1172C21.2773 37.1172 20.7637 36.9414 20.3613 36.5898C19.9629 36.2344 19.7637 35.7852 19.7637 35.2422C19.7637 34.582 20.0137 34.0703 20.5137 33.707C21.0176 33.3398 21.7246 33.1562 22.6348 33.1562H23.6895V32.6582C23.6895 32.2793 23.5762 31.9785 23.3496 31.7559C23.123 31.5293 22.7891 31.416 22.3477 31.416C21.9609 31.416 21.6367 31.5137 21.375 31.709C21.1133 31.9043 20.9824 32.1406 20.9824 32.418H19.8926C19.8926 32.1016 20.0039 31.7969 20.2266 31.5039C20.4531 31.207 20.7578 30.9727 21.1406 30.8008C21.5273 30.6289 21.9512 30.543 22.4121 30.543C23.1426 30.543 23.7148 30.7266 24.1289 31.0938C24.543 31.457 24.7578 31.959 24.7734 32.5996V35.5176C24.7734 36.0996 24.8477 36.5625 24.9961 36.9062V37H23.8594ZM22.0605 36.1738C22.4004 36.1738 22.7227 36.0859 23.0273 35.9102C23.332 35.7344 23.5527 35.5059 23.6895 35.2246V33.9238H22.8398C21.5117 33.9238 20.8477 34.3125 20.8477 35.0898C20.8477 35.4297 20.9609 35.6953 21.1875 35.8867C21.4141 36.0781 21.7051 36.1738 22.0605 36.1738ZM30.3867 36.373C29.9648 36.8691 29.3457 37.1172 28.5293 37.1172C27.8535 37.1172 27.3379 36.9219 26.9824 36.5312C26.6309 36.1367 26.4531 35.5547 26.4492 34.7852V30.6602H27.5332V34.7559C27.5332 35.7168 27.9238 36.1973 28.7051 36.1973C29.5332 36.1973 30.084 35.8887 30.3574 35.2715V30.6602H31.4414V37H30.4102L30.3867 36.373ZM32.8301 33.7773C32.8301 32.8047 33.0605 32.0234 33.5215 31.4336C33.9824 30.8398 34.5859 30.543 35.332 30.543C36.0742 30.543 36.6621 30.7969 37.0957 31.3047V28H38.1797V37H37.1836L37.1309 36.3203C36.6973 36.8516 36.0938 37.1172 35.3203 37.1172C34.5859 37.1172 33.9863 36.8164 33.5215 36.2148C33.0605 35.6133 32.8301 34.8281 32.8301 33.8594V33.7773ZM33.9141 33.9004C33.9141 34.6191 34.0625 35.1816 34.3594 35.5879C34.6562 35.9941 35.0664 36.1973 35.5898 36.1973C36.2773 36.1973 36.7793 35.8887 37.0957 35.2715V32.3594C36.7715 31.7617 36.2734 31.4629 35.6016 31.4629C35.0703 31.4629 34.6562 31.668 34.3594 32.0781C34.0625 32.4883 33.9141 33.0957 33.9141 33.9004ZM41.0449 37H39.9609V30.6602H41.0449V37ZM39.873 28.9785C39.873 28.8027 39.9258 28.6543 40.0312 28.5332C40.1406 28.4121 40.3008 28.3516 40.5117 28.3516C40.7227 28.3516 40.8828 28.4121 40.9922 28.5332C41.1016 28.6543 41.1562 28.8027 41.1562 28.9785C41.1562 29.1543 41.1016 29.3008 40.9922 29.418C40.8828 29.5352 40.7227 29.5938 40.5117 29.5938C40.3008 29.5938 40.1406 29.5352 40.0312 29.418C39.9258 29.3008 39.873 29.1543 39.873 28.9785ZM50.6426 34.7734H47.0684L46.2656 37H45.1055L48.3633 28.4688H49.3477L52.6113 37H51.457L50.6426 34.7734ZM47.4082 33.8477H50.3086L48.8555 29.8574L47.4082 33.8477ZM56.6543 31.6328C56.4902 31.6055 56.3125 31.5918 56.1211 31.5918C55.4102 31.5918 54.9277 31.8945 54.6738 32.5V37H53.5898V30.6602H54.6445L54.6621 31.3926C55.0176 30.8262 55.5215 30.543 56.1738 30.543C56.3848 30.543 56.5449 30.5703 56.6543 30.625V31.6328ZM61.3359 37C61.2734 36.875 61.2227 36.6523 61.1836 36.332C60.6797 36.8555 60.0781 37.1172 59.3789 37.1172C58.7539 37.1172 58.2402 36.9414 57.8379 36.5898C57.4395 36.2344 57.2402 35.7852 57.2402 35.2422C57.2402 34.582 57.4902 34.0703 57.9902 33.707C58.4941 33.3398 59.2012 33.1562 60.1113 33.1562H61.166V32.6582C61.166 32.2793 61.0527 31.9785 60.8262 31.7559C60.5996 31.5293 60.2656 31.416 59.8242 31.416C59.4375 31.416 59.1133 31.5137 58.8516 31.709C58.5898 31.9043 58.459 32.1406 58.459 32.418H57.3691C57.3691 32.1016 57.4805 31.7969 57.7031 31.5039C57.9297 31.207 58.2344 30.9727 58.6172 30.8008C59.0039 30.6289 59.4277 30.543 59.8887 30.543C60.6191 30.543 61.1914 30.7266 61.6055 31.0938C62.0195 31.457 62.2344 31.959 62.25 32.5996V35.5176C62.25 36.0996 62.3242 36.5625 62.4727 36.9062V37H61.3359ZM59.5371 36.1738C59.877 36.1738 60.1992 36.0859 60.5039 35.9102C60.8086 35.7344 61.0293 35.5059 61.166 35.2246V33.9238H60.3164C58.9883 33.9238 58.3242 34.3125 58.3242 35.0898C58.3242 35.4297 58.4375 35.6953 58.6641 35.8867C58.8906 36.0781 59.1816 36.1738 59.5371 36.1738ZM69.3164 33.9004C69.3164 34.8691 69.0938 35.6484 68.6484 36.2383C68.2031 36.8242 67.6055 37.1172 66.8555 37.1172C66.0547 37.1172 65.4355 36.834 64.998 36.2676L64.9453 37H63.9492V28H65.0332V31.3574C65.4707 30.8145 66.0742 30.543 66.8438 30.543C67.6133 30.543 68.2168 30.834 68.6543 31.416C69.0957 31.998 69.3164 32.7949 69.3164 33.8066V33.9004ZM68.2324 33.7773C68.2324 33.0391 68.0898 32.4688 67.8047 32.0664C67.5195 31.6641 67.1094 31.4629 66.5742 31.4629C65.8594 31.4629 65.3457 31.7949 65.0332 32.459V35.2012C65.3652 35.8652 65.8828 36.1973 66.5859 36.1973C67.1055 36.1973 67.5098 35.9961 67.7988 35.5938C68.0879 35.1914 68.2324 34.5859 68.2324 33.7773ZM71.8652 37H70.7812V30.6602H71.8652V37ZM70.6934 28.9785C70.6934 28.8027 70.7461 28.6543 70.8516 28.5332C70.9609 28.4121 71.1211 28.3516 71.332 28.3516C71.543 28.3516 71.7031 28.4121 71.8125 28.5332C71.9219 28.6543 71.9766 28.8027 71.9766 28.9785C71.9766 29.1543 71.9219 29.3008 71.8125 29.418C71.7031 29.5352 71.543 29.5938 71.332 29.5938C71.1211 29.5938 70.9609 29.5352 70.8516 29.418C70.7461 29.3008 70.6934 29.1543 70.6934 28.9785ZM77.5195 37C77.457 36.875 77.4062 36.6523 77.3672 36.332C76.8633 36.8555 76.2617 37.1172 75.5625 37.1172C74.9375 37.1172 74.4238 36.9414 74.0215 36.5898C73.623 36.2344 73.4238 35.7852 73.4238 35.2422C73.4238 34.582 73.6738 34.0703 74.1738 33.707C74.6777 33.3398 75.3848 33.1562 76.2949 33.1562H77.3496V32.6582C77.3496 32.2793 77.2363 31.9785 77.0098 31.7559C76.7832 31.5293 76.4492 31.416 76.0078 31.416C75.6211 31.416 75.2969 31.5137 75.0352 31.709C74.7734 31.9043 74.6426 32.1406 74.6426 32.418H73.5527C73.5527 32.1016 73.6641 31.7969 73.8867 31.5039C74.1133 31.207 74.418 30.9727 74.8008 30.8008C75.1875 30.6289 75.6113 30.543 76.0723 30.543C76.8027 30.543 77.375 30.7266 77.7891 31.0938C78.2031 31.457 78.418 31.959 78.4336 32.5996V35.5176C78.4336 36.0996 78.5078 36.5625 78.6562 36.9062V37H77.5195ZM75.7207 36.1738C76.0605 36.1738 76.3828 36.0859 76.6875 35.9102C76.9922 35.7344 77.2129 35.5059 77.3496 35.2246V33.9238H76.5C75.1719 33.9238 74.5078 34.3125 74.5078 35.0898C74.5078 35.4297 74.6211 35.6953 74.8477 35.8867C75.0742 36.0781 75.3652 36.1738 75.7207 36.1738Z" fill="#606060"/>
<path fill-rule="evenodd" clip-rule="evenodd" d="M438.633 31.6402C439.176 30.9889 438.713 30 437.865 30H432.135C431.287 30 430.824 30.9889 431.367 31.6402L434.232 35.0781C434.632 35.5579 435.368 35.5579 435.768 35.0781L438.633 31.6402Z" fill="#4B6C89"/>
<rect x="0.5" y="19.5" width="451" height="27" rx="3.5" stroke="#B7C4D0"/>
<path d="M0.907715 10V2.17969H3.11523C3.79557 2.17969 4.39714 2.33008 4.91992 2.63086C5.44271 2.93164 5.84554 3.35954 6.12842 3.91455C6.41488 4.46956 6.5599 5.10693 6.56348 5.82666V6.32617C6.56348 7.0638 6.42025 7.71012 6.13379 8.26514C5.85091 8.82015 5.4445 9.24626 4.91455 9.54346C4.38818 9.84066 3.77409 9.99284 3.07227 10H0.907715ZM1.93896 3.02832V9.15674H3.02393C3.81885 9.15674 4.43652 8.90967 4.87695 8.41553C5.32096 7.92139 5.54297 7.21777 5.54297 6.30469V5.84814C5.54297 4.96012 5.3335 4.27083 4.91455 3.78027C4.49919 3.28613 3.90837 3.03548 3.14209 3.02832H1.93896ZM9.05029 10H8.05664V4.18848H9.05029V10ZM7.97607 2.64697C7.97607 2.48584 8.02441 2.34977 8.12109 2.23877C8.22135 2.12777 8.36816 2.07227 8.56152 2.07227C8.75488 2.07227 8.90169 2.12777 9.00195 2.23877C9.10221 2.34977 9.15234 2.48584 9.15234 2.64697C9.15234 2.80811 9.10221 2.94238 9.00195 3.0498C8.90169 3.15723 8.75488 3.21094 8.56152 3.21094C8.36816 3.21094 8.22135 3.15723 8.12109 3.0498C8.02441 2.94238 7.97607 2.80811 7.97607 2.64697ZM14.0293 8.4585C14.0293 8.18994 13.9272 7.98226 13.7231 7.83545C13.5226 7.68506 13.1699 7.55615 12.665 7.44873C12.1637 7.34131 11.7645 7.2124 11.4673 7.06201C11.1737 6.91162 10.9552 6.73258 10.812 6.5249C10.6724 6.31722 10.6025 6.07015 10.6025 5.78369C10.6025 5.30745 10.8031 4.90462 11.2041 4.5752C11.6087 4.24577 12.1243 4.08105 12.751 4.08105C13.4098 4.08105 13.9434 4.25114 14.3516 4.59131C14.7633 4.93148 14.9692 5.36654 14.9692 5.89648H13.9702C13.9702 5.62435 13.8538 5.38981 13.6211 5.19287C13.3919 4.99593 13.1019 4.89746 12.751 4.89746C12.3893 4.89746 12.1064 4.97624 11.9023 5.13379C11.6982 5.29134 11.5962 5.49723 11.5962 5.75146C11.5962 5.99137 11.6911 6.1722 11.8809 6.29395C12.0706 6.41569 12.4126 6.53206 12.9067 6.64307C13.4045 6.75407 13.8073 6.88656 14.1152 7.04053C14.4232 7.1945 14.6506 7.3807 14.7974 7.59912C14.9478 7.81396 15.0229 8.07715 15.0229 8.38867C15.0229 8.90788 14.8153 9.32503 14.3999 9.64014C13.9845 9.95166 13.4456 10.1074 12.7832 10.1074C12.3177 10.1074 11.9059 10.0251 11.5479 9.86035C11.1898 9.69564 10.9087 9.46647 10.7046 9.17285C10.5041 8.87565 10.4038 8.55518 10.4038 8.21143H11.3975C11.4154 8.54443 11.5479 8.80941 11.7949 9.00635C12.0456 9.19971 12.375 9.29639 12.7832 9.29639C13.1592 9.29639 13.46 9.22119 13.6855 9.0708C13.9147 8.91683 14.0293 8.71273 14.0293 8.4585ZM19.9053 10C19.848 9.88542 19.8014 9.68132 19.7656 9.3877C19.3037 9.86751 18.7523 10.1074 18.1113 10.1074C17.5384 10.1074 17.0675 9.94629 16.6987 9.62402C16.3335 9.29818 16.1509 8.88639 16.1509 8.38867C16.1509 7.78353 16.38 7.31445 16.8384 6.98145C17.3003 6.64486 17.9484 6.47656 18.7827 6.47656H19.7495V6.02002C19.7495 5.67269 19.6457 5.39697 19.438 5.19287C19.2303 4.98519 18.9242 4.88135 18.5195 4.88135C18.165 4.88135 17.8678 4.97087 17.6279 5.1499C17.388 5.32894 17.2681 5.54557 17.2681 5.7998H16.269C16.269 5.50977 16.3711 5.23047 16.5752 4.96191C16.7829 4.68978 17.0622 4.47493 17.4131 4.31738C17.7676 4.15983 18.1561 4.08105 18.5786 4.08105C19.2482 4.08105 19.7728 4.24935 20.1523 4.58594C20.5319 4.91895 20.7288 5.37907 20.7432 5.96631V8.64111C20.7432 9.17464 20.8112 9.59896 20.9473 9.91406V10H19.9053ZM18.2563 9.24268C18.5679 9.24268 18.8633 9.16211 19.1426 9.00098C19.4219 8.83984 19.6242 8.63037 19.7495 8.37256V7.18018H18.9707C17.7533 7.18018 17.1445 7.53646 17.1445 8.24902C17.1445 8.56055 17.2484 8.80404 17.4561 8.97949C17.6637 9.15495 17.9305 9.24268 18.2563 9.24268ZM27.2207 7.15869C27.2207 8.04671 27.0166 8.76107 26.6084 9.30176C26.2002 9.83887 25.6523 10.1074 24.9648 10.1074C24.2308 10.1074 23.6632 9.84782 23.2622 9.32861L23.2139 10H22.3008V1.75H23.2944V4.82764C23.6955 4.32992 24.2487 4.08105 24.9541 4.08105C25.6595 4.08105 26.2127 4.34782 26.6138 4.88135C27.0184 5.41488 27.2207 6.14535 27.2207 7.07275V7.15869ZM26.2271 7.0459C26.2271 6.36914 26.0964 5.84635 25.835 5.47754C25.5736 5.10872 25.1976 4.92432 24.707 4.92432C24.0518 4.92432 23.5809 5.22868 23.2944 5.8374V8.35107C23.5988 8.9598 24.0732 9.26416 24.7178 9.26416C25.194 9.26416 25.5646 9.07975 25.8296 8.71094C26.0946 8.34212 26.2271 7.78711 26.2271 7.0459ZM29.5571 10H28.5635V1.75H29.5571V10ZM33.564 10.1074C32.7762 10.1074 32.1353 9.84961 31.6411 9.33398C31.147 8.81478 30.8999 8.12191 30.8999 7.25537V7.07275C30.8999 6.49626 31.0091 5.98242 31.2275 5.53125C31.4495 5.0765 31.7575 4.72201 32.1514 4.46777C32.5488 4.20996 32.9785 4.08105 33.4404 4.08105C34.196 4.08105 34.7832 4.32992 35.2021 4.82764C35.6211 5.32536 35.8306 6.03792 35.8306 6.96533V7.37891H31.8936C31.9079 7.95182 32.0744 8.41553 32.3931 8.77002C32.7153 9.12093 33.1235 9.29639 33.6177 9.29639C33.9686 9.29639 34.2658 9.22477 34.5093 9.08154C34.7528 8.93831 34.9658 8.74854 35.1484 8.51221L35.7554 8.98486C35.2684 9.73324 34.5379 10.1074 33.564 10.1074ZM33.4404 4.89746C33.0394 4.89746 32.7028 5.04427 32.4307 5.33789C32.1585 5.62793 31.9902 6.03613 31.9258 6.5625H34.8369V6.4873C34.8083 5.98242 34.6722 5.59212 34.4287 5.31641C34.1852 5.03711 33.8558 4.89746 33.4404 4.89746ZM36.7437 7.0459C36.7437 6.1543 36.9549 5.43815 37.3774 4.89746C37.8 4.35319 38.3532 4.08105 39.0371 4.08105C39.7174 4.08105 40.2563 4.3138 40.6538 4.7793V1.75H41.6475V10H40.7344L40.686 9.37695C40.2886 9.86393 39.7354 10.1074 39.0264 10.1074C38.3532 10.1074 37.8035 9.83171 37.3774 9.28027C36.9549 8.72884 36.7437 8.00911 36.7437 7.12109V7.0459ZM37.7373 7.15869C37.7373 7.81755 37.8734 8.33317 38.1455 8.70557C38.4176 9.07796 38.7936 9.26416 39.2734 9.26416C39.9036 9.26416 40.3638 8.98128 40.6538 8.41553V5.74609C40.3566 5.19824 39.9001 4.92432 39.2842 4.92432C38.7972 4.92432 38.4176 5.1123 38.1455 5.48828C37.8734 5.86426 37.7373 6.42106 37.7373 7.15869Z" fill="#6F89A1"/>
</svg>
