<svg width="108" height="24" viewBox="0 0 108 24" fill="none" xmlns="http://www.w3.org/2000/svg">
<path opacity="0.2" fill-rule="evenodd" clip-rule="evenodd" d="M0 8C0 3.58172 3.58172 0 8 0H100C104.418 0 108 3.58172 108 8V16C108 20.4183 104.418 24 100 24H8C3.58172 24 0 20.4183 0 16V8Z" fill="#69AEC4"/>
<path d="M40.4414 17H39.2163V12.728H34.5571V17H33.3384V7.75781H34.5571V11.7314H39.2163V7.75781H40.4414V17ZM42.1108 13.5024C42.1108 12.8296 42.242 12.2244 42.5044 11.687C42.771 11.1496 43.1392 10.7349 43.6089 10.4429C44.0828 10.1509 44.6224 10.0049 45.2275 10.0049C46.1628 10.0049 46.9181 10.3286 47.4937 10.9761C48.0734 11.6235 48.3633 12.4847 48.3633 13.5596V13.6421C48.3633 14.3107 48.2342 14.9116 47.9761 15.4448C47.7222 15.9738 47.3561 16.3864 46.8779 16.6826C46.404 16.9788 45.8581 17.127 45.2402 17.127C44.3092 17.127 43.5539 16.8032 42.9741 16.1558C42.3986 15.5083 42.1108 14.6514 42.1108 13.585V13.5024ZM43.2915 13.6421C43.2915 14.4038 43.4671 15.0153 43.8184 15.4766C44.1738 15.9378 44.6478 16.1685 45.2402 16.1685C45.8369 16.1685 46.3109 15.9357 46.6621 15.4702C47.0133 15.0005 47.189 14.3446 47.189 13.5024C47.189 12.7492 47.0091 12.1398 46.6494 11.6743C46.2939 11.2046 45.82 10.9697 45.2275 10.9697C44.6478 10.9697 44.1802 11.2004 43.8247 11.6616C43.4692 12.1229 43.2915 12.783 43.2915 13.6421ZM51.1118 17H49.9375V7.25H51.1118V17ZM54.2729 17H53.0986V10.1318H54.2729V17ZM53.0034 8.31006C53.0034 8.11963 53.0605 7.95882 53.1748 7.82764C53.2933 7.69645 53.4668 7.63086 53.6953 7.63086C53.9238 7.63086 54.0973 7.69645 54.2158 7.82764C54.3343 7.95882 54.3936 8.11963 54.3936 8.31006C54.3936 8.50049 54.3343 8.65918 54.2158 8.78613C54.0973 8.91309 53.9238 8.97656 53.6953 8.97656C53.4668 8.97656 53.2933 8.91309 53.1748 8.78613C53.0605 8.65918 53.0034 8.50049 53.0034 8.31006ZM55.8726 13.5088C55.8726 12.4551 56.1222 11.6087 56.6216 10.9697C57.1209 10.3265 57.7747 10.0049 58.583 10.0049C59.387 10.0049 60.0239 10.2799 60.4937 10.8301V7.25H61.668V17H60.5889L60.5317 16.2637C60.062 16.8392 59.4082 17.127 58.5703 17.127C57.7747 17.127 57.1252 16.8011 56.6216 16.1494C56.1222 15.4977 55.8726 14.6471 55.8726 13.5977V13.5088ZM57.0469 13.6421C57.0469 14.4207 57.2077 15.0301 57.5293 15.4702C57.8509 15.9103 58.2952 16.1304 58.8623 16.1304C59.6071 16.1304 60.1509 15.7961 60.4937 15.1274V11.9727C60.1424 11.3252 59.6029 11.0015 58.875 11.0015C58.2995 11.0015 57.8509 11.2236 57.5293 11.668C57.2077 12.1123 57.0469 12.7703 57.0469 13.6421ZM67.7363 17C67.6686 16.8646 67.6136 16.6234 67.5713 16.2764C67.0254 16.8434 66.3737 17.127 65.6162 17.127C64.9391 17.127 64.3826 16.9365 63.9468 16.5557C63.5151 16.1706 63.2993 15.6839 63.2993 15.0957C63.2993 14.3805 63.5701 13.8262 64.1118 13.4326C64.6577 13.0348 65.4237 12.8359 66.4097 12.8359H67.5522V12.2964C67.5522 11.8859 67.4295 11.5601 67.1841 11.3188C66.9386 11.0734 66.5768 10.9507 66.0986 10.9507C65.6797 10.9507 65.3285 11.0565 65.0449 11.2681C64.7614 11.4797 64.6196 11.7357 64.6196 12.0361H63.439C63.439 11.6934 63.5596 11.3633 63.8008 11.0459C64.0462 10.7243 64.3763 10.4704 64.791 10.2842C65.21 10.098 65.6691 10.0049 66.1685 10.0049C66.9598 10.0049 67.5798 10.2038 68.0283 10.6016C68.4769 10.9951 68.7096 11.5389 68.7266 12.2329V15.394C68.7266 16.0246 68.807 16.526 68.9678 16.8984V17H67.7363ZM65.7876 16.105C66.1558 16.105 66.5049 16.0098 66.835 15.8193C67.165 15.6289 67.4041 15.3813 67.5522 15.0767V13.6675H66.6318C65.193 13.6675 64.4736 14.0885 64.4736 14.9307C64.4736 15.2988 64.5964 15.5866 64.8418 15.7939C65.0872 16.0013 65.4025 16.105 65.7876 16.105ZM72.7129 15.2798L74.3125 10.1318H75.5693L72.8081 18.0601C72.3807 19.2026 71.7015 19.7739 70.7705 19.7739L70.5483 19.7549L70.1104 19.6724V18.7202L70.4277 18.7456C70.8255 18.7456 71.1344 18.6652 71.3545 18.5044C71.5788 18.3436 71.7629 18.0495 71.9067 17.6221L72.167 16.9238L69.7168 10.1318H70.999L72.7129 15.2798Z" fill="#606060"/>
</svg>
