<svg width="453" height="52" viewBox="0 0 453 52" fill="none" xmlns="http://www.w3.org/2000/svg">
<rect x="0.5" y="20.5" width="452" height="31" rx="3.5" fill="white"/>
<path d="M14.8506 31.0469L18.1045 39.168L21.3584 31.0469H23.0605V41H21.748V37.124L21.8711 32.9404L18.6035 41H17.5986L14.3379 32.9609L14.4678 37.124V41H13.1553V31.0469H14.8506ZM24.8447 37.2334C24.8447 36.5088 24.986 35.8571 25.2686 35.2783C25.5557 34.6995 25.9521 34.2529 26.458 33.9385C26.9684 33.624 27.5495 33.4668 28.2012 33.4668C29.2083 33.4668 30.0218 33.8154 30.6416 34.5127C31.266 35.21 31.5781 36.1374 31.5781 37.2949V37.3838C31.5781 38.1038 31.4391 38.751 31.1611 39.3252C30.8877 39.8949 30.4935 40.3392 29.9785 40.6582C29.4681 40.9772 28.8802 41.1367 28.2148 41.1367C27.2122 41.1367 26.3988 40.7881 25.7744 40.0908C25.1546 39.3936 24.8447 38.4707 24.8447 37.3223V37.2334ZM26.1162 37.3838C26.1162 38.2041 26.3053 38.8626 26.6836 39.3594C27.0664 39.8561 27.5768 40.1045 28.2148 40.1045C28.8574 40.1045 29.3678 39.8538 29.7461 39.3525C30.1243 38.8467 30.3135 38.1403 30.3135 37.2334C30.3135 36.4222 30.1198 35.766 29.7324 35.2646C29.3496 34.7588 28.8392 34.5059 28.2012 34.5059C27.5768 34.5059 27.0732 34.7542 26.6904 35.251C26.3076 35.7477 26.1162 36.4587 26.1162 37.3838ZM34.4287 34.499C34.9893 33.8109 35.7184 33.4668 36.6162 33.4668C38.1794 33.4668 38.9678 34.3486 38.9814 36.1123V41H37.7168V36.1055C37.7122 35.5723 37.5892 35.1781 37.3477 34.9229C37.1107 34.6676 36.7393 34.54 36.2334 34.54C35.8232 34.54 35.4632 34.6494 35.1533 34.8682C34.8434 35.0869 34.6019 35.374 34.4287 35.7295V41H33.1641V30.5H34.4287V34.499ZM45.4414 41C45.3685 40.8542 45.3092 40.5944 45.2637 40.2207C44.6758 40.8314 43.974 41.1367 43.1582 41.1367C42.429 41.1367 41.8298 40.9316 41.3604 40.5215C40.8955 40.1068 40.6631 39.5827 40.6631 38.9492C40.6631 38.179 40.9548 37.582 41.5381 37.1582C42.126 36.7298 42.9508 36.5156 44.0127 36.5156H45.2432V35.9346C45.2432 35.4925 45.111 35.1416 44.8467 34.8818C44.5824 34.6175 44.1927 34.4854 43.6777 34.4854C43.2266 34.4854 42.8483 34.5993 42.543 34.8271C42.2376 35.055 42.085 35.3307 42.085 35.6543H40.8135C40.8135 35.2852 40.9434 34.9297 41.2031 34.5879C41.4674 34.2415 41.8229 33.9681 42.2695 33.7676C42.7207 33.5671 43.2152 33.4668 43.7529 33.4668C44.6051 33.4668 45.2728 33.681 45.7559 34.1094C46.2389 34.5332 46.4896 35.1188 46.5078 35.8662V39.2705C46.5078 39.9495 46.5944 40.4896 46.7676 40.8906V41H45.4414ZM43.3428 40.0361C43.7393 40.0361 44.1152 39.9336 44.4707 39.7285C44.8262 39.5234 45.0837 39.2568 45.2432 38.9287V37.4111H44.252C42.7025 37.4111 41.9277 37.8646 41.9277 38.7715C41.9277 39.168 42.0599 39.4779 42.3242 39.7012C42.5885 39.9245 42.9281 40.0361 43.3428 40.0361ZM49.6797 33.6035L49.7139 34.4238C50.2562 33.7858 50.9876 33.4668 51.9082 33.4668C52.9427 33.4668 53.6468 33.8633 54.0205 34.6562C54.2666 34.3008 54.5856 34.0137 54.9775 33.7949C55.374 33.5762 55.8411 33.4668 56.3789 33.4668C58.0013 33.4668 58.8262 34.3258 58.8535 36.0439V41H57.5889V36.1191C57.5889 35.5905 57.4681 35.1963 57.2266 34.9365C56.985 34.6722 56.5794 34.54 56.0098 34.54C55.5404 34.54 55.1507 34.6813 54.8408 34.9639C54.5309 35.2419 54.3509 35.6178 54.3008 36.0918V41H53.0293V36.1533C53.0293 35.0778 52.5029 34.54 51.4502 34.54C50.6208 34.54 50.0534 34.8932 49.748 35.5996V41H48.4834V33.6035H49.6797ZM61.957 33.6035L61.9912 34.4238C62.5335 33.7858 63.265 33.4668 64.1855 33.4668C65.2201 33.4668 65.9242 33.8633 66.2979 34.6562C66.5439 34.3008 66.863 34.0137 67.2549 33.7949C67.6514 33.5762 68.1185 33.4668 68.6562 33.4668C70.2786 33.4668 71.1035 34.3258 71.1309 36.0439V41H69.8662V36.1191C69.8662 35.5905 69.7454 35.1963 69.5039 34.9365C69.2624 34.6722 68.8568 34.54 68.2871 34.54C67.8177 34.54 67.4281 34.6813 67.1182 34.9639C66.8083 35.2419 66.6283 35.6178 66.5781 36.0918V41H65.3066V36.1533C65.3066 35.0778 64.7803 34.54 63.7275 34.54C62.8981 34.54 62.3307 34.8932 62.0254 35.5996V41H60.7607V33.6035H61.957ZM76.1143 41.1367C75.1117 41.1367 74.2959 40.8086 73.667 40.1523C73.0381 39.4915 72.7236 38.6097 72.7236 37.5068V37.2744C72.7236 36.5407 72.8626 35.8867 73.1406 35.3125C73.4232 34.7337 73.8151 34.2826 74.3164 33.959C74.8223 33.6309 75.3691 33.4668 75.957 33.4668C76.9186 33.4668 77.666 33.7835 78.1992 34.417C78.7324 35.0505 78.999 35.9574 78.999 37.1377V37.6641H73.9883C74.0065 38.3932 74.2184 38.9834 74.624 39.4346C75.0342 39.8812 75.5537 40.1045 76.1826 40.1045C76.6292 40.1045 77.0075 40.0133 77.3174 39.8311C77.6273 39.6488 77.8984 39.4072 78.1309 39.1064L78.9033 39.708C78.2835 40.6605 77.3538 41.1367 76.1143 41.1367ZM75.957 34.5059C75.4466 34.5059 75.0182 34.6927 74.6719 35.0664C74.3255 35.4355 74.1113 35.9551 74.0293 36.625H77.7344V36.5293C77.6979 35.8867 77.5247 35.39 77.2148 35.0391C76.9049 34.6836 76.4857 34.5059 75.957 34.5059ZM80.1611 37.2402C80.1611 36.1055 80.43 35.194 80.9678 34.5059C81.5055 33.8132 82.2096 33.4668 83.0801 33.4668C83.946 33.4668 84.6318 33.763 85.1377 34.3555V30.5H86.4023V41H85.2402L85.1787 40.207C84.6729 40.8268 83.9688 41.1367 83.0664 41.1367C82.2096 41.1367 81.5101 40.7858 80.9678 40.084C80.43 39.3822 80.1611 38.4661 80.1611 37.3359V37.2402ZM81.4258 37.3838C81.4258 38.2223 81.599 38.8786 81.9453 39.3525C82.2917 39.8265 82.7702 40.0635 83.3809 40.0635C84.1829 40.0635 84.7686 39.7035 85.1377 38.9834V35.5859C84.7594 34.8887 84.1784 34.54 83.3945 34.54C82.7747 34.54 82.2917 34.7793 81.9453 35.2578C81.599 35.7363 81.4258 36.445 81.4258 37.3838ZM97.5381 38.4023H93.3682L92.4316 41H91.0781L94.8789 31.0469H96.0273L99.835 41H98.4883L97.5381 38.4023ZM93.7646 37.3223H97.1484L95.4531 32.667L93.7646 37.3223ZM103.041 37.5752L102.248 38.4023V41H100.983V30.5H102.248V36.8506L102.925 36.0371L105.229 33.6035H106.767L103.889 36.6934L107.102 41H105.618L103.041 37.5752ZM110.137 37.5752L109.344 38.4023V41H108.079V30.5H109.344V36.8506L110.021 36.0371L112.324 33.6035H113.862L110.984 36.6934L114.197 41H112.714L110.137 37.5752ZM119.734 41C119.661 40.8542 119.602 40.5944 119.557 40.2207C118.969 40.8314 118.267 41.1367 117.451 41.1367C116.722 41.1367 116.123 40.9316 115.653 40.5215C115.188 40.1068 114.956 39.5827 114.956 38.9492C114.956 38.179 115.248 37.582 115.831 37.1582C116.419 36.7298 117.244 36.5156 118.306 36.5156H119.536V35.9346C119.536 35.4925 119.404 35.1416 119.14 34.8818C118.875 34.6175 118.486 34.4854 117.971 34.4854C117.52 34.4854 117.141 34.5993 116.836 34.8271C116.531 35.055 116.378 35.3307 116.378 35.6543H115.106C115.106 35.2852 115.236 34.9297 115.496 34.5879C115.76 34.2415 116.116 33.9681 116.562 33.7676C117.014 33.5671 117.508 33.4668 118.046 33.4668C118.898 33.4668 119.566 33.681 120.049 34.1094C120.532 34.5332 120.783 35.1188 120.801 35.8662V39.2705C120.801 39.9495 120.887 40.4896 121.061 40.8906V41H119.734ZM117.636 40.0361C118.032 40.0361 118.408 39.9336 118.764 39.7285C119.119 39.5234 119.377 39.2568 119.536 38.9287V37.4111H118.545C116.995 37.4111 116.221 37.8646 116.221 38.7715C116.221 39.168 116.353 39.4779 116.617 39.7012C116.882 39.9245 117.221 40.0361 117.636 40.0361ZM126.358 34.7383C126.167 34.7064 125.96 34.6904 125.736 34.6904C124.907 34.6904 124.344 35.0436 124.048 35.75V41H122.783V33.6035H124.014L124.034 34.458C124.449 33.7972 125.037 33.4668 125.798 33.4668C126.044 33.4668 126.231 33.4987 126.358 33.5625V34.7383Z" fill="#404040"/>
<rect x="0.5" y="20.5" width="452" height="31" rx="3.5" stroke="#B7C4D0"/>
<path d="M7.54688 11H6.41602L2.12109 4.42578V11H0.990234V2.46875H2.12109L6.42773 9.07227V2.46875H7.54688V11ZM9.08789 7.77148C9.08789 7.15039 9.20898 6.5918 9.45117 6.0957C9.69727 5.59961 10.0371 5.2168 10.4707 4.94727C10.9082 4.67773 11.4062 4.54297 11.9648 4.54297C12.8281 4.54297 13.5254 4.8418 14.0566 5.43945C14.5918 6.03711 14.8594 6.83203 14.8594 7.82422V7.90039C14.8594 8.51758 14.7402 9.07227 14.502 9.56445C14.2676 10.0527 13.9297 10.4336 13.4883 10.707C13.0508 10.9805 12.5469 11.1172 11.9766 11.1172C11.1172 11.1172 10.4199 10.8184 9.88477 10.2207C9.35352 9.62305 9.08789 8.83203 9.08789 7.84766V7.77148ZM10.1777 7.90039C10.1777 8.60352 10.3398 9.16797 10.6641 9.59375C10.9922 10.0195 11.4297 10.2324 11.9766 10.2324C12.5273 10.2324 12.9648 10.0176 13.2891 9.58789C13.6133 9.1543 13.7754 8.54883 13.7754 7.77148C13.7754 7.07617 13.6094 6.51367 13.2773 6.08398C12.9492 5.65039 12.5117 5.43359 11.9648 5.43359C11.4297 5.43359 10.998 5.64648 10.6699 6.07227C10.3418 6.49805 10.1777 7.10742 10.1777 7.90039ZM19.2832 5.63281C19.1191 5.60547 18.9414 5.5918 18.75 5.5918C18.0391 5.5918 17.5566 5.89453 17.3027 6.5V11H16.2188V4.66016H17.2734L17.291 5.39258C17.6465 4.82617 18.1504 4.54297 18.8027 4.54297C19.0137 4.54297 19.1738 4.57031 19.2832 4.625V5.63281ZM21.3047 4.66016L21.334 5.36328C21.7988 4.81641 22.4258 4.54297 23.2148 4.54297C24.1016 4.54297 24.7051 4.88281 25.0254 5.5625C25.2363 5.25781 25.5098 5.01172 25.8457 4.82422C26.1855 4.63672 26.5859 4.54297 27.0469 4.54297C28.4375 4.54297 29.1445 5.2793 29.168 6.75195V11H28.084V6.81641C28.084 6.36328 27.9805 6.02539 27.7734 5.80273C27.5664 5.57617 27.2188 5.46289 26.7305 5.46289C26.3281 5.46289 25.9941 5.58398 25.7285 5.82617C25.4629 6.06445 25.3086 6.38672 25.2656 6.79297V11H24.1758V6.8457C24.1758 5.92383 23.7246 5.46289 22.8223 5.46289C22.1113 5.46289 21.625 5.76562 21.3633 6.37109V11H20.2793V4.66016H21.3047ZM34.7227 11C34.6602 10.875 34.6094 10.6523 34.5703 10.332C34.0664 10.8555 33.4648 11.1172 32.7656 11.1172C32.1406 11.1172 31.627 10.9414 31.2246 10.5898C30.8262 10.2344 30.627 9.78516 30.627 9.24219C30.627 8.58203 30.877 8.07031 31.377 7.70703C31.8809 7.33984 32.5879 7.15625 33.498 7.15625H34.5527V6.6582C34.5527 6.2793 34.4395 5.97852 34.2129 5.75586C33.9863 5.5293 33.6523 5.41602 33.2109 5.41602C32.8242 5.41602 32.5 5.51367 32.2383 5.70898C31.9766 5.9043 31.8457 6.14062 31.8457 6.41797H30.7559C30.7559 6.10156 30.8672 5.79688 31.0898 5.50391C31.3164 5.20703 31.6211 4.97266 32.0039 4.80078C32.3906 4.62891 32.8145 4.54297 33.2754 4.54297C34.0059 4.54297 34.5781 4.72656 34.9922 5.09375C35.4062 5.45703 35.6211 5.95898 35.6367 6.59961V9.51758C35.6367 10.0996 35.7109 10.5625 35.8594 10.9062V11H34.7227ZM32.9238 10.1738C33.2637 10.1738 33.5859 10.0859 33.8906 9.91016C34.1953 9.73438 34.416 9.50586 34.5527 9.22461V7.92383H33.7031C32.375 7.92383 31.7109 8.3125 31.7109 9.08984C31.7109 9.42969 31.8242 9.69531 32.0508 9.88672C32.2773 10.0781 32.5684 10.1738 32.9238 10.1738ZM38.5137 11H37.4297V2H38.5137V11Z" fill="#6F89A1"/>
</svg>
