<svg width="67" height="28" viewBox="0 0 67 28" fill="none" xmlns="http://www.w3.org/2000/svg">
<path d="M0 14C0 6.26801 6.26801 0 14 0H53C60.732 0 67 6.26801 67 14C67 21.732 60.732 28 53 28H14C6.26801 28 0 21.732 0 14Z" fill="url(#paint0_linear)"/>
<path d="M19.002 18H12.7876V16.9399L15.8662 13.582C16.3105 13.0869 16.6258 12.6743 16.812 12.3442C17.0024 12.0099 17.0977 11.6756 17.0977 11.3413C17.0977 10.9012 16.9728 10.5457 16.7231 10.2749C16.4777 10.0041 16.1455 9.86865 15.7266 9.86865C15.2272 9.86865 14.84 10.021 14.5649 10.3257C14.2899 10.6304 14.1523 11.0472 14.1523 11.5762H12.6099C12.6099 11.0133 12.7368 10.5076 12.9907 10.0591C13.2489 9.60628 13.6149 9.25505 14.0889 9.00537C14.5671 8.7557 15.1172 8.63086 15.7393 8.63086C16.6364 8.63086 17.3431 8.85726 17.8594 9.31006C18.3799 9.75863 18.6401 10.3807 18.6401 11.1763C18.6401 11.6375 18.509 12.1221 18.2466 12.6299C17.9884 13.1335 17.5632 13.7069 16.9707 14.3501L14.7109 16.7686H19.002V18ZM25.9971 11.1953C25.9971 11.6481 25.8807 12.0522 25.6479 12.4077C25.4152 12.759 25.0978 13.0361 24.6958 13.2393C25.1782 13.4635 25.5485 13.7703 25.8066 14.1597C26.069 14.549 26.2002 14.9891 26.2002 15.48C26.2002 16.2925 25.9251 16.9378 25.375 17.416C24.8249 17.89 24.0928 18.127 23.1787 18.127C22.2604 18.127 21.5241 17.8879 20.9697 17.4097C20.4196 16.9315 20.1445 16.2882 20.1445 15.48C20.1445 14.9849 20.2757 14.5405 20.5381 14.147C20.8005 13.7534 21.1686 13.4508 21.6426 13.2393C21.2448 13.0361 20.9295 12.759 20.6968 12.4077C20.4683 12.0522 20.354 11.6481 20.354 11.1953C20.354 10.4082 20.6079 9.78402 21.1157 9.32275C21.6235 8.86149 22.3091 8.63086 23.1724 8.63086C24.0399 8.63086 24.7275 8.86149 25.2354 9.32275C25.7432 9.78402 25.9971 10.4082 25.9971 11.1953ZM24.6577 15.4038C24.6577 14.9468 24.5202 14.5786 24.2451 14.2993C23.9743 14.0158 23.6146 13.874 23.166 13.874C22.7174 13.874 22.3577 14.0137 22.0869 14.293C21.8203 14.5723 21.687 14.9425 21.687 15.4038C21.687 15.8566 21.8182 16.2184 22.0806 16.4893C22.3472 16.7601 22.7132 16.8955 23.1787 16.8955C23.6442 16.8955 24.006 16.7643 24.2642 16.502C24.5265 16.2396 24.6577 15.8735 24.6577 15.4038ZM24.4609 11.2524C24.4609 10.8504 24.3446 10.5203 24.1118 10.2622C23.8791 9.99984 23.5659 9.86865 23.1724 9.86865C22.7788 9.86865 22.4678 9.99349 22.2393 10.2432C22.0107 10.4886 21.8965 10.825 21.8965 11.2524C21.8965 11.6756 22.0107 12.012 22.2393 12.2617C22.472 12.5114 22.7852 12.6362 23.1787 12.6362C23.5723 12.6362 23.8833 12.5114 24.1118 12.2617C24.3446 12.012 24.4609 11.6756 24.4609 11.2524ZM37.3467 10.0527H34.4648V18H32.8716V10.0527H30.0151V8.75781H37.3467V10.0527ZM40.8696 18.127C39.8921 18.127 39.0986 17.8201 38.4893 17.2065C37.8841 16.5887 37.5815 15.7677 37.5815 14.7437V14.5532C37.5815 13.8677 37.7127 13.2562 37.9751 12.7188C38.2417 12.1771 38.6141 11.756 39.0923 11.4556C39.5705 11.1551 40.1037 11.0049 40.6919 11.0049C41.6271 11.0049 42.3486 11.3032 42.8564 11.8999C43.3685 12.4966 43.6245 13.3408 43.6245 14.4326V15.0547H39.1367C39.1833 15.6217 39.3716 16.0703 39.7017 16.4004C40.036 16.7305 40.4549 16.8955 40.9585 16.8955C41.6652 16.8955 42.2407 16.6099 42.6851 16.0386L43.5166 16.832C43.2415 17.2425 42.8734 17.562 42.4121 17.7905C41.9551 18.0148 41.4409 18.127 40.8696 18.127ZM40.6855 12.2427C40.2624 12.2427 39.9196 12.3908 39.6572 12.687C39.3991 12.9832 39.234 13.3958 39.1621 13.9248H42.1011V13.8105C42.0672 13.2943 41.9297 12.9049 41.6885 12.6426C41.4473 12.376 41.113 12.2427 40.6855 12.2427ZM47.2935 13.3916L48.6011 11.1318H50.3149L48.2139 14.5151L50.3848 18H48.6836L47.3125 15.6514L45.9478 18H44.2339L46.4048 14.5151L44.3101 11.1318H46.0112L47.2935 13.3916ZM53.2983 9.4624V11.1318H54.5107V12.2744H53.2983V16.1084C53.2983 16.3708 53.3491 16.5612 53.4507 16.6797C53.5565 16.7939 53.7427 16.8511 54.0093 16.8511C54.187 16.8511 54.3669 16.8299 54.5488 16.7876V17.981C54.1976 18.0783 53.859 18.127 53.5332 18.127C52.3483 18.127 51.7559 17.4731 51.7559 16.1655V12.2744H50.626V11.1318H51.7559V9.4624H53.2983Z" fill="#0371FF"/>
<path d="M14 1H53V-1H14V1ZM53 27H14V29H53V27ZM14 27C6.8203 27 1 21.1797 1 14H-1C-1 22.2843 5.71573 29 14 29V27ZM66 14C66 21.1797 60.1797 27 53 27V29C61.2843 29 68 22.2843 68 14H66ZM53 1C60.1797 1 66 6.8203 66 14H68C68 5.71573 61.2843 -1 53 -1V1ZM14 -1C5.71573 -1 -1 5.71573 -1 14H1C1 6.8203 6.8203 1 14 1V-1Z" fill="#0371FF"/>
<defs>
<linearGradient id="paint0_linear" x1="0" y1="14" x2="67" y2="14" gradientUnits="userSpaceOnUse">
<stop stop-color="#F7FAFF"/>
<stop offset="1" stop-color="#F7FAFF"/>
</linearGradient>
</defs>
</svg>
