<svg width="62" height="24" viewBox="0 0 62 24" fill="none" xmlns="http://www.w3.org/2000/svg">
<path d="M0 12C0 5.37258 5.37258 0 12 0H50C56.6274 0 62 5.37258 62 12C62 18.6274 56.6274 24 50 24H12C5.37258 24 0 18.6274 0 12Z" fill="#F2F8FF"/>
<path d="M18.4668 16H12.7305V15.0215L15.5723 11.9219C15.9824 11.4648 16.2734 11.084 16.4453 10.7793C16.6211 10.4707 16.709 10.1621 16.709 9.85352C16.709 9.44727 16.5938 9.11914 16.3633 8.86914C16.1367 8.61914 15.8301 8.49414 15.4434 8.49414C14.9824 8.49414 14.625 8.63477 14.3711 8.91602C14.1172 9.19727 13.9902 9.58203 13.9902 10.0703H12.5664C12.5664 9.55078 12.6836 9.08398 12.918 8.66992C13.1562 8.25195 13.4941 7.92773 13.9316 7.69727C14.373 7.4668 14.8809 7.35156 15.4551 7.35156C16.2832 7.35156 16.9355 7.56055 17.4121 7.97852C17.8926 8.39258 18.1328 8.9668 18.1328 9.70117C18.1328 10.127 18.0117 10.5742 17.7695 11.043C17.5312 11.5078 17.1387 12.0371 16.5918 12.6309L14.5059 14.8633H18.4668V16ZM24.3672 12.959H25.4277V14.1016H24.3672V16H22.9434V14.1016H19.2578L19.2168 13.2344L22.8965 7.46875H24.3672V12.959ZM20.7109 12.959H22.9434V9.39648L22.8379 9.58398L20.7109 12.959ZM31.0703 14.8164H34.9434V16H29.5879V7.46875H31.0703V14.8164ZM38.7344 16.1172C37.832 16.1172 37.0996 15.834 36.5371 15.2676C35.9785 14.6973 35.6992 13.9395 35.6992 12.9941V12.8184C35.6992 12.1855 35.8203 11.6211 36.0625 11.125C36.3086 10.625 36.6523 10.2363 37.0938 9.95898C37.5352 9.68164 38.0273 9.54297 38.5703 9.54297C39.4336 9.54297 40.0996 9.81836 40.5684 10.3691C41.041 10.9199 41.2773 11.6992 41.2773 12.707V13.2812H37.1348C37.1777 13.8047 37.3516 14.2188 37.6562 14.5234C37.9648 14.8281 38.3516 14.9805 38.8164 14.9805C39.4688 14.9805 40 14.7168 40.4102 14.1895L41.1777 14.9219C40.9238 15.3008 40.584 15.5957 40.1582 15.8066C39.7363 16.0137 39.2617 16.1172 38.7344 16.1172ZM38.5645 10.6855C38.1738 10.6855 37.8574 10.8223 37.6152 11.0957C37.377 11.3691 37.2246 11.75 37.1582 12.2383H39.8711V12.1328C39.8398 11.6562 39.7129 11.2969 39.4902 11.0547C39.2676 10.8086 38.959 10.6855 38.5645 10.6855ZM42.8887 16V10.7148H41.9219V9.66016H42.8887V9.08008C42.8887 8.37695 43.084 7.83398 43.4746 7.45117C43.8652 7.06836 44.4121 6.87695 45.1152 6.87695C45.3652 6.87695 45.6309 6.91211 45.9121 6.98242L45.877 8.0957C45.7207 8.06445 45.5391 8.04883 45.332 8.04883C44.6523 8.04883 44.3125 8.39844 44.3125 9.09766V9.66016H45.6016V10.7148H44.3125V16H42.8887ZM48.4258 8.11914V9.66016H49.5449V10.7148H48.4258V14.2539C48.4258 14.4961 48.4727 14.6719 48.5664 14.7812C48.6641 14.8867 48.8359 14.9395 49.082 14.9395C49.2461 14.9395 49.4121 14.9199 49.5801 14.8809V15.9824C49.2559 16.0723 48.9434 16.1172 48.6426 16.1172C47.5488 16.1172 47.002 15.5137 47.002 14.3066V10.7148H45.959V9.66016H47.002V8.11914H48.4258Z" fill="#0371FF"/>
<path d="M12 1H50V-1H12V1ZM50 23H12V25H50V23ZM12 23C5.92487 23 1 18.0751 1 12H-1C-1 19.1797 4.8203 25 12 25V23ZM61 12C61 18.0751 56.0751 23 50 23V25C57.1797 25 63 19.1797 63 12H61ZM50 1C56.0751 1 61 5.92487 61 12H63C63 4.8203 57.1797 -1 50 -1V1ZM12 -1C4.8203 -1 -1 4.8203 -1 12H1C1 5.92487 5.92487 1 12 1V-1Z" fill="#0371FF"/>
</svg>
