<svg width="200" height="28" viewBox="0 0 200 28" fill="none" xmlns="http://www.w3.org/2000/svg">
<rect x="0.5" y="0.5" width="199" height="27" rx="3.5" fill="#F6F7F9"/>
<path d="M12.9902 18V9.46875H15.3984C16.1406 9.46875 16.7969 9.63281 17.3672 9.96094C17.9375 10.2891 18.377 10.7559 18.6855 11.3613C18.998 11.9668 19.1562 12.6621 19.1602 13.4473V13.9922C19.1602 14.7969 19.0039 15.502 18.6914 16.1074C18.3828 16.7129 17.9395 17.1777 17.3613 17.502C16.7871 17.8262 16.1172 17.9922 15.3516 18H12.9902ZM14.1152 10.3945V17.0801H15.2988C16.166 17.0801 16.8398 16.8105 17.3203 16.2715C17.8047 15.7324 18.0469 14.9648 18.0469 13.9688V13.4707C18.0469 12.502 17.8184 11.75 17.3613 11.2148C16.9082 10.6758 16.2637 10.4023 15.4277 10.3945H14.1152ZM21.873 18H20.7891V11.6602H21.873V18ZM20.7012 9.97852C20.7012 9.80273 20.7539 9.6543 20.8594 9.5332C20.9688 9.41211 21.1289 9.35156 21.3398 9.35156C21.5508 9.35156 21.7109 9.41211 21.8203 9.5332C21.9297 9.6543 21.9844 9.80273 21.9844 9.97852C21.9844 10.1543 21.9297 10.3008 21.8203 10.418C21.7109 10.5352 21.5508 10.5938 21.3398 10.5938C21.1289 10.5938 20.9688 10.5352 20.8594 10.418C20.7539 10.3008 20.7012 10.1543 20.7012 9.97852ZM27.3047 16.3184C27.3047 16.0254 27.1934 15.7988 26.9707 15.6387C26.752 15.4746 26.3672 15.334 25.8164 15.2168C25.2695 15.0996 24.834 14.959 24.5098 14.7949C24.1895 14.6309 23.9512 14.4355 23.7949 14.209C23.6426 13.9824 23.5664 13.7129 23.5664 13.4004C23.5664 12.8809 23.7852 12.4414 24.2227 12.082C24.6641 11.7227 25.2266 11.543 25.9102 11.543C26.6289 11.543 27.2109 11.7285 27.6562 12.0996C28.1055 12.4707 28.3301 12.9453 28.3301 13.5234H27.2402C27.2402 13.2266 27.1133 12.9707 26.8594 12.7559C26.6094 12.541 26.293 12.4336 25.9102 12.4336C25.5156 12.4336 25.207 12.5195 24.9844 12.6914C24.7617 12.8633 24.6504 13.0879 24.6504 13.3652C24.6504 13.627 24.7539 13.8242 24.9609 13.957C25.168 14.0898 25.541 14.2168 26.0801 14.3379C26.623 14.459 27.0625 14.6035 27.3984 14.7715C27.7344 14.9395 27.9824 15.1426 28.1426 15.3809C28.3066 15.6152 28.3887 15.9023 28.3887 16.2422C28.3887 16.8086 28.1621 17.2637 27.709 17.6074C27.2559 17.9473 26.668 18.1172 25.9453 18.1172C25.4375 18.1172 24.9883 18.0273 24.5977 17.8477C24.207 17.668 23.9004 17.418 23.6777 17.0977C23.459 16.7734 23.3496 16.4238 23.3496 16.0488H24.4336C24.4531 16.4121 24.5977 16.7012 24.8672 16.916C25.1406 17.127 25.5 17.2324 25.9453 17.2324C26.3555 17.2324 26.6836 17.1504 26.9297 16.9863C27.1797 16.8184 27.3047 16.5957 27.3047 16.3184ZM33.7148 18C33.6523 17.875 33.6016 17.6523 33.5625 17.332C33.0586 17.8555 32.457 18.1172 31.7578 18.1172C31.1328 18.1172 30.6191 17.9414 30.2168 17.5898C29.8184 17.2344 29.6191 16.7852 29.6191 16.2422C29.6191 15.582 29.8691 15.0703 30.3691 14.707C30.873 14.3398 31.5801 14.1562 32.4902 14.1562H33.5449V13.6582C33.5449 13.2793 33.4316 12.9785 33.2051 12.7559C32.9785 12.5293 32.6445 12.416 32.2031 12.416C31.8164 12.416 31.4922 12.5137 31.2305 12.709C30.9688 12.9043 30.8379 13.1406 30.8379 13.418H29.748C29.748 13.1016 29.8594 12.7969 30.082 12.5039C30.3086 12.207 30.6133 11.9727 30.9961 11.8008C31.3828 11.6289 31.8066 11.543 32.2676 11.543C32.998 11.543 33.5703 11.7266 33.9844 12.0938C34.3984 12.457 34.6133 12.959 34.6289 13.5996V16.5176C34.6289 17.0996 34.7031 17.5625 34.8516 17.9062V18H33.7148ZM31.916 17.1738C32.2559 17.1738 32.5781 17.0859 32.8828 16.9102C33.1875 16.7344 33.4082 16.5059 33.5449 16.2246V14.9238H32.6953C31.3672 14.9238 30.7031 15.3125 30.7031 16.0898C30.7031 16.4297 30.8164 16.6953 31.043 16.8867C31.2695 17.0781 31.5605 17.1738 31.916 17.1738ZM41.6953 14.9004C41.6953 15.8691 41.4727 16.6484 41.0273 17.2383C40.582 17.8242 39.9844 18.1172 39.2344 18.1172C38.4336 18.1172 37.8145 17.834 37.377 17.2676L37.3242 18H36.3281V9H37.4121V12.3574C37.8496 11.8145 38.4531 11.543 39.2227 11.543C39.9922 11.543 40.5957 11.834 41.0332 12.416C41.4746 12.998 41.6953 13.7949 41.6953 14.8066V14.9004ZM40.6113 14.7773C40.6113 14.0391 40.4688 13.4688 40.1836 13.0664C39.8984 12.6641 39.4883 12.4629 38.9531 12.4629C38.2383 12.4629 37.7246 12.7949 37.4121 13.459V16.2012C37.7441 16.8652 38.2617 17.1973 38.9648 17.1973C39.4844 17.1973 39.8887 16.9961 40.1777 16.5938C40.4668 16.1914 40.6113 15.5859 40.6113 14.7773ZM44.2441 18H43.1602V9H44.2441V18ZM48.6152 18.1172C47.7559 18.1172 47.0566 17.8359 46.5176 17.2734C45.9785 16.707 45.709 15.9512 45.709 15.0059V14.8066C45.709 14.1777 45.8281 13.6172 46.0664 13.125C46.3086 12.6289 46.6445 12.2422 47.0742 11.9648C47.5078 11.6836 47.9766 11.543 48.4805 11.543C49.3047 11.543 49.9453 11.8145 50.4023 12.3574C50.8594 12.9004 51.0879 13.6777 51.0879 14.6895V15.1406H46.793C46.8086 15.7656 46.9902 16.2715 47.3379 16.6582C47.6895 17.041 48.1348 17.2324 48.6738 17.2324C49.0566 17.2324 49.3809 17.1543 49.6465 16.998C49.9121 16.8418 50.1445 16.6348 50.3438 16.377L51.0059 16.8926C50.4746 17.709 49.6777 18.1172 48.6152 18.1172ZM48.4805 12.4336C48.043 12.4336 47.6758 12.5938 47.3789 12.9141C47.082 13.2305 46.8984 13.6758 46.8281 14.25H50.0039V14.168C49.9727 13.6172 49.8242 13.1914 49.5586 12.8906C49.293 12.5859 48.9336 12.4336 48.4805 12.4336ZM52.084 14.7773C52.084 13.8047 52.3145 13.0234 52.7754 12.4336C53.2363 11.8398 53.8398 11.543 54.5859 11.543C55.3281 11.543 55.916 11.7969 56.3496 12.3047V9H57.4336V18H56.4375L56.3848 17.3203C55.9512 17.8516 55.3477 18.1172 54.5742 18.1172C53.8398 18.1172 53.2402 17.8164 52.7754 17.2148C52.3145 16.6133 52.084 15.8281 52.084 14.8594V14.7773ZM53.168 14.9004C53.168 15.6191 53.3164 16.1816 53.6133 16.5879C53.9102 16.9941 54.3203 17.1973 54.8438 17.1973C55.5312 17.1973 56.0332 16.8887 56.3496 16.2715V13.3594C56.0254 12.7617 55.5273 12.4629 54.8555 12.4629C54.3242 12.4629 53.9102 12.668 53.6133 13.0781C53.3164 13.4883 53.168 14.0957 53.168 14.9004Z" fill="#606060"/>
<rect x="0.5" y="0.5" width="199" height="27" rx="3.5" stroke="#B7C4D0"/>
</svg>
