<svg width="452" height="48" viewBox="0 0 452 48" fill="none" xmlns="http://www.w3.org/2000/svg">
<rect x="0.5" y="20.5" width="451" height="27" rx="3.5" fill="white"/>
<path d="M14.1152 34.6602V38H12.9902V29.4688H16.1367C17.0703 29.4688 17.8008 29.707 18.3281 30.1836C18.8594 30.6602 19.125 31.291 19.125 32.0762C19.125 32.9043 18.8652 33.543 18.3457 33.9922C17.8301 34.4375 17.0898 34.6602 16.125 34.6602H14.1152ZM14.1152 33.7402H16.1367C16.7383 33.7402 17.1992 33.5996 17.5195 33.3184C17.8398 33.0332 18 32.623 18 32.0879C18 31.5801 17.8398 31.1738 17.5195 30.8691C17.1992 30.5645 16.7598 30.4062 16.2012 30.3945H14.1152V33.7402ZM21.5684 38H20.4844V29H21.5684V38ZM25.9395 38.1172C25.0801 38.1172 24.3809 37.8359 23.8418 37.2734C23.3027 36.707 23.0332 35.9512 23.0332 35.0059V34.8066C23.0332 34.1777 23.1523 33.6172 23.3906 33.125C23.6328 32.6289 23.9688 32.2422 24.3984 31.9648C24.832 31.6836 25.3008 31.543 25.8047 31.543C26.6289 31.543 27.2695 31.8145 27.7266 32.3574C28.1836 32.9004 28.4121 33.6777 28.4121 34.6895V35.1406H24.1172C24.1328 35.7656 24.3145 36.2715 24.6621 36.6582C25.0137 37.041 25.459 37.2324 25.998 37.2324C26.3809 37.2324 26.7051 37.1543 26.9707 36.998C27.2363 36.8418 27.4688 36.6348 27.668 36.377L28.3301 36.8926C27.7988 37.709 27.002 38.1172 25.9395 38.1172ZM25.8047 32.4336C25.3672 32.4336 25 32.5938 24.7031 32.9141C24.4062 33.2305 24.2227 33.6758 24.1523 34.25H27.3281V34.168C27.2969 33.6172 27.1484 33.1914 26.8828 32.8906C26.6172 32.5859 26.2578 32.4336 25.8047 32.4336ZM33.5859 38C33.5234 37.875 33.4727 37.6523 33.4336 37.332C32.9297 37.8555 32.3281 38.1172 31.6289 38.1172C31.0039 38.1172 30.4902 37.9414 30.0879 37.5898C29.6895 37.2344 29.4902 36.7852 29.4902 36.2422C29.4902 35.582 29.7402 35.0703 30.2402 34.707C30.7441 34.3398 31.4512 34.1562 32.3613 34.1562H33.416V33.6582C33.416 33.2793 33.3027 32.9785 33.0762 32.7559C32.8496 32.5293 32.5156 32.416 32.0742 32.416C31.6875 32.416 31.3633 32.5137 31.1016 32.709C30.8398 32.9043 30.709 33.1406 30.709 33.418H29.6191C29.6191 33.1016 29.7305 32.7969 29.9531 32.5039C30.1797 32.207 30.4844 31.9727 30.8672 31.8008C31.2539 31.6289 31.6777 31.543 32.1387 31.543C32.8691 31.543 33.4414 31.7266 33.8555 32.0938C34.2695 32.457 34.4844 32.959 34.5 33.5996V36.5176C34.5 37.0996 34.5742 37.5625 34.7227 37.9062V38H33.5859ZM31.7871 37.1738C32.127 37.1738 32.4492 37.0859 32.7539 36.9102C33.0586 36.7344 33.2793 36.5059 33.416 36.2246V34.9238H32.5664C31.2383 34.9238 30.5742 35.3125 30.5742 36.0898C30.5742 36.4297 30.6875 36.6953 30.9141 36.8867C31.1406 37.0781 31.4316 37.1738 31.7871 37.1738ZM39.8906 36.3184C39.8906 36.0254 39.7793 35.7988 39.5566 35.6387C39.3379 35.4746 38.9531 35.334 38.4023 35.2168C37.8555 35.0996 37.4199 34.959 37.0957 34.7949C36.7754 34.6309 36.5371 34.4355 36.3809 34.209C36.2285 33.9824 36.1523 33.7129 36.1523 33.4004C36.1523 32.8809 36.3711 32.4414 36.8086 32.082C37.25 31.7227 37.8125 31.543 38.4961 31.543C39.2148 31.543 39.7969 31.7285 40.2422 32.0996C40.6914 32.4707 40.916 32.9453 40.916 33.5234H39.8262C39.8262 33.2266 39.6992 32.9707 39.4453 32.7559C39.1953 32.541 38.8789 32.4336 38.4961 32.4336C38.1016 32.4336 37.793 32.5195 37.5703 32.6914C37.3477 32.8633 37.2363 33.0879 37.2363 33.3652C37.2363 33.627 37.3398 33.8242 37.5469 33.957C37.7539 34.0898 38.127 34.2168 38.666 34.3379C39.209 34.459 39.6484 34.6035 39.9844 34.7715C40.3203 34.9395 40.5684 35.1426 40.7285 35.3809C40.8926 35.6152 40.9746 35.9023 40.9746 36.2422C40.9746 36.8086 40.748 37.2637 40.2949 37.6074C39.8418 37.9473 39.2539 38.1172 38.5312 38.1172C38.0234 38.1172 37.5742 38.0273 37.1836 37.8477C36.793 37.668 36.4863 37.418 36.2637 37.0977C36.0449 36.7734 35.9355 36.4238 35.9355 36.0488H37.0195C37.0391 36.4121 37.1836 36.7012 37.4531 36.916C37.7266 37.127 38.0859 37.2324 38.5312 37.2324C38.9414 37.2324 39.2695 37.1504 39.5156 36.9863C39.7656 36.8184 39.8906 36.5957 39.8906 36.3184ZM45.0176 38.1172C44.1582 38.1172 43.459 37.8359 42.9199 37.2734C42.3809 36.707 42.1113 35.9512 42.1113 35.0059V34.8066C42.1113 34.1777 42.2305 33.6172 42.4688 33.125C42.7109 32.6289 43.0469 32.2422 43.4766 31.9648C43.9102 31.6836 44.3789 31.543 44.8828 31.543C45.707 31.543 46.3477 31.8145 46.8047 32.3574C47.2617 32.9004 47.4902 33.6777 47.4902 34.6895V35.1406H43.1953C43.2109 35.7656 43.3926 36.2715 43.7402 36.6582C44.0918 37.041 44.5371 37.2324 45.0762 37.2324C45.459 37.2324 45.7832 37.1543 46.0488 36.998C46.3145 36.8418 46.5469 36.6348 46.7461 36.377L47.4082 36.8926C46.877 37.709 46.0801 38.1172 45.0176 38.1172ZM44.8828 32.4336C44.4453 32.4336 44.0781 32.5938 43.7812 32.9141C43.4844 33.2305 43.3008 33.6758 43.2305 34.25H46.4062V34.168C46.375 33.6172 46.2266 33.1914 45.9609 32.8906C45.6953 32.5859 45.3359 32.4336 44.8828 32.4336ZM56.7188 34.0566H53.0215V37.0801H57.3164V38H51.8965V29.4688H57.2578V30.3945H53.0215V33.1367H56.7188V34.0566ZM59.5723 31.6602L59.6074 32.457C60.0918 31.8477 60.7246 31.543 61.5059 31.543C62.8457 31.543 63.5215 32.2988 63.5332 33.8105V38H62.4492V33.8047C62.4453 33.3477 62.3398 33.0098 62.1328 32.791C61.9297 32.5723 61.6113 32.4629 61.1777 32.4629C60.8262 32.4629 60.5176 32.5566 60.252 32.7441C59.9863 32.9316 59.7793 33.1777 59.6309 33.4824V38H58.5469V31.6602H59.5723ZM66.6387 30.125V31.6602H67.8223V32.498H66.6387V36.4297C66.6387 36.6836 66.6914 36.875 66.7969 37.0039C66.9023 37.1289 67.082 37.1914 67.3359 37.1914C67.4609 37.1914 67.6328 37.168 67.8516 37.1211V38C67.5664 38.0781 67.2891 38.1172 67.0195 38.1172C66.5352 38.1172 66.1699 37.9707 65.9238 37.6777C65.6777 37.3848 65.5547 36.9688 65.5547 36.4297V32.498H64.4004V31.6602H65.5547V30.125H66.6387ZM71.7246 38.1172C70.8652 38.1172 70.166 37.8359 69.627 37.2734C69.0879 36.707 68.8184 35.9512 68.8184 35.0059V34.8066C68.8184 34.1777 68.9375 33.6172 69.1758 33.125C69.418 32.6289 69.7539 32.2422 70.1836 31.9648C70.6172 31.6836 71.0859 31.543 71.5898 31.543C72.4141 31.543 73.0547 31.8145 73.5117 32.3574C73.9688 32.9004 74.1973 33.6777 74.1973 34.6895V35.1406H69.9023C69.918 35.7656 70.0996 36.2715 70.4473 36.6582C70.7988 37.041 71.2441 37.2324 71.7832 37.2324C72.166 37.2324 72.4902 37.1543 72.7559 36.998C73.0215 36.8418 73.2539 36.6348 73.4531 36.377L74.1152 36.8926C73.584 37.709 72.7871 38.1172 71.7246 38.1172ZM71.5898 32.4336C71.1523 32.4336 70.7852 32.5938 70.4883 32.9141C70.1914 33.2305 70.0078 33.6758 69.9375 34.25H73.1133V34.168C73.082 33.6172 72.9336 33.1914 72.668 32.8906C72.4023 32.5859 72.043 32.4336 71.5898 32.4336ZM78.5215 32.6328C78.3574 32.6055 78.1797 32.5918 77.9883 32.5918C77.2773 32.5918 76.7949 32.8945 76.541 33.5V38H75.457V31.6602H76.5117L76.5293 32.3926C76.8848 31.8262 77.3887 31.543 78.041 31.543C78.252 31.543 78.4121 31.5703 78.5215 31.625V32.6328ZM83.877 38H82.752V29.4688H83.877V38ZM86.7949 31.6602L86.8301 32.457C87.3145 31.8477 87.9473 31.543 88.7285 31.543C90.0684 31.543 90.7441 32.2988 90.7559 33.8105V38H89.6719V33.8047C89.668 33.3477 89.5625 33.0098 89.3555 32.791C89.1523 32.5723 88.834 32.4629 88.4004 32.4629C88.0488 32.4629 87.7402 32.5566 87.4746 32.7441C87.209 32.9316 87.002 33.1777 86.8535 33.4824V38H85.7695V31.6602H86.7949ZM92.9238 38V32.498H91.9219V31.6602H92.9238V31.0098C92.9238 30.3301 93.1055 29.8047 93.4688 29.4336C93.832 29.0625 94.3457 28.877 95.0098 28.877C95.2598 28.877 95.5078 28.9102 95.7539 28.9766L95.6953 29.8555C95.5117 29.8203 95.3164 29.8027 95.1094 29.8027C94.7578 29.8027 94.4863 29.9062 94.2949 30.1133C94.1035 30.3164 94.0078 30.6094 94.0078 30.9922V31.6602H95.3613V32.498H94.0078V38H92.9238ZM96.2754 34.7715C96.2754 34.1504 96.3965 33.5918 96.6387 33.0957C96.8848 32.5996 97.2246 32.2168 97.6582 31.9473C98.0957 31.6777 98.5938 31.543 99.1523 31.543C100.016 31.543 100.713 31.8418 101.244 32.4395C101.779 33.0371 102.047 33.832 102.047 34.8242V34.9004C102.047 35.5176 101.928 36.0723 101.689 36.5645C101.455 37.0527 101.117 37.4336 100.676 37.707C100.238 37.9805 99.7344 38.1172 99.1641 38.1172C98.3047 38.1172 97.6074 37.8184 97.0723 37.2207C96.541 36.623 96.2754 35.832 96.2754 34.8477V34.7715ZM97.3652 34.9004C97.3652 35.6035 97.5273 36.168 97.8516 36.5938C98.1797 37.0195 98.6172 37.2324 99.1641 37.2324C99.7148 37.2324 100.152 37.0176 100.477 36.5879C100.801 36.1543 100.963 35.5488 100.963 34.7715C100.963 34.0762 100.797 33.5137 100.465 33.084C100.137 32.6504 99.6992 32.4336 99.1523 32.4336C98.6172 32.4336 98.1855 32.6465 97.8574 33.0723C97.5293 33.498 97.3652 34.1074 97.3652 34.9004ZM106.471 32.6328C106.307 32.6055 106.129 32.5918 105.938 32.5918C105.227 32.5918 104.744 32.8945 104.49 33.5V38H103.406V31.6602H104.461L104.479 32.3926C104.834 31.8262 105.338 31.543 105.99 31.543C106.201 31.543 106.361 31.5703 106.471 31.625V32.6328ZM108.492 31.6602L108.521 32.3633C108.986 31.8164 109.613 31.543 110.402 31.543C111.289 31.543 111.893 31.8828 112.213 32.5625C112.424 32.2578 112.697 32.0117 113.033 31.8242C113.373 31.6367 113.773 31.543 114.234 31.543C115.625 31.543 116.332 32.2793 116.355 33.752V38H115.271V33.8164C115.271 33.3633 115.168 33.0254 114.961 32.8027C114.754 32.5762 114.406 32.4629 113.918 32.4629C113.516 32.4629 113.182 32.584 112.916 32.8262C112.65 33.0645 112.496 33.3867 112.453 33.793V38H111.363V33.8457C111.363 32.9238 110.912 32.4629 110.01 32.4629C109.299 32.4629 108.812 32.7656 108.551 33.3711V38H107.467V31.6602H108.492ZM121.91 38C121.848 37.875 121.797 37.6523 121.758 37.332C121.254 37.8555 120.652 38.1172 119.953 38.1172C119.328 38.1172 118.814 37.9414 118.412 37.5898C118.014 37.2344 117.814 36.7852 117.814 36.2422C117.814 35.582 118.064 35.0703 118.564 34.707C119.068 34.3398 119.775 34.1562 120.686 34.1562H121.74V33.6582C121.74 33.2793 121.627 32.9785 121.4 32.7559C121.174 32.5293 120.84 32.416 120.398 32.416C120.012 32.416 119.688 32.5137 119.426 32.709C119.164 32.9043 119.033 33.1406 119.033 33.418H117.943C117.943 33.1016 118.055 32.7969 118.277 32.5039C118.504 32.207 118.809 31.9727 119.191 31.8008C119.578 31.6289 120.002 31.543 120.463 31.543C121.193 31.543 121.766 31.7266 122.18 32.0938C122.594 32.457 122.809 32.959 122.824 33.5996V36.5176C122.824 37.0996 122.898 37.5625 123.047 37.9062V38H121.91ZM120.111 37.1738C120.451 37.1738 120.773 37.0859 121.078 36.9102C121.383 36.7344 121.604 36.5059 121.74 36.2246V34.9238H120.891C119.562 34.9238 118.898 35.3125 118.898 36.0898C118.898 36.4297 119.012 36.6953 119.238 36.8867C119.465 37.0781 119.756 37.1738 120.111 37.1738ZM125.994 30.125V31.6602H127.178V32.498H125.994V36.4297C125.994 36.6836 126.047 36.875 126.152 37.0039C126.258 37.1289 126.438 37.1914 126.691 37.1914C126.816 37.1914 126.988 37.168 127.207 37.1211V38C126.922 38.0781 126.645 38.1172 126.375 38.1172C125.891 38.1172 125.525 37.9707 125.279 37.6777C125.033 37.3848 124.91 36.9688 124.91 36.4297V32.498H123.756V31.6602H124.91V30.125H125.994ZM129.627 38H128.543V31.6602H129.627V38ZM128.455 29.9785C128.455 29.8027 128.508 29.6543 128.613 29.5332C128.723 29.4121 128.883 29.3516 129.094 29.3516C129.305 29.3516 129.465 29.4121 129.574 29.5332C129.684 29.6543 129.738 29.8027 129.738 29.9785C129.738 30.1543 129.684 30.3008 129.574 30.418C129.465 30.5352 129.305 30.5938 129.094 30.5938C128.883 30.5938 128.723 30.5352 128.613 30.418C128.508 30.3008 128.455 30.1543 128.455 29.9785ZM131.08 34.7715C131.08 34.1504 131.201 33.5918 131.443 33.0957C131.689 32.5996 132.029 32.2168 132.463 31.9473C132.9 31.6777 133.398 31.543 133.957 31.543C134.82 31.543 135.518 31.8418 136.049 32.4395C136.584 33.0371 136.852 33.832 136.852 34.8242V34.9004C136.852 35.5176 136.732 36.0723 136.494 36.5645C136.26 37.0527 135.922 37.4336 135.48 37.707C135.043 37.9805 134.539 38.1172 133.969 38.1172C133.109 38.1172 132.412 37.8184 131.877 37.2207C131.346 36.623 131.08 35.832 131.08 34.8477V34.7715ZM132.17 34.9004C132.17 35.6035 132.332 36.168 132.656 36.5938C132.984 37.0195 133.422 37.2324 133.969 37.2324C134.52 37.2324 134.957 37.0176 135.281 36.5879C135.605 36.1543 135.768 35.5488 135.768 34.7715C135.768 34.0762 135.602 33.5137 135.27 33.084C134.941 32.6504 134.504 32.4336 133.957 32.4336C133.422 32.4336 132.99 32.6465 132.662 33.0723C132.334 33.498 132.17 34.1074 132.17 34.9004ZM139.236 31.6602L139.271 32.457C139.756 31.8477 140.389 31.543 141.17 31.543C142.51 31.543 143.186 32.2988 143.197 33.8105V38H142.113V33.8047C142.109 33.3477 142.004 33.0098 141.797 32.791C141.594 32.5723 141.275 32.4629 140.842 32.4629C140.49 32.4629 140.182 32.5566 139.916 32.7441C139.65 32.9316 139.443 33.1777 139.295 33.4824V38H138.211V31.6602H139.236Z" fill="#404040"/>
<rect x="0.5" y="20.5" width="451" height="27" rx="3.5" stroke="#DB3535"/>
<path d="M18.3281 7.38525H14.939V10.1567H18.876V11H13.9077V3.17969H18.8223V4.02832H14.939V6.54199H18.3281V7.38525ZM22.813 6.08008C22.6626 6.05501 22.4997 6.04248 22.3242 6.04248C21.6725 6.04248 21.2303 6.31999 20.9976 6.875V11H20.0039V5.18848H20.9707L20.9868 5.85986C21.3127 5.34066 21.7746 5.08105 22.3726 5.08105C22.5659 5.08105 22.7127 5.10612 22.813 5.15625V6.08008ZM26.5405 6.08008C26.3901 6.05501 26.2272 6.04248 26.0518 6.04248C25.4001 6.04248 24.9578 6.31999 24.7251 6.875V11H23.7314V5.18848H24.6982L24.7144 5.85986C25.0402 5.34066 25.5021 5.08105 26.1001 5.08105C26.2935 5.08105 26.4403 5.10612 26.5405 5.15625V6.08008ZM27.0884 8.04053C27.0884 7.47119 27.1994 6.95915 27.4214 6.50439C27.647 6.04964 27.9585 5.69873 28.356 5.45166C28.757 5.20459 29.2135 5.08105 29.7256 5.08105C30.5169 5.08105 31.1561 5.35498 31.6431 5.90283C32.1336 6.45068 32.3789 7.17936 32.3789 8.08887V8.15869C32.3789 8.72445 32.2697 9.23291 32.0513 9.68408C31.8364 10.1317 31.5267 10.4808 31.1221 10.7314C30.721 10.9821 30.2591 11.1074 29.7363 11.1074C28.9486 11.1074 28.3094 10.8335 27.8188 10.2856C27.3319 9.73779 27.0884 9.0127 27.0884 8.11035V8.04053ZM28.0874 8.15869C28.0874 8.80322 28.236 9.32064 28.5332 9.71094C28.834 10.1012 29.235 10.2964 29.7363 10.2964C30.2412 10.2964 30.6423 10.0994 30.9395 9.70557C31.2367 9.30811 31.3853 8.75309 31.3853 8.04053C31.3853 7.40316 31.2331 6.88753 30.9287 6.49365C30.6279 6.09619 30.2269 5.89746 29.7256 5.89746C29.235 5.89746 28.8394 6.09261 28.5386 6.48291C28.2378 6.87321 28.0874 7.4318 28.0874 8.15869ZM36.4341 6.08008C36.2837 6.05501 36.1208 6.04248 35.9453 6.04248C35.2936 6.04248 34.8514 6.31999 34.6187 6.875V11H33.625V5.18848H34.5918L34.6079 5.85986C34.9338 5.34066 35.3957 5.08105 35.9937 5.08105C36.187 5.08105 36.3338 5.10612 36.4341 5.15625V6.08008Z" fill="#DB3535"/>
<path fill-rule="evenodd" clip-rule="evenodd" d="M4.5 11C6.98528 11 9 8.98528 9 6.5C9 4.01472 6.98528 2 4.5 2C2.01472 2 0 4.01472 0 6.5C0 8.98528 2.01472 11 4.5 11ZM4.5 11L3.64058 7.98857L0.602886 8.75L2.78115 6.5L0.602886 4.25L3.64058 5.01143L4.5 2L5.35942 5.01143L8.39711 4.25L6.21885 6.5L8.39711 8.75L5.35942 7.98857L4.5 11Z" fill="#D13240"/>
</svg>
