<svg width="200" height="32" viewBox="0 0 200 32" fill="none" xmlns="http://www.w3.org/2000/svg">
<rect x="0.5" y="0.5" width="199" height="31" rx="3.5" fill="white"/>
<path d="M20.8047 21H19.4854V16.3994H14.4678V21H13.1553V11.0469H14.4678V15.3262H19.4854V11.0469H20.8047V21ZM22.6025 17.2334C22.6025 16.5088 22.7438 15.8571 23.0264 15.2783C23.3135 14.6995 23.71 14.2529 24.2158 13.9385C24.7262 13.624 25.3073 13.4668 25.959 13.4668C26.9661 13.4668 27.7796 13.8154 28.3994 14.5127C29.0238 15.21 29.3359 16.1374 29.3359 17.2949V17.3838C29.3359 18.1038 29.1969 18.751 28.9189 19.3252C28.6455 19.8949 28.2513 20.3392 27.7363 20.6582C27.2259 20.9772 26.638 21.1367 25.9727 21.1367C24.9701 21.1367 24.1566 20.7881 23.5322 20.0908C22.9124 19.3936 22.6025 18.4707 22.6025 17.3223V17.2334ZM23.874 17.3838C23.874 18.2041 24.0632 18.8626 24.4414 19.3594C24.8242 19.8561 25.3346 20.1045 25.9727 20.1045C26.6152 20.1045 27.1257 19.8538 27.5039 19.3525C27.8822 18.8467 28.0713 18.1403 28.0713 17.2334C28.0713 16.4222 27.8776 15.766 27.4902 15.2646C27.1074 14.7588 26.597 14.5059 25.959 14.5059C25.3346 14.5059 24.8311 14.7542 24.4482 15.251C24.0654 15.7477 23.874 16.4587 23.874 17.3838ZM33.2529 19.2842L35.085 13.6035H36.377L33.7246 21H32.7607L30.0811 13.6035H31.373L33.2529 19.2842ZM40.5674 21.1367C39.5648 21.1367 38.749 20.8086 38.1201 20.1523C37.4912 19.4915 37.1768 18.6097 37.1768 17.5068V17.2744C37.1768 16.5407 37.3158 15.8867 37.5938 15.3125C37.8763 14.7337 38.2682 14.2826 38.7695 13.959C39.2754 13.6309 39.8223 13.4668 40.4102 13.4668C41.3717 13.4668 42.1191 13.7835 42.6523 14.417C43.1855 15.0505 43.4521 15.9574 43.4521 17.1377V17.6641H38.4414C38.4596 18.3932 38.6715 18.9834 39.0771 19.4346C39.4873 19.8812 40.0068 20.1045 40.6357 20.1045C41.0824 20.1045 41.4606 20.0133 41.7705 19.8311C42.0804 19.6488 42.3516 19.4072 42.584 19.1064L43.3564 19.708C42.7367 20.6605 41.807 21.1367 40.5674 21.1367ZM40.4102 14.5059C39.8997 14.5059 39.4714 14.6927 39.125 15.0664C38.7786 15.4355 38.5645 15.9551 38.4824 16.625H42.1875V16.5293C42.151 15.8867 41.9779 15.39 41.668 15.0391C41.3581 14.6836 40.9388 14.5059 40.4102 14.5059ZM48.4971 14.7383C48.3057 14.7064 48.0983 14.6904 47.875 14.6904C47.0456 14.6904 46.4827 15.0436 46.1865 15.75V21H44.9219V13.6035H46.1523L46.1729 14.458C46.5876 13.7972 47.1755 13.4668 47.9365 13.4668C48.1826 13.4668 48.3695 13.4987 48.4971 13.5625V14.7383Z" fill="#404040"/>
<rect x="0.5" y="0.5" width="199" height="31" rx="3.5" stroke="#93A7B8"/>
</svg>
