<svg width="91" height="24" viewBox="0 0 91 24" fill="none" xmlns="http://www.w3.org/2000/svg">
<path d="M0 12C0 5.37258 5.37258 0 12 0H79C85.6274 0 91 5.37258 91 12V12C91 18.6274 85.6274 24 79 24H12C5.37258 24 0 18.6274 0 12V12Z" fill="#EDF0F3"/>
<path d="M22.5449 16H16.8086V15.0215L19.6504 11.9219C20.0605 11.4648 20.3516 11.084 20.5234 10.7793C20.6992 10.4707 20.7871 10.1621 20.7871 9.85352C20.7871 9.44727 20.6719 9.11914 20.4414 8.86914C20.2148 8.61914 19.9082 8.49414 19.5215 8.49414C19.0605 8.49414 18.7031 8.63477 18.4492 8.91602C18.1953 9.19727 18.0684 9.58203 18.0684 10.0703H16.6445C16.6445 9.55078 16.7617 9.08398 16.9961 8.66992C17.2344 8.25195 17.5723 7.92773 18.0098 7.69727C18.4512 7.4668 18.959 7.35156 19.5332 7.35156C20.3613 7.35156 21.0137 7.56055 21.4902 7.97852C21.9707 8.39258 22.2109 8.9668 22.2109 9.70117C22.2109 10.127 22.0898 10.5742 21.8477 11.043C21.6094 11.5078 21.2168 12.0371 20.6699 12.6309L18.584 14.8633H22.5449V16ZM28.4453 12.959H29.5059V14.1016H28.4453V16H27.0215V14.1016H23.3359L23.2949 13.2344L26.9746 7.46875H28.4453V12.959ZM24.7891 12.959H27.0215V9.39648L26.916 9.58398L24.7891 12.959ZM36.8008 12.7129H35.1484V16H33.666V7.46875H36.666C37.6504 7.46875 38.4102 7.68945 38.9453 8.13086C39.4805 8.57227 39.748 9.21094 39.748 10.0469C39.748 10.6172 39.6094 11.0957 39.332 11.4824C39.0586 11.8652 38.6758 12.1602 38.1836 12.3672L40.0996 15.9238V16H38.5117L36.8008 12.7129ZM35.1484 11.5234H36.6719C37.1719 11.5234 37.5625 11.3984 37.8438 11.1484C38.125 10.8945 38.2656 10.5488 38.2656 10.1113C38.2656 9.6543 38.1348 9.30078 37.873 9.05078C37.6152 8.80078 37.2285 8.67188 36.7129 8.66406H35.1484V11.5234ZM42.5312 16H41.1074V9.66016H42.5312V16ZM41.0195 8.01367C41.0195 7.79492 41.0879 7.61328 41.2246 7.46875C41.3652 7.32422 41.5645 7.25195 41.8223 7.25195C42.0801 7.25195 42.2793 7.32422 42.4199 7.46875C42.5605 7.61328 42.6309 7.79492 42.6309 8.01367C42.6309 8.22852 42.5605 8.4082 42.4199 8.55273C42.2793 8.69336 42.0801 8.76367 41.8223 8.76367C41.5645 8.76367 41.3652 8.69336 41.2246 8.55273C41.0879 8.4082 41.0195 8.22852 41.0195 8.01367ZM43.8379 12.7832C43.8379 11.7988 44.0684 11.0137 44.5293 10.4277C44.9941 9.83789 45.6094 9.54297 46.375 9.54297C47.0977 9.54297 47.666 9.79492 48.0801 10.2988L48.1445 9.66016H49.4277V15.8066C49.4277 16.6387 49.168 17.2949 48.6484 17.7754C48.1328 18.2559 47.4355 18.4961 46.5566 18.4961C46.0918 18.4961 45.6367 18.3984 45.1914 18.2031C44.75 18.0117 44.4141 17.7598 44.1836 17.4473L44.8574 16.5918C45.2949 17.1113 45.834 17.3711 46.4746 17.3711C46.9473 17.3711 47.3203 17.2422 47.5938 16.9844C47.8672 16.7305 48.0039 16.3555 48.0039 15.8594V15.4316C47.5938 15.8887 47.0469 16.1172 46.3633 16.1172C45.6211 16.1172 45.0137 15.8223 44.541 15.2324C44.0723 14.6426 43.8379 13.8262 43.8379 12.7832ZM45.2559 12.9062C45.2559 13.543 45.3848 14.0449 45.6426 14.4121C45.9043 14.7754 46.2656 14.957 46.7266 14.957C47.3008 14.957 47.7266 14.7109 48.0039 14.2188V11.4297C47.7344 10.9492 47.3125 10.709 46.7383 10.709C46.2695 10.709 45.9043 10.8945 45.6426 11.2656C45.3848 11.6367 45.2559 12.1836 45.2559 12.9062ZM52.2988 10.3516C52.7637 9.8125 53.3516 9.54297 54.0625 9.54297C55.4141 9.54297 56.0996 10.3145 56.1191 11.8574V16H54.6953V11.9102C54.6953 11.4727 54.5996 11.1641 54.4082 10.9844C54.2207 10.8008 53.9434 10.709 53.5762 10.709C53.0059 10.709 52.5801 10.9629 52.2988 11.4707V16H50.875V7H52.2988V10.3516ZM59.3477 8.11914V9.66016H60.4668V10.7148H59.3477V14.2539C59.3477 14.4961 59.3945 14.6719 59.4883 14.7812C59.5859 14.8867 59.7578 14.9395 60.0039 14.9395C60.168 14.9395 60.334 14.9199 60.502 14.8809V15.9824C60.1777 16.0723 59.8652 16.1172 59.5645 16.1172C58.4707 16.1172 57.9238 15.5137 57.9238 14.3066V10.7148H56.8809V9.66016H57.9238V8.11914H59.3477Z" fill="#B7C4D0"/>
<path fill-rule="evenodd" clip-rule="evenodd" d="M71 8H69V11H66V13H69V16H71V13H74V11H71V8Z" fill="#B7C4D0"/>
</svg>
