<svg width="87" height="28" viewBox="0 0 87 28" fill="none" xmlns="http://www.w3.org/2000/svg">
<path d="M19.2153 18H13.001V16.9399L16.0796 13.582C16.5239 13.0869 16.8392 12.6743 17.0254 12.3442C17.2158 12.0099 17.311 11.6756 17.311 11.3413C17.311 10.9012 17.1862 10.5457 16.9365 10.2749C16.6911 10.0041 16.3589 9.86865 15.9399 9.86865C15.4406 9.86865 15.0534 10.021 14.7783 10.3257C14.5033 10.6304 14.3657 11.0472 14.3657 11.5762H12.8232C12.8232 11.0133 12.9502 10.5076 13.2041 10.0591C13.4622 9.60628 13.8283 9.25505 14.3022 9.00537C14.7804 8.7557 15.3306 8.63086 15.9526 8.63086C16.8498 8.63086 17.5565 8.85726 18.0728 9.31006C18.5933 9.75863 18.8535 10.3807 18.8535 11.1763C18.8535 11.6375 18.7223 12.1221 18.46 12.6299C18.2018 13.1335 17.7765 13.7069 17.1841 14.3501L14.9243 16.7686H19.2153V18ZM26.2104 11.1953C26.2104 11.6481 26.0941 12.0522 25.8613 12.4077C25.6286 12.759 25.3112 13.0361 24.9092 13.2393C25.3916 13.4635 25.7619 13.7703 26.02 14.1597C26.2824 14.549 26.4136 14.9891 26.4136 15.48C26.4136 16.2925 26.1385 16.9378 25.5884 17.416C25.0382 17.89 24.3062 18.127 23.3921 18.127C22.4738 18.127 21.7375 17.8879 21.1831 17.4097C20.633 16.9315 20.3579 16.2882 20.3579 15.48C20.3579 14.9849 20.4891 14.5405 20.7515 14.147C21.0138 13.7534 21.382 13.4508 21.856 13.2393C21.4582 13.0361 21.1429 12.759 20.9102 12.4077C20.6816 12.0522 20.5674 11.6481 20.5674 11.1953C20.5674 10.4082 20.8213 9.78402 21.3291 9.32275C21.8369 8.86149 22.5225 8.63086 23.3857 8.63086C24.2533 8.63086 24.9409 8.86149 25.4487 9.32275C25.9565 9.78402 26.2104 10.4082 26.2104 11.1953ZM24.8711 15.4038C24.8711 14.9468 24.7336 14.5786 24.4585 14.2993C24.1877 14.0158 23.828 13.874 23.3794 13.874C22.9308 13.874 22.5711 14.0137 22.3003 14.293C22.0337 14.5723 21.9004 14.9425 21.9004 15.4038C21.9004 15.8566 22.0316 16.2184 22.2939 16.4893C22.5605 16.7601 22.9266 16.8955 23.3921 16.8955C23.8576 16.8955 24.2194 16.7643 24.4775 16.502C24.7399 16.2396 24.8711 15.8735 24.8711 15.4038ZM24.6743 11.2524C24.6743 10.8504 24.5579 10.5203 24.3252 10.2622C24.0924 9.99984 23.7793 9.86865 23.3857 9.86865C22.9922 9.86865 22.6812 9.99349 22.4526 10.2432C22.2241 10.4886 22.1099 10.825 22.1099 11.2524C22.1099 11.6756 22.2241 12.012 22.4526 12.2617C22.6854 12.5114 22.9985 12.6362 23.3921 12.6362C23.7856 12.6362 24.0967 12.5114 24.3252 12.2617C24.5579 12.012 24.6743 11.6756 24.6743 11.2524ZM34.6592 14.439H32.8691V18H31.2632V8.75781H34.5132C35.5796 8.75781 36.4027 8.99691 36.9824 9.4751C37.5622 9.95329 37.8521 10.6452 37.8521 11.5508C37.8521 12.1686 37.7018 12.687 37.4014 13.106C37.1051 13.5207 36.6904 13.8402 36.1572 14.0645L38.2329 17.9175V18H36.5127L34.6592 14.439ZM32.8691 13.1504H34.5195C35.0612 13.1504 35.4844 13.015 35.7891 12.7441C36.0938 12.4691 36.2461 12.0946 36.2461 11.6206C36.2461 11.1255 36.1043 10.7425 35.8208 10.4717C35.5415 10.2008 35.1226 10.0612 34.564 10.0527H32.8691V13.1504ZM40.8672 18H39.3247V11.1318H40.8672V18ZM39.2295 9.34814C39.2295 9.11117 39.3035 8.91439 39.4517 8.75781C39.604 8.60124 39.8198 8.52295 40.0991 8.52295C40.3784 8.52295 40.5942 8.60124 40.7466 8.75781C40.8989 8.91439 40.9751 9.11117 40.9751 9.34814C40.9751 9.58089 40.8989 9.77555 40.7466 9.93213C40.5942 10.0845 40.3784 10.1606 40.0991 10.1606C39.8198 10.1606 39.604 10.0845 39.4517 9.93213C39.3035 9.77555 39.2295 9.58089 39.2295 9.34814ZM42.2827 14.5151C42.2827 13.4487 42.5324 12.5981 43.0317 11.9634C43.5353 11.3244 44.2018 11.0049 45.0312 11.0049C45.8141 11.0049 46.4299 11.2778 46.8784 11.8237L46.9482 11.1318H48.3384V17.7905C48.3384 18.6919 48.057 19.4028 47.4941 19.9233C46.9355 20.4438 46.1802 20.7041 45.228 20.7041C44.7244 20.7041 44.2314 20.5983 43.749 20.3867C43.2708 20.1794 42.9069 19.9064 42.6572 19.5679L43.3872 18.6411C43.8612 19.2039 44.4451 19.4854 45.1392 19.4854C45.6512 19.4854 46.0553 19.3457 46.3516 19.0664C46.6478 18.7913 46.7959 18.3851 46.7959 17.8477V17.3843C46.3516 17.8794 45.7591 18.127 45.0186 18.127C44.2145 18.127 43.5565 17.8075 43.0444 17.1685C42.5366 16.5295 42.2827 15.645 42.2827 14.5151ZM43.8188 14.6484C43.8188 15.3382 43.9585 15.882 44.2378 16.2798C44.5213 16.6733 44.9128 16.8701 45.4121 16.8701C46.0342 16.8701 46.4954 16.6035 46.7959 16.0703V13.0488C46.5039 12.5283 46.0469 12.2681 45.4248 12.2681C44.917 12.2681 44.5213 12.4691 44.2378 12.8711C43.9585 13.2731 43.8188 13.8656 43.8188 14.6484ZM51.4487 11.8809C51.9523 11.2969 52.5892 11.0049 53.3594 11.0049C54.8236 11.0049 55.5662 11.8407 55.5874 13.5122V18H54.0449V13.5693C54.0449 13.0954 53.9412 12.7611 53.7339 12.5664C53.5308 12.3675 53.2303 12.2681 52.8325 12.2681C52.2147 12.2681 51.7534 12.5431 51.4487 13.0933V18H49.9062V8.25H51.4487V11.8809ZM59.085 9.4624V11.1318H60.2974V12.2744H59.085V16.1084C59.085 16.3708 59.1357 16.5612 59.2373 16.6797C59.3431 16.7939 59.5293 16.8511 59.7959 16.8511C59.9736 16.8511 60.1535 16.8299 60.3354 16.7876V17.981C59.9842 18.0783 59.6457 18.127 59.3198 18.127C58.1349 18.127 57.5425 17.4731 57.5425 16.1655V12.2744H56.4126V11.1318H57.5425V9.4624H59.085Z" fill="#0371FF"/>
<path fill-rule="evenodd" clip-rule="evenodd" d="M71 10H69V13H66V15H69V18H71V15H74V13H71V10Z" fill="#0371FF"/>
<path d="M14 1H73V-1H14V1ZM73 27H14V29H73V27ZM14 27C6.8203 27 1 21.1797 1 14H-1C-1 22.2843 5.71573 29 14 29V27ZM86 14C86 21.1797 80.1797 27 73 27V29C81.2843 29 88 22.2843 88 14H86ZM73 1C80.1797 1 86 6.8203 86 14H88C88 5.71573 81.2843 -1 73 -1V1ZM14 -1C5.71573 -1 -1 5.71573 -1 14H1C1 6.8203 6.8203 1 14 1V-1Z" fill="#0371FF"/>
</svg>
