<svg width="117" height="24" viewBox="0 0 117 24" fill="none" xmlns="http://www.w3.org/2000/svg">
<path d="M0 12C0 5.37258 5.37258 0 12 0H105C111.627 0 117 5.37258 117 12V12C117 18.6274 111.627 24 105 24H12C5.37258 24 0 18.6274 0 12V12Z" fill="white"/>
<path fill-rule="evenodd" clip-rule="evenodd" d="M26.1822 13.7705L27.7197 15.308C28.0981 15.6998 28.0927 16.3225 27.7076 16.7076C27.3225 17.0927 26.6998 17.0981 26.308 16.7197L24.7705 15.1822C22.6266 16.6012 19.7563 16.1659 18.1296 14.1749C16.5029 12.1839 16.6486 9.28451 18.4665 7.46653C20.2845 5.64856 23.1839 5.50294 25.1749 7.12963C27.1659 8.75631 27.6012 11.6266 26.1822 13.7705ZM22.022 8.02677C20.3678 8.02677 19.0268 9.36776 19.0268 11.022C19.0268 12.6761 20.3678 14.0171 22.022 14.0171C23.6761 14.0171 25.0171 12.6761 25.0171 11.022C25.0171 9.36776 23.6761 8.02677 22.022 8.02677Z" fill="#404040"/>
<path d="M38.7959 12.3804C37.7507 12.0799 36.9889 11.7118 36.5107 11.2759C36.0368 10.8358 35.7998 10.2941 35.7998 9.65088C35.7998 8.92301 36.0897 8.3221 36.6694 7.84814C37.2534 7.36995 38.0109 7.13086 38.9419 7.13086C39.5767 7.13086 40.1416 7.25358 40.6367 7.49902C41.1361 7.74447 41.5212 8.08301 41.792 8.51465C42.0671 8.94629 42.2046 9.41813 42.2046 9.93018H40.9795C40.9795 9.37158 40.8018 8.93359 40.4463 8.61621C40.0908 8.2946 39.5894 8.13379 38.9419 8.13379C38.341 8.13379 37.8713 8.26709 37.5327 8.53369C37.1984 8.79606 37.0312 9.16211 37.0312 9.63184C37.0312 10.0085 37.1899 10.328 37.5073 10.5903C37.8289 10.8485 38.3727 11.0854 39.1387 11.3013C39.9089 11.5171 40.5098 11.7562 40.9414 12.0186C41.3773 12.2767 41.6989 12.5793 41.9062 12.9263C42.1178 13.2733 42.2236 13.6816 42.2236 14.1514C42.2236 14.9004 41.9316 15.5013 41.3477 15.9541C40.7637 16.4027 39.9829 16.627 39.0054 16.627C38.3706 16.627 37.7782 16.5063 37.228 16.2651C36.6779 16.0197 36.2526 15.6854 35.9521 15.2622C35.6559 14.839 35.5078 14.3587 35.5078 13.8213H36.7329C36.7329 14.3799 36.9382 14.8221 37.3486 15.1479C37.7633 15.4696 38.3156 15.6304 39.0054 15.6304C39.6486 15.6304 40.1416 15.4992 40.4844 15.2368C40.8271 14.9744 40.9985 14.6169 40.9985 14.1641C40.9985 13.7113 40.8398 13.3621 40.5225 13.1167C40.2051 12.867 39.6296 12.6216 38.7959 12.3804ZM46.4575 16.627C45.5265 16.627 44.769 16.3223 44.1851 15.7129C43.6011 15.0993 43.3091 14.2804 43.3091 13.2563V13.0405C43.3091 12.3592 43.4382 11.752 43.6963 11.2188C43.9587 10.6813 44.3226 10.2624 44.7881 9.96191C45.2578 9.65723 45.7656 9.50488 46.3115 9.50488C47.2044 9.50488 47.8984 9.79899 48.3936 10.3872C48.8887 10.9754 49.1362 11.8175 49.1362 12.9136V13.4023H44.4834C44.5003 14.0794 44.6971 14.6274 45.0737 15.0464C45.4546 15.4611 45.937 15.6685 46.521 15.6685C46.9357 15.6685 47.2869 15.5838 47.5747 15.4146C47.8625 15.2453 48.1143 15.021 48.3301 14.7417L49.0474 15.3003C48.4718 16.1847 47.6086 16.627 46.4575 16.627ZM46.3115 10.4697C45.8376 10.4697 45.4398 10.6432 45.1182 10.9902C44.7965 11.333 44.5977 11.8154 44.5215 12.4375H47.9619V12.3486C47.9281 11.752 47.7673 11.2907 47.4795 10.9648C47.1917 10.6348 46.8024 10.4697 46.3115 10.4697ZM54.7412 16.5C54.6735 16.3646 54.6185 16.1234 54.5762 15.7764C54.0303 16.3434 53.3786 16.627 52.6211 16.627C51.944 16.627 51.3875 16.4365 50.9517 16.0557C50.52 15.6706 50.3042 15.1839 50.3042 14.5957C50.3042 13.8805 50.575 13.3262 51.1167 12.9326C51.6626 12.5348 52.4285 12.3359 53.4146 12.3359H54.5571V11.7964C54.5571 11.3859 54.4344 11.0601 54.189 10.8188C53.9435 10.5734 53.5817 10.4507 53.1035 10.4507C52.6846 10.4507 52.3333 10.5565 52.0498 10.7681C51.7663 10.9797 51.6245 11.2357 51.6245 11.5361H50.4438C50.4438 11.1934 50.5645 10.8633 50.8057 10.5459C51.0511 10.2243 51.3812 9.97038 51.7959 9.78418C52.2148 9.59798 52.674 9.50488 53.1733 9.50488C53.9647 9.50488 54.5846 9.70378 55.0332 10.1016C55.4818 10.4951 55.7145 11.0389 55.7314 11.7329V14.894C55.7314 15.5246 55.8118 16.026 55.9727 16.3984V16.5H54.7412ZM52.7925 15.605C53.1606 15.605 53.5098 15.5098 53.8398 15.3193C54.1699 15.1289 54.409 14.8813 54.5571 14.5767V13.1675H53.6367C52.1979 13.1675 51.4785 13.5885 51.4785 14.4307C51.4785 14.7988 51.6012 15.0866 51.8467 15.2939C52.0921 15.5013 52.4074 15.605 52.7925 15.605ZM60.8921 10.6855C60.7144 10.6559 60.5218 10.6411 60.3145 10.6411C59.5443 10.6411 59.0216 10.9691 58.7466 11.625V16.5H57.5723V9.63184H58.7148L58.7339 10.4253C59.119 9.81169 59.6649 9.50488 60.3716 9.50488C60.6001 9.50488 60.7736 9.53451 60.8921 9.59375V10.6855ZM64.6055 15.6685C65.0244 15.6685 65.3905 15.5415 65.7036 15.2876C66.0168 15.0337 66.1903 14.7163 66.2241 14.3354H67.335C67.3138 14.729 67.1784 15.1035 66.9287 15.459C66.679 15.8145 66.3447 16.098 65.9258 16.3096C65.5111 16.5212 65.071 16.627 64.6055 16.627C63.6702 16.627 62.9255 16.3159 62.3711 15.6938C61.821 15.0675 61.5459 14.2127 61.5459 13.1294V12.9326C61.5459 12.264 61.6686 11.6694 61.9141 11.1489C62.1595 10.6284 62.5107 10.2243 62.9678 9.93652C63.429 9.64876 63.9728 9.50488 64.5991 9.50488C65.3693 9.50488 66.0083 9.73551 66.5161 10.1968C67.0282 10.658 67.3011 11.2568 67.335 11.9932H66.2241C66.1903 11.5488 66.021 11.1849 65.7163 10.9014C65.4159 10.6136 65.0435 10.4697 64.5991 10.4697C64.0024 10.4697 63.5391 10.6855 63.209 11.1172C62.8831 11.5446 62.7202 12.1646 62.7202 12.9771V13.1992C62.7202 13.9906 62.8831 14.5999 63.209 15.0273C63.5348 15.4548 64.0003 15.6685 64.6055 15.6685ZM69.8296 10.4634C70.3501 9.82438 71.0272 9.50488 71.8608 9.50488C73.3123 9.50488 74.0444 10.3237 74.0571 11.9614V16.5H72.8828V11.9551C72.8786 11.46 72.7643 11.0939 72.54 10.8569C72.32 10.62 71.9751 10.5015 71.5054 10.5015C71.1245 10.5015 70.7902 10.603 70.5024 10.8062C70.2147 11.0093 69.9904 11.2759 69.8296 11.606V16.5H68.6553V6.75H69.8296V10.4634ZM77.0913 16.5H75.917V9.63184H77.0913V16.5ZM75.8218 7.81006C75.8218 7.61963 75.8789 7.45882 75.9932 7.32764C76.1117 7.19645 76.2852 7.13086 76.5137 7.13086C76.7422 7.13086 76.9157 7.19645 77.0342 7.32764C77.1527 7.45882 77.2119 7.61963 77.2119 7.81006C77.2119 8.00049 77.1527 8.15918 77.0342 8.28613C76.9157 8.41309 76.7422 8.47656 76.5137 8.47656C76.2852 8.47656 76.1117 8.41309 75.9932 8.28613C75.8789 8.15918 75.8218 8.00049 75.8218 7.81006ZM80.0874 9.63184L80.1255 10.4951C80.6502 9.83496 81.3358 9.50488 82.1821 9.50488C83.6336 9.50488 84.3657 10.3237 84.3784 11.9614V16.5H83.2041V11.9551C83.1999 11.46 83.0856 11.0939 82.8613 10.8569C82.6413 10.62 82.2964 10.5015 81.8267 10.5015C81.4458 10.5015 81.1115 10.603 80.8237 10.8062C80.536 11.0093 80.3117 11.2759 80.1509 11.606V16.5H78.9766V9.63184H80.0874ZM85.8701 13.0088C85.8701 11.9382 86.1177 11.0876 86.6128 10.457C87.1079 9.82227 87.7638 9.50488 88.5806 9.50488C89.4185 9.50488 90.0723 9.80111 90.542 10.3936L90.5991 9.63184H91.6719V16.335C91.6719 17.2236 91.4074 17.924 90.8784 18.436C90.3537 18.9481 89.647 19.2041 88.7583 19.2041C88.2632 19.2041 87.7786 19.0983 87.3047 18.8867C86.8307 18.6751 86.4689 18.3853 86.2192 18.0171L86.8286 17.3125C87.3322 17.9346 87.9479 18.2456 88.6758 18.2456C89.2471 18.2456 89.6914 18.0848 90.0088 17.7632C90.3304 17.4416 90.4912 16.9888 90.4912 16.4048V15.8145C90.0215 16.3561 89.3804 16.627 88.5679 16.627C87.7638 16.627 87.1121 16.3032 86.6128 15.6558C86.1177 15.0083 85.8701 14.126 85.8701 13.0088ZM87.0508 13.1421C87.0508 13.9165 87.2095 14.5259 87.5269 14.9702C87.8442 15.4103 88.2886 15.6304 88.8599 15.6304C89.6004 15.6304 90.1442 15.2939 90.4912 14.6211V11.4854C90.1315 10.8294 89.592 10.5015 88.8726 10.5015C88.3013 10.5015 87.8548 10.7236 87.5332 11.168C87.2116 11.6123 87.0508 12.2703 87.0508 13.1421ZM93.4746 15.8843C93.4746 15.6812 93.5339 15.5119 93.6523 15.3765C93.7751 15.241 93.957 15.1733 94.1982 15.1733C94.4395 15.1733 94.6214 15.241 94.7441 15.3765C94.8711 15.5119 94.9346 15.6812 94.9346 15.8843C94.9346 16.0789 94.8711 16.2419 94.7441 16.373C94.6214 16.5042 94.4395 16.5698 94.1982 16.5698C93.957 16.5698 93.7751 16.5042 93.6523 16.373C93.5339 16.2419 93.4746 16.0789 93.4746 15.8843ZM96.9023 15.8843C96.9023 15.6812 96.9616 15.5119 97.0801 15.3765C97.2028 15.241 97.3848 15.1733 97.626 15.1733C97.8672 15.1733 98.0492 15.241 98.1719 15.3765C98.2988 15.5119 98.3623 15.6812 98.3623 15.8843C98.3623 16.0789 98.2988 16.2419 98.1719 16.373C98.0492 16.5042 97.8672 16.5698 97.626 16.5698C97.3848 16.5698 97.2028 16.5042 97.0801 16.373C96.9616 16.2419 96.9023 16.0789 96.9023 15.8843Z" fill="#404040"/>
<path d="M12 1H105V-1H12V1ZM105 23H12V25H105V23ZM12 23C5.92487 23 1 18.0751 1 12H-1C-1 19.1797 4.8203 25 12 25V23ZM116 12C116 18.0751 111.075 23 105 23V25C112.18 25 118 19.1797 118 12H116ZM105 1C111.075 1 116 5.92487 116 12H118C118 4.8203 112.18 -1 105 -1V1ZM12 -1C4.8203 -1 -1 4.8203 -1 12H1C1 5.92487 5.92487 1 12 1V-1Z" fill="#0371FF"/>
</svg>
