<svg width="452" height="43" viewBox="0 0 452 43" fill="none" xmlns="http://www.w3.org/2000/svg">
<rect x="0.5" y="19.5" width="451" height="23" rx="3.5" fill="#F6F7F9"/>
<path d="M14.4434 26.4688L17.2324 33.4297L20.0215 26.4688H21.4805V35H20.3555V31.6777L20.4609 28.0918L17.6602 35H16.7988L14.0039 28.1094L14.1152 31.6777V35H12.9902V26.4688H14.4434ZM23.0098 31.7715C23.0098 31.1504 23.1309 30.5918 23.373 30.0957C23.6191 29.5996 23.959 29.2168 24.3926 28.9473C24.8301 28.6777 25.3281 28.543 25.8867 28.543C26.75 28.543 27.4473 28.8418 27.9785 29.4395C28.5137 30.0371 28.7812 30.832 28.7812 31.8242V31.9004C28.7812 32.5176 28.6621 33.0723 28.4238 33.5645C28.1895 34.0527 27.8516 34.4336 27.4102 34.707C26.9727 34.9805 26.4688 35.1172 25.8984 35.1172C25.0391 35.1172 24.3418 34.8184 23.8066 34.2207C23.2754 33.623 23.0098 32.832 23.0098 31.8477V31.7715ZM24.0996 31.9004C24.0996 32.6035 24.2617 33.168 24.5859 33.5938C24.9141 34.0195 25.3516 34.2324 25.8984 34.2324C26.4492 34.2324 26.8867 34.0176 27.2109 33.5879C27.5352 33.1543 27.6973 32.5488 27.6973 31.7715C27.6973 31.0762 27.5312 30.5137 27.1992 30.084C26.8711 29.6504 26.4336 29.4336 25.8867 29.4336C25.3516 29.4336 24.9199 29.6465 24.5918 30.0723C24.2637 30.498 24.0996 31.1074 24.0996 31.9004ZM31.2246 29.4277C31.7051 28.8379 32.3301 28.543 33.0996 28.543C34.4395 28.543 35.1152 29.2988 35.127 30.8105V35H34.043V30.8047C34.0391 30.3477 33.9336 30.0098 33.7266 29.791C33.5234 29.5723 33.2051 29.4629 32.7715 29.4629C32.4199 29.4629 32.1113 29.5566 31.8457 29.7441C31.5801 29.9316 31.373 30.1777 31.2246 30.4824V35H30.1406V26H31.2246V29.4277ZM40.6641 35C40.6016 34.875 40.5508 34.6523 40.5117 34.332C40.0078 34.8555 39.4062 35.1172 38.707 35.1172C38.082 35.1172 37.5684 34.9414 37.166 34.5898C36.7676 34.2344 36.5684 33.7852 36.5684 33.2422C36.5684 32.582 36.8184 32.0703 37.3184 31.707C37.8223 31.3398 38.5293 31.1562 39.4395 31.1562H40.4941V30.6582C40.4941 30.2793 40.3809 29.9785 40.1543 29.7559C39.9277 29.5293 39.5938 29.416 39.1523 29.416C38.7656 29.416 38.4414 29.5137 38.1797 29.709C37.918 29.9043 37.7871 30.1406 37.7871 30.418H36.6973C36.6973 30.1016 36.8086 29.7969 37.0312 29.5039C37.2578 29.207 37.5625 28.9727 37.9453 28.8008C38.332 28.6289 38.7559 28.543 39.2168 28.543C39.9473 28.543 40.5195 28.7266 40.9336 29.0938C41.3477 29.457 41.5625 29.959 41.5781 30.5996V33.5176C41.5781 34.0996 41.6523 34.5625 41.8008 34.9062V35H40.6641ZM38.8652 34.1738C39.2051 34.1738 39.5273 34.0859 39.832 33.9102C40.1367 33.7344 40.3574 33.5059 40.4941 33.2246V31.9238H39.6445C38.3164 31.9238 37.6523 32.3125 37.6523 33.0898C37.6523 33.4297 37.7656 33.6953 37.9922 33.8867C38.2188 34.0781 38.5098 34.1738 38.8652 34.1738ZM44.2969 28.6602L44.3262 29.3633C44.791 28.8164 45.418 28.543 46.207 28.543C47.0938 28.543 47.6973 28.8828 48.0176 29.5625C48.2285 29.2578 48.502 29.0117 48.8379 28.8242C49.1777 28.6367 49.5781 28.543 50.0391 28.543C51.4297 28.543 52.1367 29.2793 52.1602 30.752V35H51.0762V30.8164C51.0762 30.3633 50.9727 30.0254 50.7656 29.8027C50.5586 29.5762 50.2109 29.4629 49.7227 29.4629C49.3203 29.4629 48.9863 29.584 48.7207 29.8262C48.4551 30.0645 48.3008 30.3867 48.2578 30.793V35H47.168V30.8457C47.168 29.9238 46.7168 29.4629 45.8145 29.4629C45.1035 29.4629 44.6172 29.7656 44.3555 30.3711V35H43.2715V28.6602H44.2969ZM54.8203 28.6602L54.8496 29.3633C55.3145 28.8164 55.9414 28.543 56.7305 28.543C57.6172 28.543 58.2207 28.8828 58.541 29.5625C58.752 29.2578 59.0254 29.0117 59.3613 28.8242C59.7012 28.6367 60.1016 28.543 60.5625 28.543C61.9531 28.543 62.6602 29.2793 62.6836 30.752V35H61.5996V30.8164C61.5996 30.3633 61.4961 30.0254 61.2891 29.8027C61.082 29.5762 60.7344 29.4629 60.2461 29.4629C59.8438 29.4629 59.5098 29.584 59.2441 29.8262C58.9785 30.0645 58.8242 30.3867 58.7812 30.793V35H57.6914V30.8457C57.6914 29.9238 57.2402 29.4629 56.3379 29.4629C55.627 29.4629 55.1406 29.7656 54.8789 30.3711V35H53.7949V28.6602H54.8203ZM66.9551 35.1172C66.0957 35.1172 65.3965 34.8359 64.8574 34.2734C64.3184 33.707 64.0488 32.9512 64.0488 32.0059V31.8066C64.0488 31.1777 64.168 30.6172 64.4062 30.125C64.6484 29.6289 64.9844 29.2422 65.4141 28.9648C65.8477 28.6836 66.3164 28.543 66.8203 28.543C67.6445 28.543 68.2852 28.8145 68.7422 29.3574C69.1992 29.9004 69.4277 30.6777 69.4277 31.6895V32.1406H65.1328C65.1484 32.7656 65.3301 33.2715 65.6777 33.6582C66.0293 34.041 66.4746 34.2324 67.0137 34.2324C67.3965 34.2324 67.7207 34.1543 67.9863 33.998C68.252 33.8418 68.4844 33.6348 68.6836 33.377L69.3457 33.8926C68.8145 34.709 68.0176 35.1172 66.9551 35.1172ZM66.8203 29.4336C66.3828 29.4336 66.0156 29.5938 65.7188 29.9141C65.4219 30.2305 65.2383 30.6758 65.168 31.25H68.3438V31.168C68.3125 30.6172 68.1641 30.1914 67.8984 29.8906C67.6328 29.5859 67.2734 29.4336 66.8203 29.4336ZM70.4238 31.7773C70.4238 30.8047 70.6543 30.0234 71.1152 29.4336C71.5762 28.8398 72.1797 28.543 72.9258 28.543C73.668 28.543 74.2559 28.7969 74.6895 29.3047V26H75.7734V35H74.7773L74.7246 34.3203C74.291 34.8516 73.6875 35.1172 72.9141 35.1172C72.1797 35.1172 71.5801 34.8164 71.1152 34.2148C70.6543 33.6133 70.4238 32.8281 70.4238 31.8594V31.7773ZM71.5078 31.9004C71.5078 32.6191 71.6562 33.1816 71.9531 33.5879C72.25 33.9941 72.6602 34.1973 73.1836 34.1973C73.8711 34.1973 74.373 33.8887 74.6895 33.2715V30.3594C74.3652 29.7617 73.8672 29.4629 73.1953 29.4629C72.6641 29.4629 72.25 29.668 71.9531 30.0781C71.6562 30.4883 71.5078 31.0957 71.5078 31.9004ZM85.3184 32.7734H81.7441L80.9414 35H79.7812L83.0391 26.4688H84.0234L87.2871 35H86.1328L85.3184 32.7734ZM82.084 31.8477H84.9844L83.5312 27.8574L82.084 31.8477ZM90.0352 32.0645L89.3555 32.7734V35H88.2715V26H89.3555V31.4434L89.9355 30.7461L91.9102 28.6602H93.2285L90.7617 31.3086L93.5156 35H92.2441L90.0352 32.0645ZM96.1172 32.0645L95.4375 32.7734V35H94.3535V26H95.4375V31.4434L96.0176 30.7461L97.9922 28.6602H99.3105L96.8438 31.3086L99.5977 35H98.3262L96.1172 32.0645ZM104.344 35C104.281 34.875 104.23 34.6523 104.191 34.332C103.688 34.8555 103.086 35.1172 102.387 35.1172C101.762 35.1172 101.248 34.9414 100.846 34.5898C100.447 34.2344 100.248 33.7852 100.248 33.2422C100.248 32.582 100.498 32.0703 100.998 31.707C101.502 31.3398 102.209 31.1562 103.119 31.1562H104.174V30.6582C104.174 30.2793 104.061 29.9785 103.834 29.7559C103.607 29.5293 103.273 29.416 102.832 29.416C102.445 29.416 102.121 29.5137 101.859 29.709C101.598 29.9043 101.467 30.1406 101.467 30.418H100.377C100.377 30.1016 100.488 29.7969 100.711 29.5039C100.938 29.207 101.242 28.9727 101.625 28.8008C102.012 28.6289 102.436 28.543 102.896 28.543C103.627 28.543 104.199 28.7266 104.613 29.0938C105.027 29.457 105.242 29.959 105.258 30.5996V33.5176C105.258 34.0996 105.332 34.5625 105.48 34.9062V35H104.344ZM102.545 34.1738C102.885 34.1738 103.207 34.0859 103.512 33.9102C103.816 33.7344 104.037 33.5059 104.174 33.2246V31.9238H103.324C101.996 31.9238 101.332 32.3125 101.332 33.0898C101.332 33.4297 101.445 33.6953 101.672 33.8867C101.898 34.0781 102.189 34.1738 102.545 34.1738ZM110.021 29.6328C109.857 29.6055 109.68 29.5918 109.488 29.5918C108.777 29.5918 108.295 29.8945 108.041 30.5V35H106.957V28.6602H108.012L108.029 29.3926C108.385 28.8262 108.889 28.543 109.541 28.543C109.752 28.543 109.912 28.5703 110.021 28.625V29.6328Z" fill="#404040"/>
<rect x="0.5" y="19.5" width="451" height="23" rx="3.5" stroke="#B7C4D0"/>
<path d="M0.907715 10V2.17969H3.11523C3.79557 2.17969 4.39714 2.33008 4.91992 2.63086C5.44271 2.93164 5.84554 3.35954 6.12842 3.91455C6.41488 4.46956 6.5599 5.10693 6.56348 5.82666V6.32617C6.56348 7.0638 6.42025 7.71012 6.13379 8.26514C5.85091 8.82015 5.4445 9.24626 4.91455 9.54346C4.38818 9.84066 3.77409 9.99284 3.07227 10H0.907715ZM1.93896 3.02832V9.15674H3.02393C3.81885 9.15674 4.43652 8.90967 4.87695 8.41553C5.32096 7.92139 5.54297 7.21777 5.54297 6.30469V5.84814C5.54297 4.96012 5.3335 4.27083 4.91455 3.78027C4.49919 3.28613 3.90837 3.03548 3.14209 3.02832H1.93896ZM9.05029 10H8.05664V4.18848H9.05029V10ZM7.97607 2.64697C7.97607 2.48584 8.02441 2.34977 8.12109 2.23877C8.22135 2.12777 8.36816 2.07227 8.56152 2.07227C8.75488 2.07227 8.90169 2.12777 9.00195 2.23877C9.10221 2.34977 9.15234 2.48584 9.15234 2.64697C9.15234 2.80811 9.10221 2.94238 9.00195 3.0498C8.90169 3.15723 8.75488 3.21094 8.56152 3.21094C8.36816 3.21094 8.22135 3.15723 8.12109 3.0498C8.02441 2.94238 7.97607 2.80811 7.97607 2.64697ZM14.0293 8.4585C14.0293 8.18994 13.9272 7.98226 13.7231 7.83545C13.5226 7.68506 13.1699 7.55615 12.665 7.44873C12.1637 7.34131 11.7645 7.2124 11.4673 7.06201C11.1737 6.91162 10.9552 6.73258 10.812 6.5249C10.6724 6.31722 10.6025 6.07015 10.6025 5.78369C10.6025 5.30745 10.8031 4.90462 11.2041 4.5752C11.6087 4.24577 12.1243 4.08105 12.751 4.08105C13.4098 4.08105 13.9434 4.25114 14.3516 4.59131C14.7633 4.93148 14.9692 5.36654 14.9692 5.89648H13.9702C13.9702 5.62435 13.8538 5.38981 13.6211 5.19287C13.3919 4.99593 13.1019 4.89746 12.751 4.89746C12.3893 4.89746 12.1064 4.97624 11.9023 5.13379C11.6982 5.29134 11.5962 5.49723 11.5962 5.75146C11.5962 5.99137 11.6911 6.1722 11.8809 6.29395C12.0706 6.41569 12.4126 6.53206 12.9067 6.64307C13.4045 6.75407 13.8073 6.88656 14.1152 7.04053C14.4232 7.1945 14.6506 7.3807 14.7974 7.59912C14.9478 7.81396 15.0229 8.07715 15.0229 8.38867C15.0229 8.90788 14.8153 9.32503 14.3999 9.64014C13.9845 9.95166 13.4456 10.1074 12.7832 10.1074C12.3177 10.1074 11.9059 10.0251 11.5479 9.86035C11.1898 9.69564 10.9087 9.46647 10.7046 9.17285C10.5041 8.87565 10.4038 8.55518 10.4038 8.21143H11.3975C11.4154 8.54443 11.5479 8.80941 11.7949 9.00635C12.0456 9.19971 12.375 9.29639 12.7832 9.29639C13.1592 9.29639 13.46 9.22119 13.6855 9.0708C13.9147 8.91683 14.0293 8.71273 14.0293 8.4585ZM19.9053 10C19.848 9.88542 19.8014 9.68132 19.7656 9.3877C19.3037 9.86751 18.7523 10.1074 18.1113 10.1074C17.5384 10.1074 17.0675 9.94629 16.6987 9.62402C16.3335 9.29818 16.1509 8.88639 16.1509 8.38867C16.1509 7.78353 16.38 7.31445 16.8384 6.98145C17.3003 6.64486 17.9484 6.47656 18.7827 6.47656H19.7495V6.02002C19.7495 5.67269 19.6457 5.39697 19.438 5.19287C19.2303 4.98519 18.9242 4.88135 18.5195 4.88135C18.165 4.88135 17.8678 4.97087 17.6279 5.1499C17.388 5.32894 17.2681 5.54557 17.2681 5.7998H16.269C16.269 5.50977 16.3711 5.23047 16.5752 4.96191C16.7829 4.68978 17.0622 4.47493 17.4131 4.31738C17.7676 4.15983 18.1561 4.08105 18.5786 4.08105C19.2482 4.08105 19.7728 4.24935 20.1523 4.58594C20.5319 4.91895 20.7288 5.37907 20.7432 5.96631V8.64111C20.7432 9.17464 20.8112 9.59896 20.9473 9.91406V10H19.9053ZM18.2563 9.24268C18.5679 9.24268 18.8633 9.16211 19.1426 9.00098C19.4219 8.83984 19.6242 8.63037 19.7495 8.37256V7.18018H18.9707C17.7533 7.18018 17.1445 7.53646 17.1445 8.24902C17.1445 8.56055 17.2484 8.80404 17.4561 8.97949C17.6637 9.15495 17.9305 9.24268 18.2563 9.24268ZM27.2207 7.15869C27.2207 8.04671 27.0166 8.76107 26.6084 9.30176C26.2002 9.83887 25.6523 10.1074 24.9648 10.1074C24.2308 10.1074 23.6632 9.84782 23.2622 9.32861L23.2139 10H22.3008V1.75H23.2944V4.82764C23.6955 4.32992 24.2487 4.08105 24.9541 4.08105C25.6595 4.08105 26.2127 4.34782 26.6138 4.88135C27.0184 5.41488 27.2207 6.14535 27.2207 7.07275V7.15869ZM26.2271 7.0459C26.2271 6.36914 26.0964 5.84635 25.835 5.47754C25.5736 5.10872 25.1976 4.92432 24.707 4.92432C24.0518 4.92432 23.5809 5.22868 23.2944 5.8374V8.35107C23.5988 8.9598 24.0732 9.26416 24.7178 9.26416C25.194 9.26416 25.5646 9.07975 25.8296 8.71094C26.0946 8.34212 26.2271 7.78711 26.2271 7.0459ZM29.5571 10H28.5635V1.75H29.5571V10ZM33.564 10.1074C32.7762 10.1074 32.1353 9.84961 31.6411 9.33398C31.147 8.81478 30.8999 8.12191 30.8999 7.25537V7.07275C30.8999 6.49626 31.0091 5.98242 31.2275 5.53125C31.4495 5.0765 31.7575 4.72201 32.1514 4.46777C32.5488 4.20996 32.9785 4.08105 33.4404 4.08105C34.196 4.08105 34.7832 4.32992 35.2021 4.82764C35.6211 5.32536 35.8306 6.03792 35.8306 6.96533V7.37891H31.8936C31.9079 7.95182 32.0744 8.41553 32.3931 8.77002C32.7153 9.12093 33.1235 9.29639 33.6177 9.29639C33.9686 9.29639 34.2658 9.22477 34.5093 9.08154C34.7528 8.93831 34.9658 8.74854 35.1484 8.51221L35.7554 8.98486C35.2684 9.73324 34.5379 10.1074 33.564 10.1074ZM33.4404 4.89746C33.0394 4.89746 32.7028 5.04427 32.4307 5.33789C32.1585 5.62793 31.9902 6.03613 31.9258 6.5625H34.8369V6.4873C34.8083 5.98242 34.6722 5.59212 34.4287 5.31641C34.1852 5.03711 33.8558 4.89746 33.4404 4.89746ZM36.7437 7.0459C36.7437 6.1543 36.9549 5.43815 37.3774 4.89746C37.8 4.35319 38.3532 4.08105 39.0371 4.08105C39.7174 4.08105 40.2563 4.3138 40.6538 4.7793V1.75H41.6475V10H40.7344L40.686 9.37695C40.2886 9.86393 39.7354 10.1074 39.0264 10.1074C38.3532 10.1074 37.8035 9.83171 37.3774 9.28027C36.9549 8.72884 36.7437 8.00911 36.7437 7.12109V7.0459ZM37.7373 7.15869C37.7373 7.81755 37.8734 8.33317 38.1455 8.70557C38.4176 9.07796 38.7936 9.26416 39.2734 9.26416C39.9036 9.26416 40.3638 8.98128 40.6538 8.41553V5.74609C40.3566 5.19824 39.9001 4.92432 39.2842 4.92432C38.7972 4.92432 38.4176 5.1123 38.1455 5.48828C37.8734 5.86426 37.7373 6.42106 37.7373 7.15869Z" fill="#6F89A1"/>
</svg>
