<svg width="200" height="28" viewBox="0 0 200 28" fill="none" xmlns="http://www.w3.org/2000/svg">
<rect x="0.5" y="0.5" width="199" height="27" rx="3.5" fill="white"/>
<path d="M17.7012 15.7734H14.127L13.3242 18H12.1641L15.4219 9.46875H16.4062L19.6699 18H18.5156L17.7012 15.7734ZM14.4668 14.8477H17.3672L15.9141 10.8574L14.4668 14.8477ZM23.1914 17.2324C23.5781 17.2324 23.916 17.1152 24.2051 16.8809C24.4941 16.6465 24.6543 16.3535 24.6855 16.002H25.7109C25.6914 16.3652 25.5664 16.7109 25.3359 17.0391C25.1055 17.3672 24.7969 17.6289 24.4102 17.8242C24.0273 18.0195 23.6211 18.1172 23.1914 18.1172C22.3281 18.1172 21.6406 17.8301 21.1289 17.2559C20.6211 16.6777 20.3672 15.8887 20.3672 14.8887V14.707C20.3672 14.0898 20.4805 13.541 20.707 13.0605C20.9336 12.5801 21.2578 12.207 21.6797 11.9414C22.1055 11.6758 22.6074 11.543 23.1855 11.543C23.8965 11.543 24.4863 11.7559 24.9551 12.1816C25.4277 12.6074 25.6797 13.1602 25.7109 13.8398H24.6855C24.6543 13.4297 24.498 13.0938 24.2168 12.832C23.9395 12.5664 23.5957 12.4336 23.1855 12.4336C22.6348 12.4336 22.207 12.6328 21.9023 13.0312C21.6016 13.4258 21.4512 13.998 21.4512 14.748V14.9531C21.4512 15.6836 21.6016 16.2461 21.9023 16.6406C22.2031 17.0352 22.6328 17.2324 23.1914 17.2324ZM28.4004 10.125V11.6602H29.584V12.498H28.4004V16.4297C28.4004 16.6836 28.4531 16.875 28.5586 17.0039C28.6641 17.1289 28.8438 17.1914 29.0977 17.1914C29.2227 17.1914 29.3945 17.168 29.6133 17.1211V18C29.3281 18.0781 29.0508 18.1172 28.7812 18.1172C28.2969 18.1172 27.9316 17.9707 27.6855 17.6777C27.4395 17.3848 27.3164 16.9688 27.3164 16.4297V12.498H26.1621V11.6602H27.3164V10.125H28.4004ZM32.0332 18H30.9492V11.6602H32.0332V18ZM30.8613 9.97852C30.8613 9.80273 30.9141 9.6543 31.0195 9.5332C31.1289 9.41211 31.2891 9.35156 31.5 9.35156C31.7109 9.35156 31.8711 9.41211 31.9805 9.5332C32.0898 9.6543 32.1445 9.80273 32.1445 9.97852C32.1445 10.1543 32.0898 10.3008 31.9805 10.418C31.8711 10.5352 31.7109 10.5938 31.5 10.5938C31.2891 10.5938 31.1289 10.5352 31.0195 10.418C30.9141 10.3008 30.8613 10.1543 30.8613 9.97852ZM35.8652 16.5293L37.4355 11.6602H38.543L36.2695 18H35.4434L33.1465 11.6602H34.2539L35.8652 16.5293ZM42.1348 18.1172C41.2754 18.1172 40.5762 17.8359 40.0371 17.2734C39.498 16.707 39.2285 15.9512 39.2285 15.0059V14.8066C39.2285 14.1777 39.3477 13.6172 39.5859 13.125C39.8281 12.6289 40.1641 12.2422 40.5938 11.9648C41.0273 11.6836 41.4961 11.543 42 11.543C42.8242 11.543 43.4648 11.8145 43.9219 12.3574C44.3789 12.9004 44.6074 13.6777 44.6074 14.6895V15.1406H40.3125C40.3281 15.7656 40.5098 16.2715 40.8574 16.6582C41.209 17.041 41.6543 17.2324 42.1934 17.2324C42.5762 17.2324 42.9004 17.1543 43.166 16.998C43.4316 16.8418 43.6641 16.6348 43.8633 16.377L44.5254 16.8926C43.9941 17.709 43.1973 18.1172 42.1348 18.1172ZM42 12.4336C41.5625 12.4336 41.1953 12.5938 40.8984 12.9141C40.6016 13.2305 40.418 13.6758 40.3477 14.25H43.5234V14.168C43.4922 13.6172 43.3438 13.1914 43.0781 12.8906C42.8125 12.5859 42.4531 12.4336 42 12.4336Z" fill="#404040"/>
<rect x="0.5" y="0.5" width="199" height="27" rx="3.5" stroke="#0371FF"/>
</svg>
