<svg width="452" height="48" viewBox="0 0 452 48" fill="none" xmlns="http://www.w3.org/2000/svg">
<rect x="0.5" y="20.5" width="451" height="27" rx="3.5" fill="#F6F7F9"/>
<path fill-rule="evenodd" clip-rule="evenodd" d="M438.633 32.6402C439.176 31.9889 438.713 31 437.865 31H432.135C431.287 31 430.824 31.9889 431.367 32.6402L434.232 36.0781C434.632 36.5579 435.368 36.5579 435.768 36.0781L438.633 32.6402Z" fill="#6F89A1"/>
<path d="M33.7012 35.7734H30.127L29.3242 38H28.1641L31.4219 29.4688H32.4062L35.6699 38H34.5156L33.7012 35.7734ZM30.4668 34.8477H33.3672L31.9141 30.8574L30.4668 34.8477ZM37.8262 38H36.7422V29H37.8262V38ZM40.7441 38H39.6602V29H40.7441V38ZM45.6309 38V29.4688H48.0391C48.7812 29.4688 49.4375 29.6328 50.0078 29.9609C50.5781 30.2891 51.0176 30.7559 51.3262 31.3613C51.6387 31.9668 51.7969 32.6621 51.8008 33.4473V33.9922C51.8008 34.7969 51.6445 35.502 51.332 36.1074C51.0234 36.7129 50.5801 37.1777 50.002 37.502C49.4277 37.8262 48.7578 37.9922 47.9922 38H45.6309ZM46.7559 30.3945V37.0801H47.9395C48.8066 37.0801 49.4805 36.8105 49.9609 36.2715C50.4453 35.7324 50.6875 34.9648 50.6875 33.9688V33.4707C50.6875 32.502 50.459 31.75 50.002 31.2148C49.5488 30.6758 48.9043 30.4023 48.0684 30.3945H46.7559ZM53.0488 34.7715C53.0488 34.1504 53.1699 33.5918 53.4121 33.0957C53.6582 32.5996 53.998 32.2168 54.4316 31.9473C54.8691 31.6777 55.3672 31.543 55.9258 31.543C56.7891 31.543 57.4863 31.8418 58.0176 32.4395C58.5527 33.0371 58.8203 33.832 58.8203 34.8242V34.9004C58.8203 35.5176 58.7012 36.0723 58.4629 36.5645C58.2285 37.0527 57.8906 37.4336 57.4492 37.707C57.0117 37.9805 56.5078 38.1172 55.9375 38.1172C55.0781 38.1172 54.3809 37.8184 53.8457 37.2207C53.3145 36.623 53.0488 35.832 53.0488 34.8477V34.7715ZM54.1387 34.9004C54.1387 35.6035 54.3008 36.168 54.625 36.5938C54.9531 37.0195 55.3906 37.2324 55.9375 37.2324C56.4883 37.2324 56.9258 37.0176 57.25 36.5879C57.5742 36.1543 57.7363 35.5488 57.7363 34.7715C57.7363 34.0762 57.5703 33.5137 57.2383 33.084C56.9102 32.6504 56.4727 32.4336 55.9258 32.4336C55.3906 32.4336 54.959 32.6465 54.6309 33.0723C54.3027 33.498 54.1387 34.1074 54.1387 34.9004ZM62.7227 37.2324C63.1094 37.2324 63.4473 37.1152 63.7363 36.8809C64.0254 36.6465 64.1855 36.3535 64.2168 36.002H65.2422C65.2227 36.3652 65.0977 36.7109 64.8672 37.0391C64.6367 37.3672 64.3281 37.6289 63.9414 37.8242C63.5586 38.0195 63.1523 38.1172 62.7227 38.1172C61.8594 38.1172 61.1719 37.8301 60.6602 37.2559C60.1523 36.6777 59.8984 35.8887 59.8984 34.8887V34.707C59.8984 34.0898 60.0117 33.541 60.2383 33.0605C60.4648 32.5801 60.7891 32.207 61.2109 31.9414C61.6367 31.6758 62.1387 31.543 62.7168 31.543C63.4277 31.543 64.0176 31.7559 64.4863 32.1816C64.959 32.6074 65.2109 33.1602 65.2422 33.8398H64.2168C64.1855 33.4297 64.0293 33.0938 63.748 32.832C63.4707 32.5664 63.127 32.4336 62.7168 32.4336C62.166 32.4336 61.7383 32.6328 61.4336 33.0312C61.1328 33.4258 60.9824 33.998 60.9824 34.748V34.9531C60.9824 35.6836 61.1328 36.2461 61.4336 36.6406C61.7344 37.0352 62.1641 37.2324 62.7227 37.2324ZM70.375 37.373C69.9531 37.8691 69.334 38.1172 68.5176 38.1172C67.8418 38.1172 67.3262 37.9219 66.9707 37.5312C66.6191 37.1367 66.4414 36.5547 66.4375 35.7852V31.6602H67.5215V35.7559C67.5215 36.7168 67.9121 37.1973 68.6934 37.1973C69.5215 37.1973 70.0723 36.8887 70.3457 36.2715V31.6602H71.4297V38H70.3984L70.375 37.373ZM74.1016 31.6602L74.1309 32.3633C74.5957 31.8164 75.2227 31.543 76.0117 31.543C76.8984 31.543 77.502 31.8828 77.8223 32.5625C78.0332 32.2578 78.3066 32.0117 78.6426 31.8242C78.9824 31.6367 79.3828 31.543 79.8438 31.543C81.2344 31.543 81.9414 32.2793 81.9648 33.752V38H80.8809V33.8164C80.8809 33.3633 80.7773 33.0254 80.5703 32.8027C80.3633 32.5762 80.0156 32.4629 79.5273 32.4629C79.125 32.4629 78.791 32.584 78.5254 32.8262C78.2598 33.0645 78.1055 33.3867 78.0625 33.793V38H76.9727V33.8457C76.9727 32.9238 76.5215 32.4629 75.6191 32.4629C74.9082 32.4629 74.4219 32.7656 74.1602 33.3711V38H73.0762V31.6602H74.1016ZM86.2363 38.1172C85.377 38.1172 84.6777 37.8359 84.1387 37.2734C83.5996 36.707 83.3301 35.9512 83.3301 35.0059V34.8066C83.3301 34.1777 83.4492 33.6172 83.6875 33.125C83.9297 32.6289 84.2656 32.2422 84.6953 31.9648C85.1289 31.6836 85.5977 31.543 86.1016 31.543C86.9258 31.543 87.5664 31.8145 88.0234 32.3574C88.4805 32.9004 88.709 33.6777 88.709 34.6895V35.1406H84.4141C84.4297 35.7656 84.6113 36.2715 84.959 36.6582C85.3105 37.041 85.7559 37.2324 86.2949 37.2324C86.6777 37.2324 87.002 37.1543 87.2676 36.998C87.5332 36.8418 87.7656 36.6348 87.9648 36.377L88.627 36.8926C88.0957 37.709 87.2988 38.1172 86.2363 38.1172ZM86.1016 32.4336C85.6641 32.4336 85.2969 32.5938 85 32.9141C84.7031 33.2305 84.5195 33.6758 84.4492 34.25H87.625V34.168C87.5938 33.6172 87.4453 33.1914 87.1797 32.8906C86.9141 32.5859 86.5547 32.4336 86.1016 32.4336ZM90.9941 31.6602L91.0293 32.457C91.5137 31.8477 92.1465 31.543 92.9277 31.543C94.2676 31.543 94.9434 32.2988 94.9551 33.8105V38H93.8711V33.8047C93.8672 33.3477 93.7617 33.0098 93.5547 32.791C93.3516 32.5723 93.0332 32.4629 92.5996 32.4629C92.248 32.4629 91.9395 32.5566 91.6738 32.7441C91.4082 32.9316 91.2012 33.1777 91.0527 33.4824V38H89.9688V31.6602H90.9941ZM98.0605 30.125V31.6602H99.2441V32.498H98.0605V36.4297C98.0605 36.6836 98.1133 36.875 98.2188 37.0039C98.3242 37.1289 98.5039 37.1914 98.7578 37.1914C98.8828 37.1914 99.0547 37.168 99.2734 37.1211V38C98.9883 38.0781 98.7109 38.1172 98.4414 38.1172C97.957 38.1172 97.5918 37.9707 97.3457 37.6777C97.0996 37.3848 96.9766 36.9688 96.9766 36.4297V32.498H95.8223V31.6602H96.9766V30.125H98.0605ZM104.207 36.3184C104.207 36.0254 104.096 35.7988 103.873 35.6387C103.654 35.4746 103.27 35.334 102.719 35.2168C102.172 35.0996 101.736 34.959 101.412 34.7949C101.092 34.6309 100.854 34.4355 100.697 34.209C100.545 33.9824 100.469 33.7129 100.469 33.4004C100.469 32.8809 100.688 32.4414 101.125 32.082C101.566 31.7227 102.129 31.543 102.812 31.543C103.531 31.543 104.113 31.7285 104.559 32.0996C105.008 32.4707 105.232 32.9453 105.232 33.5234H104.143C104.143 33.2266 104.016 32.9707 103.762 32.7559C103.512 32.541 103.195 32.4336 102.812 32.4336C102.418 32.4336 102.109 32.5195 101.887 32.6914C101.664 32.8633 101.553 33.0879 101.553 33.3652C101.553 33.627 101.656 33.8242 101.863 33.957C102.07 34.0898 102.443 34.2168 102.982 34.3379C103.525 34.459 103.965 34.6035 104.301 34.7715C104.637 34.9395 104.885 35.1426 105.045 35.3809C105.209 35.6152 105.291 35.9023 105.291 36.2422C105.291 36.8086 105.064 37.2637 104.611 37.6074C104.158 37.9473 103.57 38.1172 102.848 38.1172C102.34 38.1172 101.891 38.0273 101.5 37.8477C101.109 37.668 100.803 37.418 100.58 37.0977C100.361 36.7734 100.252 36.4238 100.252 36.0488H101.336C101.355 36.4121 101.5 36.7012 101.77 36.916C102.043 37.127 102.402 37.2324 102.848 37.2324C103.258 37.2324 103.586 37.1504 103.832 36.9863C104.082 36.8184 104.207 36.5957 104.207 36.3184Z" fill="#606060"/>
<path fill-rule="evenodd" clip-rule="evenodd" d="M13 28H23V29V39V40H13V39V29V28ZM21 38V37H15V38H21ZM21 34V35H15V34H21ZM15 32H18V31H15V32Z" fill="#93A7B8"/>
<rect x="0.5" y="20.5" width="451" height="27" rx="3.5" stroke="#B7C4D0"/>
<path d="M0.907715 11V3.17969H3.11523C3.79557 3.17969 4.39714 3.33008 4.91992 3.63086C5.44271 3.93164 5.84554 4.35954 6.12842 4.91455C6.41488 5.46956 6.5599 6.10693 6.56348 6.82666V7.32617C6.56348 8.0638 6.42025 8.71012 6.13379 9.26514C5.85091 9.82015 5.4445 10.2463 4.91455 10.5435C4.38818 10.8407 3.77409 10.9928 3.07227 11H0.907715ZM1.93896 4.02832V10.1567H3.02393C3.81885 10.1567 4.43652 9.90967 4.87695 9.41553C5.32096 8.92139 5.54297 8.21777 5.54297 7.30469V6.84814C5.54297 5.96012 5.3335 5.27083 4.91455 4.78027C4.49919 4.28613 3.90837 4.03548 3.14209 4.02832H1.93896ZM9.05029 11H8.05664V5.18848H9.05029V11ZM7.97607 3.64697C7.97607 3.48584 8.02441 3.34977 8.12109 3.23877C8.22135 3.12777 8.36816 3.07227 8.56152 3.07227C8.75488 3.07227 8.90169 3.12777 9.00195 3.23877C9.10221 3.34977 9.15234 3.48584 9.15234 3.64697C9.15234 3.80811 9.10221 3.94238 9.00195 4.0498C8.90169 4.15723 8.75488 4.21094 8.56152 4.21094C8.36816 4.21094 8.22135 4.15723 8.12109 4.0498C8.02441 3.94238 7.97607 3.80811 7.97607 3.64697ZM14.0293 9.4585C14.0293 9.18994 13.9272 8.98226 13.7231 8.83545C13.5226 8.68506 13.1699 8.55615 12.665 8.44873C12.1637 8.34131 11.7645 8.2124 11.4673 8.06201C11.1737 7.91162 10.9552 7.73258 10.812 7.5249C10.6724 7.31722 10.6025 7.07015 10.6025 6.78369C10.6025 6.30745 10.8031 5.90462 11.2041 5.5752C11.6087 5.24577 12.1243 5.08105 12.751 5.08105C13.4098 5.08105 13.9434 5.25114 14.3516 5.59131C14.7633 5.93148 14.9692 6.36654 14.9692 6.89648H13.9702C13.9702 6.62435 13.8538 6.38981 13.6211 6.19287C13.3919 5.99593 13.1019 5.89746 12.751 5.89746C12.3893 5.89746 12.1064 5.97624 11.9023 6.13379C11.6982 6.29134 11.5962 6.49723 11.5962 6.75146C11.5962 6.99137 11.6911 7.1722 11.8809 7.29395C12.0706 7.41569 12.4126 7.53206 12.9067 7.64307C13.4045 7.75407 13.8073 7.88656 14.1152 8.04053C14.4232 8.1945 14.6506 8.3807 14.7974 8.59912C14.9478 8.81396 15.0229 9.07715 15.0229 9.38867C15.0229 9.90788 14.8153 10.325 14.3999 10.6401C13.9845 10.9517 13.4456 11.1074 12.7832 11.1074C12.3177 11.1074 11.9059 11.0251 11.5479 10.8604C11.1898 10.6956 10.9087 10.4665 10.7046 10.1729C10.5041 9.87565 10.4038 9.55518 10.4038 9.21143H11.3975C11.4154 9.54443 11.5479 9.80941 11.7949 10.0063C12.0456 10.1997 12.375 10.2964 12.7832 10.2964C13.1592 10.2964 13.46 10.2212 13.6855 10.0708C13.9147 9.91683 14.0293 9.71273 14.0293 9.4585ZM19.9053 11C19.848 10.8854 19.8014 10.6813 19.7656 10.3877C19.3037 10.8675 18.7523 11.1074 18.1113 11.1074C17.5384 11.1074 17.0675 10.9463 16.6987 10.624C16.3335 10.2982 16.1509 9.88639 16.1509 9.38867C16.1509 8.78353 16.38 8.31445 16.8384 7.98145C17.3003 7.64486 17.9484 7.47656 18.7827 7.47656H19.7495V7.02002C19.7495 6.67269 19.6457 6.39697 19.438 6.19287C19.2303 5.98519 18.9242 5.88135 18.5195 5.88135C18.165 5.88135 17.8678 5.97087 17.6279 6.1499C17.388 6.32894 17.2681 6.54557 17.2681 6.7998H16.269C16.269 6.50977 16.3711 6.23047 16.5752 5.96191C16.7829 5.68978 17.0622 5.47493 17.4131 5.31738C17.7676 5.15983 18.1561 5.08105 18.5786 5.08105C19.2482 5.08105 19.7728 5.24935 20.1523 5.58594C20.5319 5.91895 20.7288 6.37907 20.7432 6.96631V9.64111C20.7432 10.1746 20.8112 10.599 20.9473 10.9141V11H19.9053ZM18.2563 10.2427C18.5679 10.2427 18.8633 10.1621 19.1426 10.001C19.4219 9.83984 19.6242 9.63037 19.7495 9.37256V8.18018H18.9707C17.7533 8.18018 17.1445 8.53646 17.1445 9.24902C17.1445 9.56055 17.2484 9.80404 17.4561 9.97949C17.6637 10.1549 17.9305 10.2427 18.2563 10.2427ZM27.2207 8.15869C27.2207 9.04671 27.0166 9.76107 26.6084 10.3018C26.2002 10.8389 25.6523 11.1074 24.9648 11.1074C24.2308 11.1074 23.6632 10.8478 23.2622 10.3286L23.2139 11H22.3008V2.75H23.2944V5.82764C23.6955 5.32992 24.2487 5.08105 24.9541 5.08105C25.6595 5.08105 26.2127 5.34782 26.6138 5.88135C27.0184 6.41488 27.2207 7.14535 27.2207 8.07275V8.15869ZM26.2271 8.0459C26.2271 7.36914 26.0964 6.84635 25.835 6.47754C25.5736 6.10872 25.1976 5.92432 24.707 5.92432C24.0518 5.92432 23.5809 6.22868 23.2944 6.8374V9.35107C23.5988 9.9598 24.0732 10.2642 24.7178 10.2642C25.194 10.2642 25.5646 10.0798 25.8296 9.71094C26.0946 9.34212 26.2271 8.78711 26.2271 8.0459ZM29.5571 11H28.5635V2.75H29.5571V11ZM33.564 11.1074C32.7762 11.1074 32.1353 10.8496 31.6411 10.334C31.147 9.81478 30.8999 9.12191 30.8999 8.25537V8.07275C30.8999 7.49626 31.0091 6.98242 31.2275 6.53125C31.4495 6.0765 31.7575 5.72201 32.1514 5.46777C32.5488 5.20996 32.9785 5.08105 33.4404 5.08105C34.196 5.08105 34.7832 5.32992 35.2021 5.82764C35.6211 6.32536 35.8306 7.03792 35.8306 7.96533V8.37891H31.8936C31.9079 8.95182 32.0744 9.41553 32.3931 9.77002C32.7153 10.1209 33.1235 10.2964 33.6177 10.2964C33.9686 10.2964 34.2658 10.2248 34.5093 10.0815C34.7528 9.93831 34.9658 9.74854 35.1484 9.51221L35.7554 9.98486C35.2684 10.7332 34.5379 11.1074 33.564 11.1074ZM33.4404 5.89746C33.0394 5.89746 32.7028 6.04427 32.4307 6.33789C32.1585 6.62793 31.9902 7.03613 31.9258 7.5625H34.8369V7.4873C34.8083 6.98242 34.6722 6.59212 34.4287 6.31641C34.1852 6.03711 33.8558 5.89746 33.4404 5.89746ZM36.7437 8.0459C36.7437 7.1543 36.9549 6.43815 37.3774 5.89746C37.8 5.35319 38.3532 5.08105 39.0371 5.08105C39.7174 5.08105 40.2563 5.3138 40.6538 5.7793V2.75H41.6475V11H40.7344L40.686 10.377C40.2886 10.8639 39.7354 11.1074 39.0264 11.1074C38.3532 11.1074 37.8035 10.8317 37.3774 10.2803C36.9549 9.72884 36.7437 9.00911 36.7437 8.12109V8.0459ZM37.7373 8.15869C37.7373 8.81755 37.8734 9.33317 38.1455 9.70557C38.4176 10.078 38.7936 10.2642 39.2734 10.2642C39.9036 10.2642 40.3638 9.98128 40.6538 9.41553V6.74609C40.3566 6.19824 39.9001 5.92432 39.2842 5.92432C38.7972 5.92432 38.4176 6.1123 38.1455 6.48828C37.8734 6.86426 37.7373 7.42106 37.7373 8.15869Z" fill="#6F89A1"/>
</svg>
