<svg width="79" height="28" viewBox="0 0 79 28" fill="none" xmlns="http://www.w3.org/2000/svg">
<path d="M0 14C0 6.26801 6.26801 0 14 0H65C72.732 0 79 6.26801 79 14V14C79 21.732 72.732 28 65 28H14C6.26802 28 0 21.732 0 14V14Z" fill="#F2F8FF"/>
<path fill-rule="evenodd" clip-rule="evenodd" d="M18 10H16V13H13V15H16V18H18V15H21V13H18V10Z" fill="#0371FF"/>
<path d="M32.9224 18H26.708V16.9399L29.7866 13.582C30.231 13.0869 30.5462 12.6743 30.7324 12.3442C30.9229 12.0099 31.0181 11.6756 31.0181 11.3413C31.0181 10.9012 30.8932 10.5457 30.6436 10.2749C30.3981 10.0041 30.0659 9.86865 29.647 9.86865C29.1476 9.86865 28.7604 10.021 28.4854 10.3257C28.2103 10.6304 28.0728 11.0472 28.0728 11.5762H26.5303C26.5303 11.0133 26.6572 10.5076 26.9111 10.0591C27.1693 9.60628 27.5353 9.25505 28.0093 9.00537C28.4875 8.7557 29.0376 8.63086 29.6597 8.63086C30.5568 8.63086 31.2635 8.85726 31.7798 9.31006C32.3003 9.75863 32.5605 10.3807 32.5605 11.1763C32.5605 11.6375 32.4294 12.1221 32.167 12.6299C31.9089 13.1335 31.4836 13.7069 30.8911 14.3501L28.6313 16.7686H32.9224V18ZM39.9175 11.1953C39.9175 11.6481 39.8011 12.0522 39.5684 12.4077C39.3356 12.759 39.0182 13.0361 38.6162 13.2393C39.0986 13.4635 39.4689 13.7703 39.7271 14.1597C39.9894 14.549 40.1206 14.9891 40.1206 15.48C40.1206 16.2925 39.8455 16.9378 39.2954 17.416C38.7453 17.89 38.0132 18.127 37.0991 18.127C36.1808 18.127 35.4445 17.8879 34.8901 17.4097C34.34 16.9315 34.0649 16.2882 34.0649 15.48C34.0649 14.9849 34.1961 14.5405 34.4585 14.147C34.7209 13.7534 35.089 13.4508 35.563 13.2393C35.1652 13.0361 34.8499 12.759 34.6172 12.4077C34.3887 12.0522 34.2744 11.6481 34.2744 11.1953C34.2744 10.4082 34.5283 9.78402 35.0361 9.32275C35.5439 8.86149 36.2295 8.63086 37.0928 8.63086C37.9603 8.63086 38.6479 8.86149 39.1558 9.32275C39.6636 9.78402 39.9175 10.4082 39.9175 11.1953ZM38.5781 15.4038C38.5781 14.9468 38.4406 14.5786 38.1655 14.2993C37.8947 14.0158 37.535 13.874 37.0864 13.874C36.6379 13.874 36.2782 14.0137 36.0073 14.293C35.7407 14.5723 35.6074 14.9425 35.6074 15.4038C35.6074 15.8566 35.7386 16.2184 36.001 16.4893C36.2676 16.7601 36.6336 16.8955 37.0991 16.8955C37.5646 16.8955 37.9264 16.7643 38.1846 16.502C38.4469 16.2396 38.5781 15.8735 38.5781 15.4038ZM38.3813 11.2524C38.3813 10.8504 38.265 10.5203 38.0322 10.2622C37.7995 9.99984 37.4863 9.86865 37.0928 9.86865C36.6992 9.86865 36.3882 9.99349 36.1597 10.2432C35.9312 10.4886 35.8169 10.825 35.8169 11.2524C35.8169 11.6756 35.9312 12.012 36.1597 12.2617C36.3924 12.5114 36.7056 12.6362 37.0991 12.6362C37.4927 12.6362 37.8037 12.5114 38.0322 12.2617C38.265 12.012 38.3813 11.6756 38.3813 11.2524ZM46.5762 16.7178H50.772V18H44.9702V8.75781H46.5762V16.7178ZM54.8789 18.127C53.9014 18.127 53.1079 17.8201 52.4985 17.2065C51.8934 16.5887 51.5908 15.7677 51.5908 14.7437V14.5532C51.5908 13.8677 51.722 13.2562 51.9844 12.7188C52.251 12.1771 52.6234 11.756 53.1016 11.4556C53.5798 11.1551 54.113 11.0049 54.7012 11.0049C55.6364 11.0049 56.3579 11.3032 56.8657 11.8999C57.3778 12.4966 57.6338 13.3408 57.6338 14.4326V15.0547H53.146C53.1925 15.6217 53.3809 16.0703 53.7109 16.4004C54.0452 16.7305 54.4642 16.8955 54.9678 16.8955C55.6745 16.8955 56.25 16.6099 56.6943 16.0386L57.5259 16.832C57.2508 17.2425 56.8826 17.562 56.4214 17.7905C55.9644 18.0148 55.4502 18.127 54.8789 18.127ZM54.6948 12.2427C54.2716 12.2427 53.9289 12.3908 53.6665 12.687C53.4084 12.9832 53.2433 13.3958 53.1714 13.9248H56.1104V13.8105C56.0765 13.2943 55.939 12.9049 55.6978 12.6426C55.4565 12.376 55.1222 12.2427 54.6948 12.2427ZM59.3794 18V12.2744H58.332V11.1318H59.3794V10.5034C59.3794 9.7417 59.591 9.15348 60.0142 8.73877C60.4373 8.32406 61.0298 8.1167 61.7915 8.1167C62.0623 8.1167 62.3501 8.15479 62.6548 8.23096L62.6167 9.43701C62.4474 9.40316 62.2507 9.38623 62.0264 9.38623C61.29 9.38623 60.9219 9.76497 60.9219 10.5225V11.1318H62.3184V12.2744H60.9219V18H59.3794ZM65.3779 9.4624V11.1318H66.5903V12.2744H65.3779V16.1084C65.3779 16.3708 65.4287 16.5612 65.5303 16.6797C65.6361 16.7939 65.8223 16.8511 66.0889 16.8511C66.2666 16.8511 66.4465 16.8299 66.6284 16.7876V17.981C66.2772 18.0783 65.9386 18.127 65.6128 18.127C64.4279 18.127 63.8354 17.4731 63.8354 16.1655V12.2744H62.7056V11.1318H63.8354V9.4624H65.3779Z" fill="#0371FF"/>
<path d="M14 1H65V-1H14V1ZM65 27H14V29H65V27ZM14 27C6.8203 27 1 21.1797 1 14H-1C-1 22.2843 5.71573 29 14 29V27ZM78 14C78 21.1797 72.1797 27 65 27V29C73.2843 29 80 22.2843 80 14H78ZM65 1C72.1797 1 78 6.8203 78 14H80C80 5.71573 73.2843 -1 65 -1V1ZM14 -1C5.71573 -1 -1 5.71573 -1 14H1C1 6.8203 6.8203 1 14 1V-1Z" fill="#0371FF"/>
</svg>
