<svg width="452" height="43" viewBox="0 0 452 43" fill="none" xmlns="http://www.w3.org/2000/svg">
<rect x="0.5" y="19.5" width="451" height="23" rx="3.5" fill="white"/>
<path d="M15.4512 35.1172C14.5918 35.1172 13.8926 34.8359 13.3535 34.2734C12.8145 33.707 12.5449 32.9512 12.5449 32.0059V31.8066C12.5449 31.1777 12.6641 30.6172 12.9023 30.125C13.1445 29.6289 13.4805 29.2422 13.9102 28.9648C14.3438 28.6836 14.8125 28.543 15.3164 28.543C16.1406 28.543 16.7812 28.8145 17.2383 29.3574C17.6953 29.9004 17.9238 30.6777 17.9238 31.6895V32.1406H13.6289C13.6445 32.7656 13.8262 33.2715 14.1738 33.6582C14.5254 34.041 14.9707 34.2324 15.5098 34.2324C15.8926 34.2324 16.2168 34.1543 16.4824 33.998C16.748 33.8418 16.9805 33.6348 17.1797 33.377L17.8418 33.8926C17.3105 34.709 16.5137 35.1172 15.4512 35.1172ZM15.3164 29.4336C14.8789 29.4336 14.5117 29.5938 14.2148 29.9141C13.918 30.2305 13.7344 30.6758 13.6641 31.25H16.8398V31.168C16.8086 30.6172 16.6602 30.1914 16.3945 29.8906C16.1289 29.5859 15.7695 29.4336 15.3164 29.4336ZM19.207 34.4316C19.207 34.2441 19.2617 34.0879 19.3711 33.9629C19.4844 33.8379 19.6523 33.7754 19.875 33.7754C20.0977 33.7754 20.2656 33.8379 20.3789 33.9629C20.4961 34.0879 20.5547 34.2441 20.5547 34.4316C20.5547 34.6113 20.4961 34.7617 20.3789 34.8828C20.2656 35.0039 20.0977 35.0645 19.875 35.0645C19.6523 35.0645 19.4844 35.0039 19.3711 34.8828C19.2617 34.7617 19.207 34.6113 19.207 34.4316ZM22.0898 31.7773C22.0898 30.7891 22.3184 30.0039 22.7754 29.4219C23.2324 28.8359 23.8379 28.543 24.5918 28.543C25.3652 28.543 25.9688 28.8164 26.4023 29.3633L26.4551 28.6602H27.4453V34.8477C27.4453 35.668 27.2012 36.3145 26.7129 36.7871C26.2285 37.2598 25.5762 37.4961 24.7559 37.4961C24.2988 37.4961 23.8516 37.3984 23.4141 37.2031C22.9766 37.0078 22.6426 36.7402 22.4121 36.4004L22.9746 35.75C23.4395 36.3242 24.0078 36.6113 24.6797 36.6113C25.207 36.6113 25.6172 36.4629 25.9102 36.166C26.207 35.8691 26.3555 35.4512 26.3555 34.9121V34.3672C25.9219 34.8672 25.3301 35.1172 24.5801 35.1172C23.8379 35.1172 23.2363 34.8184 22.7754 34.2207C22.3184 33.623 22.0898 32.8086 22.0898 31.7773ZM23.1797 31.9004C23.1797 32.6152 23.3262 33.1777 23.6191 33.5879C23.9121 33.9941 24.3223 34.1973 24.8496 34.1973C25.5332 34.1973 26.0352 33.8867 26.3555 33.2656V30.3711C26.0234 29.7656 25.5254 29.4629 24.8613 29.4629C24.334 29.4629 23.9219 29.668 23.625 30.0781C23.3281 30.4883 23.1797 31.0957 23.1797 31.9004ZM29.1094 34.4316C29.1094 34.2441 29.1641 34.0879 29.2734 33.9629C29.3867 33.8379 29.5547 33.7754 29.7773 33.7754C30 33.7754 30.168 33.8379 30.2812 33.9629C30.3984 34.0879 30.457 34.2441 30.457 34.4316C30.457 34.6113 30.3984 34.7617 30.2812 34.8828C30.168 35.0039 30 35.0645 29.7773 35.0645C29.5547 35.0645 29.3867 35.0039 29.2734 34.8828C29.1641 34.7617 29.1094 34.6113 29.1094 34.4316ZM32.2148 36.6992L31.5996 36.2773C31.9668 35.7656 32.1582 35.2383 32.1738 34.6953V33.7168H33.2344V34.5664C33.2344 34.9609 33.1367 35.3555 32.9414 35.75C32.75 36.1445 32.5078 36.4609 32.2148 36.6992ZM40.2656 31.1973C39.3008 30.9199 38.5977 30.5801 38.1562 30.1777C37.7188 29.7715 37.5 29.2715 37.5 28.6777C37.5 28.0059 37.7676 27.4512 38.3027 27.0137C38.8418 26.5723 39.541 26.3516 40.4004 26.3516C40.9863 26.3516 41.5078 26.4648 41.9648 26.6914C42.4258 26.918 42.7812 27.2305 43.0312 27.6289C43.2852 28.0273 43.4121 28.4629 43.4121 28.9355H42.2812C42.2812 28.4199 42.1172 28.0156 41.7891 27.7227C41.4609 27.4258 40.998 27.2773 40.4004 27.2773C39.8457 27.2773 39.4121 27.4004 39.0996 27.6465C38.791 27.8887 38.6367 28.2266 38.6367 28.6602C38.6367 29.0078 38.7832 29.3027 39.0762 29.5449C39.373 29.7832 39.875 30.002 40.582 30.2012C41.293 30.4004 41.8477 30.6211 42.2461 30.8633C42.6484 31.1016 42.9453 31.3809 43.1367 31.7012C43.332 32.0215 43.4297 32.3984 43.4297 32.832C43.4297 33.5234 43.1602 34.0781 42.6211 34.4961C42.082 34.9102 41.3613 35.1172 40.459 35.1172C39.873 35.1172 39.3262 35.0059 38.8184 34.7832C38.3105 34.5566 37.918 34.248 37.6406 33.8574C37.3672 33.4668 37.2305 33.0234 37.2305 32.5273H38.3613C38.3613 33.043 38.5508 33.4512 38.9297 33.752C39.3125 34.0488 39.8223 34.1973 40.459 34.1973C41.0527 34.1973 41.5078 34.0762 41.8242 33.834C42.1406 33.5918 42.2988 33.2617 42.2988 32.8438C42.2988 32.4258 42.1523 32.1035 41.8594 31.877C41.5664 31.6465 41.0352 31.4199 40.2656 31.1973ZM48.6211 35C48.5586 34.875 48.5078 34.6523 48.4688 34.332C47.9648 34.8555 47.3633 35.1172 46.6641 35.1172C46.0391 35.1172 45.5254 34.9414 45.123 34.5898C44.7246 34.2344 44.5254 33.7852 44.5254 33.2422C44.5254 32.582 44.7754 32.0703 45.2754 31.707C45.7793 31.3398 46.4863 31.1562 47.3965 31.1562H48.4512V30.6582C48.4512 30.2793 48.3379 29.9785 48.1113 29.7559C47.8848 29.5293 47.5508 29.416 47.1094 29.416C46.7227 29.416 46.3984 29.5137 46.1367 29.709C45.875 29.9043 45.7441 30.1406 45.7441 30.418H44.6543C44.6543 30.1016 44.7656 29.7969 44.9883 29.5039C45.2148 29.207 45.5195 28.9727 45.9023 28.8008C46.2891 28.6289 46.7129 28.543 47.1738 28.543C47.9043 28.543 48.4766 28.7266 48.8906 29.0938C49.3047 29.457 49.5195 29.959 49.5352 30.5996V33.5176C49.5352 34.0996 49.6094 34.5625 49.7578 34.9062V35H48.6211ZM46.8223 34.1738C47.1621 34.1738 47.4844 34.0859 47.7891 33.9102C48.0938 33.7344 48.3145 33.5059 48.4512 33.2246V31.9238H47.6016C46.2734 31.9238 45.6094 32.3125 45.6094 33.0898C45.6094 33.4297 45.7227 33.6953 45.9492 33.8867C46.1758 34.0781 46.4668 34.1738 46.8223 34.1738ZM55.1484 34.373C54.7266 34.8691 54.1074 35.1172 53.291 35.1172C52.6152 35.1172 52.0996 34.9219 51.7441 34.5312C51.3926 34.1367 51.2148 33.5547 51.2109 32.7852V28.6602H52.2949V32.7559C52.2949 33.7168 52.6855 34.1973 53.4668 34.1973C54.2949 34.1973 54.8457 33.8887 55.1191 33.2715V28.6602H56.2031V35H55.1719L55.1484 34.373ZM57.5918 31.7773C57.5918 30.8047 57.8223 30.0234 58.2832 29.4336C58.7441 28.8398 59.3477 28.543 60.0938 28.543C60.8359 28.543 61.4238 28.7969 61.8574 29.3047V26H62.9414V35H61.9453L61.8926 34.3203C61.459 34.8516 60.8555 35.1172 60.082 35.1172C59.3477 35.1172 58.748 34.8164 58.2832 34.2148C57.8223 33.6133 57.5918 32.8281 57.5918 31.8594V31.7773ZM58.6758 31.9004C58.6758 32.6191 58.8242 33.1816 59.1211 33.5879C59.418 33.9941 59.8281 34.1973 60.3516 34.1973C61.0391 34.1973 61.541 33.8887 61.8574 33.2715V30.3594C61.5332 29.7617 61.0352 29.4629 60.3633 29.4629C59.832 29.4629 59.418 29.668 59.1211 30.0781C58.8242 30.4883 58.6758 31.0957 58.6758 31.9004ZM65.8066 35H64.7227V28.6602H65.8066V35ZM64.6348 26.9785C64.6348 26.8027 64.6875 26.6543 64.793 26.5332C64.9023 26.4121 65.0625 26.3516 65.2734 26.3516C65.4844 26.3516 65.6445 26.4121 65.7539 26.5332C65.8633 26.6543 65.918 26.8027 65.918 26.9785C65.918 27.1543 65.8633 27.3008 65.7539 27.418C65.6445 27.5352 65.4844 27.5938 65.2734 27.5938C65.0625 27.5938 64.9023 27.5352 64.793 27.418C64.6875 27.3008 64.6348 27.1543 64.6348 26.9785ZM75.4043 32.7734H71.8301L71.0273 35H69.8672L73.125 26.4688H74.1094L77.373 35H76.2188L75.4043 32.7734ZM72.1699 31.8477H75.0703L73.6172 27.8574L72.1699 31.8477ZM81.416 29.6328C81.252 29.6055 81.0742 29.5918 80.8828 29.5918C80.1719 29.5918 79.6895 29.8945 79.4355 30.5V35H78.3516V28.6602H79.4062L79.4238 29.3926C79.7793 28.8262 80.2832 28.543 80.9355 28.543C81.1465 28.543 81.3066 28.5703 81.416 28.625V29.6328ZM86.0977 35C86.0352 34.875 85.9844 34.6523 85.9453 34.332C85.4414 34.8555 84.8398 35.1172 84.1406 35.1172C83.5156 35.1172 83.002 34.9414 82.5996 34.5898C82.2012 34.2344 82.002 33.7852 82.002 33.2422C82.002 32.582 82.252 32.0703 82.752 31.707C83.2559 31.3398 83.9629 31.1562 84.873 31.1562H85.9277V30.6582C85.9277 30.2793 85.8145 29.9785 85.5879 29.7559C85.3613 29.5293 85.0273 29.416 84.5859 29.416C84.1992 29.416 83.875 29.5137 83.6133 29.709C83.3516 29.9043 83.2207 30.1406 83.2207 30.418H82.1309C82.1309 30.1016 82.2422 29.7969 82.4648 29.5039C82.6914 29.207 82.9961 28.9727 83.3789 28.8008C83.7656 28.6289 84.1895 28.543 84.6504 28.543C85.3809 28.543 85.9531 28.7266 86.3672 29.0938C86.7812 29.457 86.9961 29.959 87.0117 30.5996V33.5176C87.0117 34.0996 87.0859 34.5625 87.2344 34.9062V35H86.0977ZM84.2988 34.1738C84.6387 34.1738 84.9609 34.0859 85.2656 33.9102C85.5703 33.7344 85.791 33.5059 85.9277 33.2246V31.9238H85.0781C83.75 31.9238 83.0859 32.3125 83.0859 33.0898C83.0859 33.4297 83.1992 33.6953 83.4258 33.8867C83.6523 34.0781 83.9434 34.1738 84.2988 34.1738ZM94.0781 31.9004C94.0781 32.8691 93.8555 33.6484 93.4102 34.2383C92.9648 34.8242 92.3672 35.1172 91.6172 35.1172C90.8164 35.1172 90.1973 34.834 89.7598 34.2676L89.707 35H88.7109V26H89.7949V29.3574C90.2324 28.8145 90.8359 28.543 91.6055 28.543C92.375 28.543 92.9785 28.834 93.416 29.416C93.8574 29.998 94.0781 30.7949 94.0781 31.8066V31.9004ZM92.9941 31.7773C92.9941 31.0391 92.8516 30.4688 92.5664 30.0664C92.2812 29.6641 91.8711 29.4629 91.3359 29.4629C90.6211 29.4629 90.1074 29.7949 89.7949 30.459V33.2012C90.127 33.8652 90.6445 34.1973 91.3477 34.1973C91.8672 34.1973 92.2715 33.9961 92.5605 33.5938C92.8496 33.1914 92.9941 32.5859 92.9941 31.7773ZM96.627 35H95.543V28.6602H96.627V35ZM95.4551 26.9785C95.4551 26.8027 95.5078 26.6543 95.6133 26.5332C95.7227 26.4121 95.8828 26.3516 96.0938 26.3516C96.3047 26.3516 96.4648 26.4121 96.5742 26.5332C96.6836 26.6543 96.7383 26.8027 96.7383 26.9785C96.7383 27.1543 96.6836 27.3008 96.5742 27.418C96.4648 27.5352 96.3047 27.5938 96.0938 27.5938C95.8828 27.5938 95.7227 27.5352 95.6133 27.418C95.5078 27.3008 95.4551 27.1543 95.4551 26.9785ZM102.281 35C102.219 34.875 102.168 34.6523 102.129 34.332C101.625 34.8555 101.023 35.1172 100.324 35.1172C99.6992 35.1172 99.1855 34.9414 98.7832 34.5898C98.3848 34.2344 98.1855 33.7852 98.1855 33.2422C98.1855 32.582 98.4355 32.0703 98.9355 31.707C99.4395 31.3398 100.146 31.1562 101.057 31.1562H102.111V30.6582C102.111 30.2793 101.998 29.9785 101.771 29.7559C101.545 29.5293 101.211 29.416 100.77 29.416C100.383 29.416 100.059 29.5137 99.7969 29.709C99.5352 29.9043 99.4043 30.1406 99.4043 30.418H98.3145C98.3145 30.1016 98.4258 29.7969 98.6484 29.5039C98.875 29.207 99.1797 28.9727 99.5625 28.8008C99.9492 28.6289 100.373 28.543 100.834 28.543C101.564 28.543 102.137 28.7266 102.551 29.0938C102.965 29.457 103.18 29.959 103.195 30.5996V33.5176C103.195 34.0996 103.27 34.5625 103.418 34.9062V35H102.281ZM100.482 34.1738C100.822 34.1738 101.145 34.0859 101.449 33.9102C101.754 33.7344 101.975 33.5059 102.111 33.2246V31.9238H101.262C99.9336 31.9238 99.2695 32.3125 99.2695 33.0898C99.2695 33.4297 99.3828 33.6953 99.6094 33.8867C99.8359 34.0781 100.127 34.1738 100.482 34.1738Z" fill="#B4B4B4"/>
<path fill-rule="evenodd" clip-rule="evenodd" d="M438.633 29.6402C439.176 28.9889 438.713 28 437.865 28H432.135C431.287 28 430.824 28.9889 431.367 29.6402L434.232 33.0781C434.632 33.5579 435.368 33.5579 435.768 33.0781L438.633 29.6402Z" fill="#4B6C89"/>
<rect x="0.5" y="19.5" width="451" height="23" rx="3.5" stroke="#B7C4D0"/>
<path d="M5.32812 6.38525H1.93896V9.15674H5.87598V10H0.907715V2.17969H5.82227V3.02832H1.93896V5.54199H5.32812V6.38525ZM7.93848 4.18848L7.96533 4.83301C8.39144 4.33171 8.96615 4.08105 9.68945 4.08105C10.5023 4.08105 11.0555 4.39258 11.3491 5.01562C11.5425 4.73633 11.7931 4.51074 12.1011 4.33887C12.4126 4.16699 12.7796 4.08105 13.2021 4.08105C14.4769 4.08105 15.125 4.75602 15.1465 6.10596V10H14.1528V6.16504C14.1528 5.74967 14.0579 5.43994 13.8682 5.23584C13.6784 5.02816 13.3597 4.92432 12.9121 4.92432C12.5433 4.92432 12.2371 5.03532 11.9937 5.25732C11.7502 5.47575 11.6087 5.77116 11.5693 6.14355V10H10.5703V6.19189C10.5703 5.34684 10.1567 4.92432 9.32959 4.92432C8.6779 4.92432 8.2321 5.20182 7.99219 5.75684V10H6.99854V4.18848H7.93848ZM21.5596 7.15869C21.5596 8.04313 21.3573 8.7557 20.9526 9.29639C20.548 9.83708 20.0002 10.1074 19.3091 10.1074C18.6037 10.1074 18.0487 9.88363 17.644 9.43604V12.2344H16.6504V4.18848H17.5581L17.6064 4.83301C18.0111 4.33171 18.5732 4.08105 19.293 4.08105C19.9912 4.08105 20.5426 4.34424 20.9473 4.87061C21.3555 5.39697 21.5596 6.12923 21.5596 7.06738V7.15869ZM20.5659 7.0459C20.5659 6.39062 20.4263 5.87321 20.147 5.49365C19.8677 5.1141 19.4845 4.92432 18.9976 4.92432C18.396 4.92432 17.9448 5.19108 17.644 5.72461V8.50146C17.9412 9.03141 18.396 9.29639 19.0083 9.29639C19.4845 9.29639 19.8623 9.1084 20.1416 8.73242C20.4245 8.35286 20.5659 7.79069 20.5659 7.0459ZM24.1753 2.78125V4.18848H25.2603V4.95654H24.1753V8.56055C24.1753 8.79329 24.2236 8.96875 24.3203 9.08691C24.417 9.2015 24.5817 9.25879 24.8145 9.25879C24.929 9.25879 25.0866 9.2373 25.2871 9.19434V10C25.0257 10.0716 24.7715 10.1074 24.5244 10.1074C24.0804 10.1074 23.7456 9.97314 23.52 9.70459C23.2944 9.43604 23.1816 9.05469 23.1816 8.56055V4.95654H22.1235V4.18848H23.1816V2.78125H24.1753ZM28.3271 8.54443L29.6807 4.18848H30.7441L28.4077 10.897C28.0461 11.8638 27.4714 12.3472 26.6836 12.3472L26.4956 12.3311L26.125 12.2612V11.4556L26.3936 11.4771C26.7301 11.4771 26.9915 11.409 27.1777 11.2729C27.3675 11.1369 27.5233 10.888 27.645 10.5264L27.8652 9.93555L25.792 4.18848H26.877L28.3271 8.54443Z" fill="#6F89A1"/>
</svg>
