<svg width="452" height="47" viewBox="0 0 452 47" fill="none" xmlns="http://www.w3.org/2000/svg">
<rect x="0.5" y="19.5" width="451" height="27" rx="3.5" fill="white"/>
<path d="M15.4512 37.1172C14.5918 37.1172 13.8926 36.8359 13.3535 36.2734C12.8145 35.707 12.5449 34.9512 12.5449 34.0059V33.8066C12.5449 33.1777 12.6641 32.6172 12.9023 32.125C13.1445 31.6289 13.4805 31.2422 13.9102 30.9648C14.3438 30.6836 14.8125 30.543 15.3164 30.543C16.1406 30.543 16.7812 30.8145 17.2383 31.3574C17.6953 31.9004 17.9238 32.6777 17.9238 33.6895V34.1406H13.6289C13.6445 34.7656 13.8262 35.2715 14.1738 35.6582C14.5254 36.041 14.9707 36.2324 15.5098 36.2324C15.8926 36.2324 16.2168 36.1543 16.4824 35.998C16.748 35.8418 16.9805 35.6348 17.1797 35.377L17.8418 35.8926C17.3105 36.709 16.5137 37.1172 15.4512 37.1172ZM15.3164 31.4336C14.8789 31.4336 14.5117 31.5938 14.2148 31.9141C13.918 32.2305 13.7344 32.6758 13.6641 33.25H16.8398V33.168C16.8086 32.6172 16.6602 32.1914 16.3945 31.8906C16.1289 31.5859 15.7695 31.4336 15.3164 31.4336ZM19.207 36.4316C19.207 36.2441 19.2617 36.0879 19.3711 35.9629C19.4844 35.8379 19.6523 35.7754 19.875 35.7754C20.0977 35.7754 20.2656 35.8379 20.3789 35.9629C20.4961 36.0879 20.5547 36.2441 20.5547 36.4316C20.5547 36.6113 20.4961 36.7617 20.3789 36.8828C20.2656 37.0039 20.0977 37.0645 19.875 37.0645C19.6523 37.0645 19.4844 37.0039 19.3711 36.8828C19.2617 36.7617 19.207 36.6113 19.207 36.4316ZM22.0898 33.7773C22.0898 32.7891 22.3184 32.0039 22.7754 31.4219C23.2324 30.8359 23.8379 30.543 24.5918 30.543C25.3652 30.543 25.9688 30.8164 26.4023 31.3633L26.4551 30.6602H27.4453V36.8477C27.4453 37.668 27.2012 38.3145 26.7129 38.7871C26.2285 39.2598 25.5762 39.4961 24.7559 39.4961C24.2988 39.4961 23.8516 39.3984 23.4141 39.2031C22.9766 39.0078 22.6426 38.7402 22.4121 38.4004L22.9746 37.75C23.4395 38.3242 24.0078 38.6113 24.6797 38.6113C25.207 38.6113 25.6172 38.4629 25.9102 38.166C26.207 37.8691 26.3555 37.4512 26.3555 36.9121V36.3672C25.9219 36.8672 25.3301 37.1172 24.5801 37.1172C23.8379 37.1172 23.2363 36.8184 22.7754 36.2207C22.3184 35.623 22.0898 34.8086 22.0898 33.7773ZM23.1797 33.9004C23.1797 34.6152 23.3262 35.1777 23.6191 35.5879C23.9121 35.9941 24.3223 36.1973 24.8496 36.1973C25.5332 36.1973 26.0352 35.8867 26.3555 35.2656V32.3711C26.0234 31.7656 25.5254 31.4629 24.8613 31.4629C24.334 31.4629 23.9219 31.668 23.625 32.0781C23.3281 32.4883 23.1797 33.0957 23.1797 33.9004ZM29.1094 36.4316C29.1094 36.2441 29.1641 36.0879 29.2734 35.9629C29.3867 35.8379 29.5547 35.7754 29.7773 35.7754C30 35.7754 30.168 35.8379 30.2812 35.9629C30.3984 36.0879 30.457 36.2441 30.457 36.4316C30.457 36.6113 30.3984 36.7617 30.2812 36.8828C30.168 37.0039 30 37.0645 29.7773 37.0645C29.5547 37.0645 29.3867 37.0039 29.2734 36.8828C29.1641 36.7617 29.1094 36.6113 29.1094 36.4316ZM32.2148 38.6992L31.5996 38.2773C31.9668 37.7656 32.1582 37.2383 32.1738 36.6953V35.7168H33.2344V36.5664C33.2344 36.9609 33.1367 37.3555 32.9414 37.75C32.75 38.1445 32.5078 38.4609 32.2148 38.6992ZM40.2656 33.1973C39.3008 32.9199 38.5977 32.5801 38.1562 32.1777C37.7188 31.7715 37.5 31.2715 37.5 30.6777C37.5 30.0059 37.7676 29.4512 38.3027 29.0137C38.8418 28.5723 39.541 28.3516 40.4004 28.3516C40.9863 28.3516 41.5078 28.4648 41.9648 28.6914C42.4258 28.918 42.7812 29.2305 43.0312 29.6289C43.2852 30.0273 43.4121 30.4629 43.4121 30.9355H42.2812C42.2812 30.4199 42.1172 30.0156 41.7891 29.7227C41.4609 29.4258 40.998 29.2773 40.4004 29.2773C39.8457 29.2773 39.4121 29.4004 39.0996 29.6465C38.791 29.8887 38.6367 30.2266 38.6367 30.6602C38.6367 31.0078 38.7832 31.3027 39.0762 31.5449C39.373 31.7832 39.875 32.002 40.582 32.2012C41.293 32.4004 41.8477 32.6211 42.2461 32.8633C42.6484 33.1016 42.9453 33.3809 43.1367 33.7012C43.332 34.0215 43.4297 34.3984 43.4297 34.832C43.4297 35.5234 43.1602 36.0781 42.6211 36.4961C42.082 36.9102 41.3613 37.1172 40.459 37.1172C39.873 37.1172 39.3262 37.0059 38.8184 36.7832C38.3105 36.5566 37.918 36.248 37.6406 35.8574C37.3672 35.4668 37.2305 35.0234 37.2305 34.5273H38.3613C38.3613 35.043 38.5508 35.4512 38.9297 35.752C39.3125 36.0488 39.8223 36.1973 40.459 36.1973C41.0527 36.1973 41.5078 36.0762 41.8242 35.834C42.1406 35.5918 42.2988 35.2617 42.2988 34.8438C42.2988 34.4258 42.1523 34.1035 41.8594 33.877C41.5664 33.6465 41.0352 33.4199 40.2656 33.1973ZM48.6211 37C48.5586 36.875 48.5078 36.6523 48.4688 36.332C47.9648 36.8555 47.3633 37.1172 46.6641 37.1172C46.0391 37.1172 45.5254 36.9414 45.123 36.5898C44.7246 36.2344 44.5254 35.7852 44.5254 35.2422C44.5254 34.582 44.7754 34.0703 45.2754 33.707C45.7793 33.3398 46.4863 33.1562 47.3965 33.1562H48.4512V32.6582C48.4512 32.2793 48.3379 31.9785 48.1113 31.7559C47.8848 31.5293 47.5508 31.416 47.1094 31.416C46.7227 31.416 46.3984 31.5137 46.1367 31.709C45.875 31.9043 45.7441 32.1406 45.7441 32.418H44.6543C44.6543 32.1016 44.7656 31.7969 44.9883 31.5039C45.2148 31.207 45.5195 30.9727 45.9023 30.8008C46.2891 30.6289 46.7129 30.543 47.1738 30.543C47.9043 30.543 48.4766 30.7266 48.8906 31.0938C49.3047 31.457 49.5195 31.959 49.5352 32.5996V35.5176C49.5352 36.0996 49.6094 36.5625 49.7578 36.9062V37H48.6211ZM46.8223 36.1738C47.1621 36.1738 47.4844 36.0859 47.7891 35.9102C48.0938 35.7344 48.3145 35.5059 48.4512 35.2246V33.9238H47.6016C46.2734 33.9238 45.6094 34.3125 45.6094 35.0898C45.6094 35.4297 45.7227 35.6953 45.9492 35.8867C46.1758 36.0781 46.4668 36.1738 46.8223 36.1738ZM55.1484 36.373C54.7266 36.8691 54.1074 37.1172 53.291 37.1172C52.6152 37.1172 52.0996 36.9219 51.7441 36.5312C51.3926 36.1367 51.2148 35.5547 51.2109 34.7852V30.6602H52.2949V34.7559C52.2949 35.7168 52.6855 36.1973 53.4668 36.1973C54.2949 36.1973 54.8457 35.8887 55.1191 35.2715V30.6602H56.2031V37H55.1719L55.1484 36.373ZM57.5918 33.7773C57.5918 32.8047 57.8223 32.0234 58.2832 31.4336C58.7441 30.8398 59.3477 30.543 60.0938 30.543C60.8359 30.543 61.4238 30.7969 61.8574 31.3047V28H62.9414V37H61.9453L61.8926 36.3203C61.459 36.8516 60.8555 37.1172 60.082 37.1172C59.3477 37.1172 58.748 36.8164 58.2832 36.2148C57.8223 35.6133 57.5918 34.8281 57.5918 33.8594V33.7773ZM58.6758 33.9004C58.6758 34.6191 58.8242 35.1816 59.1211 35.5879C59.418 35.9941 59.8281 36.1973 60.3516 36.1973C61.0391 36.1973 61.541 35.8887 61.8574 35.2715V32.3594C61.5332 31.7617 61.0352 31.4629 60.3633 31.4629C59.832 31.4629 59.418 31.668 59.1211 32.0781C58.8242 32.4883 58.6758 33.0957 58.6758 33.9004ZM65.8066 37H64.7227V30.6602H65.8066V37ZM64.6348 28.9785C64.6348 28.8027 64.6875 28.6543 64.793 28.5332C64.9023 28.4121 65.0625 28.3516 65.2734 28.3516C65.4844 28.3516 65.6445 28.4121 65.7539 28.5332C65.8633 28.6543 65.918 28.8027 65.918 28.9785C65.918 29.1543 65.8633 29.3008 65.7539 29.418C65.6445 29.5352 65.4844 29.5938 65.2734 29.5938C65.0625 29.5938 64.9023 29.5352 64.793 29.418C64.6875 29.3008 64.6348 29.1543 64.6348 28.9785ZM75.4043 34.7734H71.8301L71.0273 37H69.8672L73.125 28.4688H74.1094L77.373 37H76.2188L75.4043 34.7734ZM72.1699 33.8477H75.0703L73.6172 29.8574L72.1699 33.8477ZM81.416 31.6328C81.252 31.6055 81.0742 31.5918 80.8828 31.5918C80.1719 31.5918 79.6895 31.8945 79.4355 32.5V37H78.3516V30.6602H79.4062L79.4238 31.3926C79.7793 30.8262 80.2832 30.543 80.9355 30.543C81.1465 30.543 81.3066 30.5703 81.416 30.625V31.6328ZM86.0977 37C86.0352 36.875 85.9844 36.6523 85.9453 36.332C85.4414 36.8555 84.8398 37.1172 84.1406 37.1172C83.5156 37.1172 83.002 36.9414 82.5996 36.5898C82.2012 36.2344 82.002 35.7852 82.002 35.2422C82.002 34.582 82.252 34.0703 82.752 33.707C83.2559 33.3398 83.9629 33.1562 84.873 33.1562H85.9277V32.6582C85.9277 32.2793 85.8145 31.9785 85.5879 31.7559C85.3613 31.5293 85.0273 31.416 84.5859 31.416C84.1992 31.416 83.875 31.5137 83.6133 31.709C83.3516 31.9043 83.2207 32.1406 83.2207 32.418H82.1309C82.1309 32.1016 82.2422 31.7969 82.4648 31.5039C82.6914 31.207 82.9961 30.9727 83.3789 30.8008C83.7656 30.6289 84.1895 30.543 84.6504 30.543C85.3809 30.543 85.9531 30.7266 86.3672 31.0938C86.7812 31.457 86.9961 31.959 87.0117 32.5996V35.5176C87.0117 36.0996 87.0859 36.5625 87.2344 36.9062V37H86.0977ZM84.2988 36.1738C84.6387 36.1738 84.9609 36.0859 85.2656 35.9102C85.5703 35.7344 85.791 35.5059 85.9277 35.2246V33.9238H85.0781C83.75 33.9238 83.0859 34.3125 83.0859 35.0898C83.0859 35.4297 83.1992 35.6953 83.4258 35.8867C83.6523 36.0781 83.9434 36.1738 84.2988 36.1738ZM94.0781 33.9004C94.0781 34.8691 93.8555 35.6484 93.4102 36.2383C92.9648 36.8242 92.3672 37.1172 91.6172 37.1172C90.8164 37.1172 90.1973 36.834 89.7598 36.2676L89.707 37H88.7109V28H89.7949V31.3574C90.2324 30.8145 90.8359 30.543 91.6055 30.543C92.375 30.543 92.9785 30.834 93.416 31.416C93.8574 31.998 94.0781 32.7949 94.0781 33.8066V33.9004ZM92.9941 33.7773C92.9941 33.0391 92.8516 32.4688 92.5664 32.0664C92.2812 31.6641 91.8711 31.4629 91.3359 31.4629C90.6211 31.4629 90.1074 31.7949 89.7949 32.459V35.2012C90.127 35.8652 90.6445 36.1973 91.3477 36.1973C91.8672 36.1973 92.2715 35.9961 92.5605 35.5938C92.8496 35.1914 92.9941 34.5859 92.9941 33.7773ZM96.627 37H95.543V30.6602H96.627V37ZM95.4551 28.9785C95.4551 28.8027 95.5078 28.6543 95.6133 28.5332C95.7227 28.4121 95.8828 28.3516 96.0938 28.3516C96.3047 28.3516 96.4648 28.4121 96.5742 28.5332C96.6836 28.6543 96.7383 28.8027 96.7383 28.9785C96.7383 29.1543 96.6836 29.3008 96.5742 29.418C96.4648 29.5352 96.3047 29.5938 96.0938 29.5938C95.8828 29.5938 95.7227 29.5352 95.6133 29.418C95.5078 29.3008 95.4551 29.1543 95.4551 28.9785ZM102.281 37C102.219 36.875 102.168 36.6523 102.129 36.332C101.625 36.8555 101.023 37.1172 100.324 37.1172C99.6992 37.1172 99.1855 36.9414 98.7832 36.5898C98.3848 36.2344 98.1855 35.7852 98.1855 35.2422C98.1855 34.582 98.4355 34.0703 98.9355 33.707C99.4395 33.3398 100.146 33.1562 101.057 33.1562H102.111V32.6582C102.111 32.2793 101.998 31.9785 101.771 31.7559C101.545 31.5293 101.211 31.416 100.77 31.416C100.383 31.416 100.059 31.5137 99.7969 31.709C99.5352 31.9043 99.4043 32.1406 99.4043 32.418H98.3145C98.3145 32.1016 98.4258 31.7969 98.6484 31.5039C98.875 31.207 99.1797 30.9727 99.5625 30.8008C99.9492 30.6289 100.373 30.543 100.834 30.543C101.564 30.543 102.137 30.7266 102.551 31.0938C102.965 31.457 103.18 31.959 103.195 32.5996V35.5176C103.195 36.0996 103.27 36.5625 103.418 36.9062V37H102.281ZM100.482 36.1738C100.822 36.1738 101.145 36.0859 101.449 35.9102C101.754 35.7344 101.975 35.5059 102.111 35.2246V33.9238H101.262C99.9336 33.9238 99.2695 34.3125 99.2695 35.0898C99.2695 35.4297 99.3828 35.6953 99.6094 35.8867C99.8359 36.0781 100.127 36.1738 100.482 36.1738Z" fill="#B4B4B4"/>
<path fill-rule="evenodd" clip-rule="evenodd" d="M438.633 31.6402C439.176 30.9889 438.713 30 437.865 30H432.135C431.287 30 430.824 30.9889 431.367 31.6402L434.232 35.0781C434.632 35.5579 435.368 35.5579 435.768 35.0781L438.633 31.6402Z" fill="#4B6C89"/>
<rect x="0.5" y="19.5" width="451" height="27" rx="3.5" stroke="#B7C4D0"/>
<path d="M5.32812 6.38525H1.93896V9.15674H5.87598V10H0.907715V2.17969H5.82227V3.02832H1.93896V5.54199H5.32812V6.38525ZM7.93848 4.18848L7.96533 4.83301C8.39144 4.33171 8.96615 4.08105 9.68945 4.08105C10.5023 4.08105 11.0555 4.39258 11.3491 5.01562C11.5425 4.73633 11.7931 4.51074 12.1011 4.33887C12.4126 4.16699 12.7796 4.08105 13.2021 4.08105C14.4769 4.08105 15.125 4.75602 15.1465 6.10596V10H14.1528V6.16504C14.1528 5.74967 14.0579 5.43994 13.8682 5.23584C13.6784 5.02816 13.3597 4.92432 12.9121 4.92432C12.5433 4.92432 12.2371 5.03532 11.9937 5.25732C11.7502 5.47575 11.6087 5.77116 11.5693 6.14355V10H10.5703V6.19189C10.5703 5.34684 10.1567 4.92432 9.32959 4.92432C8.6779 4.92432 8.2321 5.20182 7.99219 5.75684V10H6.99854V4.18848H7.93848ZM21.5596 7.15869C21.5596 8.04313 21.3573 8.7557 20.9526 9.29639C20.548 9.83708 20.0002 10.1074 19.3091 10.1074C18.6037 10.1074 18.0487 9.88363 17.644 9.43604V12.2344H16.6504V4.18848H17.5581L17.6064 4.83301C18.0111 4.33171 18.5732 4.08105 19.293 4.08105C19.9912 4.08105 20.5426 4.34424 20.9473 4.87061C21.3555 5.39697 21.5596 6.12923 21.5596 7.06738V7.15869ZM20.5659 7.0459C20.5659 6.39062 20.4263 5.87321 20.147 5.49365C19.8677 5.1141 19.4845 4.92432 18.9976 4.92432C18.396 4.92432 17.9448 5.19108 17.644 5.72461V8.50146C17.9412 9.03141 18.396 9.29639 19.0083 9.29639C19.4845 9.29639 19.8623 9.1084 20.1416 8.73242C20.4245 8.35286 20.5659 7.79069 20.5659 7.0459ZM24.1753 2.78125V4.18848H25.2603V4.95654H24.1753V8.56055C24.1753 8.79329 24.2236 8.96875 24.3203 9.08691C24.417 9.2015 24.5817 9.25879 24.8145 9.25879C24.929 9.25879 25.0866 9.2373 25.2871 9.19434V10C25.0257 10.0716 24.7715 10.1074 24.5244 10.1074C24.0804 10.1074 23.7456 9.97314 23.52 9.70459C23.2944 9.43604 23.1816 9.05469 23.1816 8.56055V4.95654H22.1235V4.18848H23.1816V2.78125H24.1753ZM28.3271 8.54443L29.6807 4.18848H30.7441L28.4077 10.897C28.0461 11.8638 27.4714 12.3472 26.6836 12.3472L26.4956 12.3311L26.125 12.2612V11.4556L26.3936 11.4771C26.7301 11.4771 26.9915 11.409 27.1777 11.2729C27.3675 11.1369 27.5233 10.888 27.645 10.5264L27.8652 9.93555L25.792 4.18848H26.877L28.3271 8.54443Z" fill="#6F89A1"/>
</svg>
