<svg width="108" height="24" viewBox="0 0 108 24" fill="none" xmlns="http://www.w3.org/2000/svg">
<path opacity="0.2" fill-rule="evenodd" clip-rule="evenodd" d="M0 8C0 3.58172 3.58172 0 8 0H100C104.418 0 108 3.58172 108 8V16C108 20.4183 104.418 24 100 24H8C3.58172 24 0 20.4183 0 16V8Z" fill="#E95D20"/>
<path d="M40.2749 14.5879H36.4028L35.5332 17H34.2764L37.8057 7.75781H38.8721L42.4077 17H41.1572L40.2749 14.5879ZM36.771 13.585H39.9131L38.3389 9.26221L36.771 13.585ZM49.2822 13.6421C49.2822 14.6916 49.041 15.5358 48.5586 16.1748C48.0762 16.8096 47.4287 17.127 46.6162 17.127C45.7487 17.127 45.078 16.8201 44.604 16.2065L44.5469 17H43.4678V7.25H44.6421V10.8872C45.116 10.299 45.7699 10.0049 46.6035 10.0049C47.4372 10.0049 48.091 10.3201 48.5649 10.9507C49.0431 11.5812 49.2822 12.4445 49.2822 13.5405V13.6421ZM48.1079 13.5088C48.1079 12.709 47.9535 12.0911 47.6445 11.6553C47.3356 11.2194 46.8913 11.0015 46.3115 11.0015C45.5371 11.0015 44.9806 11.3612 44.6421 12.0806V15.0513C45.0018 15.7707 45.5625 16.1304 46.3242 16.1304C46.887 16.1304 47.325 15.9124 47.6382 15.4766C47.9513 15.0407 48.1079 14.3848 48.1079 13.5088ZM54.7666 15.1782C54.7666 14.8608 54.646 14.6154 54.4048 14.4419C54.1678 14.2642 53.751 14.1118 53.1543 13.9849C52.5618 13.8579 52.09 13.7056 51.7388 13.5278C51.3918 13.3501 51.1336 13.1385 50.9644 12.8931C50.7993 12.6476 50.7168 12.3556 50.7168 12.0171C50.7168 11.4543 50.9538 10.9782 51.4277 10.5889C51.9059 10.1995 52.5153 10.0049 53.2559 10.0049C54.0345 10.0049 54.665 10.2059 55.1475 10.6079C55.6341 11.0099 55.8774 11.5241 55.8774 12.1504H54.6968C54.6968 11.8288 54.5592 11.5516 54.2842 11.3188C54.0133 11.0861 53.6706 10.9697 53.2559 10.9697C52.8285 10.9697 52.4941 11.0628 52.2529 11.249C52.0117 11.4352 51.8911 11.6785 51.8911 11.979C51.8911 12.2625 52.0033 12.4762 52.2275 12.6201C52.4518 12.764 52.856 12.9015 53.4399 13.0327C54.0282 13.1639 54.5042 13.3205 54.8682 13.5024C55.2321 13.6844 55.5008 13.9045 55.6743 14.1626C55.8521 14.4165 55.9409 14.7275 55.9409 15.0957C55.9409 15.7093 55.6955 16.2023 55.2046 16.5747C54.7137 16.9429 54.0768 17.127 53.2939 17.127C52.7438 17.127 52.2572 17.0296 51.834 16.835C51.4108 16.6403 51.0786 16.3695 50.8374 16.0225C50.6004 15.6712 50.4819 15.2925 50.4819 14.8862H51.6562C51.6774 15.2798 51.834 15.5929 52.126 15.8257C52.4222 16.0542 52.8115 16.1685 53.2939 16.1685C53.7383 16.1685 54.0938 16.0796 54.3604 15.9019C54.6312 15.7199 54.7666 15.4787 54.7666 15.1782ZM60.3208 17.127C59.3898 17.127 58.6323 16.8223 58.0483 16.2129C57.4644 15.5993 57.1724 14.7804 57.1724 13.7563V13.5405C57.1724 12.8592 57.3014 12.252 57.5596 11.7188C57.8219 11.1813 58.1859 10.7624 58.6514 10.4619C59.1211 10.1572 59.6289 10.0049 60.1748 10.0049C61.0677 10.0049 61.7617 10.299 62.2568 10.8872C62.752 11.4754 62.9995 12.3175 62.9995 13.4136V13.9023H58.3467C58.3636 14.5794 58.5604 15.1274 58.937 15.5464C59.3179 15.9611 59.8003 16.1685 60.3843 16.1685C60.799 16.1685 61.1502 16.0838 61.438 15.9146C61.7257 15.7453 61.9775 15.521 62.1934 15.2417L62.9106 15.8003C62.3351 16.6847 61.4718 17.127 60.3208 17.127ZM60.1748 10.9697C59.7008 10.9697 59.3031 11.1432 58.9814 11.4902C58.6598 11.833 58.4609 12.3154 58.3848 12.9375H61.8252V12.8486C61.7913 12.252 61.6305 11.7907 61.3428 11.4648C61.055 11.1348 60.6657 10.9697 60.1748 10.9697ZM65.4751 10.1318L65.5132 10.9951C66.0379 10.335 66.7235 10.0049 67.5698 10.0049C69.0213 10.0049 69.7534 10.8237 69.7661 12.4614V17H68.5918V12.4551C68.5876 11.96 68.4733 11.5939 68.249 11.3569C68.029 11.12 67.6841 11.0015 67.2144 11.0015C66.8335 11.0015 66.4992 11.103 66.2114 11.3062C65.9237 11.5093 65.6994 11.7759 65.5386 12.106V17H64.3643V10.1318H65.4751ZM73.1304 8.46875V10.1318H74.4126V11.0396H73.1304V15.2988C73.1304 15.5739 73.1875 15.7812 73.3018 15.9209C73.416 16.0563 73.6107 16.124 73.8857 16.124C74.0212 16.124 74.2074 16.0986 74.4443 16.0479V17C74.1354 17.0846 73.835 17.127 73.543 17.127C73.0182 17.127 72.6226 16.9683 72.356 16.6509C72.0894 16.3335 71.9561 15.8828 71.9561 15.2988V11.0396H70.7056V10.1318H71.9561V8.46875H73.1304Z" fill="#606060"/>
</svg>
