<svg width="200" height="24" viewBox="0 0 200 24" fill="none" xmlns="http://www.w3.org/2000/svg">
<path d="M0 4C0 1.79086 1.79086 0 4 0H196C198.209 0 200 1.79086 200 4V20C200 22.2091 198.209 24 196 24H4C1.79086 24 0 22.2091 0 20V4Z" fill="white"/>
<path d="M17.7012 13.7734H14.127L13.3242 16H12.1641L15.4219 7.46875H16.4062L19.6699 16H18.5156L17.7012 13.7734ZM14.4668 12.8477H17.3672L15.9141 8.85742L14.4668 12.8477ZM23.1914 15.2324C23.5781 15.2324 23.916 15.1152 24.2051 14.8809C24.4941 14.6465 24.6543 14.3535 24.6855 14.002H25.7109C25.6914 14.3652 25.5664 14.7109 25.3359 15.0391C25.1055 15.3672 24.7969 15.6289 24.4102 15.8242C24.0273 16.0195 23.6211 16.1172 23.1914 16.1172C22.3281 16.1172 21.6406 15.8301 21.1289 15.2559C20.6211 14.6777 20.3672 13.8887 20.3672 12.8887V12.707C20.3672 12.0898 20.4805 11.541 20.707 11.0605C20.9336 10.5801 21.2578 10.207 21.6797 9.94141C22.1055 9.67578 22.6074 9.54297 23.1855 9.54297C23.8965 9.54297 24.4863 9.75586 24.9551 10.1816C25.4277 10.6074 25.6797 11.1602 25.7109 11.8398H24.6855C24.6543 11.4297 24.498 11.0938 24.2168 10.832C23.9395 10.5664 23.5957 10.4336 23.1855 10.4336C22.6348 10.4336 22.207 10.6328 21.9023 11.0312C21.6016 11.4258 21.4512 11.998 21.4512 12.748V12.9531C21.4512 13.6836 21.6016 14.2461 21.9023 14.6406C22.2031 15.0352 22.6328 15.2324 23.1914 15.2324ZM28.4004 8.125V9.66016H29.584V10.498H28.4004V14.4297C28.4004 14.6836 28.4531 14.875 28.5586 15.0039C28.6641 15.1289 28.8438 15.1914 29.0977 15.1914C29.2227 15.1914 29.3945 15.168 29.6133 15.1211V16C29.3281 16.0781 29.0508 16.1172 28.7812 16.1172C28.2969 16.1172 27.9316 15.9707 27.6855 15.6777C27.4395 15.3848 27.3164 14.9688 27.3164 14.4297V10.498H26.1621V9.66016H27.3164V8.125H28.4004ZM32.0332 16H30.9492V9.66016H32.0332V16ZM30.8613 7.97852C30.8613 7.80273 30.9141 7.6543 31.0195 7.5332C31.1289 7.41211 31.2891 7.35156 31.5 7.35156C31.7109 7.35156 31.8711 7.41211 31.9805 7.5332C32.0898 7.6543 32.1445 7.80273 32.1445 7.97852C32.1445 8.1543 32.0898 8.30078 31.9805 8.41797C31.8711 8.53516 31.7109 8.59375 31.5 8.59375C31.2891 8.59375 31.1289 8.53516 31.0195 8.41797C30.9141 8.30078 30.8613 8.1543 30.8613 7.97852ZM35.8652 14.5293L37.4355 9.66016H38.543L36.2695 16H35.4434L33.1465 9.66016H34.2539L35.8652 14.5293ZM42.1348 16.1172C41.2754 16.1172 40.5762 15.8359 40.0371 15.2734C39.498 14.707 39.2285 13.9512 39.2285 13.0059V12.8066C39.2285 12.1777 39.3477 11.6172 39.5859 11.125C39.8281 10.6289 40.1641 10.2422 40.5938 9.96484C41.0273 9.68359 41.4961 9.54297 42 9.54297C42.8242 9.54297 43.4648 9.81445 43.9219 10.3574C44.3789 10.9004 44.6074 11.6777 44.6074 12.6895V13.1406H40.3125C40.3281 13.7656 40.5098 14.2715 40.8574 14.6582C41.209 15.041 41.6543 15.2324 42.1934 15.2324C42.5762 15.2324 42.9004 15.1543 43.166 14.998C43.4316 14.8418 43.6641 14.6348 43.8633 14.377L44.5254 14.8926C43.9941 15.709 43.1973 16.1172 42.1348 16.1172ZM42 10.4336C41.5625 10.4336 41.1953 10.5938 40.8984 10.9141C40.6016 11.2305 40.418 11.6758 40.3477 12.25H43.5234V12.168C43.4922 11.6172 43.3438 11.1914 43.0781 10.8906C42.8125 10.5859 42.4531 10.4336 42 10.4336Z" fill="#404040"/>
<path d="M4 1H196V-1H4V1ZM199 4V20H201V4H199ZM196 23H4V25H196V23ZM1 20V4H-1V20H1ZM4 23C2.34314 23 1 21.6569 1 20H-1C-1 22.7614 1.23857 25 4 25V23ZM199 20C199 21.6569 197.657 23 196 23V25C198.761 25 201 22.7614 201 20H199ZM196 1C197.657 1 199 2.34314 199 4H201C201 1.23858 198.761 -1 196 -1V1ZM4 -1C1.23858 -1 -1 1.23858 -1 4H1C1 2.34315 2.34315 1 4 1V-1Z" fill="#0371FF"/>
</svg>
