<svg width="200" height="24" viewBox="0 0 200 24" fill="none" xmlns="http://www.w3.org/2000/svg">
<path d="M0 4C0 1.79086 1.79086 0 4 0H196C198.209 0 200 1.79086 200 4V20C200 22.2091 198.209 24 196 24H4C1.79086 24 0 22.2091 0 20V4Z" fill="white"/>
<path d="M19.5469 16H18.416L14.1211 9.42578V16H12.9902V7.46875H14.1211L18.4277 14.0723V7.46875H19.5469V16ZM21.0879 12.7715C21.0879 12.1504 21.209 11.5918 21.4512 11.0957C21.6973 10.5996 22.0371 10.2168 22.4707 9.94727C22.9082 9.67773 23.4062 9.54297 23.9648 9.54297C24.8281 9.54297 25.5254 9.8418 26.0566 10.4395C26.5918 11.0371 26.8594 11.832 26.8594 12.8242V12.9004C26.8594 13.5176 26.7402 14.0723 26.502 14.5645C26.2676 15.0527 25.9297 15.4336 25.4883 15.707C25.0508 15.9805 24.5469 16.1172 23.9766 16.1172C23.1172 16.1172 22.4199 15.8184 21.8848 15.2207C21.3535 14.623 21.0879 13.832 21.0879 12.8477V12.7715ZM22.1777 12.9004C22.1777 13.6035 22.3398 14.168 22.6641 14.5938C22.9922 15.0195 23.4297 15.2324 23.9766 15.2324C24.5273 15.2324 24.9648 15.0176 25.2891 14.5879C25.6133 14.1543 25.7754 13.5488 25.7754 12.7715C25.7754 12.0762 25.6094 11.5137 25.2773 11.084C24.9492 10.6504 24.5117 10.4336 23.9648 10.4336C23.4297 10.4336 22.998 10.6465 22.6699 11.0723C22.3418 11.498 22.1777 12.1074 22.1777 12.9004ZM31.2832 10.6328C31.1191 10.6055 30.9414 10.5918 30.75 10.5918C30.0391 10.5918 29.5566 10.8945 29.3027 11.5V16H28.2188V9.66016H29.2734L29.291 10.3926C29.6465 9.82617 30.1504 9.54297 30.8027 9.54297C31.0137 9.54297 31.1738 9.57031 31.2832 9.625V10.6328ZM33.3047 9.66016L33.334 10.3633C33.7988 9.81641 34.4258 9.54297 35.2148 9.54297C36.1016 9.54297 36.7051 9.88281 37.0254 10.5625C37.2363 10.2578 37.5098 10.0117 37.8457 9.82422C38.1855 9.63672 38.5859 9.54297 39.0469 9.54297C40.4375 9.54297 41.1445 10.2793 41.168 11.752V16H40.084V11.8164C40.084 11.3633 39.9805 11.0254 39.7734 10.8027C39.5664 10.5762 39.2188 10.4629 38.7305 10.4629C38.3281 10.4629 37.9941 10.584 37.7285 10.8262C37.4629 11.0645 37.3086 11.3867 37.2656 11.793V16H36.1758V11.8457C36.1758 10.9238 35.7246 10.4629 34.8223 10.4629C34.1113 10.4629 33.625 10.7656 33.3633 11.3711V16H32.2793V9.66016H33.3047ZM46.7227 16C46.6602 15.875 46.6094 15.6523 46.5703 15.332C46.0664 15.8555 45.4648 16.1172 44.7656 16.1172C44.1406 16.1172 43.627 15.9414 43.2246 15.5898C42.8262 15.2344 42.627 14.7852 42.627 14.2422C42.627 13.582 42.877 13.0703 43.377 12.707C43.8809 12.3398 44.5879 12.1562 45.498 12.1562H46.5527V11.6582C46.5527 11.2793 46.4395 10.9785 46.2129 10.7559C45.9863 10.5293 45.6523 10.416 45.2109 10.416C44.8242 10.416 44.5 10.5137 44.2383 10.709C43.9766 10.9043 43.8457 11.1406 43.8457 11.418H42.7559C42.7559 11.1016 42.8672 10.7969 43.0898 10.5039C43.3164 10.207 43.6211 9.97266 44.0039 9.80078C44.3906 9.62891 44.8145 9.54297 45.2754 9.54297C46.0059 9.54297 46.5781 9.72656 46.9922 10.0938C47.4062 10.457 47.6211 10.959 47.6367 11.5996V14.5176C47.6367 15.0996 47.7109 15.5625 47.8594 15.9062V16H46.7227ZM44.9238 15.1738C45.2637 15.1738 45.5859 15.0859 45.8906 14.9102C46.1953 14.7344 46.416 14.5059 46.5527 14.2246V12.9238H45.7031C44.375 12.9238 43.7109 13.3125 43.7109 14.0898C43.7109 14.4297 43.8242 14.6953 44.0508 14.8867C44.2773 15.0781 44.5684 15.1738 44.9238 15.1738ZM50.5137 16H49.4297V7H50.5137V16Z" fill="#404040"/>
<path d="M4 1H196V-1H4V1ZM199 4V20H201V4H199ZM196 23H4V25H196V23ZM1 20V4H-1V20H1ZM4 23C2.34314 23 1 21.6569 1 20H-1C-1 22.7614 1.23857 25 4 25V23ZM199 20C199 21.6569 197.657 23 196 23V25C198.761 25 201 22.7614 201 20H199ZM196 1C197.657 1 199 2.34314 199 4H201C201 1.23858 198.761 -1 196 -1V1ZM4 -1C1.23858 -1 -1 1.23858 -1 4H1C1 2.34315 2.34315 1 4 1V-1Z" fill="#B7C4D0"/>
</svg>
