<svg width="79" height="36" viewBox="0 0 79 36" fill="none" xmlns="http://www.w3.org/2000/svg">
<path d="M0 18C0 8.05888 8.05887 0 18 0H61C70.9411 0 79 8.05888 79 18C79 27.9411 70.9411 36 61 36H18C8.05888 36 0 27.9411 0 18Z" fill="#005BD1"/>
<path d="M19.1152 17.2646H20.127C20.6374 17.2601 21.0407 17.1279 21.3369 16.8682C21.6377 16.6084 21.7881 16.2324 21.7881 15.7402C21.7881 15.2663 21.6628 14.8994 21.4121 14.6396C21.166 14.3753 20.7878 14.2432 20.2773 14.2432C19.8307 14.2432 19.4639 14.373 19.1768 14.6328C18.8896 14.888 18.7461 15.223 18.7461 15.6377H17.085C17.085 15.1273 17.2194 14.6624 17.4883 14.2432C17.7617 13.8239 18.14 13.498 18.623 13.2656C19.1107 13.0286 19.6553 12.9102 20.2568 12.9102C21.2503 12.9102 22.0296 13.1608 22.5947 13.6621C23.1644 14.1589 23.4492 14.8516 23.4492 15.7402C23.4492 16.1868 23.3057 16.6084 23.0186 17.0049C22.736 17.3968 22.3691 17.693 21.918 17.8936C22.4648 18.0804 22.8796 18.3743 23.1621 18.7754C23.4492 19.1764 23.5928 19.6549 23.5928 20.2109C23.5928 21.1042 23.2852 21.8151 22.6699 22.3438C22.0592 22.8724 21.2549 23.1367 20.2568 23.1367C19.2998 23.1367 18.516 22.8815 17.9053 22.3711C17.2946 21.8607 16.9893 21.1816 16.9893 20.334H18.6504C18.6504 20.7715 18.7962 21.127 19.0879 21.4004C19.3841 21.6738 19.7806 21.8105 20.2773 21.8105C20.7923 21.8105 21.1979 21.6738 21.4941 21.4004C21.7904 21.127 21.9385 20.7305 21.9385 20.2109C21.9385 19.6868 21.7835 19.2835 21.4736 19.001C21.1637 18.7184 20.7035 18.5771 20.0928 18.5771H19.1152V17.2646ZM30.3193 12.999V14.373H30.1143C29.1846 14.3867 28.4417 14.6419 27.8857 15.1387C27.3298 15.6354 26.9993 16.3395 26.8945 17.251C27.4277 16.6904 28.109 16.4102 28.9385 16.4102C29.818 16.4102 30.5107 16.7201 31.0166 17.3398C31.527 17.9596 31.7822 18.7594 31.7822 19.7393C31.7822 20.751 31.4837 21.5713 30.8867 22.2002C30.2943 22.8245 29.515 23.1367 28.5488 23.1367C27.5553 23.1367 26.7487 22.7699 26.1289 22.0361C25.5137 21.3024 25.2061 20.3408 25.2061 19.1514V18.584C25.2061 16.8385 25.6299 15.4714 26.4775 14.4824C27.3298 13.4935 28.5534 12.999 30.1484 12.999H30.3193ZM28.5352 17.75C28.1706 17.75 27.8356 17.8525 27.5303 18.0576C27.2295 18.2627 27.0085 18.5361 26.8672 18.8779V19.3838C26.8672 20.1221 27.0221 20.71 27.332 21.1475C27.6419 21.5804 28.043 21.7969 28.5352 21.7969C29.0273 21.7969 29.417 21.6123 29.7041 21.2432C29.9912 20.874 30.1348 20.3887 30.1348 19.7871C30.1348 19.1855 29.9889 18.6956 29.6973 18.3174C29.4056 17.9391 29.0182 17.75 28.5352 17.75ZM43.6426 14.4414H40.5391V23H38.8232V14.4414H35.7471V13.0469H43.6426V14.4414ZM47.4365 23.1367C46.3838 23.1367 45.5293 22.8063 44.873 22.1455C44.2214 21.4801 43.8955 20.596 43.8955 19.4932V19.2881C43.8955 18.5498 44.0368 17.8913 44.3193 17.3125C44.6064 16.7292 45.0075 16.2757 45.5225 15.9521C46.0374 15.6286 46.6117 15.4668 47.2451 15.4668C48.2523 15.4668 49.0293 15.7881 49.5762 16.4307C50.1276 17.0732 50.4033 17.9824 50.4033 19.1582V19.8281H45.5703C45.6204 20.4388 45.8232 20.9219 46.1787 21.2773C46.5387 21.6328 46.9899 21.8105 47.5322 21.8105C48.2933 21.8105 48.9131 21.5029 49.3916 20.8877L50.2871 21.7422C49.9909 22.1842 49.5944 22.5283 49.0977 22.7744C48.6055 23.016 48.0518 23.1367 47.4365 23.1367ZM47.2383 16.7998C46.7826 16.7998 46.4134 16.9593 46.1309 17.2783C45.8529 17.5973 45.6751 18.0417 45.5977 18.6113H48.7627V18.4883C48.7262 17.9323 48.5781 17.513 48.3184 17.2305C48.0586 16.9434 47.6986 16.7998 47.2383 16.7998ZM54.3545 18.0371L55.7627 15.6035H57.6084L55.3457 19.2471L57.6836 23H55.8516L54.375 20.4707L52.9053 23H51.0596L53.3975 19.2471L51.1416 15.6035H52.9736L54.3545 18.0371ZM60.8213 13.8057V15.6035H62.127V16.834H60.8213V20.9629C60.8213 21.2454 60.876 21.4505 60.9854 21.5781C61.0993 21.7012 61.2998 21.7627 61.5869 21.7627C61.7783 21.7627 61.972 21.7399 62.168 21.6943V22.9795C61.7897 23.0843 61.4251 23.1367 61.0742 23.1367C59.7982 23.1367 59.1602 22.4326 59.1602 21.0244V16.834H57.9434V15.6035H59.1602V13.8057H60.8213Z" fill="white"/>
</svg>
