<svg width="452" height="48" viewBox="0 0 452 48" fill="none" xmlns="http://www.w3.org/2000/svg">
<rect x="0.5" y="20.5" width="451" height="27" rx="3.5" fill="white"/>
<path d="M33.7012 35.7734H30.127L29.3242 38H28.1641L31.4219 29.4688H32.4062L35.6699 38H34.5156L33.7012 35.7734ZM30.4668 34.8477H33.3672L31.9141 30.8574L30.4668 34.8477ZM37.8262 38H36.7422V29H37.8262V38ZM40.7441 38H39.6602V29H40.7441V38ZM45.6309 38V29.4688H48.0391C48.7812 29.4688 49.4375 29.6328 50.0078 29.9609C50.5781 30.2891 51.0176 30.7559 51.3262 31.3613C51.6387 31.9668 51.7969 32.6621 51.8008 33.4473V33.9922C51.8008 34.7969 51.6445 35.502 51.332 36.1074C51.0234 36.7129 50.5801 37.1777 50.002 37.502C49.4277 37.8262 48.7578 37.9922 47.9922 38H45.6309ZM46.7559 30.3945V37.0801H47.9395C48.8066 37.0801 49.4805 36.8105 49.9609 36.2715C50.4453 35.7324 50.6875 34.9648 50.6875 33.9688V33.4707C50.6875 32.502 50.459 31.75 50.002 31.2148C49.5488 30.6758 48.9043 30.4023 48.0684 30.3945H46.7559ZM53.0488 34.7715C53.0488 34.1504 53.1699 33.5918 53.4121 33.0957C53.6582 32.5996 53.998 32.2168 54.4316 31.9473C54.8691 31.6777 55.3672 31.543 55.9258 31.543C56.7891 31.543 57.4863 31.8418 58.0176 32.4395C58.5527 33.0371 58.8203 33.832 58.8203 34.8242V34.9004C58.8203 35.5176 58.7012 36.0723 58.4629 36.5645C58.2285 37.0527 57.8906 37.4336 57.4492 37.707C57.0117 37.9805 56.5078 38.1172 55.9375 38.1172C55.0781 38.1172 54.3809 37.8184 53.8457 37.2207C53.3145 36.623 53.0488 35.832 53.0488 34.8477V34.7715ZM54.1387 34.9004C54.1387 35.6035 54.3008 36.168 54.625 36.5938C54.9531 37.0195 55.3906 37.2324 55.9375 37.2324C56.4883 37.2324 56.9258 37.0176 57.25 36.5879C57.5742 36.1543 57.7363 35.5488 57.7363 34.7715C57.7363 34.0762 57.5703 33.5137 57.2383 33.084C56.9102 32.6504 56.4727 32.4336 55.9258 32.4336C55.3906 32.4336 54.959 32.6465 54.6309 33.0723C54.3027 33.498 54.1387 34.1074 54.1387 34.9004ZM62.7227 37.2324C63.1094 37.2324 63.4473 37.1152 63.7363 36.8809C64.0254 36.6465 64.1855 36.3535 64.2168 36.002H65.2422C65.2227 36.3652 65.0977 36.7109 64.8672 37.0391C64.6367 37.3672 64.3281 37.6289 63.9414 37.8242C63.5586 38.0195 63.1523 38.1172 62.7227 38.1172C61.8594 38.1172 61.1719 37.8301 60.6602 37.2559C60.1523 36.6777 59.8984 35.8887 59.8984 34.8887V34.707C59.8984 34.0898 60.0117 33.541 60.2383 33.0605C60.4648 32.5801 60.7891 32.207 61.2109 31.9414C61.6367 31.6758 62.1387 31.543 62.7168 31.543C63.4277 31.543 64.0176 31.7559 64.4863 32.1816C64.959 32.6074 65.2109 33.1602 65.2422 33.8398H64.2168C64.1855 33.4297 64.0293 33.0938 63.748 32.832C63.4707 32.5664 63.127 32.4336 62.7168 32.4336C62.166 32.4336 61.7383 32.6328 61.4336 33.0312C61.1328 33.4258 60.9824 33.998 60.9824 34.748V34.9531C60.9824 35.6836 61.1328 36.2461 61.4336 36.6406C61.7344 37.0352 62.1641 37.2324 62.7227 37.2324ZM70.375 37.373C69.9531 37.8691 69.334 38.1172 68.5176 38.1172C67.8418 38.1172 67.3262 37.9219 66.9707 37.5312C66.6191 37.1367 66.4414 36.5547 66.4375 35.7852V31.6602H67.5215V35.7559C67.5215 36.7168 67.9121 37.1973 68.6934 37.1973C69.5215 37.1973 70.0723 36.8887 70.3457 36.2715V31.6602H71.4297V38H70.3984L70.375 37.373ZM74.1016 31.6602L74.1309 32.3633C74.5957 31.8164 75.2227 31.543 76.0117 31.543C76.8984 31.543 77.502 31.8828 77.8223 32.5625C78.0332 32.2578 78.3066 32.0117 78.6426 31.8242C78.9824 31.6367 79.3828 31.543 79.8438 31.543C81.2344 31.543 81.9414 32.2793 81.9648 33.752V38H80.8809V33.8164C80.8809 33.3633 80.7773 33.0254 80.5703 32.8027C80.3633 32.5762 80.0156 32.4629 79.5273 32.4629C79.125 32.4629 78.791 32.584 78.5254 32.8262C78.2598 33.0645 78.1055 33.3867 78.0625 33.793V38H76.9727V33.8457C76.9727 32.9238 76.5215 32.4629 75.6191 32.4629C74.9082 32.4629 74.4219 32.7656 74.1602 33.3711V38H73.0762V31.6602H74.1016ZM86.2363 38.1172C85.377 38.1172 84.6777 37.8359 84.1387 37.2734C83.5996 36.707 83.3301 35.9512 83.3301 35.0059V34.8066C83.3301 34.1777 83.4492 33.6172 83.6875 33.125C83.9297 32.6289 84.2656 32.2422 84.6953 31.9648C85.1289 31.6836 85.5977 31.543 86.1016 31.543C86.9258 31.543 87.5664 31.8145 88.0234 32.3574C88.4805 32.9004 88.709 33.6777 88.709 34.6895V35.1406H84.4141C84.4297 35.7656 84.6113 36.2715 84.959 36.6582C85.3105 37.041 85.7559 37.2324 86.2949 37.2324C86.6777 37.2324 87.002 37.1543 87.2676 36.998C87.5332 36.8418 87.7656 36.6348 87.9648 36.377L88.627 36.8926C88.0957 37.709 87.2988 38.1172 86.2363 38.1172ZM86.1016 32.4336C85.6641 32.4336 85.2969 32.5938 85 32.9141C84.7031 33.2305 84.5195 33.6758 84.4492 34.25H87.625V34.168C87.5938 33.6172 87.4453 33.1914 87.1797 32.8906C86.9141 32.5859 86.5547 32.4336 86.1016 32.4336ZM90.9941 31.6602L91.0293 32.457C91.5137 31.8477 92.1465 31.543 92.9277 31.543C94.2676 31.543 94.9434 32.2988 94.9551 33.8105V38H93.8711V33.8047C93.8672 33.3477 93.7617 33.0098 93.5547 32.791C93.3516 32.5723 93.0332 32.4629 92.5996 32.4629C92.248 32.4629 91.9395 32.5566 91.6738 32.7441C91.4082 32.9316 91.2012 33.1777 91.0527 33.4824V38H89.9688V31.6602H90.9941ZM98.0605 30.125V31.6602H99.2441V32.498H98.0605V36.4297C98.0605 36.6836 98.1133 36.875 98.2188 37.0039C98.3242 37.1289 98.5039 37.1914 98.7578 37.1914C98.8828 37.1914 99.0547 37.168 99.2734 37.1211V38C98.9883 38.0781 98.7109 38.1172 98.4414 38.1172C97.957 38.1172 97.5918 37.9707 97.3457 37.6777C97.0996 37.3848 96.9766 36.9688 96.9766 36.4297V32.498H95.8223V31.6602H96.9766V30.125H98.0605ZM104.207 36.3184C104.207 36.0254 104.096 35.7988 103.873 35.6387C103.654 35.4746 103.27 35.334 102.719 35.2168C102.172 35.0996 101.736 34.959 101.412 34.7949C101.092 34.6309 100.854 34.4355 100.697 34.209C100.545 33.9824 100.469 33.7129 100.469 33.4004C100.469 32.8809 100.688 32.4414 101.125 32.082C101.566 31.7227 102.129 31.543 102.812 31.543C103.531 31.543 104.113 31.7285 104.559 32.0996C105.008 32.4707 105.232 32.9453 105.232 33.5234H104.143C104.143 33.2266 104.016 32.9707 103.762 32.7559C103.512 32.541 103.195 32.4336 102.812 32.4336C102.418 32.4336 102.109 32.5195 101.887 32.6914C101.664 32.8633 101.553 33.0879 101.553 33.3652C101.553 33.627 101.656 33.8242 101.863 33.957C102.07 34.0898 102.443 34.2168 102.982 34.3379C103.525 34.459 103.965 34.6035 104.301 34.7715C104.637 34.9395 104.885 35.1426 105.045 35.3809C105.209 35.6152 105.291 35.9023 105.291 36.2422C105.291 36.8086 105.064 37.2637 104.611 37.6074C104.158 37.9473 103.57 38.1172 102.848 38.1172C102.34 38.1172 101.891 38.0273 101.5 37.8477C101.109 37.668 100.803 37.418 100.58 37.0977C100.361 36.7734 100.252 36.4238 100.252 36.0488H101.336C101.355 36.4121 101.5 36.7012 101.77 36.916C102.043 37.127 102.402 37.2324 102.848 37.2324C103.258 37.2324 103.586 37.1504 103.832 36.9863C104.082 36.8184 104.207 36.5957 104.207 36.3184Z" fill="#404040"/>
<path fill-rule="evenodd" clip-rule="evenodd" d="M13 28H23V29V39V40H13V39V29V28ZM21 38V37H15V38H21ZM21 34V35H15V34H21ZM15 32H18V31H15V32Z" fill="#6F89A1"/>
<path fill-rule="evenodd" clip-rule="evenodd" d="M438.633 32.6402C439.176 31.9889 438.713 31 437.865 31H432.135C431.287 31 430.824 31.9889 431.367 32.6402L434.232 36.0781C434.632 36.5579 435.368 36.5579 435.768 36.0781L438.633 32.6402Z" fill="#4B6C89"/>
<rect x="0.5" y="20.5" width="451" height="27" rx="3.5" stroke="#0371FF"/>
<path d="M5.22607 8.95898H1.94971L1.21387 11H0.150391L3.13672 3.17969H4.03906L7.03076 11H5.97266L5.22607 8.95898ZM2.26123 8.11035H4.91992L3.58789 4.45264L2.26123 8.11035ZM10.2588 10.2964C10.6133 10.2964 10.923 10.189 11.188 9.97412C11.453 9.75928 11.5998 9.49072 11.6284 9.16846H12.5684C12.5505 9.50146 12.4359 9.81836 12.2246 10.1191C12.0133 10.4199 11.7305 10.6598 11.376 10.8389C11.0251 11.0179 10.6527 11.1074 10.2588 11.1074C9.46745 11.1074 8.83724 10.8442 8.36816 10.3179C7.90267 9.78792 7.66992 9.06462 7.66992 8.14795V7.98145C7.66992 7.41569 7.77376 6.9126 7.98145 6.47217C8.18913 6.03174 8.48633 5.68978 8.87305 5.44629C9.26335 5.2028 9.72347 5.08105 10.2534 5.08105C10.9051 5.08105 11.4458 5.2762 11.8755 5.6665C12.3088 6.0568 12.5397 6.56348 12.5684 7.18652H11.6284C11.5998 6.81055 11.4565 6.5026 11.1987 6.2627C10.9445 6.01921 10.6294 5.89746 10.2534 5.89746C9.74854 5.89746 9.35645 6.08008 9.07715 6.44531C8.80143 6.80697 8.66357 7.33154 8.66357 8.01904V8.20703C8.66357 8.87663 8.80143 9.39225 9.07715 9.75391C9.35286 10.1156 9.74674 10.2964 10.2588 10.2964ZM15.0337 3.78125V5.18848H16.1187V5.95654H15.0337V9.56055C15.0337 9.79329 15.082 9.96875 15.1787 10.0869C15.2754 10.2015 15.4401 10.2588 15.6729 10.2588C15.7874 10.2588 15.945 10.2373 16.1455 10.1943V11C15.8841 11.0716 15.6299 11.1074 15.3828 11.1074C14.9388 11.1074 14.604 10.9731 14.3784 10.7046C14.1528 10.436 14.04 10.0547 14.04 9.56055V5.95654H12.9819V5.18848H14.04V3.78125H15.0337ZM18.3638 11H17.3701V5.18848H18.3638V11ZM17.2896 3.64697C17.2896 3.48584 17.3379 3.34977 17.4346 3.23877C17.5348 3.12777 17.6816 3.07227 17.875 3.07227C18.0684 3.07227 18.2152 3.12777 18.3154 3.23877C18.4157 3.34977 18.4658 3.48584 18.4658 3.64697C18.4658 3.80811 18.4157 3.94238 18.3154 4.0498C18.2152 4.15723 18.0684 4.21094 17.875 4.21094C17.6816 4.21094 17.5348 4.15723 17.4346 4.0498C17.3379 3.94238 17.2896 3.80811 17.2896 3.64697ZM21.8765 9.65186L23.3159 5.18848H24.3311L22.2471 11H21.4897L19.3843 5.18848H20.3994L21.8765 9.65186ZM27.6235 11.1074C26.8358 11.1074 26.1948 10.8496 25.7007 10.334C25.2065 9.81478 24.9595 9.12191 24.9595 8.25537V8.07275C24.9595 7.49626 25.0687 6.98242 25.2871 6.53125C25.5091 6.0765 25.8171 5.72201 26.2109 5.46777C26.6084 5.20996 27.0381 5.08105 27.5 5.08105C28.2555 5.08105 28.8428 5.32992 29.2617 5.82764C29.6807 6.32536 29.8901 7.03792 29.8901 7.96533V8.37891H25.9531C25.9674 8.95182 26.134 9.41553 26.4526 9.77002C26.7749 10.1209 27.1831 10.2964 27.6772 10.2964C28.0282 10.2964 28.3254 10.2248 28.5688 10.0815C28.8123 9.93831 29.0254 9.74854 29.208 9.51221L29.8149 9.98486C29.328 10.7332 28.5975 11.1074 27.6235 11.1074ZM27.5 5.89746C27.099 5.89746 26.7624 6.04427 26.4902 6.33789C26.2181 6.62793 26.0498 7.03613 25.9854 7.5625H28.8965V7.4873C28.8678 6.98242 28.7318 6.59212 28.4883 6.31641C28.2448 6.03711 27.9154 5.89746 27.5 5.89746Z" fill="#6F89A1"/>
</svg>
