<svg width="322" height="28" viewBox="0 0 322 28" fill="none" xmlns="http://www.w3.org/2000/svg">
<path d="M0 14C0 6.26801 6.26801 0 14 0H308C315.732 0 322 6.26801 322 14V14C322 21.732 315.732 28 308 28H14C6.26801 28 0 21.732 0 14V14Z" fill="white"/>
<path fill-rule="evenodd" clip-rule="evenodd" d="M63.1822 15.7705L64.7197 17.308C65.0981 17.6998 65.0927 18.3225 64.7076 18.7076C64.3225 19.0927 63.6998 19.0981 63.308 18.7197L61.7705 17.1822C59.6266 18.6012 56.7563 18.1659 55.1296 16.1749C53.5029 14.1839 53.6486 11.2845 55.4665 9.46653C57.2845 7.64856 60.1839 7.50294 62.1749 9.12963C64.1659 10.7563 64.6012 13.6266 63.1822 15.7705ZM59.022 10.0268C57.3678 10.0268 56.0268 11.3678 56.0268 13.022C56.0268 14.6761 57.3678 16.0171 59.022 16.0171C60.6761 16.0171 62.0171 14.6761 62.0171 13.022C62.0171 11.3678 60.6761 10.0268 59.022 10.0268Z" fill="#93A7B8"/>
<path d="M76.0879 14.5635C74.9622 14.2399 74.1419 13.8434 73.627 13.374C73.1165 12.9001 72.8613 12.3167 72.8613 11.624C72.8613 10.8402 73.1735 10.193 73.7979 9.68262C74.4268 9.16764 75.2425 8.91016 76.2451 8.91016C76.9287 8.91016 77.5371 9.04232 78.0703 9.30664C78.6081 9.57096 79.0228 9.93555 79.3145 10.4004C79.6107 10.8652 79.7588 11.3734 79.7588 11.9248H78.4395C78.4395 11.3232 78.248 10.8516 77.8652 10.5098C77.4824 10.1634 76.9424 9.99023 76.2451 9.99023C75.598 9.99023 75.0921 10.1338 74.7275 10.4209C74.3675 10.7035 74.1875 11.0977 74.1875 11.6035C74.1875 12.0091 74.3584 12.3532 74.7002 12.6357C75.0465 12.9137 75.6322 13.1689 76.457 13.4014C77.2865 13.6338 77.9336 13.8913 78.3984 14.1738C78.8678 14.4518 79.2142 14.7777 79.4375 15.1514C79.6654 15.5251 79.7793 15.9648 79.7793 16.4707C79.7793 17.2773 79.4648 17.9245 78.8359 18.4121C78.207 18.8952 77.3662 19.1367 76.3135 19.1367C75.6299 19.1367 74.9919 19.0068 74.3994 18.7471C73.807 18.4827 73.349 18.1227 73.0254 17.667C72.7064 17.2113 72.5469 16.694 72.5469 16.1152H73.8662C73.8662 16.7168 74.0872 17.193 74.5293 17.5439C74.9759 17.8903 75.5706 18.0635 76.3135 18.0635C77.0062 18.0635 77.5371 17.9222 77.9062 17.6396C78.2754 17.3571 78.46 16.972 78.46 16.4844C78.46 15.9967 78.2891 15.6208 77.9473 15.3564C77.6055 15.0876 76.9857 14.8232 76.0879 14.5635ZM84.3389 19.1367C83.3363 19.1367 82.5205 18.8086 81.8916 18.1523C81.2627 17.4915 80.9482 16.6097 80.9482 15.5068V15.2744C80.9482 14.5407 81.0872 13.8867 81.3652 13.3125C81.6478 12.7337 82.0397 12.2826 82.541 11.959C83.0469 11.6309 83.5938 11.4668 84.1816 11.4668C85.1432 11.4668 85.8906 11.7835 86.4238 12.417C86.957 13.0505 87.2236 13.9574 87.2236 15.1377V15.6641H82.2129C82.2311 16.3932 82.443 16.9834 82.8486 17.4346C83.2588 17.8812 83.7783 18.1045 84.4072 18.1045C84.8538 18.1045 85.2321 18.0133 85.542 17.8311C85.8519 17.6488 86.123 17.4072 86.3555 17.1064L87.1279 17.708C86.5081 18.6605 85.5785 19.1367 84.3389 19.1367ZM84.1816 12.5059C83.6712 12.5059 83.2428 12.6927 82.8965 13.0664C82.5501 13.4355 82.3359 13.9551 82.2539 14.625H85.959V14.5293C85.9225 13.8867 85.7493 13.39 85.4395 13.0391C85.1296 12.6836 84.7103 12.5059 84.1816 12.5059ZM93.2598 19C93.1868 18.8542 93.1276 18.5944 93.082 18.2207C92.4941 18.8314 91.7923 19.1367 90.9766 19.1367C90.2474 19.1367 89.6481 18.9316 89.1787 18.5215C88.7139 18.1068 88.4814 17.5827 88.4814 16.9492C88.4814 16.179 88.7731 15.582 89.3564 15.1582C89.9443 14.7298 90.7692 14.5156 91.8311 14.5156H93.0615V13.9346C93.0615 13.4925 92.9294 13.1416 92.665 12.8818C92.4007 12.6175 92.0111 12.4854 91.4961 12.4854C91.0449 12.4854 90.6667 12.5993 90.3613 12.8271C90.056 13.055 89.9033 13.3307 89.9033 13.6543H88.6318C88.6318 13.2852 88.7617 12.9297 89.0215 12.5879C89.2858 12.2415 89.6413 11.9681 90.0879 11.7676C90.5391 11.5671 91.0335 11.4668 91.5713 11.4668C92.4235 11.4668 93.0911 11.681 93.5742 12.1094C94.0573 12.5332 94.3079 13.1188 94.3262 13.8662V17.2705C94.3262 17.9495 94.4128 18.4896 94.5859 18.8906V19H93.2598ZM91.1611 18.0361C91.5576 18.0361 91.9336 17.9336 92.2891 17.7285C92.6445 17.5234 92.902 17.2568 93.0615 16.9287V15.4111H92.0703C90.5208 15.4111 89.7461 15.8646 89.7461 16.7715C89.7461 17.168 89.8783 17.4779 90.1426 17.7012C90.4069 17.9245 90.7464 18.0361 91.1611 18.0361ZM99.8838 12.7383C99.6924 12.7064 99.485 12.6904 99.2617 12.6904C98.4323 12.6904 97.8695 13.0436 97.5732 13.75V19H96.3086V11.6035H97.5391L97.5596 12.458C97.9743 11.7972 98.5622 11.4668 99.3232 11.4668C99.5693 11.4668 99.7562 11.4987 99.8838 11.5625V12.7383ZM103.883 18.1045C104.334 18.1045 104.728 17.9678 105.065 17.6943C105.403 17.4209 105.59 17.0791 105.626 16.6689H106.822C106.799 17.0928 106.654 17.4961 106.385 17.8789C106.116 18.2617 105.756 18.5671 105.305 18.7949C104.858 19.0228 104.384 19.1367 103.883 19.1367C102.876 19.1367 102.074 18.8018 101.477 18.1318C100.884 17.4574 100.588 16.5368 100.588 15.3701V15.1582C100.588 14.4382 100.72 13.7979 100.984 13.2373C101.249 12.6768 101.627 12.2415 102.119 11.9316C102.616 11.6217 103.201 11.4668 103.876 11.4668C104.705 11.4668 105.394 11.7152 105.94 12.2119C106.492 12.7087 106.786 13.3535 106.822 14.1465H105.626C105.59 13.668 105.407 13.276 105.079 12.9707C104.756 12.6608 104.354 12.5059 103.876 12.5059C103.233 12.5059 102.734 12.7383 102.379 13.2031C102.028 13.6634 101.853 14.3311 101.853 15.2061V15.4453C101.853 16.2975 102.028 16.9538 102.379 17.4141C102.73 17.8743 103.231 18.1045 103.883 18.1045ZM109.509 12.499C110.069 11.8109 110.799 11.4668 111.696 11.4668C113.259 11.4668 114.048 12.3486 114.062 14.1123V19H112.797V14.1055C112.792 13.5723 112.669 13.1781 112.428 12.9229C112.191 12.6676 111.819 12.54 111.313 12.54C110.903 12.54 110.543 12.6494 110.233 12.8682C109.924 13.0869 109.682 13.374 109.509 13.7295V19H108.244V8.5H109.509V12.499ZM125.689 15.3838C125.689 16.514 125.43 17.4232 124.91 18.1113C124.391 18.7949 123.693 19.1367 122.818 19.1367C121.884 19.1367 121.162 18.8063 120.651 18.1455L120.59 19H119.428V8.5H120.692V12.417C121.203 11.7835 121.907 11.4668 122.805 11.4668C123.702 11.4668 124.407 11.8063 124.917 12.4854C125.432 13.1644 125.689 14.0941 125.689 15.2744V15.3838ZM124.425 15.2402C124.425 14.3789 124.258 13.7135 123.926 13.2441C123.593 12.7747 123.115 12.54 122.49 12.54C121.656 12.54 121.057 12.9274 120.692 13.7021V16.9014C121.08 17.6761 121.684 18.0635 122.504 18.0635C123.11 18.0635 123.582 17.8288 123.919 17.3594C124.256 16.89 124.425 16.1836 124.425 15.2402ZM129.627 17.1475L131.35 11.6035H132.703L129.729 20.1416C129.269 21.3721 128.538 21.9873 127.535 21.9873L127.296 21.9668L126.824 21.8779V20.8525L127.166 20.8799C127.594 20.8799 127.927 20.7933 128.164 20.6201C128.406 20.4469 128.604 20.1302 128.759 19.6699L129.039 18.918L126.4 11.6035H127.781L129.627 17.1475ZM140.38 19.1367C139.377 19.1367 138.562 18.8086 137.933 18.1523C137.304 17.4915 136.989 16.6097 136.989 15.5068V15.2744C136.989 14.5407 137.128 13.8867 137.406 13.3125C137.689 12.7337 138.081 12.2826 138.582 11.959C139.088 11.6309 139.635 11.4668 140.223 11.4668C141.184 11.4668 141.932 11.7835 142.465 12.417C142.998 13.0505 143.265 13.9574 143.265 15.1377V15.6641H138.254C138.272 16.3932 138.484 16.9834 138.89 17.4346C139.3 17.8812 139.819 18.1045 140.448 18.1045C140.895 18.1045 141.273 18.0133 141.583 17.8311C141.893 17.6488 142.164 17.4072 142.396 17.1064L143.169 17.708C142.549 18.6605 141.619 19.1367 140.38 19.1367ZM140.223 12.5059C139.712 12.5059 139.284 12.6927 138.938 13.0664C138.591 13.4355 138.377 13.9551 138.295 14.625H142V14.5293C141.964 13.8867 141.79 13.39 141.48 13.0391C141.171 12.6836 140.751 12.5059 140.223 12.5059ZM145.924 11.6035L145.958 12.4238C146.5 11.7858 147.232 11.4668 148.152 11.4668C149.187 11.4668 149.891 11.8633 150.265 12.6562C150.511 12.3008 150.83 12.0137 151.222 11.7949C151.618 11.5762 152.085 11.4668 152.623 11.4668C154.245 11.4668 155.07 12.3258 155.098 14.0439V19H153.833V14.1191C153.833 13.5905 153.712 13.1963 153.471 12.9365C153.229 12.6722 152.824 12.54 152.254 12.54C151.785 12.54 151.395 12.6813 151.085 12.9639C150.775 13.2419 150.595 13.6178 150.545 14.0918V19H149.273V14.1533C149.273 13.0778 148.747 12.54 147.694 12.54C146.865 12.54 146.298 12.8932 145.992 13.5996V19H144.728V11.6035H145.924ZM163.26 15.3838C163.26 16.5094 163.002 17.4163 162.487 18.1045C161.972 18.7926 161.275 19.1367 160.396 19.1367C159.498 19.1367 158.791 18.8519 158.276 18.2822V21.8438H157.012V11.6035H158.167L158.229 12.4238C158.743 11.7858 159.459 11.4668 160.375 11.4668C161.264 11.4668 161.965 11.8018 162.48 12.4717C163 13.1416 163.26 14.0736 163.26 15.2676V15.3838ZM161.995 15.2402C161.995 14.4062 161.817 13.7477 161.462 13.2646C161.106 12.7816 160.619 12.54 159.999 12.54C159.233 12.54 158.659 12.8796 158.276 13.5586V17.0928C158.655 17.7673 159.233 18.1045 160.013 18.1045C160.619 18.1045 161.1 17.8652 161.455 17.3867C161.815 16.9036 161.995 16.1882 161.995 15.2402ZM166.247 19H164.982V8.5H166.247V19ZM167.942 15.2334C167.942 14.5088 168.084 13.8571 168.366 13.2783C168.653 12.6995 169.05 12.2529 169.556 11.9385C170.066 11.624 170.647 11.4668 171.299 11.4668C172.306 11.4668 173.119 11.8154 173.739 12.5127C174.364 13.21 174.676 14.1374 174.676 15.2949V15.3838C174.676 16.1038 174.537 16.751 174.259 17.3252C173.985 17.8949 173.591 18.3392 173.076 18.6582C172.566 18.9772 171.978 19.1367 171.312 19.1367C170.31 19.1367 169.496 18.7881 168.872 18.0908C168.252 17.3936 167.942 16.4707 167.942 15.3223V15.2334ZM169.214 15.3838C169.214 16.2041 169.403 16.8626 169.781 17.3594C170.164 17.8561 170.674 18.1045 171.312 18.1045C171.955 18.1045 172.465 17.8538 172.844 17.3525C173.222 16.8467 173.411 16.1403 173.411 15.2334C173.411 14.4222 173.217 13.766 172.83 13.2646C172.447 12.7588 171.937 12.5059 171.299 12.5059C170.674 12.5059 170.171 12.7542 169.788 13.251C169.405 13.7477 169.214 14.4587 169.214 15.3838ZM178.572 17.1475L180.295 11.6035H181.648L178.675 20.1416C178.215 21.3721 177.483 21.9873 176.48 21.9873L176.241 21.9668L175.77 21.8779V20.8525L176.111 20.8799C176.54 20.8799 176.872 20.7933 177.109 20.6201C177.351 20.4469 177.549 20.1302 177.704 19.6699L177.984 18.918L175.346 11.6035H176.727L178.572 17.1475ZM185.757 19.1367C184.754 19.1367 183.938 18.8086 183.31 18.1523C182.681 17.4915 182.366 16.6097 182.366 15.5068V15.2744C182.366 14.5407 182.505 13.8867 182.783 13.3125C183.066 12.7337 183.458 12.2826 183.959 11.959C184.465 11.6309 185.012 11.4668 185.6 11.4668C186.561 11.4668 187.309 11.7835 187.842 12.417C188.375 13.0505 188.642 13.9574 188.642 15.1377V15.6641H183.631C183.649 16.3932 183.861 16.9834 184.267 17.4346C184.677 17.8812 185.196 18.1045 185.825 18.1045C186.272 18.1045 186.65 18.0133 186.96 17.8311C187.27 17.6488 187.541 17.4072 187.773 17.1064L188.546 17.708C187.926 18.6605 186.996 19.1367 185.757 19.1367ZM185.6 12.5059C185.089 12.5059 184.661 12.6927 184.314 13.0664C183.968 13.4355 183.754 13.9551 183.672 14.625H187.377V14.5293C187.34 13.8867 187.167 13.39 186.857 13.0391C186.548 12.6836 186.128 12.5059 185.6 12.5059ZM193.181 19.1367C192.178 19.1367 191.362 18.8086 190.733 18.1523C190.104 17.4915 189.79 16.6097 189.79 15.5068V15.2744C189.79 14.5407 189.929 13.8867 190.207 13.3125C190.49 12.7337 190.882 12.2826 191.383 11.959C191.889 11.6309 192.436 11.4668 193.023 11.4668C193.985 11.4668 194.732 11.7835 195.266 12.417C195.799 13.0505 196.065 13.9574 196.065 15.1377V15.6641H191.055C191.073 16.3932 191.285 16.9834 191.69 17.4346C192.101 17.8812 192.62 18.1045 193.249 18.1045C193.696 18.1045 194.074 18.0133 194.384 17.8311C194.694 17.6488 194.965 17.4072 195.197 17.1064L195.97 17.708C195.35 18.6605 194.42 19.1367 193.181 19.1367ZM193.023 12.5059C192.513 12.5059 192.085 12.6927 191.738 13.0664C191.392 13.4355 191.178 13.9551 191.096 14.625H194.801V14.5293C194.764 13.8867 194.591 13.39 194.281 13.0391C193.971 12.6836 193.552 12.5059 193.023 12.5059ZM202.614 19H201.302V9.04688H202.614V19ZM205.021 19V9.04688H207.83C208.696 9.04688 209.462 9.23828 210.127 9.62109C210.792 10.0039 211.305 10.5485 211.665 11.2549C212.03 11.9613 212.214 12.7725 212.219 13.6885V14.3242C212.219 15.263 212.036 16.0856 211.672 16.792C211.312 17.4984 210.795 18.0407 210.12 18.4189C209.45 18.7972 208.669 18.9909 207.775 19H205.021ZM206.333 10.127V17.9268H207.714C208.726 17.9268 209.512 17.6123 210.072 16.9834C210.637 16.3545 210.92 15.459 210.92 14.2969V13.7158C210.92 12.5856 210.653 11.7083 210.12 11.084C209.591 10.4551 208.84 10.1361 207.864 10.127H206.333ZM217.147 15.2334C217.147 14.5088 217.289 13.8571 217.571 13.2783C217.858 12.6995 218.255 12.2529 218.761 11.9385C219.271 11.624 219.852 11.4668 220.504 11.4668C221.511 11.4668 222.325 11.8154 222.944 12.5127C223.569 13.21 223.881 14.1374 223.881 15.2949V15.3838C223.881 16.1038 223.742 16.751 223.464 17.3252C223.19 17.8949 222.796 18.3392 222.281 18.6582C221.771 18.9772 221.183 19.1367 220.518 19.1367C219.515 19.1367 218.701 18.7881 218.077 18.0908C217.457 17.3936 217.147 16.4707 217.147 15.3223V15.2334ZM218.419 15.3838C218.419 16.2041 218.608 16.8626 218.986 17.3594C219.369 17.8561 219.88 18.1045 220.518 18.1045C221.16 18.1045 221.671 17.8538 222.049 17.3525C222.427 16.8467 222.616 16.1403 222.616 15.2334C222.616 14.4222 222.423 13.766 222.035 13.2646C221.652 12.7588 221.142 12.5059 220.504 12.5059C219.88 12.5059 219.376 12.7542 218.993 13.251C218.61 13.7477 218.419 14.4587 218.419 15.3838ZM229.042 12.7383C228.851 12.7064 228.643 12.6904 228.42 12.6904C227.59 12.6904 227.028 13.0436 226.731 13.75V19H225.467V11.6035H226.697L226.718 12.458C227.132 11.7972 227.72 11.4668 228.481 11.4668C228.728 11.4668 228.914 11.4987 229.042 11.5625V12.7383ZM234.88 11.6035L234.921 12.5332C235.486 11.8223 236.224 11.4668 237.136 11.4668C238.699 11.4668 239.487 12.3486 239.501 14.1123V19H238.236V14.1055C238.232 13.5723 238.109 13.1781 237.867 12.9229C237.63 12.6676 237.259 12.54 236.753 12.54C236.343 12.54 235.983 12.6494 235.673 12.8682C235.363 13.0869 235.121 13.374 234.948 13.7295V19H233.684V11.6035H234.88ZM245.975 19C245.902 18.8542 245.842 18.5944 245.797 18.2207C245.209 18.8314 244.507 19.1367 243.691 19.1367C242.962 19.1367 242.363 18.9316 241.894 18.5215C241.429 18.1068 241.196 17.5827 241.196 16.9492C241.196 16.179 241.488 15.582 242.071 15.1582C242.659 14.7298 243.484 14.5156 244.546 14.5156H245.776V13.9346C245.776 13.4925 245.644 13.1416 245.38 12.8818C245.116 12.6175 244.726 12.4854 244.211 12.4854C243.76 12.4854 243.382 12.5993 243.076 12.8271C242.771 13.055 242.618 13.3307 242.618 13.6543H241.347C241.347 13.2852 241.477 12.9297 241.736 12.5879C242.001 12.2415 242.356 11.9681 242.803 11.7676C243.254 11.5671 243.748 11.4668 244.286 11.4668C245.138 11.4668 245.806 11.681 246.289 12.1094C246.772 12.5332 247.023 13.1188 247.041 13.8662V17.2705C247.041 17.9495 247.128 18.4896 247.301 18.8906V19H245.975ZM243.876 18.0361C244.272 18.0361 244.648 17.9336 245.004 17.7285C245.359 17.5234 245.617 17.2568 245.776 16.9287V15.4111H244.785C243.236 15.4111 242.461 15.8646 242.461 16.7715C242.461 17.168 242.593 17.4779 242.857 17.7012C243.122 17.9245 243.461 18.0361 243.876 18.0361ZM250.213 11.6035L250.247 12.4238C250.789 11.7858 251.521 11.4668 252.441 11.4668C253.476 11.4668 254.18 11.8633 254.554 12.6562C254.8 12.3008 255.119 12.0137 255.511 11.7949C255.907 11.5762 256.374 11.4668 256.912 11.4668C258.535 11.4668 259.359 12.3258 259.387 14.0439V19H258.122V14.1191C258.122 13.5905 258.001 13.1963 257.76 12.9365C257.518 12.6722 257.113 12.54 256.543 12.54C256.074 12.54 255.684 12.6813 255.374 12.9639C255.064 13.2419 254.884 13.6178 254.834 14.0918V19H253.562V14.1533C253.562 13.0778 253.036 12.54 251.983 12.54C251.154 12.54 250.587 12.8932 250.281 13.5996V19H249.017V11.6035H250.213ZM264.37 19.1367C263.368 19.1367 262.552 18.8086 261.923 18.1523C261.294 17.4915 260.979 16.6097 260.979 15.5068V15.2744C260.979 14.5407 261.118 13.8867 261.396 13.3125C261.679 12.7337 262.071 12.2826 262.572 11.959C263.078 11.6309 263.625 11.4668 264.213 11.4668C265.174 11.4668 265.922 11.7835 266.455 12.417C266.988 13.0505 267.255 13.9574 267.255 15.1377V15.6641H262.244C262.262 16.3932 262.474 16.9834 262.88 17.4346C263.29 17.8812 263.81 18.1045 264.438 18.1045C264.885 18.1045 265.263 18.0133 265.573 17.8311C265.883 17.6488 266.154 17.4072 266.387 17.1064L267.159 17.708C266.539 18.6605 265.61 19.1367 264.37 19.1367ZM264.213 12.5059C263.702 12.5059 263.274 12.6927 262.928 13.0664C262.581 13.4355 262.367 13.9551 262.285 14.625H265.99V14.5293C265.954 13.8867 265.781 13.39 265.471 13.0391C265.161 12.6836 264.742 12.5059 264.213 12.5059Z" fill="#93A7B8"/>
<path d="M14 1H308V-1H14V1ZM308 27H14V29H308V27ZM14 27C6.8203 27 1 21.1797 1 14H-1C-1 22.2843 5.71573 29 14 29V27ZM321 14C321 21.1797 315.18 27 308 27V29C316.284 29 323 22.2843 323 14H321ZM308 1C315.18 1 321 6.8203 321 14H323C323 5.71573 316.284 -1 308 -1V1ZM14 -1C5.71573 -1 -1 5.71573 -1 14H1C1 6.8203 6.8203 1 14 1V-1Z" fill="#B7C4D0"/>
</svg>
