<svg width="200" height="28" viewBox="0 0 200 28" fill="none" xmlns="http://www.w3.org/2000/svg">
<rect x="0.5" y="0.5" width="199" height="27" rx="3.5" fill="white"/>
<path d="M19.5469 18H18.416V14.0566H14.1152V18H12.9902V9.46875H14.1152V13.1367H18.416V9.46875H19.5469V18ZM21.0879 14.7715C21.0879 14.1504 21.209 13.5918 21.4512 13.0957C21.6973 12.5996 22.0371 12.2168 22.4707 11.9473C22.9082 11.6777 23.4062 11.543 23.9648 11.543C24.8281 11.543 25.5254 11.8418 26.0566 12.4395C26.5918 13.0371 26.8594 13.832 26.8594 14.8242V14.9004C26.8594 15.5176 26.7402 16.0723 26.502 16.5645C26.2676 17.0527 25.9297 17.4336 25.4883 17.707C25.0508 17.9805 24.5469 18.1172 23.9766 18.1172C23.1172 18.1172 22.4199 17.8184 21.8848 17.2207C21.3535 16.623 21.0879 15.832 21.0879 14.8477V14.7715ZM22.1777 14.9004C22.1777 15.6035 22.3398 16.168 22.6641 16.5938C22.9922 17.0195 23.4297 17.2324 23.9766 17.2324C24.5273 17.2324 24.9648 17.0176 25.2891 16.5879C25.6133 16.1543 25.7754 15.5488 25.7754 14.7715C25.7754 14.0762 25.6094 13.5137 25.2773 13.084C24.9492 12.6504 24.5117 12.4336 23.9648 12.4336C23.4297 12.4336 22.998 12.6465 22.6699 13.0723C22.3418 13.498 22.1777 14.1074 22.1777 14.9004ZM30.2168 16.5293L31.7871 11.6602H32.8945L30.6211 18H29.7949L27.498 11.6602H28.6055L30.2168 16.5293ZM36.4863 18.1172C35.627 18.1172 34.9277 17.8359 34.3887 17.2734C33.8496 16.707 33.5801 15.9512 33.5801 15.0059V14.8066C33.5801 14.1777 33.6992 13.6172 33.9375 13.125C34.1797 12.6289 34.5156 12.2422 34.9453 11.9648C35.3789 11.6836 35.8477 11.543 36.3516 11.543C37.1758 11.543 37.8164 11.8145 38.2734 12.3574C38.7305 12.9004 38.959 13.6777 38.959 14.6895V15.1406H34.6641C34.6797 15.7656 34.8613 16.2715 35.209 16.6582C35.5605 17.041 36.0059 17.2324 36.5449 17.2324C36.9277 17.2324 37.252 17.1543 37.5176 16.998C37.7832 16.8418 38.0156 16.6348 38.2148 16.377L38.877 16.8926C38.3457 17.709 37.5488 18.1172 36.4863 18.1172ZM36.3516 12.4336C35.9141 12.4336 35.5469 12.5938 35.25 12.9141C34.9531 13.2305 34.7695 13.6758 34.6992 14.25H37.875V14.168C37.8438 13.6172 37.6953 13.1914 37.4297 12.8906C37.1641 12.5859 36.8047 12.4336 36.3516 12.4336ZM43.2832 12.6328C43.1191 12.6055 42.9414 12.5918 42.75 12.5918C42.0391 12.5918 41.5566 12.8945 41.3027 13.5V18H40.2188V11.6602H41.2734L41.291 12.3926C41.6465 11.8262 42.1504 11.543 42.8027 11.543C43.0137 11.543 43.1738 11.5703 43.2832 11.625V12.6328Z" fill="#404040"/>
<rect x="0.5" y="0.5" width="199" height="27" rx="3.5" stroke="#93A7B8"/>
</svg>
