<svg width="452" height="47" viewBox="0 0 452 47" fill="none" xmlns="http://www.w3.org/2000/svg">
<rect x="0.5" y="19.5" width="451" height="27" rx="3.5" fill="white" stroke="#B7C4D0"/>
<path d="M15.4512 37.1172C14.5918 37.1172 13.8926 36.8359 13.3535 36.2734C12.8145 35.707 12.5449 34.9512 12.5449 34.0059V33.8066C12.5449 33.1777 12.6641 32.6172 12.9023 32.125C13.1445 31.6289 13.4805 31.2422 13.9102 30.9648C14.3438 30.6836 14.8125 30.543 15.3164 30.543C16.1406 30.543 16.7812 30.8145 17.2383 31.3574C17.6953 31.9004 17.9238 32.6777 17.9238 33.6895V34.1406H13.6289C13.6445 34.7656 13.8262 35.2715 14.1738 35.6582C14.5254 36.041 14.9707 36.2324 15.5098 36.2324C15.8926 36.2324 16.2168 36.1543 16.4824 35.998C16.748 35.8418 16.9805 35.6348 17.1797 35.377L17.8418 35.8926C17.3105 36.709 16.5137 37.1172 15.4512 37.1172ZM15.3164 31.4336C14.8789 31.4336 14.5117 31.5938 14.2148 31.9141C13.918 32.2305 13.7344 32.6758 13.6641 33.25H16.8398V33.168C16.8086 32.6172 16.6602 32.1914 16.3945 31.8906C16.1289 31.5859 15.7695 31.4336 15.3164 31.4336ZM19.207 36.4316C19.207 36.2441 19.2617 36.0879 19.3711 35.9629C19.4844 35.8379 19.6523 35.7754 19.875 35.7754C20.0977 35.7754 20.2656 35.8379 20.3789 35.9629C20.4961 36.0879 20.5547 36.2441 20.5547 36.4316C20.5547 36.6113 20.4961 36.7617 20.3789 36.8828C20.2656 37.0039 20.0977 37.0645 19.875 37.0645C19.6523 37.0645 19.4844 37.0039 19.3711 36.8828C19.2617 36.7617 19.207 36.6113 19.207 36.4316ZM22.0898 33.7773C22.0898 32.7891 22.3184 32.0039 22.7754 31.4219C23.2324 30.8359 23.8379 30.543 24.5918 30.543C25.3652 30.543 25.9688 30.8164 26.4023 31.3633L26.4551 30.6602H27.4453V36.8477C27.4453 37.668 27.2012 38.3145 26.7129 38.7871C26.2285 39.2598 25.5762 39.4961 24.7559 39.4961C24.2988 39.4961 23.8516 39.3984 23.4141 39.2031C22.9766 39.0078 22.6426 38.7402 22.4121 38.4004L22.9746 37.75C23.4395 38.3242 24.0078 38.6113 24.6797 38.6113C25.207 38.6113 25.6172 38.4629 25.9102 38.166C26.207 37.8691 26.3555 37.4512 26.3555 36.9121V36.3672C25.9219 36.8672 25.3301 37.1172 24.5801 37.1172C23.8379 37.1172 23.2363 36.8184 22.7754 36.2207C22.3184 35.623 22.0898 34.8086 22.0898 33.7773ZM23.1797 33.9004C23.1797 34.6152 23.3262 35.1777 23.6191 35.5879C23.9121 35.9941 24.3223 36.1973 24.8496 36.1973C25.5332 36.1973 26.0352 35.8867 26.3555 35.2656V32.3711C26.0234 31.7656 25.5254 31.4629 24.8613 31.4629C24.334 31.4629 23.9219 31.668 23.625 32.0781C23.3281 32.4883 23.1797 33.0957 23.1797 33.9004ZM29.1094 36.4316C29.1094 36.2441 29.1641 36.0879 29.2734 35.9629C29.3867 35.8379 29.5547 35.7754 29.7773 35.7754C30 35.7754 30.168 35.8379 30.2812 35.9629C30.3984 36.0879 30.457 36.2441 30.457 36.4316C30.457 36.6113 30.3984 36.7617 30.2812 36.8828C30.168 37.0039 30 37.0645 29.7773 37.0645C29.5547 37.0645 29.3867 37.0039 29.2734 36.8828C29.1641 36.7617 29.1094 36.6113 29.1094 36.4316ZM32.2148 38.6992L31.5996 38.2773C31.9668 37.7656 32.1582 37.2383 32.1738 36.6953V35.7168H33.2344V36.5664C33.2344 36.9609 33.1367 37.3555 32.9414 37.75C32.75 38.1445 32.5078 38.4609 32.2148 38.6992ZM39.2051 28.4688L41.9941 35.4297L44.7832 28.4688H46.2422V37H45.1172V33.6777L45.2227 30.0918L42.4219 37H41.5605L38.7656 30.1094L38.877 33.6777V37H37.752V28.4688H39.2051ZM47.7715 33.7715C47.7715 33.1504 47.8926 32.5918 48.1348 32.0957C48.3809 31.5996 48.7207 31.2168 49.1543 30.9473C49.5918 30.6777 50.0898 30.543 50.6484 30.543C51.5117 30.543 52.209 30.8418 52.7402 31.4395C53.2754 32.0371 53.543 32.832 53.543 33.8242V33.9004C53.543 34.5176 53.4238 35.0723 53.1855 35.5645C52.9512 36.0527 52.6133 36.4336 52.1719 36.707C51.7344 36.9805 51.2305 37.1172 50.6602 37.1172C49.8008 37.1172 49.1035 36.8184 48.5684 36.2207C48.0371 35.623 47.7715 34.832 47.7715 33.8477V33.7715ZM48.8613 33.9004C48.8613 34.6035 49.0234 35.168 49.3477 35.5938C49.6758 36.0195 50.1133 36.2324 50.6602 36.2324C51.2109 36.2324 51.6484 36.0176 51.9727 35.5879C52.2969 35.1543 52.459 34.5488 52.459 33.7715C52.459 33.0762 52.293 32.5137 51.9609 32.084C51.6328 31.6504 51.1953 31.4336 50.6484 31.4336C50.1133 31.4336 49.6816 31.6465 49.3535 32.0723C49.0254 32.498 48.8613 33.1074 48.8613 33.9004ZM55.9863 31.4277C56.4668 30.8379 57.0918 30.543 57.8613 30.543C59.2012 30.543 59.877 31.2988 59.8887 32.8105V37H58.8047V32.8047C58.8008 32.3477 58.6953 32.0098 58.4883 31.791C58.2852 31.5723 57.9668 31.4629 57.5332 31.4629C57.1816 31.4629 56.873 31.5566 56.6074 31.7441C56.3418 31.9316 56.1348 32.1777 55.9863 32.4824V37H54.9023V28H55.9863V31.4277ZM65.4258 37C65.3633 36.875 65.3125 36.6523 65.2734 36.332C64.7695 36.8555 64.168 37.1172 63.4688 37.1172C62.8438 37.1172 62.3301 36.9414 61.9277 36.5898C61.5293 36.2344 61.3301 35.7852 61.3301 35.2422C61.3301 34.582 61.5801 34.0703 62.0801 33.707C62.584 33.3398 63.291 33.1562 64.2012 33.1562H65.2559V32.6582C65.2559 32.2793 65.1426 31.9785 64.916 31.7559C64.6895 31.5293 64.3555 31.416 63.9141 31.416C63.5273 31.416 63.2031 31.5137 62.9414 31.709C62.6797 31.9043 62.5488 32.1406 62.5488 32.418H61.459C61.459 32.1016 61.5703 31.7969 61.793 31.5039C62.0195 31.207 62.3242 30.9727 62.707 30.8008C63.0938 30.6289 63.5176 30.543 63.9785 30.543C64.709 30.543 65.2812 30.7266 65.6953 31.0938C66.1094 31.457 66.3242 31.959 66.3398 32.5996V35.5176C66.3398 36.0996 66.4141 36.5625 66.5625 36.9062V37H65.4258ZM63.627 36.1738C63.9668 36.1738 64.2891 36.0859 64.5938 35.9102C64.8984 35.7344 65.1191 35.5059 65.2559 35.2246V33.9238H64.4062C63.0781 33.9238 62.4141 34.3125 62.4141 35.0898C62.4141 35.4297 62.5273 35.6953 62.7539 35.8867C62.9805 36.0781 63.2715 36.1738 63.627 36.1738ZM69.0586 30.6602L69.0879 31.3633C69.5527 30.8164 70.1797 30.543 70.9688 30.543C71.8555 30.543 72.459 30.8828 72.7793 31.5625C72.9902 31.2578 73.2637 31.0117 73.5996 30.8242C73.9395 30.6367 74.3398 30.543 74.8008 30.543C76.1914 30.543 76.8984 31.2793 76.9219 32.752V37H75.8379V32.8164C75.8379 32.3633 75.7344 32.0254 75.5273 31.8027C75.3203 31.5762 74.9727 31.4629 74.4844 31.4629C74.082 31.4629 73.748 31.584 73.4824 31.8262C73.2168 32.0645 73.0625 32.3867 73.0195 32.793V37H71.9297V32.8457C71.9297 31.9238 71.4785 31.4629 70.5762 31.4629C69.8652 31.4629 69.3789 31.7656 69.1172 32.3711V37H68.0332V30.6602H69.0586ZM79.582 30.6602L79.6113 31.3633C80.0762 30.8164 80.7031 30.543 81.4922 30.543C82.3789 30.543 82.9824 30.8828 83.3027 31.5625C83.5137 31.2578 83.7871 31.0117 84.123 30.8242C84.4629 30.6367 84.8633 30.543 85.3242 30.543C86.7148 30.543 87.4219 31.2793 87.4453 32.752V37H86.3613V32.8164C86.3613 32.3633 86.2578 32.0254 86.0508 31.8027C85.8438 31.5762 85.4961 31.4629 85.0078 31.4629C84.6055 31.4629 84.2715 31.584 84.0059 31.8262C83.7402 32.0645 83.5859 32.3867 83.543 32.793V37H82.4531V32.8457C82.4531 31.9238 82.002 31.4629 81.0996 31.4629C80.3887 31.4629 79.9023 31.7656 79.6406 32.3711V37H78.5566V30.6602H79.582ZM91.7168 37.1172C90.8574 37.1172 90.1582 36.8359 89.6191 36.2734C89.0801 35.707 88.8105 34.9512 88.8105 34.0059V33.8066C88.8105 33.1777 88.9297 32.6172 89.168 32.125C89.4102 31.6289 89.7461 31.2422 90.1758 30.9648C90.6094 30.6836 91.0781 30.543 91.582 30.543C92.4062 30.543 93.0469 30.8145 93.5039 31.3574C93.9609 31.9004 94.1895 32.6777 94.1895 33.6895V34.1406H89.8945C89.9102 34.7656 90.0918 35.2715 90.4395 35.6582C90.791 36.041 91.2363 36.2324 91.7754 36.2324C92.1582 36.2324 92.4824 36.1543 92.748 35.998C93.0137 35.8418 93.2461 35.6348 93.4453 35.377L94.1074 35.8926C93.5762 36.709 92.7793 37.1172 91.7168 37.1172ZM91.582 31.4336C91.1445 31.4336 90.7773 31.5938 90.4805 31.9141C90.1836 32.2305 90 32.6758 89.9297 33.25H93.1055V33.168C93.0742 32.6172 92.9258 32.1914 92.6602 31.8906C92.3945 31.5859 92.0352 31.4336 91.582 31.4336ZM95.1855 33.7773C95.1855 32.8047 95.416 32.0234 95.877 31.4336C96.3379 30.8398 96.9414 30.543 97.6875 30.543C98.4297 30.543 99.0176 30.7969 99.4512 31.3047V28H100.535V37H99.5391L99.4863 36.3203C99.0527 36.8516 98.4492 37.1172 97.6758 37.1172C96.9414 37.1172 96.3418 36.8164 95.877 36.2148C95.416 35.6133 95.1855 34.8281 95.1855 33.8594V33.7773ZM96.2695 33.9004C96.2695 34.6191 96.418 35.1816 96.7148 35.5879C97.0117 35.9941 97.4219 36.1973 97.9453 36.1973C98.6328 36.1973 99.1348 35.8887 99.4512 35.2715V32.3594C99.127 31.7617 98.6289 31.4629 97.957 31.4629C97.4258 31.4629 97.0117 31.668 96.7148 32.0781C96.418 32.4883 96.2695 33.0957 96.2695 33.9004ZM110.08 34.7734H106.506L105.703 37H104.543L107.801 28.4688H108.785L112.049 37H110.895L110.08 34.7734ZM106.846 33.8477H109.746L108.293 29.8574L106.846 33.8477ZM114.797 34.0645L114.117 34.7734V37H113.033V28H114.117V33.4434L114.697 32.7461L116.672 30.6602H117.99L115.523 33.3086L118.277 37H117.006L114.797 34.0645ZM120.879 34.0645L120.199 34.7734V37H119.115V28H120.199V33.4434L120.779 32.7461L122.754 30.6602H124.072L121.605 33.3086L124.359 37H123.088L120.879 34.0645ZM129.105 37C129.043 36.875 128.992 36.6523 128.953 36.332C128.449 36.8555 127.848 37.1172 127.148 37.1172C126.523 37.1172 126.01 36.9414 125.607 36.5898C125.209 36.2344 125.01 35.7852 125.01 35.2422C125.01 34.582 125.26 34.0703 125.76 33.707C126.264 33.3398 126.971 33.1562 127.881 33.1562H128.936V32.6582C128.936 32.2793 128.822 31.9785 128.596 31.7559C128.369 31.5293 128.035 31.416 127.594 31.416C127.207 31.416 126.883 31.5137 126.621 31.709C126.359 31.9043 126.229 32.1406 126.229 32.418H125.139C125.139 32.1016 125.25 31.7969 125.473 31.5039C125.699 31.207 126.004 30.9727 126.387 30.8008C126.773 30.6289 127.197 30.543 127.658 30.543C128.389 30.543 128.961 30.7266 129.375 31.0938C129.789 31.457 130.004 31.959 130.02 32.5996V35.5176C130.02 36.0996 130.094 36.5625 130.242 36.9062V37H129.105ZM127.307 36.1738C127.646 36.1738 127.969 36.0859 128.273 35.9102C128.578 35.7344 128.799 35.5059 128.936 35.2246V33.9238H128.086C126.758 33.9238 126.094 34.3125 126.094 35.0898C126.094 35.4297 126.207 35.6953 126.434 35.8867C126.66 36.0781 126.951 36.1738 127.307 36.1738ZM134.783 31.6328C134.619 31.6055 134.441 31.5918 134.25 31.5918C133.539 31.5918 133.057 31.8945 132.803 32.5V37H131.719V30.6602H132.773L132.791 31.3926C133.146 30.8262 133.65 30.543 134.303 30.543C134.514 30.543 134.674 30.5703 134.783 30.625V31.6328Z" fill="#B4B4B4"/>
<path d="M5.32812 6.38525H1.93896V9.15674H5.87598V10H0.907715V2.17969H5.82227V3.02832H1.93896V5.54199H5.32812V6.38525ZM7.93848 4.18848L7.96533 4.83301C8.39144 4.33171 8.96615 4.08105 9.68945 4.08105C10.5023 4.08105 11.0555 4.39258 11.3491 5.01562C11.5425 4.73633 11.7931 4.51074 12.1011 4.33887C12.4126 4.16699 12.7796 4.08105 13.2021 4.08105C14.4769 4.08105 15.125 4.75602 15.1465 6.10596V10H14.1528V6.16504C14.1528 5.74967 14.0579 5.43994 13.8682 5.23584C13.6784 5.02816 13.3597 4.92432 12.9121 4.92432C12.5433 4.92432 12.2371 5.03532 11.9937 5.25732C11.7502 5.47575 11.6087 5.77116 11.5693 6.14355V10H10.5703V6.19189C10.5703 5.34684 10.1567 4.92432 9.32959 4.92432C8.6779 4.92432 8.2321 5.20182 7.99219 5.75684V10H6.99854V4.18848H7.93848ZM21.5596 7.15869C21.5596 8.04313 21.3573 8.7557 20.9526 9.29639C20.548 9.83708 20.0002 10.1074 19.3091 10.1074C18.6037 10.1074 18.0487 9.88363 17.644 9.43604V12.2344H16.6504V4.18848H17.5581L17.6064 4.83301C18.0111 4.33171 18.5732 4.08105 19.293 4.08105C19.9912 4.08105 20.5426 4.34424 20.9473 4.87061C21.3555 5.39697 21.5596 6.12923 21.5596 7.06738V7.15869ZM20.5659 7.0459C20.5659 6.39062 20.4263 5.87321 20.147 5.49365C19.8677 5.1141 19.4845 4.92432 18.9976 4.92432C18.396 4.92432 17.9448 5.19108 17.644 5.72461V8.50146C17.9412 9.03141 18.396 9.29639 19.0083 9.29639C19.4845 9.29639 19.8623 9.1084 20.1416 8.73242C20.4245 8.35286 20.5659 7.79069 20.5659 7.0459ZM24.1753 2.78125V4.18848H25.2603V4.95654H24.1753V8.56055C24.1753 8.79329 24.2236 8.96875 24.3203 9.08691C24.417 9.2015 24.5817 9.25879 24.8145 9.25879C24.929 9.25879 25.0866 9.2373 25.2871 9.19434V10C25.0257 10.0716 24.7715 10.1074 24.5244 10.1074C24.0804 10.1074 23.7456 9.97314 23.52 9.70459C23.2944 9.43604 23.1816 9.05469 23.1816 8.56055V4.95654H22.1235V4.18848H23.1816V2.78125H24.1753ZM28.3271 8.54443L29.6807 4.18848H30.7441L28.4077 10.897C28.0461 11.8638 27.4714 12.3472 26.6836 12.3472L26.4956 12.3311L26.125 12.2612V11.4556L26.3936 11.4771C26.7301 11.4771 26.9915 11.409 27.1777 11.2729C27.3675 11.1369 27.5233 10.888 27.645 10.5264L27.8652 9.93555L25.792 4.18848H26.877L28.3271 8.54443Z" fill="#6F89A1"/>
</svg>
