<svg width="452" height="43" viewBox="0 0 452 43" fill="none" xmlns="http://www.w3.org/2000/svg">
<rect x="0.5" y="19.5" width="451" height="23" rx="3.5" fill="white"/>
<path d="M14.4434 26.4688L17.2324 33.4297L20.0215 26.4688H21.4805V35H20.3555V31.6777L20.4609 28.0918L17.6602 35H16.7988L14.0039 28.1094L14.1152 31.6777V35H12.9902V26.4688H14.4434ZM23.0098 31.7715C23.0098 31.1504 23.1309 30.5918 23.373 30.0957C23.6191 29.5996 23.959 29.2168 24.3926 28.9473C24.8301 28.6777 25.3281 28.543 25.8867 28.543C26.75 28.543 27.4473 28.8418 27.9785 29.4395C28.5137 30.0371 28.7812 30.832 28.7812 31.8242V31.9004C28.7812 32.5176 28.6621 33.0723 28.4238 33.5645C28.1895 34.0527 27.8516 34.4336 27.4102 34.707C26.9727 34.9805 26.4688 35.1172 25.8984 35.1172C25.0391 35.1172 24.3418 34.8184 23.8066 34.2207C23.2754 33.623 23.0098 32.832 23.0098 31.8477V31.7715ZM24.0996 31.9004C24.0996 32.6035 24.2617 33.168 24.5859 33.5938C24.9141 34.0195 25.3516 34.2324 25.8984 34.2324C26.4492 34.2324 26.8867 34.0176 27.2109 33.5879C27.5352 33.1543 27.6973 32.5488 27.6973 31.7715C27.6973 31.0762 27.5312 30.5137 27.1992 30.084C26.8711 29.6504 26.4336 29.4336 25.8867 29.4336C25.3516 29.4336 24.9199 29.6465 24.5918 30.0723C24.2637 30.498 24.0996 31.1074 24.0996 31.9004ZM31.2246 29.4277C31.7051 28.8379 32.3301 28.543 33.0996 28.543C34.4395 28.543 35.1152 29.2988 35.127 30.8105V35H34.043V30.8047C34.0391 30.3477 33.9336 30.0098 33.7266 29.791C33.5234 29.5723 33.2051 29.4629 32.7715 29.4629C32.4199 29.4629 32.1113 29.5566 31.8457 29.7441C31.5801 29.9316 31.373 30.1777 31.2246 30.4824V35H30.1406V26H31.2246V29.4277ZM40.6641 35C40.6016 34.875 40.5508 34.6523 40.5117 34.332C40.0078 34.8555 39.4062 35.1172 38.707 35.1172C38.082 35.1172 37.5684 34.9414 37.166 34.5898C36.7676 34.2344 36.5684 33.7852 36.5684 33.2422C36.5684 32.582 36.8184 32.0703 37.3184 31.707C37.8223 31.3398 38.5293 31.1562 39.4395 31.1562H40.4941V30.6582C40.4941 30.2793 40.3809 29.9785 40.1543 29.7559C39.9277 29.5293 39.5938 29.416 39.1523 29.416C38.7656 29.416 38.4414 29.5137 38.1797 29.709C37.918 29.9043 37.7871 30.1406 37.7871 30.418H36.6973C36.6973 30.1016 36.8086 29.7969 37.0312 29.5039C37.2578 29.207 37.5625 28.9727 37.9453 28.8008C38.332 28.6289 38.7559 28.543 39.2168 28.543C39.9473 28.543 40.5195 28.7266 40.9336 29.0938C41.3477 29.457 41.5625 29.959 41.5781 30.5996V33.5176C41.5781 34.0996 41.6523 34.5625 41.8008 34.9062V35H40.6641ZM38.8652 34.1738C39.2051 34.1738 39.5273 34.0859 39.832 33.9102C40.1367 33.7344 40.3574 33.5059 40.4941 33.2246V31.9238H39.6445C38.3164 31.9238 37.6523 32.3125 37.6523 33.0898C37.6523 33.4297 37.7656 33.6953 37.9922 33.8867C38.2188 34.0781 38.5098 34.1738 38.8652 34.1738ZM44.2969 28.6602L44.3262 29.3633C44.791 28.8164 45.418 28.543 46.207 28.543C47.0938 28.543 47.6973 28.8828 48.0176 29.5625C48.2285 29.2578 48.502 29.0117 48.8379 28.8242C49.1777 28.6367 49.5781 28.543 50.0391 28.543C51.4297 28.543 52.1367 29.2793 52.1602 30.752V35H51.0762V30.8164C51.0762 30.3633 50.9727 30.0254 50.7656 29.8027C50.5586 29.5762 50.2109 29.4629 49.7227 29.4629C49.3203 29.4629 48.9863 29.584 48.7207 29.8262C48.4551 30.0645 48.3008 30.3867 48.2578 30.793V35H47.168V30.8457C47.168 29.9238 46.7168 29.4629 45.8145 29.4629C45.1035 29.4629 44.6172 29.7656 44.3555 30.3711V35H43.2715V28.6602H44.2969ZM54.8203 28.6602L54.8496 29.3633C55.3145 28.8164 55.9414 28.543 56.7305 28.543C57.6172 28.543 58.2207 28.8828 58.541 29.5625C58.752 29.2578 59.0254 29.0117 59.3613 28.8242C59.7012 28.6367 60.1016 28.543 60.5625 28.543C61.9531 28.543 62.6602 29.2793 62.6836 30.752V35H61.5996V30.8164C61.5996 30.3633 61.4961 30.0254 61.2891 29.8027C61.082 29.5762 60.7344 29.4629 60.2461 29.4629C59.8438 29.4629 59.5098 29.584 59.2441 29.8262C58.9785 30.0645 58.8242 30.3867 58.7812 30.793V35H57.6914V30.8457C57.6914 29.9238 57.2402 29.4629 56.3379 29.4629C55.627 29.4629 55.1406 29.7656 54.8789 30.3711V35H53.7949V28.6602H54.8203ZM66.9551 35.1172C66.0957 35.1172 65.3965 34.8359 64.8574 34.2734C64.3184 33.707 64.0488 32.9512 64.0488 32.0059V31.8066C64.0488 31.1777 64.168 30.6172 64.4062 30.125C64.6484 29.6289 64.9844 29.2422 65.4141 28.9648C65.8477 28.6836 66.3164 28.543 66.8203 28.543C67.6445 28.543 68.2852 28.8145 68.7422 29.3574C69.1992 29.9004 69.4277 30.6777 69.4277 31.6895V32.1406H65.1328C65.1484 32.7656 65.3301 33.2715 65.6777 33.6582C66.0293 34.041 66.4746 34.2324 67.0137 34.2324C67.3965 34.2324 67.7207 34.1543 67.9863 33.998C68.252 33.8418 68.4844 33.6348 68.6836 33.377L69.3457 33.8926C68.8145 34.709 68.0176 35.1172 66.9551 35.1172ZM66.8203 29.4336C66.3828 29.4336 66.0156 29.5938 65.7188 29.9141C65.4219 30.2305 65.2383 30.6758 65.168 31.25H68.3438V31.168C68.3125 30.6172 68.1641 30.1914 67.8984 29.8906C67.6328 29.5859 67.2734 29.4336 66.8203 29.4336ZM70.4238 31.7773C70.4238 30.8047 70.6543 30.0234 71.1152 29.4336C71.5762 28.8398 72.1797 28.543 72.9258 28.543C73.668 28.543 74.2559 28.7969 74.6895 29.3047V26H75.7734V35H74.7773L74.7246 34.3203C74.291 34.8516 73.6875 35.1172 72.9141 35.1172C72.1797 35.1172 71.5801 34.8164 71.1152 34.2148C70.6543 33.6133 70.4238 32.8281 70.4238 31.8594V31.7773ZM71.5078 31.9004C71.5078 32.6191 71.6562 33.1816 71.9531 33.5879C72.25 33.9941 72.6602 34.1973 73.1836 34.1973C73.8711 34.1973 74.373 33.8887 74.6895 33.2715V30.3594C74.3652 29.7617 73.8672 29.4629 73.1953 29.4629C72.6641 29.4629 72.25 29.668 71.9531 30.0781C71.6562 30.4883 71.5078 31.0957 71.5078 31.9004ZM85.3184 32.7734H81.7441L80.9414 35H79.7812L83.0391 26.4688H84.0234L87.2871 35H86.1328L85.3184 32.7734ZM82.084 31.8477H84.9844L83.5312 27.8574L82.084 31.8477ZM90.0352 32.0645L89.3555 32.7734V35H88.2715V26H89.3555V31.4434L89.9355 30.7461L91.9102 28.6602H93.2285L90.7617 31.3086L93.5156 35H92.2441L90.0352 32.0645ZM96.1172 32.0645L95.4375 32.7734V35H94.3535V26H95.4375V31.4434L96.0176 30.7461L97.9922 28.6602H99.3105L96.8438 31.3086L99.5977 35H98.3262L96.1172 32.0645ZM104.344 35C104.281 34.875 104.23 34.6523 104.191 34.332C103.688 34.8555 103.086 35.1172 102.387 35.1172C101.762 35.1172 101.248 34.9414 100.846 34.5898C100.447 34.2344 100.248 33.7852 100.248 33.2422C100.248 32.582 100.498 32.0703 100.998 31.707C101.502 31.3398 102.209 31.1562 103.119 31.1562H104.174V30.6582C104.174 30.2793 104.061 29.9785 103.834 29.7559C103.607 29.5293 103.273 29.416 102.832 29.416C102.445 29.416 102.121 29.5137 101.859 29.709C101.598 29.9043 101.467 30.1406 101.467 30.418H100.377C100.377 30.1016 100.488 29.7969 100.711 29.5039C100.938 29.207 101.242 28.9727 101.625 28.8008C102.012 28.6289 102.436 28.543 102.896 28.543C103.627 28.543 104.199 28.7266 104.613 29.0938C105.027 29.457 105.242 29.959 105.258 30.5996V33.5176C105.258 34.0996 105.332 34.5625 105.48 34.9062V35H104.344ZM102.545 34.1738C102.885 34.1738 103.207 34.0859 103.512 33.9102C103.816 33.7344 104.037 33.5059 104.174 33.2246V31.9238H103.324C101.996 31.9238 101.332 32.3125 101.332 33.0898C101.332 33.4297 101.445 33.6953 101.672 33.8867C101.898 34.0781 102.189 34.1738 102.545 34.1738ZM110.021 29.6328C109.857 29.6055 109.68 29.5918 109.488 29.5918C108.777 29.5918 108.295 29.8945 108.041 30.5V35H106.957V28.6602H108.012L108.029 29.3926C108.385 28.8262 108.889 28.543 109.541 28.543C109.752 28.543 109.912 28.5703 110.021 28.625V29.6328Z" fill="#404040"/>
<rect x="0.5" y="19.5" width="451" height="23" rx="3.5" stroke="#0371FF"/>
<path d="M18.2261 7.95898H14.9497L14.2139 10H13.1504L16.1367 2.17969H17.0391L20.0308 10H18.9727L18.2261 7.95898ZM15.2612 7.11035H17.9199L16.5879 3.45264L15.2612 7.11035ZM23.2588 9.29639C23.6133 9.29639 23.923 9.18896 24.188 8.97412C24.453 8.75928 24.5998 8.49072 24.6284 8.16846H25.5684C25.5505 8.50146 25.4359 8.81836 25.2246 9.11914C25.0133 9.41992 24.7305 9.65983 24.376 9.83887C24.0251 10.0179 23.6527 10.1074 23.2588 10.1074C22.4674 10.1074 21.8372 9.84424 21.3682 9.31787C20.9027 8.78792 20.6699 8.06462 20.6699 7.14795V6.98145C20.6699 6.41569 20.7738 5.9126 20.9814 5.47217C21.1891 5.03174 21.4863 4.68978 21.873 4.44629C22.2633 4.2028 22.7235 4.08105 23.2534 4.08105C23.9051 4.08105 24.4458 4.2762 24.8755 4.6665C25.3088 5.0568 25.5397 5.56348 25.5684 6.18652H24.6284C24.5998 5.81055 24.4565 5.5026 24.1987 5.2627C23.9445 5.01921 23.6294 4.89746 23.2534 4.89746C22.7485 4.89746 22.3564 5.08008 22.0771 5.44531C21.8014 5.80697 21.6636 6.33154 21.6636 7.01904V7.20703C21.6636 7.87663 21.8014 8.39225 22.0771 8.75391C22.3529 9.11556 22.7467 9.29639 23.2588 9.29639ZM28.0337 2.78125V4.18848H29.1187V4.95654H28.0337V8.56055C28.0337 8.79329 28.082 8.96875 28.1787 9.08691C28.2754 9.2015 28.4401 9.25879 28.6729 9.25879C28.7874 9.25879 28.945 9.2373 29.1455 9.19434V10C28.8841 10.0716 28.6299 10.1074 28.3828 10.1074C27.9388 10.1074 27.604 9.97314 27.3784 9.70459C27.1528 9.43604 27.04 9.05469 27.04 8.56055V4.95654H25.9819V4.18848H27.04V2.78125H28.0337ZM31.3638 10H30.3701V4.18848H31.3638V10ZM30.2896 2.64697C30.2896 2.48584 30.3379 2.34977 30.4346 2.23877C30.5348 2.12777 30.6816 2.07227 30.875 2.07227C31.0684 2.07227 31.2152 2.12777 31.3154 2.23877C31.4157 2.34977 31.4658 2.48584 31.4658 2.64697C31.4658 2.80811 31.4157 2.94238 31.3154 3.0498C31.2152 3.15723 31.0684 3.21094 30.875 3.21094C30.6816 3.21094 30.5348 3.15723 30.4346 3.0498C30.3379 2.94238 30.2896 2.80811 30.2896 2.64697ZM34.8765 8.65186L36.3159 4.18848H37.3311L35.2471 10H34.4897L32.3843 4.18848H33.3994L34.8765 8.65186ZM40.6235 10.1074C39.8358 10.1074 39.1948 9.84961 38.7007 9.33398C38.2065 8.81478 37.9595 8.12191 37.9595 7.25537V7.07275C37.9595 6.49626 38.0687 5.98242 38.2871 5.53125C38.5091 5.0765 38.8171 4.72201 39.2109 4.46777C39.6084 4.20996 40.0381 4.08105 40.5 4.08105C41.2555 4.08105 41.8428 4.32992 42.2617 4.82764C42.6807 5.32536 42.8901 6.03792 42.8901 6.96533V7.37891H38.9531C38.9674 7.95182 39.134 8.41553 39.4526 8.77002C39.7749 9.12093 40.1831 9.29639 40.6772 9.29639C41.0282 9.29639 41.3254 9.22477 41.5688 9.08154C41.8123 8.93831 42.0254 8.74854 42.208 8.51221L42.8149 8.98486C42.328 9.73324 41.5975 10.1074 40.6235 10.1074ZM40.5 4.89746C40.099 4.89746 39.7624 5.04427 39.4902 5.33789C39.2181 5.62793 39.0498 6.03613 38.9854 6.5625H41.8965V6.4873C41.8678 5.98242 41.7318 5.59212 41.4883 5.31641C41.2448 5.03711 40.9154 4.89746 40.5 4.89746Z" fill="#6F89A1"/>
<path fill-rule="evenodd" clip-rule="evenodd" d="M4.5 10C6.98528 10 9 7.98528 9 5.5C9 3.01472 6.98528 1 4.5 1C2.01472 1 0 3.01472 0 5.5C0 7.98528 2.01472 10 4.5 10ZM4.5 10L3.64058 6.98857L0.602886 7.75L2.78115 5.5L0.602886 3.25L3.64058 4.01143L4.5 1L5.35942 4.01143L8.39711 3.25L6.21885 5.5L8.39711 7.75L5.35942 6.98857L4.5 10Z" fill="#6F89A1"/>
</svg>
