<svg width="452" height="52" viewBox="0 0 452 52" fill="none" xmlns="http://www.w3.org/2000/svg">
<rect x="0.5" y="20.5" width="451" height="31" rx="3.5" fill="white" stroke="#B7C4D0"/>
<path d="M16.0264 41.1367C15.0238 41.1367 14.208 40.8086 13.5791 40.1523C12.9502 39.4915 12.6357 38.6097 12.6357 37.5068V37.2744C12.6357 36.5407 12.7747 35.8867 13.0527 35.3125C13.3353 34.7337 13.7272 34.2826 14.2285 33.959C14.7344 33.6309 15.2812 33.4668 15.8691 33.4668C16.8307 33.4668 17.5781 33.7835 18.1113 34.417C18.6445 35.0505 18.9111 35.9574 18.9111 37.1377V37.6641H13.9004C13.9186 38.3932 14.1305 38.9834 14.5361 39.4346C14.9463 39.8812 15.4658 40.1045 16.0947 40.1045C16.5413 40.1045 16.9196 40.0133 17.2295 39.8311C17.5394 39.6488 17.8105 39.4072 18.043 39.1064L18.8154 39.708C18.1956 40.6605 17.266 41.1367 16.0264 41.1367ZM15.8691 34.5059C15.3587 34.5059 14.9303 34.6927 14.584 35.0664C14.2376 35.4355 14.0234 35.9551 13.9414 36.625H17.6465V36.5293C17.61 35.8867 17.4368 35.39 17.127 35.0391C16.8171 34.6836 16.3978 34.5059 15.8691 34.5059ZM20.4082 40.3369C20.4082 40.1182 20.472 39.9359 20.5996 39.79C20.7318 39.6442 20.9277 39.5713 21.1875 39.5713C21.4473 39.5713 21.6432 39.6442 21.7754 39.79C21.9121 39.9359 21.9805 40.1182 21.9805 40.3369C21.9805 40.5465 21.9121 40.722 21.7754 40.8633C21.6432 41.0046 21.4473 41.0752 21.1875 41.0752C20.9277 41.0752 20.7318 41.0046 20.5996 40.8633C20.472 40.722 20.4082 40.5465 20.4082 40.3369ZM23.7715 37.2402C23.7715 36.0872 24.0381 35.1712 24.5713 34.4922C25.1045 33.8086 25.8109 33.4668 26.6904 33.4668C27.5928 33.4668 28.2969 33.7858 28.8027 34.4238L28.8643 33.6035H30.0195V40.8223C30.0195 41.7793 29.7347 42.5335 29.165 43.085C28.5999 43.6364 27.8389 43.9121 26.8818 43.9121C26.3486 43.9121 25.8268 43.7982 25.3164 43.5703C24.806 43.3424 24.4163 43.0303 24.1475 42.6338L24.8037 41.875C25.346 42.5449 26.0091 42.8799 26.793 42.8799C27.4082 42.8799 27.8867 42.7067 28.2285 42.3604C28.5749 42.014 28.748 41.5264 28.748 40.8975V40.2617C28.2422 40.8451 27.5518 41.1367 26.6768 41.1367C25.8109 41.1367 25.109 40.7881 24.5713 40.0908C24.0381 39.3936 23.7715 38.4434 23.7715 37.2402ZM25.043 37.3838C25.043 38.2178 25.2139 38.874 25.5557 39.3525C25.8975 39.8265 26.376 40.0635 26.9912 40.0635C27.7887 40.0635 28.3743 39.7012 28.748 38.9766V35.5996C28.3607 34.8932 27.7796 34.54 27.0049 34.54C26.3896 34.54 25.9089 34.7793 25.5625 35.2578C25.2161 35.7363 25.043 36.445 25.043 37.3838ZM31.9609 40.3369C31.9609 40.1182 32.0247 39.9359 32.1523 39.79C32.2845 39.6442 32.4805 39.5713 32.7402 39.5713C33 39.5713 33.196 39.6442 33.3281 39.79C33.4648 39.9359 33.5332 40.1182 33.5332 40.3369C33.5332 40.5465 33.4648 40.722 33.3281 40.8633C33.196 41.0046 33 41.0752 32.7402 41.0752C32.4805 41.0752 32.2845 41.0046 32.1523 40.8633C32.0247 40.722 31.9609 40.5465 31.9609 40.3369ZM35.584 42.9824L34.8662 42.4902C35.2946 41.8932 35.5179 41.278 35.5361 40.6445V39.5029H36.7734V40.4941C36.7734 40.9544 36.6595 41.4147 36.4316 41.875C36.2083 42.3353 35.9258 42.7044 35.584 42.9824ZM43.7393 31.0469L46.9932 39.168L50.2471 31.0469H51.9492V41H50.6367V37.124L50.7598 32.9404L47.4922 41H46.4873L43.2266 32.9609L43.3564 37.124V41H42.0439V31.0469H43.7393ZM53.7334 37.2334C53.7334 36.5088 53.8747 35.8571 54.1572 35.2783C54.4443 34.6995 54.8408 34.2529 55.3467 33.9385C55.8571 33.624 56.4382 33.4668 57.0898 33.4668C58.097 33.4668 58.9105 33.8154 59.5303 34.5127C60.1546 35.21 60.4668 36.1374 60.4668 37.2949V37.3838C60.4668 38.1038 60.3278 38.751 60.0498 39.3252C59.7764 39.8949 59.3822 40.3392 58.8672 40.6582C58.3568 40.9772 57.7689 41.1367 57.1035 41.1367C56.1009 41.1367 55.2874 40.7881 54.6631 40.0908C54.0433 39.3936 53.7334 38.4707 53.7334 37.3223V37.2334ZM55.0049 37.3838C55.0049 38.2041 55.194 38.8626 55.5723 39.3594C55.9551 39.8561 56.4655 40.1045 57.1035 40.1045C57.7461 40.1045 58.2565 39.8538 58.6348 39.3525C59.013 38.8467 59.2021 38.1403 59.2021 37.2334C59.2021 36.4222 59.0085 35.766 58.6211 35.2646C58.2383 34.7588 57.7279 34.5059 57.0898 34.5059C56.4655 34.5059 55.9619 34.7542 55.5791 35.251C55.1963 35.7477 55.0049 36.4587 55.0049 37.3838ZM63.3174 34.499C63.8779 33.8109 64.6071 33.4668 65.5049 33.4668C67.068 33.4668 67.8564 34.3486 67.8701 36.1123V41H66.6055V36.1055C66.6009 35.5723 66.4779 35.1781 66.2363 34.9229C65.9993 34.6676 65.6279 34.54 65.1221 34.54C64.7119 34.54 64.3519 34.6494 64.042 34.8682C63.7321 35.0869 63.4906 35.374 63.3174 35.7295V41H62.0527V30.5H63.3174V34.499ZM74.3301 41C74.2572 40.8542 74.1979 40.5944 74.1523 40.2207C73.5645 40.8314 72.8626 41.1367 72.0469 41.1367C71.3177 41.1367 70.7184 40.9316 70.249 40.5215C69.7842 40.1068 69.5518 39.5827 69.5518 38.9492C69.5518 38.179 69.8434 37.582 70.4268 37.1582C71.0146 36.7298 71.8395 36.5156 72.9014 36.5156H74.1318V35.9346C74.1318 35.4925 73.9997 35.1416 73.7354 34.8818C73.471 34.6175 73.0814 34.4854 72.5664 34.4854C72.1152 34.4854 71.737 34.5993 71.4316 34.8271C71.1263 35.055 70.9736 35.3307 70.9736 35.6543H69.7021C69.7021 35.2852 69.832 34.9297 70.0918 34.5879C70.3561 34.2415 70.7116 33.9681 71.1582 33.7676C71.6094 33.5671 72.1038 33.4668 72.6416 33.4668C73.4938 33.4668 74.1615 33.681 74.6445 34.1094C75.1276 34.5332 75.3783 35.1188 75.3965 35.8662V39.2705C75.3965 39.9495 75.4831 40.4896 75.6562 40.8906V41H74.3301ZM72.2314 40.0361C72.6279 40.0361 73.0039 39.9336 73.3594 39.7285C73.7148 39.5234 73.9723 39.2568 74.1318 38.9287V37.4111H73.1406C71.5911 37.4111 70.8164 37.8646 70.8164 38.7715C70.8164 39.168 70.9486 39.4779 71.2129 39.7012C71.4772 39.9245 71.8167 40.0361 72.2314 40.0361ZM78.5684 33.6035L78.6025 34.4238C79.1449 33.7858 79.8763 33.4668 80.7969 33.4668C81.8314 33.4668 82.5355 33.8633 82.9092 34.6562C83.1553 34.3008 83.4743 34.0137 83.8662 33.7949C84.2627 33.5762 84.7298 33.4668 85.2676 33.4668C86.89 33.4668 87.7148 34.3258 87.7422 36.0439V41H86.4775V36.1191C86.4775 35.5905 86.3568 35.1963 86.1152 34.9365C85.8737 34.6722 85.4681 34.54 84.8984 34.54C84.429 34.54 84.0394 34.6813 83.7295 34.9639C83.4196 35.2419 83.2396 35.6178 83.1895 36.0918V41H81.918V36.1533C81.918 35.0778 81.3916 34.54 80.3389 34.54C79.5094 34.54 78.9421 34.8932 78.6367 35.5996V41H77.3721V33.6035H78.5684ZM90.8457 33.6035L90.8799 34.4238C91.4222 33.7858 92.1536 33.4668 93.0742 33.4668C94.1087 33.4668 94.8128 33.8633 95.1865 34.6562C95.4326 34.3008 95.7516 34.0137 96.1436 33.7949C96.54 33.5762 97.0072 33.4668 97.5449 33.4668C99.1673 33.4668 99.9922 34.3258 100.02 36.0439V41H98.7549V36.1191C98.7549 35.5905 98.6341 35.1963 98.3926 34.9365C98.151 34.6722 97.7454 34.54 97.1758 34.54C96.7064 34.54 96.3167 34.6813 96.0068 34.9639C95.6969 35.2419 95.5169 35.6178 95.4668 36.0918V41H94.1953V36.1533C94.1953 35.0778 93.6689 34.54 92.6162 34.54C91.7868 34.54 91.2194 34.8932 90.9141 35.5996V41H89.6494V33.6035H90.8457ZM105.003 41.1367C104 41.1367 103.185 40.8086 102.556 40.1523C101.927 39.4915 101.612 38.6097 101.612 37.5068V37.2744C101.612 36.5407 101.751 35.8867 102.029 35.3125C102.312 34.7337 102.704 34.2826 103.205 33.959C103.711 33.6309 104.258 33.4668 104.846 33.4668C105.807 33.4668 106.555 33.7835 107.088 34.417C107.621 35.0505 107.888 35.9574 107.888 37.1377V37.6641H102.877C102.895 38.3932 103.107 38.9834 103.513 39.4346C103.923 39.8812 104.442 40.1045 105.071 40.1045C105.518 40.1045 105.896 40.0133 106.206 39.8311C106.516 39.6488 106.787 39.4072 107.02 39.1064L107.792 39.708C107.172 40.6605 106.243 41.1367 105.003 41.1367ZM104.846 34.5059C104.335 34.5059 103.907 34.6927 103.561 35.0664C103.214 35.4355 103 35.9551 102.918 36.625H106.623V36.5293C106.587 35.8867 106.413 35.39 106.104 35.0391C105.794 34.6836 105.374 34.5059 104.846 34.5059ZM109.05 37.2402C109.05 36.1055 109.319 35.194 109.856 34.5059C110.394 33.8132 111.098 33.4668 111.969 33.4668C112.835 33.4668 113.521 33.763 114.026 34.3555V30.5H115.291V41H114.129L114.067 40.207C113.562 40.8268 112.857 41.1367 111.955 41.1367C111.098 41.1367 110.399 40.7858 109.856 40.084C109.319 39.3822 109.05 38.4661 109.05 37.3359V37.2402ZM110.314 37.3838C110.314 38.2223 110.488 38.8786 110.834 39.3525C111.18 39.8265 111.659 40.0635 112.27 40.0635C113.072 40.0635 113.657 39.7035 114.026 38.9834V35.5859C113.648 34.8887 113.067 34.54 112.283 34.54C111.663 34.54 111.18 34.7793 110.834 35.2578C110.488 35.7363 110.314 36.445 110.314 37.3838ZM126.427 38.4023H122.257L121.32 41H119.967L123.768 31.0469H124.916L128.724 41H127.377L126.427 38.4023ZM122.653 37.3223H126.037L124.342 32.667L122.653 37.3223ZM131.93 37.5752L131.137 38.4023V41H129.872V30.5H131.137V36.8506L131.813 36.0371L134.117 33.6035H135.655L132.777 36.6934L135.99 41H134.507L131.93 37.5752ZM139.025 37.5752L138.232 38.4023V41H136.968V30.5H138.232V36.8506L138.909 36.0371L141.213 33.6035H142.751L139.873 36.6934L143.086 41H141.603L139.025 37.5752ZM148.623 41C148.55 40.8542 148.491 40.5944 148.445 40.2207C147.857 40.8314 147.156 41.1367 146.34 41.1367C145.611 41.1367 145.011 40.9316 144.542 40.5215C144.077 40.1068 143.845 39.5827 143.845 38.9492C143.845 38.179 144.136 37.582 144.72 37.1582C145.308 36.7298 146.132 36.5156 147.194 36.5156H148.425V35.9346C148.425 35.4925 148.293 35.1416 148.028 34.8818C147.764 34.6175 147.374 34.4854 146.859 34.4854C146.408 34.4854 146.03 34.5993 145.725 34.8271C145.419 35.055 145.267 35.3307 145.267 35.6543H143.995C143.995 35.2852 144.125 34.9297 144.385 34.5879C144.649 34.2415 145.005 33.9681 145.451 33.7676C145.902 33.5671 146.397 33.4668 146.935 33.4668C147.787 33.4668 148.454 33.681 148.938 34.1094C149.421 34.5332 149.671 35.1188 149.689 35.8662V39.2705C149.689 39.9495 149.776 40.4896 149.949 40.8906V41H148.623ZM146.524 40.0361C146.921 40.0361 147.297 39.9336 147.652 39.7285C148.008 39.5234 148.265 39.2568 148.425 38.9287V37.4111H147.434C145.884 37.4111 145.109 37.8646 145.109 38.7715C145.109 39.168 145.242 39.4779 145.506 39.7012C145.77 39.9245 146.11 40.0361 146.524 40.0361ZM155.247 34.7383C155.056 34.7064 154.848 34.6904 154.625 34.6904C153.796 34.6904 153.233 35.0436 152.937 35.75V41H151.672V33.6035H152.902L152.923 34.458C153.338 33.7972 153.925 33.4668 154.687 33.4668C154.933 33.4668 155.119 33.4987 155.247 33.5625V34.7383Z" fill="#B4B4B4"/>
<path d="M18.8125 7.05664H15.1152V10.0801H19.4102V11H13.9902V2.46875H19.3516V3.39453H15.1152V6.13672H18.8125V7.05664ZM21.6602 4.66016L21.6895 5.36328C22.1543 4.81641 22.7812 4.54297 23.5703 4.54297C24.457 4.54297 25.0605 4.88281 25.3809 5.5625C25.5918 5.25781 25.8652 5.01172 26.2012 4.82422C26.541 4.63672 26.9414 4.54297 27.4023 4.54297C28.793 4.54297 29.5 5.2793 29.5234 6.75195V11H28.4395V6.81641C28.4395 6.36328 28.3359 6.02539 28.1289 5.80273C27.9219 5.57617 27.5742 5.46289 27.0859 5.46289C26.6836 5.46289 26.3496 5.58398 26.084 5.82617C25.8184 6.06445 25.6641 6.38672 25.6211 6.79297V11H24.5312V6.8457C24.5312 5.92383 24.0801 5.46289 23.1777 5.46289C22.4668 5.46289 21.9805 5.76562 21.7188 6.37109V11H20.6348V4.66016H21.6602ZM36.5195 7.90039C36.5195 8.86523 36.2988 9.64258 35.8574 10.2324C35.416 10.8223 34.8184 11.1172 34.0645 11.1172C33.2949 11.1172 32.6895 10.873 32.248 10.3848V13.4375H31.1641V4.66016H32.1543L32.207 5.36328C32.6484 4.81641 33.2617 4.54297 34.0469 4.54297C34.8086 4.54297 35.4102 4.83008 35.8516 5.4043C36.2969 5.97852 36.5195 6.77734 36.5195 7.80078V7.90039ZM35.4355 7.77734C35.4355 7.0625 35.2832 6.49805 34.9785 6.08398C34.6738 5.66992 34.2559 5.46289 33.7246 5.46289C33.0684 5.46289 32.5762 5.75391 32.248 6.33594V9.36523C32.5723 9.94336 33.0684 10.2324 33.7363 10.2324C34.2559 10.2324 34.668 10.0273 34.9727 9.61719C35.2812 9.20312 35.4355 8.58984 35.4355 7.77734ZM39.373 3.125V4.66016H40.5566V5.49805H39.373V9.42969C39.373 9.68359 39.4258 9.875 39.5312 10.0039C39.6367 10.1289 39.8164 10.1914 40.0703 10.1914C40.1953 10.1914 40.3672 10.168 40.5859 10.1211V11C40.3008 11.0781 40.0234 11.1172 39.7539 11.1172C39.2695 11.1172 38.9043 10.9707 38.6582 10.6777C38.4121 10.3848 38.2891 9.96875 38.2891 9.42969V5.49805H37.1348V4.66016H38.2891V3.125H39.373ZM43.9023 9.41211L45.3789 4.66016H46.5391L43.9902 11.9785C43.5957 13.0332 42.9688 13.5605 42.1094 13.5605L41.9043 13.543L41.5 13.4668V12.5879L41.793 12.6113C42.1602 12.6113 42.4453 12.5371 42.6484 12.3887C42.8555 12.2402 43.0254 11.9688 43.1582 11.5742L43.3984 10.9297L41.1367 4.66016H42.3203L43.9023 9.41211Z" fill="#6F89A1"/>
<path fill-rule="evenodd" clip-rule="evenodd" d="M4.5 11C6.98528 11 9 8.98528 9 6.5C9 4.01472 6.98528 2 4.5 2C2.01472 2 0 4.01472 0 6.5C0 8.98528 2.01472 11 4.5 11ZM4.5 11L3.64058 7.98857L0.602886 8.75L2.78115 6.5L0.602886 4.25L3.64058 5.01143L4.5 2L5.35942 5.01143L8.39711 4.25L6.21885 6.5L8.39711 8.75L5.35942 7.98857L4.5 11Z" fill="#6F89A1"/>
</svg>
