<svg width="452" height="52" viewBox="0 0 452 52" fill="none" xmlns="http://www.w3.org/2000/svg">
<rect x="0.5" y="20.5" width="451" height="31" rx="3.5" fill="#F6F7F9"/>
<path d="M14.8506 31.0469L18.1045 39.168L21.3584 31.0469H23.0605V41H21.748V37.124L21.8711 32.9404L18.6035 41H17.5986L14.3379 32.9609L14.4678 37.124V41H13.1553V31.0469H14.8506ZM24.8447 37.2334C24.8447 36.5088 24.986 35.8571 25.2686 35.2783C25.5557 34.6995 25.9521 34.2529 26.458 33.9385C26.9684 33.624 27.5495 33.4668 28.2012 33.4668C29.2083 33.4668 30.0218 33.8154 30.6416 34.5127C31.266 35.21 31.5781 36.1374 31.5781 37.2949V37.3838C31.5781 38.1038 31.4391 38.751 31.1611 39.3252C30.8877 39.8949 30.4935 40.3392 29.9785 40.6582C29.4681 40.9772 28.8802 41.1367 28.2148 41.1367C27.2122 41.1367 26.3988 40.7881 25.7744 40.0908C25.1546 39.3936 24.8447 38.4707 24.8447 37.3223V37.2334ZM26.1162 37.3838C26.1162 38.2041 26.3053 38.8626 26.6836 39.3594C27.0664 39.8561 27.5768 40.1045 28.2148 40.1045C28.8574 40.1045 29.3678 39.8538 29.7461 39.3525C30.1243 38.8467 30.3135 38.1403 30.3135 37.2334C30.3135 36.4222 30.1198 35.766 29.7324 35.2646C29.3496 34.7588 28.8392 34.5059 28.2012 34.5059C27.5768 34.5059 27.0732 34.7542 26.6904 35.251C26.3076 35.7477 26.1162 36.4587 26.1162 37.3838ZM34.4287 34.499C34.9893 33.8109 35.7184 33.4668 36.6162 33.4668C38.1794 33.4668 38.9678 34.3486 38.9814 36.1123V41H37.7168V36.1055C37.7122 35.5723 37.5892 35.1781 37.3477 34.9229C37.1107 34.6676 36.7393 34.54 36.2334 34.54C35.8232 34.54 35.4632 34.6494 35.1533 34.8682C34.8434 35.0869 34.6019 35.374 34.4287 35.7295V41H33.1641V30.5H34.4287V34.499ZM45.4414 41C45.3685 40.8542 45.3092 40.5944 45.2637 40.2207C44.6758 40.8314 43.974 41.1367 43.1582 41.1367C42.429 41.1367 41.8298 40.9316 41.3604 40.5215C40.8955 40.1068 40.6631 39.5827 40.6631 38.9492C40.6631 38.179 40.9548 37.582 41.5381 37.1582C42.126 36.7298 42.9508 36.5156 44.0127 36.5156H45.2432V35.9346C45.2432 35.4925 45.111 35.1416 44.8467 34.8818C44.5824 34.6175 44.1927 34.4854 43.6777 34.4854C43.2266 34.4854 42.8483 34.5993 42.543 34.8271C42.2376 35.055 42.085 35.3307 42.085 35.6543H40.8135C40.8135 35.2852 40.9434 34.9297 41.2031 34.5879C41.4674 34.2415 41.8229 33.9681 42.2695 33.7676C42.7207 33.5671 43.2152 33.4668 43.7529 33.4668C44.6051 33.4668 45.2728 33.681 45.7559 34.1094C46.2389 34.5332 46.4896 35.1188 46.5078 35.8662V39.2705C46.5078 39.9495 46.5944 40.4896 46.7676 40.8906V41H45.4414ZM43.3428 40.0361C43.7393 40.0361 44.1152 39.9336 44.4707 39.7285C44.8262 39.5234 45.0837 39.2568 45.2432 38.9287V37.4111H44.252C42.7025 37.4111 41.9277 37.8646 41.9277 38.7715C41.9277 39.168 42.0599 39.4779 42.3242 39.7012C42.5885 39.9245 42.9281 40.0361 43.3428 40.0361ZM49.6797 33.6035L49.7139 34.4238C50.2562 33.7858 50.9876 33.4668 51.9082 33.4668C52.9427 33.4668 53.6468 33.8633 54.0205 34.6562C54.2666 34.3008 54.5856 34.0137 54.9775 33.7949C55.374 33.5762 55.8411 33.4668 56.3789 33.4668C58.0013 33.4668 58.8262 34.3258 58.8535 36.0439V41H57.5889V36.1191C57.5889 35.5905 57.4681 35.1963 57.2266 34.9365C56.985 34.6722 56.5794 34.54 56.0098 34.54C55.5404 34.54 55.1507 34.6813 54.8408 34.9639C54.5309 35.2419 54.3509 35.6178 54.3008 36.0918V41H53.0293V36.1533C53.0293 35.0778 52.5029 34.54 51.4502 34.54C50.6208 34.54 50.0534 34.8932 49.748 35.5996V41H48.4834V33.6035H49.6797ZM61.957 33.6035L61.9912 34.4238C62.5335 33.7858 63.265 33.4668 64.1855 33.4668C65.2201 33.4668 65.9242 33.8633 66.2979 34.6562C66.5439 34.3008 66.863 34.0137 67.2549 33.7949C67.6514 33.5762 68.1185 33.4668 68.6562 33.4668C70.2786 33.4668 71.1035 34.3258 71.1309 36.0439V41H69.8662V36.1191C69.8662 35.5905 69.7454 35.1963 69.5039 34.9365C69.2624 34.6722 68.8568 34.54 68.2871 34.54C67.8177 34.54 67.4281 34.6813 67.1182 34.9639C66.8083 35.2419 66.6283 35.6178 66.5781 36.0918V41H65.3066V36.1533C65.3066 35.0778 64.7803 34.54 63.7275 34.54C62.8981 34.54 62.3307 34.8932 62.0254 35.5996V41H60.7607V33.6035H61.957ZM76.1143 41.1367C75.1117 41.1367 74.2959 40.8086 73.667 40.1523C73.0381 39.4915 72.7236 38.6097 72.7236 37.5068V37.2744C72.7236 36.5407 72.8626 35.8867 73.1406 35.3125C73.4232 34.7337 73.8151 34.2826 74.3164 33.959C74.8223 33.6309 75.3691 33.4668 75.957 33.4668C76.9186 33.4668 77.666 33.7835 78.1992 34.417C78.7324 35.0505 78.999 35.9574 78.999 37.1377V37.6641H73.9883C74.0065 38.3932 74.2184 38.9834 74.624 39.4346C75.0342 39.8812 75.5537 40.1045 76.1826 40.1045C76.6292 40.1045 77.0075 40.0133 77.3174 39.8311C77.6273 39.6488 77.8984 39.4072 78.1309 39.1064L78.9033 39.708C78.2835 40.6605 77.3538 41.1367 76.1143 41.1367ZM75.957 34.5059C75.4466 34.5059 75.0182 34.6927 74.6719 35.0664C74.3255 35.4355 74.1113 35.9551 74.0293 36.625H77.7344V36.5293C77.6979 35.8867 77.5247 35.39 77.2148 35.0391C76.9049 34.6836 76.4857 34.5059 75.957 34.5059ZM80.1611 37.2402C80.1611 36.1055 80.43 35.194 80.9678 34.5059C81.5055 33.8132 82.2096 33.4668 83.0801 33.4668C83.946 33.4668 84.6318 33.763 85.1377 34.3555V30.5H86.4023V41H85.2402L85.1787 40.207C84.6729 40.8268 83.9688 41.1367 83.0664 41.1367C82.2096 41.1367 81.5101 40.7858 80.9678 40.084C80.43 39.3822 80.1611 38.4661 80.1611 37.3359V37.2402ZM81.4258 37.3838C81.4258 38.2223 81.599 38.8786 81.9453 39.3525C82.2917 39.8265 82.7702 40.0635 83.3809 40.0635C84.1829 40.0635 84.7686 39.7035 85.1377 38.9834V35.5859C84.7594 34.8887 84.1784 34.54 83.3945 34.54C82.7747 34.54 82.2917 34.7793 81.9453 35.2578C81.599 35.7363 81.4258 36.445 81.4258 37.3838ZM97.5381 38.4023H93.3682L92.4316 41H91.0781L94.8789 31.0469H96.0273L99.835 41H98.4883L97.5381 38.4023ZM93.7646 37.3223H97.1484L95.4531 32.667L93.7646 37.3223ZM103.041 37.5752L102.248 38.4023V41H100.983V30.5H102.248V36.8506L102.925 36.0371L105.229 33.6035H106.767L103.889 36.6934L107.102 41H105.618L103.041 37.5752ZM110.137 37.5752L109.344 38.4023V41H108.079V30.5H109.344V36.8506L110.021 36.0371L112.324 33.6035H113.862L110.984 36.6934L114.197 41H112.714L110.137 37.5752ZM119.734 41C119.661 40.8542 119.602 40.5944 119.557 40.2207C118.969 40.8314 118.267 41.1367 117.451 41.1367C116.722 41.1367 116.123 40.9316 115.653 40.5215C115.188 40.1068 114.956 39.5827 114.956 38.9492C114.956 38.179 115.248 37.582 115.831 37.1582C116.419 36.7298 117.244 36.5156 118.306 36.5156H119.536V35.9346C119.536 35.4925 119.404 35.1416 119.14 34.8818C118.875 34.6175 118.486 34.4854 117.971 34.4854C117.52 34.4854 117.141 34.5993 116.836 34.8271C116.531 35.055 116.378 35.3307 116.378 35.6543H115.106C115.106 35.2852 115.236 34.9297 115.496 34.5879C115.76 34.2415 116.116 33.9681 116.562 33.7676C117.014 33.5671 117.508 33.4668 118.046 33.4668C118.898 33.4668 119.566 33.681 120.049 34.1094C120.532 34.5332 120.783 35.1188 120.801 35.8662V39.2705C120.801 39.9495 120.887 40.4896 121.061 40.8906V41H119.734ZM117.636 40.0361C118.032 40.0361 118.408 39.9336 118.764 39.7285C119.119 39.5234 119.377 39.2568 119.536 38.9287V37.4111H118.545C116.995 37.4111 116.221 37.8646 116.221 38.7715C116.221 39.168 116.353 39.4779 116.617 39.7012C116.882 39.9245 117.221 40.0361 117.636 40.0361ZM126.358 34.7383C126.167 34.7064 125.96 34.6904 125.736 34.6904C124.907 34.6904 124.344 35.0436 124.048 35.75V41H122.783V33.6035H124.014L124.034 34.458C124.449 33.7972 125.037 33.4668 125.798 33.4668C126.044 33.4668 126.231 33.4987 126.358 33.5625V34.7383Z" fill="#808080"/>
<rect x="0.5" y="20.5" width="451" height="31" rx="3.5" stroke="#B7C4D0"/>
<path d="M0.990234 11V2.46875H3.39844C4.14062 2.46875 4.79688 2.63281 5.36719 2.96094C5.9375 3.28906 6.37695 3.75586 6.68555 4.36133C6.99805 4.9668 7.15625 5.66211 7.16016 6.44727V6.99219C7.16016 7.79688 7.00391 8.50195 6.69141 9.10742C6.38281 9.71289 5.93945 10.1777 5.36133 10.502C4.78711 10.8262 4.11719 10.9922 3.35156 11H0.990234ZM2.11523 3.39453V10.0801H3.29883C4.16602 10.0801 4.83984 9.81055 5.32031 9.27148C5.80469 8.73242 6.04688 7.96484 6.04688 6.96875V6.4707C6.04688 5.50195 5.81836 4.75 5.36133 4.21484C4.9082 3.67578 4.26367 3.40234 3.42773 3.39453H2.11523ZM9.87305 11H8.78906V4.66016H9.87305V11ZM8.70117 2.97852C8.70117 2.80273 8.75391 2.6543 8.85938 2.5332C8.96875 2.41211 9.12891 2.35156 9.33984 2.35156C9.55078 2.35156 9.71094 2.41211 9.82031 2.5332C9.92969 2.6543 9.98438 2.80273 9.98438 2.97852C9.98438 3.1543 9.92969 3.30078 9.82031 3.41797C9.71094 3.53516 9.55078 3.59375 9.33984 3.59375C9.12891 3.59375 8.96875 3.53516 8.85938 3.41797C8.75391 3.30078 8.70117 3.1543 8.70117 2.97852ZM15.3047 9.31836C15.3047 9.02539 15.1934 8.79883 14.9707 8.63867C14.752 8.47461 14.3672 8.33398 13.8164 8.2168C13.2695 8.09961 12.834 7.95898 12.5098 7.79492C12.1895 7.63086 11.9512 7.43555 11.7949 7.20898C11.6426 6.98242 11.5664 6.71289 11.5664 6.40039C11.5664 5.88086 11.7852 5.44141 12.2227 5.08203C12.6641 4.72266 13.2266 4.54297 13.9102 4.54297C14.6289 4.54297 15.2109 4.72852 15.6562 5.09961C16.1055 5.4707 16.3301 5.94531 16.3301 6.52344H15.2402C15.2402 6.22656 15.1133 5.9707 14.8594 5.75586C14.6094 5.54102 14.293 5.43359 13.9102 5.43359C13.5156 5.43359 13.207 5.51953 12.9844 5.69141C12.7617 5.86328 12.6504 6.08789 12.6504 6.36523C12.6504 6.62695 12.7539 6.82422 12.9609 6.95703C13.168 7.08984 13.541 7.2168 14.0801 7.33789C14.623 7.45898 15.0625 7.60352 15.3984 7.77148C15.7344 7.93945 15.9824 8.14258 16.1426 8.38086C16.3066 8.61523 16.3887 8.90234 16.3887 9.24219C16.3887 9.80859 16.1621 10.2637 15.709 10.6074C15.2559 10.9473 14.668 11.1172 13.9453 11.1172C13.4375 11.1172 12.9883 11.0273 12.5977 10.8477C12.207 10.668 11.9004 10.418 11.6777 10.0977C11.459 9.77344 11.3496 9.42383 11.3496 9.04883H12.4336C12.4531 9.41211 12.5977 9.70117 12.8672 9.91602C13.1406 10.127 13.5 10.2324 13.9453 10.2324C14.3555 10.2324 14.6836 10.1504 14.9297 9.98633C15.1797 9.81836 15.3047 9.5957 15.3047 9.31836ZM21.7148 11C21.6523 10.875 21.6016 10.6523 21.5625 10.332C21.0586 10.8555 20.457 11.1172 19.7578 11.1172C19.1328 11.1172 18.6191 10.9414 18.2168 10.5898C17.8184 10.2344 17.6191 9.78516 17.6191 9.24219C17.6191 8.58203 17.8691 8.07031 18.3691 7.70703C18.873 7.33984 19.5801 7.15625 20.4902 7.15625H21.5449V6.6582C21.5449 6.2793 21.4316 5.97852 21.2051 5.75586C20.9785 5.5293 20.6445 5.41602 20.2031 5.41602C19.8164 5.41602 19.4922 5.51367 19.2305 5.70898C18.9688 5.9043 18.8379 6.14062 18.8379 6.41797H17.748C17.748 6.10156 17.8594 5.79688 18.082 5.50391C18.3086 5.20703 18.6133 4.97266 18.9961 4.80078C19.3828 4.62891 19.8066 4.54297 20.2676 4.54297C20.998 4.54297 21.5703 4.72656 21.9844 5.09375C22.3984 5.45703 22.6133 5.95898 22.6289 6.59961V9.51758C22.6289 10.0996 22.7031 10.5625 22.8516 10.9062V11H21.7148ZM19.916 10.1738C20.2559 10.1738 20.5781 10.0859 20.8828 9.91016C21.1875 9.73438 21.4082 9.50586 21.5449 9.22461V7.92383H20.6953C19.3672 7.92383 18.7031 8.3125 18.7031 9.08984C18.7031 9.42969 18.8164 9.69531 19.043 9.88672C19.2695 10.0781 19.5605 10.1738 19.916 10.1738ZM29.6953 7.90039C29.6953 8.86914 29.4727 9.64844 29.0273 10.2383C28.582 10.8242 27.9844 11.1172 27.2344 11.1172C26.4336 11.1172 25.8145 10.834 25.377 10.2676L25.3242 11H24.3281V2H25.4121V5.35742C25.8496 4.81445 26.4531 4.54297 27.2227 4.54297C27.9922 4.54297 28.5957 4.83398 29.0332 5.41602C29.4746 5.99805 29.6953 6.79492 29.6953 7.80664V7.90039ZM28.6113 7.77734C28.6113 7.03906 28.4688 6.46875 28.1836 6.06641C27.8984 5.66406 27.4883 5.46289 26.9531 5.46289C26.2383 5.46289 25.7246 5.79492 25.4121 6.45898V9.20117C25.7441 9.86523 26.2617 10.1973 26.9648 10.1973C27.4844 10.1973 27.8887 9.99609 28.1777 9.59375C28.4668 9.19141 28.6113 8.58594 28.6113 7.77734ZM32.2441 11H31.1602V2H32.2441V11ZM36.6152 11.1172C35.7559 11.1172 35.0566 10.8359 34.5176 10.2734C33.9785 9.70703 33.709 8.95117 33.709 8.00586V7.80664C33.709 7.17773 33.8281 6.61719 34.0664 6.125C34.3086 5.62891 34.6445 5.24219 35.0742 4.96484C35.5078 4.68359 35.9766 4.54297 36.4805 4.54297C37.3047 4.54297 37.9453 4.81445 38.4023 5.35742C38.8594 5.90039 39.0879 6.67773 39.0879 7.68945V8.14062H34.793C34.8086 8.76562 34.9902 9.27148 35.3379 9.6582C35.6895 10.041 36.1348 10.2324 36.6738 10.2324C37.0566 10.2324 37.3809 10.1543 37.6465 9.99805C37.9121 9.8418 38.1445 9.63477 38.3438 9.37695L39.0059 9.89258C38.4746 10.709 37.6777 11.1172 36.6152 11.1172ZM36.4805 5.43359C36.043 5.43359 35.6758 5.59375 35.3789 5.91406C35.082 6.23047 34.8984 6.67578 34.8281 7.25H38.0039V7.16797C37.9727 6.61719 37.8242 6.19141 37.5586 5.89062C37.293 5.58594 36.9336 5.43359 36.4805 5.43359ZM40.084 7.77734C40.084 6.80469 40.3145 6.02344 40.7754 5.43359C41.2363 4.83984 41.8398 4.54297 42.5859 4.54297C43.3281 4.54297 43.916 4.79688 44.3496 5.30469V2H45.4336V11H44.4375L44.3848 10.3203C43.9512 10.8516 43.3477 11.1172 42.5742 11.1172C41.8398 11.1172 41.2402 10.8164 40.7754 10.2148C40.3145 9.61328 40.084 8.82812 40.084 7.85938V7.77734ZM41.168 7.90039C41.168 8.61914 41.3164 9.18164 41.6133 9.58789C41.9102 9.99414 42.3203 10.1973 42.8438 10.1973C43.5312 10.1973 44.0332 9.88867 44.3496 9.27148V6.35938C44.0254 5.76172 43.5273 5.46289 42.8555 5.46289C42.3242 5.46289 41.9102 5.66797 41.6133 6.07812C41.3164 6.48828 41.168 7.0957 41.168 7.90039Z" fill="#6F89A1"/>
</svg>
