<svg width="452" height="48" viewBox="0 0 452 48" fill="none" xmlns="http://www.w3.org/2000/svg">
<rect x="0.5" y="20.5" width="451" height="27" rx="3.5" fill="white"/>
<path d="M15.4512 38.1172C14.5918 38.1172 13.8926 37.8359 13.3535 37.2734C12.8145 36.707 12.5449 35.9512 12.5449 35.0059V34.8066C12.5449 34.1777 12.6641 33.6172 12.9023 33.125C13.1445 32.6289 13.4805 32.2422 13.9102 31.9648C14.3438 31.6836 14.8125 31.543 15.3164 31.543C16.1406 31.543 16.7812 31.8145 17.2383 32.3574C17.6953 32.9004 17.9238 33.6777 17.9238 34.6895V35.1406H13.6289C13.6445 35.7656 13.8262 36.2715 14.1738 36.6582C14.5254 37.041 14.9707 37.2324 15.5098 37.2324C15.8926 37.2324 16.2168 37.1543 16.4824 36.998C16.748 36.8418 16.9805 36.6348 17.1797 36.377L17.8418 36.8926C17.3105 37.709 16.5137 38.1172 15.4512 38.1172ZM15.3164 32.4336C14.8789 32.4336 14.5117 32.5938 14.2148 32.9141C13.918 33.2305 13.7344 33.6758 13.6641 34.25H16.8398V34.168C16.8086 33.6172 16.6602 33.1914 16.3945 32.8906C16.1289 32.5859 15.7695 32.4336 15.3164 32.4336ZM19.207 37.4316C19.207 37.2441 19.2617 37.0879 19.3711 36.9629C19.4844 36.8379 19.6523 36.7754 19.875 36.7754C20.0977 36.7754 20.2656 36.8379 20.3789 36.9629C20.4961 37.0879 20.5547 37.2441 20.5547 37.4316C20.5547 37.6113 20.4961 37.7617 20.3789 37.8828C20.2656 38.0039 20.0977 38.0645 19.875 38.0645C19.6523 38.0645 19.4844 38.0039 19.3711 37.8828C19.2617 37.7617 19.207 37.6113 19.207 37.4316ZM22.0898 34.7773C22.0898 33.7891 22.3184 33.0039 22.7754 32.4219C23.2324 31.8359 23.8379 31.543 24.5918 31.543C25.3652 31.543 25.9688 31.8164 26.4023 32.3633L26.4551 31.6602H27.4453V37.8477C27.4453 38.668 27.2012 39.3145 26.7129 39.7871C26.2285 40.2598 25.5762 40.4961 24.7559 40.4961C24.2988 40.4961 23.8516 40.3984 23.4141 40.2031C22.9766 40.0078 22.6426 39.7402 22.4121 39.4004L22.9746 38.75C23.4395 39.3242 24.0078 39.6113 24.6797 39.6113C25.207 39.6113 25.6172 39.4629 25.9102 39.166C26.207 38.8691 26.3555 38.4512 26.3555 37.9121V37.3672C25.9219 37.8672 25.3301 38.1172 24.5801 38.1172C23.8379 38.1172 23.2363 37.8184 22.7754 37.2207C22.3184 36.623 22.0898 35.8086 22.0898 34.7773ZM23.1797 34.9004C23.1797 35.6152 23.3262 36.1777 23.6191 36.5879C23.9121 36.9941 24.3223 37.1973 24.8496 37.1973C25.5332 37.1973 26.0352 36.8867 26.3555 36.2656V33.3711C26.0234 32.7656 25.5254 32.4629 24.8613 32.4629C24.334 32.4629 23.9219 32.668 23.625 33.0781C23.3281 33.4883 23.1797 34.0957 23.1797 34.9004ZM29.1094 37.4316C29.1094 37.2441 29.1641 37.0879 29.2734 36.9629C29.3867 36.8379 29.5547 36.7754 29.7773 36.7754C30 36.7754 30.168 36.8379 30.2812 36.9629C30.3984 37.0879 30.457 37.2441 30.457 37.4316C30.457 37.6113 30.3984 37.7617 30.2812 37.8828C30.168 38.0039 30 38.0645 29.7773 38.0645C29.5547 38.0645 29.3867 38.0039 29.2734 37.8828C29.1641 37.7617 29.1094 37.6113 29.1094 37.4316ZM32.2148 39.6992L31.5996 39.2773C31.9668 38.7656 32.1582 38.2383 32.1738 37.6953V36.7168H33.2344V37.5664C33.2344 37.9609 33.1367 38.3555 32.9414 38.75C32.75 39.1445 32.5078 39.4609 32.2148 39.6992ZM39.2051 29.4688L41.9941 36.4297L44.7832 29.4688H46.2422V38H45.1172V34.6777L45.2227 31.0918L42.4219 38H41.5605L38.7656 31.1094L38.877 34.6777V38H37.752V29.4688H39.2051ZM47.7715 34.7715C47.7715 34.1504 47.8926 33.5918 48.1348 33.0957C48.3809 32.5996 48.7207 32.2168 49.1543 31.9473C49.5918 31.6777 50.0898 31.543 50.6484 31.543C51.5117 31.543 52.209 31.8418 52.7402 32.4395C53.2754 33.0371 53.543 33.832 53.543 34.8242V34.9004C53.543 35.5176 53.4238 36.0723 53.1855 36.5645C52.9512 37.0527 52.6133 37.4336 52.1719 37.707C51.7344 37.9805 51.2305 38.1172 50.6602 38.1172C49.8008 38.1172 49.1035 37.8184 48.5684 37.2207C48.0371 36.623 47.7715 35.832 47.7715 34.8477V34.7715ZM48.8613 34.9004C48.8613 35.6035 49.0234 36.168 49.3477 36.5938C49.6758 37.0195 50.1133 37.2324 50.6602 37.2324C51.2109 37.2324 51.6484 37.0176 51.9727 36.5879C52.2969 36.1543 52.459 35.5488 52.459 34.7715C52.459 34.0762 52.293 33.5137 51.9609 33.084C51.6328 32.6504 51.1953 32.4336 50.6484 32.4336C50.1133 32.4336 49.6816 32.6465 49.3535 33.0723C49.0254 33.498 48.8613 34.1074 48.8613 34.9004ZM55.9863 32.4277C56.4668 31.8379 57.0918 31.543 57.8613 31.543C59.2012 31.543 59.877 32.2988 59.8887 33.8105V38H58.8047V33.8047C58.8008 33.3477 58.6953 33.0098 58.4883 32.791C58.2852 32.5723 57.9668 32.4629 57.5332 32.4629C57.1816 32.4629 56.873 32.5566 56.6074 32.7441C56.3418 32.9316 56.1348 33.1777 55.9863 33.4824V38H54.9023V29H55.9863V32.4277ZM65.4258 38C65.3633 37.875 65.3125 37.6523 65.2734 37.332C64.7695 37.8555 64.168 38.1172 63.4688 38.1172C62.8438 38.1172 62.3301 37.9414 61.9277 37.5898C61.5293 37.2344 61.3301 36.7852 61.3301 36.2422C61.3301 35.582 61.5801 35.0703 62.0801 34.707C62.584 34.3398 63.291 34.1562 64.2012 34.1562H65.2559V33.6582C65.2559 33.2793 65.1426 32.9785 64.916 32.7559C64.6895 32.5293 64.3555 32.416 63.9141 32.416C63.5273 32.416 63.2031 32.5137 62.9414 32.709C62.6797 32.9043 62.5488 33.1406 62.5488 33.418H61.459C61.459 33.1016 61.5703 32.7969 61.793 32.5039C62.0195 32.207 62.3242 31.9727 62.707 31.8008C63.0938 31.6289 63.5176 31.543 63.9785 31.543C64.709 31.543 65.2812 31.7266 65.6953 32.0938C66.1094 32.457 66.3242 32.959 66.3398 33.5996V36.5176C66.3398 37.0996 66.4141 37.5625 66.5625 37.9062V38H65.4258ZM63.627 37.1738C63.9668 37.1738 64.2891 37.0859 64.5938 36.9102C64.8984 36.7344 65.1191 36.5059 65.2559 36.2246V34.9238H64.4062C63.0781 34.9238 62.4141 35.3125 62.4141 36.0898C62.4141 36.4297 62.5273 36.6953 62.7539 36.8867C62.9805 37.0781 63.2715 37.1738 63.627 37.1738ZM69.0586 31.6602L69.0879 32.3633C69.5527 31.8164 70.1797 31.543 70.9688 31.543C71.8555 31.543 72.459 31.8828 72.7793 32.5625C72.9902 32.2578 73.2637 32.0117 73.5996 31.8242C73.9395 31.6367 74.3398 31.543 74.8008 31.543C76.1914 31.543 76.8984 32.2793 76.9219 33.752V38H75.8379V33.8164C75.8379 33.3633 75.7344 33.0254 75.5273 32.8027C75.3203 32.5762 74.9727 32.4629 74.4844 32.4629C74.082 32.4629 73.748 32.584 73.4824 32.8262C73.2168 33.0645 73.0625 33.3867 73.0195 33.793V38H71.9297V33.8457C71.9297 32.9238 71.4785 32.4629 70.5762 32.4629C69.8652 32.4629 69.3789 32.7656 69.1172 33.3711V38H68.0332V31.6602H69.0586ZM79.582 31.6602L79.6113 32.3633C80.0762 31.8164 80.7031 31.543 81.4922 31.543C82.3789 31.543 82.9824 31.8828 83.3027 32.5625C83.5137 32.2578 83.7871 32.0117 84.123 31.8242C84.4629 31.6367 84.8633 31.543 85.3242 31.543C86.7148 31.543 87.4219 32.2793 87.4453 33.752V38H86.3613V33.8164C86.3613 33.3633 86.2578 33.0254 86.0508 32.8027C85.8438 32.5762 85.4961 32.4629 85.0078 32.4629C84.6055 32.4629 84.2715 32.584 84.0059 32.8262C83.7402 33.0645 83.5859 33.3867 83.543 33.793V38H82.4531V33.8457C82.4531 32.9238 82.002 32.4629 81.0996 32.4629C80.3887 32.4629 79.9023 32.7656 79.6406 33.3711V38H78.5566V31.6602H79.582ZM91.7168 38.1172C90.8574 38.1172 90.1582 37.8359 89.6191 37.2734C89.0801 36.707 88.8105 35.9512 88.8105 35.0059V34.8066C88.8105 34.1777 88.9297 33.6172 89.168 33.125C89.4102 32.6289 89.7461 32.2422 90.1758 31.9648C90.6094 31.6836 91.0781 31.543 91.582 31.543C92.4062 31.543 93.0469 31.8145 93.5039 32.3574C93.9609 32.9004 94.1895 33.6777 94.1895 34.6895V35.1406H89.8945C89.9102 35.7656 90.0918 36.2715 90.4395 36.6582C90.791 37.041 91.2363 37.2324 91.7754 37.2324C92.1582 37.2324 92.4824 37.1543 92.748 36.998C93.0137 36.8418 93.2461 36.6348 93.4453 36.377L94.1074 36.8926C93.5762 37.709 92.7793 38.1172 91.7168 38.1172ZM91.582 32.4336C91.1445 32.4336 90.7773 32.5938 90.4805 32.9141C90.1836 33.2305 90 33.6758 89.9297 34.25H93.1055V34.168C93.0742 33.6172 92.9258 33.1914 92.6602 32.8906C92.3945 32.5859 92.0352 32.4336 91.582 32.4336ZM95.1855 34.7773C95.1855 33.8047 95.416 33.0234 95.877 32.4336C96.3379 31.8398 96.9414 31.543 97.6875 31.543C98.4297 31.543 99.0176 31.7969 99.4512 32.3047V29H100.535V38H99.5391L99.4863 37.3203C99.0527 37.8516 98.4492 38.1172 97.6758 38.1172C96.9414 38.1172 96.3418 37.8164 95.877 37.2148C95.416 36.6133 95.1855 35.8281 95.1855 34.8594V34.7773ZM96.2695 34.9004C96.2695 35.6191 96.418 36.1816 96.7148 36.5879C97.0117 36.9941 97.4219 37.1973 97.9453 37.1973C98.6328 37.1973 99.1348 36.8887 99.4512 36.2715V33.3594C99.127 32.7617 98.6289 32.4629 97.957 32.4629C97.4258 32.4629 97.0117 32.668 96.7148 33.0781C96.418 33.4883 96.2695 34.0957 96.2695 34.9004ZM110.08 35.7734H106.506L105.703 38H104.543L107.801 29.4688H108.785L112.049 38H110.895L110.08 35.7734ZM106.846 34.8477H109.746L108.293 30.8574L106.846 34.8477ZM114.797 35.0645L114.117 35.7734V38H113.033V29H114.117V34.4434L114.697 33.7461L116.672 31.6602H117.99L115.523 34.3086L118.277 38H117.006L114.797 35.0645ZM120.879 35.0645L120.199 35.7734V38H119.115V29H120.199V34.4434L120.779 33.7461L122.754 31.6602H124.072L121.605 34.3086L124.359 38H123.088L120.879 35.0645ZM129.105 38C129.043 37.875 128.992 37.6523 128.953 37.332C128.449 37.8555 127.848 38.1172 127.148 38.1172C126.523 38.1172 126.01 37.9414 125.607 37.5898C125.209 37.2344 125.01 36.7852 125.01 36.2422C125.01 35.582 125.26 35.0703 125.76 34.707C126.264 34.3398 126.971 34.1562 127.881 34.1562H128.936V33.6582C128.936 33.2793 128.822 32.9785 128.596 32.7559C128.369 32.5293 128.035 32.416 127.594 32.416C127.207 32.416 126.883 32.5137 126.621 32.709C126.359 32.9043 126.229 33.1406 126.229 33.418H125.139C125.139 33.1016 125.25 32.7969 125.473 32.5039C125.699 32.207 126.004 31.9727 126.387 31.8008C126.773 31.6289 127.197 31.543 127.658 31.543C128.389 31.543 128.961 31.7266 129.375 32.0938C129.789 32.457 130.004 32.959 130.02 33.5996V36.5176C130.02 37.0996 130.094 37.5625 130.242 37.9062V38H129.105ZM127.307 37.1738C127.646 37.1738 127.969 37.0859 128.273 36.9102C128.578 36.7344 128.799 36.5059 128.936 36.2246V34.9238H128.086C126.758 34.9238 126.094 35.3125 126.094 36.0898C126.094 36.4297 126.207 36.6953 126.434 36.8867C126.66 37.0781 126.951 37.1738 127.307 37.1738ZM134.783 32.6328C134.619 32.6055 134.441 32.5918 134.25 32.5918C133.539 32.5918 133.057 32.8945 132.803 33.5V38H131.719V31.6602H132.773L132.791 32.3926C133.146 31.8262 133.65 31.543 134.303 31.543C134.514 31.543 134.674 31.5703 134.783 31.625V32.6328Z" fill="#B4B4B4"/>
<rect x="0.5" y="20.5" width="451" height="27" rx="3.5" stroke="#B7C4D0"/>
<path d="M18.3281 7.38525H14.939V10.1567H18.876V11H13.9077V3.17969H18.8223V4.02832H14.939V6.54199H18.3281V7.38525ZM20.9385 5.18848L20.9653 5.83301C21.3914 5.33171 21.9661 5.08105 22.6895 5.08105C23.5023 5.08105 24.0555 5.39258 24.3491 6.01562C24.5425 5.73633 24.7931 5.51074 25.1011 5.33887C25.4126 5.16699 25.7796 5.08105 26.2021 5.08105C27.4769 5.08105 28.125 5.75602 28.1465 7.10596V11H27.1528V7.16504C27.1528 6.74967 27.0579 6.43994 26.8682 6.23584C26.6784 6.02816 26.3597 5.92432 25.9121 5.92432C25.5433 5.92432 25.2371 6.03532 24.9937 6.25732C24.7502 6.47575 24.6087 6.77116 24.5693 7.14355V11H23.5703V7.19189C23.5703 6.34684 23.1567 5.92432 22.3296 5.92432C21.6779 5.92432 21.2321 6.20182 20.9922 6.75684V11H19.9985V5.18848H20.9385ZM34.5596 8.15869C34.5596 9.04313 34.3573 9.7557 33.9526 10.2964C33.548 10.8371 33.0002 11.1074 32.3091 11.1074C31.6037 11.1074 31.0487 10.8836 30.644 10.436V13.2344H29.6504V5.18848H30.5581L30.6064 5.83301C31.0111 5.33171 31.5732 5.08105 32.293 5.08105C32.9912 5.08105 33.5426 5.34424 33.9473 5.87061C34.3555 6.39697 34.5596 7.12923 34.5596 8.06738V8.15869ZM33.5659 8.0459C33.5659 7.39062 33.4263 6.87321 33.147 6.49365C32.8677 6.1141 32.4845 5.92432 31.9976 5.92432C31.396 5.92432 30.9448 6.19108 30.644 6.72461V9.50146C30.9412 10.0314 31.396 10.2964 32.0083 10.2964C32.4845 10.2964 32.8623 10.1084 33.1416 9.73242C33.4245 9.35286 33.5659 8.79069 33.5659 8.0459ZM37.1753 3.78125V5.18848H38.2603V5.95654H37.1753V9.56055C37.1753 9.79329 37.2236 9.96875 37.3203 10.0869C37.417 10.2015 37.5817 10.2588 37.8145 10.2588C37.929 10.2588 38.0866 10.2373 38.2871 10.1943V11C38.0257 11.0716 37.7715 11.1074 37.5244 11.1074C37.0804 11.1074 36.7456 10.9731 36.52 10.7046C36.2944 10.436 36.1816 10.0547 36.1816 9.56055V5.95654H35.1235V5.18848H36.1816V3.78125H37.1753ZM41.3271 9.54443L42.6807 5.18848H43.7441L41.4077 11.897C41.0461 12.8638 40.4714 13.3472 39.6836 13.3472L39.4956 13.3311L39.125 13.2612V12.4556L39.3936 12.4771C39.7301 12.4771 39.9915 12.409 40.1777 12.2729C40.3675 12.1369 40.5233 11.888 40.645 11.5264L40.8652 10.9355L38.792 5.18848H39.877L41.3271 9.54443Z" fill="#6F89A1"/>
<path fill-rule="evenodd" clip-rule="evenodd" d="M4.5 11C6.98528 11 9 8.98528 9 6.5C9 4.01472 6.98528 2 4.5 2C2.01472 2 0 4.01472 0 6.5C0 8.98528 2.01472 11 4.5 11ZM4.5 11L3.64058 7.98857L0.602886 8.75L2.78115 6.5L0.602886 4.25L3.64058 5.01143L4.5 2L5.35942 5.01143L8.39711 4.25L6.21885 6.5L8.39711 8.75L5.35942 7.98857L4.5 11Z" fill="#6F89A1"/>
</svg>
