<svg width="79" height="32" viewBox="0 0 79 32" fill="none" xmlns="http://www.w3.org/2000/svg">
<path d="M0 16C0 7.16344 7.16344 0 16 0H63C71.8366 0 79 7.16344 79 16C79 24.8366 71.8366 32 63 32H16C7.16344 32 0 24.8366 0 16Z" fill="#005BD1"/>
<path d="M19.1152 15.2646H20.127C20.6374 15.2601 21.0407 15.1279 21.3369 14.8682C21.6377 14.6084 21.7881 14.2324 21.7881 13.7402C21.7881 13.2663 21.6628 12.8994 21.4121 12.6396C21.166 12.3753 20.7878 12.2432 20.2773 12.2432C19.8307 12.2432 19.4639 12.373 19.1768 12.6328C18.8896 12.888 18.7461 13.223 18.7461 13.6377H17.085C17.085 13.1273 17.2194 12.6624 17.4883 12.2432C17.7617 11.8239 18.14 11.498 18.623 11.2656C19.1107 11.0286 19.6553 10.9102 20.2568 10.9102C21.2503 10.9102 22.0296 11.1608 22.5947 11.6621C23.1644 12.1589 23.4492 12.8516 23.4492 13.7402C23.4492 14.1868 23.3057 14.6084 23.0186 15.0049C22.736 15.3968 22.3691 15.693 21.918 15.8936C22.4648 16.0804 22.8796 16.3743 23.1621 16.7754C23.4492 17.1764 23.5928 17.6549 23.5928 18.2109C23.5928 19.1042 23.2852 19.8151 22.6699 20.3438C22.0592 20.8724 21.2549 21.1367 20.2568 21.1367C19.2998 21.1367 18.516 20.8815 17.9053 20.3711C17.2946 19.8607 16.9893 19.1816 16.9893 18.334H18.6504C18.6504 18.7715 18.7962 19.127 19.0879 19.4004C19.3841 19.6738 19.7806 19.8105 20.2773 19.8105C20.7923 19.8105 21.1979 19.6738 21.4941 19.4004C21.7904 19.127 21.9385 18.7305 21.9385 18.2109C21.9385 17.6868 21.7835 17.2835 21.4736 17.001C21.1637 16.7184 20.7035 16.5771 20.0928 16.5771H19.1152V15.2646ZM31.8438 21H25.1514V19.8584L28.4668 16.2422C28.9453 15.709 29.2848 15.2646 29.4854 14.9092C29.6904 14.5492 29.793 14.1891 29.793 13.8291C29.793 13.3551 29.6585 12.9723 29.3896 12.6807C29.1253 12.389 28.7676 12.2432 28.3164 12.2432C27.7786 12.2432 27.3617 12.4072 27.0654 12.7354C26.7692 13.0635 26.6211 13.5124 26.6211 14.082H24.96C24.96 13.4759 25.0967 12.9313 25.3701 12.4482C25.6481 11.9606 26.0423 11.5824 26.5527 11.3135C27.0677 11.0446 27.6602 10.9102 28.3301 10.9102C29.2962 10.9102 30.0573 11.154 30.6133 11.6416C31.1738 12.1247 31.4541 12.7946 31.4541 13.6514C31.4541 14.1481 31.3128 14.6699 31.0303 15.2168C30.7523 15.7591 30.2943 16.3766 29.6562 17.0693L27.2227 19.6738H31.8438V21ZM43.6426 12.4414H40.5391V21H38.8232V12.4414H35.7471V11.0469H43.6426V12.4414ZM47.4365 21.1367C46.3838 21.1367 45.5293 20.8063 44.873 20.1455C44.2214 19.4801 43.8955 18.596 43.8955 17.4932V17.2881C43.8955 16.5498 44.0368 15.8913 44.3193 15.3125C44.6064 14.7292 45.0075 14.2757 45.5225 13.9521C46.0374 13.6286 46.6117 13.4668 47.2451 13.4668C48.2523 13.4668 49.0293 13.7881 49.5762 14.4307C50.1276 15.0732 50.4033 15.9824 50.4033 17.1582V17.8281H45.5703C45.6204 18.4388 45.8232 18.9219 46.1787 19.2773C46.5387 19.6328 46.9899 19.8105 47.5322 19.8105C48.2933 19.8105 48.9131 19.5029 49.3916 18.8877L50.2871 19.7422C49.9909 20.1842 49.5944 20.5283 49.0977 20.7744C48.6055 21.016 48.0518 21.1367 47.4365 21.1367ZM47.2383 14.7998C46.7826 14.7998 46.4134 14.9593 46.1309 15.2783C45.8529 15.5973 45.6751 16.0417 45.5977 16.6113H48.7627V16.4883C48.7262 15.9323 48.5781 15.513 48.3184 15.2305C48.0586 14.9434 47.6986 14.7998 47.2383 14.7998ZM54.3545 16.0371L55.7627 13.6035H57.6084L55.3457 17.2471L57.6836 21H55.8516L54.375 18.4707L52.9053 21H51.0596L53.3975 17.2471L51.1416 13.6035H52.9736L54.3545 16.0371ZM60.8213 11.8057V13.6035H62.127V14.834H60.8213V18.9629C60.8213 19.2454 60.876 19.4505 60.9854 19.5781C61.0993 19.7012 61.2998 19.7627 61.5869 19.7627C61.7783 19.7627 61.972 19.7399 62.168 19.6943V20.9795C61.7897 21.0843 61.4251 21.1367 61.0742 21.1367C59.7982 21.1367 59.1602 20.4326 59.1602 19.0244V14.834H57.9434V13.6035H59.1602V11.8057H60.8213Z" fill="white"/>
</svg>
