<svg width="452" height="48" viewBox="0 0 452 48" fill="none" xmlns="http://www.w3.org/2000/svg">
<rect x="0.5" y="20.5" width="451" height="27" rx="3.5" fill="white"/>
<path d="M14.4434 29.4688L17.2324 36.4297L20.0215 29.4688H21.4805V38H20.3555V34.6777L20.4609 31.0918L17.6602 38H16.7988L14.0039 31.1094L14.1152 34.6777V38H12.9902V29.4688H14.4434ZM23.0098 34.7715C23.0098 34.1504 23.1309 33.5918 23.373 33.0957C23.6191 32.5996 23.959 32.2168 24.3926 31.9473C24.8301 31.6777 25.3281 31.543 25.8867 31.543C26.75 31.543 27.4473 31.8418 27.9785 32.4395C28.5137 33.0371 28.7812 33.832 28.7812 34.8242V34.9004C28.7812 35.5176 28.6621 36.0723 28.4238 36.5645C28.1895 37.0527 27.8516 37.4336 27.4102 37.707C26.9727 37.9805 26.4688 38.1172 25.8984 38.1172C25.0391 38.1172 24.3418 37.8184 23.8066 37.2207C23.2754 36.623 23.0098 35.832 23.0098 34.8477V34.7715ZM24.0996 34.9004C24.0996 35.6035 24.2617 36.168 24.5859 36.5938C24.9141 37.0195 25.3516 37.2324 25.8984 37.2324C26.4492 37.2324 26.8867 37.0176 27.2109 36.5879C27.5352 36.1543 27.6973 35.5488 27.6973 34.7715C27.6973 34.0762 27.5312 33.5137 27.1992 33.084C26.8711 32.6504 26.4336 32.4336 25.8867 32.4336C25.3516 32.4336 24.9199 32.6465 24.5918 33.0723C24.2637 33.498 24.0996 34.1074 24.0996 34.9004ZM31.2246 32.4277C31.7051 31.8379 32.3301 31.543 33.0996 31.543C34.4395 31.543 35.1152 32.2988 35.127 33.8105V38H34.043V33.8047C34.0391 33.3477 33.9336 33.0098 33.7266 32.791C33.5234 32.5723 33.2051 32.4629 32.7715 32.4629C32.4199 32.4629 32.1113 32.5566 31.8457 32.7441C31.5801 32.9316 31.373 33.1777 31.2246 33.4824V38H30.1406V29H31.2246V32.4277ZM40.6641 38C40.6016 37.875 40.5508 37.6523 40.5117 37.332C40.0078 37.8555 39.4062 38.1172 38.707 38.1172C38.082 38.1172 37.5684 37.9414 37.166 37.5898C36.7676 37.2344 36.5684 36.7852 36.5684 36.2422C36.5684 35.582 36.8184 35.0703 37.3184 34.707C37.8223 34.3398 38.5293 34.1562 39.4395 34.1562H40.4941V33.6582C40.4941 33.2793 40.3809 32.9785 40.1543 32.7559C39.9277 32.5293 39.5938 32.416 39.1523 32.416C38.7656 32.416 38.4414 32.5137 38.1797 32.709C37.918 32.9043 37.7871 33.1406 37.7871 33.418H36.6973C36.6973 33.1016 36.8086 32.7969 37.0312 32.5039C37.2578 32.207 37.5625 31.9727 37.9453 31.8008C38.332 31.6289 38.7559 31.543 39.2168 31.543C39.9473 31.543 40.5195 31.7266 40.9336 32.0938C41.3477 32.457 41.5625 32.959 41.5781 33.5996V36.5176C41.5781 37.0996 41.6523 37.5625 41.8008 37.9062V38H40.6641ZM38.8652 37.1738C39.2051 37.1738 39.5273 37.0859 39.832 36.9102C40.1367 36.7344 40.3574 36.5059 40.4941 36.2246V34.9238H39.6445C38.3164 34.9238 37.6523 35.3125 37.6523 36.0898C37.6523 36.4297 37.7656 36.6953 37.9922 36.8867C38.2188 37.0781 38.5098 37.1738 38.8652 37.1738ZM44.2969 31.6602L44.3262 32.3633C44.791 31.8164 45.418 31.543 46.207 31.543C47.0938 31.543 47.6973 31.8828 48.0176 32.5625C48.2285 32.2578 48.502 32.0117 48.8379 31.8242C49.1777 31.6367 49.5781 31.543 50.0391 31.543C51.4297 31.543 52.1367 32.2793 52.1602 33.752V38H51.0762V33.8164C51.0762 33.3633 50.9727 33.0254 50.7656 32.8027C50.5586 32.5762 50.2109 32.4629 49.7227 32.4629C49.3203 32.4629 48.9863 32.584 48.7207 32.8262C48.4551 33.0645 48.3008 33.3867 48.2578 33.793V38H47.168V33.8457C47.168 32.9238 46.7168 32.4629 45.8145 32.4629C45.1035 32.4629 44.6172 32.7656 44.3555 33.3711V38H43.2715V31.6602H44.2969ZM54.8203 31.6602L54.8496 32.3633C55.3145 31.8164 55.9414 31.543 56.7305 31.543C57.6172 31.543 58.2207 31.8828 58.541 32.5625C58.752 32.2578 59.0254 32.0117 59.3613 31.8242C59.7012 31.6367 60.1016 31.543 60.5625 31.543C61.9531 31.543 62.6602 32.2793 62.6836 33.752V38H61.5996V33.8164C61.5996 33.3633 61.4961 33.0254 61.2891 32.8027C61.082 32.5762 60.7344 32.4629 60.2461 32.4629C59.8438 32.4629 59.5098 32.584 59.2441 32.8262C58.9785 33.0645 58.8242 33.3867 58.7812 33.793V38H57.6914V33.8457C57.6914 32.9238 57.2402 32.4629 56.3379 32.4629C55.627 32.4629 55.1406 32.7656 54.8789 33.3711V38H53.7949V31.6602H54.8203ZM66.9551 38.1172C66.0957 38.1172 65.3965 37.8359 64.8574 37.2734C64.3184 36.707 64.0488 35.9512 64.0488 35.0059V34.8066C64.0488 34.1777 64.168 33.6172 64.4062 33.125C64.6484 32.6289 64.9844 32.2422 65.4141 31.9648C65.8477 31.6836 66.3164 31.543 66.8203 31.543C67.6445 31.543 68.2852 31.8145 68.7422 32.3574C69.1992 32.9004 69.4277 33.6777 69.4277 34.6895V35.1406H65.1328C65.1484 35.7656 65.3301 36.2715 65.6777 36.6582C66.0293 37.041 66.4746 37.2324 67.0137 37.2324C67.3965 37.2324 67.7207 37.1543 67.9863 36.998C68.252 36.8418 68.4844 36.6348 68.6836 36.377L69.3457 36.8926C68.8145 37.709 68.0176 38.1172 66.9551 38.1172ZM66.8203 32.4336C66.3828 32.4336 66.0156 32.5938 65.7188 32.9141C65.4219 33.2305 65.2383 33.6758 65.168 34.25H68.3438V34.168C68.3125 33.6172 68.1641 33.1914 67.8984 32.8906C67.6328 32.5859 67.2734 32.4336 66.8203 32.4336ZM70.4238 34.7773C70.4238 33.8047 70.6543 33.0234 71.1152 32.4336C71.5762 31.8398 72.1797 31.543 72.9258 31.543C73.668 31.543 74.2559 31.7969 74.6895 32.3047V29H75.7734V38H74.7773L74.7246 37.3203C74.291 37.8516 73.6875 38.1172 72.9141 38.1172C72.1797 38.1172 71.5801 37.8164 71.1152 37.2148C70.6543 36.6133 70.4238 35.8281 70.4238 34.8594V34.7773ZM71.5078 34.9004C71.5078 35.6191 71.6562 36.1816 71.9531 36.5879C72.25 36.9941 72.6602 37.1973 73.1836 37.1973C73.8711 37.1973 74.373 36.8887 74.6895 36.2715V33.3594C74.3652 32.7617 73.8672 32.4629 73.1953 32.4629C72.6641 32.4629 72.25 32.668 71.9531 33.0781C71.6562 33.4883 71.5078 34.0957 71.5078 34.9004ZM85.3184 35.7734H81.7441L80.9414 38H79.7812L83.0391 29.4688H84.0234L87.2871 38H86.1328L85.3184 35.7734ZM82.084 34.8477H84.9844L83.5312 30.8574L82.084 34.8477ZM90.0352 35.0645L89.3555 35.7734V38H88.2715V29H89.3555V34.4434L89.9355 33.7461L91.9102 31.6602H93.2285L90.7617 34.3086L93.5156 38H92.2441L90.0352 35.0645ZM96.1172 35.0645L95.4375 35.7734V38H94.3535V29H95.4375V34.4434L96.0176 33.7461L97.9922 31.6602H99.3105L96.8438 34.3086L99.5977 38H98.3262L96.1172 35.0645ZM104.344 38C104.281 37.875 104.23 37.6523 104.191 37.332C103.688 37.8555 103.086 38.1172 102.387 38.1172C101.762 38.1172 101.248 37.9414 100.846 37.5898C100.447 37.2344 100.248 36.7852 100.248 36.2422C100.248 35.582 100.498 35.0703 100.998 34.707C101.502 34.3398 102.209 34.1562 103.119 34.1562H104.174V33.6582C104.174 33.2793 104.061 32.9785 103.834 32.7559C103.607 32.5293 103.273 32.416 102.832 32.416C102.445 32.416 102.121 32.5137 101.859 32.709C101.598 32.9043 101.467 33.1406 101.467 33.418H100.377C100.377 33.1016 100.488 32.7969 100.711 32.5039C100.938 32.207 101.242 31.9727 101.625 31.8008C102.012 31.6289 102.436 31.543 102.896 31.543C103.627 31.543 104.199 31.7266 104.613 32.0938C105.027 32.457 105.242 32.959 105.258 33.5996V36.5176C105.258 37.0996 105.332 37.5625 105.48 37.9062V38H104.344ZM102.545 37.1738C102.885 37.1738 103.207 37.0859 103.512 36.9102C103.816 36.7344 104.037 36.5059 104.174 36.2246V34.9238H103.324C101.996 34.9238 101.332 35.3125 101.332 36.0898C101.332 36.4297 101.445 36.6953 101.672 36.8867C101.898 37.0781 102.189 37.1738 102.545 37.1738ZM110.021 32.6328C109.857 32.6055 109.68 32.5918 109.488 32.5918C108.777 32.5918 108.295 32.8945 108.041 33.5V38H106.957V31.6602H108.012L108.029 32.3926C108.385 31.8262 108.889 31.543 109.541 31.543C109.752 31.543 109.912 31.5703 110.021 31.625V32.6328Z" fill="#404040"/>
<rect x="0.5" y="20.5" width="451" height="27" rx="3.5" stroke="#0371FF"/>
<path d="M18.2261 8.95898H14.9497L14.2139 11H13.1504L16.1367 3.17969H17.0391L20.0308 11H18.9727L18.2261 8.95898ZM15.2612 8.11035H17.9199L16.5879 4.45264L15.2612 8.11035ZM23.2588 10.2964C23.6133 10.2964 23.923 10.189 24.188 9.97412C24.453 9.75928 24.5998 9.49072 24.6284 9.16846H25.5684C25.5505 9.50146 25.4359 9.81836 25.2246 10.1191C25.0133 10.4199 24.7305 10.6598 24.376 10.8389C24.0251 11.0179 23.6527 11.1074 23.2588 11.1074C22.4674 11.1074 21.8372 10.8442 21.3682 10.3179C20.9027 9.78792 20.6699 9.06462 20.6699 8.14795V7.98145C20.6699 7.41569 20.7738 6.9126 20.9814 6.47217C21.1891 6.03174 21.4863 5.68978 21.873 5.44629C22.2633 5.2028 22.7235 5.08105 23.2534 5.08105C23.9051 5.08105 24.4458 5.2762 24.8755 5.6665C25.3088 6.0568 25.5397 6.56348 25.5684 7.18652H24.6284C24.5998 6.81055 24.4565 6.5026 24.1987 6.2627C23.9445 6.01921 23.6294 5.89746 23.2534 5.89746C22.7485 5.89746 22.3564 6.08008 22.0771 6.44531C21.8014 6.80697 21.6636 7.33154 21.6636 8.01904V8.20703C21.6636 8.87663 21.8014 9.39225 22.0771 9.75391C22.3529 10.1156 22.7467 10.2964 23.2588 10.2964ZM28.0337 3.78125V5.18848H29.1187V5.95654H28.0337V9.56055C28.0337 9.79329 28.082 9.96875 28.1787 10.0869C28.2754 10.2015 28.4401 10.2588 28.6729 10.2588C28.7874 10.2588 28.945 10.2373 29.1455 10.1943V11C28.8841 11.0716 28.6299 11.1074 28.3828 11.1074C27.9388 11.1074 27.604 10.9731 27.3784 10.7046C27.1528 10.436 27.04 10.0547 27.04 9.56055V5.95654H25.9819V5.18848H27.04V3.78125H28.0337ZM31.3638 11H30.3701V5.18848H31.3638V11ZM30.2896 3.64697C30.2896 3.48584 30.3379 3.34977 30.4346 3.23877C30.5348 3.12777 30.6816 3.07227 30.875 3.07227C31.0684 3.07227 31.2152 3.12777 31.3154 3.23877C31.4157 3.34977 31.4658 3.48584 31.4658 3.64697C31.4658 3.80811 31.4157 3.94238 31.3154 4.0498C31.2152 4.15723 31.0684 4.21094 30.875 4.21094C30.6816 4.21094 30.5348 4.15723 30.4346 4.0498C30.3379 3.94238 30.2896 3.80811 30.2896 3.64697ZM34.8765 9.65186L36.3159 5.18848H37.3311L35.2471 11H34.4897L32.3843 5.18848H33.3994L34.8765 9.65186ZM40.6235 11.1074C39.8358 11.1074 39.1948 10.8496 38.7007 10.334C38.2065 9.81478 37.9595 9.12191 37.9595 8.25537V8.07275C37.9595 7.49626 38.0687 6.98242 38.2871 6.53125C38.5091 6.0765 38.8171 5.72201 39.2109 5.46777C39.6084 5.20996 40.0381 5.08105 40.5 5.08105C41.2555 5.08105 41.8428 5.32992 42.2617 5.82764C42.6807 6.32536 42.8901 7.03792 42.8901 7.96533V8.37891H38.9531C38.9674 8.95182 39.134 9.41553 39.4526 9.77002C39.7749 10.1209 40.1831 10.2964 40.6772 10.2964C41.0282 10.2964 41.3254 10.2248 41.5688 10.0815C41.8123 9.93831 42.0254 9.74854 42.208 9.51221L42.8149 9.98486C42.328 10.7332 41.5975 11.1074 40.6235 11.1074ZM40.5 5.89746C40.099 5.89746 39.7624 6.04427 39.4902 6.33789C39.2181 6.62793 39.0498 7.03613 38.9854 7.5625H41.8965V7.4873C41.8678 6.98242 41.7318 6.59212 41.4883 6.31641C41.2448 6.03711 40.9154 5.89746 40.5 5.89746Z" fill="#6F89A1"/>
<path fill-rule="evenodd" clip-rule="evenodd" d="M4.5 11C6.98528 11 9 8.98528 9 6.5C9 4.01472 6.98528 2 4.5 2C2.01472 2 0 4.01472 0 6.5C0 8.98528 2.01472 11 4.5 11ZM4.5 11L3.64058 7.98857L0.602886 8.75L2.78115 6.5L0.602886 4.25L3.64058 5.01143L4.5 2L5.35942 5.01143L8.39711 4.25L6.21885 6.5L8.39711 8.75L5.35942 7.98857L4.5 11Z" fill="#6F89A1"/>
</svg>
