<svg width="320" height="24" viewBox="0 0 320 24" fill="none" xmlns="http://www.w3.org/2000/svg">
<path d="M0 12C0 5.37258 5.37258 0 12 0H308C314.627 0 320 5.37258 320 12V12C320 18.6274 314.627 24 308 24H12C5.37259 24 0 18.6274 0 12V12Z" fill="white"/>
<path d="M37.647 6.75781L40.6685 14.2988L43.6899 6.75781H45.2705V16H44.0518V12.4009L44.166 8.51611L41.1318 16H40.1987L37.1709 8.53516L37.2915 12.4009V16H36.0728V6.75781H37.647ZM46.9272 12.5024C46.9272 11.8296 47.0584 11.2244 47.3208 10.687C47.5874 10.1496 47.9556 9.73486 48.4253 9.44287C48.8993 9.15088 49.4388 9.00488 50.0439 9.00488C50.9792 9.00488 51.7345 9.32861 52.3101 9.97607C52.8898 10.6235 53.1797 11.4847 53.1797 12.5596V12.6421C53.1797 13.3107 53.0506 13.9116 52.7925 14.4448C52.5386 14.9738 52.1725 15.3864 51.6943 15.6826C51.2204 15.9788 50.6745 16.127 50.0566 16.127C49.1257 16.127 48.3703 15.8032 47.7905 15.1558C47.215 14.5083 46.9272 13.6514 46.9272 12.585V12.5024ZM48.1079 12.6421C48.1079 13.4038 48.2835 14.0153 48.6348 14.4766C48.9902 14.9378 49.4642 15.1685 50.0566 15.1685C50.6533 15.1685 51.1273 14.9357 51.4785 14.4702C51.8298 14.0005 52.0054 13.3446 52.0054 12.5024C52.0054 11.7492 51.8255 11.1398 51.4658 10.6743C51.1104 10.2046 50.6364 9.96973 50.0439 9.96973C49.4642 9.96973 48.9966 10.2004 48.6411 10.6616C48.2856 11.1229 48.1079 11.783 48.1079 12.6421ZM55.8267 9.96338C56.3472 9.32438 57.0243 9.00488 57.8579 9.00488C59.3094 9.00488 60.0415 9.82373 60.0542 11.4614V16H58.8799V11.4551C58.8757 10.96 58.7614 10.5939 58.5371 10.3569C58.3171 10.12 57.9722 10.0015 57.5024 10.0015C57.1216 10.0015 56.7873 10.103 56.4995 10.3062C56.2118 10.5093 55.9875 10.7759 55.8267 11.106V16H54.6523V6.25H55.8267V9.96338ZM66.0527 16C65.985 15.8646 65.93 15.6234 65.8877 15.2764C65.3418 15.8434 64.6901 16.127 63.9326 16.127C63.2555 16.127 62.6991 15.9365 62.2632 15.5557C61.8315 15.1706 61.6157 14.6839 61.6157 14.0957C61.6157 13.3805 61.8866 12.8262 62.4282 12.4326C62.9741 12.0348 63.7401 11.8359 64.7261 11.8359H65.8687V11.2964C65.8687 10.8859 65.7459 10.5601 65.5005 10.3188C65.255 10.0734 64.8932 9.95068 64.415 9.95068C63.9961 9.95068 63.6449 10.0565 63.3613 10.2681C63.0778 10.4797 62.936 10.7357 62.936 11.0361H61.7554C61.7554 10.6934 61.876 10.3633 62.1172 10.0459C62.3626 9.72428 62.6927 9.47038 63.1074 9.28418C63.5264 9.09798 63.9855 9.00488 64.4849 9.00488C65.2762 9.00488 65.8962 9.20378 66.3447 9.60156C66.7933 9.99512 67.026 10.5389 67.043 11.2329V14.394C67.043 15.0246 67.1234 15.526 67.2842 15.8984V16H66.0527ZM64.104 15.105C64.4722 15.105 64.8213 15.0098 65.1514 14.8193C65.4814 14.6289 65.7205 14.3813 65.8687 14.0767V12.6675H64.9482C63.5094 12.6675 62.79 13.0885 62.79 13.9307C62.79 14.2988 62.9128 14.5866 63.1582 14.7939C63.4036 15.0013 63.7189 15.105 64.104 15.105ZM69.9883 9.13184L70.02 9.89355C70.5236 9.30111 71.2028 9.00488 72.0576 9.00488C73.0182 9.00488 73.672 9.37305 74.019 10.1094C74.2476 9.7793 74.5438 9.5127 74.9077 9.30957C75.2759 9.10645 75.7096 9.00488 76.209 9.00488C77.7155 9.00488 78.4814 9.80257 78.5068 11.3979V16H77.3325V11.4678C77.3325 10.9769 77.2204 10.6108 76.9961 10.3696C76.7718 10.1242 76.3952 10.0015 75.8662 10.0015C75.4303 10.0015 75.0685 10.1326 74.7808 10.395C74.493 10.6532 74.3258 11.0023 74.2793 11.4424V16H73.0986V11.4995C73.0986 10.5008 72.6099 10.0015 71.6323 10.0015C70.8621 10.0015 70.3353 10.3294 70.0518 10.9854V16H68.8774V9.13184H69.9883ZM81.3887 9.13184L81.4204 9.89355C81.924 9.30111 82.6032 9.00488 83.458 9.00488C84.4186 9.00488 85.0724 9.37305 85.4194 10.1094C85.6479 9.7793 85.9442 9.5127 86.3081 9.30957C86.6763 9.10645 87.11 9.00488 87.6094 9.00488C89.1159 9.00488 89.8818 9.80257 89.9072 11.3979V16H88.7329V11.4678C88.7329 10.9769 88.6208 10.6108 88.3965 10.3696C88.1722 10.1242 87.7956 10.0015 87.2666 10.0015C86.8307 10.0015 86.4689 10.1326 86.1812 10.395C85.8934 10.6532 85.7262 11.0023 85.6797 11.4424V16H84.499V11.4995C84.499 10.5008 84.0103 10.0015 83.0327 10.0015C82.2625 10.0015 81.7357 10.3294 81.4521 10.9854V16H80.2778V9.13184H81.3887ZM94.5347 16.127C93.6037 16.127 92.8462 15.8223 92.2622 15.2129C91.6782 14.5993 91.3862 13.7804 91.3862 12.7563V12.5405C91.3862 11.8592 91.5153 11.252 91.7734 10.7188C92.0358 10.1813 92.3997 9.76237 92.8652 9.46191C93.335 9.15723 93.8428 9.00488 94.3887 9.00488C95.2816 9.00488 95.9756 9.29899 96.4707 9.88721C96.9658 10.4754 97.2134 11.3175 97.2134 12.4136V12.9023H92.5605C92.5775 13.5794 92.7743 14.1274 93.1509 14.5464C93.5317 14.9611 94.0142 15.1685 94.5981 15.1685C95.0129 15.1685 95.3641 15.0838 95.6519 14.9146C95.9396 14.7453 96.1914 14.521 96.4072 14.2417L97.1245 14.8003C96.549 15.6847 95.6857 16.127 94.5347 16.127ZM94.3887 9.96973C93.9147 9.96973 93.5169 10.1432 93.1953 10.4902C92.8737 10.833 92.6748 11.3154 92.5986 11.9375H96.0391V11.8486C96.0052 11.252 95.8444 10.7907 95.5566 10.4648C95.2689 10.1348 94.8796 9.96973 94.3887 9.96973ZM98.2925 12.5088C98.2925 11.4551 98.5422 10.6087 99.0415 9.96973C99.5409 9.3265 100.195 9.00488 101.003 9.00488C101.807 9.00488 102.444 9.27995 102.914 9.83008V6.25H104.088V16H103.009L102.952 15.2637C102.482 15.8392 101.828 16.127 100.99 16.127C100.195 16.127 99.5451 15.8011 99.0415 15.1494C98.5422 14.4977 98.2925 13.6471 98.2925 12.5977V12.5088ZM99.4668 12.6421C99.4668 13.4207 99.6276 14.0301 99.9492 14.4702C100.271 14.9103 100.715 15.1304 101.282 15.1304C102.027 15.1304 102.571 14.7961 102.914 14.1274V10.9727C102.562 10.3252 102.023 10.0015 101.295 10.0015C100.719 10.0015 100.271 10.2236 99.9492 10.668C99.6276 11.1123 99.4668 11.7703 99.4668 12.6421ZM114.428 13.5879H110.556L109.687 16H108.43L111.959 6.75781H113.025L116.561 16H115.311L114.428 13.5879ZM110.924 12.585H114.066L112.492 8.26221L110.924 12.585ZM119.538 12.8198L118.802 13.5879V16H117.627V6.25H118.802V12.147L119.43 11.3916L121.569 9.13184H122.998L120.325 12.001L123.309 16H121.931L119.538 12.8198ZM126.127 12.8198L125.391 13.5879V16H124.216V6.25H125.391V12.147L126.019 11.3916L128.158 9.13184H129.586L126.914 12.001L129.897 16H128.52L126.127 12.8198ZM135.039 16C134.971 15.8646 134.916 15.6234 134.874 15.2764C134.328 15.8434 133.676 16.127 132.919 16.127C132.242 16.127 131.685 15.9365 131.25 15.5557C130.818 15.1706 130.602 14.6839 130.602 14.0957C130.602 13.3805 130.873 12.8262 131.415 12.4326C131.96 12.0348 132.726 11.8359 133.712 11.8359H134.855V11.2964C134.855 10.8859 134.732 10.5601 134.487 10.3188C134.241 10.0734 133.88 9.95068 133.401 9.95068C132.982 9.95068 132.631 10.0565 132.348 10.2681C132.064 10.4797 131.922 10.7357 131.922 11.0361H130.742C130.742 10.6934 130.862 10.3633 131.104 10.0459C131.349 9.72428 131.679 9.47038 132.094 9.28418C132.513 9.09798 132.972 9.00488 133.471 9.00488C134.263 9.00488 134.882 9.20378 135.331 9.60156C135.78 9.99512 136.012 10.5389 136.029 11.2329V14.394C136.029 15.0246 136.11 15.526 136.271 15.8984V16H135.039ZM133.09 15.105C133.458 15.105 133.808 15.0098 134.138 14.8193C134.468 14.6289 134.707 14.3813 134.855 14.0767V12.6675H133.935C132.496 12.6675 131.776 13.0885 131.776 13.9307C131.776 14.2988 131.899 14.5866 132.145 14.7939C132.39 15.0013 132.705 15.105 133.09 15.105ZM141.19 10.1855C141.012 10.1559 140.82 10.1411 140.612 10.1411C139.842 10.1411 139.319 10.4691 139.044 11.125V16H137.87V9.13184H139.013L139.032 9.92529C139.417 9.31169 139.963 9.00488 140.669 9.00488C140.898 9.00488 141.071 9.03451 141.19 9.09375V10.1855Z" fill="#404040"/>
<path fill-rule="evenodd" clip-rule="evenodd" d="M27.1822 14.7705L28.7197 16.308C29.0981 16.6998 29.0927 17.3225 28.7076 17.7076C28.3225 18.0927 27.6998 18.0981 27.308 17.7197L25.7705 16.1822C23.6266 17.6012 20.7563 17.1659 19.1296 15.1749C17.5029 13.1839 17.6486 10.2845 19.4665 8.46653C21.2845 6.64856 24.1839 6.50294 26.1749 8.12963C28.1659 9.75631 28.6012 12.6266 27.1822 14.7705ZM23.022 9.02677C21.3678 9.02677 20.0268 10.3678 20.0268 12.022C20.0268 13.6761 21.3678 15.0171 23.022 15.0171C24.6761 15.0171 26.0171 13.6761 26.0171 12.022C26.0171 10.3678 24.6761 9.02677 23.022 9.02677Z" fill="#404040"/>
<path d="M12 1H308V-1H12V1ZM308 23H12V25H308V23ZM12 23C5.92487 23 1 18.0751 1 12H-1C-1 19.1797 4.82031 25 12 25V23ZM319 12C319 18.0751 314.075 23 308 23V25C315.18 25 321 19.1797 321 12H319ZM308 1C314.075 1 319 5.92487 319 12H321C321 4.8203 315.18 -1 308 -1V1ZM12 -1C4.8203 -1 -1 4.8203 -1 12H1C1 5.92487 5.92487 1 12 1V-1Z" fill="#0371FF"/>
</svg>
