<svg width="322" height="32" viewBox="0 0 322 32" fill="none" xmlns="http://www.w3.org/2000/svg">
<path d="M0 16C0 7.16344 7.16344 0 16 0H306C314.837 0 322 7.16344 322 16V16C322 24.8366 314.837 32 306 32H16C7.16343 32 0 24.8366 0 16V16Z" fill="white"/>
<path fill-rule="evenodd" clip-rule="evenodd" d="M63.1822 17.7705L64.7197 19.308C65.0981 19.6998 65.0927 20.3225 64.7076 20.7076C64.3225 21.0927 63.6998 21.0981 63.308 20.7197L61.7705 19.1822C59.6266 20.6012 56.7563 20.1659 55.1296 18.1749C53.5029 16.1839 53.6486 13.2845 55.4665 11.4665C57.2845 9.64856 60.1839 9.50294 62.1749 11.1296C64.1659 12.7563 64.6012 15.6266 63.1822 17.7705ZM59.022 12.0268C57.3678 12.0268 56.0268 13.3678 56.0268 15.022C56.0268 16.6761 57.3678 18.0171 59.022 18.0171C60.6761 18.0171 62.0171 16.6761 62.0171 15.022C62.0171 13.3678 60.6761 12.0268 59.022 12.0268Z" fill="#93A7B8"/>
<path d="M76.0879 16.5635C74.9622 16.2399 74.1419 15.8434 73.627 15.374C73.1165 14.9001 72.8613 14.3167 72.8613 13.624C72.8613 12.8402 73.1735 12.193 73.7979 11.6826C74.4268 11.1676 75.2425 10.9102 76.2451 10.9102C76.9287 10.9102 77.5371 11.0423 78.0703 11.3066C78.6081 11.571 79.0228 11.9355 79.3145 12.4004C79.6107 12.8652 79.7588 13.3734 79.7588 13.9248H78.4395C78.4395 13.3232 78.248 12.8516 77.8652 12.5098C77.4824 12.1634 76.9424 11.9902 76.2451 11.9902C75.598 11.9902 75.0921 12.1338 74.7275 12.4209C74.3675 12.7035 74.1875 13.0977 74.1875 13.6035C74.1875 14.0091 74.3584 14.3532 74.7002 14.6357C75.0465 14.9137 75.6322 15.1689 76.457 15.4014C77.2865 15.6338 77.9336 15.8913 78.3984 16.1738C78.8678 16.4518 79.2142 16.7777 79.4375 17.1514C79.6654 17.5251 79.7793 17.9648 79.7793 18.4707C79.7793 19.2773 79.4648 19.9245 78.8359 20.4121C78.207 20.8952 77.3662 21.1367 76.3135 21.1367C75.6299 21.1367 74.9919 21.0068 74.3994 20.7471C73.807 20.4827 73.349 20.1227 73.0254 19.667C72.7064 19.2113 72.5469 18.694 72.5469 18.1152H73.8662C73.8662 18.7168 74.0872 19.193 74.5293 19.5439C74.9759 19.8903 75.5706 20.0635 76.3135 20.0635C77.0062 20.0635 77.5371 19.9222 77.9062 19.6396C78.2754 19.3571 78.46 18.972 78.46 18.4844C78.46 17.9967 78.2891 17.6208 77.9473 17.3564C77.6055 17.0876 76.9857 16.8232 76.0879 16.5635ZM84.3389 21.1367C83.3363 21.1367 82.5205 20.8086 81.8916 20.1523C81.2627 19.4915 80.9482 18.6097 80.9482 17.5068V17.2744C80.9482 16.5407 81.0872 15.8867 81.3652 15.3125C81.6478 14.7337 82.0397 14.2826 82.541 13.959C83.0469 13.6309 83.5938 13.4668 84.1816 13.4668C85.1432 13.4668 85.8906 13.7835 86.4238 14.417C86.957 15.0505 87.2236 15.9574 87.2236 17.1377V17.6641H82.2129C82.2311 18.3932 82.443 18.9834 82.8486 19.4346C83.2588 19.8812 83.7783 20.1045 84.4072 20.1045C84.8538 20.1045 85.2321 20.0133 85.542 19.8311C85.8519 19.6488 86.123 19.4072 86.3555 19.1064L87.1279 19.708C86.5081 20.6605 85.5785 21.1367 84.3389 21.1367ZM84.1816 14.5059C83.6712 14.5059 83.2428 14.6927 82.8965 15.0664C82.5501 15.4355 82.3359 15.9551 82.2539 16.625H85.959V16.5293C85.9225 15.8867 85.7493 15.39 85.4395 15.0391C85.1296 14.6836 84.7103 14.5059 84.1816 14.5059ZM93.2598 21C93.1868 20.8542 93.1276 20.5944 93.082 20.2207C92.4941 20.8314 91.7923 21.1367 90.9766 21.1367C90.2474 21.1367 89.6481 20.9316 89.1787 20.5215C88.7139 20.1068 88.4814 19.5827 88.4814 18.9492C88.4814 18.179 88.7731 17.582 89.3564 17.1582C89.9443 16.7298 90.7692 16.5156 91.8311 16.5156H93.0615V15.9346C93.0615 15.4925 92.9294 15.1416 92.665 14.8818C92.4007 14.6175 92.0111 14.4854 91.4961 14.4854C91.0449 14.4854 90.6667 14.5993 90.3613 14.8271C90.056 15.055 89.9033 15.3307 89.9033 15.6543H88.6318C88.6318 15.2852 88.7617 14.9297 89.0215 14.5879C89.2858 14.2415 89.6413 13.9681 90.0879 13.7676C90.5391 13.5671 91.0335 13.4668 91.5713 13.4668C92.4235 13.4668 93.0911 13.681 93.5742 14.1094C94.0573 14.5332 94.3079 15.1188 94.3262 15.8662V19.2705C94.3262 19.9495 94.4128 20.4896 94.5859 20.8906V21H93.2598ZM91.1611 20.0361C91.5576 20.0361 91.9336 19.9336 92.2891 19.7285C92.6445 19.5234 92.902 19.2568 93.0615 18.9287V17.4111H92.0703C90.5208 17.4111 89.7461 17.8646 89.7461 18.7715C89.7461 19.168 89.8783 19.4779 90.1426 19.7012C90.4069 19.9245 90.7464 20.0361 91.1611 20.0361ZM99.8838 14.7383C99.6924 14.7064 99.485 14.6904 99.2617 14.6904C98.4323 14.6904 97.8695 15.0436 97.5732 15.75V21H96.3086V13.6035H97.5391L97.5596 14.458C97.9743 13.7972 98.5622 13.4668 99.3232 13.4668C99.5693 13.4668 99.7562 13.4987 99.8838 13.5625V14.7383ZM103.883 20.1045C104.334 20.1045 104.728 19.9678 105.065 19.6943C105.403 19.4209 105.59 19.0791 105.626 18.6689H106.822C106.799 19.0928 106.654 19.4961 106.385 19.8789C106.116 20.2617 105.756 20.5671 105.305 20.7949C104.858 21.0228 104.384 21.1367 103.883 21.1367C102.876 21.1367 102.074 20.8018 101.477 20.1318C100.884 19.4574 100.588 18.5368 100.588 17.3701V17.1582C100.588 16.4382 100.72 15.7979 100.984 15.2373C101.249 14.6768 101.627 14.2415 102.119 13.9316C102.616 13.6217 103.201 13.4668 103.876 13.4668C104.705 13.4668 105.394 13.7152 105.94 14.2119C106.492 14.7087 106.786 15.3535 106.822 16.1465H105.626C105.59 15.668 105.407 15.276 105.079 14.9707C104.756 14.6608 104.354 14.5059 103.876 14.5059C103.233 14.5059 102.734 14.7383 102.379 15.2031C102.028 15.6634 101.853 16.3311 101.853 17.2061V17.4453C101.853 18.2975 102.028 18.9538 102.379 19.4141C102.73 19.8743 103.231 20.1045 103.883 20.1045ZM109.509 14.499C110.069 13.8109 110.799 13.4668 111.696 13.4668C113.259 13.4668 114.048 14.3486 114.062 16.1123V21H112.797V16.1055C112.792 15.5723 112.669 15.1781 112.428 14.9229C112.191 14.6676 111.819 14.54 111.313 14.54C110.903 14.54 110.543 14.6494 110.233 14.8682C109.924 15.0869 109.682 15.374 109.509 15.7295V21H108.244V10.5H109.509V14.499ZM125.689 17.3838C125.689 18.514 125.43 19.4232 124.91 20.1113C124.391 20.7949 123.693 21.1367 122.818 21.1367C121.884 21.1367 121.162 20.8063 120.651 20.1455L120.59 21H119.428V10.5H120.692V14.417C121.203 13.7835 121.907 13.4668 122.805 13.4668C123.702 13.4668 124.407 13.8063 124.917 14.4854C125.432 15.1644 125.689 16.0941 125.689 17.2744V17.3838ZM124.425 17.2402C124.425 16.3789 124.258 15.7135 123.926 15.2441C123.593 14.7747 123.115 14.54 122.49 14.54C121.656 14.54 121.057 14.9274 120.692 15.7021V18.9014C121.08 19.6761 121.684 20.0635 122.504 20.0635C123.11 20.0635 123.582 19.8288 123.919 19.3594C124.256 18.89 124.425 18.1836 124.425 17.2402ZM129.627 19.1475L131.35 13.6035H132.703L129.729 22.1416C129.269 23.3721 128.538 23.9873 127.535 23.9873L127.296 23.9668L126.824 23.8779V22.8525L127.166 22.8799C127.594 22.8799 127.927 22.7933 128.164 22.6201C128.406 22.4469 128.604 22.1302 128.759 21.6699L129.039 20.918L126.4 13.6035H127.781L129.627 19.1475ZM140.38 21.1367C139.377 21.1367 138.562 20.8086 137.933 20.1523C137.304 19.4915 136.989 18.6097 136.989 17.5068V17.2744C136.989 16.5407 137.128 15.8867 137.406 15.3125C137.689 14.7337 138.081 14.2826 138.582 13.959C139.088 13.6309 139.635 13.4668 140.223 13.4668C141.184 13.4668 141.932 13.7835 142.465 14.417C142.998 15.0505 143.265 15.9574 143.265 17.1377V17.6641H138.254C138.272 18.3932 138.484 18.9834 138.89 19.4346C139.3 19.8812 139.819 20.1045 140.448 20.1045C140.895 20.1045 141.273 20.0133 141.583 19.8311C141.893 19.6488 142.164 19.4072 142.396 19.1064L143.169 19.708C142.549 20.6605 141.619 21.1367 140.38 21.1367ZM140.223 14.5059C139.712 14.5059 139.284 14.6927 138.938 15.0664C138.591 15.4355 138.377 15.9551 138.295 16.625H142V16.5293C141.964 15.8867 141.79 15.39 141.48 15.0391C141.171 14.6836 140.751 14.5059 140.223 14.5059ZM145.924 13.6035L145.958 14.4238C146.5 13.7858 147.232 13.4668 148.152 13.4668C149.187 13.4668 149.891 13.8633 150.265 14.6562C150.511 14.3008 150.83 14.0137 151.222 13.7949C151.618 13.5762 152.085 13.4668 152.623 13.4668C154.245 13.4668 155.07 14.3258 155.098 16.0439V21H153.833V16.1191C153.833 15.5905 153.712 15.1963 153.471 14.9365C153.229 14.6722 152.824 14.54 152.254 14.54C151.785 14.54 151.395 14.6813 151.085 14.9639C150.775 15.2419 150.595 15.6178 150.545 16.0918V21H149.273V16.1533C149.273 15.0778 148.747 14.54 147.694 14.54C146.865 14.54 146.298 14.8932 145.992 15.5996V21H144.728V13.6035H145.924ZM163.26 17.3838C163.26 18.5094 163.002 19.4163 162.487 20.1045C161.972 20.7926 161.275 21.1367 160.396 21.1367C159.498 21.1367 158.791 20.8519 158.276 20.2822V23.8438H157.012V13.6035H158.167L158.229 14.4238C158.743 13.7858 159.459 13.4668 160.375 13.4668C161.264 13.4668 161.965 13.8018 162.48 14.4717C163 15.1416 163.26 16.0736 163.26 17.2676V17.3838ZM161.995 17.2402C161.995 16.4062 161.817 15.7477 161.462 15.2646C161.106 14.7816 160.619 14.54 159.999 14.54C159.233 14.54 158.659 14.8796 158.276 15.5586V19.0928C158.655 19.7673 159.233 20.1045 160.013 20.1045C160.619 20.1045 161.1 19.8652 161.455 19.3867C161.815 18.9036 161.995 18.1882 161.995 17.2402ZM166.247 21H164.982V10.5H166.247V21ZM167.942 17.2334C167.942 16.5088 168.084 15.8571 168.366 15.2783C168.653 14.6995 169.05 14.2529 169.556 13.9385C170.066 13.624 170.647 13.4668 171.299 13.4668C172.306 13.4668 173.119 13.8154 173.739 14.5127C174.364 15.21 174.676 16.1374 174.676 17.2949V17.3838C174.676 18.1038 174.537 18.751 174.259 19.3252C173.985 19.8949 173.591 20.3392 173.076 20.6582C172.566 20.9772 171.978 21.1367 171.312 21.1367C170.31 21.1367 169.496 20.7881 168.872 20.0908C168.252 19.3936 167.942 18.4707 167.942 17.3223V17.2334ZM169.214 17.3838C169.214 18.2041 169.403 18.8626 169.781 19.3594C170.164 19.8561 170.674 20.1045 171.312 20.1045C171.955 20.1045 172.465 19.8538 172.844 19.3525C173.222 18.8467 173.411 18.1403 173.411 17.2334C173.411 16.4222 173.217 15.766 172.83 15.2646C172.447 14.7588 171.937 14.5059 171.299 14.5059C170.674 14.5059 170.171 14.7542 169.788 15.251C169.405 15.7477 169.214 16.4587 169.214 17.3838ZM178.572 19.1475L180.295 13.6035H181.648L178.675 22.1416C178.215 23.3721 177.483 23.9873 176.48 23.9873L176.241 23.9668L175.77 23.8779V22.8525L176.111 22.8799C176.54 22.8799 176.872 22.7933 177.109 22.6201C177.351 22.4469 177.549 22.1302 177.704 21.6699L177.984 20.918L175.346 13.6035H176.727L178.572 19.1475ZM185.757 21.1367C184.754 21.1367 183.938 20.8086 183.31 20.1523C182.681 19.4915 182.366 18.6097 182.366 17.5068V17.2744C182.366 16.5407 182.505 15.8867 182.783 15.3125C183.066 14.7337 183.458 14.2826 183.959 13.959C184.465 13.6309 185.012 13.4668 185.6 13.4668C186.561 13.4668 187.309 13.7835 187.842 14.417C188.375 15.0505 188.642 15.9574 188.642 17.1377V17.6641H183.631C183.649 18.3932 183.861 18.9834 184.267 19.4346C184.677 19.8812 185.196 20.1045 185.825 20.1045C186.272 20.1045 186.65 20.0133 186.96 19.8311C187.27 19.6488 187.541 19.4072 187.773 19.1064L188.546 19.708C187.926 20.6605 186.996 21.1367 185.757 21.1367ZM185.6 14.5059C185.089 14.5059 184.661 14.6927 184.314 15.0664C183.968 15.4355 183.754 15.9551 183.672 16.625H187.377V16.5293C187.34 15.8867 187.167 15.39 186.857 15.0391C186.548 14.6836 186.128 14.5059 185.6 14.5059ZM193.181 21.1367C192.178 21.1367 191.362 20.8086 190.733 20.1523C190.104 19.4915 189.79 18.6097 189.79 17.5068V17.2744C189.79 16.5407 189.929 15.8867 190.207 15.3125C190.49 14.7337 190.882 14.2826 191.383 13.959C191.889 13.6309 192.436 13.4668 193.023 13.4668C193.985 13.4668 194.732 13.7835 195.266 14.417C195.799 15.0505 196.065 15.9574 196.065 17.1377V17.6641H191.055C191.073 18.3932 191.285 18.9834 191.69 19.4346C192.101 19.8812 192.62 20.1045 193.249 20.1045C193.696 20.1045 194.074 20.0133 194.384 19.8311C194.694 19.6488 194.965 19.4072 195.197 19.1064L195.97 19.708C195.35 20.6605 194.42 21.1367 193.181 21.1367ZM193.023 14.5059C192.513 14.5059 192.085 14.6927 191.738 15.0664C191.392 15.4355 191.178 15.9551 191.096 16.625H194.801V16.5293C194.764 15.8867 194.591 15.39 194.281 15.0391C193.971 14.6836 193.552 14.5059 193.023 14.5059ZM202.614 21H201.302V11.0469H202.614V21ZM205.021 21V11.0469H207.83C208.696 11.0469 209.462 11.2383 210.127 11.6211C210.792 12.0039 211.305 12.5485 211.665 13.2549C212.03 13.9613 212.214 14.7725 212.219 15.6885V16.3242C212.219 17.263 212.036 18.0856 211.672 18.792C211.312 19.4984 210.795 20.0407 210.12 20.4189C209.45 20.7972 208.669 20.9909 207.775 21H205.021ZM206.333 12.127V19.9268H207.714C208.726 19.9268 209.512 19.6123 210.072 18.9834C210.637 18.3545 210.92 17.459 210.92 16.2969V15.7158C210.92 14.5856 210.653 13.7083 210.12 13.084C209.591 12.4551 208.84 12.1361 207.864 12.127H206.333ZM217.147 17.2334C217.147 16.5088 217.289 15.8571 217.571 15.2783C217.858 14.6995 218.255 14.2529 218.761 13.9385C219.271 13.624 219.852 13.4668 220.504 13.4668C221.511 13.4668 222.325 13.8154 222.944 14.5127C223.569 15.21 223.881 16.1374 223.881 17.2949V17.3838C223.881 18.1038 223.742 18.751 223.464 19.3252C223.19 19.8949 222.796 20.3392 222.281 20.6582C221.771 20.9772 221.183 21.1367 220.518 21.1367C219.515 21.1367 218.701 20.7881 218.077 20.0908C217.457 19.3936 217.147 18.4707 217.147 17.3223V17.2334ZM218.419 17.3838C218.419 18.2041 218.608 18.8626 218.986 19.3594C219.369 19.8561 219.88 20.1045 220.518 20.1045C221.16 20.1045 221.671 19.8538 222.049 19.3525C222.427 18.8467 222.616 18.1403 222.616 17.2334C222.616 16.4222 222.423 15.766 222.035 15.2646C221.652 14.7588 221.142 14.5059 220.504 14.5059C219.88 14.5059 219.376 14.7542 218.993 15.251C218.61 15.7477 218.419 16.4587 218.419 17.3838ZM229.042 14.7383C228.851 14.7064 228.643 14.6904 228.42 14.6904C227.59 14.6904 227.028 15.0436 226.731 15.75V21H225.467V13.6035H226.697L226.718 14.458C227.132 13.7972 227.72 13.4668 228.481 13.4668C228.728 13.4668 228.914 13.4987 229.042 13.5625V14.7383ZM234.88 13.6035L234.921 14.5332C235.486 13.8223 236.224 13.4668 237.136 13.4668C238.699 13.4668 239.487 14.3486 239.501 16.1123V21H238.236V16.1055C238.232 15.5723 238.109 15.1781 237.867 14.9229C237.63 14.6676 237.259 14.54 236.753 14.54C236.343 14.54 235.983 14.6494 235.673 14.8682C235.363 15.0869 235.121 15.374 234.948 15.7295V21H233.684V13.6035H234.88ZM245.975 21C245.902 20.8542 245.842 20.5944 245.797 20.2207C245.209 20.8314 244.507 21.1367 243.691 21.1367C242.962 21.1367 242.363 20.9316 241.894 20.5215C241.429 20.1068 241.196 19.5827 241.196 18.9492C241.196 18.179 241.488 17.582 242.071 17.1582C242.659 16.7298 243.484 16.5156 244.546 16.5156H245.776V15.9346C245.776 15.4925 245.644 15.1416 245.38 14.8818C245.116 14.6175 244.726 14.4854 244.211 14.4854C243.76 14.4854 243.382 14.5993 243.076 14.8271C242.771 15.055 242.618 15.3307 242.618 15.6543H241.347C241.347 15.2852 241.477 14.9297 241.736 14.5879C242.001 14.2415 242.356 13.9681 242.803 13.7676C243.254 13.5671 243.748 13.4668 244.286 13.4668C245.138 13.4668 245.806 13.681 246.289 14.1094C246.772 14.5332 247.023 15.1188 247.041 15.8662V19.2705C247.041 19.9495 247.128 20.4896 247.301 20.8906V21H245.975ZM243.876 20.0361C244.272 20.0361 244.648 19.9336 245.004 19.7285C245.359 19.5234 245.617 19.2568 245.776 18.9287V17.4111H244.785C243.236 17.4111 242.461 17.8646 242.461 18.7715C242.461 19.168 242.593 19.4779 242.857 19.7012C243.122 19.9245 243.461 20.0361 243.876 20.0361ZM250.213 13.6035L250.247 14.4238C250.789 13.7858 251.521 13.4668 252.441 13.4668C253.476 13.4668 254.18 13.8633 254.554 14.6562C254.8 14.3008 255.119 14.0137 255.511 13.7949C255.907 13.5762 256.374 13.4668 256.912 13.4668C258.535 13.4668 259.359 14.3258 259.387 16.0439V21H258.122V16.1191C258.122 15.5905 258.001 15.1963 257.76 14.9365C257.518 14.6722 257.113 14.54 256.543 14.54C256.074 14.54 255.684 14.6813 255.374 14.9639C255.064 15.2419 254.884 15.6178 254.834 16.0918V21H253.562V16.1533C253.562 15.0778 253.036 14.54 251.983 14.54C251.154 14.54 250.587 14.8932 250.281 15.5996V21H249.017V13.6035H250.213ZM264.37 21.1367C263.368 21.1367 262.552 20.8086 261.923 20.1523C261.294 19.4915 260.979 18.6097 260.979 17.5068V17.2744C260.979 16.5407 261.118 15.8867 261.396 15.3125C261.679 14.7337 262.071 14.2826 262.572 13.959C263.078 13.6309 263.625 13.4668 264.213 13.4668C265.174 13.4668 265.922 13.7835 266.455 14.417C266.988 15.0505 267.255 15.9574 267.255 17.1377V17.6641H262.244C262.262 18.3932 262.474 18.9834 262.88 19.4346C263.29 19.8812 263.81 20.1045 264.438 20.1045C264.885 20.1045 265.263 20.0133 265.573 19.8311C265.883 19.6488 266.154 19.4072 266.387 19.1064L267.159 19.708C266.539 20.6605 265.61 21.1367 264.37 21.1367ZM264.213 14.5059C263.702 14.5059 263.274 14.6927 262.928 15.0664C262.581 15.4355 262.367 15.9551 262.285 16.625H265.99V16.5293C265.954 15.8867 265.781 15.39 265.471 15.0391C265.161 14.6836 264.742 14.5059 264.213 14.5059Z" fill="#93A7B8"/>
<path d="M16 1H306V-1H16V1ZM306 31H16V33H306V31ZM16 31C7.71572 31 1 24.2843 1 16H-1C-1 25.3888 6.61115 33 16 33V31ZM321 16C321 24.2843 314.284 31 306 31V33C315.389 33 323 25.3888 323 16H321ZM306 1C314.284 1 321 7.71573 321 16H323C323 6.61116 315.389 -1 306 -1V1ZM16 -1C6.61116 -1 -1 6.61116 -1 16H1C1 7.71573 7.71573 1 16 1V-1Z" fill="#B7C4D0"/>
</svg>
