<svg width="200" height="32" viewBox="0 0 200 32" fill="none" xmlns="http://www.w3.org/2000/svg">
<rect x="0.5" y="0.5" width="199" height="31" rx="3.5" fill="#F6F7F9"/>
<path d="M13.1553 21V11.0469H15.9648C16.8307 11.0469 17.5964 11.2383 18.2617 11.6211C18.9271 12.0039 19.4398 12.5485 19.7998 13.2549C20.1644 13.9613 20.349 14.7725 20.3535 15.6885V16.3242C20.3535 17.263 20.1712 18.0856 19.8066 18.792C19.4466 19.4984 18.9294 20.0407 18.2549 20.4189C17.585 20.7972 16.8034 20.9909 15.9102 21H13.1553ZM14.4678 12.127V19.9268H15.8486C16.8604 19.9268 17.6465 19.6123 18.207 18.9834C18.7721 18.3545 19.0547 17.459 19.0547 16.2969V15.7158C19.0547 14.5856 18.7881 13.7083 18.2549 13.084C17.7262 12.4551 16.9743 12.1361 15.999 12.127H14.4678ZM23.5186 21H22.2539V13.6035H23.5186V21ZM22.1514 11.6416C22.1514 11.4365 22.2129 11.2633 22.3359 11.1221C22.4635 10.9808 22.6504 10.9102 22.8965 10.9102C23.1426 10.9102 23.3294 10.9808 23.457 11.1221C23.5846 11.2633 23.6484 11.4365 23.6484 11.6416C23.6484 11.8467 23.5846 12.0176 23.457 12.1543C23.3294 12.291 23.1426 12.3594 22.8965 12.3594C22.6504 12.3594 22.4635 12.291 22.3359 12.1543C22.2129 12.0176 22.1514 11.8467 22.1514 11.6416ZM29.8555 19.0381C29.8555 18.6963 29.7256 18.432 29.4658 18.2451C29.2106 18.0537 28.7617 17.8896 28.1191 17.7529C27.4811 17.6162 26.973 17.4521 26.5947 17.2607C26.221 17.0693 25.943 16.8415 25.7607 16.5771C25.583 16.3128 25.4941 15.9984 25.4941 15.6338C25.4941 15.0277 25.7493 14.515 26.2598 14.0957C26.7747 13.6764 27.431 13.4668 28.2285 13.4668C29.0671 13.4668 29.7461 13.6833 30.2656 14.1162C30.7897 14.5492 31.0518 15.1029 31.0518 15.7773H29.7803C29.7803 15.431 29.6322 15.1325 29.3359 14.8818C29.0443 14.6312 28.6751 14.5059 28.2285 14.5059C27.7682 14.5059 27.4082 14.6061 27.1484 14.8066C26.8887 15.0072 26.7588 15.2692 26.7588 15.5928C26.7588 15.8981 26.8796 16.1283 27.1211 16.2832C27.3626 16.4382 27.7979 16.5863 28.4268 16.7275C29.0602 16.8688 29.5729 17.0374 29.9648 17.2334C30.3568 17.4294 30.6462 17.6663 30.833 17.9443C31.0244 18.2178 31.1201 18.5527 31.1201 18.9492C31.1201 19.61 30.8558 20.141 30.3271 20.542C29.7985 20.9385 29.1126 21.1367 28.2695 21.1367C27.6771 21.1367 27.153 21.0319 26.6973 20.8223C26.2415 20.6126 25.8838 20.321 25.624 19.9473C25.3688 19.569 25.2412 19.1611 25.2412 18.7236H26.5059C26.5286 19.1475 26.6973 19.4847 27.0117 19.7354C27.3307 19.9814 27.75 20.1045 28.2695 20.1045C28.748 20.1045 29.1309 20.0088 29.418 19.8174C29.7096 19.6214 29.8555 19.3617 29.8555 19.0381ZM37.334 21C37.2611 20.8542 37.2018 20.5944 37.1562 20.2207C36.5684 20.8314 35.8665 21.1367 35.0508 21.1367C34.3216 21.1367 33.7223 20.9316 33.2529 20.5215C32.7881 20.1068 32.5557 19.5827 32.5557 18.9492C32.5557 18.179 32.8473 17.582 33.4307 17.1582C34.0186 16.7298 34.8434 16.5156 35.9053 16.5156H37.1357V15.9346C37.1357 15.4925 37.0036 15.1416 36.7393 14.8818C36.4749 14.6175 36.0853 14.4854 35.5703 14.4854C35.1191 14.4854 34.7409 14.5993 34.4355 14.8271C34.1302 15.055 33.9775 15.3307 33.9775 15.6543H32.7061C32.7061 15.2852 32.8359 14.9297 33.0957 14.5879C33.36 14.2415 33.7155 13.9681 34.1621 13.7676C34.6133 13.5671 35.1077 13.4668 35.6455 13.4668C36.4977 13.4668 37.1654 13.681 37.6484 14.1094C38.1315 14.5332 38.3822 15.1188 38.4004 15.8662V19.2705C38.4004 19.9495 38.487 20.4896 38.6602 20.8906V21H37.334ZM35.2354 20.0361C35.6318 20.0361 36.0078 19.9336 36.3633 19.7285C36.7188 19.5234 36.9762 19.2568 37.1357 18.9287V17.4111H36.1445C34.5951 17.4111 33.8203 17.8646 33.8203 18.7715C33.8203 19.168 33.9525 19.4779 34.2168 19.7012C34.4811 19.9245 34.8206 20.0361 35.2354 20.0361ZM46.6445 17.3838C46.6445 18.514 46.3848 19.4232 45.8652 20.1113C45.3457 20.7949 44.6484 21.1367 43.7734 21.1367C42.8392 21.1367 42.1169 20.8063 41.6064 20.1455L41.5449 21H40.3828V10.5H41.6475V14.417C42.1579 13.7835 42.862 13.4668 43.7598 13.4668C44.6576 13.4668 45.3617 13.8063 45.8721 14.4854C46.387 15.1644 46.6445 16.0941 46.6445 17.2744V17.3838ZM45.3799 17.2402C45.3799 16.3789 45.2135 15.7135 44.8809 15.2441C44.5482 14.7747 44.0697 14.54 43.4453 14.54C42.6113 14.54 42.012 14.9274 41.6475 15.7021V18.9014C42.0348 19.6761 42.6387 20.0635 43.459 20.0635C44.0651 20.0635 44.5368 19.8288 44.874 19.3594C45.2113 18.89 45.3799 18.1836 45.3799 17.2402ZM49.6182 21H48.3535V10.5H49.6182V21ZM54.7178 21.1367C53.7152 21.1367 52.8994 20.8086 52.2705 20.1523C51.6416 19.4915 51.3271 18.6097 51.3271 17.5068V17.2744C51.3271 16.5407 51.4661 15.8867 51.7441 15.3125C52.0267 14.7337 52.4186 14.2826 52.9199 13.959C53.4258 13.6309 53.9727 13.4668 54.5605 13.4668C55.5221 13.4668 56.2695 13.7835 56.8027 14.417C57.3359 15.0505 57.6025 15.9574 57.6025 17.1377V17.6641H52.5918C52.61 18.3932 52.8219 18.9834 53.2275 19.4346C53.6377 19.8812 54.1572 20.1045 54.7861 20.1045C55.2327 20.1045 55.611 20.0133 55.9209 19.8311C56.2308 19.6488 56.502 19.4072 56.7344 19.1064L57.5068 19.708C56.887 20.6605 55.9574 21.1367 54.7178 21.1367ZM54.5605 14.5059C54.0501 14.5059 53.6217 14.6927 53.2754 15.0664C52.929 15.4355 52.7148 15.9551 52.6328 16.625H56.3379V16.5293C56.3014 15.8867 56.1283 15.39 55.8184 15.0391C55.5085 14.6836 55.0892 14.5059 54.5605 14.5059ZM58.7646 17.2402C58.7646 16.1055 59.0335 15.194 59.5713 14.5059C60.109 13.8132 60.8132 13.4668 61.6836 13.4668C62.5495 13.4668 63.2354 13.763 63.7412 14.3555V10.5H65.0059V21H63.8438L63.7822 20.207C63.2764 20.8268 62.5723 21.1367 61.6699 21.1367C60.8132 21.1367 60.1136 20.7858 59.5713 20.084C59.0335 19.3822 58.7646 18.4661 58.7646 17.3359V17.2402ZM60.0293 17.3838C60.0293 18.2223 60.2025 18.8786 60.5488 19.3525C60.8952 19.8265 61.3737 20.0635 61.9844 20.0635C62.7865 20.0635 63.3721 19.7035 63.7412 18.9834V15.5859C63.363 14.8887 62.7819 14.54 61.998 14.54C61.3783 14.54 60.8952 14.7793 60.5488 15.2578C60.2025 15.7363 60.0293 16.445 60.0293 17.3838Z" fill="#606060"/>
<rect x="0.5" y="0.5" width="199" height="31" rx="3.5" stroke="#B7C4D0"/>
</svg>
