<svg viewBox="0 0 50 40" xmlns="http://www.w3.org/2000/svg">
  <g fill="#000" fill-rule="nonzero">
    <path d="M18.75 32.5c-.19 0-.3825-.0425-.56-.1325-.4225-.2125-.69-.645-.69-1.1175V8.75c0-.4725.2675-.9075.69-1.1175.4225-.21.93-.165 1.31.1175L34.5 19c.315.235.5.6075.5 1 0 .3925-.185.765-.5 1l-15 11.25c-.22.165-.485.25-.75.25zM20 11.25v17.5L31.6675 20 20 11.25z"/>
    <path d="M48.75 0H1.25C.56 0 0 .56 0 1.25v37.5C0 39.44.56 40 1.25 40h47.5c.69 0 1.25-.56 1.25-1.25V1.25C50 .56 49.44 0 48.75 0zM7.5 22.5h-5v-5h5v5zm0-7.5h-5v-5h5v5zm-5 10h5v5h-5v-5zM10 2.5h30v35H10v-35zm32.5 15h5v5h-5v-5zm0-2.5v-5h5v5h-5zm0 10h5v5h-5v-5zm5-17.5h-5v-5h5v5zm-40-5v5h-5v-5h5zm-5 30h5v5h-5v-5zm40 5v-5h5v5h-5z"/>
  </g>
</svg>