<svg viewBox="0 0 48 35" xmlns="http://www.w3.org/2000/svg">
  <g fill="#000" fill-rule="nonzero">
    <path d="M46.7368421 12.5H32.8421053V1.25c0-.69-.5658948-1.25-1.2631579-1.25H16.4210526c-.6972631 0-1.2631579.56-1.2631579 1.25V7.5H1.2631579C.5658947 7.5 0 8.06 0 8.75v25C0 34.44.5658947 35 1.2631579 35H46.736842C47.4341053 35 48 34.44 48 33.75v-20c0-.69-.5658947-1.25-1.2631579-1.25zm-29.0526316-10h12.631579v30h-12.631579v-30zM2.5263158 10h12.6315789v22.5H2.5263157V10zm42.9473684 22.5H32.8421053V15h12.6315789v17.5z"/>
    <path d="M24 17.5c-.6972632 0-1.2631579-.56-1.2631579-1.25v-10c0-.69.5658947-1.25 1.2631579-1.25s1.2631579.56 1.2631579 1.25v10c0 .69-.5658947 1.25-1.2631579 1.25zM11.3684211 25H6.3157895c-.6972632 0-1.263158-.56-1.263158-1.25v-5c0-.69.5658948-1.25 1.263158-1.25h3.7894737V15H6.3157895c-.6972632 0-1.263158-.56-1.263158-1.25s.5658948-1.25 1.263158-1.25h5.0526316c.6972631 0 1.2631578.56 1.2631578 1.25v5c0 .69-.5658947 1.25-1.2631578 1.25H7.5789474v2.5h3.7894737c.6972631 0 1.2631578.56 1.2631578 1.25S12.0656842 25 11.3684211 25zM41.6842105 17.5h-5.0526316c-.6972631 0-1.2631578.56-1.2631578 1.25S35.9343158 20 36.6315789 20h3.7894737v2.5h-3.7894737c-.6972631 0-1.2631578.56-1.2631578 1.25S35.9343158 25 36.6315789 25h3.7894737v2.5h-3.7894737c-.6972631 0-1.2631578.56-1.2631578 1.25S35.9343158 30 36.6315789 30h5.0526316c.6972632 0 1.2631579-.56 1.2631579-1.25v-10c0-.69-.5658947-1.25-1.2631579-1.25z"/>
  </g>
</svg>