<svg viewBox="0 0 30 48" xmlns="http://www.w3.org/2000/svg">
  <g fill="#000" fill-rule="nonzero">
    <path d="M14.992495 47.9976c-4.0376918 0-7.8002001-1.572-10.5970647-4.428C1.5610407 40.6752 0 36.708 0 32.3976 0 25.3344 3.2721815 20.28 6.7369913 14.9304 9.413776 10.7952 12.1831221 6.5208 13.7841895.8832 13.9317879.36 14.4271181 0 14.9899933 0c.5628753 0 1.0582055.3624 1.2058039.8832 1.603569 5.64 4.3754169 9.9168 7.0572048 14.052C26.7228152 20.2848 30 25.3392 30 32.4c0 4.3176-1.551034 8.2848-4.3679119 11.1696C22.8427285 46.4256 19.0627085 48 14.9899933 48l.0025017-.0024zm0-42.9288c-1.6861241 4.2624-3.9376251 7.74-6.129086 11.1264-3.412275 5.2704-6.3617412 9.8232-6.3617412 16.2024 0 7.5264 5.3710807 13.2 12.4908272 13.2 7.1297532 0 12.5083389-5.6736 12.5083389-13.2 0-6.3768-2.951968-10.9272-6.3692462-16.1976-2.1964643-3.3864-4.4529686-6.8664-6.1390927-11.1312z"/>
    <path d="M15.4493547 41c-1.9345417 0-3.7470852-.7975-5.1015133-2.2475C8.8340688 37.1325 8 34.825 8 32.25c0-.69.5577057-1.25 1.2448788-1.25.687173 0 1.2448788.56 1.2448788 1.25 0 1.935.595052 3.6375 1.6731171 4.79.8813742.9425 2.0490705 1.46 3.2889697 1.46.3510559 0 .6971322-.0375 1.0282699-.1125.6697448-.1525 1.3369998.27 1.488875.9425.1518753.6725-.2688938 1.3425-.9386386 1.495-.5104003.115-1.0407186.175-1.5785063.175h-.0024897z"/>
  </g>
</svg>