<svg width="125" height="36" viewBox="0 0 125 36" fill="none" xmlns="http://www.w3.org/2000/svg">
<path d="M0 18C0 8.05887 8.05887 0 18 0H107C116.941 0 125 8.05887 125 18V18C125 27.9411 116.941 36 107 36H18C8.05887 36 0 27.9411 0 18V18Z" fill="#F9FAFB"/>
<rect x="17" y="13" width="10" height="10" fill="#F9FAFB"/>
<path fill-rule="evenodd" clip-rule="evenodd" d="M16 12H28V15V16V24H16V16V15V12ZM17 16V23H27V16H17ZM27 15H17V13H27V15Z" fill="#4B6C89"/>
<path d="M38.666 17.2646H39.6777C40.1882 17.2601 40.5915 17.1279 40.8877 16.8682C41.1885 16.6084 41.3389 16.2324 41.3389 15.7402C41.3389 15.2663 41.2135 14.8994 40.9629 14.6396C40.7168 14.3753 40.3385 14.2432 39.8281 14.2432C39.3815 14.2432 39.0146 14.373 38.7275 14.6328C38.4404 14.888 38.2969 15.223 38.2969 15.6377H36.6357C36.6357 15.1273 36.7702 14.6624 37.0391 14.2432C37.3125 13.8239 37.6908 13.498 38.1738 13.2656C38.6615 13.0286 39.2061 12.9102 39.8076 12.9102C40.8011 12.9102 41.5804 13.1608 42.1455 13.6621C42.7152 14.1589 43 14.8516 43 15.7402C43 16.1868 42.8564 16.6084 42.5693 17.0049C42.2868 17.3968 41.9199 17.693 41.4688 17.8936C42.0156 18.0804 42.4303 18.3743 42.7129 18.7754C43 19.1764 43.1436 19.6549 43.1436 20.2109C43.1436 21.1042 42.8359 21.8151 42.2207 22.3438C41.61 22.8724 40.8057 23.1367 39.8076 23.1367C38.8506 23.1367 38.0667 22.8815 37.4561 22.3711C36.8454 21.8607 36.54 21.1816 36.54 20.334H38.2012C38.2012 20.7715 38.347 21.127 38.6387 21.4004C38.9349 21.6738 39.3314 21.8105 39.8281 21.8105C40.3431 21.8105 40.7487 21.6738 41.0449 21.4004C41.3411 21.127 41.4893 20.7305 41.4893 20.2109C41.4893 19.6868 41.3343 19.2835 41.0244 19.001C40.7145 18.7184 40.2542 18.5771 39.6436 18.5771H38.666V17.2646ZM49.8701 12.999V14.373H49.665C48.7354 14.3867 47.9925 14.6419 47.4365 15.1387C46.8805 15.6354 46.5501 16.3395 46.4453 17.251C46.9785 16.6904 47.6598 16.4102 48.4893 16.4102C49.3688 16.4102 50.0615 16.7201 50.5674 17.3398C51.0778 17.9596 51.333 18.7594 51.333 19.7393C51.333 20.751 51.0345 21.5713 50.4375 22.2002C49.8451 22.8245 49.0658 23.1367 48.0996 23.1367C47.1061 23.1367 46.2995 22.7699 45.6797 22.0361C45.0645 21.3024 44.7568 20.3408 44.7568 19.1514V18.584C44.7568 16.8385 45.1807 15.4714 46.0283 14.4824C46.8805 13.4935 48.1042 12.999 49.6992 12.999H49.8701ZM48.0859 17.75C47.7214 17.75 47.3864 17.8525 47.0811 18.0576C46.7803 18.2627 46.5592 18.5361 46.418 18.8779V19.3838C46.418 20.1221 46.5729 20.71 46.8828 21.1475C47.1927 21.5804 47.5938 21.7969 48.0859 21.7969C48.5781 21.7969 48.9678 21.6123 49.2549 21.2432C49.542 20.874 49.6855 20.3887 49.6855 19.7871C49.6855 19.1855 49.5397 18.6956 49.248 18.3174C48.9564 17.9391 48.569 17.75 48.0859 17.75ZM58.1416 21.6191H62.6602V23H56.4121V13.0469H58.1416V21.6191ZM67.083 23.1367C66.0303 23.1367 65.1758 22.8063 64.5195 22.1455C63.8678 21.4801 63.542 20.596 63.542 19.4932V19.2881C63.542 18.5498 63.6833 17.8913 63.9658 17.3125C64.2529 16.7292 64.654 16.2757 65.1689 15.9521C65.6839 15.6286 66.2581 15.4668 66.8916 15.4668C67.8988 15.4668 68.6758 15.7881 69.2227 16.4307C69.7741 17.0732 70.0498 17.9824 70.0498 19.1582V19.8281H65.2168C65.2669 20.4388 65.4697 20.9219 65.8252 21.2773C66.1852 21.6328 66.6364 21.8105 67.1787 21.8105C67.9398 21.8105 68.5596 21.5029 69.0381 20.8877L69.9336 21.7422C69.6374 22.1842 69.2409 22.5283 68.7441 22.7744C68.252 23.016 67.6982 23.1367 67.083 23.1367ZM66.8848 16.7998C66.429 16.7998 66.0599 16.9593 65.7773 17.2783C65.4993 17.5973 65.3216 18.0417 65.2441 18.6113H68.4092V18.4883C68.3727 17.9323 68.2246 17.513 67.9648 17.2305C67.7051 16.9434 67.3451 16.7998 66.8848 16.7998ZM71.9297 23V16.834H70.8018V15.6035H71.9297V14.9268C71.9297 14.1064 72.1576 13.473 72.6133 13.0264C73.069 12.5798 73.707 12.3564 74.5273 12.3564C74.819 12.3564 75.1289 12.3975 75.457 12.4795L75.416 13.7783C75.2337 13.7419 75.0218 13.7236 74.7803 13.7236C73.9873 13.7236 73.5908 14.1315 73.5908 14.9473V15.6035H75.0947V16.834H73.5908V23H71.9297ZM78.3896 13.8057V15.6035H79.6953V16.834H78.3896V20.9629C78.3896 21.2454 78.4443 21.4505 78.5537 21.5781C78.6676 21.7012 78.8682 21.7627 79.1553 21.7627C79.3467 21.7627 79.5404 21.7399 79.7363 21.6943V22.9795C79.3581 23.0843 78.9935 23.1367 78.6426 23.1367C77.3665 23.1367 76.7285 22.4326 76.7285 21.0244V16.834H75.5117V15.6035H76.7285V13.8057H78.3896Z" fill="#4B6C89"/>
<path fill-rule="evenodd" clip-rule="evenodd" d="M107.633 16.6402C108.176 15.9889 107.713 15 106.865 15H101.135C100.287 15 99.824 15.9889 100.367 16.6402L103.232 20.0781C103.632 20.5579 104.368 20.5579 104.768 20.0781L107.633 16.6402Z" fill="#4B6C89"/>
<path d="M18 1H107V-1H18V1ZM107 35H18V37H107V35ZM18 35C8.61116 35 1 27.3888 1 18H-1C-1 28.4934 7.50659 37 18 37V35ZM124 18C124 27.3888 116.389 35 107 35V37C117.493 37 126 28.4934 126 18H124ZM107 1C116.389 1 124 8.61116 124 18H126C126 7.50659 117.493 -1 107 -1V1ZM18 -1C7.50659 -1 -1 7.50659 -1 18H1C1 8.61116 8.61116 1 18 1V-1Z" fill="#B7C4D0"/>
</svg>
