<svg width="105" height="32" viewBox="0 0 105 32" fill="none" xmlns="http://www.w3.org/2000/svg">
<path d="M0 16C0 7.16344 7.16344 0 16 0H89C97.8366 0 105 7.16344 105 16V16C105 24.8366 97.8366 32 89 32H16C7.16344 32 0 24.8366 0 16V16Z" fill="#4B6C89"/>
<path d="M18.666 15.2646H19.6777C20.1882 15.2601 20.5915 15.1279 20.8877 14.8682C21.1885 14.6084 21.3389 14.2324 21.3389 13.7402C21.3389 13.2663 21.2135 12.8994 20.9629 12.6396C20.7168 12.3753 20.3385 12.2432 19.8281 12.2432C19.3815 12.2432 19.0146 12.373 18.7275 12.6328C18.4404 12.888 18.2969 13.223 18.2969 13.6377H16.6357C16.6357 13.1273 16.7702 12.6624 17.0391 12.2432C17.3125 11.8239 17.6908 11.498 18.1738 11.2656C18.6615 11.0286 19.2061 10.9102 19.8076 10.9102C20.8011 10.9102 21.5804 11.1608 22.1455 11.6621C22.7152 12.1589 23 12.8516 23 13.7402C23 14.1868 22.8564 14.6084 22.5693 15.0049C22.2868 15.3968 21.9199 15.693 21.4688 15.8936C22.0156 16.0804 22.4303 16.3743 22.7129 16.7754C23 17.1764 23.1436 17.6549 23.1436 18.2109C23.1436 19.1042 22.8359 19.8151 22.2207 20.3438C21.61 20.8724 20.8057 21.1367 19.8076 21.1367C18.8506 21.1367 18.0667 20.8815 17.4561 20.3711C16.8454 19.8607 16.54 19.1816 16.54 18.334H18.2012C18.2012 18.7715 18.347 19.127 18.6387 19.4004C18.9349 19.6738 19.3314 19.8105 19.8281 19.8105C20.3431 19.8105 20.7487 19.6738 21.0449 19.4004C21.3411 19.127 21.4893 18.7305 21.4893 18.2109C21.4893 17.6868 21.3343 17.2835 21.0244 17.001C20.7145 16.7184 20.2542 16.5771 19.6436 16.5771H18.666V15.2646ZM31.3945 21H24.7021V19.8584L28.0176 16.2422C28.4961 15.709 28.8356 15.2646 29.0361 14.9092C29.2412 14.5492 29.3438 14.1891 29.3438 13.8291C29.3438 13.3551 29.2093 12.9723 28.9404 12.6807C28.6761 12.389 28.3184 12.2432 27.8672 12.2432C27.3294 12.2432 26.9124 12.4072 26.6162 12.7354C26.32 13.0635 26.1719 13.5124 26.1719 14.082H24.5107C24.5107 13.4759 24.6475 12.9313 24.9209 12.4482C25.1989 11.9606 25.5931 11.5824 26.1035 11.3135C26.6185 11.0446 27.2109 10.9102 27.8809 10.9102C28.847 10.9102 29.6081 11.154 30.1641 11.6416C30.7246 12.1247 31.0049 12.7946 31.0049 13.6514C31.0049 14.1481 30.8636 14.6699 30.5811 15.2168C30.3031 15.7591 29.8451 16.3766 29.207 17.0693L26.7734 19.6738H31.3945V21ZM43.1934 12.4414H40.0898V21H38.374V12.4414H35.2979V11.0469H43.1934V12.4414ZM46.9873 21.1367C45.9346 21.1367 45.0801 20.8063 44.4238 20.1455C43.7721 19.4801 43.4463 18.596 43.4463 17.4932V17.2881C43.4463 16.5498 43.5876 15.8913 43.8701 15.3125C44.1572 14.7292 44.5583 14.2757 45.0732 13.9521C45.5882 13.6286 46.1624 13.4668 46.7959 13.4668C47.8031 13.4668 48.5801 13.7881 49.127 14.4307C49.6784 15.0732 49.9541 15.9824 49.9541 17.1582V17.8281H45.1211C45.1712 18.4388 45.374 18.9219 45.7295 19.2773C46.0895 19.6328 46.5407 19.8105 47.083 19.8105C47.8441 19.8105 48.4639 19.5029 48.9424 18.8877L49.8379 19.7422C49.5417 20.1842 49.1452 20.5283 48.6484 20.7744C48.1562 21.016 47.6025 21.1367 46.9873 21.1367ZM46.7891 14.7998C46.3333 14.7998 45.9642 14.9593 45.6816 15.2783C45.4036 15.5973 45.2259 16.0417 45.1484 16.6113H48.3135V16.4883C48.277 15.9323 48.1289 15.513 47.8691 15.2305C47.6094 14.9434 47.2493 14.7998 46.7891 14.7998ZM53.9053 16.0371L55.3135 13.6035H57.1592L54.8965 17.2471L57.2344 21H55.4023L53.9258 18.4707L52.4561 21H50.6104L52.9482 17.2471L50.6924 13.6035H52.5244L53.9053 16.0371ZM60.3721 11.8057V13.6035H61.6777V14.834H60.3721V18.9629C60.3721 19.2454 60.4268 19.4505 60.5361 19.5781C60.6501 19.7012 60.8506 19.7627 61.1377 19.7627C61.3291 19.7627 61.5228 19.7399 61.7188 19.6943V20.9795C61.3405 21.0843 60.9759 21.1367 60.625 21.1367C59.349 21.1367 58.7109 20.4326 58.7109 19.0244V14.834H57.4941V13.6035H58.7109V11.8057H60.3721Z" fill="#FBFCFD"/>
<path fill-rule="evenodd" clip-rule="evenodd" d="M87.6332 14.6402C88.176 13.9889 87.7128 13 86.865 13H81.135C80.2872 13 79.824 13.9889 80.3668 14.6402L83.2318 18.0781C83.6316 18.5579 84.3684 18.5579 84.7682 18.0781L87.6332 14.6402Z" fill="#FBFCFD"/>
</svg>
