<svg width="101" height="28" viewBox="0 0 101 28" fill="none" xmlns="http://www.w3.org/2000/svg">
<path d="M0 14C0 6.26801 6.26801 0 14 0H87C94.732 0 101 6.26801 101 14V14C101 21.732 94.732 28 87 28H14C6.26802 28 0 21.732 0 14V14Z" fill="#4B6C89"/>
<rect x="13" y="9" width="10" height="10" fill="#FBFCFD"/>
<path fill-rule="evenodd" clip-rule="evenodd" d="M12 8H24V11V12V20H12V12V11V8ZM13 12V19H23V12H13ZM23 11H13V9H23V11Z" fill="#4B6C89"/>
<path d="M36.9062 18H30.6919V16.9399L33.7705 13.582C34.2148 13.0869 34.5301 12.6743 34.7163 12.3442C34.9067 12.0099 35.002 11.6756 35.002 11.3413C35.002 10.9012 34.8771 10.5457 34.6274 10.2749C34.382 10.0041 34.0498 9.86865 33.6309 9.86865C33.1315 9.86865 32.7443 10.021 32.4692 10.3257C32.1942 10.6304 32.0566 11.0472 32.0566 11.5762H30.5142C30.5142 11.0133 30.6411 10.5076 30.895 10.0591C31.1532 9.60628 31.5192 9.25505 31.9932 9.00537C32.4714 8.7557 33.0215 8.63086 33.6436 8.63086C34.5407 8.63086 35.2474 8.85726 35.7637 9.31006C36.2842 9.75863 36.5444 10.3807 36.5444 11.1763C36.5444 11.6375 36.4132 12.1221 36.1509 12.6299C35.8927 13.1335 35.4674 13.7069 34.875 14.3501L32.6152 16.7686H36.9062V18ZM43.9014 11.1953C43.9014 11.6481 43.785 12.0522 43.5522 12.4077C43.3195 12.759 43.0021 13.0361 42.6001 13.2393C43.0825 13.4635 43.4528 13.7703 43.7109 14.1597C43.9733 14.549 44.1045 14.9891 44.1045 15.48C44.1045 16.2925 43.8294 16.9378 43.2793 17.416C42.7292 17.89 41.9971 18.127 41.083 18.127C40.1647 18.127 39.4284 17.8879 38.874 17.4097C38.3239 16.9315 38.0488 16.2882 38.0488 15.48C38.0488 14.9849 38.18 14.5405 38.4424 14.147C38.7048 13.7534 39.0729 13.4508 39.5469 13.2393C39.1491 13.0361 38.8338 12.759 38.6011 12.4077C38.3726 12.0522 38.2583 11.6481 38.2583 11.1953C38.2583 10.4082 38.5122 9.78402 39.02 9.32275C39.5278 8.86149 40.2134 8.63086 41.0767 8.63086C41.9442 8.63086 42.6318 8.86149 43.1396 9.32275C43.6475 9.78402 43.9014 10.4082 43.9014 11.1953ZM42.562 15.4038C42.562 14.9468 42.4245 14.5786 42.1494 14.2993C41.8786 14.0158 41.5189 13.874 41.0703 13.874C40.6217 13.874 40.262 14.0137 39.9912 14.293C39.7246 14.5723 39.5913 14.9425 39.5913 15.4038C39.5913 15.8566 39.7225 16.2184 39.9849 16.4893C40.2515 16.7601 40.6175 16.8955 41.083 16.8955C41.5485 16.8955 41.9103 16.7643 42.1685 16.502C42.4308 16.2396 42.562 15.8735 42.562 15.4038ZM42.3652 11.2524C42.3652 10.8504 42.2489 10.5203 42.0161 10.2622C41.7834 9.99984 41.4702 9.86865 41.0767 9.86865C40.6831 9.86865 40.3721 9.99349 40.1436 10.2432C39.915 10.4886 39.8008 10.825 39.8008 11.2524C39.8008 11.6756 39.915 12.012 40.1436 12.2617C40.3763 12.5114 40.6895 12.6362 41.083 12.6362C41.4766 12.6362 41.7876 12.5114 42.0161 12.2617C42.2489 12.012 42.3652 11.6756 42.3652 11.2524ZM50.5601 16.7178H54.7559V18H48.9541V8.75781H50.5601V16.7178ZM58.8628 18.127C57.8853 18.127 57.0918 17.8201 56.4824 17.2065C55.8773 16.5887 55.5747 15.7677 55.5747 14.7437V14.5532C55.5747 13.8677 55.7059 13.2562 55.9683 12.7188C56.2349 12.1771 56.6073 11.756 57.0854 11.4556C57.5636 11.1551 58.0968 11.0049 58.6851 11.0049C59.6203 11.0049 60.3418 11.3032 60.8496 11.8999C61.3617 12.4966 61.6177 13.3408 61.6177 14.4326V15.0547H57.1299C57.1764 15.6217 57.3647 16.0703 57.6948 16.4004C58.0291 16.7305 58.4481 16.8955 58.9517 16.8955C59.6584 16.8955 60.2339 16.6099 60.6782 16.0386L61.5098 16.832C61.2347 17.2425 60.8665 17.562 60.4053 17.7905C59.9482 18.0148 59.4341 18.127 58.8628 18.127ZM58.6787 12.2427C58.2555 12.2427 57.9128 12.3908 57.6504 12.687C57.3923 12.9832 57.2272 13.3958 57.1553 13.9248H60.0942V13.8105C60.0604 13.2943 59.9229 12.9049 59.6816 12.6426C59.4404 12.376 59.1061 12.2427 58.6787 12.2427ZM63.3633 18V12.2744H62.3159V11.1318H63.3633V10.5034C63.3633 9.7417 63.5749 9.15348 63.998 8.73877C64.4212 8.32406 65.0137 8.1167 65.7754 8.1167C66.0462 8.1167 66.334 8.15479 66.6387 8.23096L66.6006 9.43701C66.4313 9.40316 66.2345 9.38623 66.0103 9.38623C65.2739 9.38623 64.9058 9.76497 64.9058 10.5225V11.1318H66.3022V12.2744H64.9058V18H63.3633ZM69.3618 9.4624V11.1318H70.5742V12.2744H69.3618V16.1084C69.3618 16.3708 69.4126 16.5612 69.5142 16.6797C69.62 16.7939 69.8062 16.8511 70.0728 16.8511C70.2505 16.8511 70.4303 16.8299 70.6123 16.7876V17.981C70.2611 18.0783 69.9225 18.127 69.5967 18.127C68.4118 18.127 67.8193 17.4731 67.8193 16.1655V12.2744H66.6895V11.1318H67.8193V9.4624H69.3618Z" fill="#FBFCFD"/>
<path fill-rule="evenodd" clip-rule="evenodd" d="M87.6332 12.6402C88.176 11.9889 87.7128 11 86.865 11H81.135C80.2872 11 79.824 11.9889 80.3668 12.6402L83.2318 16.0781C83.6316 16.5579 84.3684 16.5579 84.7682 16.0781L87.6332 12.6402Z" fill="#FBFCFD"/>
</svg>
