<svg width="71" height="24" viewBox="0 0 71 24" fill="none" xmlns="http://www.w3.org/2000/svg">
<path d="M0 12C0 5.37258 5.37258 0 12 0H59C65.6274 0 71 5.37258 71 12C71 18.6274 65.6274 24 59 24H12C5.37258 24 0 18.6274 0 12Z" fill="white"/>
<path d="M20.8047 17H19.4854L14.4746 9.33008V17H13.1553V7.04688H14.4746L19.499 14.751V7.04688H20.8047V17ZM22.6025 13.2334C22.6025 12.5088 22.7438 11.8571 23.0264 11.2783C23.3135 10.6995 23.71 10.2529 24.2158 9.93848C24.7262 9.62402 25.3073 9.4668 25.959 9.4668C26.9661 9.4668 27.7796 9.81543 28.3994 10.5127C29.0238 11.21 29.3359 12.1374 29.3359 13.2949V13.3838C29.3359 14.1038 29.1969 14.751 28.9189 15.3252C28.6455 15.8949 28.2513 16.3392 27.7363 16.6582C27.2259 16.9772 26.638 17.1367 25.9727 17.1367C24.9701 17.1367 24.1566 16.7881 23.5322 16.0908C22.9124 15.3936 22.6025 14.4707 22.6025 13.3223V13.2334ZM23.874 13.3838C23.874 14.2041 24.0632 14.8626 24.4414 15.3594C24.8242 15.8561 25.3346 16.1045 25.9727 16.1045C26.6152 16.1045 27.1257 15.8538 27.5039 15.3525C27.8822 14.8467 28.0713 14.1403 28.0713 13.2334C28.0713 12.4222 27.8776 11.766 27.4902 11.2646C27.1074 10.7588 26.597 10.5059 25.959 10.5059C25.3346 10.5059 24.8311 10.7542 24.4482 11.251C24.0654 11.7477 23.874 12.4587 23.874 13.3838ZM34.4971 10.7383C34.3057 10.7064 34.0983 10.6904 33.875 10.6904C33.0456 10.6904 32.4827 11.0436 32.1865 11.75V17H30.9219V9.60352H32.1523L32.1729 10.458C32.5876 9.7972 33.1755 9.4668 33.9365 9.4668C34.1826 9.4668 34.3695 9.4987 34.4971 9.5625V10.7383ZM36.8555 9.60352L36.8896 10.4238C37.432 9.78581 38.1634 9.4668 39.084 9.4668C40.1185 9.4668 40.8226 9.86328 41.1963 10.6562C41.4424 10.3008 41.7614 10.0137 42.1533 9.79492C42.5498 9.57617 43.0169 9.4668 43.5547 9.4668C45.1771 9.4668 46.002 10.3258 46.0293 12.0439V17H44.7646V12.1191C44.7646 11.5905 44.6439 11.1963 44.4023 10.9365C44.1608 10.6722 43.7552 10.54 43.1855 10.54C42.7161 10.54 42.3265 10.6813 42.0166 10.9639C41.7067 11.2419 41.5267 11.6178 41.4766 12.0918V17H40.2051V12.1533C40.2051 11.0778 39.6787 10.54 38.626 10.54C37.7965 10.54 37.2292 10.8932 36.9238 11.5996V17H35.6592V9.60352H36.8555ZM52.5098 17C52.4368 16.8542 52.3776 16.5944 52.332 16.2207C51.7441 16.8314 51.0423 17.1367 50.2266 17.1367C49.4974 17.1367 48.8981 16.9316 48.4287 16.5215C47.9639 16.1068 47.7314 15.5827 47.7314 14.9492C47.7314 14.179 48.0231 13.582 48.6064 13.1582C49.1943 12.7298 50.0192 12.5156 51.0811 12.5156H52.3115V11.9346C52.3115 11.4925 52.1794 11.1416 51.915 10.8818C51.6507 10.6175 51.2611 10.4854 50.7461 10.4854C50.2949 10.4854 49.9167 10.5993 49.6113 10.8271C49.306 11.055 49.1533 11.3307 49.1533 11.6543H47.8818C47.8818 11.2852 48.0117 10.9297 48.2715 10.5879C48.5358 10.2415 48.8913 9.9681 49.3379 9.76758C49.7891 9.56706 50.2835 9.4668 50.8213 9.4668C51.6735 9.4668 52.3411 9.68099 52.8242 10.1094C53.3073 10.5332 53.5579 11.1188 53.5762 11.8662V15.2705C53.5762 15.9495 53.6628 16.4896 53.8359 16.8906V17H52.5098ZM50.4111 16.0361C50.8076 16.0361 51.1836 15.9336 51.5391 15.7285C51.8945 15.5234 52.152 15.2568 52.3115 14.9287V13.4111H51.3203C49.7708 13.4111 48.9961 13.8646 48.9961 14.7715C48.9961 15.168 49.1283 15.4779 49.3926 15.7012C49.6569 15.9245 49.9964 16.0361 50.4111 16.0361ZM56.9326 17H55.668V6.5H56.9326V17Z" fill="#2B455D"/>
</svg>
