<svg width="84" height="24" viewBox="0 0 84 24" fill="none" xmlns="http://www.w3.org/2000/svg">
<path d="M0 12C0 5.37258 5.37258 0 12 0H72C78.6274 0 84 5.37258 84 12V12C84 18.6274 78.6274 24 72 24H12C5.37258 24 0 18.6274 0 12V12Z" fill="#0371FF"/>
<rect width="15" height="15" transform="translate(12 4)" fill="#0371FF"/>
<path fill-rule="evenodd" clip-rule="evenodd" d="M19.5 19C22.6066 19 25.2721 17.1112 26.4106 14.4193C26.7901 13.5221 27 12.5355 27 11.5C27 7.35786 23.6421 4 19.5 4C15.3579 4 12 7.35786 12 11.5C12 12.3766 12.1504 13.2181 12.4268 14C13.4563 16.913 16.2345 19 19.5 19ZM26 11.5C26 12.0163 25.9398 12.5185 25.8261 13H19.891L22.366 8.5L21.5 8L18.75 13H13.1739C13.0602 12.5185 13 12.0163 13 11.5C13 7.91015 15.9101 5 19.5 5C23.0899 5 26 7.91015 26 11.5Z" fill="white"/>
<path d="M39.6514 14.4023H35.4814L34.5449 17H33.1914L36.9922 7.04688H38.1406L41.9482 17H40.6016L39.6514 14.4023ZM35.8779 13.3223H39.2617L37.5664 8.66699L35.8779 13.3223ZM46.0566 16.1045C46.5078 16.1045 46.902 15.9678 47.2393 15.6943C47.5765 15.4209 47.7633 15.0791 47.7998 14.6689H48.9961C48.9733 15.0928 48.8275 15.4961 48.5586 15.8789C48.2897 16.2617 47.9297 16.5671 47.4785 16.7949C47.0319 17.0228 46.5579 17.1367 46.0566 17.1367C45.0495 17.1367 44.2474 16.8018 43.6504 16.1318C43.0579 15.4574 42.7617 14.5368 42.7617 13.3701V13.1582C42.7617 12.4382 42.8939 11.7979 43.1582 11.2373C43.4225 10.6768 43.8008 10.2415 44.293 9.93164C44.7897 9.62174 45.3753 9.4668 46.0498 9.4668C46.8792 9.4668 47.5674 9.71517 48.1143 10.2119C48.6657 10.7087 48.9596 11.3535 48.9961 12.1465H47.7998C47.7633 11.668 47.5811 11.276 47.2529 10.9707C46.9294 10.6608 46.5283 10.5059 46.0498 10.5059C45.4072 10.5059 44.9082 10.7383 44.5527 11.2031C44.2018 11.6634 44.0264 12.3311 44.0264 13.2061V13.4453C44.0264 14.2975 44.2018 14.9538 44.5527 15.4141C44.9036 15.8743 45.4049 16.1045 46.0566 16.1045ZM52.1338 7.8125V9.60352H53.5146V10.5811H52.1338V15.168C52.1338 15.4642 52.1953 15.6875 52.3184 15.8379C52.4414 15.9837 52.651 16.0566 52.9473 16.0566C53.0931 16.0566 53.2936 16.0293 53.5488 15.9746V17C53.2161 17.0911 52.8926 17.1367 52.5781 17.1367C52.013 17.1367 51.5869 16.9658 51.2998 16.624C51.0127 16.2822 50.8691 15.7969 50.8691 15.168V10.5811H49.5225V9.60352H50.8691V7.8125H52.1338ZM56.3721 17H55.1074V9.60352H56.3721V17ZM55.0049 7.6416C55.0049 7.43652 55.0664 7.26335 55.1895 7.12207C55.3171 6.98079 55.5039 6.91016 55.75 6.91016C55.9961 6.91016 56.1829 6.98079 56.3105 7.12207C56.4382 7.26335 56.502 7.43652 56.502 7.6416C56.502 7.84668 56.4382 8.01758 56.3105 8.1543C56.1829 8.29102 55.9961 8.35938 55.75 8.35938C55.5039 8.35938 55.3171 8.29102 55.1895 8.1543C55.0664 8.01758 55.0049 7.84668 55.0049 7.6416ZM60.8428 15.2842L62.6748 9.60352H63.9668L61.3145 17H60.3506L57.6709 9.60352H58.9629L60.8428 15.2842ZM68.1572 17.1367C67.1546 17.1367 66.3389 16.8086 65.71 16.1523C65.0811 15.4915 64.7666 14.6097 64.7666 13.5068V13.2744C64.7666 12.5407 64.9056 11.8867 65.1836 11.3125C65.4661 10.7337 65.8581 10.2826 66.3594 9.95898C66.8652 9.63086 67.4121 9.4668 68 9.4668C68.9616 9.4668 69.709 9.78353 70.2422 10.417C70.7754 11.0505 71.042 11.9574 71.042 13.1377V13.6641H66.0312C66.0495 14.3932 66.2614 14.9834 66.667 15.4346C67.0771 15.8812 67.5967 16.1045 68.2256 16.1045C68.6722 16.1045 69.0505 16.0133 69.3604 15.8311C69.6702 15.6488 69.9414 15.4072 70.1738 15.1064L70.9463 15.708C70.3265 16.6605 69.3968 17.1367 68.1572 17.1367ZM68 10.5059C67.4896 10.5059 67.0612 10.6927 66.7148 11.0664C66.3685 11.4355 66.1543 11.9551 66.0723 12.625H69.7773V12.5293C69.7409 11.8867 69.5677 11.39 69.2578 11.0391C68.9479 10.6836 68.5286 10.5059 68 10.5059Z" fill="white"/>
</svg>
