<svg width="110" height="110" viewBox="0 0 110 110" fill="none" xmlns="http://www.w3.org/2000/svg">
<circle cx="55" cy="55" r="55" fill="#DAF5FF"/>
<mask id="mask0" mask-type="alpha" maskUnits="userSpaceOnUse" x="0" y="0" width="110" height="110">
<circle cx="55" cy="55" r="55" fill="white"/>
</mask>
<g mask="url(#mask0)">
<path fill-rule="evenodd" clip-rule="evenodd" d="M18 26C18 24.8954 18.8954 24 20 24H90C91.1046 24 92 24.8954 92 26V128C92 129.105 91.1046 130 90 130H20C18.8954 130 18 129.105 18 128V26Z" fill="#2E9CF2"/>
<path fill-rule="evenodd" clip-rule="evenodd" d="M30 85C30 84.4477 30.4477 84 31 84H79C79.5523 84 80 84.4477 80 85C80 85.5523 79.5523 86 79 86H31C30.4477 86 30 85.5523 30 85ZM30 91C30 90.4477 30.4477 90 31 90H59.7692C60.3215 90 60.7692 90.4477 60.7692 91C60.7692 91.5523 60.3215 92 59.7692 92H31C30.4477 92 30 91.5523 30 91ZM31 96C30.4477 96 30 96.4477 30 97C30 97.5523 30.4477 98 31 98H44.3846C44.9369 98 45.3846 97.5523 45.3846 97C45.3846 96.4477 44.9369 96 44.3846 96H31Z" fill="#B1EAFF"/>
<circle cx="55" cy="54" r="20" fill="#3048E9" fill-opacity="0.98"/>
<path d="M52 65C51.7348 64.9999 51.4805 64.8945 51.293 64.707L43.586 57L45 55.586L51.9 62.486L65.809 42.6L67.4 43.809L52.8 64.609C52.7137 64.7226 52.6041 64.8165 52.4785 64.8843C52.353 64.9521 52.2144 64.9922 52.072 65.002L52 65Z" fill="#B1EAFF"/>
</g>
</svg>
