<svg width="15" height="15" viewBox="0 0 15 15" fill="none" xmlns="http://www.w3.org/2000/svg">
<path fill-rule="evenodd" clip-rule="evenodd" d="M5.5 7.49999L9.5 10.0293L14 5.293V13H1L5.5 7.49999Z" fill="#F6F7F9"/>
<path fill-rule="evenodd" clip-rule="evenodd" d="M0 2C0 1.44772 0.447715 1 1 1H14C14.5523 1 15 1.44772 15 2V13C15 13.5523 14.5523 14 14 14H1C0.447715 14 0 13.5523 0 13V2ZM1 2H14V5.5L9 10.5L5.86537 7.5L1 12.5V2ZM1.70708 13H14V6.70711L9 11.7071L6 8.707L1.70708 13Z" fill="#4B6C89"/>
</svg>
