<svg width="111" height="44" viewBox="0 0 111 44" fill="none" xmlns="http://www.w3.org/2000/svg">
<rect width="111" height="42" fill="#F6F7F9"/>
<path d="M26.1675 21.7056H27.3164V22.9434H26.1675V25H24.625V22.9434H20.6323L20.5879 22.0039L24.5742 15.7578H26.1675V21.7056ZM22.2065 21.7056H24.625V17.8462L24.5107 18.0493L22.2065 21.7056ZM33.5562 21.7056H34.7051V22.9434H33.5562V25H32.0137V22.9434H28.021L27.9766 22.0039L31.9629 15.7578H33.5562V21.7056ZM29.5952 21.7056H32.0137V17.8462L31.8994 18.0493L29.5952 21.7056ZM38.8184 21.6929H35.4858V20.4487H38.8184V21.6929ZM46.1055 21.6357C46.1055 22.6979 45.8643 23.5464 45.3818 24.1812C44.8994 24.8117 44.252 25.127 43.4395 25.127C42.6862 25.127 42.0832 24.8794 41.6304 24.3843V27.6406H40.0879V18.1318H41.5098L41.5732 18.8301C42.026 18.2799 42.6418 18.0049 43.4204 18.0049C44.2583 18.0049 44.9142 18.318 45.3882 18.9443C45.8664 19.5664 46.1055 20.4318 46.1055 21.5405V21.6357ZM44.5693 21.5024C44.5693 20.8169 44.4318 20.2731 44.1567 19.8711C43.8859 19.4691 43.4966 19.2681 42.9888 19.2681C42.3582 19.2681 41.9054 19.5283 41.6304 20.0488V23.0957C41.9097 23.6289 42.3667 23.8955 43.0015 23.8955C43.4924 23.8955 43.8753 23.6987 44.1504 23.3052C44.4297 22.9074 44.5693 22.3065 44.5693 21.5024ZM49.7808 20.3916L51.0884 18.1318H52.8022L50.7012 21.5151L52.8721 25H51.1709L49.7998 22.6514L48.4351 25H46.7212L48.8921 21.5151L46.7974 18.1318H48.4985L49.7808 20.3916ZM64.5771 25H62.9775V20.8931H58.8452V25H57.2393V15.7578H58.8452V19.6045H62.9775V15.7578H64.5771V25ZM66.0435 21.5024C66.0435 20.8296 66.1768 20.2244 66.4434 19.687C66.71 19.1453 67.0845 18.7306 67.5669 18.4429C68.0493 18.1509 68.6037 18.0049 69.23 18.0049C70.1567 18.0049 70.9079 18.3032 71.4834 18.8999C72.0632 19.4966 72.3763 20.2879 72.4229 21.2739L72.4292 21.6357C72.4292 22.3128 72.298 22.918 72.0356 23.4512C71.7775 23.9844 71.4051 24.397 70.9185 24.689C70.436 24.981 69.8774 25.127 69.2427 25.127C68.2736 25.127 67.4971 24.8053 66.9131 24.1621C66.3333 23.5146 66.0435 22.6535 66.0435 21.5786V21.5024ZM67.5859 21.6357C67.5859 22.3424 67.7319 22.8968 68.0239 23.2988C68.3159 23.6966 68.7222 23.8955 69.2427 23.8955C69.7632 23.8955 70.1673 23.6924 70.4551 23.2861C70.7471 22.8799 70.8931 22.2853 70.8931 21.5024C70.8931 20.8084 70.7428 20.2583 70.4424 19.8521C70.1462 19.4458 69.742 19.2427 69.23 19.2427C68.7264 19.2427 68.3265 19.4437 68.0303 19.8457C67.734 20.2435 67.5859 20.8402 67.5859 21.6357ZM76.0537 23.0449L77.5073 18.1318H79.1006L76.7202 25H75.3809L72.9814 18.1318H74.5811L76.0537 23.0449ZM83.0044 25.127C82.0269 25.127 81.2334 24.8201 80.624 24.2065C80.0189 23.5887 79.7163 22.7677 79.7163 21.7437V21.5532C79.7163 20.8677 79.8475 20.2562 80.1099 19.7188C80.3765 19.1771 80.7489 18.756 81.2271 18.4556C81.7052 18.1551 82.2384 18.0049 82.8267 18.0049C83.7619 18.0049 84.4834 18.3032 84.9912 18.8999C85.5033 19.4966 85.7593 20.3408 85.7593 21.4326V22.0547H81.2715C81.318 22.6217 81.5063 23.0703 81.8364 23.4004C82.1707 23.7305 82.5897 23.8955 83.0933 23.8955C83.8 23.8955 84.3755 23.6099 84.8198 23.0386L85.6514 23.832C85.3763 24.2425 85.0081 24.562 84.5469 24.7905C84.0898 25.0148 83.5757 25.127 83.0044 25.127ZM82.8203 19.2427C82.3971 19.2427 82.0544 19.3908 81.792 19.687C81.5339 19.9832 81.3688 20.3958 81.2969 20.9248H84.2358V20.8105C84.202 20.2943 84.0645 19.9049 83.8232 19.6426C83.582 19.376 83.2477 19.2427 82.8203 19.2427ZM90.5581 19.541C90.355 19.5072 90.1455 19.4902 89.9297 19.4902C89.223 19.4902 88.7469 19.7611 88.5015 20.3027V25H86.959V18.1318H88.4316L88.4697 18.8999C88.8421 18.3032 89.3584 18.0049 90.0186 18.0049C90.2386 18.0049 90.4206 18.0345 90.5645 18.0938L90.5581 19.541Z" fill="#4B6C89"/>
<path fill-rule="evenodd" clip-rule="evenodd" d="M0 42H111V44H0V42Z" fill="#6F89A1"/>
</svg>
