<svg width="14" height="14" viewBox="0 0 14 14" fill="none" xmlns="http://www.w3.org/2000/svg">
<path fill-rule="evenodd" clip-rule="evenodd" d="M14 7C14 10.866 10.866 14 7 14C3.13401 14 0 10.866 0 7C0 3.13401 3.13401 0 7 0C10.866 0 14 3.13401 14 7ZM13 7C13 10.3137 10.3137 13 7 13C3.68629 13 1 10.3137 1 7C1 3.68629 3.68629 1 7 1C10.3137 1 13 3.68629 13 7ZM8.25583 3.24399C8.58125 2.91867 9.10875 2.91867 9.43417 3.24399L10.7558 4.56566C11.0812 4.89107 11.0812 5.41857 10.7558 5.74399L6.33333 10.1665L3 10.9998L3.83333 7.66649L8.25583 3.24399Z" fill="#4B6C89"/>
</svg>
