<svg width="108" height="24" viewBox="0 0 108 24" fill="none" xmlns="http://www.w3.org/2000/svg">
<path opacity="0.2" fill-rule="evenodd" clip-rule="evenodd" d="M0 8C0 3.58172 3.58172 0 8 0H100C104.418 0 108 3.58172 108 8V16C108 20.4183 104.418 24 100 24H8C3.58172 24 0 20.4183 0 16V8Z" fill="#953EF6"/>
<path d="M39.3179 16.0034H43.6978V17H38.0928V7.75781H39.3179V16.0034ZM47.7539 17.127C46.8229 17.127 46.0654 16.8223 45.4814 16.2129C44.8975 15.5993 44.6055 14.7804 44.6055 13.7563V13.5405C44.6055 12.8592 44.7345 12.252 44.9927 11.7188C45.255 11.1813 45.619 10.7624 46.0845 10.4619C46.5542 10.1572 47.062 10.0049 47.6079 10.0049C48.5008 10.0049 49.1948 10.299 49.6899 10.8872C50.1851 11.4754 50.4326 12.3175 50.4326 13.4136V13.9023H45.7798C45.7967 14.5794 45.9935 15.1274 46.3701 15.5464C46.751 15.9611 47.2334 16.1685 47.8174 16.1685C48.2321 16.1685 48.5833 16.0838 48.8711 15.9146C49.1589 15.7453 49.4106 15.521 49.6265 15.2417L50.3438 15.8003C49.7682 16.6847 48.9049 17.127 47.7539 17.127ZM47.6079 10.9697C47.134 10.9697 46.7362 11.1432 46.4146 11.4902C46.0929 11.833 45.894 12.3154 45.8179 12.9375H49.2583V12.8486C49.2244 12.252 49.0636 11.7907 48.7759 11.4648C48.4881 11.1348 48.0988 10.9697 47.6079 10.9697ZM56.0376 17C55.9699 16.8646 55.9149 16.6234 55.8726 16.2764C55.3267 16.8434 54.675 17.127 53.9175 17.127C53.2404 17.127 52.6839 16.9365 52.248 16.5557C51.8164 16.1706 51.6006 15.6839 51.6006 15.0957C51.6006 14.3805 51.8714 13.8262 52.4131 13.4326C52.959 13.0348 53.7249 12.8359 54.7109 12.8359H55.8535V12.2964C55.8535 11.8859 55.7308 11.5601 55.4854 11.3188C55.2399 11.0734 54.8781 10.9507 54.3999 10.9507C53.981 10.9507 53.6297 11.0565 53.3462 11.2681C53.0627 11.4797 52.9209 11.7357 52.9209 12.0361H51.7402C51.7402 11.6934 51.8608 11.3633 52.1021 11.0459C52.3475 10.7243 52.6776 10.4704 53.0923 10.2842C53.5112 10.098 53.9704 10.0049 54.4697 10.0049C55.2611 10.0049 55.881 10.2038 56.3296 10.6016C56.7782 10.9951 57.0109 11.5389 57.0278 12.2329V15.394C57.0278 16.0246 57.1082 16.526 57.269 16.8984V17H56.0376ZM54.0889 16.105C54.457 16.105 54.8062 16.0098 55.1362 15.8193C55.4663 15.6289 55.7054 15.3813 55.8535 15.0767V13.6675H54.9331C53.4943 13.6675 52.7749 14.0885 52.7749 14.9307C52.7749 15.2988 52.8976 15.5866 53.1431 15.7939C53.3885 16.0013 53.7038 16.105 54.0889 16.105ZM61.0332 15.4067L62.7344 10.1318H63.9341L61.4712 17H60.5762L58.0879 10.1318H59.2876L61.0332 15.4067ZM67.8252 17.127C66.8942 17.127 66.1367 16.8223 65.5527 16.2129C64.9688 15.5993 64.6768 14.7804 64.6768 13.7563V13.5405C64.6768 12.8592 64.8058 12.252 65.064 11.7188C65.3263 11.1813 65.6903 10.7624 66.1558 10.4619C66.6255 10.1572 67.1333 10.0049 67.6792 10.0049C68.5721 10.0049 69.2661 10.299 69.7612 10.8872C70.2563 11.4754 70.5039 12.3175 70.5039 13.4136V13.9023H65.8511C65.868 14.5794 66.0648 15.1274 66.4414 15.5464C66.8223 15.9611 67.3047 16.1685 67.8887 16.1685C68.3034 16.1685 68.6546 16.0838 68.9424 15.9146C69.2301 15.7453 69.4819 15.521 69.6978 15.2417L70.415 15.8003C69.8395 16.6847 68.9762 17.127 67.8252 17.127ZM67.6792 10.9697C67.2052 10.9697 66.8075 11.1432 66.4858 11.4902C66.1642 11.833 65.9653 12.3154 65.8892 12.9375H69.3296V12.8486C69.2957 12.252 69.1349 11.7907 68.8472 11.4648C68.5594 11.1348 68.1701 10.9697 67.6792 10.9697Z" fill="#606060"/>
</svg>
