<svg width="452" height="47" viewBox="0 0 452 47" fill="none" xmlns="http://www.w3.org/2000/svg">
<rect x="0.5" y="19.5" width="451" height="27" rx="3.5" fill="white"/>
<path d="M14.4434 28.4688L17.2324 35.4297L20.0215 28.4688H21.4805V37H20.3555V33.6777L20.4609 30.0918L17.6602 37H16.7988L14.0039 30.1094L14.1152 33.6777V37H12.9902V28.4688H14.4434ZM23.0098 33.7715C23.0098 33.1504 23.1309 32.5918 23.373 32.0957C23.6191 31.5996 23.959 31.2168 24.3926 30.9473C24.8301 30.6777 25.3281 30.543 25.8867 30.543C26.75 30.543 27.4473 30.8418 27.9785 31.4395C28.5137 32.0371 28.7812 32.832 28.7812 33.8242V33.9004C28.7812 34.5176 28.6621 35.0723 28.4238 35.5645C28.1895 36.0527 27.8516 36.4336 27.4102 36.707C26.9727 36.9805 26.4688 37.1172 25.8984 37.1172C25.0391 37.1172 24.3418 36.8184 23.8066 36.2207C23.2754 35.623 23.0098 34.832 23.0098 33.8477V33.7715ZM24.0996 33.9004C24.0996 34.6035 24.2617 35.168 24.5859 35.5938C24.9141 36.0195 25.3516 36.2324 25.8984 36.2324C26.4492 36.2324 26.8867 36.0176 27.2109 35.5879C27.5352 35.1543 27.6973 34.5488 27.6973 33.7715C27.6973 33.0762 27.5312 32.5137 27.1992 32.084C26.8711 31.6504 26.4336 31.4336 25.8867 31.4336C25.3516 31.4336 24.9199 31.6465 24.5918 32.0723C24.2637 32.498 24.0996 33.1074 24.0996 33.9004ZM31.2246 31.4277C31.7051 30.8379 32.3301 30.543 33.0996 30.543C34.4395 30.543 35.1152 31.2988 35.127 32.8105V37H34.043V32.8047C34.0391 32.3477 33.9336 32.0098 33.7266 31.791C33.5234 31.5723 33.2051 31.4629 32.7715 31.4629C32.4199 31.4629 32.1113 31.5566 31.8457 31.7441C31.5801 31.9316 31.373 32.1777 31.2246 32.4824V37H30.1406V28H31.2246V31.4277ZM40.6641 37C40.6016 36.875 40.5508 36.6523 40.5117 36.332C40.0078 36.8555 39.4062 37.1172 38.707 37.1172C38.082 37.1172 37.5684 36.9414 37.166 36.5898C36.7676 36.2344 36.5684 35.7852 36.5684 35.2422C36.5684 34.582 36.8184 34.0703 37.3184 33.707C37.8223 33.3398 38.5293 33.1562 39.4395 33.1562H40.4941V32.6582C40.4941 32.2793 40.3809 31.9785 40.1543 31.7559C39.9277 31.5293 39.5938 31.416 39.1523 31.416C38.7656 31.416 38.4414 31.5137 38.1797 31.709C37.918 31.9043 37.7871 32.1406 37.7871 32.418H36.6973C36.6973 32.1016 36.8086 31.7969 37.0312 31.5039C37.2578 31.207 37.5625 30.9727 37.9453 30.8008C38.332 30.6289 38.7559 30.543 39.2168 30.543C39.9473 30.543 40.5195 30.7266 40.9336 31.0938C41.3477 31.457 41.5625 31.959 41.5781 32.5996V35.5176C41.5781 36.0996 41.6523 36.5625 41.8008 36.9062V37H40.6641ZM38.8652 36.1738C39.2051 36.1738 39.5273 36.0859 39.832 35.9102C40.1367 35.7344 40.3574 35.5059 40.4941 35.2246V33.9238H39.6445C38.3164 33.9238 37.6523 34.3125 37.6523 35.0898C37.6523 35.4297 37.7656 35.6953 37.9922 35.8867C38.2188 36.0781 38.5098 36.1738 38.8652 36.1738ZM44.2969 30.6602L44.3262 31.3633C44.791 30.8164 45.418 30.543 46.207 30.543C47.0938 30.543 47.6973 30.8828 48.0176 31.5625C48.2285 31.2578 48.502 31.0117 48.8379 30.8242C49.1777 30.6367 49.5781 30.543 50.0391 30.543C51.4297 30.543 52.1367 31.2793 52.1602 32.752V37H51.0762V32.8164C51.0762 32.3633 50.9727 32.0254 50.7656 31.8027C50.5586 31.5762 50.2109 31.4629 49.7227 31.4629C49.3203 31.4629 48.9863 31.584 48.7207 31.8262C48.4551 32.0645 48.3008 32.3867 48.2578 32.793V37H47.168V32.8457C47.168 31.9238 46.7168 31.4629 45.8145 31.4629C45.1035 31.4629 44.6172 31.7656 44.3555 32.3711V37H43.2715V30.6602H44.2969ZM54.8203 30.6602L54.8496 31.3633C55.3145 30.8164 55.9414 30.543 56.7305 30.543C57.6172 30.543 58.2207 30.8828 58.541 31.5625C58.752 31.2578 59.0254 31.0117 59.3613 30.8242C59.7012 30.6367 60.1016 30.543 60.5625 30.543C61.9531 30.543 62.6602 31.2793 62.6836 32.752V37H61.5996V32.8164C61.5996 32.3633 61.4961 32.0254 61.2891 31.8027C61.082 31.5762 60.7344 31.4629 60.2461 31.4629C59.8438 31.4629 59.5098 31.584 59.2441 31.8262C58.9785 32.0645 58.8242 32.3867 58.7812 32.793V37H57.6914V32.8457C57.6914 31.9238 57.2402 31.4629 56.3379 31.4629C55.627 31.4629 55.1406 31.7656 54.8789 32.3711V37H53.7949V30.6602H54.8203ZM66.9551 37.1172C66.0957 37.1172 65.3965 36.8359 64.8574 36.2734C64.3184 35.707 64.0488 34.9512 64.0488 34.0059V33.8066C64.0488 33.1777 64.168 32.6172 64.4062 32.125C64.6484 31.6289 64.9844 31.2422 65.4141 30.9648C65.8477 30.6836 66.3164 30.543 66.8203 30.543C67.6445 30.543 68.2852 30.8145 68.7422 31.3574C69.1992 31.9004 69.4277 32.6777 69.4277 33.6895V34.1406H65.1328C65.1484 34.7656 65.3301 35.2715 65.6777 35.6582C66.0293 36.041 66.4746 36.2324 67.0137 36.2324C67.3965 36.2324 67.7207 36.1543 67.9863 35.998C68.252 35.8418 68.4844 35.6348 68.6836 35.377L69.3457 35.8926C68.8145 36.709 68.0176 37.1172 66.9551 37.1172ZM66.8203 31.4336C66.3828 31.4336 66.0156 31.5938 65.7188 31.9141C65.4219 32.2305 65.2383 32.6758 65.168 33.25H68.3438V33.168C68.3125 32.6172 68.1641 32.1914 67.8984 31.8906C67.6328 31.5859 67.2734 31.4336 66.8203 31.4336ZM70.4238 33.7773C70.4238 32.8047 70.6543 32.0234 71.1152 31.4336C71.5762 30.8398 72.1797 30.543 72.9258 30.543C73.668 30.543 74.2559 30.7969 74.6895 31.3047V28H75.7734V37H74.7773L74.7246 36.3203C74.291 36.8516 73.6875 37.1172 72.9141 37.1172C72.1797 37.1172 71.5801 36.8164 71.1152 36.2148C70.6543 35.6133 70.4238 34.8281 70.4238 33.8594V33.7773ZM71.5078 33.9004C71.5078 34.6191 71.6562 35.1816 71.9531 35.5879C72.25 35.9941 72.6602 36.1973 73.1836 36.1973C73.8711 36.1973 74.373 35.8887 74.6895 35.2715V32.3594C74.3652 31.7617 73.8672 31.4629 73.1953 31.4629C72.6641 31.4629 72.25 31.668 71.9531 32.0781C71.6562 32.4883 71.5078 33.0957 71.5078 33.9004ZM85.3184 34.7734H81.7441L80.9414 37H79.7812L83.0391 28.4688H84.0234L87.2871 37H86.1328L85.3184 34.7734ZM82.084 33.8477H84.9844L83.5312 29.8574L82.084 33.8477ZM90.0352 34.0645L89.3555 34.7734V37H88.2715V28H89.3555V33.4434L89.9355 32.7461L91.9102 30.6602H93.2285L90.7617 33.3086L93.5156 37H92.2441L90.0352 34.0645ZM96.1172 34.0645L95.4375 34.7734V37H94.3535V28H95.4375V33.4434L96.0176 32.7461L97.9922 30.6602H99.3105L96.8438 33.3086L99.5977 37H98.3262L96.1172 34.0645ZM104.344 37C104.281 36.875 104.23 36.6523 104.191 36.332C103.688 36.8555 103.086 37.1172 102.387 37.1172C101.762 37.1172 101.248 36.9414 100.846 36.5898C100.447 36.2344 100.248 35.7852 100.248 35.2422C100.248 34.582 100.498 34.0703 100.998 33.707C101.502 33.3398 102.209 33.1562 103.119 33.1562H104.174V32.6582C104.174 32.2793 104.061 31.9785 103.834 31.7559C103.607 31.5293 103.273 31.416 102.832 31.416C102.445 31.416 102.121 31.5137 101.859 31.709C101.598 31.9043 101.467 32.1406 101.467 32.418H100.377C100.377 32.1016 100.488 31.7969 100.711 31.5039C100.938 31.207 101.242 30.9727 101.625 30.8008C102.012 30.6289 102.436 30.543 102.896 30.543C103.627 30.543 104.199 30.7266 104.613 31.0938C105.027 31.457 105.242 31.959 105.258 32.5996V35.5176C105.258 36.0996 105.332 36.5625 105.48 36.9062V37H104.344ZM102.545 36.1738C102.885 36.1738 103.207 36.0859 103.512 35.9102C103.816 35.7344 104.037 35.5059 104.174 35.2246V33.9238H103.324C101.996 33.9238 101.332 34.3125 101.332 35.0898C101.332 35.4297 101.445 35.6953 101.672 35.8867C101.898 36.0781 102.189 36.1738 102.545 36.1738ZM110.021 31.6328C109.857 31.6055 109.68 31.5918 109.488 31.5918C108.777 31.5918 108.295 31.8945 108.041 32.5V37H106.957V30.6602H108.012L108.029 31.3926C108.385 30.8262 108.889 30.543 109.541 30.543C109.752 30.543 109.912 30.5703 110.021 30.625V31.6328Z" fill="#404040"/>
<rect x="0.5" y="19.5" width="451" height="27" rx="3.5" stroke="#0371FF"/>
<path d="M5.22607 7.95898H1.94971L1.21387 10H0.150391L3.13672 2.17969H4.03906L7.03076 10H5.97266L5.22607 7.95898ZM2.26123 7.11035H4.91992L3.58789 3.45264L2.26123 7.11035ZM10.2588 9.29639C10.6133 9.29639 10.923 9.18896 11.188 8.97412C11.453 8.75928 11.5998 8.49072 11.6284 8.16846H12.5684C12.5505 8.50146 12.4359 8.81836 12.2246 9.11914C12.0133 9.41992 11.7305 9.65983 11.376 9.83887C11.0251 10.0179 10.6527 10.1074 10.2588 10.1074C9.46745 10.1074 8.83724 9.84424 8.36816 9.31787C7.90267 8.78792 7.66992 8.06462 7.66992 7.14795V6.98145C7.66992 6.41569 7.77376 5.9126 7.98145 5.47217C8.18913 5.03174 8.48633 4.68978 8.87305 4.44629C9.26335 4.2028 9.72347 4.08105 10.2534 4.08105C10.9051 4.08105 11.4458 4.2762 11.8755 4.6665C12.3088 5.0568 12.5397 5.56348 12.5684 6.18652H11.6284C11.5998 5.81055 11.4565 5.5026 11.1987 5.2627C10.9445 5.01921 10.6294 4.89746 10.2534 4.89746C9.74854 4.89746 9.35645 5.08008 9.07715 5.44531C8.80143 5.80697 8.66357 6.33154 8.66357 7.01904V7.20703C8.66357 7.87663 8.80143 8.39225 9.07715 8.75391C9.35286 9.11556 9.74674 9.29639 10.2588 9.29639ZM15.0337 2.78125V4.18848H16.1187V4.95654H15.0337V8.56055C15.0337 8.79329 15.082 8.96875 15.1787 9.08691C15.2754 9.2015 15.4401 9.25879 15.6729 9.25879C15.7874 9.25879 15.945 9.2373 16.1455 9.19434V10C15.8841 10.0716 15.6299 10.1074 15.3828 10.1074C14.9388 10.1074 14.604 9.97314 14.3784 9.70459C14.1528 9.43604 14.04 9.05469 14.04 8.56055V4.95654H12.9819V4.18848H14.04V2.78125H15.0337ZM18.3638 10H17.3701V4.18848H18.3638V10ZM17.2896 2.64697C17.2896 2.48584 17.3379 2.34977 17.4346 2.23877C17.5348 2.12777 17.6816 2.07227 17.875 2.07227C18.0684 2.07227 18.2152 2.12777 18.3154 2.23877C18.4157 2.34977 18.4658 2.48584 18.4658 2.64697C18.4658 2.80811 18.4157 2.94238 18.3154 3.0498C18.2152 3.15723 18.0684 3.21094 17.875 3.21094C17.6816 3.21094 17.5348 3.15723 17.4346 3.0498C17.3379 2.94238 17.2896 2.80811 17.2896 2.64697ZM21.8765 8.65186L23.3159 4.18848H24.3311L22.2471 10H21.4897L19.3843 4.18848H20.3994L21.8765 8.65186ZM27.6235 10.1074C26.8358 10.1074 26.1948 9.84961 25.7007 9.33398C25.2065 8.81478 24.9595 8.12191 24.9595 7.25537V7.07275C24.9595 6.49626 25.0687 5.98242 25.2871 5.53125C25.5091 5.0765 25.8171 4.72201 26.2109 4.46777C26.6084 4.20996 27.0381 4.08105 27.5 4.08105C28.2555 4.08105 28.8428 4.32992 29.2617 4.82764C29.6807 5.32536 29.8901 6.03792 29.8901 6.96533V7.37891H25.9531C25.9674 7.95182 26.134 8.41553 26.4526 8.77002C26.7749 9.12093 27.1831 9.29639 27.6772 9.29639C28.0282 9.29639 28.3254 9.22477 28.5688 9.08154C28.8123 8.93831 29.0254 8.74854 29.208 8.51221L29.8149 8.98486C29.328 9.73324 28.5975 10.1074 27.6235 10.1074ZM27.5 4.89746C27.099 4.89746 26.7624 5.04427 26.4902 5.33789C26.2181 5.62793 26.0498 6.03613 25.9854 6.5625H28.8965V6.4873C28.8678 5.98242 28.7318 5.59212 28.4883 5.31641C28.2448 5.03711 27.9154 4.89746 27.5 4.89746Z" fill="#6F89A1"/>
</svg>
