<svg width="200" height="32" viewBox="0 0 200 32" fill="none" xmlns="http://www.w3.org/2000/svg">
<rect x="0.5" y="0.5" width="199" height="31" rx="3.5" fill="white"/>
<path d="M18.6514 18.4023H14.4814L13.5449 21H12.1914L15.9922 11.0469H17.1406L20.9482 21H19.6016L18.6514 18.4023ZM14.8779 17.3223H18.2617L16.5664 12.667L14.8779 17.3223ZM25.0566 20.1045C25.5078 20.1045 25.902 19.9678 26.2393 19.6943C26.5765 19.4209 26.7633 19.0791 26.7998 18.6689H27.9961C27.9733 19.0928 27.8275 19.4961 27.5586 19.8789C27.2897 20.2617 26.9297 20.5671 26.4785 20.7949C26.0319 21.0228 25.5579 21.1367 25.0566 21.1367C24.0495 21.1367 23.2474 20.8018 22.6504 20.1318C22.0579 19.4574 21.7617 18.5368 21.7617 17.3701V17.1582C21.7617 16.4382 21.8939 15.7979 22.1582 15.2373C22.4225 14.6768 22.8008 14.2415 23.293 13.9316C23.7897 13.6217 24.3753 13.4668 25.0498 13.4668C25.8792 13.4668 26.5674 13.7152 27.1143 14.2119C27.6657 14.7087 27.9596 15.3535 27.9961 16.1465H26.7998C26.7633 15.668 26.5811 15.276 26.2529 14.9707C25.9294 14.6608 25.5283 14.5059 25.0498 14.5059C24.4072 14.5059 23.9082 14.7383 23.5527 15.2031C23.2018 15.6634 23.0264 16.3311 23.0264 17.2061V17.4453C23.0264 18.2975 23.2018 18.9538 23.5527 19.4141C23.9036 19.8743 24.4049 20.1045 25.0566 20.1045ZM31.1338 11.8125V13.6035H32.5146V14.5811H31.1338V19.168C31.1338 19.4642 31.1953 19.6875 31.3184 19.8379C31.4414 19.9837 31.651 20.0566 31.9473 20.0566C32.0931 20.0566 32.2936 20.0293 32.5488 19.9746V21C32.2161 21.0911 31.8926 21.1367 31.5781 21.1367C31.013 21.1367 30.5869 20.9658 30.2998 20.624C30.0127 20.2822 29.8691 19.7969 29.8691 19.168V14.5811H28.5225V13.6035H29.8691V11.8125H31.1338ZM35.3721 21H34.1074V13.6035H35.3721V21ZM34.0049 11.6416C34.0049 11.4365 34.0664 11.2633 34.1895 11.1221C34.3171 10.9808 34.5039 10.9102 34.75 10.9102C34.9961 10.9102 35.1829 10.9808 35.3105 11.1221C35.4382 11.2633 35.502 11.4365 35.502 11.6416C35.502 11.8467 35.4382 12.0176 35.3105 12.1543C35.1829 12.291 34.9961 12.3594 34.75 12.3594C34.5039 12.3594 34.3171 12.291 34.1895 12.1543C34.0664 12.0176 34.0049 11.8467 34.0049 11.6416ZM39.8428 19.2842L41.6748 13.6035H42.9668L40.3145 21H39.3506L36.6709 13.6035H37.9629L39.8428 19.2842ZM47.1572 21.1367C46.1546 21.1367 45.3389 20.8086 44.71 20.1523C44.0811 19.4915 43.7666 18.6097 43.7666 17.5068V17.2744C43.7666 16.5407 43.9056 15.8867 44.1836 15.3125C44.4661 14.7337 44.8581 14.2826 45.3594 13.959C45.8652 13.6309 46.4121 13.4668 47 13.4668C47.9616 13.4668 48.709 13.7835 49.2422 14.417C49.7754 15.0505 50.042 15.9574 50.042 17.1377V17.6641H45.0312C45.0495 18.3932 45.2614 18.9834 45.667 19.4346C46.0771 19.8812 46.5967 20.1045 47.2256 20.1045C47.6722 20.1045 48.0505 20.0133 48.3604 19.8311C48.6702 19.6488 48.9414 19.4072 49.1738 19.1064L49.9463 19.708C49.3265 20.6605 48.3968 21.1367 47.1572 21.1367ZM47 14.5059C46.4896 14.5059 46.0612 14.6927 45.7148 15.0664C45.3685 15.4355 45.1543 15.9551 45.0723 16.625H48.7773V16.5293C48.7409 15.8867 48.5677 15.39 48.2578 15.0391C47.9479 14.6836 47.5286 14.5059 47 14.5059Z" fill="#404040"/>
<rect x="0.5" y="0.5" width="199" height="31" rx="3.5" stroke="#0371FF"/>
</svg>
