<svg width="87" height="28" viewBox="0 0 87 28" fill="none" xmlns="http://www.w3.org/2000/svg">
<path d="M0 14C0 6.26801 6.26801 0 14 0H73C80.732 0 87 6.26801 87 14V14C87 21.732 80.732 28 73 28H14C6.26801 28 0 21.732 0 14V14Z" fill="#F6F7F9"/>
<path fill-rule="evenodd" clip-rule="evenodd" d="M22 10H20V13H17V15H20V18H22V15H25V13H22V10Z" fill="#93A7B8"/>
<path d="M36.9224 18H30.708V16.9399L33.7866 13.582C34.231 13.0869 34.5462 12.6743 34.7324 12.3442C34.9229 12.0099 35.0181 11.6756 35.0181 11.3413C35.0181 10.9012 34.8932 10.5457 34.6436 10.2749C34.3981 10.0041 34.0659 9.86865 33.647 9.86865C33.1476 9.86865 32.7604 10.021 32.4854 10.3257C32.2103 10.6304 32.0728 11.0472 32.0728 11.5762H30.5303C30.5303 11.0133 30.6572 10.5076 30.9111 10.0591C31.1693 9.60628 31.5353 9.25505 32.0093 9.00537C32.4875 8.7557 33.0376 8.63086 33.6597 8.63086C34.5568 8.63086 35.2635 8.85726 35.7798 9.31006C36.3003 9.75863 36.5605 10.3807 36.5605 11.1763C36.5605 11.6375 36.4294 12.1221 36.167 12.6299C35.9089 13.1335 35.4836 13.7069 34.8911 14.3501L32.6313 16.7686H36.9224V18ZM43.9175 11.1953C43.9175 11.6481 43.8011 12.0522 43.5684 12.4077C43.3356 12.759 43.0182 13.0361 42.6162 13.2393C43.0986 13.4635 43.4689 13.7703 43.7271 14.1597C43.9894 14.549 44.1206 14.9891 44.1206 15.48C44.1206 16.2925 43.8455 16.9378 43.2954 17.416C42.7453 17.89 42.0132 18.127 41.0991 18.127C40.1808 18.127 39.4445 17.8879 38.8901 17.4097C38.34 16.9315 38.0649 16.2882 38.0649 15.48C38.0649 14.9849 38.1961 14.5405 38.4585 14.147C38.7209 13.7534 39.089 13.4508 39.563 13.2393C39.1652 13.0361 38.8499 12.759 38.6172 12.4077C38.3887 12.0522 38.2744 11.6481 38.2744 11.1953C38.2744 10.4082 38.5283 9.78402 39.0361 9.32275C39.5439 8.86149 40.2295 8.63086 41.0928 8.63086C41.9603 8.63086 42.6479 8.86149 43.1558 9.32275C43.6636 9.78402 43.9175 10.4082 43.9175 11.1953ZM42.5781 15.4038C42.5781 14.9468 42.4406 14.5786 42.1655 14.2993C41.8947 14.0158 41.535 13.874 41.0864 13.874C40.6379 13.874 40.2782 14.0137 40.0073 14.293C39.7407 14.5723 39.6074 14.9425 39.6074 15.4038C39.6074 15.8566 39.7386 16.2184 40.001 16.4893C40.2676 16.7601 40.6336 16.8955 41.0991 16.8955C41.5646 16.8955 41.9264 16.7643 42.1846 16.502C42.4469 16.2396 42.5781 15.8735 42.5781 15.4038ZM42.3813 11.2524C42.3813 10.8504 42.265 10.5203 42.0322 10.2622C41.7995 9.99984 41.4863 9.86865 41.0928 9.86865C40.6992 9.86865 40.3882 9.99349 40.1597 10.2432C39.9312 10.4886 39.8169 10.825 39.8169 11.2524C39.8169 11.6756 39.9312 12.012 40.1597 12.2617C40.3924 12.5114 40.7056 12.6362 41.0991 12.6362C41.4927 12.6362 41.8037 12.5114 42.0322 12.2617C42.265 12.012 42.3813 11.6756 42.3813 11.2524ZM50.5762 16.7178H54.772V18H48.9702V8.75781H50.5762V16.7178ZM58.8789 18.127C57.9014 18.127 57.1079 17.8201 56.4985 17.2065C55.8934 16.5887 55.5908 15.7677 55.5908 14.7437V14.5532C55.5908 13.8677 55.722 13.2562 55.9844 12.7188C56.251 12.1771 56.6234 11.756 57.1016 11.4556C57.5798 11.1551 58.113 11.0049 58.7012 11.0049C59.6364 11.0049 60.3579 11.3032 60.8657 11.8999C61.3778 12.4966 61.6338 13.3408 61.6338 14.4326V15.0547H57.146C57.1925 15.6217 57.3809 16.0703 57.7109 16.4004C58.0452 16.7305 58.4642 16.8955 58.9678 16.8955C59.6745 16.8955 60.25 16.6099 60.6943 16.0386L61.5259 16.832C61.2508 17.2425 60.8826 17.562 60.4214 17.7905C59.9644 18.0148 59.4502 18.127 58.8789 18.127ZM58.6948 12.2427C58.2716 12.2427 57.9289 12.3908 57.6665 12.687C57.4084 12.9832 57.2433 13.3958 57.1714 13.9248H60.1104V13.8105C60.0765 13.2943 59.939 12.9049 59.6978 12.6426C59.4565 12.376 59.1222 12.2427 58.6948 12.2427ZM63.3794 18V12.2744H62.332V11.1318H63.3794V10.5034C63.3794 9.7417 63.591 9.15348 64.0142 8.73877C64.4373 8.32406 65.0298 8.1167 65.7915 8.1167C66.0623 8.1167 66.3501 8.15479 66.6548 8.23096L66.6167 9.43701C66.4474 9.40316 66.2507 9.38623 66.0264 9.38623C65.29 9.38623 64.9219 9.76497 64.9219 10.5225V11.1318H66.3184V12.2744H64.9219V18H63.3794ZM69.3779 9.4624V11.1318H70.5903V12.2744H69.3779V16.1084C69.3779 16.3708 69.4287 16.5612 69.5303 16.6797C69.6361 16.7939 69.8223 16.8511 70.0889 16.8511C70.2666 16.8511 70.4465 16.8299 70.6284 16.7876V17.981C70.2772 18.0783 69.9386 18.127 69.6128 18.127C68.4279 18.127 67.8354 17.4731 67.8354 16.1655V12.2744H66.7056V11.1318H67.8354V9.4624H69.3779Z" fill="#93A7B8"/>
<path d="M14 1H73V-1H14V1ZM73 27H14V29H73V27ZM14 27C6.8203 27 1 21.1797 1 14H-1C-1 22.2843 5.71573 29 14 29V27ZM86 14C86 21.1797 80.1797 27 73 27V29C81.2843 29 88 22.2843 88 14H86ZM73 1C80.1797 1 86 6.8203 86 14H88C88 5.71573 81.2843 -1 73 -1V1ZM14 -1C5.71573 -1 -1 5.71573 -1 14H1C1 6.8203 6.8203 1 14 1V-1Z" fill="#B7C4D0"/>
</svg>
