<svg width="105" height="32" viewBox="0 0 105 32" fill="none" xmlns="http://www.w3.org/2000/svg">
<path d="M0 16C0 7.16344 7.16344 0 16 0H89C97.8366 0 105 7.16344 105 16V16C105 24.8366 97.8366 32 89 32H16C7.16344 32 0 24.8366 0 16V16Z" fill="#CDE3FF"/>
<path d="M19.1143 15.2646H20.126C20.6364 15.2601 21.0397 15.1279 21.3359 14.8682C21.6367 14.6084 21.7871 14.2324 21.7871 13.7402C21.7871 13.2663 21.6618 12.8994 21.4111 12.6396C21.165 12.3753 20.7868 12.2432 20.2764 12.2432C19.8298 12.2432 19.4629 12.373 19.1758 12.6328C18.8887 12.888 18.7451 13.223 18.7451 13.6377H17.084C17.084 13.1273 17.2184 12.6624 17.4873 12.2432C17.7607 11.8239 18.139 11.498 18.6221 11.2656C19.1097 11.0286 19.6543 10.9102 20.2559 10.9102C21.2493 10.9102 22.0286 11.1608 22.5938 11.6621C23.1634 12.1589 23.4482 12.8516 23.4482 13.7402C23.4482 14.1868 23.3047 14.6084 23.0176 15.0049C22.735 15.3968 22.3682 15.693 21.917 15.8936C22.4639 16.0804 22.8786 16.3743 23.1611 16.7754C23.4482 17.1764 23.5918 17.6549 23.5918 18.2109C23.5918 19.1042 23.2842 19.8151 22.6689 20.3438C22.0583 20.8724 21.2539 21.1367 20.2559 21.1367C19.2988 21.1367 18.515 20.8815 17.9043 20.3711C17.2936 19.8607 16.9883 19.1816 16.9883 18.334H18.6494C18.6494 18.7715 18.7952 19.127 19.0869 19.4004C19.3831 19.6738 19.7796 19.8105 20.2764 19.8105C20.7913 19.8105 21.1969 19.6738 21.4932 19.4004C21.7894 19.127 21.9375 18.7305 21.9375 18.2109C21.9375 17.6868 21.7826 17.2835 21.4727 17.001C21.1628 16.7184 20.7025 16.5771 20.0918 16.5771H19.1143V15.2646ZM31.8428 21H25.1504V19.8584L28.4658 16.2422C28.9443 15.709 29.2839 15.2646 29.4844 14.9092C29.6895 14.5492 29.792 14.1891 29.792 13.8291C29.792 13.3551 29.6576 12.9723 29.3887 12.6807C29.1243 12.389 28.7666 12.2432 28.3154 12.2432C27.7777 12.2432 27.3607 12.4072 27.0645 12.7354C26.7682 13.0635 26.6201 13.5124 26.6201 14.082H24.959C24.959 13.4759 25.0957 12.9313 25.3691 12.4482C25.6471 11.9606 26.0413 11.5824 26.5518 11.3135C27.0667 11.0446 27.6592 10.9102 28.3291 10.9102C29.2952 10.9102 30.0563 11.154 30.6123 11.6416C31.1729 12.1247 31.4531 12.7946 31.4531 13.6514C31.4531 14.1481 31.3118 14.6699 31.0293 15.2168C30.7513 15.7591 30.2933 16.3766 29.6553 17.0693L27.2217 19.6738H31.8428V21ZM40.5176 17.165H38.5898V21H36.8604V11.0469H40.3604C41.5088 11.0469 42.3952 11.3044 43.0195 11.8193C43.6439 12.3343 43.9561 13.0794 43.9561 14.0547C43.9561 14.7201 43.7943 15.2783 43.4707 15.7295C43.1517 16.1761 42.7051 16.5202 42.1309 16.7617L44.3662 20.9111V21H42.5137L40.5176 17.165ZM38.5898 15.7773H40.3672C40.9505 15.7773 41.4062 15.6315 41.7344 15.3398C42.0625 15.0436 42.2266 14.6403 42.2266 14.1299C42.2266 13.5967 42.0739 13.1842 41.7686 12.8926C41.4678 12.6009 41.0166 12.4505 40.415 12.4414H38.5898V15.7773ZM47.2031 21H45.542V13.6035H47.2031V21ZM45.4395 11.6826C45.4395 11.4274 45.5192 11.2155 45.6787 11.0469C45.8428 10.8783 46.0752 10.7939 46.376 10.7939C46.6768 10.7939 46.9092 10.8783 47.0732 11.0469C47.2373 11.2155 47.3193 11.4274 47.3193 11.6826C47.3193 11.9333 47.2373 12.1429 47.0732 12.3115C46.9092 12.4756 46.6768 12.5576 46.376 12.5576C46.0752 12.5576 45.8428 12.4756 45.6787 12.3115C45.5192 12.1429 45.4395 11.9333 45.4395 11.6826ZM48.7275 17.2471C48.7275 16.0986 48.9964 15.1826 49.5342 14.499C50.0765 13.8109 50.7943 13.4668 51.6875 13.4668C52.5306 13.4668 53.1937 13.7607 53.6768 14.3486L53.752 13.6035H55.249V20.7744C55.249 21.7451 54.946 22.5107 54.3398 23.0713C53.7383 23.6318 52.9248 23.9121 51.8994 23.9121C51.3571 23.9121 50.8262 23.7982 50.3066 23.5703C49.7917 23.347 49.3997 23.0531 49.1309 22.6885L49.917 21.6904C50.4274 22.2965 51.0563 22.5996 51.8037 22.5996C52.3551 22.5996 52.7904 22.4492 53.1094 22.1484C53.4284 21.8522 53.5879 21.4147 53.5879 20.8359V20.3369C53.1094 20.8701 52.4714 21.1367 51.6738 21.1367C50.8079 21.1367 50.0993 20.7926 49.5479 20.1045C49.001 19.4163 48.7275 18.4639 48.7275 17.2471ZM50.3818 17.3906C50.3818 18.1335 50.5322 18.7191 50.833 19.1475C51.1383 19.5713 51.5599 19.7832 52.0977 19.7832C52.7676 19.7832 53.2643 19.4961 53.5879 18.9219V15.668C53.2734 15.1074 52.7812 14.8271 52.1113 14.8271C51.5645 14.8271 51.1383 15.0436 50.833 15.4766C50.5322 15.9095 50.3818 16.5475 50.3818 17.3906ZM58.5986 14.4102C59.141 13.7812 59.8268 13.4668 60.6562 13.4668C62.2331 13.4668 63.0329 14.3669 63.0557 16.167V21H61.3945V16.2285C61.3945 15.7181 61.2829 15.3581 61.0596 15.1484C60.8408 14.9342 60.5173 14.8271 60.0889 14.8271C59.4235 14.8271 58.9268 15.1234 58.5986 15.7158V21H56.9375V10.5H58.5986V14.4102ZM66.8223 11.8057V13.6035H68.1279V14.834H66.8223V18.9629C66.8223 19.2454 66.877 19.4505 66.9863 19.5781C67.1003 19.7012 67.3008 19.7627 67.5879 19.7627C67.7793 19.7627 67.973 19.7399 68.1689 19.6943V20.9795C67.7907 21.0843 67.4261 21.1367 67.0752 21.1367C65.7992 21.1367 65.1611 20.4326 65.1611 19.0244V14.834H63.9443V13.6035H65.1611V11.8057H66.8223Z" fill="white"/>
<path fill-rule="evenodd" clip-rule="evenodd" d="M84 10H82V15H77V17H82V22H84V17H89V15H84V10Z" fill="white"/>
</svg>
