<svg width="452" height="47" viewBox="0 0 452 47" fill="none" xmlns="http://www.w3.org/2000/svg">
<rect x="0.5" y="19.5" width="451" height="27" rx="3.5" fill="white"/>
<path d="M15.5039 33.1973C14.5391 32.9199 13.8359 32.5801 13.3945 32.1777C12.957 31.7715 12.7383 31.2715 12.7383 30.6777C12.7383 30.0059 13.0059 29.4512 13.541 29.0137C14.0801 28.5723 14.7793 28.3516 15.6387 28.3516C16.2246 28.3516 16.7461 28.4648 17.2031 28.6914C17.6641 28.918 18.0195 29.2305 18.2695 29.6289C18.5234 30.0273 18.6504 30.4629 18.6504 30.9355H17.5195C17.5195 30.4199 17.3555 30.0156 17.0273 29.7227C16.6992 29.4258 16.2363 29.2773 15.6387 29.2773C15.084 29.2773 14.6504 29.4004 14.3379 29.6465C14.0293 29.8887 13.875 30.2266 13.875 30.6602C13.875 31.0078 14.0215 31.3027 14.3145 31.5449C14.6113 31.7832 15.1133 32.002 15.8203 32.2012C16.5312 32.4004 17.0859 32.6211 17.4844 32.8633C17.8867 33.1016 18.1836 33.3809 18.375 33.7012C18.5703 34.0215 18.668 34.3984 18.668 34.832C18.668 35.5234 18.3984 36.0781 17.8594 36.4961C17.3203 36.9102 16.5996 37.1172 15.6973 37.1172C15.1113 37.1172 14.5645 37.0059 14.0566 36.7832C13.5488 36.5566 13.1562 36.248 12.8789 35.8574C12.6055 35.4668 12.4688 35.0234 12.4688 34.5273H13.5996C13.5996 35.043 13.7891 35.4512 14.168 35.752C14.5508 36.0488 15.0605 36.1973 15.6973 36.1973C16.291 36.1973 16.7461 36.0762 17.0625 35.834C17.3789 35.5918 17.5371 35.2617 17.5371 34.8438C17.5371 34.4258 17.3906 34.1035 17.0977 33.877C16.8047 33.6465 16.2734 33.4199 15.5039 33.1973ZM23.8594 37C23.7969 36.875 23.7461 36.6523 23.707 36.332C23.2031 36.8555 22.6016 37.1172 21.9023 37.1172C21.2773 37.1172 20.7637 36.9414 20.3613 36.5898C19.9629 36.2344 19.7637 35.7852 19.7637 35.2422C19.7637 34.582 20.0137 34.0703 20.5137 33.707C21.0176 33.3398 21.7246 33.1562 22.6348 33.1562H23.6895V32.6582C23.6895 32.2793 23.5762 31.9785 23.3496 31.7559C23.123 31.5293 22.7891 31.416 22.3477 31.416C21.9609 31.416 21.6367 31.5137 21.375 31.709C21.1133 31.9043 20.9824 32.1406 20.9824 32.418H19.8926C19.8926 32.1016 20.0039 31.7969 20.2266 31.5039C20.4531 31.207 20.7578 30.9727 21.1406 30.8008C21.5273 30.6289 21.9512 30.543 22.4121 30.543C23.1426 30.543 23.7148 30.7266 24.1289 31.0938C24.543 31.457 24.7578 31.959 24.7734 32.5996V35.5176C24.7734 36.0996 24.8477 36.5625 24.9961 36.9062V37H23.8594ZM22.0605 36.1738C22.4004 36.1738 22.7227 36.0859 23.0273 35.9102C23.332 35.7344 23.5527 35.5059 23.6895 35.2246V33.9238H22.8398C21.5117 33.9238 20.8477 34.3125 20.8477 35.0898C20.8477 35.4297 20.9609 35.6953 21.1875 35.8867C21.4141 36.0781 21.7051 36.1738 22.0605 36.1738ZM30.3867 36.373C29.9648 36.8691 29.3457 37.1172 28.5293 37.1172C27.8535 37.1172 27.3379 36.9219 26.9824 36.5312C26.6309 36.1367 26.4531 35.5547 26.4492 34.7852V30.6602H27.5332V34.7559C27.5332 35.7168 27.9238 36.1973 28.7051 36.1973C29.5332 36.1973 30.084 35.8887 30.3574 35.2715V30.6602H31.4414V37H30.4102L30.3867 36.373ZM32.8301 33.7773C32.8301 32.8047 33.0605 32.0234 33.5215 31.4336C33.9824 30.8398 34.5859 30.543 35.332 30.543C36.0742 30.543 36.6621 30.7969 37.0957 31.3047V28H38.1797V37H37.1836L37.1309 36.3203C36.6973 36.8516 36.0938 37.1172 35.3203 37.1172C34.5859 37.1172 33.9863 36.8164 33.5215 36.2148C33.0605 35.6133 32.8301 34.8281 32.8301 33.8594V33.7773ZM33.9141 33.9004C33.9141 34.6191 34.0625 35.1816 34.3594 35.5879C34.6562 35.9941 35.0664 36.1973 35.5898 36.1973C36.2773 36.1973 36.7793 35.8887 37.0957 35.2715V32.3594C36.7715 31.7617 36.2734 31.4629 35.6016 31.4629C35.0703 31.4629 34.6562 31.668 34.3594 32.0781C34.0625 32.4883 33.9141 33.0957 33.9141 33.9004ZM41.0449 37H39.9609V30.6602H41.0449V37ZM39.873 28.9785C39.873 28.8027 39.9258 28.6543 40.0312 28.5332C40.1406 28.4121 40.3008 28.3516 40.5117 28.3516C40.7227 28.3516 40.8828 28.4121 40.9922 28.5332C41.1016 28.6543 41.1562 28.8027 41.1562 28.9785C41.1562 29.1543 41.1016 29.3008 40.9922 29.418C40.8828 29.5352 40.7227 29.5938 40.5117 29.5938C40.3008 29.5938 40.1406 29.5352 40.0312 29.418C39.9258 29.3008 39.873 29.1543 39.873 28.9785ZM50.6426 34.7734H47.0684L46.2656 37H45.1055L48.3633 28.4688H49.3477L52.6113 37H51.457L50.6426 34.7734ZM47.4082 33.8477H50.3086L48.8555 29.8574L47.4082 33.8477ZM56.6543 31.6328C56.4902 31.6055 56.3125 31.5918 56.1211 31.5918C55.4102 31.5918 54.9277 31.8945 54.6738 32.5V37H53.5898V30.6602H54.6445L54.6621 31.3926C55.0176 30.8262 55.5215 30.543 56.1738 30.543C56.3848 30.543 56.5449 30.5703 56.6543 30.625V31.6328ZM61.3359 37C61.2734 36.875 61.2227 36.6523 61.1836 36.332C60.6797 36.8555 60.0781 37.1172 59.3789 37.1172C58.7539 37.1172 58.2402 36.9414 57.8379 36.5898C57.4395 36.2344 57.2402 35.7852 57.2402 35.2422C57.2402 34.582 57.4902 34.0703 57.9902 33.707C58.4941 33.3398 59.2012 33.1562 60.1113 33.1562H61.166V32.6582C61.166 32.2793 61.0527 31.9785 60.8262 31.7559C60.5996 31.5293 60.2656 31.416 59.8242 31.416C59.4375 31.416 59.1133 31.5137 58.8516 31.709C58.5898 31.9043 58.459 32.1406 58.459 32.418H57.3691C57.3691 32.1016 57.4805 31.7969 57.7031 31.5039C57.9297 31.207 58.2344 30.9727 58.6172 30.8008C59.0039 30.6289 59.4277 30.543 59.8887 30.543C60.6191 30.543 61.1914 30.7266 61.6055 31.0938C62.0195 31.457 62.2344 31.959 62.25 32.5996V35.5176C62.25 36.0996 62.3242 36.5625 62.4727 36.9062V37H61.3359ZM59.5371 36.1738C59.877 36.1738 60.1992 36.0859 60.5039 35.9102C60.8086 35.7344 61.0293 35.5059 61.166 35.2246V33.9238H60.3164C58.9883 33.9238 58.3242 34.3125 58.3242 35.0898C58.3242 35.4297 58.4375 35.6953 58.6641 35.8867C58.8906 36.0781 59.1816 36.1738 59.5371 36.1738ZM69.3164 33.9004C69.3164 34.8691 69.0938 35.6484 68.6484 36.2383C68.2031 36.8242 67.6055 37.1172 66.8555 37.1172C66.0547 37.1172 65.4355 36.834 64.998 36.2676L64.9453 37H63.9492V28H65.0332V31.3574C65.4707 30.8145 66.0742 30.543 66.8438 30.543C67.6133 30.543 68.2168 30.834 68.6543 31.416C69.0957 31.998 69.3164 32.7949 69.3164 33.8066V33.9004ZM68.2324 33.7773C68.2324 33.0391 68.0898 32.4688 67.8047 32.0664C67.5195 31.6641 67.1094 31.4629 66.5742 31.4629C65.8594 31.4629 65.3457 31.7949 65.0332 32.459V35.2012C65.3652 35.8652 65.8828 36.1973 66.5859 36.1973C67.1055 36.1973 67.5098 35.9961 67.7988 35.5938C68.0879 35.1914 68.2324 34.5859 68.2324 33.7773ZM71.8652 37H70.7812V30.6602H71.8652V37ZM70.6934 28.9785C70.6934 28.8027 70.7461 28.6543 70.8516 28.5332C70.9609 28.4121 71.1211 28.3516 71.332 28.3516C71.543 28.3516 71.7031 28.4121 71.8125 28.5332C71.9219 28.6543 71.9766 28.8027 71.9766 28.9785C71.9766 29.1543 71.9219 29.3008 71.8125 29.418C71.7031 29.5352 71.543 29.5938 71.332 29.5938C71.1211 29.5938 70.9609 29.5352 70.8516 29.418C70.7461 29.3008 70.6934 29.1543 70.6934 28.9785ZM77.5195 37C77.457 36.875 77.4062 36.6523 77.3672 36.332C76.8633 36.8555 76.2617 37.1172 75.5625 37.1172C74.9375 37.1172 74.4238 36.9414 74.0215 36.5898C73.623 36.2344 73.4238 35.7852 73.4238 35.2422C73.4238 34.582 73.6738 34.0703 74.1738 33.707C74.6777 33.3398 75.3848 33.1562 76.2949 33.1562H77.3496V32.6582C77.3496 32.2793 77.2363 31.9785 77.0098 31.7559C76.7832 31.5293 76.4492 31.416 76.0078 31.416C75.6211 31.416 75.2969 31.5137 75.0352 31.709C74.7734 31.9043 74.6426 32.1406 74.6426 32.418H73.5527C73.5527 32.1016 73.6641 31.7969 73.8867 31.5039C74.1133 31.207 74.418 30.9727 74.8008 30.8008C75.1875 30.6289 75.6113 30.543 76.0723 30.543C76.8027 30.543 77.375 30.7266 77.7891 31.0938C78.2031 31.457 78.418 31.959 78.4336 32.5996V35.5176C78.4336 36.0996 78.5078 36.5625 78.6562 36.9062V37H77.5195ZM75.7207 36.1738C76.0605 36.1738 76.3828 36.0859 76.6875 35.9102C76.9922 35.7344 77.2129 35.5059 77.3496 35.2246V33.9238H76.5C75.1719 33.9238 74.5078 34.3125 74.5078 35.0898C74.5078 35.4297 74.6211 35.6953 74.8477 35.8867C75.0742 36.0781 75.3652 36.1738 75.7207 36.1738Z" fill="#404040"/>
<path fill-rule="evenodd" clip-rule="evenodd" d="M438.633 31.6402C439.176 30.9889 438.713 30 437.865 30H432.135C431.287 30 430.824 30.9889 431.367 31.6402L434.232 35.0781C434.632 35.5579 435.368 35.5579 435.768 35.0781L438.633 31.6402Z" fill="#4B6C89"/>
<rect x="0.5" y="19.5" width="451" height="27" rx="3.5" stroke="#0371FF"/>
<path d="M5.22607 7.95898H1.94971L1.21387 10H0.150391L3.13672 2.17969H4.03906L7.03076 10H5.97266L5.22607 7.95898ZM2.26123 7.11035H4.91992L3.58789 3.45264L2.26123 7.11035ZM10.2588 9.29639C10.6133 9.29639 10.923 9.18896 11.188 8.97412C11.453 8.75928 11.5998 8.49072 11.6284 8.16846H12.5684C12.5505 8.50146 12.4359 8.81836 12.2246 9.11914C12.0133 9.41992 11.7305 9.65983 11.376 9.83887C11.0251 10.0179 10.6527 10.1074 10.2588 10.1074C9.46745 10.1074 8.83724 9.84424 8.36816 9.31787C7.90267 8.78792 7.66992 8.06462 7.66992 7.14795V6.98145C7.66992 6.41569 7.77376 5.9126 7.98145 5.47217C8.18913 5.03174 8.48633 4.68978 8.87305 4.44629C9.26335 4.2028 9.72347 4.08105 10.2534 4.08105C10.9051 4.08105 11.4458 4.2762 11.8755 4.6665C12.3088 5.0568 12.5397 5.56348 12.5684 6.18652H11.6284C11.5998 5.81055 11.4565 5.5026 11.1987 5.2627C10.9445 5.01921 10.6294 4.89746 10.2534 4.89746C9.74854 4.89746 9.35645 5.08008 9.07715 5.44531C8.80143 5.80697 8.66357 6.33154 8.66357 7.01904V7.20703C8.66357 7.87663 8.80143 8.39225 9.07715 8.75391C9.35286 9.11556 9.74674 9.29639 10.2588 9.29639ZM15.0337 2.78125V4.18848H16.1187V4.95654H15.0337V8.56055C15.0337 8.79329 15.082 8.96875 15.1787 9.08691C15.2754 9.2015 15.4401 9.25879 15.6729 9.25879C15.7874 9.25879 15.945 9.2373 16.1455 9.19434V10C15.8841 10.0716 15.6299 10.1074 15.3828 10.1074C14.9388 10.1074 14.604 9.97314 14.3784 9.70459C14.1528 9.43604 14.04 9.05469 14.04 8.56055V4.95654H12.9819V4.18848H14.04V2.78125H15.0337ZM18.3638 10H17.3701V4.18848H18.3638V10ZM17.2896 2.64697C17.2896 2.48584 17.3379 2.34977 17.4346 2.23877C17.5348 2.12777 17.6816 2.07227 17.875 2.07227C18.0684 2.07227 18.2152 2.12777 18.3154 2.23877C18.4157 2.34977 18.4658 2.48584 18.4658 2.64697C18.4658 2.80811 18.4157 2.94238 18.3154 3.0498C18.2152 3.15723 18.0684 3.21094 17.875 3.21094C17.6816 3.21094 17.5348 3.15723 17.4346 3.0498C17.3379 2.94238 17.2896 2.80811 17.2896 2.64697ZM21.8765 8.65186L23.3159 4.18848H24.3311L22.2471 10H21.4897L19.3843 4.18848H20.3994L21.8765 8.65186ZM27.6235 10.1074C26.8358 10.1074 26.1948 9.84961 25.7007 9.33398C25.2065 8.81478 24.9595 8.12191 24.9595 7.25537V7.07275C24.9595 6.49626 25.0687 5.98242 25.2871 5.53125C25.5091 5.0765 25.8171 4.72201 26.2109 4.46777C26.6084 4.20996 27.0381 4.08105 27.5 4.08105C28.2555 4.08105 28.8428 4.32992 29.2617 4.82764C29.6807 5.32536 29.8901 6.03792 29.8901 6.96533V7.37891H25.9531C25.9674 7.95182 26.134 8.41553 26.4526 8.77002C26.7749 9.12093 27.1831 9.29639 27.6772 9.29639C28.0282 9.29639 28.3254 9.22477 28.5688 9.08154C28.8123 8.93831 29.0254 8.74854 29.208 8.51221L29.8149 8.98486C29.328 9.73324 28.5975 10.1074 27.6235 10.1074ZM27.5 4.89746C27.099 4.89746 26.7624 5.04427 26.4902 5.33789C26.2181 5.62793 26.0498 6.03613 25.9854 6.5625H28.8965V6.4873C28.8678 5.98242 28.7318 5.59212 28.4883 5.31641C28.2448 5.03711 27.9154 4.89746 27.5 4.89746Z" fill="#6F89A1"/>
</svg>
