<svg width="452" height="52" viewBox="0 0 452 52" fill="none" xmlns="http://www.w3.org/2000/svg">
<rect x="0.5" y="20.5" width="451" height="31" rx="3.5" fill="white"/>
<path d="M16.0264 41.1367C15.0238 41.1367 14.208 40.8086 13.5791 40.1523C12.9502 39.4915 12.6357 38.6097 12.6357 37.5068V37.2744C12.6357 36.5407 12.7747 35.8867 13.0527 35.3125C13.3353 34.7337 13.7272 34.2826 14.2285 33.959C14.7344 33.6309 15.2812 33.4668 15.8691 33.4668C16.8307 33.4668 17.5781 33.7835 18.1113 34.417C18.6445 35.0505 18.9111 35.9574 18.9111 37.1377V37.6641H13.9004C13.9186 38.3932 14.1305 38.9834 14.5361 39.4346C14.9463 39.8812 15.4658 40.1045 16.0947 40.1045C16.5413 40.1045 16.9196 40.0133 17.2295 39.8311C17.5394 39.6488 17.8105 39.4072 18.043 39.1064L18.8154 39.708C18.1956 40.6605 17.266 41.1367 16.0264 41.1367ZM15.8691 34.5059C15.3587 34.5059 14.9303 34.6927 14.584 35.0664C14.2376 35.4355 14.0234 35.9551 13.9414 36.625H17.6465V36.5293C17.61 35.8867 17.4368 35.39 17.127 35.0391C16.8171 34.6836 16.3978 34.5059 15.8691 34.5059ZM20.4082 40.3369C20.4082 40.1182 20.472 39.9359 20.5996 39.79C20.7318 39.6442 20.9277 39.5713 21.1875 39.5713C21.4473 39.5713 21.6432 39.6442 21.7754 39.79C21.9121 39.9359 21.9805 40.1182 21.9805 40.3369C21.9805 40.5465 21.9121 40.722 21.7754 40.8633C21.6432 41.0046 21.4473 41.0752 21.1875 41.0752C20.9277 41.0752 20.7318 41.0046 20.5996 40.8633C20.472 40.722 20.4082 40.5465 20.4082 40.3369ZM23.7715 37.2402C23.7715 36.0872 24.0381 35.1712 24.5713 34.4922C25.1045 33.8086 25.8109 33.4668 26.6904 33.4668C27.5928 33.4668 28.2969 33.7858 28.8027 34.4238L28.8643 33.6035H30.0195V40.8223C30.0195 41.7793 29.7347 42.5335 29.165 43.085C28.5999 43.6364 27.8389 43.9121 26.8818 43.9121C26.3486 43.9121 25.8268 43.7982 25.3164 43.5703C24.806 43.3424 24.4163 43.0303 24.1475 42.6338L24.8037 41.875C25.346 42.5449 26.0091 42.8799 26.793 42.8799C27.4082 42.8799 27.8867 42.7067 28.2285 42.3604C28.5749 42.014 28.748 41.5264 28.748 40.8975V40.2617C28.2422 40.8451 27.5518 41.1367 26.6768 41.1367C25.8109 41.1367 25.109 40.7881 24.5713 40.0908C24.0381 39.3936 23.7715 38.4434 23.7715 37.2402ZM25.043 37.3838C25.043 38.2178 25.2139 38.874 25.5557 39.3525C25.8975 39.8265 26.376 40.0635 26.9912 40.0635C27.7887 40.0635 28.3743 39.7012 28.748 38.9766V35.5996C28.3607 34.8932 27.7796 34.54 27.0049 34.54C26.3896 34.54 25.9089 34.7793 25.5625 35.2578C25.2161 35.7363 25.043 36.445 25.043 37.3838ZM31.9609 40.3369C31.9609 40.1182 32.0247 39.9359 32.1523 39.79C32.2845 39.6442 32.4805 39.5713 32.7402 39.5713C33 39.5713 33.196 39.6442 33.3281 39.79C33.4648 39.9359 33.5332 40.1182 33.5332 40.3369C33.5332 40.5465 33.4648 40.722 33.3281 40.8633C33.196 41.0046 33 41.0752 32.7402 41.0752C32.4805 41.0752 32.2845 41.0046 32.1523 40.8633C32.0247 40.722 31.9609 40.5465 31.9609 40.3369ZM35.584 42.9824L34.8662 42.4902C35.2946 41.8932 35.5179 41.278 35.5361 40.6445V39.5029H36.7734V40.4941C36.7734 40.9544 36.6595 41.4147 36.4316 41.875C36.2083 42.3353 35.9258 42.7044 35.584 42.9824ZM44.9766 36.5635C43.8509 36.2399 43.0306 35.8434 42.5156 35.374C42.0052 34.9001 41.75 34.3167 41.75 33.624C41.75 32.8402 42.0622 32.193 42.6865 31.6826C43.3154 31.1676 44.1312 30.9102 45.1338 30.9102C45.8174 30.9102 46.4258 31.0423 46.959 31.3066C47.4967 31.571 47.9115 31.9355 48.2031 32.4004C48.4993 32.8652 48.6475 33.3734 48.6475 33.9248H47.3281C47.3281 33.3232 47.1367 32.8516 46.7539 32.5098C46.3711 32.1634 45.8311 31.9902 45.1338 31.9902C44.4867 31.9902 43.9808 32.1338 43.6162 32.4209C43.2562 32.7035 43.0762 33.0977 43.0762 33.6035C43.0762 34.0091 43.2471 34.3532 43.5889 34.6357C43.9352 34.9137 44.5208 35.1689 45.3457 35.4014C46.1751 35.6338 46.8223 35.8913 47.2871 36.1738C47.7565 36.4518 48.1029 36.7777 48.3262 37.1514C48.554 37.5251 48.668 37.9648 48.668 38.4707C48.668 39.2773 48.3535 39.9245 47.7246 40.4121C47.0957 40.8952 46.2549 41.1367 45.2021 41.1367C44.5186 41.1367 43.8805 41.0068 43.2881 40.7471C42.6956 40.4827 42.2376 40.1227 41.9141 39.667C41.5951 39.2113 41.4355 38.694 41.4355 38.1152H42.7549C42.7549 38.7168 42.9759 39.193 43.418 39.5439C43.8646 39.8903 44.4593 40.0635 45.2021 40.0635C45.8949 40.0635 46.4258 39.9222 46.7949 39.6396C47.1641 39.3571 47.3486 38.972 47.3486 38.4844C47.3486 37.9967 47.1777 37.6208 46.8359 37.3564C46.4941 37.0876 45.8743 36.8232 44.9766 36.5635ZM54.7246 41C54.6517 40.8542 54.5924 40.5944 54.5469 40.2207C53.959 40.8314 53.2572 41.1367 52.4414 41.1367C51.7122 41.1367 51.113 40.9316 50.6436 40.5215C50.1787 40.1068 49.9463 39.5827 49.9463 38.9492C49.9463 38.179 50.238 37.582 50.8213 37.1582C51.4092 36.7298 52.234 36.5156 53.2959 36.5156H54.5264V35.9346C54.5264 35.4925 54.3942 35.1416 54.1299 34.8818C53.8656 34.6175 53.4759 34.4854 52.9609 34.4854C52.5098 34.4854 52.1315 34.5993 51.8262 34.8271C51.5208 35.055 51.3682 35.3307 51.3682 35.6543H50.0967C50.0967 35.2852 50.2266 34.9297 50.4863 34.5879C50.7507 34.2415 51.1061 33.9681 51.5527 33.7676C52.0039 33.5671 52.4984 33.4668 53.0361 33.4668C53.8883 33.4668 54.556 33.681 55.0391 34.1094C55.5221 34.5332 55.7728 35.1188 55.791 35.8662V39.2705C55.791 39.9495 55.8776 40.4896 56.0508 40.8906V41H54.7246ZM52.626 40.0361C53.0225 40.0361 53.3984 39.9336 53.7539 39.7285C54.1094 39.5234 54.3669 39.2568 54.5264 38.9287V37.4111H53.5352C51.9857 37.4111 51.2109 37.8646 51.2109 38.7715C51.2109 39.168 51.3431 39.4779 51.6074 39.7012C51.8717 39.9245 52.2113 40.0361 52.626 40.0361ZM62.3398 40.2686C61.8477 40.8473 61.1253 41.1367 60.1729 41.1367C59.3844 41.1367 58.7829 40.9089 58.3682 40.4531C57.958 39.9928 57.7507 39.3138 57.7461 38.416V33.6035H59.0107V38.3818C59.0107 39.5029 59.4665 40.0635 60.3779 40.0635C61.3441 40.0635 61.9867 39.7035 62.3057 38.9834V33.6035H63.5703V41H62.3672L62.3398 40.2686ZM65.1904 37.2402C65.1904 36.1055 65.4593 35.194 65.9971 34.5059C66.5348 33.8132 67.2389 33.4668 68.1094 33.4668C68.9753 33.4668 69.6611 33.763 70.167 34.3555V30.5H71.4316V41H70.2695L70.208 40.207C69.7021 40.8268 68.998 41.1367 68.0957 41.1367C67.2389 41.1367 66.5394 40.7858 65.9971 40.084C65.4593 39.3822 65.1904 38.4661 65.1904 37.3359V37.2402ZM66.4551 37.3838C66.4551 38.2223 66.6283 38.8786 66.9746 39.3525C67.321 39.8265 67.7995 40.0635 68.4102 40.0635C69.2122 40.0635 69.7979 39.7035 70.167 38.9834V35.5859C69.7887 34.8887 69.2077 34.54 68.4238 34.54C67.804 34.54 67.321 34.7793 66.9746 35.2578C66.6283 35.7363 66.4551 36.445 66.4551 37.3838ZM74.7744 41H73.5098V33.6035H74.7744V41ZM73.4072 31.6416C73.4072 31.4365 73.4688 31.2633 73.5918 31.1221C73.7194 30.9808 73.9062 30.9102 74.1523 30.9102C74.3984 30.9102 74.5853 30.9808 74.7129 31.1221C74.8405 31.2633 74.9043 31.4365 74.9043 31.6416C74.9043 31.8467 74.8405 32.0176 74.7129 32.1543C74.5853 32.291 74.3984 32.3594 74.1523 32.3594C73.9062 32.3594 73.7194 32.291 73.5918 32.1543C73.4688 32.0176 73.4072 31.8467 73.4072 31.6416ZM85.9717 38.4023H81.8018L80.8652 41H79.5117L83.3125 31.0469H84.4609L88.2686 41H86.9219L85.9717 38.4023ZM82.1982 37.3223H85.582L83.8867 32.667L82.1982 37.3223ZM92.9854 34.7383C92.7939 34.7064 92.5866 34.6904 92.3633 34.6904C91.5339 34.6904 90.971 35.0436 90.6748 35.75V41H89.4102V33.6035H90.6406L90.6611 34.458C91.0758 33.7972 91.6637 33.4668 92.4248 33.4668C92.6709 33.4668 92.8577 33.4987 92.9854 33.5625V34.7383ZM98.4473 41C98.3743 40.8542 98.3151 40.5944 98.2695 40.2207C97.6816 40.8314 96.9798 41.1367 96.1641 41.1367C95.4349 41.1367 94.8356 40.9316 94.3662 40.5215C93.9014 40.1068 93.6689 39.5827 93.6689 38.9492C93.6689 38.179 93.9606 37.582 94.5439 37.1582C95.1318 36.7298 95.9567 36.5156 97.0186 36.5156H98.249V35.9346C98.249 35.4925 98.1169 35.1416 97.8525 34.8818C97.5882 34.6175 97.1986 34.4854 96.6836 34.4854C96.2324 34.4854 95.8542 34.5993 95.5488 34.8271C95.2435 35.055 95.0908 35.3307 95.0908 35.6543H93.8193C93.8193 35.2852 93.9492 34.9297 94.209 34.5879C94.4733 34.2415 94.8288 33.9681 95.2754 33.7676C95.7266 33.5671 96.221 33.4668 96.7588 33.4668C97.611 33.4668 98.2786 33.681 98.7617 34.1094C99.2448 34.5332 99.4954 35.1188 99.5137 35.8662V39.2705C99.5137 39.9495 99.6003 40.4896 99.7734 40.8906V41H98.4473ZM96.3486 40.0361C96.7451 40.0361 97.1211 39.9336 97.4766 39.7285C97.832 39.5234 98.0895 39.2568 98.249 38.9287V37.4111H97.2578C95.7083 37.4111 94.9336 37.8646 94.9336 38.7715C94.9336 39.168 95.0658 39.4779 95.3301 39.7012C95.5944 39.9245 95.9339 40.0361 96.3486 40.0361ZM107.758 37.3838C107.758 38.514 107.498 39.4232 106.979 40.1113C106.459 40.7949 105.762 41.1367 104.887 41.1367C103.952 41.1367 103.23 40.8063 102.72 40.1455L102.658 41H101.496V30.5H102.761V34.417C103.271 33.7835 103.975 33.4668 104.873 33.4668C105.771 33.4668 106.475 33.8063 106.985 34.4854C107.5 35.1644 107.758 36.0941 107.758 37.2744V37.3838ZM106.493 37.2402C106.493 36.3789 106.327 35.7135 105.994 35.2441C105.661 34.7747 105.183 34.54 104.559 34.54C103.725 34.54 103.125 34.9274 102.761 35.7021V38.9014C103.148 39.6761 103.752 40.0635 104.572 40.0635C105.178 40.0635 105.65 39.8288 105.987 39.3594C106.325 38.89 106.493 38.1836 106.493 37.2402ZM110.731 41H109.467V33.6035H110.731V41ZM109.364 31.6416C109.364 31.4365 109.426 31.2633 109.549 31.1221C109.676 30.9808 109.863 30.9102 110.109 30.9102C110.355 30.9102 110.542 30.9808 110.67 31.1221C110.798 31.2633 110.861 31.4365 110.861 31.6416C110.861 31.8467 110.798 32.0176 110.67 32.1543C110.542 32.291 110.355 32.3594 110.109 32.3594C109.863 32.3594 109.676 32.291 109.549 32.1543C109.426 32.0176 109.364 31.8467 109.364 31.6416ZM117.328 41C117.255 40.8542 117.196 40.5944 117.15 40.2207C116.562 40.8314 115.861 41.1367 115.045 41.1367C114.316 41.1367 113.716 40.9316 113.247 40.5215C112.782 40.1068 112.55 39.5827 112.55 38.9492C112.55 38.179 112.841 37.582 113.425 37.1582C114.013 36.7298 114.838 36.5156 115.899 36.5156H117.13V35.9346C117.13 35.4925 116.998 35.1416 116.733 34.8818C116.469 34.6175 116.079 34.4854 115.564 34.4854C115.113 34.4854 114.735 34.5993 114.43 34.8271C114.124 35.055 113.972 35.3307 113.972 35.6543H112.7C112.7 35.2852 112.83 34.9297 113.09 34.5879C113.354 34.2415 113.71 33.9681 114.156 33.7676C114.607 33.5671 115.102 33.4668 115.64 33.4668C116.492 33.4668 117.16 33.681 117.643 34.1094C118.126 34.5332 118.376 35.1188 118.395 35.8662V39.2705C118.395 39.9495 118.481 40.4896 118.654 40.8906V41H117.328ZM115.229 40.0361C115.626 40.0361 116.002 39.9336 116.357 39.7285C116.713 39.5234 116.97 39.2568 117.13 38.9287V37.4111H116.139C114.589 37.4111 113.814 37.8646 113.814 38.7715C113.814 39.168 113.947 39.4779 114.211 39.7012C114.475 39.9245 114.815 40.0361 115.229 40.0361Z" fill="#B4B4B4"/>
<path fill-rule="evenodd" clip-rule="evenodd" d="M438.633 34.6402C439.176 33.9889 438.713 33 437.865 33H432.135C431.287 33 430.824 33.9889 431.367 34.6402L434.232 38.0781C434.632 38.5579 435.368 38.5579 435.768 38.0781L438.633 34.6402Z" fill="#4B6C89"/>
<rect x="0.5" y="20.5" width="451" height="31" rx="3.5" stroke="#B7C4D0"/>
<path d="M5.8125 7.05664H2.11523V10.0801H6.41016V11H0.990234V2.46875H6.35156V3.39453H2.11523V6.13672H5.8125V7.05664ZM8.66016 4.66016L8.68945 5.36328C9.1543 4.81641 9.78125 4.54297 10.5703 4.54297C11.457 4.54297 12.0605 4.88281 12.3809 5.5625C12.5918 5.25781 12.8652 5.01172 13.2012 4.82422C13.541 4.63672 13.9414 4.54297 14.4023 4.54297C15.793 4.54297 16.5 5.2793 16.5234 6.75195V11H15.4395V6.81641C15.4395 6.36328 15.3359 6.02539 15.1289 5.80273C14.9219 5.57617 14.5742 5.46289 14.0859 5.46289C13.6836 5.46289 13.3496 5.58398 13.084 5.82617C12.8184 6.06445 12.6641 6.38672 12.6211 6.79297V11H11.5312V6.8457C11.5312 5.92383 11.0801 5.46289 10.1777 5.46289C9.4668 5.46289 8.98047 5.76562 8.71875 6.37109V11H7.63477V4.66016H8.66016ZM23.5195 7.90039C23.5195 8.86523 23.2988 9.64258 22.8574 10.2324C22.416 10.8223 21.8184 11.1172 21.0645 11.1172C20.2949 11.1172 19.6895 10.873 19.248 10.3848V13.4375H18.1641V4.66016H19.1543L19.207 5.36328C19.6484 4.81641 20.2617 4.54297 21.0469 4.54297C21.8086 4.54297 22.4102 4.83008 22.8516 5.4043C23.2969 5.97852 23.5195 6.77734 23.5195 7.80078V7.90039ZM22.4355 7.77734C22.4355 7.0625 22.2832 6.49805 21.9785 6.08398C21.6738 5.66992 21.2559 5.46289 20.7246 5.46289C20.0684 5.46289 19.5762 5.75391 19.248 6.33594V9.36523C19.5723 9.94336 20.0684 10.2324 20.7363 10.2324C21.2559 10.2324 21.668 10.0273 21.9727 9.61719C22.2812 9.20312 22.4355 8.58984 22.4355 7.77734ZM26.373 3.125V4.66016H27.5566V5.49805H26.373V9.42969C26.373 9.68359 26.4258 9.875 26.5312 10.0039C26.6367 10.1289 26.8164 10.1914 27.0703 10.1914C27.1953 10.1914 27.3672 10.168 27.5859 10.1211V11C27.3008 11.0781 27.0234 11.1172 26.7539 11.1172C26.2695 11.1172 25.9043 10.9707 25.6582 10.6777C25.4121 10.3848 25.2891 9.96875 25.2891 9.42969V5.49805H24.1348V4.66016H25.2891V3.125H26.373ZM30.9023 9.41211L32.3789 4.66016H33.5391L30.9902 11.9785C30.5957 13.0332 29.9688 13.5605 29.1094 13.5605L28.9043 13.543L28.5 13.4668V12.5879L28.793 12.6113C29.1602 12.6113 29.4453 12.5371 29.6484 12.3887C29.8555 12.2402 30.0254 11.9688 30.1582 11.5742L30.3984 10.9297L28.1367 4.66016H29.3203L30.9023 9.41211Z" fill="#6F89A1"/>
</svg>
