<svg width="200" height="28" viewBox="0 0 200 28" fill="none" xmlns="http://www.w3.org/2000/svg">
<rect x="0.5" y="0.5" width="199" height="27" rx="3.5" fill="white"/>
<path d="M17.8125 14.5566H14.1152V17.5801H18.4102V18.5H12.9902V9.96875H18.3516V10.8945H14.1152V13.6367H17.8125V14.5566ZM22.7051 13.1328C22.541 13.1055 22.3633 13.0918 22.1719 13.0918C21.4609 13.0918 20.9785 13.3945 20.7246 14V18.5H19.6406V12.1602H20.6953L20.7129 12.8926C21.0684 12.3262 21.5723 12.043 22.2246 12.043C22.4355 12.043 22.5957 12.0703 22.7051 12.125V13.1328ZM26.7715 13.1328C26.6074 13.1055 26.4297 13.0918 26.2383 13.0918C25.5273 13.0918 25.0449 13.3945 24.791 14V18.5H23.707V12.1602H24.7617L24.7793 12.8926C25.1348 12.3262 25.6387 12.043 26.291 12.043C26.502 12.043 26.6621 12.0703 26.7715 12.125V13.1328ZM27.3691 15.2715C27.3691 14.6504 27.4902 14.0918 27.7324 13.5957C27.9785 13.0996 28.3184 12.7168 28.752 12.4473C29.1895 12.1777 29.6875 12.043 30.2461 12.043C31.1094 12.043 31.8066 12.3418 32.3379 12.9395C32.873 13.5371 33.1406 14.332 33.1406 15.3242V15.4004C33.1406 16.0176 33.0215 16.5723 32.7832 17.0645C32.5488 17.5527 32.2109 17.9336 31.7695 18.207C31.332 18.4805 30.8281 18.6172 30.2578 18.6172C29.3984 18.6172 28.7012 18.3184 28.166 17.7207C27.6348 17.123 27.3691 16.332 27.3691 15.3477V15.2715ZM28.459 15.4004C28.459 16.1035 28.6211 16.668 28.9453 17.0938C29.2734 17.5195 29.7109 17.7324 30.2578 17.7324C30.8086 17.7324 31.2461 17.5176 31.5703 17.0879C31.8945 16.6543 32.0566 16.0488 32.0566 15.2715C32.0566 14.5762 31.8906 14.0137 31.5586 13.584C31.2305 13.1504 30.793 12.9336 30.2461 12.9336C29.7109 12.9336 29.2793 13.1465 28.9512 13.5723C28.623 13.998 28.459 14.6074 28.459 15.4004ZM37.5645 13.1328C37.4004 13.1055 37.2227 13.0918 37.0312 13.0918C36.3203 13.0918 35.8379 13.3945 35.584 14V18.5H34.5V12.1602H35.5547L35.5723 12.8926C35.9277 12.3262 36.4316 12.043 37.084 12.043C37.2949 12.043 37.4551 12.0703 37.5645 12.125V13.1328Z" fill="#404040"/>
<rect x="0.5" y="0.5" width="199" height="27" rx="3.5" stroke="#DB3535"/>
</svg>
