<svg width="200" height="24" viewBox="0 0 200 24" fill="none" xmlns="http://www.w3.org/2000/svg">
<path d="M0 4C0 1.79086 1.79086 0 4 0H196C198.209 0 200 1.79086 200 4V20C200 22.2091 198.209 24 196 24H4C1.79086 24 0 22.2091 0 20V4Z" fill="white"/>
<path d="M17.8125 12.0566H14.1152V15.0801H18.4102V16H12.9902V7.46875H18.3516V8.39453H14.1152V11.1367H17.8125V12.0566ZM20.6602 9.66016L20.6895 10.3633C21.1543 9.81641 21.7812 9.54297 22.5703 9.54297C23.457 9.54297 24.0605 9.88281 24.3809 10.5625C24.5918 10.2578 24.8652 10.0117 25.2012 9.82422C25.541 9.63672 25.9414 9.54297 26.4023 9.54297C27.793 9.54297 28.5 10.2793 28.5234 11.752V16H27.4395V11.8164C27.4395 11.3633 27.3359 11.0254 27.1289 10.8027C26.9219 10.5762 26.5742 10.4629 26.0859 10.4629C25.6836 10.4629 25.3496 10.584 25.084 10.8262C24.8184 11.0645 24.6641 11.3867 24.6211 11.793V16H23.5312V11.8457C23.5312 10.9238 23.0801 10.4629 22.1777 10.4629C21.4668 10.4629 20.9805 10.7656 20.7188 11.3711V16H19.6348V9.66016H20.6602ZM35.5195 12.9004C35.5195 13.8652 35.2988 14.6426 34.8574 15.2324C34.416 15.8223 33.8184 16.1172 33.0645 16.1172C32.2949 16.1172 31.6895 15.873 31.248 15.3848V18.4375H30.1641V9.66016H31.1543L31.207 10.3633C31.6484 9.81641 32.2617 9.54297 33.0469 9.54297C33.8086 9.54297 34.4102 9.83008 34.8516 10.4043C35.2969 10.9785 35.5195 11.7773 35.5195 12.8008V12.9004ZM34.4355 12.7773C34.4355 12.0625 34.2832 11.498 33.9785 11.084C33.6738 10.6699 33.2559 10.4629 32.7246 10.4629C32.0684 10.4629 31.5762 10.7539 31.248 11.3359V14.3652C31.5723 14.9434 32.0684 15.2324 32.7363 15.2324C33.2559 15.2324 33.668 15.0273 33.9727 14.6172C34.2812 14.2031 34.4355 13.5898 34.4355 12.7773ZM38.373 8.125V9.66016H39.5566V10.498H38.373V14.4297C38.373 14.6836 38.4258 14.875 38.5312 15.0039C38.6367 15.1289 38.8164 15.1914 39.0703 15.1914C39.1953 15.1914 39.3672 15.168 39.5859 15.1211V16C39.3008 16.0781 39.0234 16.1172 38.7539 16.1172C38.2695 16.1172 37.9043 15.9707 37.6582 15.6777C37.4121 15.3848 37.2891 14.9688 37.2891 14.4297V10.498H36.1348V9.66016H37.2891V8.125H38.373ZM42.9023 14.4121L44.3789 9.66016H45.5391L42.9902 16.9785C42.5957 18.0332 41.9688 18.5605 41.1094 18.5605L40.9043 18.543L40.5 18.4668V17.5879L40.793 17.6113C41.1602 17.6113 41.4453 17.5371 41.6484 17.3887C41.8555 17.2402 42.0254 16.9688 42.1582 16.5742L42.3984 15.9297L40.1367 9.66016H41.3203L42.9023 14.4121Z" fill="#B4B4B4"/>
<path d="M4 1H196V-1H4V1ZM199 4V20H201V4H199ZM196 23H4V25H196V23ZM1 20V4H-1V20H1ZM4 23C2.34314 23 1 21.6569 1 20H-1C-1 22.7614 1.23857 25 4 25V23ZM199 20C199 21.6569 197.657 23 196 23V25C198.761 25 201 22.7614 201 20H199ZM196 1C197.657 1 199 2.34314 199 4H201C201 1.23858 198.761 -1 196 -1V1ZM4 -1C1.23858 -1 -1 1.23858 -1 4H1C1 2.34315 2.34315 1 4 1V-1Z" fill="#B7C4D0"/>
</svg>
