<svg width="452" height="43" viewBox="0 0 452 43" fill="none" xmlns="http://www.w3.org/2000/svg">
<rect x="0.5" y="19.5" width="451" height="23" rx="3.5" fill="white"/>
<path d="M15.4512 35.1172C14.5918 35.1172 13.8926 34.8359 13.3535 34.2734C12.8145 33.707 12.5449 32.9512 12.5449 32.0059V31.8066C12.5449 31.1777 12.6641 30.6172 12.9023 30.125C13.1445 29.6289 13.4805 29.2422 13.9102 28.9648C14.3438 28.6836 14.8125 28.543 15.3164 28.543C16.1406 28.543 16.7812 28.8145 17.2383 29.3574C17.6953 29.9004 17.9238 30.6777 17.9238 31.6895V32.1406H13.6289C13.6445 32.7656 13.8262 33.2715 14.1738 33.6582C14.5254 34.041 14.9707 34.2324 15.5098 34.2324C15.8926 34.2324 16.2168 34.1543 16.4824 33.998C16.748 33.8418 16.9805 33.6348 17.1797 33.377L17.8418 33.8926C17.3105 34.709 16.5137 35.1172 15.4512 35.1172ZM15.3164 29.4336C14.8789 29.4336 14.5117 29.5938 14.2148 29.9141C13.918 30.2305 13.7344 30.6758 13.6641 31.25H16.8398V31.168C16.8086 30.6172 16.6602 30.1914 16.3945 29.8906C16.1289 29.5859 15.7695 29.4336 15.3164 29.4336ZM19.207 34.4316C19.207 34.2441 19.2617 34.0879 19.3711 33.9629C19.4844 33.8379 19.6523 33.7754 19.875 33.7754C20.0977 33.7754 20.2656 33.8379 20.3789 33.9629C20.4961 34.0879 20.5547 34.2441 20.5547 34.4316C20.5547 34.6113 20.4961 34.7617 20.3789 34.8828C20.2656 35.0039 20.0977 35.0645 19.875 35.0645C19.6523 35.0645 19.4844 35.0039 19.3711 34.8828C19.2617 34.7617 19.207 34.6113 19.207 34.4316ZM22.0898 31.7773C22.0898 30.7891 22.3184 30.0039 22.7754 29.4219C23.2324 28.8359 23.8379 28.543 24.5918 28.543C25.3652 28.543 25.9688 28.8164 26.4023 29.3633L26.4551 28.6602H27.4453V34.8477C27.4453 35.668 27.2012 36.3145 26.7129 36.7871C26.2285 37.2598 25.5762 37.4961 24.7559 37.4961C24.2988 37.4961 23.8516 37.3984 23.4141 37.2031C22.9766 37.0078 22.6426 36.7402 22.4121 36.4004L22.9746 35.75C23.4395 36.3242 24.0078 36.6113 24.6797 36.6113C25.207 36.6113 25.6172 36.4629 25.9102 36.166C26.207 35.8691 26.3555 35.4512 26.3555 34.9121V34.3672C25.9219 34.8672 25.3301 35.1172 24.5801 35.1172C23.8379 35.1172 23.2363 34.8184 22.7754 34.2207C22.3184 33.623 22.0898 32.8086 22.0898 31.7773ZM23.1797 31.9004C23.1797 32.6152 23.3262 33.1777 23.6191 33.5879C23.9121 33.9941 24.3223 34.1973 24.8496 34.1973C25.5332 34.1973 26.0352 33.8867 26.3555 33.2656V30.3711C26.0234 29.7656 25.5254 29.4629 24.8613 29.4629C24.334 29.4629 23.9219 29.668 23.625 30.0781C23.3281 30.4883 23.1797 31.0957 23.1797 31.9004ZM29.1094 34.4316C29.1094 34.2441 29.1641 34.0879 29.2734 33.9629C29.3867 33.8379 29.5547 33.7754 29.7773 33.7754C30 33.7754 30.168 33.8379 30.2812 33.9629C30.3984 34.0879 30.457 34.2441 30.457 34.4316C30.457 34.6113 30.3984 34.7617 30.2812 34.8828C30.168 35.0039 30 35.0645 29.7773 35.0645C29.5547 35.0645 29.3867 35.0039 29.2734 34.8828C29.1641 34.7617 29.1094 34.6113 29.1094 34.4316ZM32.2148 36.6992L31.5996 36.2773C31.9668 35.7656 32.1582 35.2383 32.1738 34.6953V33.7168H33.2344V34.5664C33.2344 34.9609 33.1367 35.3555 32.9414 35.75C32.75 36.1445 32.5078 36.4609 32.2148 36.6992ZM39.2051 26.4688L41.9941 33.4297L44.7832 26.4688H46.2422V35H45.1172V31.6777L45.2227 28.0918L42.4219 35H41.5605L38.7656 28.1094L38.877 31.6777V35H37.752V26.4688H39.2051ZM47.7715 31.7715C47.7715 31.1504 47.8926 30.5918 48.1348 30.0957C48.3809 29.5996 48.7207 29.2168 49.1543 28.9473C49.5918 28.6777 50.0898 28.543 50.6484 28.543C51.5117 28.543 52.209 28.8418 52.7402 29.4395C53.2754 30.0371 53.543 30.832 53.543 31.8242V31.9004C53.543 32.5176 53.4238 33.0723 53.1855 33.5645C52.9512 34.0527 52.6133 34.4336 52.1719 34.707C51.7344 34.9805 51.2305 35.1172 50.6602 35.1172C49.8008 35.1172 49.1035 34.8184 48.5684 34.2207C48.0371 33.623 47.7715 32.832 47.7715 31.8477V31.7715ZM48.8613 31.9004C48.8613 32.6035 49.0234 33.168 49.3477 33.5938C49.6758 34.0195 50.1133 34.2324 50.6602 34.2324C51.2109 34.2324 51.6484 34.0176 51.9727 33.5879C52.2969 33.1543 52.459 32.5488 52.459 31.7715C52.459 31.0762 52.293 30.5137 51.9609 30.084C51.6328 29.6504 51.1953 29.4336 50.6484 29.4336C50.1133 29.4336 49.6816 29.6465 49.3535 30.0723C49.0254 30.498 48.8613 31.1074 48.8613 31.9004ZM55.9863 29.4277C56.4668 28.8379 57.0918 28.543 57.8613 28.543C59.2012 28.543 59.877 29.2988 59.8887 30.8105V35H58.8047V30.8047C58.8008 30.3477 58.6953 30.0098 58.4883 29.791C58.2852 29.5723 57.9668 29.4629 57.5332 29.4629C57.1816 29.4629 56.873 29.5566 56.6074 29.7441C56.3418 29.9316 56.1348 30.1777 55.9863 30.4824V35H54.9023V26H55.9863V29.4277ZM65.4258 35C65.3633 34.875 65.3125 34.6523 65.2734 34.332C64.7695 34.8555 64.168 35.1172 63.4688 35.1172C62.8438 35.1172 62.3301 34.9414 61.9277 34.5898C61.5293 34.2344 61.3301 33.7852 61.3301 33.2422C61.3301 32.582 61.5801 32.0703 62.0801 31.707C62.584 31.3398 63.291 31.1562 64.2012 31.1562H65.2559V30.6582C65.2559 30.2793 65.1426 29.9785 64.916 29.7559C64.6895 29.5293 64.3555 29.416 63.9141 29.416C63.5273 29.416 63.2031 29.5137 62.9414 29.709C62.6797 29.9043 62.5488 30.1406 62.5488 30.418H61.459C61.459 30.1016 61.5703 29.7969 61.793 29.5039C62.0195 29.207 62.3242 28.9727 62.707 28.8008C63.0938 28.6289 63.5176 28.543 63.9785 28.543C64.709 28.543 65.2812 28.7266 65.6953 29.0938C66.1094 29.457 66.3242 29.959 66.3398 30.5996V33.5176C66.3398 34.0996 66.4141 34.5625 66.5625 34.9062V35H65.4258ZM63.627 34.1738C63.9668 34.1738 64.2891 34.0859 64.5938 33.9102C64.8984 33.7344 65.1191 33.5059 65.2559 33.2246V31.9238H64.4062C63.0781 31.9238 62.4141 32.3125 62.4141 33.0898C62.4141 33.4297 62.5273 33.6953 62.7539 33.8867C62.9805 34.0781 63.2715 34.1738 63.627 34.1738ZM69.0586 28.6602L69.0879 29.3633C69.5527 28.8164 70.1797 28.543 70.9688 28.543C71.8555 28.543 72.459 28.8828 72.7793 29.5625C72.9902 29.2578 73.2637 29.0117 73.5996 28.8242C73.9395 28.6367 74.3398 28.543 74.8008 28.543C76.1914 28.543 76.8984 29.2793 76.9219 30.752V35H75.8379V30.8164C75.8379 30.3633 75.7344 30.0254 75.5273 29.8027C75.3203 29.5762 74.9727 29.4629 74.4844 29.4629C74.082 29.4629 73.748 29.584 73.4824 29.8262C73.2168 30.0645 73.0625 30.3867 73.0195 30.793V35H71.9297V30.8457C71.9297 29.9238 71.4785 29.4629 70.5762 29.4629C69.8652 29.4629 69.3789 29.7656 69.1172 30.3711V35H68.0332V28.6602H69.0586ZM79.582 28.6602L79.6113 29.3633C80.0762 28.8164 80.7031 28.543 81.4922 28.543C82.3789 28.543 82.9824 28.8828 83.3027 29.5625C83.5137 29.2578 83.7871 29.0117 84.123 28.8242C84.4629 28.6367 84.8633 28.543 85.3242 28.543C86.7148 28.543 87.4219 29.2793 87.4453 30.752V35H86.3613V30.8164C86.3613 30.3633 86.2578 30.0254 86.0508 29.8027C85.8438 29.5762 85.4961 29.4629 85.0078 29.4629C84.6055 29.4629 84.2715 29.584 84.0059 29.8262C83.7402 30.0645 83.5859 30.3867 83.543 30.793V35H82.4531V30.8457C82.4531 29.9238 82.002 29.4629 81.0996 29.4629C80.3887 29.4629 79.9023 29.7656 79.6406 30.3711V35H78.5566V28.6602H79.582ZM91.7168 35.1172C90.8574 35.1172 90.1582 34.8359 89.6191 34.2734C89.0801 33.707 88.8105 32.9512 88.8105 32.0059V31.8066C88.8105 31.1777 88.9297 30.6172 89.168 30.125C89.4102 29.6289 89.7461 29.2422 90.1758 28.9648C90.6094 28.6836 91.0781 28.543 91.582 28.543C92.4062 28.543 93.0469 28.8145 93.5039 29.3574C93.9609 29.9004 94.1895 30.6777 94.1895 31.6895V32.1406H89.8945C89.9102 32.7656 90.0918 33.2715 90.4395 33.6582C90.791 34.041 91.2363 34.2324 91.7754 34.2324C92.1582 34.2324 92.4824 34.1543 92.748 33.998C93.0137 33.8418 93.2461 33.6348 93.4453 33.377L94.1074 33.8926C93.5762 34.709 92.7793 35.1172 91.7168 35.1172ZM91.582 29.4336C91.1445 29.4336 90.7773 29.5938 90.4805 29.9141C90.1836 30.2305 90 30.6758 89.9297 31.25H93.1055V31.168C93.0742 30.6172 92.9258 30.1914 92.6602 29.8906C92.3945 29.5859 92.0352 29.4336 91.582 29.4336ZM95.1855 31.7773C95.1855 30.8047 95.416 30.0234 95.877 29.4336C96.3379 28.8398 96.9414 28.543 97.6875 28.543C98.4297 28.543 99.0176 28.7969 99.4512 29.3047V26H100.535V35H99.5391L99.4863 34.3203C99.0527 34.8516 98.4492 35.1172 97.6758 35.1172C96.9414 35.1172 96.3418 34.8164 95.877 34.2148C95.416 33.6133 95.1855 32.8281 95.1855 31.8594V31.7773ZM96.2695 31.9004C96.2695 32.6191 96.418 33.1816 96.7148 33.5879C97.0117 33.9941 97.4219 34.1973 97.9453 34.1973C98.6328 34.1973 99.1348 33.8887 99.4512 33.2715V30.3594C99.127 29.7617 98.6289 29.4629 97.957 29.4629C97.4258 29.4629 97.0117 29.668 96.7148 30.0781C96.418 30.4883 96.2695 31.0957 96.2695 31.9004ZM110.08 32.7734H106.506L105.703 35H104.543L107.801 26.4688H108.785L112.049 35H110.895L110.08 32.7734ZM106.846 31.8477H109.746L108.293 27.8574L106.846 31.8477ZM114.797 32.0645L114.117 32.7734V35H113.033V26H114.117V31.4434L114.697 30.7461L116.672 28.6602H117.99L115.523 31.3086L118.277 35H117.006L114.797 32.0645ZM120.879 32.0645L120.199 32.7734V35H119.115V26H120.199V31.4434L120.779 30.7461L122.754 28.6602H124.072L121.605 31.3086L124.359 35H123.088L120.879 32.0645ZM129.105 35C129.043 34.875 128.992 34.6523 128.953 34.332C128.449 34.8555 127.848 35.1172 127.148 35.1172C126.523 35.1172 126.01 34.9414 125.607 34.5898C125.209 34.2344 125.01 33.7852 125.01 33.2422C125.01 32.582 125.26 32.0703 125.76 31.707C126.264 31.3398 126.971 31.1562 127.881 31.1562H128.936V30.6582C128.936 30.2793 128.822 29.9785 128.596 29.7559C128.369 29.5293 128.035 29.416 127.594 29.416C127.207 29.416 126.883 29.5137 126.621 29.709C126.359 29.9043 126.229 30.1406 126.229 30.418H125.139C125.139 30.1016 125.25 29.7969 125.473 29.5039C125.699 29.207 126.004 28.9727 126.387 28.8008C126.773 28.6289 127.197 28.543 127.658 28.543C128.389 28.543 128.961 28.7266 129.375 29.0938C129.789 29.457 130.004 29.959 130.02 30.5996V33.5176C130.02 34.0996 130.094 34.5625 130.242 34.9062V35H129.105ZM127.307 34.1738C127.646 34.1738 127.969 34.0859 128.273 33.9102C128.578 33.7344 128.799 33.5059 128.936 33.2246V31.9238H128.086C126.758 31.9238 126.094 32.3125 126.094 33.0898C126.094 33.4297 126.207 33.6953 126.434 33.8867C126.66 34.0781 126.951 34.1738 127.307 34.1738ZM134.783 29.6328C134.619 29.6055 134.441 29.5918 134.25 29.5918C133.539 29.5918 133.057 29.8945 132.803 30.5V35H131.719V28.6602H132.773L132.791 29.3926C133.146 28.8262 133.65 28.543 134.303 28.543C134.514 28.543 134.674 28.5703 134.783 28.625V29.6328Z" fill="#B4B4B4"/>
<rect x="0.5" y="19.5" width="451" height="23" rx="3.5" stroke="#B7C4D0"/>
<path d="M18.3281 6.38525H14.939V9.15674H18.876V10H13.9077V2.17969H18.8223V3.02832H14.939V5.54199H18.3281V6.38525ZM20.9385 4.18848L20.9653 4.83301C21.3914 4.33171 21.9661 4.08105 22.6895 4.08105C23.5023 4.08105 24.0555 4.39258 24.3491 5.01562C24.5425 4.73633 24.7931 4.51074 25.1011 4.33887C25.4126 4.16699 25.7796 4.08105 26.2021 4.08105C27.4769 4.08105 28.125 4.75602 28.1465 6.10596V10H27.1528V6.16504C27.1528 5.74967 27.0579 5.43994 26.8682 5.23584C26.6784 5.02816 26.3597 4.92432 25.9121 4.92432C25.5433 4.92432 25.2371 5.03532 24.9937 5.25732C24.7502 5.47575 24.6087 5.77116 24.5693 6.14355V10H23.5703V6.19189C23.5703 5.34684 23.1567 4.92432 22.3296 4.92432C21.6779 4.92432 21.2321 5.20182 20.9922 5.75684V10H19.9985V4.18848H20.9385ZM34.5596 7.15869C34.5596 8.04313 34.3573 8.7557 33.9526 9.29639C33.548 9.83708 33.0002 10.1074 32.3091 10.1074C31.6037 10.1074 31.0487 9.88363 30.644 9.43604V12.2344H29.6504V4.18848H30.5581L30.6064 4.83301C31.0111 4.33171 31.5732 4.08105 32.293 4.08105C32.9912 4.08105 33.5426 4.34424 33.9473 4.87061C34.3555 5.39697 34.5596 6.12923 34.5596 7.06738V7.15869ZM33.5659 7.0459C33.5659 6.39062 33.4263 5.87321 33.147 5.49365C32.8677 5.1141 32.4845 4.92432 31.9976 4.92432C31.396 4.92432 30.9448 5.19108 30.644 5.72461V8.50146C30.9412 9.03141 31.396 9.29639 32.0083 9.29639C32.4845 9.29639 32.8623 9.1084 33.1416 8.73242C33.4245 8.35286 33.5659 7.79069 33.5659 7.0459ZM37.1753 2.78125V4.18848H38.2603V4.95654H37.1753V8.56055C37.1753 8.79329 37.2236 8.96875 37.3203 9.08691C37.417 9.2015 37.5817 9.25879 37.8145 9.25879C37.929 9.25879 38.0866 9.2373 38.2871 9.19434V10C38.0257 10.0716 37.7715 10.1074 37.5244 10.1074C37.0804 10.1074 36.7456 9.97314 36.52 9.70459C36.2944 9.43604 36.1816 9.05469 36.1816 8.56055V4.95654H35.1235V4.18848H36.1816V2.78125H37.1753ZM41.3271 8.54443L42.6807 4.18848H43.7441L41.4077 10.897C41.0461 11.8638 40.4714 12.3472 39.6836 12.3472L39.4956 12.3311L39.125 12.2612V11.4556L39.3936 11.4771C39.7301 11.4771 39.9915 11.409 40.1777 11.2729C40.3675 11.1369 40.5233 10.888 40.645 10.5264L40.8652 9.93555L38.792 4.18848H39.877L41.3271 8.54443Z" fill="#6F89A1"/>
<path fill-rule="evenodd" clip-rule="evenodd" d="M4.5 10C6.98528 10 9 7.98528 9 5.5C9 3.01472 6.98528 1 4.5 1C2.01472 1 0 3.01472 0 5.5C0 7.98528 2.01472 10 4.5 10ZM4.5 10L3.64058 6.98857L0.602886 7.75L2.78115 5.5L0.602886 3.25L3.64058 4.01143L4.5 1L5.35942 4.01143L8.39711 3.25L6.21885 5.5L8.39711 7.75L5.35942 6.98857L4.5 10Z" fill="#6F89A1"/>
</svg>
