<svg width="42" height="24" viewBox="0 0 42 24" fill="none" xmlns="http://www.w3.org/2000/svg">
<path d="M0 12C0 5.37258 5.37258 0 12 0H30C36.6274 0 42 5.37258 42 12V12C42 18.6274 36.6274 24 30 24H12C5.37258 24 0 18.6274 0 12V12Z" fill="#F6F7F9"/>
<path fill-rule="evenodd" clip-rule="evenodd" d="M22 8H20V11H17V13H20V16H22V13H25V11H22V8Z" fill="#93A7B8"/>
<path d="M12 1H30V-1H12V1ZM30 23H12V25H30V23ZM12 23C5.92487 23 1 18.0751 1 12H-1C-1 19.1797 4.8203 25 12 25V23ZM41 12C41 18.0751 36.0751 23 30 23V25C37.1797 25 43 19.1797 43 12H41ZM30 1C36.0751 1 41 5.92487 41 12H43C43 4.8203 37.1797 -1 30 -1V1ZM12 -1C4.8203 -1 -1 4.8203 -1 12H1C1 5.92487 5.92487 1 12 1V-1Z" fill="#B7C4D0"/>
</svg>
