<svg width="200" height="32" viewBox="0 0 200 32" fill="none" xmlns="http://www.w3.org/2000/svg">
<rect x="0.5" y="0.5" width="199" height="31" rx="3.5" fill="white"/>
<path d="M18.7812 16.3994H14.4678V19.9268H19.4785V21H13.1553V11.0469H19.4102V12.127H14.4678V15.3262H18.7812V16.3994ZM22.1035 13.6035L22.1377 14.4238C22.68 13.7858 23.4115 13.4668 24.332 13.4668C25.3665 13.4668 26.0706 13.8633 26.4443 14.6562C26.6904 14.3008 27.0094 14.0137 27.4014 13.7949C27.7979 13.5762 28.265 13.4668 28.8027 13.4668C30.4251 13.4668 31.25 14.3258 31.2773 16.0439V21H30.0127V16.1191C30.0127 15.5905 29.8919 15.1963 29.6504 14.9365C29.4089 14.6722 29.0033 14.54 28.4336 14.54C27.9642 14.54 27.5745 14.6813 27.2646 14.9639C26.9548 15.2419 26.7747 15.6178 26.7246 16.0918V21H25.4531V16.1533C25.4531 15.0778 24.9268 14.54 23.874 14.54C23.0446 14.54 22.4772 14.8932 22.1719 15.5996V21H20.9072V13.6035H22.1035ZM39.4395 17.3838C39.4395 18.5094 39.182 19.4163 38.667 20.1045C38.152 20.7926 37.4548 21.1367 36.5752 21.1367C35.6774 21.1367 34.971 20.8519 34.4561 20.2822V23.8438H33.1914V13.6035H34.3467L34.4082 14.4238C34.9232 13.7858 35.6387 13.4668 36.5547 13.4668C37.4434 13.4668 38.1452 13.8018 38.6602 14.4717C39.1797 15.1416 39.4395 16.0736 39.4395 17.2676V17.3838ZM38.1748 17.2402C38.1748 16.4062 37.9971 15.7477 37.6416 15.2646C37.2861 14.7816 36.7985 14.54 36.1787 14.54C35.4131 14.54 34.8389 14.8796 34.4561 15.5586V19.0928C34.8343 19.7673 35.4131 20.1045 36.1924 20.1045C36.7985 20.1045 37.2793 19.8652 37.6348 19.3867C37.9948 18.9036 38.1748 18.1882 38.1748 17.2402ZM42.7686 11.8125V13.6035H44.1494V14.5811H42.7686V19.168C42.7686 19.4642 42.8301 19.6875 42.9531 19.8379C43.0762 19.9837 43.2858 20.0566 43.582 20.0566C43.7279 20.0566 43.9284 20.0293 44.1836 19.9746V21C43.8509 21.0911 43.5273 21.1367 43.2129 21.1367C42.6478 21.1367 42.2217 20.9658 41.9346 20.624C41.6475 20.2822 41.5039 19.7969 41.5039 19.168V14.5811H40.1572V13.6035H41.5039V11.8125H42.7686ZM48.0527 19.1475L49.7754 13.6035H51.1289L48.1553 22.1416C47.695 23.3721 46.9635 23.9873 45.9609 23.9873L45.7217 23.9668L45.25 23.8779V22.8525L45.5918 22.8799C46.0202 22.8799 46.3529 22.7933 46.5898 22.6201C46.8314 22.4469 47.0296 22.1302 47.1846 21.6699L47.4648 20.918L44.8262 13.6035H46.207L48.0527 19.1475Z" fill="#B4B4B4"/>
<rect x="0.5" y="0.5" width="199" height="31" rx="3.5" stroke="#B7C4D0"/>
</svg>
