<svg width="453" height="44" viewBox="0 0 453 44" fill="none" xmlns="http://www.w3.org/2000/svg">
<rect x="0.5" y="20.5" width="452" height="23" rx="3.5" fill="white"/>
<path d="M33.7012 33.7734H30.127L29.3242 36H28.1641L31.4219 27.4688H32.4062L35.6699 36H34.5156L33.7012 33.7734ZM30.4668 32.8477H33.3672L31.9141 28.8574L30.4668 32.8477ZM37.8262 36H36.7422V27H37.8262V36ZM40.7441 36H39.6602V27H40.7441V36ZM45.6309 36V27.4688H48.0391C48.7812 27.4688 49.4375 27.6328 50.0078 27.9609C50.5781 28.2891 51.0176 28.7559 51.3262 29.3613C51.6387 29.9668 51.7969 30.6621 51.8008 31.4473V31.9922C51.8008 32.7969 51.6445 33.502 51.332 34.1074C51.0234 34.7129 50.5801 35.1777 50.002 35.502C49.4277 35.8262 48.7578 35.9922 47.9922 36H45.6309ZM46.7559 28.3945V35.0801H47.9395C48.8066 35.0801 49.4805 34.8105 49.9609 34.2715C50.4453 33.7324 50.6875 32.9648 50.6875 31.9688V31.4707C50.6875 30.502 50.459 29.75 50.002 29.2148C49.5488 28.6758 48.9043 28.4023 48.0684 28.3945H46.7559ZM53.0488 32.7715C53.0488 32.1504 53.1699 31.5918 53.4121 31.0957C53.6582 30.5996 53.998 30.2168 54.4316 29.9473C54.8691 29.6777 55.3672 29.543 55.9258 29.543C56.7891 29.543 57.4863 29.8418 58.0176 30.4395C58.5527 31.0371 58.8203 31.832 58.8203 32.8242V32.9004C58.8203 33.5176 58.7012 34.0723 58.4629 34.5645C58.2285 35.0527 57.8906 35.4336 57.4492 35.707C57.0117 35.9805 56.5078 36.1172 55.9375 36.1172C55.0781 36.1172 54.3809 35.8184 53.8457 35.2207C53.3145 34.623 53.0488 33.832 53.0488 32.8477V32.7715ZM54.1387 32.9004C54.1387 33.6035 54.3008 34.168 54.625 34.5938C54.9531 35.0195 55.3906 35.2324 55.9375 35.2324C56.4883 35.2324 56.9258 35.0176 57.25 34.5879C57.5742 34.1543 57.7363 33.5488 57.7363 32.7715C57.7363 32.0762 57.5703 31.5137 57.2383 31.084C56.9102 30.6504 56.4727 30.4336 55.9258 30.4336C55.3906 30.4336 54.959 30.6465 54.6309 31.0723C54.3027 31.498 54.1387 32.1074 54.1387 32.9004ZM62.7227 35.2324C63.1094 35.2324 63.4473 35.1152 63.7363 34.8809C64.0254 34.6465 64.1855 34.3535 64.2168 34.002H65.2422C65.2227 34.3652 65.0977 34.7109 64.8672 35.0391C64.6367 35.3672 64.3281 35.6289 63.9414 35.8242C63.5586 36.0195 63.1523 36.1172 62.7227 36.1172C61.8594 36.1172 61.1719 35.8301 60.6602 35.2559C60.1523 34.6777 59.8984 33.8887 59.8984 32.8887V32.707C59.8984 32.0898 60.0117 31.541 60.2383 31.0605C60.4648 30.5801 60.7891 30.207 61.2109 29.9414C61.6367 29.6758 62.1387 29.543 62.7168 29.543C63.4277 29.543 64.0176 29.7559 64.4863 30.1816C64.959 30.6074 65.2109 31.1602 65.2422 31.8398H64.2168C64.1855 31.4297 64.0293 31.0938 63.748 30.832C63.4707 30.5664 63.127 30.4336 62.7168 30.4336C62.166 30.4336 61.7383 30.6328 61.4336 31.0312C61.1328 31.4258 60.9824 31.998 60.9824 32.748V32.9531C60.9824 33.6836 61.1328 34.2461 61.4336 34.6406C61.7344 35.0352 62.1641 35.2324 62.7227 35.2324ZM70.375 35.373C69.9531 35.8691 69.334 36.1172 68.5176 36.1172C67.8418 36.1172 67.3262 35.9219 66.9707 35.5312C66.6191 35.1367 66.4414 34.5547 66.4375 33.7852V29.6602H67.5215V33.7559C67.5215 34.7168 67.9121 35.1973 68.6934 35.1973C69.5215 35.1973 70.0723 34.8887 70.3457 34.2715V29.6602H71.4297V36H70.3984L70.375 35.373ZM74.1016 29.6602L74.1309 30.3633C74.5957 29.8164 75.2227 29.543 76.0117 29.543C76.8984 29.543 77.502 29.8828 77.8223 30.5625C78.0332 30.2578 78.3066 30.0117 78.6426 29.8242C78.9824 29.6367 79.3828 29.543 79.8438 29.543C81.2344 29.543 81.9414 30.2793 81.9648 31.752V36H80.8809V31.8164C80.8809 31.3633 80.7773 31.0254 80.5703 30.8027C80.3633 30.5762 80.0156 30.4629 79.5273 30.4629C79.125 30.4629 78.791 30.584 78.5254 30.8262C78.2598 31.0645 78.1055 31.3867 78.0625 31.793V36H76.9727V31.8457C76.9727 30.9238 76.5215 30.4629 75.6191 30.4629C74.9082 30.4629 74.4219 30.7656 74.1602 31.3711V36H73.0762V29.6602H74.1016ZM86.2363 36.1172C85.377 36.1172 84.6777 35.8359 84.1387 35.2734C83.5996 34.707 83.3301 33.9512 83.3301 33.0059V32.8066C83.3301 32.1777 83.4492 31.6172 83.6875 31.125C83.9297 30.6289 84.2656 30.2422 84.6953 29.9648C85.1289 29.6836 85.5977 29.543 86.1016 29.543C86.9258 29.543 87.5664 29.8145 88.0234 30.3574C88.4805 30.9004 88.709 31.6777 88.709 32.6895V33.1406H84.4141C84.4297 33.7656 84.6113 34.2715 84.959 34.6582C85.3105 35.041 85.7559 35.2324 86.2949 35.2324C86.6777 35.2324 87.002 35.1543 87.2676 34.998C87.5332 34.8418 87.7656 34.6348 87.9648 34.377L88.627 34.8926C88.0957 35.709 87.2988 36.1172 86.2363 36.1172ZM86.1016 30.4336C85.6641 30.4336 85.2969 30.5938 85 30.9141C84.7031 31.2305 84.5195 31.6758 84.4492 32.25H87.625V32.168C87.5938 31.6172 87.4453 31.1914 87.1797 30.8906C86.9141 30.5859 86.5547 30.4336 86.1016 30.4336ZM90.9941 29.6602L91.0293 30.457C91.5137 29.8477 92.1465 29.543 92.9277 29.543C94.2676 29.543 94.9434 30.2988 94.9551 31.8105V36H93.8711V31.8047C93.8672 31.3477 93.7617 31.0098 93.5547 30.791C93.3516 30.5723 93.0332 30.4629 92.5996 30.4629C92.248 30.4629 91.9395 30.5566 91.6738 30.7441C91.4082 30.9316 91.2012 31.1777 91.0527 31.4824V36H89.9688V29.6602H90.9941ZM98.0605 28.125V29.6602H99.2441V30.498H98.0605V34.4297C98.0605 34.6836 98.1133 34.875 98.2188 35.0039C98.3242 35.1289 98.5039 35.1914 98.7578 35.1914C98.8828 35.1914 99.0547 35.168 99.2734 35.1211V36C98.9883 36.0781 98.7109 36.1172 98.4414 36.1172C97.957 36.1172 97.5918 35.9707 97.3457 35.6777C97.0996 35.3848 96.9766 34.9688 96.9766 34.4297V30.498H95.8223V29.6602H96.9766V28.125H98.0605ZM104.207 34.3184C104.207 34.0254 104.096 33.7988 103.873 33.6387C103.654 33.4746 103.27 33.334 102.719 33.2168C102.172 33.0996 101.736 32.959 101.412 32.7949C101.092 32.6309 100.854 32.4355 100.697 32.209C100.545 31.9824 100.469 31.7129 100.469 31.4004C100.469 30.8809 100.688 30.4414 101.125 30.082C101.566 29.7227 102.129 29.543 102.812 29.543C103.531 29.543 104.113 29.7285 104.559 30.0996C105.008 30.4707 105.232 30.9453 105.232 31.5234H104.143C104.143 31.2266 104.016 30.9707 103.762 30.7559C103.512 30.541 103.195 30.4336 102.812 30.4336C102.418 30.4336 102.109 30.5195 101.887 30.6914C101.664 30.8633 101.553 31.0879 101.553 31.3652C101.553 31.627 101.656 31.8242 101.863 31.957C102.07 32.0898 102.443 32.2168 102.982 32.3379C103.525 32.459 103.965 32.6035 104.301 32.7715C104.637 32.9395 104.885 33.1426 105.045 33.3809C105.209 33.6152 105.291 33.9023 105.291 34.2422C105.291 34.8086 105.064 35.2637 104.611 35.6074C104.158 35.9473 103.57 36.1172 102.848 36.1172C102.34 36.1172 101.891 36.0273 101.5 35.8477C101.109 35.668 100.803 35.418 100.58 35.0977C100.361 34.7734 100.252 34.4238 100.252 34.0488H101.336C101.355 34.4121 101.5 34.7012 101.77 34.916C102.043 35.127 102.402 35.2324 102.848 35.2324C103.258 35.2324 103.586 35.1504 103.832 34.9863C104.082 34.8184 104.207 34.5957 104.207 34.3184Z" fill="#B4B4B4"/>
<path fill-rule="evenodd" clip-rule="evenodd" d="M439.633 30.6402C440.176 29.9889 439.713 29 438.865 29H433.135C432.287 29 431.824 29.9889 432.367 30.6402L435.232 34.0781C435.632 34.5579 436.368 34.5579 436.768 34.0781L439.633 30.6402Z" fill="#4B6C89"/>
<path fill-rule="evenodd" clip-rule="evenodd" d="M13 26H23V27V37V38H13V37V27V26ZM21 36V35H15V36H21ZM21 32V33H15V32H21ZM15 30H18V29H15V30Z" fill="#4B6C89"/>
<rect x="0.5" y="20.5" width="452" height="23" rx="3.5" stroke="#B7C4D0"/>
<path d="M5.32812 7.38525H1.93896V10.1567H5.87598V11H0.907715V3.17969H5.82227V4.02832H1.93896V6.54199H5.32812V7.38525ZM7.93848 5.18848L7.96533 5.83301C8.39144 5.33171 8.96615 5.08105 9.68945 5.08105C10.5023 5.08105 11.0555 5.39258 11.3491 6.01562C11.5425 5.73633 11.7931 5.51074 12.1011 5.33887C12.4126 5.16699 12.7796 5.08105 13.2021 5.08105C14.4769 5.08105 15.125 5.75602 15.1465 7.10596V11H14.1528V7.16504C14.1528 6.74967 14.0579 6.43994 13.8682 6.23584C13.6784 6.02816 13.3597 5.92432 12.9121 5.92432C12.5433 5.92432 12.2371 6.03532 11.9937 6.25732C11.7502 6.47575 11.6087 6.77116 11.5693 7.14355V11H10.5703V7.19189C10.5703 6.34684 10.1567 5.92432 9.32959 5.92432C8.6779 5.92432 8.2321 6.20182 7.99219 6.75684V11H6.99854V5.18848H7.93848ZM21.5596 8.15869C21.5596 9.04313 21.3573 9.7557 20.9526 10.2964C20.548 10.8371 20.0002 11.1074 19.3091 11.1074C18.6037 11.1074 18.0487 10.8836 17.644 10.436V13.2344H16.6504V5.18848H17.5581L17.6064 5.83301C18.0111 5.33171 18.5732 5.08105 19.293 5.08105C19.9912 5.08105 20.5426 5.34424 20.9473 5.87061C21.3555 6.39697 21.5596 7.12923 21.5596 8.06738V8.15869ZM20.5659 8.0459C20.5659 7.39062 20.4263 6.87321 20.147 6.49365C19.8677 6.1141 19.4845 5.92432 18.9976 5.92432C18.396 5.92432 17.9448 6.19108 17.644 6.72461V9.50146C17.9412 10.0314 18.396 10.2964 19.0083 10.2964C19.4845 10.2964 19.8623 10.1084 20.1416 9.73242C20.4245 9.35286 20.5659 8.79069 20.5659 8.0459ZM24.1753 3.78125V5.18848H25.2603V5.95654H24.1753V9.56055C24.1753 9.79329 24.2236 9.96875 24.3203 10.0869C24.417 10.2015 24.5817 10.2588 24.8145 10.2588C24.929 10.2588 25.0866 10.2373 25.2871 10.1943V11C25.0257 11.0716 24.7715 11.1074 24.5244 11.1074C24.0804 11.1074 23.7456 10.9731 23.52 10.7046C23.2944 10.436 23.1816 10.0547 23.1816 9.56055V5.95654H22.1235V5.18848H23.1816V3.78125H24.1753ZM28.3271 9.54443L29.6807 5.18848H30.7441L28.4077 11.897C28.0461 12.8638 27.4714 13.3472 26.6836 13.3472L26.4956 13.3311L26.125 13.2612V12.4556L26.3936 12.4771C26.7301 12.4771 26.9915 12.409 27.1777 12.2729C27.3675 12.1369 27.5233 11.888 27.645 11.5264L27.8652 10.9355L25.792 5.18848H26.877L28.3271 9.54443Z" fill="#6F89A1"/>
</svg>
