<svg width="200" height="28" viewBox="0 0 200 28" fill="none" xmlns="http://www.w3.org/2000/svg">
<rect x="0.5" y="0.5" width="199" height="27" rx="3.5" fill="white"/>
<path d="M19.5469 18H18.416L14.1211 11.4258V18H12.9902V9.46875H14.1211L18.4277 16.0723V9.46875H19.5469V18ZM21.0879 14.7715C21.0879 14.1504 21.209 13.5918 21.4512 13.0957C21.6973 12.5996 22.0371 12.2168 22.4707 11.9473C22.9082 11.6777 23.4062 11.543 23.9648 11.543C24.8281 11.543 25.5254 11.8418 26.0566 12.4395C26.5918 13.0371 26.8594 13.832 26.8594 14.8242V14.9004C26.8594 15.5176 26.7402 16.0723 26.502 16.5645C26.2676 17.0527 25.9297 17.4336 25.4883 17.707C25.0508 17.9805 24.5469 18.1172 23.9766 18.1172C23.1172 18.1172 22.4199 17.8184 21.8848 17.2207C21.3535 16.623 21.0879 15.832 21.0879 14.8477V14.7715ZM22.1777 14.9004C22.1777 15.6035 22.3398 16.168 22.6641 16.5938C22.9922 17.0195 23.4297 17.2324 23.9766 17.2324C24.5273 17.2324 24.9648 17.0176 25.2891 16.5879C25.6133 16.1543 25.7754 15.5488 25.7754 14.7715C25.7754 14.0762 25.6094 13.5137 25.2773 13.084C24.9492 12.6504 24.5117 12.4336 23.9648 12.4336C23.4297 12.4336 22.998 12.6465 22.6699 13.0723C22.3418 13.498 22.1777 14.1074 22.1777 14.9004ZM31.2832 12.6328C31.1191 12.6055 30.9414 12.5918 30.75 12.5918C30.0391 12.5918 29.5566 12.8945 29.3027 13.5V18H28.2188V11.6602H29.2734L29.291 12.3926C29.6465 11.8262 30.1504 11.543 30.8027 11.543C31.0137 11.543 31.1738 11.5703 31.2832 11.625V12.6328ZM33.3047 11.6602L33.334 12.3633C33.7988 11.8164 34.4258 11.543 35.2148 11.543C36.1016 11.543 36.7051 11.8828 37.0254 12.5625C37.2363 12.2578 37.5098 12.0117 37.8457 11.8242C38.1855 11.6367 38.5859 11.543 39.0469 11.543C40.4375 11.543 41.1445 12.2793 41.168 13.752V18H40.084V13.8164C40.084 13.3633 39.9805 13.0254 39.7734 12.8027C39.5664 12.5762 39.2188 12.4629 38.7305 12.4629C38.3281 12.4629 37.9941 12.584 37.7285 12.8262C37.4629 13.0645 37.3086 13.3867 37.2656 13.793V18H36.1758V13.8457C36.1758 12.9238 35.7246 12.4629 34.8223 12.4629C34.1113 12.4629 33.625 12.7656 33.3633 13.3711V18H32.2793V11.6602H33.3047ZM46.7227 18C46.6602 17.875 46.6094 17.6523 46.5703 17.332C46.0664 17.8555 45.4648 18.1172 44.7656 18.1172C44.1406 18.1172 43.627 17.9414 43.2246 17.5898C42.8262 17.2344 42.627 16.7852 42.627 16.2422C42.627 15.582 42.877 15.0703 43.377 14.707C43.8809 14.3398 44.5879 14.1562 45.498 14.1562H46.5527V13.6582C46.5527 13.2793 46.4395 12.9785 46.2129 12.7559C45.9863 12.5293 45.6523 12.416 45.2109 12.416C44.8242 12.416 44.5 12.5137 44.2383 12.709C43.9766 12.9043 43.8457 13.1406 43.8457 13.418H42.7559C42.7559 13.1016 42.8672 12.7969 43.0898 12.5039C43.3164 12.207 43.6211 11.9727 44.0039 11.8008C44.3906 11.6289 44.8145 11.543 45.2754 11.543C46.0059 11.543 46.5781 11.7266 46.9922 12.0938C47.4062 12.457 47.6211 12.959 47.6367 13.5996V16.5176C47.6367 17.0996 47.7109 17.5625 47.8594 17.9062V18H46.7227ZM44.9238 17.1738C45.2637 17.1738 45.5859 17.0859 45.8906 16.9102C46.1953 16.7344 46.416 16.5059 46.5527 16.2246V14.9238H45.7031C44.375 14.9238 43.7109 15.3125 43.7109 16.0898C43.7109 16.4297 43.8242 16.6953 44.0508 16.8867C44.2773 17.0781 44.5684 17.1738 44.9238 17.1738ZM50.5137 18H49.4297V9H50.5137V18Z" fill="#404040"/>
<rect x="0.5" y="0.5" width="199" height="27" rx="3.5" stroke="#B7C4D0"/>
</svg>
