<svg viewBox="0 0 69 63" xmlns="http://www.w3.org/2000/svg">
  <g fill="none" fill-rule="evenodd">
    <g>
      <path d="M49.3098376 63H38.6972319L8.1931962 14.1833384l7.6324329-4.7692734L49.3098376 63z" fill="#EAE6F6"/>
      <circle fill="#A494D3" cx="13.5" cy="13.5" r="13.5"/>
      <path d="M10.2477239 4.002495C11.5270774 3.3610384 12.9713762 3 14.5 3c5.2467051 0 9.5 4.2532949 9.5 9.5 0 1.5286238-.3610384 2.9729226-1.002495 4.2522761A12.7463755 12.7463755 0 0 0 23 16.5C23 9.5964406 17.4035594 4 10.5 4a12.7459157 12.7459157 0 0 0-.2522761.002495z" fill="#D9D3EA" opacity=".4"/>
    </g>
    <path d="M15.096428 63C20.7937314 56.3814528 30.714637 52 42 52s21.2062686 4.3814528 26.903572 11H15.096428z" fill="#D9D3EA"/>
  </g>
</svg>