<svg viewBox="0 0 51 43" xmlns="http://www.w3.org/2000/svg">
  <g fill="#000" fill-rule="nonzero">
    <path d="M16.75 15C14.6825 15 13 13.3175 13 11.25s1.6825-3.75 3.75-3.75 3.75 1.6825 3.75 3.75S18.8175 15 16.75 15zm0-5c-.69 0-1.25.56-1.25 1.25s.56 1.25 1.25 1.25S18 11.94 18 11.25 17.44 10 16.75 10zM9.25 22.5c-2.0675 0-3.75-1.6825-3.75-3.75S7.1825 15 9.25 15 13 16.6825 13 18.75s-1.6825 3.75-3.75 3.75zm0-5c-.69 0-1.25.56-1.25 1.25S8.56 20 9.25 20s1.25-.56 1.25-1.25-.56-1.25-1.25-1.25zM26.75 12.5c-2.0675 0-3.75-1.6825-3.75-3.75S24.6825 5 26.75 5s3.75 1.6825 3.75 3.75-1.6825 3.75-3.75 3.75zm0-5c-.69 0-1.25.56-1.25 1.25S26.06 10 26.75 10 28 9.44 28 8.75s-.56-1.25-1.25-1.25z"/>
    <path d="M25.5 42.5c-6.6375 0-12.8875-2.185-17.6-6.1525C5.5875 34.4 3.77 32.13 2.4975 29.595c-1.3275-2.6425-2-5.45-2-8.345 0-2.895.6725-5.705 2-8.345C3.77 10.37 5.5875 8.1 7.9 6.1525 12.61 2.185 18.86 0 25.5 0c6.64 0 12.8875 2.185 17.6 6.1525C45.4125 8.1 47.23 10.37 48.5025 12.905c1.3275 2.6425 2 5.45 2 8.345 0 4.63-2.0625 6.28-3.9925 6.28-1.6125 0-3.2725-1.13-4.555-3.0975-.81-1.2425-1.665-1.9275-2.4075-1.9275-.2475 0-.4925.075-.7475.2275-1.405.84-.575 3.1125.045 4.39 2.005 4.135 2.17 7.745.48 10.445-2.05 3.275-6.7025 4.935-13.825 4.935V42.5zm0-40C13.0925 2.5 3 10.91 3 21.25S13.0925 40 25.5 40c3.415 0 6.185-.3975 8.2325-1.1825 1.6225-.6225 2.7925-1.49 3.475-2.58 1.5275-2.44.51-5.71-.6125-8.025-2.4-4.95-.1575-6.9825.92-7.6275.645-.385 1.3275-.5825 2.0325-.5825 1.145 0 2.855.5325 4.5025 3.065.9425 1.4475 1.915 1.9625 2.46 1.9625.8925 0 1.4925-1.52 1.4925-3.78 0-10.34-10.0925-18.75-22.5-18.75H25.5z"/>
    <path d="M28 35c-2.7575 0-5-2.2425-5-5s2.2425-5 5-5 5 2.2425 5 5-2.2425 5-5 5zm0-7.5c-1.3775 0-2.5 1.1225-2.5 2.5s1.1225 2.5 2.5 2.5 2.5-1.1225 2.5-2.5-1.1225-2.5-2.5-2.5z"/>
  </g>
</svg>