<svg viewBox="0 0 43 43" xmlns="http://www.w3.org/2000/svg">
  <g fill="none" fill-rule="evenodd">
    <path fill="#000" fill-rule="nonzero" d="M0 20.2352941h2.5294118v2.5294118H0zM5.0588235 20.2352941h2.5294118v2.5294118H5.0588235zM10.1176471 20.2352941h2.5294117v2.5294118h-2.5294117zM15.1764706 20.2352941h2.5294118v2.5294118h-2.5294118zM20.2352941 20.2352941h2.5294118v2.5294118h-2.5294118zM25.2941176 20.2352941h2.5294118v2.5294118h-2.5294118zM30.3529412 20.2352941h2.5294117v2.5294118h-2.5294117zM35.4117647 20.2352941h2.5294118v2.5294118h-2.5294118zM40.4705882 20.2352941H43v2.5294118h-2.5294118zM20.2352941 35.4117647h2.5294118v2.5294118h-2.5294118zM20.2352941 30.3529412h2.5294118v2.5294117h-2.5294118zM20.2352941 25.2941176h2.5294118v2.5294118h-2.5294118zM20.2352941 15.1764706h2.5294118v2.5294118h-2.5294118zM20.2352941 10.1176471h2.5294118v2.5294117h-2.5294118zM20.2352941 5.0588235h2.5294118v2.5294118h-2.5294118zM20.2352941 0h2.5294118v2.5294118h-2.5294118zM0 35.4117647h2.5294118v2.5294118H0zM0 40.4705882h2.5294118V43H0zM0 30.3529412h2.5294118v2.5294117H0zM0 25.2941176h2.5294118v2.5294118H0zM0 0h2.5294118v2.5294118H0zM0 15.1764706h2.5294118v2.5294118H0zM0 10.1176471h2.5294118v2.5294117H0zM0 5.0588235h2.5294118v2.5294118H0zM40.4705882 35.4117647H43v2.5294118h-2.5294118zM40.4705882 40.4705882H43V43h-2.5294118zM40.4705882 30.3529412H43v2.5294117h-2.5294118zM40.4705882 25.2941176H43v2.5294118h-2.5294118zM40.4705882 0H43v2.5294118h-2.5294118zM40.4705882 15.1764706H43v2.5294118h-2.5294118zM40.4705882 10.1176471H43v2.5294117h-2.5294118zM40.4705882 5.0588235H43v2.5294118h-2.5294118zM20.2352941 40.4705882h2.5294118V43h-2.5294118zM5.0588235 0h2.5294118v2.5294118H5.0588235zM10.1176471 0h2.5294117v2.5294118h-2.5294117zM15.1764706 0h2.5294118v2.5294118h-2.5294118zM25.2941176 0h2.5294118v2.5294118h-2.5294118zM30.3529412 0h2.5294117v2.5294118h-2.5294117zM35.4117647 0h2.5294118v2.5294118h-2.5294118zM5.0588235 40.4705882h2.5294118V43H5.0588235zM10.1176471 40.4705882h2.5294117V43h-2.5294117zM15.1764706 40.4705882h2.5294118V43h-2.5294118zM25.2941176 40.4705882h2.5294118V43h-2.5294118zM30.3529412 40.4705882h2.5294117V43h-2.5294117zM35.4117647 40.4705882h2.5294118V43h-2.5294118z"/>
    <path stroke="#000" stroke-width="2.6" d="M1.3 1.3h40.4v40.4H1.3z"/>
  </g>
</svg>