<svg viewBox="0 0 97 92" xmlns="http://www.w3.org/2000/svg">
  <g fill="#5623EE" fill-rule="evenodd">
    <g transform="translate(46 1)">
      <rect width="13" height="12" rx="6"/>
      <rect y="19.75" width="16" height="12" rx="6"/>
      <rect x="21" y="19.75" width="25" height="12" rx="6"/>
      <rect y="39.5" width="30" height="12" rx="6"/>
      <rect x="35" y="39.5" width="16" height="12" rx="6"/>
      <rect x="28" y="59.25" width="18" height="12" rx="6"/>
      <rect y="59.25" width="23" height="12" rx="6"/>
      <rect y="79" width="17" height="12" rx="6"/>
      <rect x="22" y="75" width="12" height="12" rx="6"/>
      <rect x="18" y="4" width="13" height="12" rx="6"/>
    </g>
    <path d="M21.7056494 46.3164854c1.4031885.9405288 2.6230164 2.0676201 3.556565 3.4533188 2.7200555 4.0374733 2.6391747 7.069944 2.3202757 11.5535959-.059377.8348289-1.0195465 5.8896577-1.4687028 7.698539-.9027162 3.6354972-1.1474333 4.826424-1.1474333 6.5081716 0 1.6817476.2958604 2.9597189 1.5965896 3.7006181 1.1908048.678286 4.0324314.6348187 7.441099.6507615 5.8849148.0275245 6.5792572 4.1228344 6.5792572 6.3584863 0 2.2356518-2.0619694 5.2421506-5.3584862 5.5792572C21.817299 93.1903057 13.194262 86.6329707 13.194262 76.5301107c0-2.5352096 1.9691245-11.0528226 2.0796906-11.7979335.7160317-4.8253776-.4614739-7.9271954-1.7289844-9.5641664-1.2675105-1.6369711-1.8017637-2.1212783-7.0275101-2.5350401-3.3074056-.2618722-6-2.6862915-6-6 0-.1061616.0027571-.2116793.0082037-.3164853C.5202152 46.2116793.5174581 46.1061617.5174581 46c0-3.3137085 2.6925944-5.7381277 6-6 5.2257464-.4137618 5.7599996-.898069 7.0275101-2.53504 1.2675105-1.6369711 2.4450161-4.7387888 1.7289844-9.5641664-.1105661-.745111-2.0796906-9.262724-2.0796906-11.7979335C13.194262 6 21.817299-.5573349 35.2248136.813737c3.2965168.3371066 5.3584862 3.3436053 5.3584862 5.5792572 0 2.2356519-.6943424 6.3309617-6.5792572 6.3584862-3.4086676.0159428-6.2502942-.0275245-7.441099.6507615-1.3007292.7408992-1.5965896 2.0188706-1.5965896 3.7006182 0 1.6817475.2447171 2.8726743 1.1474333 6.5081715.4491563 1.8088814 1.4093258 6.8637101 1.4687028 7.698539.318899 4.483652.3997798 7.5161227-2.3202757 11.5535959-.9335486 1.3856988-2.1533765 2.5127901-3.556565 3.4533189z" fill-rule="nonzero"/>
  </g>
</svg>
