<svg viewBox="0 0 64 86" xmlns="http://www.w3.org/2000/svg">
  <g fill-rule="nonzero" fill="none">
    <path d="M20.6384873 66.48161s-3.2996073 1.9077447 2.3482182 2.5533005c6.8421818.7760555 10.3391418.6647606 17.8792727-.7540739 0 0 1.9823708 1.2358113 4.7508945 2.3061847-16.9029817 7.2024598-38.2547781-.4171817-24.9783854-4.1054113M18.5730327 57.0828718s-3.7008291 2.7235979 1.9511855 3.3048297c7.3090328.7496776 13.0811346.8109939 23.0690908-1.101147 0 0 1.3814693 1.3924568 3.5537455 2.1539351-20.4367127 5.9414278-43.1995345.4685486-28.5740218-4.3576178" fill="#5382A1"/>
    <path d="M35.9854545 41.1394932c4.1648873 4.7673953-1.0942835 9.0574496-1.0942835 9.0574496s10.57536-5.4277597 5.7185745-12.2246067c-4.5360872-6.3384794-8.0146617-9.48782 10.8169308-20.3463473 0 0-29.559389 7.3399007-15.4412218 23.5135044" fill="#E76F00"/>
    <path d="M58.3410038 73.4334829s2.4417745 2.0002976-2.6891638 3.5477806c-9.7566255 2.9385519-40.6081164 3.8259019-49.1785309.1170793-3.0808436-1.332529 2.6966109-3.1817343 4.5139782-3.5697618 1.8953309-.4086208 2.9784436-.3324959 2.9784436-.3324959-3.4262109-2.3996632-22.145629 4.7118635-9.5085382 6.7484881 34.4631855 5.5566395 62.8230983-2.5021653 53.8838111-6.5110903M22.2252218 47.3446964S6.5321891 51.050511 16.6679273 52.396229c4.2796218.5696625 12.8109382.4407828 20.7576437-.2212012 6.4944872-.5446733 13.015738-1.7027403 13.015738-1.7027403s-2.2900363.9750439-3.9468218 2.0997919c-15.936 4.1669587-46.7213963 2.2284402-37.8586763-2.0338481 7.4952145-3.6021555 13.5894109-3.1935349 13.5894109-3.1935349M50.376611 62.989361c16.19968-8.3693194 8.7095853-16.4121587 3.4816-15.3285967-1.2813965.2651638-1.852742.4949263-1.852742.4949263s.4756948-.7408853 1.384262-1.0615808c10.3426328-3.6151129 18.2967852 10.6623153-3.3387055 16.3170608 0 .0002312.2506473-.2225898.3255855-.4218096" fill="#5382A1"/>
    <path d="M40.6097455.0923214s8.9716362 8.9227852-8.5092073 22.6435081c-14.0178618 11.0063804-3.1965092 17.2819236-.0058182 24.45199-8.1824582-7.3399007-14.1872873-13.8012437-10.1587782-19.8148628 5.912902-8.8274558 22.2936437-13.1073291 18.6738037-27.2806353" fill="#E76F00"/>
    <path d="M23.8170764 85.6682704c15.5496726.9896209 39.4279564-.5490695 39.9934836-7.8642123 0 0-1.087069 2.7731137-12.8509673 4.9754077-13.2719709 2.4831921-29.6410763 2.1932704-39.34976.6018248.0002328-.0002314 1.9874909 1.635408 12.2072437 2.2869798" fill="#5382A1"/>
  </g>
</svg>