<svg viewBox="0 0 99 74" xmlns="http://www.w3.org/2000/svg">
  <path d="M85.1868852 42.5679612c-3.4442622.0179611-6.4377049.8441747-8.9442622 2.0655339-.9196722-1.8140776-1.8393443-3.4305825-2.0016394-4.6160194-.1803279-1.3830097-.3967213-2.2271844-.1803279-3.8796116.2163935-1.6524272 1.190164-4.0053398 1.1721312-4.1849515-.0180328-.1796116-.2163935-1.0237864-2.2-1.0417476-1.9836066-.0179611-3.6967213.3771845-3.895082.8980583-.1983606.5208738-.5770492 1.7063107-.8295082 2.9276699-.3426229 1.7961165-3.9672131 8.2082524-6.0409836 11.5669903-.6672131-1.3111651-1.2442623-2.4606796-1.3704918-3.376699C60.7163934 41.5441748 60.5 40.7 60.7163934 39.0475728c.2163935-1.6524272 1.190164-4.0053398 1.1721312-4.1849514-.0180328-.1796117-.2163935-1.0237864-2.2-1.0417476-1.9836066-.0179612-3.6967213.3771845-3.895082.8980582-.1983606.5208738-.4147541 1.742233-.8295082 2.9276699-.4147541 1.1854369-5.2295082 11.8902913-6.4918033 14.6563107-.6491803 1.4189321-1.2081967 2.5504855-1.604918 3.3228156 0 0-.0180328.0538835-.0721311.1436893-.342623.6645631-.5409836 1.0237864-.5409836 1.0237864v.0179611c-.2704918.4849515-.5590164.9339806-.7032787.9339806-.1081967 0-.3065574-1.2932039.0360655-3.053398.7213115-3.7179612 2.4344263-9.5014563 2.4163935-9.6990292 0-.1077669.3245902-1.1135922-1.1180328-1.634466-1.4065574-.5208738-1.9114754.3412622-2.0377049.3412622s-.2163935.3053398-.2163935.3053398S46.2 37.5029126 41.6377049 37.5029126c-2.8491803 0-6.7803279 3.1072816-8.7278688 5.9092233-1.2262295.6645631-3.8409836 2.0834952-6.6360656 3.6101942-1.0639344.5927184-2.1639344 1.1854369-3.1918033 1.742233-.0721311-.0718447-.1442623-.1616505-.2163934-.2334951C17.347541 42.657767 7.1409836 38.5087379 7.5737705 30.6237864 7.7360655 27.75 8.7278688 20.2063107 27.1754098 11.0461165c15.1836066-7.4538835 27.2655738-5.3883495 29.3573771-.8082524 2.9934426 6.5378641-6.4737705 18.6796116-22.1622951 20.4398058-5.9868852.6645631-9.1245902-1.634466-9.9180328-2.4966019-.8295082-.8980583-.9557377-.9519418-1.2622951-.7723301-.504918.2694174-.1803278 1.0776699 0 1.5446602.4688525 1.2213592 2.3983607 3.376699 5.6622951 4.4364077 2.8852459.9339806 9.9 1.4548544 18.3934426-1.8140776 9.5032787-3.6640777 16.9327869-13.8480583 14.7508197-22.3796117C59.8147541.538835 45.3885246-2.3169903 31.7377049 2.5145631c-8.1147541 2.8737864-16.9147541 7.4-23.2442623 13.2912621C.9737705 22.8106796-.2163934 28.8995146.2704918 31.45c1.7491803 9.0524272 14.2819672 14.9436893 19.295082 19.3082524-.252459.1436893-.4868853.2694175-.6852459.3771845C16.3737705 52.3747573 6.8163934 57.35 4.4360656 62.6126214c-2.704918 5.9631068.4327869 10.237864 2.5065573 10.8126213 6.437705 1.7781554 13.0557378-1.418932 16.6081968-6.6995145 3.552459-5.2805826 3.1196721-12.1417476 1.4786885-15.2849515-.0180328-.0359223-.0360656-.0718447-.0721312-.107767.6491804-.3771845 1.3163935-.7723301 1.9655738-1.1495146 1.2803279-.7543689 2.542623-1.4548543 3.6245902-2.0296116-.6131148 1.6703883-1.0639344 3.6640777-1.2803279 6.5378641-.2704918 3.376699 1.1180328 7.7592233 2.9393443 9.4834951.8114754.754369 1.7672131.7723301 2.3803278.7723301 2.1278689 0 3.0836066-1.7601942 4.147541-3.8436893 1.2983607-2.5504854 2.4704918-5.5140777 2.4704918-5.5140777s-1.4606557 8.0106796 2.5065574 8.0106796c1.442623 0 2.9032787-1.8679611 3.552459-2.8199029v.0179612s.0360656-.0538835.1081967-.1796117c.1442623-.2334951.2344263-.3771844.2344263-.3771844v-.0359224c.5770492-1.0058252 1.8754098-3.2868932 3.804918-7.076699 2.4885246-4.8854369 4.8868853-10.992233 4.8868853-10.992233s.2163934 1.4907767.9557377 3.9694175c.4327868 1.4548543 1.3344262 3.053398 2.0557377 4.5980582-.5770492.8082525-.937705 1.2572816-.937705 1.2572816l.0180328.0179612c-.4688524.6106796-.9737705 1.2752427-1.5327869 1.9218446-1.9655737 2.3349515-4.309836 5.0111651-4.6344262 5.7834952-.3786885.9160194-.2885246 1.5805825.4327869 2.1194174.5229508.3951457 1.4606557.4490292 2.4163934.3951457 1.7672132-.1257282 3.0114755-.5567962 3.6245902-.8262136.9557377-.3412622 2.0737705-.862136 3.1196721-1.634466 1.9295082-1.4189321 3.1016394-3.4485437 2.9934427-6.1247573-.0540984-1.4728156-.5409836-2.9456311-1.1360656-4.3286408.1803279-.2514563.3426229-.5029126.5229508-.7543689 3.047541-4.4364078 5.4098361-9.3038835 5.4098361-9.3038835s.2163934 1.4907767.9557377 3.9694174c.3606557 1.2572816 1.1 2.6223301 1.7491803 3.9514564-2.8672131 2.3169902-4.6344262 5.011165-5.2655738 6.7713592-1.1360655 3.268932-.252459 4.7417475 1.4245902 5.0830097.7573771.1616505 1.8393443-.1975728 2.6327869-.538835 1.0098361-.3233009 2.2-.8800971 3.3360656-1.7063106 1.9295082-1.4189321 3.7868852-3.3946602 3.6786885-6.0708738-.0540984-1.2213593-.3786885-2.4247573-.8295082-3.592233 2.4344262-1.0058253 5.5721311-1.5626214 9.5754098-1.0956311 8.5836066 1.0058252 10.2786886 6.3402913 9.9540984 8.5854369-.3245902 2.2451456-2.1278689 3.4665048-2.7229508 3.8436893-.595082.3771845-.7934427.5029126-.7393443.7723301.0721312.3951456.3606557.3771845.8655738.3053398.7032787-.1257281 4.5081967-1.8140777 4.6704918-5.9451456.2704918-5.2805825-4.7786885-11.0461165-13.7049181-10.992233zM18.9704918 64.8038835c-2.8491803 3.0893204-6.8163934 4.2567961-8.5295082 3.268932-1.8393443-1.0597087-1.1180328-5.6218446 2.3803279-8.8907767 2.1278688-1.9936893 4.8688524-3.8436893 6.6901639-4.9752427.4147541-.2514563 1.0278689-.6106796 1.7672131-1.0597087.1262295-.0718447.1983607-.107767.1983607-.107767l.4327869-.2694175c1.2803278 4.6699029.0540983 8.7830097-2.9393443 12.0339806zm20.7377049-14.0456311c-.9918033 2.4067961-3.0655737 8.5674758-4.3278688 8.2262136-1.0819672-.2873786-1.7491804-4.9572815-.2163935-9.573301.7754099-2.3169902 2.4163935-5.0830097 3.3721312-6.1606796 1.5508196-1.7242718 3.2639344-2.2990291 3.6786885-1.5985437.5229508.9160195-1.8934426 7.5975729-2.5065574 9.1063107zm17.1131148 8.154369c-.4147541.2155339-.8114754.3592233-.9918033.2514563-.1262295-.0718447.1803279-.3592233.1803279-.3592233s2.1459016-2.2990292 2.9934426-3.3407767c.4868852-.6106796 1.0639344-1.3291262 1.6770492-2.1373787v.2334952c0 2.7480582-2.6688525 4.5980582-3.8590164 5.3524272zm13.2-2.9995146c-.3065574-.215534-.252459-.9339806.7754098-3.1791262.3967213-.8800971 1.3344262-2.3529126 2.9393443-3.7718447.1803278.5747573.3065574 1.1315534.2885246 1.6524272-.0180328 3.4665049-2.5065574 4.7597087-4.0032787 5.2985437z" fill="#CD6799" fill-rule="nonzero"/>
</svg>