<svg viewBox="0 0 85 76" xmlns="http://www.w3.org/2000/svg">
  <defs>
    <linearGradient x1="50%" y1="0%" x2="50%" y2="100%" id="a">
      <stop stop-color="#FEAC3C" offset="0%"/>
      <stop stop-color="#FF0028" offset="100%"/>
    </linearGradient>
  </defs>
  <path d="M52.3314825 0c36.112042 23.6594404 25.0704298 53.4129791 25.0704298 53.4129791s3.8944359 4.4809547 5.8416539 10.0373384c1.9472179 5.5563837 1.9257622 12.3674348 1.5717226 12.5466729-.3540396.1792382-4.9188693-7.7072419-12.9009907-7.7072419-7.9821217 0-12.0373503 7.7072419-26.1989325 7.7072419C13.8291804 75.9969904 0 49.5145493 0 49.5145493s14.0288203 10.1717663 28.7214661 9.8132899c14.6926459-.3584763 18.7640977-4.6601928 18.7640977-4.6601928s-6.5695749-5.5660803-17.8789999-16.7587703c-11.3094252-11.19269-21.950457-26.6168704-21.950457-26.6168704s17.0482092 13.6808686 22.5165026 17.7052066c5.4682934 4.0243382 10.936587 7.6713943 10.936587 7.6713943s-5.2959732-5.7849846-9.0243552-10.4381255C28.3564592 21.5773403 18.8083552 7.5280038 18.8083552 7.5280038S33.4524368 20.9150394 40.1149612 26.23048c6.6625246 5.3154406 19.4079512 14.2773498 19.4079512 14.2773498S67.2011469 22.7632495 52.3314825 0z" fill="url(#a)" fill-rule="nonzero"/>
</svg>