<svg width="10" height="10" viewBox="0 0 10 10" fill="none" xmlns="http://www.w3.org/2000/svg">
<path fill-rule="evenodd" clip-rule="evenodd" d="M5 10C5.55228 10 6 9.55228 6 9L6 3.41866L7.28069 4.69521C7.53176 4.95472 7.90357 5.0588 8.2532 4.96744C8.60282 4.87608 8.87587 4.60351 8.96738 4.25448C9.0589 3.90546 8.95464 3.5343 8.69469 3.28365L5.6947 0.292281C5.3042 -0.0974274 4.6712 -0.0974274 4.2807 0.292281L1.28071 3.28365C0.90174 3.67536 0.90716 4.29799 1.29289 4.68305C1.67863 5.06812 2.30233 5.07353 2.69471 4.69521L4 3.39413L4 9C4 9.55228 4.44772 10 5 10Z" fill="#4B6C89"/>
</svg>
