<svg width="12" height="12" viewBox="0 0 12 12" fill="none" xmlns="http://www.w3.org/2000/svg">
<path fill-rule="evenodd" clip-rule="evenodd" d="M6 11C6.55228 11 7 10.5523 7 10V4.41965L9.28069 6.69521C9.53176 6.95472 9.90357 7.0588 10.2532 6.96744C10.6028 6.87608 10.8759 6.60351 10.9674 6.25448C11.0589 5.90546 10.9546 5.5343 10.6947 5.28365L6.6947 1.29228C6.3042 0.902573 5.6712 0.902573 5.2807 1.29228L1.28071 5.28365C0.90174 5.67536 0.90716 6.29799 1.29289 6.68305C1.67863 7.06812 2.30233 7.07353 2.69471 6.69521L5 4.3951V10C5 10.5523 5.44772 11 6 11Z" fill="#4B6C89"/>
</svg>
