<svg width="12" height="12" viewBox="0 0 12 12" fill="none" xmlns="http://www.w3.org/2000/svg">
<path fill-rule="evenodd" clip-rule="evenodd" d="M11.3134 0.0359883C11.4674 -0.0256829 11.642 -0.00695306 11.7794 0.0859857C11.9169 0.178918 11.9993 0.334014 11.9994 0.499964V8.49955C11.9999 8.66654 11.917 8.82276 11.7784 8.91595C11.6398 9.00913 11.4639 9.02698 11.3094 8.96353L6.39967 6.99963H2.49987C1.11923 6.99963 0 5.8804 0 4.49976C0 3.11912 1.11923 1.99989 2.49987 1.99989H6.39967L11.3134 0.0359883ZM2.88485 7.99958H6.11468L6.89264 9.94248C7.20025 10.7118 6.82598 11.5848 6.05669 11.8924C5.28739 12.2 4.41439 11.8257 4.10679 11.0564L2.88485 7.99958Z" fill="#4B6C89"/>
</svg>
