<svg width="12" height="12" viewBox="0 0 12 12" fill="none" xmlns="http://www.w3.org/2000/svg">
<path fill-rule="evenodd" clip-rule="evenodd" d="M6 0.999999C5.44771 0.999999 5 1.44771 5 2L5 7.58035L2.71931 5.30479C2.46823 5.04528 2.09643 4.9412 1.7468 5.03256C1.39718 5.12392 1.12413 5.39649 1.03262 5.74552C0.941101 6.09454 1.04536 6.4657 1.30531 6.71635L5.3053 10.7077C5.6958 11.0974 6.3288 11.0974 6.7193 10.7077L10.7193 6.71634C11.0983 6.32464 11.0928 5.70201 10.7071 5.31694C10.3214 4.93188 9.69767 4.92647 9.30529 5.30478L7 7.6049L7 2C7 1.44771 6.55228 0.999999 6 0.999999Z" fill="#4B6C89"/>
</svg>
