<svg width="12" height="12" viewBox="0 0 12 12" fill="none" xmlns="http://www.w3.org/2000/svg">
<path fill-rule="evenodd" clip-rule="evenodd" d="M9.18221 7.77048L10.7197 9.30801C11.0981 9.69976 11.0927 10.3225 10.7076 10.7076C10.3225 11.0927 9.69976 11.0981 9.30801 10.7197L7.77048 9.18221C5.62655 10.6012 2.75631 10.1659 1.12963 8.17489C-0.497057 6.18392 -0.351444 3.28451 1.46653 1.46653C3.28451 -0.351444 6.18392 -0.497057 8.17489 1.12963C10.1659 2.75631 10.6012 5.62655 9.18221 7.77048ZM5.02195 2.02677C3.36776 2.02677 2.02677 3.36776 2.02677 5.02195C2.02677 6.67615 3.36776 8.01714 5.02195 8.01714C6.67615 8.01714 8.01714 6.67615 8.01714 5.02195C8.01714 3.36776 6.67615 2.02677 5.02195 2.02677Z" fill="#4B6C89"/>
</svg>
