<svg width="64" height="64" viewBox="0 0 64 64" fill="none" xmlns="http://www.w3.org/2000/svg">
<circle cx="32" cy="32" r="31.5" fill="#FEFEFE" stroke="#B7C4D0"/>
<path fill-rule="evenodd" clip-rule="evenodd" d="M38.5 13L48 22.5V49.4167C48 50.2911 47.2837 51 46.4 51H17.6C16.7163 51 16 50.2911 16 49.4167V14.5833C16 13.7089 16.7163 13 17.6 13H38.5Z" fill="#B7C4D0"/>
<circle cx="44" cy="35" r="11" fill="#B7C4D0" stroke="#FEFEFE" stroke-width="2"/>
<path fill-rule="evenodd" clip-rule="evenodd" d="M42.9877 40.0006C42.7225 40.0005 42.4682 39.8951 42.2807 39.7076L39.2807 36.7076C38.9017 36.3152 38.9072 35.6915 39.2929 35.3058C39.6786 34.92 40.3023 34.9146 40.6947 35.2936L42.8947 37.4936L48.1977 31.3866C48.5368 30.9503 49.1654 30.8715 49.6017 31.2106C50.038 31.5497 50.1168 32.1783 49.7777 32.6146L43.7777 39.6146C43.6018 39.8419 43.3366 39.9825 43.0497 40.0006H42.9877Z" fill="#FBFCFD"/>
</svg>
