<svg width="64" height="64" viewBox="0 0 64 64" fill="none" xmlns="http://www.w3.org/2000/svg">
<circle cx="32" cy="32" r="31.5" fill="#FBFCFD" stroke="#B7C4D0"/>
<path fill-rule="evenodd" clip-rule="evenodd" d="M46.4649 13.4762C45.3283 11.4572 43.4896 10.2687 41.2951 10.0257C36.7837 9.65112 33.5255 13.3971 33.0243 19.3907C32.899 21.6383 33.2749 23.8859 33.7762 26.1334C33.7782 26.1419 33.7802 26.1504 33.7822 26.1589L46.4649 13.4762ZM47.3124 15.4572L34.2734 28.4962C34.491 29.7409 34.6057 30.9194 34.5281 32.0021C34.5281 32.3767 34.6534 32.6265 34.7787 32.8762C35.0293 33.1259 35.28 33.2508 35.6559 33.2508L44.4279 34H44.5532C45.0545 34 45.5558 33.6254 45.6811 33.1259C45.8064 32.8762 47.4355 27.8816 47.9368 21.7631C48.1218 19.4579 47.8969 17.2889 47.3124 15.4572ZM28.916 31.0251C29.0127 30.1063 29.0354 29.2035 28.9336 28.3421C28.3092 22.3795 25.0626 18.6529 20.5672 19.0256C18.3196 19.274 16.4465 20.5162 15.3227 22.628C14.1988 24.7397 13.8242 27.4725 14.074 30.8265C14.5734 36.9132 16.1968 41.882 16.3216 42.1305C16.4109 42.4855 16.6913 42.7771 17.0264 42.9147L28.916 31.0251ZM19.9746 42.795L28.3166 34.453C28.2729 34.6528 28.2286 34.8518 28.1843 35.0499C27.6849 37.1617 27.3103 39.1492 27.4351 40.8883C27.56 41.6336 27.0605 42.2547 26.3113 42.2547L19.9746 42.795ZM43.8063 36.7397L35.4505 36C34.7342 36 34.2568 36.4932 34.1374 37.1096L34.018 38.9589C33.8987 40.4384 34.3761 41.9178 35.3311 43.0274C36.286 44.137 37.5991 44.8767 39.0315 45H39.509C42.2545 45 44.6419 42.7808 44.8806 39.9452L45 38.0959C45 37.3562 44.5225 36.7397 43.8063 36.7397ZM27.4903 45.2934C27.2468 45.0481 26.8815 44.9255 26.638 45.0481L18.1145 45.7839C17.3839 45.7839 16.8969 46.397 17.0186 47.1328L17.1404 48.9722C17.3839 51.7927 19.6975 54 22.498 54H22.9851C24.4462 53.8774 25.7857 53.1416 26.7598 52.0379C27.7339 50.9343 28.0992 49.4627 27.9774 47.9912L27.8556 46.1518C27.8556 45.7839 27.7339 45.5386 27.4903 45.2934Z" fill="#B7C4D0"/>
</svg>
