<svg width="64" height="64" viewBox="0 0 64 64" fill="none" xmlns="http://www.w3.org/2000/svg">
<circle cx="32" cy="32" r="31.5" fill="#FBFCFD" stroke="#B7C4D0"/>
<path fill-rule="evenodd" clip-rule="evenodd" d="M38.5 13L48 22.5V49.4167C48 50.2911 47.2837 51 46.4 51H17.6C16.7163 51 16 50.2911 16 49.4167V14.5833C16 13.7089 16.7163 13 17.6 13H38.5Z" fill="#B7C4D0"/>
<path fill-rule="evenodd" clip-rule="evenodd" d="M44 25H20V29H44V25ZM34 31H30V43H34V31ZM36 31V43H44V31H36ZM20 31H28V43H20V31Z" fill="#FBFCFD"/>
<circle cx="44" cy="35" r="11" fill="#B7C4D0" stroke="#FBFCFD" stroke-width="2"/>
<mask id="path-5-inside-1" fill="white">
<path fill-rule="evenodd" clip-rule="evenodd" d="M47.7242 32.2758C47.3566 31.9081 46.7605 31.9081 46.3928 32.2758L44.5 34.1685L42.6072 32.2758C42.2395 31.9081 41.6434 31.9081 41.2758 32.2758C40.9081 32.6434 40.9081 33.2395 41.2758 33.6072L43.1685 35.5L41.2758 37.3928C40.9081 37.7604 40.9081 38.3566 41.2758 38.7242C41.6434 39.0919 42.2396 39.0919 42.6072 38.7242L44.5 36.8315L46.3928 38.7242C46.7604 39.0919 47.3566 39.0919 47.7242 38.7242C48.0919 38.3566 48.0919 37.7605 47.7242 37.3928L45.8315 35.5L47.7242 33.6072C48.0919 33.2395 48.0919 32.6434 47.7242 32.2758Z"/>
</mask>
<path fill-rule="evenodd" clip-rule="evenodd" d="M47.7242 32.2758C47.3566 31.9081 46.7605 31.9081 46.3928 32.2758L44.5 34.1685L42.6072 32.2758C42.2395 31.9081 41.6434 31.9081 41.2758 32.2758C40.9081 32.6434 40.9081 33.2395 41.2758 33.6072L43.1685 35.5L41.2758 37.3928C40.9081 37.7604 40.9081 38.3566 41.2758 38.7242C41.6434 39.0919 42.2396 39.0919 42.6072 38.7242L44.5 36.8315L46.3928 38.7242C46.7604 39.0919 47.3566 39.0919 47.7242 38.7242C48.0919 38.3566 48.0919 37.7605 47.7242 37.3928L45.8315 35.5L47.7242 33.6072C48.0919 33.2395 48.0919 32.6434 47.7242 32.2758Z" fill="#FBFCFD"/>
<path d="M46.3928 32.2758L45.6857 31.5686V31.5686L46.3928 32.2758ZM47.7242 32.2758L48.4314 31.5686L48.4314 31.5686L47.7242 32.2758ZM44.5 34.1685L43.7929 34.8756L44.5 35.5827L45.2071 34.8756L44.5 34.1685ZM42.6072 32.2758L41.9001 32.9829L41.9001 32.9829L42.6072 32.2758ZM41.2758 33.6072L41.9829 32.9001V32.9001L41.2758 33.6072ZM43.1685 35.5L43.8756 36.2071L44.5827 35.5L43.8756 34.7929L43.1685 35.5ZM41.2758 37.3928L40.5687 36.6857H40.5687L41.2758 37.3928ZM41.2758 38.7242L40.5687 39.4313H40.5687L41.2758 38.7242ZM42.6072 38.7242L43.3143 39.4313V39.4313L42.6072 38.7242ZM44.5 36.8315L45.2071 36.1244L44.5 35.4173L43.7929 36.1244L44.5 36.8315ZM45.8315 35.5L45.1244 34.7929L44.4173 35.5L45.1244 36.2071L45.8315 35.5ZM47.7242 33.6072L47.0171 32.9001V32.9001L47.7242 33.6072ZM47.0999 32.9829C47.077 33.0057 47.04 33.0057 47.0171 32.9829L48.4314 31.5686C47.6732 30.8104 46.4439 30.8105 45.6857 31.5686L47.0999 32.9829ZM45.2071 34.8756L47.0999 32.9829L45.6857 31.5686L43.7929 33.4614L45.2071 34.8756ZM41.9001 32.9829L43.7929 34.8756L45.2071 33.4614L43.3143 31.5686L41.9001 32.9829ZM41.9829 32.9829C41.96 33.0057 41.923 33.0057 41.9001 32.9829L43.3143 31.5686C42.5561 30.8105 41.3268 30.8104 40.5686 31.5686L41.9829 32.9829ZM41.9829 32.9001C42.0057 32.923 42.0057 32.96 41.9829 32.9829L40.5686 31.5686C39.8104 32.3268 39.8105 33.5561 40.5686 34.3143L41.9829 32.9001ZM43.8756 34.7929L41.9829 32.9001L40.5686 34.3143L42.4614 36.2071L43.8756 34.7929ZM41.9829 38.0999L43.8756 36.2071L42.4614 34.7929L40.5687 36.6857L41.9829 38.0999ZM41.9829 38.0171C42.0057 38.04 42.0057 38.077 41.9829 38.0999L40.5687 36.6857C39.8105 37.4439 39.8105 38.6731 40.5687 39.4313L41.9829 38.0171ZM41.9001 38.0171C41.923 37.9943 41.96 37.9943 41.9829 38.0171L40.5687 39.4313C41.3269 40.1895 42.5561 40.1895 43.3143 39.4313L41.9001 38.0171ZM43.7929 36.1244L41.9001 38.0171L43.3143 39.4313L45.2071 37.5386L43.7929 36.1244ZM47.0999 38.0171L45.2071 36.1244L43.7929 37.5386L45.6857 39.4313L47.0999 38.0171ZM47.0171 38.0171C47.04 37.9943 47.077 37.9943 47.0999 38.0171L45.6857 39.4313C46.4439 40.1895 47.6731 40.1895 48.4313 39.4313L47.0171 38.0171ZM47.0171 38.0999C46.9943 38.077 46.9943 38.04 47.0171 38.0171L48.4313 39.4313C49.1895 38.6732 49.1895 37.4439 48.4313 36.6857L47.0171 38.0999ZM45.1244 36.2071L47.0171 38.0999L48.4313 36.6857L46.5386 34.7929L45.1244 36.2071ZM47.0171 32.9001L45.1244 34.7929L46.5386 36.2071L48.4314 34.3143L47.0171 32.9001ZM47.0171 32.9829C46.9943 32.96 46.9943 32.923 47.0171 32.9001L48.4314 34.3143C49.1896 33.5561 49.1896 32.3268 48.4314 31.5686L47.0171 32.9829Z" fill="#FBFCFD" mask="url(#path-5-inside-1)"/>
</svg>
