<svg width="64" height="64" viewBox="0 0 64 64" fill="none" xmlns="http://www.w3.org/2000/svg">
<circle cx="32" cy="32" r="31.5" fill="#FBFCFD" stroke="#B7C4D0"/>
<path fill-rule="evenodd" clip-rule="evenodd" d="M38.5 13L48 22.5V49.4167C48 50.2911 47.2837 51 46.4 51H17.6C16.7163 51 16 50.2911 16 49.4167V14.5833C16 13.7089 16.7163 13 17.6 13H38.5Z" fill="#B7C4D0"/>
<path fill-rule="evenodd" clip-rule="evenodd" d="M44 25H20V29H44V25ZM34 31H30V43H34V31ZM36 31V43H44V31H36ZM20 31H28V43H20V31Z" fill="#FBFCFD"/>
<circle cx="44" cy="35" r="11" fill="#B7C4D0" stroke="#FBFCFD" stroke-width="2"/>
<path fill-rule="evenodd" clip-rule="evenodd" d="M45 40.917C47.8377 40.441 50 37.973 50 35C50 31.6863 47.3137 29 44 29C40.6863 29 38 31.6863 38 35C38 35.8804 38.1896 36.7165 38.5303 37.4697L40.1013 35.8986C40.035 35.6098 40 35.309 40 35C40 32.7909 41.7909 31 44 31C46.2091 31 48 32.7909 48 35C48 36.8639 46.7252 38.43 45 38.874V38.0806C45 37.2421 44.03 36.7759 43.3753 37.2998L40.9761 39.2191C40.4756 39.6195 40.4756 40.3805 40.9761 40.7809L43.3753 42.7002C44.03 43.2241 45 42.7579 45 41.9194V40.917Z" fill="#FBFCFD"/>
</svg>
