<svg width="64" height="64" viewBox="0 0 64 64" fill="none" xmlns="http://www.w3.org/2000/svg">
<circle cx="32" cy="32" r="31.5" fill="#FEFEFE" stroke="#B7C4D0"/>
<path fill-rule="evenodd" clip-rule="evenodd" d="M1 32C1 49.1208 14.8792 63 32 63C49.1208 63 63 49.1208 63 32H1Z" fill="#F6F7F9"/>
<path fill-rule="evenodd" clip-rule="evenodd" d="M32 33C36.579 33 40 28.249 40 24C40 21.8783 39.1571 19.8434 37.6569 18.3431C36.1566 16.8429 34.1217 16 32 16C29.8783 16 27.8434 16.8429 26.3431 18.3431C24.8429 19.8434 24 21.8783 24 24C24 28.249 27.421 33 32 33ZM34 41C33.9968 38.8872 34.7406 36.8414 36.1 35.224C34.7385 35.0735 33.3698 34.9988 32 35C28.0168 34.8925 24.0549 35.6177 20.368 37.129C19.6625 37.4443 19.0635 37.9571 18.6432 38.6056C18.223 39.254 17.9996 40.0103 18 40.783V46C18 46.2652 18.1054 46.5196 18.2929 46.7071C18.4804 46.8946 18.7348 47 19 47H36.305C34.8207 45.3541 33.9994 43.2163 34 41ZM43 48C46.866 48 50 44.866 50 41C50 37.134 46.866 34 43 34C39.134 34 36 37.134 36 41C36 44.866 39.134 48 43 48Z" fill="#93A7B8"/>
<path d="M43.0032 46C41.6225 45.2689 40.441 44.1903 39.5668 42.8629C38.6927 41.5356 38.154 40.0019 38 38.4027C39.8191 37.9968 41.5282 37.176 43.0032 36C44.4767 37.1741 46.1834 37.9943 48 38.4014C47.8404 39.9982 47.3001 41.5288 46.4278 42.8553C45.5555 44.1817 44.3787 45.2624 43.0032 46Z" fill="white"/>
</svg>
