<svg width="64" height="64" viewBox="0 0 64 64" fill="none" xmlns="http://www.w3.org/2000/svg">
<circle cx="32" cy="32" r="31.5" fill="#FEFEFE" stroke="#B7C4D0"/>
<path fill-rule="evenodd" clip-rule="evenodd" d="M1 32C1 49.1208 14.8792 63 32 63C49.1208 63 63 49.1208 63 32H1Z" fill="#F6F7F9"/>
<path d="M39 28.515V23C39 21.1435 38.2625 19.363 36.9497 18.0503C35.637 16.7375 33.8565 16 32 16C30.1435 16 28.363 16.7375 27.0503 18.0503C25.7375 19.363 25 21.1435 25 23V28.515C23.2526 29.9565 21.9929 31.9024 21.3929 34.0867C20.7929 36.2711 20.8819 38.5874 21.6478 40.7193C22.4136 42.8511 23.819 44.6946 25.6718 45.9978C27.5247 47.3009 29.7347 48.0003 32 48.0003C34.2653 48.0003 36.4753 47.3009 38.3282 45.9978C40.181 44.6946 41.5864 42.8511 42.3523 40.7193C43.1181 38.5874 43.2071 36.2711 42.6071 34.0867C42.0071 31.9024 40.7474 29.9565 39 28.515ZM33 39.858V43H31V39.858C30.0573 39.6146 29.2358 39.0358 28.6894 38.23C28.143 37.4242 27.9092 36.4468 28.0319 35.481C28.1546 34.5152 28.6253 33.6273 29.3558 32.9837C30.0863 32.3401 31.0264 31.985 32 31.985C32.9736 31.985 33.9137 32.3401 34.6442 32.9837C35.3747 33.6273 35.8454 34.5152 35.9681 35.481C36.0908 36.4468 35.857 37.4242 35.3106 38.23C34.7642 39.0358 33.9427 39.6146 33 39.858ZM37 27.21C35.4533 26.4148 33.7392 26.0001 32 26.0001C30.2608 26.0001 28.5467 26.4148 27 27.21V23C27 21.6739 27.5268 20.4021 28.4645 19.4645C29.4021 18.5268 30.6739 18 32 18C33.3261 18 34.5979 18.5268 35.5355 19.4645C36.4732 20.4021 37 21.6739 37 23V27.21Z" fill="#93A7B8"/>
</svg>
