<svg width="64" height="64" viewBox="0 0 64 64" fill="none" xmlns="http://www.w3.org/2000/svg">
<circle cx="32" cy="32" r="31.5" fill="#FEFEFE" stroke="#B7C4D0"/>
<path fill-rule="evenodd" clip-rule="evenodd" d="M1 32C1 49.1208 14.8792 63 32 63C49.1208 63 63 49.1208 63 32H1Z" fill="#F6F7F9"/>
<path fill-rule="evenodd" clip-rule="evenodd" d="M38.5 13L48 22.5V49.4167C48 50.2911 47.2837 51 46.4 51H17.6C16.7163 51 16 50.2911 16 49.4167V14.5833C16 13.7089 16.7163 13 17.6 13H38.5Z" fill="#B7C4D0"/>
<circle cx="32" cy="35" r="10" fill="#FBFCFD"/>
<path fill-rule="evenodd" clip-rule="evenodd" d="M30.992 39.0006C30.7265 39.0005 30.4719 38.8951 30.2842 38.7076L27.281 35.7076C26.9016 35.3152 26.9071 34.6915 27.2932 34.3058C27.6793 33.92 28.3037 33.9146 28.6965 34.2936L30.8989 36.4936L35.2075 31.3866C35.547 30.9503 36.1762 30.8715 36.613 31.2106C37.0498 31.5497 37.1286 32.1783 36.7892 32.6146L31.7828 38.6146C31.6067 38.8419 31.3412 38.9825 31.054 39.0006H30.992Z" fill="#B7C4D0"/>
</svg>
