<svg width="110" height="110" viewBox="0 0 110 110" fill="none" xmlns="http://www.w3.org/2000/svg">
<circle cx="55" cy="55" r="55" fill="url(#paint0_linear)"/>
<mask id="mask0" mask-type="alpha" maskUnits="userSpaceOnUse" x="0" y="0" width="110" height="110">
<circle cx="55" cy="55" r="55" fill="white"/>
</mask>
<g mask="url(#mask0)">
<path fill-rule="evenodd" clip-rule="evenodd" d="M3.70654 -0.972717C3.70654 -0.972717 11.037 0.545206 11.037 8.60489C11.037 16.6646 11.037 61.6914 11.037 61.6914C11.037 61.6914 12.6334 68.1577 18.7462 68.1577C24.8591 68.1577 25.9957 61.6914 25.9957 61.6914V28.1934C25.9957 28.1934 27.361 20.4515 33.5976 20.4515C39.8343 20.4515 49.9685 20.4515 49.9685 20.4515V5.97545C49.9685 5.97545 47.4983 -0.972717 42.641 -0.972717C37.7838 -0.972717 3.70654 -0.972717 3.70654 -0.972717Z" fill="#B1EAFF"/>
<path fill-rule="evenodd" clip-rule="evenodd" d="M32.4311 19.9524C32.4311 19.9524 38.9719 22.121 38.9719 29.0629C38.9719 36.0049 39.0382 80.0079 39.0382 80.0079C39.0382 80.0079 39.1279 88.7787 45.83 88.7787C52.5321 88.7787 53.0381 80.0391 53.0381 80.0391H78.0089L77.9426 29.0942C77.9426 29.0942 77.9426 19.9837 70.5953 19.9837C63.248 19.9837 32.4311 19.9524 32.4311 19.9524Z" fill="#B1EAFF"/>
<path fill-rule="evenodd" clip-rule="evenodd" d="M46 40H56V42H46V40ZM46 46H56V48H46V46ZM72 52H46V54H72V52ZM46 58H72V60H46V58ZM72 64H46V66H72V64Z" fill="#0693FF"/>
<path fill-rule="evenodd" clip-rule="evenodd" d="M-11.8165 107.845L20.3835 107.836C20.3835 107.836 28.0098 107.933 28.0098 101.168C28.0098 94.4021 28.0098 67.7621 28.0098 67.7621H16.431C16.431 67.7621 11.0085 66.207 11.0085 60.1726C11.0085 54.1382 11.1382 6.04734 11.1382 6.04734C11.1382 6.04734 9.60281 -1.03296 3.72257 -1.03296C-2.15767 -1.03296 -3.74314 3.04094 -3.74314 6.0803C-3.74314 9.11966 -3.74314 101.177 -3.74314 101.177C-3.74314 101.177 -4.23977 103.976 -6.16516 105.629C-8.09054 107.282 -11.8165 107.845 -11.8165 107.845Z" fill="#0371FF"/>
<path fill-rule="evenodd" clip-rule="evenodd" d="M18 68C18 68 24.357 66.4616 25.5 61.5C26 56 26 28.7399 26 28.7399C26 28.7399 25.6866 20 32 20C38.3134 20 39 26.404 39 28.7399C39 31.0758 39 67.9488 39 67.9488L18 68Z" fill="#0371FF"/>
<path fill-rule="evenodd" clip-rule="evenodd" d="M44.651 89.0208C44.651 89.0208 51.6878 87.1598 53.1564 80.0124C56.4893 80.0034 86.7187 80.0124 86.7187 80.0124C86.7187 80.0124 83.7062 89.0208 78.8212 89.0208C73.9362 89.0208 44.651 89.0208 44.651 89.0208Z" fill="#0371FF"/>
<circle cx="78" cy="49" r="17" fill="url(#paint1_linear)" stroke="white" stroke-width="2"/>
<path d="M83.7193 43.2928C83.3288 42.9024 82.6958 42.9024 82.3053 43.2928L78.0123 47.5858L73.7193 43.2928C73.3269 42.9138 72.7032 42.9192 72.3175 43.305C71.9318 43.6907 71.9263 44.3144 72.3053 44.7068L76.5983 48.9998L72.3053 53.2928C72.0454 53.5439 71.9411 53.9157 72.0326 54.2653C72.1241 54.6149 72.3972 54.888 72.7468 54.9795C73.0964 55.071 73.4682 54.9667 73.7193 54.7068L78.0123 50.4138L82.3053 54.7068C82.6977 55.0858 83.3214 55.0803 83.7071 54.6946C84.0929 54.3089 84.0983 53.6852 83.7193 53.2928L79.4263 48.9998L83.7193 44.7068C84.1097 44.3163 84.1097 43.6833 83.7193 43.2928Z" fill="white"/>
</g>
<defs>
<linearGradient id="paint0_linear" x1="0" y1="55" x2="110" y2="55" gradientUnits="userSpaceOnUse">
<stop stop-color="#F7FAFF"/>
<stop offset="1" stop-color="#F7FAFF"/>
</linearGradient>
<linearGradient id="paint1_linear" x1="-0.917715" y1="46.9528" x2="78.4804" y2="129.532" gradientUnits="userSpaceOnUse">
<stop stop-color="#EC6B3C"/>
<stop offset="1" stop-color="#D5391C"/>
</linearGradient>
</defs>
</svg>
