<svg width="15" height="16" viewBox="0 0 15 16" fill="none" xmlns="http://www.w3.org/2000/svg">
<path fill-rule="evenodd" clip-rule="evenodd" d="M9.13412 12.8297C7.48756 14.4149 4.9148 14.4149 3.26824 12.8297C1.62167 11.2446 1.51876 8.86687 3.16533 7.38081L7.79629 2.9226C8.82539 1.93189 10.472 1.93189 11.3981 2.9226C12.4272 3.91331 12.4272 5.49845 11.3981 6.39009L7.79629 9.95666C7.38464 10.3529 6.76718 10.3529 6.35554 9.95666C5.9439 9.56037 5.9439 8.96594 6.35554 8.56966L9.23703 5.79567L7.69338 4.40867L4.9148 7.08359C3.67988 8.27245 3.67988 10.1548 4.9148 11.2446C6.14972 12.3344 8.10502 12.4334 9.23703 11.2446L12.9418 7.67802C14.7942 5.89474 14.7942 3.12074 12.9418 1.33746C11.0894 -0.44582 8.20793 -0.44582 6.35554 1.33746L1.72458 5.99381C-0.64235 8.27245 -0.53944 11.9381 1.82749 14.2167C3.06242 15.4056 4.60607 16 6.25263 16C7.8992 16 9.44285 15.4056 10.5749 14.2167L15 9.95666L13.5593 8.56966L9.13412 12.8297Z" fill="#6F89A1"/>
</svg>
