<svg width="15" height="15" viewBox="0 0 15 15" fill="none" xmlns="http://www.w3.org/2000/svg">
<circle cx="7.5" cy="7.5" r="6.5" fill="#F9FAFB"/>
<path fill-rule="evenodd" clip-rule="evenodd" d="M15 7.5C15 11.6421 11.6421 15 7.5 15C3.35786 15 0 11.6421 0 7.5C0 3.35786 3.35786 0 7.5 0C11.6421 0 15 3.35786 15 7.5ZM14 7.5C14 11.0899 11.0899 14 7.5 14C3.91015 14 1 11.0899 1 7.5C1 3.91015 3.91015 1 7.5 1C11.0899 1 14 3.91015 14 7.5ZM8 6.08535V3H7V6.08535C6.4174 6.29127 6 6.84689 6 7.5C6 8.32843 6.67157 9 7.5 9C8.15311 9 8.70873 8.5826 8.91465 8H12V7H8.91465C8.764 6.57379 8.42621 6.236 8 6.08535Z" fill="#4B6C89"/>
</svg>
