<svg width="15" height="15" viewBox="0 0 15 15" fill="none" xmlns="http://www.w3.org/2000/svg">
<rect width="15" height="15" fill="#0371FF"/>
<path fill-rule="evenodd" clip-rule="evenodd" d="M7.5 15C10.6066 15 13.2721 13.1112 14.4106 10.4193C14.7901 9.52205 15 8.53553 15 7.5C15 3.35786 11.6421 0 7.5 0C3.35786 0 0 3.35786 0 7.5C0 8.37659 0.150379 9.21805 0.426758 10C1.45635 12.913 4.23445 15 7.5 15ZM14 7.5C14 8.01627 13.9398 8.51848 13.8261 9H7.89103L10.366 4.5L9.50001 4L6.75 9H1.17393C1.06019 8.51848 1 8.01627 1 7.5C1 3.91015 3.91015 1 7.5 1C11.0899 1 14 3.91015 14 7.5Z" fill="white"/>
</svg>
