<svg width="113" height="44" viewBox="0 0 113 44" fill="none" xmlns="http://www.w3.org/2000/svg">
<rect width="113" height="42" fill="url(#paint0_linear)"/>
<path d="M26.1646 21.7056H27.3135V22.9434H26.1646V25H24.6221V22.9434H20.6294L20.585 22.0039L24.5713 15.7578H26.1646V21.7056ZM22.2036 21.7056H24.6221V17.8462L24.5078 18.0493L22.2036 21.7056ZM33.5532 21.7056H34.7021V22.9434H33.5532V25H32.0107V22.9434H28.0181L27.9736 22.0039L31.96 15.7578H33.5532V21.7056ZM29.5923 21.7056H32.0107V17.8462L31.8965 18.0493L29.5923 21.7056ZM38.8154 21.6929H35.4829V20.4487H38.8154V21.6929ZM46.1025 21.6357C46.1025 22.6979 45.8613 23.5464 45.3789 24.1812C44.8965 24.8117 44.249 25.127 43.4365 25.127C42.6833 25.127 42.0802 24.8794 41.6274 24.3843V27.6406H40.085V18.1318H41.5068L41.5703 18.8301C42.0231 18.2799 42.6388 18.0049 43.4175 18.0049C44.2554 18.0049 44.9113 18.318 45.3853 18.9443C45.8634 19.5664 46.1025 20.4318 46.1025 21.5405V21.6357ZM44.5664 21.5024C44.5664 20.8169 44.4289 20.2731 44.1538 19.8711C43.883 19.4691 43.4937 19.2681 42.9858 19.2681C42.3553 19.2681 41.9025 19.5283 41.6274 20.0488V23.0957C41.9067 23.6289 42.3638 23.8955 42.9985 23.8955C43.4894 23.8955 43.8724 23.6987 44.1475 23.3052C44.4268 22.9074 44.5664 22.3065 44.5664 21.5024ZM49.7778 20.3916L51.0854 18.1318H52.7993L50.6982 21.5151L52.8691 25H51.168L49.7969 22.6514L48.4321 25H46.7183L48.8892 21.5151L46.7944 18.1318H48.4956L49.7778 20.3916ZM62.4097 22.8481H58.8296L58.0806 25H56.4111L59.9023 15.7578H61.3433L64.8408 25H63.165L62.4097 22.8481ZM59.2803 21.5532H61.959L60.6196 17.7192L59.2803 21.5532ZM68.5669 23.8955C68.952 23.8955 69.2715 23.7834 69.5254 23.5591C69.7793 23.3348 69.9147 23.0576 69.9316 22.7275H71.3853C71.3683 23.1549 71.235 23.5549 70.9854 23.9272C70.7357 24.2954 70.3971 24.5874 69.9697 24.8032C69.5423 25.019 69.0811 25.127 68.5859 25.127C67.6253 25.127 66.8636 24.8159 66.3008 24.1938C65.738 23.5718 65.4565 22.7127 65.4565 21.6167V21.458C65.4565 20.4128 65.7358 19.577 66.2944 18.9507C66.853 18.3201 67.6147 18.0049 68.5796 18.0049C69.3963 18.0049 70.0607 18.244 70.5728 18.7222C71.089 19.1961 71.3599 19.8203 71.3853 20.5947H69.9316C69.9147 20.2012 69.7793 19.8774 69.5254 19.6235C69.2757 19.3696 68.9562 19.2427 68.5669 19.2427C68.0675 19.2427 67.6825 19.4246 67.4116 19.7886C67.1408 20.1483 67.0033 20.6963 66.999 21.4326V21.6802C66.999 22.425 67.1323 22.9814 67.3989 23.3496C67.6698 23.7135 68.0591 23.8955 68.5669 23.8955ZM74.4829 16.4624V18.1318H75.6953V19.2744H74.4829V23.1084C74.4829 23.3708 74.5337 23.5612 74.6353 23.6797C74.741 23.7939 74.9272 23.8511 75.1938 23.8511C75.3716 23.8511 75.5514 23.8299 75.7334 23.7876V24.981C75.3822 25.0783 75.0436 25.127 74.7178 25.127C73.5329 25.127 72.9404 24.4731 72.9404 23.1655V19.2744H71.8105V18.1318H72.9404V16.4624H74.4829ZM78.52 25H76.9775V18.1318H78.52V25ZM76.8823 16.3481C76.8823 16.1112 76.9564 15.9144 77.1045 15.7578C77.2568 15.6012 77.4727 15.5229 77.752 15.5229C78.0312 15.5229 78.2471 15.6012 78.3994 15.7578C78.5518 15.9144 78.6279 16.1112 78.6279 16.3481C78.6279 16.5809 78.5518 16.7756 78.3994 16.9321C78.2471 17.0845 78.0312 17.1606 77.752 17.1606C77.4727 17.1606 77.2568 17.0845 77.1045 16.9321C76.9564 16.7756 76.8823 16.5809 76.8823 16.3481ZM82.627 23.0449L84.0806 18.1318H85.6738L83.2935 25H81.9541L79.5547 18.1318H81.1543L82.627 23.0449ZM89.5776 25.127C88.6001 25.127 87.8066 24.8201 87.1973 24.2065C86.5921 23.5887 86.2896 22.7677 86.2896 21.7437V21.5532C86.2896 20.8677 86.4207 20.2562 86.6831 19.7188C86.9497 19.1771 87.3221 18.756 87.8003 18.4556C88.2785 18.1551 88.8117 18.0049 89.3999 18.0049C90.3351 18.0049 91.0566 18.3032 91.5645 18.8999C92.0765 19.4966 92.3325 20.3408 92.3325 21.4326V22.0547H87.8447C87.8913 22.6217 88.0796 23.0703 88.4097 23.4004C88.744 23.7305 89.1629 23.8955 89.6665 23.8955C90.3732 23.8955 90.9487 23.6099 91.3931 23.0386L92.2246 23.832C91.9495 24.2425 91.5814 24.562 91.1201 24.7905C90.6631 25.0148 90.1489 25.127 89.5776 25.127ZM89.3936 19.2427C88.9704 19.2427 88.6276 19.3908 88.3652 19.687C88.1071 19.9832 87.9421 20.3958 87.8701 20.9248H90.8091V20.8105C90.7752 20.2943 90.6377 19.9049 90.3965 19.6426C90.1553 19.376 89.821 19.2427 89.3936 19.2427Z" fill="#0371FF"/>
<path fill-rule="evenodd" clip-rule="evenodd" d="M0 42H113V44H0V42Z" fill="#0371FF"/>
<defs>
<linearGradient id="paint0_linear" x1="0" y1="21" x2="113" y2="21" gradientUnits="userSpaceOnUse">
<stop stop-color="#F7FAFF"/>
<stop offset="1" stop-color="#F7FAFF"/>
</linearGradient>
</defs>
</svg>
