<svg width="14" height="14" viewBox="0 0 14 14" fill="none" xmlns="http://www.w3.org/2000/svg">
<path fill-rule="evenodd" clip-rule="evenodd" d="M14 7C14 10.866 10.866 14 7 14C3.13401 14 0 10.866 0 7C0 3.13401 3.13401 0 7 0C10.866 0 14 3.13401 14 7ZM13 7C13 10.3137 10.3137 13 7 13C3.68629 13 1 10.3137 1 7C1 3.68629 3.68629 1 7 1C10.3137 1 13 3.68629 13 7ZM5.28071 10.7076C5.4682 10.8951 5.72252 11.0005 5.98771 11.0006H6.04971C6.33658 10.9825 6.6018 10.8419 6.77771 10.6146L10.7777 5.61459C11.1168 5.17829 11.038 4.5497 10.6017 4.21059C10.1654 3.87149 9.53681 3.95029 9.19771 4.38659L5.89471 8.49359L4.69471 7.29359C4.30233 6.91462 3.67863 6.92004 3.29289 7.30578C2.90716 7.69151 2.90174 8.31522 3.28071 8.70759L5.28071 10.7076Z" fill="#4B6C89"/>
</svg>
