<svg width="184" height="173" viewBox="0 0 184 173" fill="none" xmlns="http://www.w3.org/2000/svg">
<g filter="url(#filter0_d)">
<path fill-rule="evenodd" clip-rule="evenodd" d="M90.4815 82.2284C91.2797 83.1596 92.7203 83.1596 93.5185 82.2284L104 70L80 70L90.4815 82.2284Z" fill="#202020"/>
</g>
<rect x="41" y="52" width="103" height="25" rx="4" fill="#202020"/>
<path d="M59.6021 60.1797V65.4058C59.6021 66.2365 59.3353 66.8953 58.8018 67.3823C58.2718 67.8657 57.5646 68.1074 56.6802 68.1074C55.785 68.1074 55.0742 67.8693 54.5479 67.3931C54.0215 66.9132 53.7583 66.249 53.7583 65.4004V60.1797H55.1118V65.4111C55.1118 65.9339 55.2443 66.3332 55.5093 66.6089C55.7743 66.8846 56.1646 67.0225 56.6802 67.0225C57.7257 67.0225 58.2485 66.471 58.2485 65.3682V60.1797H59.6021ZM66.0205 65.1533C66.0205 66.0521 65.8164 66.77 65.4082 67.3071C65 67.8407 64.4521 68.1074 63.7646 68.1074C63.1273 68.1074 62.617 67.8979 62.2339 67.479V70.2344H60.9287V62.1885H62.1318L62.1855 62.7793C62.5687 62.3138 63.0897 62.0811 63.7485 62.0811C64.4575 62.0811 65.0125 62.346 65.4136 62.876C65.8182 63.4023 66.0205 64.1346 66.0205 65.0728V65.1533ZM64.7207 65.0405C64.7207 64.4604 64.6043 64.0003 64.3716 63.6602C64.1424 63.32 63.813 63.1499 63.3833 63.1499C62.8498 63.1499 62.4666 63.3701 62.2339 63.8105V66.3887C62.4702 66.8398 62.8569 67.0654 63.394 67.0654C63.8094 67.0654 64.1335 66.8989 64.3662 66.5659C64.6025 66.2293 64.7207 65.7209 64.7207 65.0405ZM66.8853 65.0513C66.8853 64.1561 67.0929 63.4382 67.5083 62.8975C67.9237 62.3532 68.4805 62.0811 69.1787 62.0811C69.7946 62.0811 70.2923 62.2959 70.6719 62.7256V59.75H71.9771V68H70.7954L70.731 67.3984C70.3407 67.8711 69.8197 68.1074 69.168 68.1074C68.4876 68.1074 67.9362 67.8335 67.5137 67.2856C67.0947 66.7378 66.8853 65.993 66.8853 65.0513ZM68.1904 65.1641C68.1904 65.7549 68.3032 66.2168 68.5288 66.5498C68.758 66.8792 69.082 67.0439 69.501 67.0439C70.0345 67.0439 70.4248 66.8058 70.6719 66.3296V63.8481C70.432 63.3826 70.0452 63.1499 69.5117 63.1499C69.0892 63.1499 68.7633 63.3182 68.5342 63.6548C68.305 63.9878 68.1904 64.4909 68.1904 65.1641ZM76.811 68C76.7537 67.889 76.7036 67.7082 76.6606 67.4575C76.2453 67.8908 75.7368 68.1074 75.1353 68.1074C74.5516 68.1074 74.0754 67.9409 73.7065 67.6079C73.3377 67.2749 73.1533 66.8631 73.1533 66.3726C73.1533 65.7531 73.3825 65.2786 73.8408 64.9492C74.3027 64.6162 74.9616 64.4497 75.8174 64.4497H76.6177V64.0684C76.6177 63.7676 76.5335 63.5277 76.3652 63.3486C76.1969 63.166 75.9409 63.0747 75.5972 63.0747C75.3 63.0747 75.0565 63.1499 74.8667 63.3003C74.6769 63.4471 74.582 63.6351 74.582 63.8643H73.2769C73.2769 63.5456 73.3825 63.2484 73.5938 62.9727C73.805 62.6934 74.0915 62.4749 74.4531 62.3174C74.8184 62.1598 75.2248 62.0811 75.6724 62.0811C76.3527 62.0811 76.8952 62.2529 77.2998 62.5967C77.7044 62.9368 77.9121 63.4167 77.9229 64.0361V66.6572C77.9229 67.18 77.9963 67.5972 78.1431 67.9087V68H76.811ZM75.377 67.0601C75.6348 67.0601 75.8765 66.9974 76.1021 66.8721C76.3312 66.7467 76.5031 66.5785 76.6177 66.3672V65.2715H75.9141C75.4307 65.2715 75.0672 65.3556 74.8237 65.5239C74.5802 65.6922 74.4585 65.9303 74.4585 66.2383C74.4585 66.4889 74.5409 66.6895 74.7056 66.8398C74.8739 66.9867 75.0977 67.0601 75.377 67.0601ZM80.9253 60.7759V62.1885H81.9512V63.1553H80.9253V66.3994C80.9253 66.6214 80.9683 66.7826 81.0542 66.8828C81.1437 66.9795 81.3013 67.0278 81.5269 67.0278C81.6772 67.0278 81.8294 67.0099 81.9834 66.9741V67.9839C81.6862 68.0662 81.3997 68.1074 81.124 68.1074C80.1214 68.1074 79.6201 67.5542 79.6201 66.4478V63.1553H78.6641V62.1885H79.6201V60.7759H80.9253ZM84.3413 68H83.0361V62.1885H84.3413V68ZM82.9556 60.6792C82.9556 60.4787 83.0182 60.3122 83.1436 60.1797C83.2725 60.0472 83.4551 59.981 83.6914 59.981C83.9277 59.981 84.1104 60.0472 84.2393 60.1797C84.3682 60.3122 84.4326 60.4787 84.4326 60.6792C84.4326 60.8761 84.3682 61.0409 84.2393 61.1733C84.1104 61.3022 83.9277 61.3667 83.6914 61.3667C83.4551 61.3667 83.2725 61.3022 83.1436 61.1733C83.0182 61.0409 82.9556 60.8761 82.9556 60.6792ZM86.9785 62.1885L87.0161 62.8599C87.4458 62.3407 88.0098 62.0811 88.708 62.0811C89.9183 62.0811 90.5342 62.7739 90.5557 64.1597V68H89.2505V64.2349C89.2505 63.866 89.1699 63.5939 89.0088 63.4185C88.8512 63.2394 88.5916 63.1499 88.23 63.1499C87.7036 63.1499 87.3115 63.388 87.0537 63.8643V68H85.7485V62.1885H86.9785ZM91.6621 65.0513C91.6621 64.1489 91.8734 63.4292 92.2959 62.8921C92.722 62.3514 93.286 62.0811 93.9878 62.0811C94.6502 62.0811 95.1712 62.312 95.5508 62.7739L95.6099 62.1885H96.7861V67.8228C96.7861 68.5854 96.548 69.187 96.0718 69.6274C95.5991 70.0679 94.96 70.2881 94.1543 70.2881C93.7282 70.2881 93.311 70.1986 92.9028 70.0195C92.4982 69.8441 92.1903 69.6131 91.979 69.3267L92.5967 68.5425C92.9977 69.0187 93.4919 69.2568 94.0791 69.2568C94.5124 69.2568 94.8543 69.1387 95.105 68.9023C95.3556 68.6696 95.481 68.3258 95.481 67.8711V67.479C95.105 67.8979 94.6037 68.1074 93.9771 68.1074C93.2967 68.1074 92.7399 67.8371 92.3066 67.2964C91.877 66.7557 91.6621 66.0073 91.6621 65.0513ZM92.9619 65.1641C92.9619 65.7477 93.0801 66.2078 93.3164 66.5444C93.5563 66.8774 93.8875 67.0439 94.3101 67.0439C94.8364 67.0439 95.2267 66.8184 95.481 66.3672V63.8105C95.2339 63.3701 94.8472 63.1499 94.3208 63.1499C93.8911 63.1499 93.5563 63.32 93.3164 63.6602C93.0801 64.0003 92.9619 64.5016 92.9619 65.1641ZM105.084 65.9858C105.084 65.6421 104.963 65.3771 104.719 65.1909C104.479 65.0047 104.044 64.8167 103.414 64.627C102.784 64.4372 102.283 64.2259 101.91 63.9932C101.198 63.5456 100.841 62.9619 100.841 62.2422C100.841 61.612 101.097 61.0928 101.609 60.6846C102.125 60.2764 102.793 60.0723 103.613 60.0723C104.157 60.0723 104.642 60.1725 105.068 60.373C105.494 60.5736 105.829 60.86 106.073 61.2324C106.316 61.6012 106.438 62.0112 106.438 62.4624H105.084C105.084 62.0542 104.956 61.7355 104.698 61.5063C104.444 61.2736 104.078 61.1572 103.602 61.1572C103.158 61.1572 102.812 61.2521 102.565 61.4419C102.322 61.6317 102.2 61.8966 102.2 62.2368C102.2 62.5233 102.333 62.7632 102.598 62.9565C102.863 63.1463 103.299 63.3325 103.908 63.5151C104.517 63.6942 105.006 63.9001 105.375 64.1328C105.743 64.362 106.014 64.627 106.186 64.9277C106.357 65.2249 106.443 65.5741 106.443 65.9751C106.443 66.6268 106.193 67.146 105.691 67.5327C105.194 67.9159 104.517 68.1074 103.661 68.1074C103.095 68.1074 102.574 68.0036 102.098 67.7959C101.625 67.5846 101.257 67.2946 100.992 66.9258C100.73 66.557 100.6 66.1273 100.6 65.6367H101.958C101.958 66.0807 102.105 66.4245 102.399 66.668C102.693 66.9115 103.113 67.0332 103.661 67.0332C104.134 67.0332 104.488 66.9383 104.725 66.7485C104.965 66.5552 105.084 66.3009 105.084 65.9858ZM109.145 60.7759V62.1885H110.171V63.1553H109.145V66.3994C109.145 66.6214 109.188 66.7826 109.274 66.8828C109.363 66.9795 109.521 67.0278 109.747 67.0278C109.897 67.0278 110.049 67.0099 110.203 66.9741V67.9839C109.906 68.0662 109.619 68.1074 109.344 68.1074C108.341 68.1074 107.84 67.5542 107.84 66.4478V63.1553H106.884V62.1885H107.84V60.7759H109.145ZM114.645 68C114.588 67.889 114.538 67.7082 114.495 67.4575C114.079 67.8908 113.571 68.1074 112.969 68.1074C112.386 68.1074 111.909 67.9409 111.541 67.6079C111.172 67.2749 110.987 66.8631 110.987 66.3726C110.987 65.7531 111.216 65.2786 111.675 64.9492C112.137 64.6162 112.796 64.4497 113.651 64.4497H114.452V64.0684C114.452 63.7676 114.368 63.5277 114.199 63.3486C114.031 63.166 113.775 63.0747 113.431 63.0747C113.134 63.0747 112.89 63.1499 112.701 63.3003C112.511 63.4471 112.416 63.6351 112.416 63.8643H111.111C111.111 63.5456 111.216 63.2484 111.428 62.9727C111.639 62.6934 111.925 62.4749 112.287 62.3174C112.652 62.1598 113.059 62.0811 113.506 62.0811C114.187 62.0811 114.729 62.2529 115.134 62.5967C115.538 62.9368 115.746 63.4167 115.757 64.0361V66.6572C115.757 67.18 115.83 67.5972 115.977 67.9087V68H114.645ZM113.211 67.0601C113.469 67.0601 113.71 66.9974 113.936 66.8721C114.165 66.7467 114.337 66.5785 114.452 66.3672V65.2715H113.748C113.265 65.2715 112.901 65.3556 112.658 65.5239C112.414 65.6922 112.292 65.9303 112.292 66.2383C112.292 66.4889 112.375 66.6895 112.54 66.8398C112.708 66.9867 112.932 67.0601 113.211 67.0601ZM118.759 60.7759V62.1885H119.785V63.1553H118.759V66.3994C118.759 66.6214 118.802 66.7826 118.888 66.8828C118.978 66.9795 119.135 67.0278 119.361 67.0278C119.511 67.0278 119.663 67.0099 119.817 66.9741V67.9839C119.52 68.0662 119.234 68.1074 118.958 68.1074C117.955 68.1074 117.454 67.5542 117.454 66.4478V63.1553H116.498V62.1885H117.454V60.7759H118.759ZM124.308 67.4307C123.924 67.8818 123.38 68.1074 122.675 68.1074C122.045 68.1074 121.567 67.923 121.241 67.5542C120.918 67.1854 120.757 66.6519 120.757 65.9536V62.1885H122.062V65.9375C122.062 66.6751 122.369 67.0439 122.981 67.0439C123.615 67.0439 124.043 66.8166 124.265 66.3618V62.1885H125.57V68H124.34L124.308 67.4307ZM130.157 66.4209C130.157 66.1882 130.06 66.0109 129.867 65.8892C129.677 65.7674 129.36 65.66 128.916 65.5669C128.472 65.4738 128.101 65.3556 127.804 65.2124C127.153 64.8973 126.827 64.4408 126.827 63.8428C126.827 63.3415 127.038 62.9225 127.46 62.5859C127.883 62.2493 128.42 62.0811 129.072 62.0811C129.766 62.0811 130.327 62.2529 130.753 62.5967C131.183 62.9404 131.397 63.3862 131.397 63.9341H130.092C130.092 63.6834 129.999 63.4757 129.813 63.311C129.627 63.1427 129.38 63.0586 129.072 63.0586C128.785 63.0586 128.551 63.1248 128.368 63.2573C128.189 63.3898 128.1 63.5671 128.1 63.7891C128.1 63.9896 128.184 64.1453 128.352 64.2563C128.52 64.3674 128.861 64.4801 129.373 64.5947C129.885 64.7057 130.286 64.84 130.576 64.9976C130.869 65.1515 131.086 65.3377 131.226 65.5562C131.369 65.7746 131.44 66.0396 131.44 66.3511C131.44 66.8739 131.224 67.2982 130.791 67.624C130.357 67.9463 129.79 68.1074 129.088 68.1074C128.612 68.1074 128.187 68.0215 127.815 67.8496C127.443 67.6777 127.153 67.4414 126.945 67.1406C126.737 66.8398 126.633 66.5158 126.633 66.1685H127.901C127.919 66.4764 128.035 66.7145 128.25 66.8828C128.465 67.0475 128.75 67.1299 129.104 67.1299C129.448 67.1299 129.709 67.0654 129.888 66.9365C130.067 66.804 130.157 66.6322 130.157 66.4209Z" fill="#F6F6F6"/>
<defs>
<filter id="filter0_d" x="0" y="0" width="184" height="172.927" filterUnits="userSpaceOnUse" color-interpolation-filters="sRGB">
<feFlood flood-opacity="0" result="BackgroundImageFix"/>
<feColorMatrix in="SourceAlpha" type="matrix" values="0 0 0 0 0 0 0 0 0 0 0 0 0 0 0 0 0 0 127 0"/>
<feOffset dy="10"/>
<feGaussianBlur stdDeviation="40"/>
<feColorMatrix type="matrix" values="0 0 0 0 0 0 0 0 0 0 0 0 0 0 0 0 0 0 0.25 0"/>
<feBlend mode="normal" in2="BackgroundImageFix" result="effect1_dropShadow"/>
<feBlend mode="normal" in="SourceGraphic" in2="effect1_dropShadow" result="shape"/>
</filter>
</defs>
</svg>
