<svg width="452" height="52" viewBox="0 0 452 52" fill="none" xmlns="http://www.w3.org/2000/svg">
<rect x="0.5" y="20.5" width="451" height="31" rx="3.5" fill="white"/>
<path d="M16.0879 36.5635C14.9622 36.2399 14.1419 35.8434 13.627 35.374C13.1165 34.9001 12.8613 34.3167 12.8613 33.624C12.8613 32.8402 13.1735 32.193 13.7979 31.6826C14.4268 31.1676 15.2425 30.9102 16.2451 30.9102C16.9287 30.9102 17.5371 31.0423 18.0703 31.3066C18.6081 31.571 19.0228 31.9355 19.3145 32.4004C19.6107 32.8652 19.7588 33.3734 19.7588 33.9248H18.4395C18.4395 33.3232 18.248 32.8516 17.8652 32.5098C17.4824 32.1634 16.9424 31.9902 16.2451 31.9902C15.598 31.9902 15.0921 32.1338 14.7275 32.4209C14.3675 32.7035 14.1875 33.0977 14.1875 33.6035C14.1875 34.0091 14.3584 34.3532 14.7002 34.6357C15.0465 34.9137 15.6322 35.1689 16.457 35.4014C17.2865 35.6338 17.9336 35.8913 18.3984 36.1738C18.8678 36.4518 19.2142 36.7777 19.4375 37.1514C19.6654 37.5251 19.7793 37.9648 19.7793 38.4707C19.7793 39.2773 19.4648 39.9245 18.8359 40.4121C18.207 40.8952 17.3662 41.1367 16.3135 41.1367C15.6299 41.1367 14.9919 41.0068 14.3994 40.7471C13.807 40.4827 13.349 40.1227 13.0254 39.667C12.7064 39.2113 12.5469 38.694 12.5469 38.1152H13.8662C13.8662 38.7168 14.0872 39.193 14.5293 39.5439C14.9759 39.8903 15.5706 40.0635 16.3135 40.0635C17.0062 40.0635 17.5371 39.9222 17.9062 39.6396C18.2754 39.3571 18.46 38.972 18.46 38.4844C18.46 37.9967 18.2891 37.6208 17.9473 37.3564C17.6055 37.0876 16.9857 36.8232 16.0879 36.5635ZM25.8359 41C25.763 40.8542 25.7038 40.5944 25.6582 40.2207C25.0703 40.8314 24.3685 41.1367 23.5527 41.1367C22.8236 41.1367 22.2243 40.9316 21.7549 40.5215C21.29 40.1068 21.0576 39.5827 21.0576 38.9492C21.0576 38.179 21.3493 37.582 21.9326 37.1582C22.5205 36.7298 23.3454 36.5156 24.4072 36.5156H25.6377V35.9346C25.6377 35.4925 25.5055 35.1416 25.2412 34.8818C24.9769 34.6175 24.5872 34.4854 24.0723 34.4854C23.6211 34.4854 23.2428 34.5993 22.9375 34.8271C22.6322 35.055 22.4795 35.3307 22.4795 35.6543H21.208C21.208 35.2852 21.3379 34.9297 21.5977 34.5879C21.862 34.2415 22.2174 33.9681 22.6641 33.7676C23.1152 33.5671 23.6097 33.4668 24.1475 33.4668C24.9997 33.4668 25.6673 33.681 26.1504 34.1094C26.6335 34.5332 26.8841 35.1188 26.9023 35.8662V39.2705C26.9023 39.9495 26.9889 40.4896 27.1621 40.8906V41H25.8359ZM23.7373 40.0361C24.1338 40.0361 24.5098 39.9336 24.8652 39.7285C25.2207 39.5234 25.4782 39.2568 25.6377 38.9287V37.4111H24.6465C23.097 37.4111 22.3223 37.8646 22.3223 38.7715C22.3223 39.168 22.4544 39.4779 22.7188 39.7012C22.9831 39.9245 23.3226 40.0361 23.7373 40.0361ZM33.4512 40.2686C32.959 40.8473 32.2367 41.1367 31.2842 41.1367C30.4958 41.1367 29.8942 40.9089 29.4795 40.4531C29.0693 39.9928 28.862 39.3138 28.8574 38.416V33.6035H30.1221V38.3818C30.1221 39.5029 30.5778 40.0635 31.4893 40.0635C32.4554 40.0635 33.098 39.7035 33.417 38.9834V33.6035H34.6816V41H33.4785L33.4512 40.2686ZM36.3018 37.2402C36.3018 36.1055 36.5706 35.194 37.1084 34.5059C37.6462 33.8132 38.3503 33.4668 39.2207 33.4668C40.0866 33.4668 40.7725 33.763 41.2783 34.3555V30.5H42.543V41H41.3809L41.3193 40.207C40.8135 40.8268 40.1094 41.1367 39.207 41.1367C38.3503 41.1367 37.6507 40.7858 37.1084 40.084C36.5706 39.3822 36.3018 38.4661 36.3018 37.3359V37.2402ZM37.5664 37.3838C37.5664 38.2223 37.7396 38.8786 38.0859 39.3525C38.4323 39.8265 38.9108 40.0635 39.5215 40.0635C40.3236 40.0635 40.9092 39.7035 41.2783 38.9834V35.5859C40.9001 34.8887 40.319 34.54 39.5352 34.54C38.9154 34.54 38.4323 34.7793 38.0859 35.2578C37.7396 35.7363 37.5664 36.445 37.5664 37.3838ZM45.8857 41H44.6211V33.6035H45.8857V41ZM44.5186 31.6416C44.5186 31.4365 44.5801 31.2633 44.7031 31.1221C44.8307 30.9808 45.0176 30.9102 45.2637 30.9102C45.5098 30.9102 45.6966 30.9808 45.8242 31.1221C45.9518 31.2633 46.0156 31.4365 46.0156 31.6416C46.0156 31.8467 45.9518 32.0176 45.8242 32.1543C45.6966 32.291 45.5098 32.3594 45.2637 32.3594C45.0176 32.3594 44.8307 32.291 44.7031 32.1543C44.5801 32.0176 44.5186 31.8467 44.5186 31.6416ZM57.083 38.4023H52.9131L51.9766 41H50.623L54.4238 31.0469H55.5723L59.3799 41H58.0332L57.083 38.4023ZM53.3096 37.3223H56.6934L54.998 32.667L53.3096 37.3223ZM64.0967 34.7383C63.9053 34.7064 63.6979 34.6904 63.4746 34.6904C62.6452 34.6904 62.0824 35.0436 61.7861 35.75V41H60.5215V33.6035H61.752L61.7725 34.458C62.1872 33.7972 62.7751 33.4668 63.5361 33.4668C63.7822 33.4668 63.9691 33.4987 64.0967 33.5625V34.7383ZM69.5586 41C69.4857 40.8542 69.4264 40.5944 69.3809 40.2207C68.793 40.8314 68.0911 41.1367 67.2754 41.1367C66.5462 41.1367 65.9469 40.9316 65.4775 40.5215C65.0127 40.1068 64.7803 39.5827 64.7803 38.9492C64.7803 38.179 65.0719 37.582 65.6553 37.1582C66.2432 36.7298 67.068 36.5156 68.1299 36.5156H69.3604V35.9346C69.3604 35.4925 69.2282 35.1416 68.9639 34.8818C68.6995 34.6175 68.3099 34.4854 67.7949 34.4854C67.3438 34.4854 66.9655 34.5993 66.6602 34.8271C66.3548 35.055 66.2021 35.3307 66.2021 35.6543H64.9307C64.9307 35.2852 65.0605 34.9297 65.3203 34.5879C65.5846 34.2415 65.9401 33.9681 66.3867 33.7676C66.8379 33.5671 67.3324 33.4668 67.8701 33.4668C68.7223 33.4668 69.39 33.681 69.873 34.1094C70.3561 34.5332 70.6068 35.1188 70.625 35.8662V39.2705C70.625 39.9495 70.7116 40.4896 70.8848 40.8906V41H69.5586ZM67.46 40.0361C67.8564 40.0361 68.2324 39.9336 68.5879 39.7285C68.9434 39.5234 69.2008 39.2568 69.3604 38.9287V37.4111H68.3691C66.8197 37.4111 66.0449 37.8646 66.0449 38.7715C66.0449 39.168 66.1771 39.4779 66.4414 39.7012C66.7057 39.9245 67.0452 40.0361 67.46 40.0361ZM78.8691 37.3838C78.8691 38.514 78.6094 39.4232 78.0898 40.1113C77.5703 40.7949 76.873 41.1367 75.998 41.1367C75.0638 41.1367 74.3415 40.8063 73.8311 40.1455L73.7695 41H72.6074V30.5H73.8721V34.417C74.3825 33.7835 75.0866 33.4668 75.9844 33.4668C76.8822 33.4668 77.5863 33.8063 78.0967 34.4854C78.6117 35.1644 78.8691 36.0941 78.8691 37.2744V37.3838ZM77.6045 37.2402C77.6045 36.3789 77.4382 35.7135 77.1055 35.2441C76.7728 34.7747 76.2943 34.54 75.6699 34.54C74.8359 34.54 74.2367 34.9274 73.8721 35.7021V38.9014C74.2594 39.6761 74.8633 40.0635 75.6836 40.0635C76.2897 40.0635 76.7614 39.8288 77.0986 39.3594C77.4359 38.89 77.6045 38.1836 77.6045 37.2402ZM81.8428 41H80.5781V33.6035H81.8428V41ZM80.4756 31.6416C80.4756 31.4365 80.5371 31.2633 80.6602 31.1221C80.7878 30.9808 80.9746 30.9102 81.2207 30.9102C81.4668 30.9102 81.6536 30.9808 81.7812 31.1221C81.9089 31.2633 81.9727 31.4365 81.9727 31.6416C81.9727 31.8467 81.9089 32.0176 81.7812 32.1543C81.6536 32.291 81.4668 32.3594 81.2207 32.3594C80.9746 32.3594 80.7878 32.291 80.6602 32.1543C80.5371 32.0176 80.4756 31.8467 80.4756 31.6416ZM88.4395 41C88.3665 40.8542 88.3073 40.5944 88.2617 40.2207C87.6738 40.8314 86.972 41.1367 86.1562 41.1367C85.4271 41.1367 84.8278 40.9316 84.3584 40.5215C83.8936 40.1068 83.6611 39.5827 83.6611 38.9492C83.6611 38.179 83.9528 37.582 84.5361 37.1582C85.124 36.7298 85.9489 36.5156 87.0107 36.5156H88.2412V35.9346C88.2412 35.4925 88.109 35.1416 87.8447 34.8818C87.5804 34.6175 87.1908 34.4854 86.6758 34.4854C86.2246 34.4854 85.8464 34.5993 85.541 34.8271C85.2357 35.055 85.083 35.3307 85.083 35.6543H83.8115C83.8115 35.2852 83.9414 34.9297 84.2012 34.5879C84.4655 34.2415 84.821 33.9681 85.2676 33.7676C85.7188 33.5671 86.2132 33.4668 86.751 33.4668C87.6032 33.4668 88.2708 33.681 88.7539 34.1094C89.237 34.5332 89.4876 35.1188 89.5059 35.8662V39.2705C89.5059 39.9495 89.5924 40.4896 89.7656 40.8906V41H88.4395ZM86.3408 40.0361C86.7373 40.0361 87.1133 39.9336 87.4688 39.7285C87.8242 39.5234 88.0817 39.2568 88.2412 38.9287V37.4111H87.25C85.7005 37.4111 84.9258 37.8646 84.9258 38.7715C84.9258 39.168 85.0579 39.4779 85.3223 39.7012C85.5866 39.9245 85.9261 40.0361 86.3408 40.0361Z" fill="#404040"/>
<path fill-rule="evenodd" clip-rule="evenodd" d="M438.633 34.6402C439.176 33.9889 438.713 33 437.865 33H432.135C431.287 33 430.824 33.9889 431.367 34.6402L434.232 38.0781C434.632 38.5579 435.368 38.5579 435.768 38.0781L438.633 34.6402Z" fill="#4B6C89"/>
<rect x="0.5" y="20.5" width="451" height="31" rx="3.5" stroke="#0371FF"/>
<path d="M5.70117 8.77344H2.12695L1.32422 11H0.164062L3.42188 2.46875H4.40625L7.66992 11H6.51562L5.70117 8.77344ZM2.4668 7.84766H5.36719L3.91406 3.85742L2.4668 7.84766ZM11.1914 10.2324C11.5781 10.2324 11.916 10.1152 12.2051 9.88086C12.4941 9.64648 12.6543 9.35352 12.6855 9.00195H13.7109C13.6914 9.36523 13.5664 9.71094 13.3359 10.0391C13.1055 10.3672 12.7969 10.6289 12.4102 10.8242C12.0273 11.0195 11.6211 11.1172 11.1914 11.1172C10.3281 11.1172 9.64062 10.8301 9.12891 10.2559C8.62109 9.67773 8.36719 8.88867 8.36719 7.88867V7.70703C8.36719 7.08984 8.48047 6.54102 8.70703 6.06055C8.93359 5.58008 9.25781 5.20703 9.67969 4.94141C10.1055 4.67578 10.6074 4.54297 11.1855 4.54297C11.8965 4.54297 12.4863 4.75586 12.9551 5.18164C13.4277 5.60742 13.6797 6.16016 13.7109 6.83984H12.6855C12.6543 6.42969 12.498 6.09375 12.2168 5.83203C11.9395 5.56641 11.5957 5.43359 11.1855 5.43359C10.6348 5.43359 10.207 5.63281 9.90234 6.03125C9.60156 6.42578 9.45117 6.99805 9.45117 7.74805V7.95312C9.45117 8.68359 9.60156 9.24609 9.90234 9.64062C10.2031 10.0352 10.6328 10.2324 11.1914 10.2324ZM16.4004 3.125V4.66016H17.584V5.49805H16.4004V9.42969C16.4004 9.68359 16.4531 9.875 16.5586 10.0039C16.6641 10.1289 16.8438 10.1914 17.0977 10.1914C17.2227 10.1914 17.3945 10.168 17.6133 10.1211V11C17.3281 11.0781 17.0508 11.1172 16.7812 11.1172C16.2969 11.1172 15.9316 10.9707 15.6855 10.6777C15.4395 10.3848 15.3164 9.96875 15.3164 9.42969V5.49805H14.1621V4.66016H15.3164V3.125H16.4004ZM20.0332 11H18.9492V4.66016H20.0332V11ZM18.8613 2.97852C18.8613 2.80273 18.9141 2.6543 19.0195 2.5332C19.1289 2.41211 19.2891 2.35156 19.5 2.35156C19.7109 2.35156 19.8711 2.41211 19.9805 2.5332C20.0898 2.6543 20.1445 2.80273 20.1445 2.97852C20.1445 3.1543 20.0898 3.30078 19.9805 3.41797C19.8711 3.53516 19.7109 3.59375 19.5 3.59375C19.2891 3.59375 19.1289 3.53516 19.0195 3.41797C18.9141 3.30078 18.8613 3.1543 18.8613 2.97852ZM23.8652 9.5293L25.4355 4.66016H26.543L24.2695 11H23.4434L21.1465 4.66016H22.2539L23.8652 9.5293ZM30.1348 11.1172C29.2754 11.1172 28.5762 10.8359 28.0371 10.2734C27.498 9.70703 27.2285 8.95117 27.2285 8.00586V7.80664C27.2285 7.17773 27.3477 6.61719 27.5859 6.125C27.8281 5.62891 28.1641 5.24219 28.5938 4.96484C29.0273 4.68359 29.4961 4.54297 30 4.54297C30.8242 4.54297 31.4648 4.81445 31.9219 5.35742C32.3789 5.90039 32.6074 6.67773 32.6074 7.68945V8.14062H28.3125C28.3281 8.76562 28.5098 9.27148 28.8574 9.6582C29.209 10.041 29.6543 10.2324 30.1934 10.2324C30.5762 10.2324 30.9004 10.1543 31.166 9.99805C31.4316 9.8418 31.6641 9.63477 31.8633 9.37695L32.5254 9.89258C31.9941 10.709 31.1973 11.1172 30.1348 11.1172ZM30 5.43359C29.5625 5.43359 29.1953 5.59375 28.8984 5.91406C28.6016 6.23047 28.418 6.67578 28.3477 7.25H31.5234V7.16797C31.4922 6.61719 31.3438 6.19141 31.0781 5.89062C30.8125 5.58594 30.4531 5.43359 30 5.43359Z" fill="#6F89A1"/>
</svg>
