<svg width="320" height="32" viewBox="0 0 320 32" fill="none" xmlns="http://www.w3.org/2000/svg">
<path d="M0 16C0 7.16344 7.16344 0 16 0H304C312.837 0 320 7.16344 320 16V16C320 24.8366 312.837 32 304 32H16C7.16345 32 0 24.8366 0 16V16Z" fill="white"/>
<path d="M37.8506 11.0469L41.1045 19.168L44.3584 11.0469H46.0605V21H44.748V17.124L44.8711 12.9404L41.6035 21H40.5986L37.3379 12.9609L37.4678 17.124V21H36.1553V11.0469H37.8506ZM47.8447 17.2334C47.8447 16.5088 47.986 15.8571 48.2686 15.2783C48.5557 14.6995 48.9521 14.2529 49.458 13.9385C49.9684 13.624 50.5495 13.4668 51.2012 13.4668C52.2083 13.4668 53.0218 13.8154 53.6416 14.5127C54.266 15.21 54.5781 16.1374 54.5781 17.2949V17.3838C54.5781 18.1038 54.4391 18.751 54.1611 19.3252C53.8877 19.8949 53.4935 20.3392 52.9785 20.6582C52.4681 20.9772 51.8802 21.1367 51.2148 21.1367C50.2122 21.1367 49.3988 20.7881 48.7744 20.0908C48.1546 19.3936 47.8447 18.4707 47.8447 17.3223V17.2334ZM49.1162 17.3838C49.1162 18.2041 49.3053 18.8626 49.6836 19.3594C50.0664 19.8561 50.5768 20.1045 51.2148 20.1045C51.8574 20.1045 52.3678 19.8538 52.7461 19.3525C53.1243 18.8467 53.3135 18.1403 53.3135 17.2334C53.3135 16.4222 53.1198 15.766 52.7324 15.2646C52.3496 14.7588 51.8392 14.5059 51.2012 14.5059C50.5768 14.5059 50.0732 14.7542 49.6904 15.251C49.3076 15.7477 49.1162 16.4587 49.1162 17.3838ZM57.4287 14.499C57.9893 13.8109 58.7184 13.4668 59.6162 13.4668C61.1794 13.4668 61.9678 14.3486 61.9814 16.1123V21H60.7168V16.1055C60.7122 15.5723 60.5892 15.1781 60.3477 14.9229C60.1107 14.6676 59.7393 14.54 59.2334 14.54C58.8232 14.54 58.4632 14.6494 58.1533 14.8682C57.8434 15.0869 57.6019 15.374 57.4287 15.7295V21H56.1641V10.5H57.4287V14.499ZM68.4414 21C68.3685 20.8542 68.3092 20.5944 68.2637 20.2207C67.6758 20.8314 66.974 21.1367 66.1582 21.1367C65.429 21.1367 64.8298 20.9316 64.3604 20.5215C63.8955 20.1068 63.6631 19.5827 63.6631 18.9492C63.6631 18.179 63.9548 17.582 64.5381 17.1582C65.126 16.7298 65.9508 16.5156 67.0127 16.5156H68.2432V15.9346C68.2432 15.4925 68.111 15.1416 67.8467 14.8818C67.5824 14.6175 67.1927 14.4854 66.6777 14.4854C66.2266 14.4854 65.8483 14.5993 65.543 14.8271C65.2376 15.055 65.085 15.3307 65.085 15.6543H63.8135C63.8135 15.2852 63.9434 14.9297 64.2031 14.5879C64.4674 14.2415 64.8229 13.9681 65.2695 13.7676C65.7207 13.5671 66.2152 13.4668 66.7529 13.4668C67.6051 13.4668 68.2728 13.681 68.7559 14.1094C69.2389 14.5332 69.4896 15.1188 69.5078 15.8662V19.2705C69.5078 19.9495 69.5944 20.4896 69.7676 20.8906V21H68.4414ZM66.3428 20.0361C66.7393 20.0361 67.1152 19.9336 67.4707 19.7285C67.8262 19.5234 68.0837 19.2568 68.2432 18.9287V17.4111H67.252C65.7025 17.4111 64.9277 17.8646 64.9277 18.7715C64.9277 19.168 65.0599 19.4779 65.3242 19.7012C65.5885 19.9245 65.9281 20.0361 66.3428 20.0361ZM72.6797 13.6035L72.7139 14.4238C73.2562 13.7858 73.9876 13.4668 74.9082 13.4668C75.9427 13.4668 76.6468 13.8633 77.0205 14.6562C77.2666 14.3008 77.5856 14.0137 77.9775 13.7949C78.374 13.5762 78.8411 13.4668 79.3789 13.4668C81.0013 13.4668 81.8262 14.3258 81.8535 16.0439V21H80.5889V16.1191C80.5889 15.5905 80.4681 15.1963 80.2266 14.9365C79.985 14.6722 79.5794 14.54 79.0098 14.54C78.5404 14.54 78.1507 14.6813 77.8408 14.9639C77.5309 15.2419 77.3509 15.6178 77.3008 16.0918V21H76.0293V16.1533C76.0293 15.0778 75.5029 14.54 74.4502 14.54C73.6208 14.54 73.0534 14.8932 72.748 15.5996V21H71.4834V13.6035H72.6797ZM84.957 13.6035L84.9912 14.4238C85.5335 13.7858 86.265 13.4668 87.1855 13.4668C88.2201 13.4668 88.9242 13.8633 89.2979 14.6562C89.5439 14.3008 89.863 14.0137 90.2549 13.7949C90.6514 13.5762 91.1185 13.4668 91.6562 13.4668C93.2786 13.4668 94.1035 14.3258 94.1309 16.0439V21H92.8662V16.1191C92.8662 15.5905 92.7454 15.1963 92.5039 14.9365C92.2624 14.6722 91.8568 14.54 91.2871 14.54C90.8177 14.54 90.4281 14.6813 90.1182 14.9639C89.8083 15.2419 89.6283 15.6178 89.5781 16.0918V21H88.3066V16.1533C88.3066 15.0778 87.7803 14.54 86.7275 14.54C85.8981 14.54 85.3307 14.8932 85.0254 15.5996V21H83.7607V13.6035H84.957ZM99.1143 21.1367C98.1117 21.1367 97.2959 20.8086 96.667 20.1523C96.0381 19.4915 95.7236 18.6097 95.7236 17.5068V17.2744C95.7236 16.5407 95.8626 15.8867 96.1406 15.3125C96.4232 14.7337 96.8151 14.2826 97.3164 13.959C97.8223 13.6309 98.3691 13.4668 98.957 13.4668C99.9186 13.4668 100.666 13.7835 101.199 14.417C101.732 15.0505 101.999 15.9574 101.999 17.1377V17.6641H96.9883C97.0065 18.3932 97.2184 18.9834 97.624 19.4346C98.0342 19.8812 98.5537 20.1045 99.1826 20.1045C99.6292 20.1045 100.007 20.0133 100.317 19.8311C100.627 19.6488 100.898 19.4072 101.131 19.1064L101.903 19.708C101.284 20.6605 100.354 21.1367 99.1143 21.1367ZM98.957 14.5059C98.4466 14.5059 98.0182 14.6927 97.6719 15.0664C97.3255 15.4355 97.1113 15.9551 97.0293 16.625H100.734V16.5293C100.698 15.8867 100.525 15.39 100.215 15.0391C99.9049 14.6836 99.4857 14.5059 98.957 14.5059ZM103.161 17.2402C103.161 16.1055 103.43 15.194 103.968 14.5059C104.506 13.8132 105.21 13.4668 106.08 13.4668C106.946 13.4668 107.632 13.763 108.138 14.3555V10.5H109.402V21H108.24L108.179 20.207C107.673 20.8268 106.969 21.1367 106.066 21.1367C105.21 21.1367 104.51 20.7858 103.968 20.084C103.43 19.3822 103.161 18.4661 103.161 17.3359V17.2402ZM104.426 17.3838C104.426 18.2223 104.599 18.8786 104.945 19.3525C105.292 19.8265 105.77 20.0635 106.381 20.0635C107.183 20.0635 107.769 19.7035 108.138 18.9834V15.5859C107.759 14.8887 107.178 14.54 106.395 14.54C105.775 14.54 105.292 14.7793 104.945 15.2578C104.599 15.7363 104.426 16.445 104.426 17.3838ZM120.538 18.4023H116.368L115.432 21H114.078L117.879 11.0469H119.027L122.835 21H121.488L120.538 18.4023ZM116.765 17.3223H120.148L118.453 12.667L116.765 17.3223ZM126.041 17.5752L125.248 18.4023V21H123.983V10.5H125.248V16.8506L125.925 16.0371L128.229 13.6035H129.767L126.889 16.6934L130.102 21H128.618L126.041 17.5752ZM133.137 17.5752L132.344 18.4023V21H131.079V10.5H132.344V16.8506L133.021 16.0371L135.324 13.6035H136.862L133.984 16.6934L137.197 21H135.714L133.137 17.5752ZM142.734 21C142.661 20.8542 142.602 20.5944 142.557 20.2207C141.969 20.8314 141.267 21.1367 140.451 21.1367C139.722 21.1367 139.123 20.9316 138.653 20.5215C138.188 20.1068 137.956 19.5827 137.956 18.9492C137.956 18.179 138.248 17.582 138.831 17.1582C139.419 16.7298 140.244 16.5156 141.306 16.5156H142.536V15.9346C142.536 15.4925 142.404 15.1416 142.14 14.8818C141.875 14.6175 141.486 14.4854 140.971 14.4854C140.52 14.4854 140.141 14.5993 139.836 14.8271C139.531 15.055 139.378 15.3307 139.378 15.6543H138.106C138.106 15.2852 138.236 14.9297 138.496 14.5879C138.76 14.2415 139.116 13.9681 139.562 13.7676C140.014 13.5671 140.508 13.4668 141.046 13.4668C141.898 13.4668 142.566 13.681 143.049 14.1094C143.532 14.5332 143.783 15.1188 143.801 15.8662V19.2705C143.801 19.9495 143.887 20.4896 144.061 20.8906V21H142.734ZM140.636 20.0361C141.032 20.0361 141.408 19.9336 141.764 19.7285C142.119 19.5234 142.377 19.2568 142.536 18.9287V17.4111H141.545C139.995 17.4111 139.221 17.8646 139.221 18.7715C139.221 19.168 139.353 19.4779 139.617 19.7012C139.882 19.9245 140.221 20.0361 140.636 20.0361ZM149.358 14.7383C149.167 14.7064 148.96 14.6904 148.736 14.6904C147.907 14.6904 147.344 15.0436 147.048 15.75V21H145.783V13.6035H147.014L147.034 14.458C147.449 13.7972 148.037 13.4668 148.798 13.4668C149.044 13.4668 149.231 13.4987 149.358 13.5625V14.7383Z" fill="#404040"/>
<path fill-rule="evenodd" clip-rule="evenodd" d="M27.1822 18.7705L28.7197 20.308C29.0981 20.6998 29.0927 21.3225 28.7076 21.7076C28.3225 22.0927 27.6998 22.0981 27.308 21.7197L25.7705 20.1822C23.6266 21.6012 20.7563 21.1659 19.1296 19.1749C17.5029 17.1839 17.6486 14.2845 19.4665 12.4665C21.2845 10.6486 24.1839 10.5029 26.1749 12.1296C28.1659 13.7563 28.6012 16.6266 27.1822 18.7705ZM23.022 13.0268C21.3678 13.0268 20.0268 14.3678 20.0268 16.022C20.0268 17.6761 21.3678 19.0171 23.022 19.0171C24.6761 19.0171 26.0171 17.6761 26.0171 16.022C26.0171 14.3678 24.6761 13.0268 23.022 13.0268Z" fill="#404040"/>
<path d="M16 1H304V-1H16V1ZM304 31H16V33H304V31ZM16 31C7.71573 31 1 24.2843 1 16H-1C-1 25.3888 6.61116 33 16 33V31ZM319 16C319 24.2843 312.284 31 304 31V33C313.389 33 321 25.3888 321 16H319ZM304 1C312.284 1 319 7.71573 319 16H321C321 6.61116 313.389 -1 304 -1V1ZM16 -1C6.61116 -1 -1 6.61116 -1 16H1C1 7.71573 7.71573 1 16 1V-1Z" fill="#0371FF"/>
</svg>
