<svg width="72" height="24" viewBox="0 0 72 24" fill="none" xmlns="http://www.w3.org/2000/svg">
<path d="M0 12C0 5.37258 5.37258 0 12 0H60C66.6274 0 72 5.37258 72 12C72 18.6274 66.6274 24 60 24H12C5.37258 24 0 18.6274 0 12Z" fill="#EDF0F3"/>
<path d="M22.6172 16H16.8809V15.0215L19.7227 11.9219C20.1328 11.4648 20.4238 11.084 20.5957 10.7793C20.7715 10.4707 20.8594 10.1621 20.8594 9.85352C20.8594 9.44727 20.7441 9.11914 20.5137 8.86914C20.2871 8.61914 19.9805 8.49414 19.5938 8.49414C19.1328 8.49414 18.7754 8.63477 18.5215 8.91602C18.2676 9.19727 18.1406 9.58203 18.1406 10.0703H16.7168C16.7168 9.55078 16.834 9.08398 17.0684 8.66992C17.3066 8.25195 17.6445 7.92773 18.082 7.69727C18.5234 7.4668 19.0312 7.35156 19.6055 7.35156C20.4336 7.35156 21.0859 7.56055 21.5625 7.97852C22.043 8.39258 22.2832 8.9668 22.2832 9.70117C22.2832 10.127 22.1621 10.5742 21.9199 11.043C21.6816 11.5078 21.2891 12.0371 20.7422 12.6309L18.6562 14.8633H22.6172V16ZM28.5176 12.959H29.5781V14.1016H28.5176V16H27.0938V14.1016H23.4082L23.3672 13.2344L27.0469 7.46875H28.5176V12.959ZM24.8613 12.959H27.0938V9.39648L26.9883 9.58398L24.8613 12.959ZM39.5508 8.66406H36.8906V16H35.4199V8.66406H32.7832V7.46875H39.5508V8.66406ZM42.8027 16.1172C41.9004 16.1172 41.168 15.834 40.6055 15.2676C40.0469 14.6973 39.7676 13.9395 39.7676 12.9941V12.8184C39.7676 12.1855 39.8887 11.6211 40.1309 11.125C40.377 10.625 40.7207 10.2363 41.1621 9.95898C41.6035 9.68164 42.0957 9.54297 42.6387 9.54297C43.502 9.54297 44.168 9.81836 44.6367 10.3691C45.1094 10.9199 45.3457 11.6992 45.3457 12.707V13.2812H41.2031C41.2461 13.8047 41.4199 14.2188 41.7246 14.5234C42.0332 14.8281 42.4199 14.9805 42.8848 14.9805C43.5371 14.9805 44.0684 14.7168 44.4785 14.1895L45.2461 14.9219C44.9922 15.3008 44.6523 15.5957 44.2266 15.8066C43.8047 16.0137 43.3301 16.1172 42.8027 16.1172ZM42.6328 10.6855C42.2422 10.6855 41.9258 10.8223 41.6836 11.0957C41.4453 11.3691 41.293 11.75 41.2266 12.2383H43.9395V12.1328C43.9082 11.6562 43.7812 11.2969 43.5586 11.0547C43.3359 10.8086 43.0273 10.6855 42.6328 10.6855ZM48.7324 11.7461L49.9395 9.66016H51.5215L49.582 12.7832L51.5859 16H50.0156L48.75 13.832L47.4902 16H45.9082L47.9121 12.7832L45.9785 9.66016H47.5488L48.7324 11.7461ZM54.2754 8.11914V9.66016H55.3945V10.7148H54.2754V14.2539C54.2754 14.4961 54.3223 14.6719 54.416 14.7812C54.5137 14.8867 54.6855 14.9395 54.9316 14.9395C55.0957 14.9395 55.2617 14.9199 55.4297 14.8809V15.9824C55.1055 16.0723 54.793 16.1172 54.4922 16.1172C53.3984 16.1172 52.8516 15.5137 52.8516 14.3066V10.7148H51.8086V9.66016H52.8516V8.11914H54.2754Z" fill="#4B6C89"/>
</svg>
