<svg width="105" height="36" viewBox="0 0 105 36" fill="none" xmlns="http://www.w3.org/2000/svg">
<path d="M0 18C0 8.05887 8.05888 0 18 0H87C96.9411 0 105 8.05887 105 18V18C105 27.9411 96.9411 36 87 36H18C8.05887 36 0 27.9411 0 18V18Z" fill="#CDE3FF"/>
<path d="M19.1143 17.2646H20.126C20.6364 17.2601 21.0397 17.1279 21.3359 16.8682C21.6367 16.6084 21.7871 16.2324 21.7871 15.7402C21.7871 15.2663 21.6618 14.8994 21.4111 14.6396C21.165 14.3753 20.7868 14.2432 20.2764 14.2432C19.8298 14.2432 19.4629 14.373 19.1758 14.6328C18.8887 14.888 18.7451 15.223 18.7451 15.6377H17.084C17.084 15.1273 17.2184 14.6624 17.4873 14.2432C17.7607 13.8239 18.139 13.498 18.6221 13.2656C19.1097 13.0286 19.6543 12.9102 20.2559 12.9102C21.2493 12.9102 22.0286 13.1608 22.5938 13.6621C23.1634 14.1589 23.4482 14.8516 23.4482 15.7402C23.4482 16.1868 23.3047 16.6084 23.0176 17.0049C22.735 17.3968 22.3682 17.693 21.917 17.8936C22.4639 18.0804 22.8786 18.3743 23.1611 18.7754C23.4482 19.1764 23.5918 19.6549 23.5918 20.2109C23.5918 21.1042 23.2842 21.8151 22.6689 22.3438C22.0583 22.8724 21.2539 23.1367 20.2559 23.1367C19.2988 23.1367 18.515 22.8815 17.9043 22.3711C17.2936 21.8607 16.9883 21.1816 16.9883 20.334H18.6494C18.6494 20.7715 18.7952 21.127 19.0869 21.4004C19.3831 21.6738 19.7796 21.8105 20.2764 21.8105C20.7913 21.8105 21.1969 21.6738 21.4932 21.4004C21.7894 21.127 21.9375 20.7305 21.9375 20.2109C21.9375 19.6868 21.7826 19.2835 21.4727 19.001C21.1628 18.7184 20.7025 18.5771 20.0918 18.5771H19.1143V17.2646ZM30.3184 12.999V14.373H30.1133C29.1836 14.3867 28.4408 14.6419 27.8848 15.1387C27.3288 15.6354 26.9984 16.3395 26.8936 17.251C27.4268 16.6904 28.1081 16.4102 28.9375 16.4102C29.8171 16.4102 30.5098 16.7201 31.0156 17.3398C31.526 17.9596 31.7812 18.7594 31.7812 19.7393C31.7812 20.751 31.4827 21.5713 30.8857 22.2002C30.2933 22.8245 29.514 23.1367 28.5479 23.1367C27.5544 23.1367 26.7477 22.7699 26.1279 22.0361C25.5127 21.3024 25.2051 20.3408 25.2051 19.1514V18.584C25.2051 16.8385 25.6289 15.4714 26.4766 14.4824C27.3288 13.4935 28.5524 12.999 30.1475 12.999H30.3184ZM28.5342 17.75C28.1696 17.75 27.8346 17.8525 27.5293 18.0576C27.2285 18.2627 27.0075 18.5361 26.8662 18.8779V19.3838C26.8662 20.1221 27.0212 20.71 27.3311 21.1475C27.641 21.5804 28.042 21.7969 28.5342 21.7969C29.0264 21.7969 29.416 21.6123 29.7031 21.2432C29.9902 20.874 30.1338 20.3887 30.1338 19.7871C30.1338 19.1855 29.988 18.6956 29.6963 18.3174C29.4046 17.9391 29.0173 17.75 28.5342 17.75ZM40.5176 19.165H38.5898V23H36.8604V13.0469H40.3604C41.5088 13.0469 42.3952 13.3044 43.0195 13.8193C43.6439 14.3343 43.9561 15.0794 43.9561 16.0547C43.9561 16.7201 43.7943 17.2783 43.4707 17.7295C43.1517 18.1761 42.7051 18.5202 42.1309 18.7617L44.3662 22.9111V23H42.5137L40.5176 19.165ZM38.5898 17.7773H40.3672C40.9505 17.7773 41.4062 17.6315 41.7344 17.3398C42.0625 17.0436 42.2266 16.6403 42.2266 16.1299C42.2266 15.5967 42.0739 15.1842 41.7686 14.8926C41.4678 14.6009 41.0166 14.4505 40.415 14.4414H38.5898V17.7773ZM47.2031 23H45.542V15.6035H47.2031V23ZM45.4395 13.6826C45.4395 13.4274 45.5192 13.2155 45.6787 13.0469C45.8428 12.8783 46.0752 12.7939 46.376 12.7939C46.6768 12.7939 46.9092 12.8783 47.0732 13.0469C47.2373 13.2155 47.3193 13.4274 47.3193 13.6826C47.3193 13.9333 47.2373 14.1429 47.0732 14.3115C46.9092 14.4756 46.6768 14.5576 46.376 14.5576C46.0752 14.5576 45.8428 14.4756 45.6787 14.3115C45.5192 14.1429 45.4395 13.9333 45.4395 13.6826ZM48.7275 19.2471C48.7275 18.0986 48.9964 17.1826 49.5342 16.499C50.0765 15.8109 50.7943 15.4668 51.6875 15.4668C52.5306 15.4668 53.1937 15.7607 53.6768 16.3486L53.752 15.6035H55.249V22.7744C55.249 23.7451 54.946 24.5107 54.3398 25.0713C53.7383 25.6318 52.9248 25.9121 51.8994 25.9121C51.3571 25.9121 50.8262 25.7982 50.3066 25.5703C49.7917 25.347 49.3997 25.0531 49.1309 24.6885L49.917 23.6904C50.4274 24.2965 51.0563 24.5996 51.8037 24.5996C52.3551 24.5996 52.7904 24.4492 53.1094 24.1484C53.4284 23.8522 53.5879 23.4147 53.5879 22.8359V22.3369C53.1094 22.8701 52.4714 23.1367 51.6738 23.1367C50.8079 23.1367 50.0993 22.7926 49.5479 22.1045C49.001 21.4163 48.7275 20.4639 48.7275 19.2471ZM50.3818 19.3906C50.3818 20.1335 50.5322 20.7191 50.833 21.1475C51.1383 21.5713 51.5599 21.7832 52.0977 21.7832C52.7676 21.7832 53.2643 21.4961 53.5879 20.9219V17.668C53.2734 17.1074 52.7812 16.8271 52.1113 16.8271C51.5645 16.8271 51.1383 17.0436 50.833 17.4766C50.5322 17.9095 50.3818 18.5475 50.3818 19.3906ZM58.5986 16.4102C59.141 15.7812 59.8268 15.4668 60.6562 15.4668C62.2331 15.4668 63.0329 16.3669 63.0557 18.167V23H61.3945V18.2285C61.3945 17.7181 61.2829 17.3581 61.0596 17.1484C60.8408 16.9342 60.5173 16.8271 60.0889 16.8271C59.4235 16.8271 58.9268 17.1234 58.5986 17.7158V23H56.9375V12.5H58.5986V16.4102ZM66.8223 13.8057V15.6035H68.1279V16.834H66.8223V20.9629C66.8223 21.2454 66.877 21.4505 66.9863 21.5781C67.1003 21.7012 67.3008 21.7627 67.5879 21.7627C67.7793 21.7627 67.973 21.7399 68.1689 21.6943V22.9795C67.7907 23.0843 67.4261 23.1367 67.0752 23.1367C65.7992 23.1367 65.1611 22.4326 65.1611 21.0244V16.834H63.9443V15.6035H65.1611V13.8057H66.8223Z" fill="white"/>
<path fill-rule="evenodd" clip-rule="evenodd" d="M84 12H82V17H77V19H82V24H84V19H89V17H84V12Z" fill="white"/>
</svg>
