<svg width="94" height="28" viewBox="0 0 94 28" fill="none" xmlns="http://www.w3.org/2000/svg">
<path d="M0 14C0 6.26801 6.26801 0 14 0H80C87.732 0 94 6.26801 94 14V14C94 21.732 87.732 28 80 28H14C6.26801 28 0 21.732 0 14V14Z" fill="#0371FF"/>
<path fill-rule="evenodd" clip-rule="evenodd" d="M22 10H20V13H17V15H20V18H22V15H25V13H22V10Z" fill="white"/>
<path d="M37.2803 18H31.0659V16.9399L34.1445 13.582C34.5889 13.0869 34.9041 12.6743 35.0903 12.3442C35.2808 12.0099 35.376 11.6756 35.376 11.3413C35.376 10.9012 35.2511 10.5457 35.0015 10.2749C34.756 10.0041 34.4238 9.86865 34.0049 9.86865C33.5055 9.86865 33.1183 10.021 32.8433 10.3257C32.5682 10.6304 32.4307 11.0472 32.4307 11.5762H30.8882C30.8882 11.0133 31.0151 10.5076 31.269 10.0591C31.5272 9.60628 31.8932 9.25505 32.3672 9.00537C32.8454 8.7557 33.3955 8.63086 34.0176 8.63086C34.9147 8.63086 35.6214 8.85726 36.1377 9.31006C36.6582 9.75863 36.9185 10.3807 36.9185 11.1763C36.9185 11.6375 36.7873 12.1221 36.5249 12.6299C36.2668 13.1335 35.8415 13.7069 35.249 14.3501L32.9893 16.7686H37.2803V18ZM44.2754 11.1953C44.2754 11.6481 44.159 12.0522 43.9263 12.4077C43.6935 12.759 43.3761 13.0361 42.9741 13.2393C43.4565 13.4635 43.8268 13.7703 44.085 14.1597C44.3473 14.549 44.4785 14.9891 44.4785 15.48C44.4785 16.2925 44.2035 16.9378 43.6533 17.416C43.1032 17.89 42.3711 18.127 41.457 18.127C40.5387 18.127 39.8024 17.8879 39.248 17.4097C38.6979 16.9315 38.4229 16.2882 38.4229 15.48C38.4229 14.9849 38.554 14.5405 38.8164 14.147C39.0788 13.7534 39.4469 13.4508 39.9209 13.2393C39.5231 13.0361 39.2078 12.759 38.9751 12.4077C38.7466 12.0522 38.6323 11.6481 38.6323 11.1953C38.6323 10.4082 38.8862 9.78402 39.394 9.32275C39.9019 8.86149 40.5874 8.63086 41.4507 8.63086C42.3182 8.63086 43.0059 8.86149 43.5137 9.32275C44.0215 9.78402 44.2754 10.4082 44.2754 11.1953ZM42.936 15.4038C42.936 14.9468 42.7985 14.5786 42.5234 14.2993C42.2526 14.0158 41.8929 13.874 41.4443 13.874C40.9958 13.874 40.6361 14.0137 40.3652 14.293C40.0986 14.5723 39.9653 14.9425 39.9653 15.4038C39.9653 15.8566 40.0965 16.2184 40.3589 16.4893C40.6255 16.7601 40.9915 16.8955 41.457 16.8955C41.9225 16.8955 42.2843 16.7643 42.5425 16.502C42.8049 16.2396 42.936 15.8735 42.936 15.4038ZM42.7393 11.2524C42.7393 10.8504 42.6229 10.5203 42.3901 10.2622C42.1574 9.99984 41.8442 9.86865 41.4507 9.86865C41.0571 9.86865 40.7461 9.99349 40.5176 10.2432C40.2891 10.4886 40.1748 10.825 40.1748 11.2524C40.1748 11.6756 40.2891 12.012 40.5176 12.2617C40.7503 12.5114 41.0635 12.6362 41.457 12.6362C41.8506 12.6362 42.1616 12.5114 42.3901 12.2617C42.6229 12.012 42.7393 11.6756 42.7393 11.2524ZM54.1587 15.6196C54.1587 15.2134 54.0148 14.9002 53.7271 14.6802C53.4435 14.4601 52.9294 14.238 52.1846 14.0137C51.4398 13.7894 50.8473 13.5397 50.4072 13.2646C49.5651 12.7357 49.144 12.0459 49.144 11.1953C49.144 10.4505 49.4466 9.83691 50.0518 9.35449C50.6611 8.87207 51.4504 8.63086 52.4194 8.63086C53.0627 8.63086 53.6361 8.74935 54.1396 8.98633C54.6432 9.22331 55.0389 9.56185 55.3267 10.002C55.6144 10.4378 55.7583 10.9224 55.7583 11.4556H54.1587C54.1587 10.9731 54.0063 10.5965 53.7017 10.3257C53.4012 10.0506 52.9696 9.91309 52.4067 9.91309C51.882 9.91309 51.4736 10.0252 51.1816 10.2495C50.8939 10.4738 50.75 10.7869 50.75 11.189C50.75 11.5275 50.9066 11.811 51.2197 12.0396C51.5329 12.2638 52.0492 12.4839 52.7686 12.6997C53.488 12.9113 54.0656 13.1546 54.5015 13.4297C54.9373 13.7005 55.2568 14.0137 55.46 14.3691C55.6631 14.7204 55.7646 15.133 55.7646 15.6069C55.7646 16.3771 55.4684 16.9907 54.876 17.4478C54.2878 17.9006 53.488 18.127 52.4766 18.127C51.8079 18.127 51.1922 18.0042 50.6294 17.7588C50.0708 17.5091 49.6349 17.1663 49.3218 16.7305C49.0129 16.2946 48.8584 15.7868 48.8584 15.207H50.4644C50.4644 15.7318 50.6379 16.138 50.9849 16.4258C51.3319 16.7135 51.8291 16.8574 52.4766 16.8574C53.0352 16.8574 53.4541 16.7453 53.7334 16.521C54.0169 16.2925 54.1587 15.992 54.1587 15.6196ZM56.7358 14.5024C56.7358 13.8296 56.8691 13.2244 57.1357 12.687C57.4023 12.1453 57.7769 11.7306 58.2593 11.4429C58.7417 11.1509 59.2961 11.0049 59.9224 11.0049C60.8491 11.0049 61.6003 11.3032 62.1758 11.8999C62.7555 12.4966 63.0687 13.2879 63.1152 14.2739L63.1216 14.6357C63.1216 15.3128 62.9904 15.918 62.728 16.4512C62.4699 16.9844 62.0975 17.397 61.6108 17.689C61.1284 17.981 60.5698 18.127 59.9351 18.127C58.966 18.127 58.1895 17.8053 57.6055 17.1621C57.0257 16.5146 56.7358 15.6535 56.7358 14.5786V14.5024ZM58.2783 14.6357C58.2783 15.3424 58.4243 15.8968 58.7163 16.2988C59.0083 16.6966 59.4146 16.8955 59.9351 16.8955C60.4556 16.8955 60.8597 16.6924 61.1475 16.2861C61.4395 15.8799 61.5854 15.2853 61.5854 14.5024C61.5854 13.8084 61.4352 13.2583 61.1348 12.8521C60.8385 12.4458 60.4344 12.2427 59.9224 12.2427C59.4188 12.2427 59.0189 12.4437 58.7227 12.8457C58.4264 13.2435 58.2783 13.8402 58.2783 14.6357ZM66.0669 18H64.5244V8.25H66.0669V18ZM69.3931 18H67.8506V11.1318H69.3931V18ZM67.7554 9.34814C67.7554 9.11117 67.8294 8.91439 67.9775 8.75781C68.1299 8.60124 68.3457 8.52295 68.625 8.52295C68.9043 8.52295 69.1201 8.60124 69.2725 8.75781C69.4248 8.91439 69.501 9.11117 69.501 9.34814C69.501 9.58089 69.4248 9.77555 69.2725 9.93213C69.1201 10.0845 68.9043 10.1606 68.625 10.1606C68.3457 10.1606 68.1299 10.0845 67.9775 9.93213C67.8294 9.77555 67.7554 9.58089 67.7554 9.34814ZM70.7896 14.5151C70.7896 13.4572 71.035 12.6087 71.5259 11.9697C72.0168 11.3265 72.6748 11.0049 73.5 11.0049C74.2279 11.0049 74.8161 11.2588 75.2646 11.7666V8.25H76.8071V18H75.4106L75.3345 17.2891C74.8732 17.8477 74.2575 18.127 73.4873 18.127C72.6833 18.127 72.0316 17.8032 71.5322 17.1558C71.0371 16.5083 70.7896 15.6281 70.7896 14.5151ZM72.332 14.6484C72.332 15.3467 72.4653 15.8926 72.7319 16.2861C73.0028 16.6755 73.3857 16.8701 73.8809 16.8701C74.5114 16.8701 74.9727 16.5887 75.2646 16.0259V13.0933C74.9811 12.5431 74.5241 12.2681 73.8936 12.2681C73.3942 12.2681 73.0091 12.467 72.7383 12.8647C72.4674 13.2583 72.332 13.8529 72.332 14.6484Z" fill="white"/>
</svg>
