<svg width="79" height="28" viewBox="0 0 79 28" fill="none" xmlns="http://www.w3.org/2000/svg">
<path d="M0 14C0 6.26801 6.26801 0 14 0H65C72.732 0 79 6.26801 79 14V14C79 21.732 72.732 28 65 28H14C6.26802 28 0 21.732 0 14V14Z" fill="url(#paint0_linear)"/>
<path d="M18.9224 18H12.708V16.9399L15.7866 13.582C16.231 13.0869 16.5462 12.6743 16.7324 12.3442C16.9229 12.0099 17.0181 11.6756 17.0181 11.3413C17.0181 10.9012 16.8932 10.5457 16.6436 10.2749C16.3981 10.0041 16.0659 9.86865 15.647 9.86865C15.1476 9.86865 14.7604 10.021 14.4854 10.3257C14.2103 10.6304 14.0728 11.0472 14.0728 11.5762H12.5303C12.5303 11.0133 12.6572 10.5076 12.9111 10.0591C13.1693 9.60628 13.5353 9.25505 14.0093 9.00537C14.4875 8.7557 15.0376 8.63086 15.6597 8.63086C16.5568 8.63086 17.2635 8.85726 17.7798 9.31006C18.3003 9.75863 18.5605 10.3807 18.5605 11.1763C18.5605 11.6375 18.4294 12.1221 18.167 12.6299C17.9089 13.1335 17.4836 13.7069 16.8911 14.3501L14.6313 16.7686H18.9224V18ZM25.9175 11.1953C25.9175 11.6481 25.8011 12.0522 25.5684 12.4077C25.3356 12.759 25.0182 13.0361 24.6162 13.2393C25.0986 13.4635 25.4689 13.7703 25.7271 14.1597C25.9894 14.549 26.1206 14.9891 26.1206 15.48C26.1206 16.2925 25.8455 16.9378 25.2954 17.416C24.7453 17.89 24.0132 18.127 23.0991 18.127C22.1808 18.127 21.4445 17.8879 20.8901 17.4097C20.34 16.9315 20.0649 16.2882 20.0649 15.48C20.0649 14.9849 20.1961 14.5405 20.4585 14.147C20.7209 13.7534 21.089 13.4508 21.563 13.2393C21.1652 13.0361 20.8499 12.759 20.6172 12.4077C20.3887 12.0522 20.2744 11.6481 20.2744 11.1953C20.2744 10.4082 20.5283 9.78402 21.0361 9.32275C21.5439 8.86149 22.2295 8.63086 23.0928 8.63086C23.9603 8.63086 24.6479 8.86149 25.1558 9.32275C25.6636 9.78402 25.9175 10.4082 25.9175 11.1953ZM24.5781 15.4038C24.5781 14.9468 24.4406 14.5786 24.1655 14.2993C23.8947 14.0158 23.535 13.874 23.0864 13.874C22.6379 13.874 22.2782 14.0137 22.0073 14.293C21.7407 14.5723 21.6074 14.9425 21.6074 15.4038C21.6074 15.8566 21.7386 16.2184 22.001 16.4893C22.2676 16.7601 22.6336 16.8955 23.0991 16.8955C23.5646 16.8955 23.9264 16.7643 24.1846 16.502C24.4469 16.2396 24.5781 15.8735 24.5781 15.4038ZM24.3813 11.2524C24.3813 10.8504 24.265 10.5203 24.0322 10.2622C23.7995 9.99984 23.4863 9.86865 23.0928 9.86865C22.6992 9.86865 22.3882 9.99349 22.1597 10.2432C21.9312 10.4886 21.8169 10.825 21.8169 11.2524C21.8169 11.6756 21.9312 12.012 22.1597 12.2617C22.3924 12.5114 22.7056 12.6362 23.0991 12.6362C23.4927 12.6362 23.8037 12.5114 24.0322 12.2617C24.265 12.012 24.3813 11.6756 24.3813 11.2524ZM32.5762 16.7178H36.772V18H30.9702V8.75781H32.5762V16.7178ZM40.8789 18.127C39.9014 18.127 39.1079 17.8201 38.4985 17.2065C37.8934 16.5887 37.5908 15.7677 37.5908 14.7437V14.5532C37.5908 13.8677 37.722 13.2562 37.9844 12.7188C38.251 12.1771 38.6234 11.756 39.1016 11.4556C39.5798 11.1551 40.113 11.0049 40.7012 11.0049C41.6364 11.0049 42.3579 11.3032 42.8657 11.8999C43.3778 12.4966 43.6338 13.3408 43.6338 14.4326V15.0547H39.146C39.1925 15.6217 39.3809 16.0703 39.7109 16.4004C40.0452 16.7305 40.4642 16.8955 40.9678 16.8955C41.6745 16.8955 42.25 16.6099 42.6943 16.0386L43.5259 16.832C43.2508 17.2425 42.8826 17.562 42.4214 17.7905C41.9644 18.0148 41.4502 18.127 40.8789 18.127ZM40.6948 12.2427C40.2716 12.2427 39.9289 12.3908 39.6665 12.687C39.4084 12.9832 39.2433 13.3958 39.1714 13.9248H42.1104V13.8105C42.0765 13.2943 41.939 12.9049 41.6978 12.6426C41.4565 12.376 41.1222 12.2427 40.6948 12.2427ZM45.3794 18V12.2744H44.332V11.1318H45.3794V10.5034C45.3794 9.7417 45.591 9.15348 46.0142 8.73877C46.4373 8.32406 47.0298 8.1167 47.7915 8.1167C48.0623 8.1167 48.3501 8.15479 48.6548 8.23096L48.6167 9.43701C48.4474 9.40316 48.2507 9.38623 48.0264 9.38623C47.29 9.38623 46.9219 9.76497 46.9219 10.5225V11.1318H48.3184V12.2744H46.9219V18H45.3794ZM51.3779 9.4624V11.1318H52.5903V12.2744H51.3779V16.1084C51.3779 16.3708 51.4287 16.5612 51.5303 16.6797C51.6361 16.7939 51.8223 16.8511 52.0889 16.8511C52.2666 16.8511 52.4465 16.8299 52.6284 16.7876V17.981C52.2772 18.0783 51.9386 18.127 51.6128 18.127C50.4279 18.127 49.8354 17.4731 49.8354 16.1655V12.2744H48.7056V11.1318H49.8354V9.4624H51.3779Z" fill="#9AC6FF"/>
<path fill-rule="evenodd" clip-rule="evenodd" d="M63 10H61V13H58V15H61V18H63V15H66V13H63V10Z" fill="#9AC6FF"/>
<path d="M14 1H65V-1H14V1ZM65 27H14V29H65V27ZM14 27C6.8203 27 1 21.1797 1 14H-1C-1 22.2843 5.71573 29 14 29V27ZM78 14C78 21.1797 72.1797 27 65 27V29C73.2843 29 80 22.2843 80 14H78ZM65 1C72.1797 1 78 6.8203 78 14H80C80 5.71573 73.2843 -1 65 -1V1ZM14 -1C5.71573 -1 -1 5.71573 -1 14H1C1 6.8203 6.8203 1 14 1V-1Z" fill="#9AC6FF"/>
<defs>
<linearGradient id="paint0_linear" x1="2.94298e-07" y1="14" x2="79" y2="14" gradientUnits="userSpaceOnUse">
<stop offset="0.557338" stop-color="#0371FF"/>
<stop offset="0.557387" stop-color="#F7FAFF"/>
</linearGradient>
</defs>
</svg>
