<svg width="452" height="43" viewBox="0 0 452 43" fill="none" xmlns="http://www.w3.org/2000/svg">
<rect x="0.5" y="19.5" width="451" height="23" rx="3.5" fill="#F6F7F9"/>
<path d="M15.5039 31.1973C14.5391 30.9199 13.8359 30.5801 13.3945 30.1777C12.957 29.7715 12.7383 29.2715 12.7383 28.6777C12.7383 28.0059 13.0059 27.4512 13.541 27.0137C14.0801 26.5723 14.7793 26.3516 15.6387 26.3516C16.2246 26.3516 16.7461 26.4648 17.2031 26.6914C17.6641 26.918 18.0195 27.2305 18.2695 27.6289C18.5234 28.0273 18.6504 28.4629 18.6504 28.9355H17.5195C17.5195 28.4199 17.3555 28.0156 17.0273 27.7227C16.6992 27.4258 16.2363 27.2773 15.6387 27.2773C15.084 27.2773 14.6504 27.4004 14.3379 27.6465C14.0293 27.8887 13.875 28.2266 13.875 28.6602C13.875 29.0078 14.0215 29.3027 14.3145 29.5449C14.6113 29.7832 15.1133 30.002 15.8203 30.2012C16.5312 30.4004 17.0859 30.6211 17.4844 30.8633C17.8867 31.1016 18.1836 31.3809 18.375 31.7012C18.5703 32.0215 18.668 32.3984 18.668 32.832C18.668 33.5234 18.3984 34.0781 17.8594 34.4961C17.3203 34.9102 16.5996 35.1172 15.6973 35.1172C15.1113 35.1172 14.5645 35.0059 14.0566 34.7832C13.5488 34.5566 13.1562 34.248 12.8789 33.8574C12.6055 33.4668 12.4688 33.0234 12.4688 32.5273H13.5996C13.5996 33.043 13.7891 33.4512 14.168 33.752C14.5508 34.0488 15.0605 34.1973 15.6973 34.1973C16.291 34.1973 16.7461 34.0762 17.0625 33.834C17.3789 33.5918 17.5371 33.2617 17.5371 32.8438C17.5371 32.4258 17.3906 32.1035 17.0977 31.877C16.8047 31.6465 16.2734 31.4199 15.5039 31.1973ZM23.8594 35C23.7969 34.875 23.7461 34.6523 23.707 34.332C23.2031 34.8555 22.6016 35.1172 21.9023 35.1172C21.2773 35.1172 20.7637 34.9414 20.3613 34.5898C19.9629 34.2344 19.7637 33.7852 19.7637 33.2422C19.7637 32.582 20.0137 32.0703 20.5137 31.707C21.0176 31.3398 21.7246 31.1562 22.6348 31.1562H23.6895V30.6582C23.6895 30.2793 23.5762 29.9785 23.3496 29.7559C23.123 29.5293 22.7891 29.416 22.3477 29.416C21.9609 29.416 21.6367 29.5137 21.375 29.709C21.1133 29.9043 20.9824 30.1406 20.9824 30.418H19.8926C19.8926 30.1016 20.0039 29.7969 20.2266 29.5039C20.4531 29.207 20.7578 28.9727 21.1406 28.8008C21.5273 28.6289 21.9512 28.543 22.4121 28.543C23.1426 28.543 23.7148 28.7266 24.1289 29.0938C24.543 29.457 24.7578 29.959 24.7734 30.5996V33.5176C24.7734 34.0996 24.8477 34.5625 24.9961 34.9062V35H23.8594ZM22.0605 34.1738C22.4004 34.1738 22.7227 34.0859 23.0273 33.9102C23.332 33.7344 23.5527 33.5059 23.6895 33.2246V31.9238H22.8398C21.5117 31.9238 20.8477 32.3125 20.8477 33.0898C20.8477 33.4297 20.9609 33.6953 21.1875 33.8867C21.4141 34.0781 21.7051 34.1738 22.0605 34.1738ZM30.3867 34.373C29.9648 34.8691 29.3457 35.1172 28.5293 35.1172C27.8535 35.1172 27.3379 34.9219 26.9824 34.5312C26.6309 34.1367 26.4531 33.5547 26.4492 32.7852V28.6602H27.5332V32.7559C27.5332 33.7168 27.9238 34.1973 28.7051 34.1973C29.5332 34.1973 30.084 33.8887 30.3574 33.2715V28.6602H31.4414V35H30.4102L30.3867 34.373ZM32.8301 31.7773C32.8301 30.8047 33.0605 30.0234 33.5215 29.4336C33.9824 28.8398 34.5859 28.543 35.332 28.543C36.0742 28.543 36.6621 28.7969 37.0957 29.3047V26H38.1797V35H37.1836L37.1309 34.3203C36.6973 34.8516 36.0938 35.1172 35.3203 35.1172C34.5859 35.1172 33.9863 34.8164 33.5215 34.2148C33.0605 33.6133 32.8301 32.8281 32.8301 31.8594V31.7773ZM33.9141 31.9004C33.9141 32.6191 34.0625 33.1816 34.3594 33.5879C34.6562 33.9941 35.0664 34.1973 35.5898 34.1973C36.2773 34.1973 36.7793 33.8887 37.0957 33.2715V30.3594C36.7715 29.7617 36.2734 29.4629 35.6016 29.4629C35.0703 29.4629 34.6562 29.668 34.3594 30.0781C34.0625 30.4883 33.9141 31.0957 33.9141 31.9004ZM41.0449 35H39.9609V28.6602H41.0449V35ZM39.873 26.9785C39.873 26.8027 39.9258 26.6543 40.0312 26.5332C40.1406 26.4121 40.3008 26.3516 40.5117 26.3516C40.7227 26.3516 40.8828 26.4121 40.9922 26.5332C41.1016 26.6543 41.1562 26.8027 41.1562 26.9785C41.1562 27.1543 41.1016 27.3008 40.9922 27.418C40.8828 27.5352 40.7227 27.5938 40.5117 27.5938C40.3008 27.5938 40.1406 27.5352 40.0312 27.418C39.9258 27.3008 39.873 27.1543 39.873 26.9785ZM50.6426 32.7734H47.0684L46.2656 35H45.1055L48.3633 26.4688H49.3477L52.6113 35H51.457L50.6426 32.7734ZM47.4082 31.8477H50.3086L48.8555 27.8574L47.4082 31.8477ZM56.6543 29.6328C56.4902 29.6055 56.3125 29.5918 56.1211 29.5918C55.4102 29.5918 54.9277 29.8945 54.6738 30.5V35H53.5898V28.6602H54.6445L54.6621 29.3926C55.0176 28.8262 55.5215 28.543 56.1738 28.543C56.3848 28.543 56.5449 28.5703 56.6543 28.625V29.6328ZM61.3359 35C61.2734 34.875 61.2227 34.6523 61.1836 34.332C60.6797 34.8555 60.0781 35.1172 59.3789 35.1172C58.7539 35.1172 58.2402 34.9414 57.8379 34.5898C57.4395 34.2344 57.2402 33.7852 57.2402 33.2422C57.2402 32.582 57.4902 32.0703 57.9902 31.707C58.4941 31.3398 59.2012 31.1562 60.1113 31.1562H61.166V30.6582C61.166 30.2793 61.0527 29.9785 60.8262 29.7559C60.5996 29.5293 60.2656 29.416 59.8242 29.416C59.4375 29.416 59.1133 29.5137 58.8516 29.709C58.5898 29.9043 58.459 30.1406 58.459 30.418H57.3691C57.3691 30.1016 57.4805 29.7969 57.7031 29.5039C57.9297 29.207 58.2344 28.9727 58.6172 28.8008C59.0039 28.6289 59.4277 28.543 59.8887 28.543C60.6191 28.543 61.1914 28.7266 61.6055 29.0938C62.0195 29.457 62.2344 29.959 62.25 30.5996V33.5176C62.25 34.0996 62.3242 34.5625 62.4727 34.9062V35H61.3359ZM59.5371 34.1738C59.877 34.1738 60.1992 34.0859 60.5039 33.9102C60.8086 33.7344 61.0293 33.5059 61.166 33.2246V31.9238H60.3164C58.9883 31.9238 58.3242 32.3125 58.3242 33.0898C58.3242 33.4297 58.4375 33.6953 58.6641 33.8867C58.8906 34.0781 59.1816 34.1738 59.5371 34.1738ZM69.3164 31.9004C69.3164 32.8691 69.0938 33.6484 68.6484 34.2383C68.2031 34.8242 67.6055 35.1172 66.8555 35.1172C66.0547 35.1172 65.4355 34.834 64.998 34.2676L64.9453 35H63.9492V26H65.0332V29.3574C65.4707 28.8145 66.0742 28.543 66.8438 28.543C67.6133 28.543 68.2168 28.834 68.6543 29.416C69.0957 29.998 69.3164 30.7949 69.3164 31.8066V31.9004ZM68.2324 31.7773C68.2324 31.0391 68.0898 30.4688 67.8047 30.0664C67.5195 29.6641 67.1094 29.4629 66.5742 29.4629C65.8594 29.4629 65.3457 29.7949 65.0332 30.459V33.2012C65.3652 33.8652 65.8828 34.1973 66.5859 34.1973C67.1055 34.1973 67.5098 33.9961 67.7988 33.5938C68.0879 33.1914 68.2324 32.5859 68.2324 31.7773ZM71.8652 35H70.7812V28.6602H71.8652V35ZM70.6934 26.9785C70.6934 26.8027 70.7461 26.6543 70.8516 26.5332C70.9609 26.4121 71.1211 26.3516 71.332 26.3516C71.543 26.3516 71.7031 26.4121 71.8125 26.5332C71.9219 26.6543 71.9766 26.8027 71.9766 26.9785C71.9766 27.1543 71.9219 27.3008 71.8125 27.418C71.7031 27.5352 71.543 27.5938 71.332 27.5938C71.1211 27.5938 70.9609 27.5352 70.8516 27.418C70.7461 27.3008 70.6934 27.1543 70.6934 26.9785ZM77.5195 35C77.457 34.875 77.4062 34.6523 77.3672 34.332C76.8633 34.8555 76.2617 35.1172 75.5625 35.1172C74.9375 35.1172 74.4238 34.9414 74.0215 34.5898C73.623 34.2344 73.4238 33.7852 73.4238 33.2422C73.4238 32.582 73.6738 32.0703 74.1738 31.707C74.6777 31.3398 75.3848 31.1562 76.2949 31.1562H77.3496V30.6582C77.3496 30.2793 77.2363 29.9785 77.0098 29.7559C76.7832 29.5293 76.4492 29.416 76.0078 29.416C75.6211 29.416 75.2969 29.5137 75.0352 29.709C74.7734 29.9043 74.6426 30.1406 74.6426 30.418H73.5527C73.5527 30.1016 73.6641 29.7969 73.8867 29.5039C74.1133 29.207 74.418 28.9727 74.8008 28.8008C75.1875 28.6289 75.6113 28.543 76.0723 28.543C76.8027 28.543 77.375 28.7266 77.7891 29.0938C78.2031 29.457 78.418 29.959 78.4336 30.5996V33.5176C78.4336 34.0996 78.5078 34.5625 78.6562 34.9062V35H77.5195ZM75.7207 34.1738C76.0605 34.1738 76.3828 34.0859 76.6875 33.9102C76.9922 33.7344 77.2129 33.5059 77.3496 33.2246V31.9238H76.5C75.1719 31.9238 74.5078 32.3125 74.5078 33.0898C74.5078 33.4297 74.6211 33.6953 74.8477 33.8867C75.0742 34.0781 75.3652 34.1738 75.7207 34.1738Z" fill="#606060"/>
<path fill-rule="evenodd" clip-rule="evenodd" d="M438.633 29.6402C439.176 28.9889 438.713 28 437.865 28H432.135C431.287 28 430.824 28.9889 431.367 29.6402L434.232 33.0781C434.632 33.5579 435.368 33.5579 435.768 33.0781L438.633 29.6402Z" fill="#4B6C89"/>
<rect x="0.5" y="19.5" width="451" height="23" rx="3.5" stroke="#B7C4D0"/>
<path d="M0.907715 10V2.17969H3.11523C3.79557 2.17969 4.39714 2.33008 4.91992 2.63086C5.44271 2.93164 5.84554 3.35954 6.12842 3.91455C6.41488 4.46956 6.5599 5.10693 6.56348 5.82666V6.32617C6.56348 7.0638 6.42025 7.71012 6.13379 8.26514C5.85091 8.82015 5.4445 9.24626 4.91455 9.54346C4.38818 9.84066 3.77409 9.99284 3.07227 10H0.907715ZM1.93896 3.02832V9.15674H3.02393C3.81885 9.15674 4.43652 8.90967 4.87695 8.41553C5.32096 7.92139 5.54297 7.21777 5.54297 6.30469V5.84814C5.54297 4.96012 5.3335 4.27083 4.91455 3.78027C4.49919 3.28613 3.90837 3.03548 3.14209 3.02832H1.93896ZM9.05029 10H8.05664V4.18848H9.05029V10ZM7.97607 2.64697C7.97607 2.48584 8.02441 2.34977 8.12109 2.23877C8.22135 2.12777 8.36816 2.07227 8.56152 2.07227C8.75488 2.07227 8.90169 2.12777 9.00195 2.23877C9.10221 2.34977 9.15234 2.48584 9.15234 2.64697C9.15234 2.80811 9.10221 2.94238 9.00195 3.0498C8.90169 3.15723 8.75488 3.21094 8.56152 3.21094C8.36816 3.21094 8.22135 3.15723 8.12109 3.0498C8.02441 2.94238 7.97607 2.80811 7.97607 2.64697ZM14.0293 8.4585C14.0293 8.18994 13.9272 7.98226 13.7231 7.83545C13.5226 7.68506 13.1699 7.55615 12.665 7.44873C12.1637 7.34131 11.7645 7.2124 11.4673 7.06201C11.1737 6.91162 10.9552 6.73258 10.812 6.5249C10.6724 6.31722 10.6025 6.07015 10.6025 5.78369C10.6025 5.30745 10.8031 4.90462 11.2041 4.5752C11.6087 4.24577 12.1243 4.08105 12.751 4.08105C13.4098 4.08105 13.9434 4.25114 14.3516 4.59131C14.7633 4.93148 14.9692 5.36654 14.9692 5.89648H13.9702C13.9702 5.62435 13.8538 5.38981 13.6211 5.19287C13.3919 4.99593 13.1019 4.89746 12.751 4.89746C12.3893 4.89746 12.1064 4.97624 11.9023 5.13379C11.6982 5.29134 11.5962 5.49723 11.5962 5.75146C11.5962 5.99137 11.6911 6.1722 11.8809 6.29395C12.0706 6.41569 12.4126 6.53206 12.9067 6.64307C13.4045 6.75407 13.8073 6.88656 14.1152 7.04053C14.4232 7.1945 14.6506 7.3807 14.7974 7.59912C14.9478 7.81396 15.0229 8.07715 15.0229 8.38867C15.0229 8.90788 14.8153 9.32503 14.3999 9.64014C13.9845 9.95166 13.4456 10.1074 12.7832 10.1074C12.3177 10.1074 11.9059 10.0251 11.5479 9.86035C11.1898 9.69564 10.9087 9.46647 10.7046 9.17285C10.5041 8.87565 10.4038 8.55518 10.4038 8.21143H11.3975C11.4154 8.54443 11.5479 8.80941 11.7949 9.00635C12.0456 9.19971 12.375 9.29639 12.7832 9.29639C13.1592 9.29639 13.46 9.22119 13.6855 9.0708C13.9147 8.91683 14.0293 8.71273 14.0293 8.4585ZM19.9053 10C19.848 9.88542 19.8014 9.68132 19.7656 9.3877C19.3037 9.86751 18.7523 10.1074 18.1113 10.1074C17.5384 10.1074 17.0675 9.94629 16.6987 9.62402C16.3335 9.29818 16.1509 8.88639 16.1509 8.38867C16.1509 7.78353 16.38 7.31445 16.8384 6.98145C17.3003 6.64486 17.9484 6.47656 18.7827 6.47656H19.7495V6.02002C19.7495 5.67269 19.6457 5.39697 19.438 5.19287C19.2303 4.98519 18.9242 4.88135 18.5195 4.88135C18.165 4.88135 17.8678 4.97087 17.6279 5.1499C17.388 5.32894 17.2681 5.54557 17.2681 5.7998H16.269C16.269 5.50977 16.3711 5.23047 16.5752 4.96191C16.7829 4.68978 17.0622 4.47493 17.4131 4.31738C17.7676 4.15983 18.1561 4.08105 18.5786 4.08105C19.2482 4.08105 19.7728 4.24935 20.1523 4.58594C20.5319 4.91895 20.7288 5.37907 20.7432 5.96631V8.64111C20.7432 9.17464 20.8112 9.59896 20.9473 9.91406V10H19.9053ZM18.2563 9.24268C18.5679 9.24268 18.8633 9.16211 19.1426 9.00098C19.4219 8.83984 19.6242 8.63037 19.7495 8.37256V7.18018H18.9707C17.7533 7.18018 17.1445 7.53646 17.1445 8.24902C17.1445 8.56055 17.2484 8.80404 17.4561 8.97949C17.6637 9.15495 17.9305 9.24268 18.2563 9.24268ZM27.2207 7.15869C27.2207 8.04671 27.0166 8.76107 26.6084 9.30176C26.2002 9.83887 25.6523 10.1074 24.9648 10.1074C24.2308 10.1074 23.6632 9.84782 23.2622 9.32861L23.2139 10H22.3008V1.75H23.2944V4.82764C23.6955 4.32992 24.2487 4.08105 24.9541 4.08105C25.6595 4.08105 26.2127 4.34782 26.6138 4.88135C27.0184 5.41488 27.2207 6.14535 27.2207 7.07275V7.15869ZM26.2271 7.0459C26.2271 6.36914 26.0964 5.84635 25.835 5.47754C25.5736 5.10872 25.1976 4.92432 24.707 4.92432C24.0518 4.92432 23.5809 5.22868 23.2944 5.8374V8.35107C23.5988 8.9598 24.0732 9.26416 24.7178 9.26416C25.194 9.26416 25.5646 9.07975 25.8296 8.71094C26.0946 8.34212 26.2271 7.78711 26.2271 7.0459ZM29.5571 10H28.5635V1.75H29.5571V10ZM33.564 10.1074C32.7762 10.1074 32.1353 9.84961 31.6411 9.33398C31.147 8.81478 30.8999 8.12191 30.8999 7.25537V7.07275C30.8999 6.49626 31.0091 5.98242 31.2275 5.53125C31.4495 5.0765 31.7575 4.72201 32.1514 4.46777C32.5488 4.20996 32.9785 4.08105 33.4404 4.08105C34.196 4.08105 34.7832 4.32992 35.2021 4.82764C35.6211 5.32536 35.8306 6.03792 35.8306 6.96533V7.37891H31.8936C31.9079 7.95182 32.0744 8.41553 32.3931 8.77002C32.7153 9.12093 33.1235 9.29639 33.6177 9.29639C33.9686 9.29639 34.2658 9.22477 34.5093 9.08154C34.7528 8.93831 34.9658 8.74854 35.1484 8.51221L35.7554 8.98486C35.2684 9.73324 34.5379 10.1074 33.564 10.1074ZM33.4404 4.89746C33.0394 4.89746 32.7028 5.04427 32.4307 5.33789C32.1585 5.62793 31.9902 6.03613 31.9258 6.5625H34.8369V6.4873C34.8083 5.98242 34.6722 5.59212 34.4287 5.31641C34.1852 5.03711 33.8558 4.89746 33.4404 4.89746ZM36.7437 7.0459C36.7437 6.1543 36.9549 5.43815 37.3774 4.89746C37.8 4.35319 38.3532 4.08105 39.0371 4.08105C39.7174 4.08105 40.2563 4.3138 40.6538 4.7793V1.75H41.6475V10H40.7344L40.686 9.37695C40.2886 9.86393 39.7354 10.1074 39.0264 10.1074C38.3532 10.1074 37.8035 9.83171 37.3774 9.28027C36.9549 8.72884 36.7437 8.00911 36.7437 7.12109V7.0459ZM37.7373 7.15869C37.7373 7.81755 37.8734 8.33317 38.1455 8.70557C38.4176 9.07796 38.7936 9.26416 39.2734 9.26416C39.9036 9.26416 40.3638 8.98128 40.6538 8.41553V5.74609C40.3566 5.19824 39.9001 4.92432 39.2842 4.92432C38.7972 4.92432 38.4176 5.1123 38.1455 5.48828C37.8734 5.86426 37.7373 6.42106 37.7373 7.15869Z" fill="#6F89A1"/>
</svg>
