<svg width="322" height="24" viewBox="0 0 322 24" fill="none" xmlns="http://www.w3.org/2000/svg">
<path d="M0 12C0 5.37258 5.37258 0 12 0H310C316.627 0 322 5.37258 322 12V12C322 18.6274 316.627 24 310 24H12C5.37259 24 0 18.6274 0 12V12Z" fill="white"/>
<path fill-rule="evenodd" clip-rule="evenodd" d="M70.1822 13.7705L71.7197 15.308C72.0981 15.6998 72.0927 16.3225 71.7076 16.7076C71.3225 17.0927 70.6998 17.0981 70.308 16.7197L68.7705 15.1822C66.6266 16.6012 63.7563 16.1659 62.1296 14.1749C60.5029 12.1839 60.6486 9.28451 62.4665 7.46653C64.2845 5.64856 67.1839 5.50294 69.1749 7.12963C71.1659 8.75631 71.6012 11.6266 70.1822 13.7705ZM66.022 8.02677C64.3678 8.02677 63.0268 9.36776 63.0268 11.022C63.0268 12.6761 64.3678 14.0171 66.022 14.0171C67.6761 14.0171 69.0171 12.6761 69.0171 11.022C69.0171 9.36776 67.6761 8.02677 66.022 8.02677Z" fill="#93A7B8"/>
<path d="M82.7959 12.3804C81.7507 12.0799 80.9889 11.7118 80.5107 11.2759C80.0368 10.8358 79.7998 10.2941 79.7998 9.65088C79.7998 8.92301 80.0897 8.3221 80.6694 7.84814C81.2534 7.36995 82.0109 7.13086 82.9419 7.13086C83.5767 7.13086 84.1416 7.25358 84.6367 7.49902C85.1361 7.74447 85.5212 8.08301 85.792 8.51465C86.0671 8.94629 86.2046 9.41813 86.2046 9.93018H84.9795C84.9795 9.37158 84.8018 8.93359 84.4463 8.61621C84.0908 8.2946 83.5894 8.13379 82.9419 8.13379C82.341 8.13379 81.8713 8.26709 81.5327 8.53369C81.1984 8.79606 81.0312 9.16211 81.0312 9.63184C81.0312 10.0085 81.1899 10.328 81.5073 10.5903C81.8289 10.8485 82.3727 11.0854 83.1387 11.3013C83.9089 11.5171 84.5098 11.7562 84.9414 12.0186C85.3773 12.2767 85.6989 12.5793 85.9062 12.9263C86.1178 13.2733 86.2236 13.6816 86.2236 14.1514C86.2236 14.9004 85.9316 15.5013 85.3477 15.9541C84.7637 16.4027 83.9829 16.627 83.0054 16.627C82.3706 16.627 81.7782 16.5063 81.228 16.2651C80.6779 16.0197 80.2526 15.6854 79.9521 15.2622C79.6559 14.839 79.5078 14.3587 79.5078 13.8213H80.7329C80.7329 14.3799 80.9382 14.8221 81.3486 15.1479C81.7633 15.4696 82.3156 15.6304 83.0054 15.6304C83.6486 15.6304 84.1416 15.4992 84.4844 15.2368C84.8271 14.9744 84.9985 14.6169 84.9985 14.1641C84.9985 13.7113 84.8398 13.3621 84.5225 13.1167C84.2051 12.867 83.6296 12.6216 82.7959 12.3804ZM90.4575 16.627C89.5265 16.627 88.769 16.3223 88.1851 15.7129C87.6011 15.0993 87.3091 14.2804 87.3091 13.2563V13.0405C87.3091 12.3592 87.4382 11.752 87.6963 11.2188C87.9587 10.6813 88.3226 10.2624 88.7881 9.96191C89.2578 9.65723 89.7656 9.50488 90.3115 9.50488C91.2044 9.50488 91.8984 9.79899 92.3936 10.3872C92.8887 10.9754 93.1362 11.8175 93.1362 12.9136V13.4023H88.4834C88.5003 14.0794 88.6971 14.6274 89.0737 15.0464C89.4546 15.4611 89.937 15.6685 90.521 15.6685C90.9357 15.6685 91.2869 15.5838 91.5747 15.4146C91.8625 15.2453 92.1143 15.021 92.3301 14.7417L93.0474 15.3003C92.4718 16.1847 91.6086 16.627 90.4575 16.627ZM90.3115 10.4697C89.8376 10.4697 89.4398 10.6432 89.1182 10.9902C88.7965 11.333 88.5977 11.8154 88.5215 12.4375H91.9619V12.3486C91.9281 11.752 91.7673 11.2907 91.4795 10.9648C91.1917 10.6348 90.8024 10.4697 90.3115 10.4697ZM98.7412 16.5C98.6735 16.3646 98.6185 16.1234 98.5762 15.7764C98.0303 16.3434 97.3786 16.627 96.6211 16.627C95.944 16.627 95.3875 16.4365 94.9517 16.0557C94.52 15.6706 94.3042 15.1839 94.3042 14.5957C94.3042 13.8805 94.575 13.3262 95.1167 12.9326C95.6626 12.5348 96.4285 12.3359 97.4146 12.3359H98.5571V11.7964C98.5571 11.3859 98.4344 11.0601 98.189 10.8188C97.9435 10.5734 97.5817 10.4507 97.1035 10.4507C96.6846 10.4507 96.3333 10.5565 96.0498 10.7681C95.7663 10.9797 95.6245 11.2357 95.6245 11.5361H94.4438C94.4438 11.1934 94.5645 10.8633 94.8057 10.5459C95.0511 10.2243 95.3812 9.97038 95.7959 9.78418C96.2148 9.59798 96.674 9.50488 97.1733 9.50488C97.9647 9.50488 98.5846 9.70378 99.0332 10.1016C99.4818 10.4951 99.7145 11.0389 99.7314 11.7329V14.894C99.7314 15.5246 99.8118 16.026 99.9727 16.3984V16.5H98.7412ZM96.7925 15.605C97.1606 15.605 97.5098 15.5098 97.8398 15.3193C98.1699 15.1289 98.409 14.8813 98.5571 14.5767V13.1675H97.6367C96.1979 13.1675 95.4785 13.5885 95.4785 14.4307C95.4785 14.7988 95.6012 15.0866 95.8467 15.2939C96.0921 15.5013 96.4074 15.605 96.7925 15.605ZM104.892 10.6855C104.714 10.6559 104.522 10.6411 104.314 10.6411C103.544 10.6411 103.022 10.9691 102.747 11.625V16.5H101.572V9.63184H102.715L102.734 10.4253C103.119 9.81169 103.665 9.50488 104.372 9.50488C104.6 9.50488 104.774 9.53451 104.892 9.59375V10.6855ZM108.605 15.6685C109.024 15.6685 109.39 15.5415 109.704 15.2876C110.017 15.0337 110.19 14.7163 110.224 14.3354H111.335C111.314 14.729 111.178 15.1035 110.929 15.459C110.679 15.8145 110.345 16.098 109.926 16.3096C109.511 16.5212 109.071 16.627 108.605 16.627C107.67 16.627 106.925 16.3159 106.371 15.6938C105.821 15.0675 105.546 14.2127 105.546 13.1294V12.9326C105.546 12.264 105.669 11.6694 105.914 11.1489C106.16 10.6284 106.511 10.2243 106.968 9.93652C107.429 9.64876 107.973 9.50488 108.599 9.50488C109.369 9.50488 110.008 9.73551 110.516 10.1968C111.028 10.658 111.301 11.2568 111.335 11.9932H110.224C110.19 11.5488 110.021 11.1849 109.716 10.9014C109.416 10.6136 109.043 10.4697 108.599 10.4697C108.002 10.4697 107.539 10.6855 107.209 11.1172C106.883 11.5446 106.72 12.1646 106.72 12.9771V13.1992C106.72 13.9906 106.883 14.5999 107.209 15.0273C107.535 15.4548 108 15.6685 108.605 15.6685ZM113.83 10.4634C114.35 9.82438 115.027 9.50488 115.861 9.50488C117.312 9.50488 118.044 10.3237 118.057 11.9614V16.5H116.883V11.9551C116.879 11.46 116.764 11.0939 116.54 10.8569C116.32 10.62 115.975 10.5015 115.505 10.5015C115.125 10.5015 114.79 10.603 114.502 10.8062C114.215 11.0093 113.99 11.2759 113.83 11.606V16.5H112.655V6.75H113.83V10.4634ZM128.854 13.1421C128.854 14.1916 128.613 15.0358 128.131 15.6748C127.648 16.3096 127.001 16.627 126.188 16.627C125.321 16.627 124.65 16.3201 124.176 15.7065L124.119 16.5H123.04V6.75H124.214V10.3872C124.688 9.79899 125.342 9.50488 126.176 9.50488C127.009 9.50488 127.663 9.82015 128.137 10.4507C128.615 11.0812 128.854 11.9445 128.854 13.0405V13.1421ZM127.68 13.0088C127.68 12.209 127.526 11.5911 127.217 11.1553C126.908 10.7194 126.464 10.5015 125.884 10.5015C125.109 10.5015 124.553 10.8612 124.214 11.5806V14.5513C124.574 15.2707 125.135 15.6304 125.896 15.6304C126.459 15.6304 126.897 15.4124 127.21 14.9766C127.524 14.5407 127.68 13.8848 127.68 13.0088ZM132.511 14.7798L134.11 9.63184H135.367L132.606 17.5601C132.179 18.7026 131.499 19.2739 130.568 19.2739L130.346 19.2549L129.908 19.1724V18.2202L130.226 18.2456C130.623 18.2456 130.932 18.1652 131.152 18.0044C131.377 17.8436 131.561 17.5495 131.705 17.1221L131.965 16.4238L129.515 9.63184H130.797L132.511 14.7798ZM142.496 16.627C141.565 16.627 140.807 16.3223 140.223 15.7129C139.639 15.0993 139.347 14.2804 139.347 13.2563V13.0405C139.347 12.3592 139.476 11.752 139.734 11.2188C139.997 10.6813 140.361 10.2624 140.826 9.96191C141.296 9.65723 141.804 9.50488 142.35 9.50488C143.243 9.50488 143.937 9.79899 144.432 10.3872C144.927 10.9754 145.174 11.8175 145.174 12.9136V13.4023H140.521C140.538 14.0794 140.735 14.6274 141.112 15.0464C141.493 15.4611 141.975 15.6685 142.559 15.6685C142.974 15.6685 143.325 15.5838 143.613 15.4146C143.901 15.2453 144.152 15.021 144.368 14.7417L145.085 15.3003C144.51 16.1847 143.647 16.627 142.496 16.627ZM142.35 10.4697C141.876 10.4697 141.478 10.6432 141.156 10.9902C140.835 11.333 140.636 11.8154 140.56 12.4375H144V12.3486C143.966 11.752 143.805 11.2907 143.518 10.9648C143.23 10.6348 142.84 10.4697 142.35 10.4697ZM147.644 9.63184L147.675 10.3936C148.179 9.80111 148.858 9.50488 149.713 9.50488C150.674 9.50488 151.327 9.87305 151.674 10.6094C151.903 10.2793 152.199 10.0127 152.563 9.80957C152.931 9.60645 153.365 9.50488 153.864 9.50488C155.371 9.50488 156.137 10.3026 156.162 11.8979V16.5H154.988V11.9678C154.988 11.4769 154.876 11.1108 154.651 10.8696C154.427 10.6242 154.05 10.5015 153.521 10.5015C153.086 10.5015 152.724 10.6326 152.436 10.895C152.148 11.1532 151.981 11.5023 151.935 11.9424V16.5H150.754V11.9995C150.754 11.0008 150.265 10.5015 149.288 10.5015C148.517 10.5015 147.991 10.8294 147.707 11.4854V16.5H146.533V9.63184H147.644ZM163.741 13.1421C163.741 14.1873 163.502 15.0295 163.024 15.6685C162.546 16.3075 161.898 16.627 161.082 16.627C160.248 16.627 159.592 16.3625 159.114 15.8335V19.1406H157.939V9.63184H159.012L159.069 10.3936C159.548 9.80111 160.212 9.50488 161.062 9.50488C161.888 9.50488 162.539 9.81592 163.018 10.438C163.5 11.0601 163.741 11.9255 163.741 13.0342V13.1421ZM162.567 13.0088C162.567 12.2344 162.402 11.6229 162.072 11.1743C161.742 10.7257 161.289 10.5015 160.713 10.5015C160.002 10.5015 159.469 10.8167 159.114 11.4473V14.729C159.465 15.3553 160.002 15.6685 160.726 15.6685C161.289 15.6685 161.735 15.4463 162.065 15.002C162.4 14.5534 162.567 13.889 162.567 13.0088ZM166.515 16.5H165.341V6.75H166.515V16.5ZM168.089 13.0024C168.089 12.3296 168.221 11.7244 168.483 11.187C168.75 10.6496 169.118 10.2349 169.587 9.94287C170.061 9.65088 170.601 9.50488 171.206 9.50488C172.141 9.50488 172.897 9.82861 173.472 10.4761C174.052 11.1235 174.342 11.9847 174.342 13.0596V13.1421C174.342 13.8107 174.213 14.4116 173.955 14.9448C173.701 15.4738 173.335 15.8864 172.856 16.1826C172.382 16.4788 171.837 16.627 171.219 16.627C170.288 16.627 169.532 16.3032 168.953 15.6558C168.377 15.0083 168.089 14.1514 168.089 13.085V13.0024ZM169.27 13.1421C169.27 13.9038 169.446 14.5153 169.797 14.9766C170.152 15.4378 170.626 15.6685 171.219 15.6685C171.815 15.6685 172.289 15.4357 172.641 14.9702C172.992 14.5005 173.167 13.8446 173.167 13.0024C173.167 12.2492 172.988 11.6398 172.628 11.1743C172.272 10.7046 171.799 10.4697 171.206 10.4697C170.626 10.4697 170.159 10.7004 169.803 11.1616C169.448 11.6229 169.27 12.283 169.27 13.1421ZM177.96 14.7798L179.56 9.63184H180.816L178.055 17.5601C177.628 18.7026 176.949 19.2739 176.018 19.2739L175.795 19.2549L175.357 19.1724V18.2202L175.675 18.2456C176.073 18.2456 176.382 18.1652 176.602 18.0044C176.826 17.8436 177.01 17.5495 177.154 17.1221L177.414 16.4238L174.964 9.63184H176.246L177.96 14.7798ZM184.631 16.627C183.7 16.627 182.943 16.3223 182.359 15.7129C181.775 15.0993 181.483 14.2804 181.483 13.2563V13.0405C181.483 12.3592 181.612 11.752 181.87 11.2188C182.132 10.6813 182.496 10.2624 182.962 9.96191C183.432 9.65723 183.939 9.50488 184.485 9.50488C185.378 9.50488 186.072 9.79899 186.567 10.3872C187.062 10.9754 187.31 11.8175 187.31 12.9136V13.4023H182.657C182.674 14.0794 182.871 14.6274 183.248 15.0464C183.628 15.4611 184.111 15.6685 184.695 15.6685C185.11 15.6685 185.461 15.5838 185.749 15.4146C186.036 15.2453 186.288 15.021 186.504 14.7417L187.221 15.3003C186.646 16.1847 185.782 16.627 184.631 16.627ZM184.485 10.4697C184.011 10.4697 183.614 10.6432 183.292 10.9902C182.97 11.333 182.771 11.8154 182.695 12.4375H186.136V12.3486C186.102 11.752 185.941 11.2907 185.653 10.9648C185.366 10.6348 184.976 10.4697 184.485 10.4697ZM191.525 16.627C190.594 16.627 189.836 16.3223 189.252 15.7129C188.668 15.0993 188.376 14.2804 188.376 13.2563V13.0405C188.376 12.3592 188.506 11.752 188.764 11.2188C189.026 10.6813 189.39 10.2624 189.855 9.96191C190.325 9.65723 190.833 9.50488 191.379 9.50488C192.272 9.50488 192.966 9.79899 193.461 10.3872C193.956 10.9754 194.204 11.8175 194.204 12.9136V13.4023H189.551C189.568 14.0794 189.764 14.6274 190.141 15.0464C190.522 15.4611 191.004 15.6685 191.588 15.6685C192.003 15.6685 192.354 15.5838 192.642 15.4146C192.93 15.2453 193.182 15.021 193.397 14.7417L194.115 15.3003C193.539 16.1847 192.676 16.627 191.525 16.627ZM191.379 10.4697C190.905 10.4697 190.507 10.6432 190.186 10.9902C189.864 11.333 189.665 11.8154 189.589 12.4375H193.029V12.3486C192.995 11.752 192.835 11.2907 192.547 10.9648C192.259 10.6348 191.87 10.4697 191.379 10.4697ZM200.285 16.5H199.066V7.25781H200.285V16.5ZM202.519 16.5V7.25781H205.128C205.932 7.25781 206.643 7.43555 207.261 7.79102C207.879 8.14648 208.355 8.65218 208.689 9.30811C209.028 9.96403 209.199 10.7173 209.203 11.5679V12.1582C209.203 13.0299 209.034 13.7938 208.695 14.4497C208.361 15.1056 207.881 15.6092 207.254 15.9604C206.632 16.3117 205.907 16.4915 205.077 16.5H202.519ZM203.738 8.26074V15.5034H205.02C205.959 15.5034 206.689 15.2114 207.21 14.6274C207.735 14.0435 207.997 13.2119 207.997 12.1328V11.5933C207.997 10.5438 207.75 9.72917 207.254 9.14941C206.764 8.56543 206.065 8.26921 205.16 8.26074H203.738ZM213.78 13.0024C213.78 12.3296 213.911 11.7244 214.173 11.187C214.44 10.6496 214.808 10.2349 215.278 9.94287C215.752 9.65088 216.291 9.50488 216.896 9.50488C217.832 9.50488 218.587 9.82861 219.163 10.4761C219.742 11.1235 220.032 11.9847 220.032 13.0596V13.1421C220.032 13.8107 219.903 14.4116 219.645 14.9448C219.391 15.4738 219.025 15.8864 218.547 16.1826C218.073 16.4788 217.527 16.627 216.909 16.627C215.978 16.627 215.223 16.3032 214.643 15.6558C214.068 15.0083 213.78 14.1514 213.78 13.085V13.0024ZM214.96 13.1421C214.96 13.9038 215.136 14.5153 215.487 14.9766C215.843 15.4378 216.317 15.6685 216.909 15.6685C217.506 15.6685 217.98 15.4357 218.331 14.9702C218.682 14.5005 218.858 13.8446 218.858 13.0024C218.858 12.2492 218.678 11.6398 218.318 11.1743C217.963 10.7046 217.489 10.4697 216.896 10.4697C216.317 10.4697 215.849 10.7004 215.494 11.1616C215.138 11.6229 214.96 12.283 214.96 13.1421ZM224.825 10.6855C224.647 10.6559 224.454 10.6411 224.247 10.6411C223.477 10.6411 222.954 10.9691 222.679 11.625V16.5H221.505V9.63184H222.647L222.667 10.4253C223.052 9.81169 223.597 9.50488 224.304 9.50488C224.533 9.50488 224.706 9.53451 224.825 9.59375V10.6855ZM230.246 9.63184L230.284 10.4951C230.808 9.83496 231.494 9.50488 232.34 9.50488C233.792 9.50488 234.524 10.3237 234.537 11.9614V16.5H233.362V11.9551C233.358 11.46 233.244 11.0939 233.02 10.8569C232.799 10.62 232.455 10.5015 231.985 10.5015C231.604 10.5015 231.27 10.603 230.982 10.8062C230.694 11.0093 230.47 11.2759 230.309 11.606V16.5H229.135V9.63184H230.246ZM240.548 16.5C240.48 16.3646 240.425 16.1234 240.383 15.7764C239.837 16.3434 239.185 16.627 238.428 16.627C237.751 16.627 237.194 16.4365 236.758 16.0557C236.327 15.6706 236.111 15.1839 236.111 14.5957C236.111 13.8805 236.382 13.3262 236.923 12.9326C237.469 12.5348 238.235 12.3359 239.221 12.3359H240.364V11.7964C240.364 11.3859 240.241 11.0601 239.996 10.8188C239.75 10.5734 239.388 10.4507 238.91 10.4507C238.491 10.4507 238.14 10.5565 237.856 10.7681C237.573 10.9797 237.431 11.2357 237.431 11.5361H236.25C236.25 11.1934 236.371 10.8633 236.612 10.5459C236.858 10.2243 237.188 9.97038 237.603 9.78418C238.021 9.59798 238.481 9.50488 238.98 9.50488C239.771 9.50488 240.391 9.70378 240.84 10.1016C241.288 10.4951 241.521 11.0389 241.538 11.7329V14.894C241.538 15.5246 241.618 16.026 241.779 16.3984V16.5H240.548ZM238.599 15.605C238.967 15.605 239.316 15.5098 239.646 15.3193C239.977 15.1289 240.216 14.8813 240.364 14.5767V13.1675H239.443C238.005 13.1675 237.285 13.5885 237.285 14.4307C237.285 14.7988 237.408 15.0866 237.653 15.2939C237.899 15.5013 238.214 15.605 238.599 15.605ZM244.483 9.63184L244.515 10.3936C245.019 9.80111 245.698 9.50488 246.553 9.50488C247.513 9.50488 248.167 9.87305 248.514 10.6094C248.743 10.2793 249.039 10.0127 249.403 9.80957C249.771 9.60645 250.205 9.50488 250.704 9.50488C252.211 9.50488 252.977 10.3026 253.002 11.8979V16.5H251.828V11.9678C251.828 11.4769 251.715 11.1108 251.491 10.8696C251.267 10.6242 250.89 10.5015 250.361 10.5015C249.925 10.5015 249.564 10.6326 249.276 10.895C248.988 11.1532 248.821 11.5023 248.774 11.9424V16.5H247.594V11.9995C247.594 11.0008 247.105 10.5015 246.127 10.5015C245.357 10.5015 244.83 10.8294 244.547 11.4854V16.5H243.373V9.63184H244.483ZM257.629 16.627C256.698 16.627 255.941 16.3223 255.357 15.7129C254.773 15.0993 254.481 14.2804 254.481 13.2563V13.0405C254.481 12.3592 254.61 11.752 254.868 11.2188C255.131 10.6813 255.494 10.2624 255.96 9.96191C256.43 9.65723 256.938 9.50488 257.483 9.50488C258.376 9.50488 259.07 9.79899 259.565 10.3872C260.061 10.9754 260.308 11.8175 260.308 12.9136V13.4023H255.655C255.672 14.0794 255.869 14.6274 256.246 15.0464C256.626 15.4611 257.109 15.6685 257.693 15.6685C258.108 15.6685 258.459 15.5838 258.747 15.4146C259.034 15.2453 259.286 15.021 259.502 14.7417L260.219 15.3003C259.644 16.1847 258.78 16.627 257.629 16.627ZM257.483 10.4697C257.009 10.4697 256.612 10.6432 256.29 10.9902C255.968 11.333 255.77 11.8154 255.693 12.4375H259.134V12.3486C259.1 11.752 258.939 11.2907 258.651 10.9648C258.364 10.6348 257.974 10.4697 257.483 10.4697Z" fill="#93A7B8"/>
<path d="M12 1H310V-1H12V1ZM310 23H12V25H310V23ZM12 23C5.92487 23 1 18.0751 1 12H-1C-1 19.1797 4.8203 25 12 25V23ZM321 12C321 18.0751 316.075 23 310 23V25C317.18 25 323 19.1797 323 12H321ZM310 1C316.075 1 321 5.92487 321 12H323C323 4.8203 317.18 -1 310 -1V1ZM12 -1C4.8203 -1 -1 4.8203 -1 12H1C1 5.92487 5.92487 1 12 1V-1Z" fill="#B7C4D0"/>
</svg>
