<svg width="76" height="24" viewBox="0 0 76 24" fill="none" xmlns="http://www.w3.org/2000/svg">
<path d="M0 12C0 5.37258 5.37258 0 12 0H64C70.6274 0 76 5.37258 76 12V12C76 18.6274 70.6274 24 64 24H12C5.37258 24 0 18.6274 0 12V12Z" fill="url(#paint0_linear)"/>
<path fill-rule="evenodd" clip-rule="evenodd" d="M18 8H16V11H13V13H16V16H18V13H21V11H18V8Z" fill="#9AC6FF"/>
<path d="M32.4668 16H26.7305V15.0215L29.5723 11.9219C29.9824 11.4648 30.2734 11.084 30.4453 10.7793C30.6211 10.4707 30.709 10.1621 30.709 9.85352C30.709 9.44727 30.5938 9.11914 30.3633 8.86914C30.1367 8.61914 29.8301 8.49414 29.4434 8.49414C28.9824 8.49414 28.625 8.63477 28.3711 8.91602C28.1172 9.19727 27.9902 9.58203 27.9902 10.0703H26.5664C26.5664 9.55078 26.6836 9.08398 26.918 8.66992C27.1562 8.25195 27.4941 7.92773 27.9316 7.69727C28.373 7.4668 28.8809 7.35156 29.4551 7.35156C30.2832 7.35156 30.9355 7.56055 31.4121 7.97852C31.8926 8.39258 32.1328 8.9668 32.1328 9.70117C32.1328 10.127 32.0117 10.5742 31.7695 11.043C31.5312 11.5078 31.1387 12.0371 30.5918 12.6309L28.5059 14.8633H32.4668V16ZM38.3672 12.959H39.4277V14.1016H38.3672V16H36.9434V14.1016H33.2578L33.2168 13.2344L36.8965 7.46875H38.3672V12.959ZM34.7109 12.959H36.9434V9.39648L36.8379 9.58398L34.7109 12.959ZM45.0703 14.8164H48.9434V16H43.5879V7.46875H45.0703V14.8164ZM52.7344 16.1172C51.832 16.1172 51.0996 15.834 50.5371 15.2676C49.9785 14.6973 49.6992 13.9395 49.6992 12.9941V12.8184C49.6992 12.1855 49.8203 11.6211 50.0625 11.125C50.3086 10.625 50.6523 10.2363 51.0938 9.95898C51.5352 9.68164 52.0273 9.54297 52.5703 9.54297C53.4336 9.54297 54.0996 9.81836 54.5684 10.3691C55.041 10.9199 55.2773 11.6992 55.2773 12.707V13.2812H51.1348C51.1777 13.8047 51.3516 14.2188 51.6562 14.5234C51.9648 14.8281 52.3516 14.9805 52.8164 14.9805C53.4688 14.9805 54 14.7168 54.4102 14.1895L55.1777 14.9219C54.9238 15.3008 54.584 15.5957 54.1582 15.8066C53.7363 16.0137 53.2617 16.1172 52.7344 16.1172ZM52.5645 10.6855C52.1738 10.6855 51.8574 10.8223 51.6152 11.0957C51.377 11.3691 51.2246 11.75 51.1582 12.2383H53.8711V12.1328C53.8398 11.6562 53.7129 11.2969 53.4902 11.0547C53.2676 10.8086 52.959 10.6855 52.5645 10.6855ZM56.8887 16V10.7148H55.9219V9.66016H56.8887V9.08008C56.8887 8.37695 57.084 7.83398 57.4746 7.45117C57.8652 7.06836 58.4121 6.87695 59.1152 6.87695C59.3652 6.87695 59.6309 6.91211 59.9121 6.98242L59.877 8.0957C59.7207 8.06445 59.5391 8.04883 59.332 8.04883C58.6523 8.04883 58.3125 8.39844 58.3125 9.09766V9.66016H59.6016V10.7148H58.3125V16H56.8887ZM62.4258 8.11914V9.66016H63.5449V10.7148H62.4258V14.2539C62.4258 14.4961 62.4727 14.6719 62.5664 14.7812C62.6641 14.8867 62.8359 14.9395 63.082 14.9395C63.2461 14.9395 63.4121 14.9199 63.5801 14.8809V15.9824C63.2559 16.0723 62.9434 16.1172 62.6426 16.1172C61.5488 16.1172 61.002 15.5137 61.002 14.3066V10.7148H59.959V9.66016H61.002V8.11914H62.4258Z" fill="#9AC6FF"/>
<path d="M12 1H64V-1H12V1ZM64 23H12V25H64V23ZM12 23C5.92487 23 1 18.0751 1 12H-1C-1 19.1797 4.8203 25 12 25V23ZM75 12C75 18.0751 70.0751 23 64 23V25C71.1797 25 77 19.1797 77 12H75ZM64 1C70.0751 1 75 5.92487 75 12H77C77 4.8203 71.1797 -1 64 -1V1ZM12 -1C4.8203 -1 -1 4.8203 -1 12H1C1 5.92487 5.92487 1 12 1V-1Z" fill="#9AC6FF"/>
<defs>
<linearGradient id="paint0_linear" x1="0" y1="12" x2="76" y2="12" gradientUnits="userSpaceOnUse">
<stop stop-color="#F7FAFF"/>
<stop offset="1" stop-color="#F7FAFF"/>
</linearGradient>
</defs>
</svg>
