<svg width="95" height="28" viewBox="0 0 95 28" fill="none" xmlns="http://www.w3.org/2000/svg">
<path d="M0 14C0 6.26801 6.26801 0 14 0H81C88.732 0 95 6.26801 95 14V14C95 21.732 88.732 28 81 28H14C6.26801 28 0 21.732 0 14V14Z" fill="#F6F7F9"/>
<path d="M23.2153 18H17.001V16.9399L20.0796 13.582C20.5239 13.0869 20.8392 12.6743 21.0254 12.3442C21.2158 12.0099 21.311 11.6756 21.311 11.3413C21.311 10.9012 21.1862 10.5457 20.9365 10.2749C20.6911 10.0041 20.3589 9.86865 19.9399 9.86865C19.4406 9.86865 19.0534 10.021 18.7783 10.3257C18.5033 10.6304 18.3657 11.0472 18.3657 11.5762H16.8232C16.8232 11.0133 16.9502 10.5076 17.2041 10.0591C17.4622 9.60628 17.8283 9.25505 18.3022 9.00537C18.7804 8.7557 19.3306 8.63086 19.9526 8.63086C20.8498 8.63086 21.5565 8.85726 22.0728 9.31006C22.5933 9.75863 22.8535 10.3807 22.8535 11.1763C22.8535 11.6375 22.7223 12.1221 22.46 12.6299C22.2018 13.1335 21.7765 13.7069 21.1841 14.3501L18.9243 16.7686H23.2153V18ZM30.2104 11.1953C30.2104 11.6481 30.0941 12.0522 29.8613 12.4077C29.6286 12.759 29.3112 13.0361 28.9092 13.2393C29.3916 13.4635 29.7619 13.7703 30.02 14.1597C30.2824 14.549 30.4136 14.9891 30.4136 15.48C30.4136 16.2925 30.1385 16.9378 29.5884 17.416C29.0382 17.89 28.3062 18.127 27.3921 18.127C26.4738 18.127 25.7375 17.8879 25.1831 17.4097C24.633 16.9315 24.3579 16.2882 24.3579 15.48C24.3579 14.9849 24.4891 14.5405 24.7515 14.147C25.0138 13.7534 25.382 13.4508 25.856 13.2393C25.4582 13.0361 25.1429 12.759 24.9102 12.4077C24.6816 12.0522 24.5674 11.6481 24.5674 11.1953C24.5674 10.4082 24.8213 9.78402 25.3291 9.32275C25.8369 8.86149 26.5225 8.63086 27.3857 8.63086C28.2533 8.63086 28.9409 8.86149 29.4487 9.32275C29.9565 9.78402 30.2104 10.4082 30.2104 11.1953ZM28.8711 15.4038C28.8711 14.9468 28.7336 14.5786 28.4585 14.2993C28.1877 14.0158 27.828 13.874 27.3794 13.874C26.9308 13.874 26.5711 14.0137 26.3003 14.293C26.0337 14.5723 25.9004 14.9425 25.9004 15.4038C25.9004 15.8566 26.0316 16.2184 26.2939 16.4893C26.5605 16.7601 26.9266 16.8955 27.3921 16.8955C27.8576 16.8955 28.2194 16.7643 28.4775 16.502C28.7399 16.2396 28.8711 15.8735 28.8711 15.4038ZM28.6743 11.2524C28.6743 10.8504 28.5579 10.5203 28.3252 10.2622C28.0924 9.99984 27.7793 9.86865 27.3857 9.86865C26.9922 9.86865 26.6812 9.99349 26.4526 10.2432C26.2241 10.4886 26.1099 10.825 26.1099 11.2524C26.1099 11.6756 26.2241 12.012 26.4526 12.2617C26.6854 12.5114 26.9985 12.6362 27.3921 12.6362C27.7856 12.6362 28.0967 12.5114 28.3252 12.2617C28.5579 12.012 28.6743 11.6756 28.6743 11.2524ZM38.6592 14.439H36.8691V18H35.2632V8.75781H38.5132C39.5796 8.75781 40.4027 8.99691 40.9824 9.4751C41.5622 9.95329 41.8521 10.6452 41.8521 11.5508C41.8521 12.1686 41.7018 12.687 41.4014 13.106C41.1051 13.5207 40.6904 13.8402 40.1572 14.0645L42.2329 17.9175V18H40.5127L38.6592 14.439ZM36.8691 13.1504H38.5195C39.0612 13.1504 39.4844 13.015 39.7891 12.7441C40.0938 12.4691 40.2461 12.0946 40.2461 11.6206C40.2461 11.1255 40.1043 10.7425 39.8208 10.4717C39.5415 10.2008 39.1226 10.0612 38.564 10.0527H36.8691V13.1504ZM44.8672 18H43.3247V11.1318H44.8672V18ZM43.2295 9.34814C43.2295 9.11117 43.3035 8.91439 43.4517 8.75781C43.604 8.60124 43.8198 8.52295 44.0991 8.52295C44.3784 8.52295 44.5942 8.60124 44.7466 8.75781C44.8989 8.91439 44.9751 9.11117 44.9751 9.34814C44.9751 9.58089 44.8989 9.77555 44.7466 9.93213C44.5942 10.0845 44.3784 10.1606 44.0991 10.1606C43.8198 10.1606 43.604 10.0845 43.4517 9.93213C43.3035 9.77555 43.2295 9.58089 43.2295 9.34814ZM46.2827 14.5151C46.2827 13.4487 46.5324 12.5981 47.0317 11.9634C47.5353 11.3244 48.2018 11.0049 49.0312 11.0049C49.8141 11.0049 50.4299 11.2778 50.8784 11.8237L50.9482 11.1318H52.3384V17.7905C52.3384 18.6919 52.057 19.4028 51.4941 19.9233C50.9355 20.4438 50.1802 20.7041 49.228 20.7041C48.7244 20.7041 48.2314 20.5983 47.749 20.3867C47.2708 20.1794 46.9069 19.9064 46.6572 19.5679L47.3872 18.6411C47.8612 19.2039 48.4451 19.4854 49.1392 19.4854C49.6512 19.4854 50.0553 19.3457 50.3516 19.0664C50.6478 18.7913 50.7959 18.3851 50.7959 17.8477V17.3843C50.3516 17.8794 49.7591 18.127 49.0186 18.127C48.2145 18.127 47.5565 17.8075 47.0444 17.1685C46.5366 16.5295 46.2827 15.645 46.2827 14.5151ZM47.8188 14.6484C47.8188 15.3382 47.9585 15.882 48.2378 16.2798C48.5213 16.6733 48.9128 16.8701 49.4121 16.8701C50.0342 16.8701 50.4954 16.6035 50.7959 16.0703V13.0488C50.5039 12.5283 50.0469 12.2681 49.4248 12.2681C48.917 12.2681 48.5213 12.4691 48.2378 12.8711C47.9585 13.2731 47.8188 13.8656 47.8188 14.6484ZM55.4487 11.8809C55.9523 11.2969 56.5892 11.0049 57.3594 11.0049C58.8236 11.0049 59.5662 11.8407 59.5874 13.5122V18H58.0449V13.5693C58.0449 13.0954 57.9412 12.7611 57.7339 12.5664C57.5308 12.3675 57.2303 12.2681 56.8325 12.2681C56.2147 12.2681 55.7534 12.5431 55.4487 13.0933V18H53.9062V8.25H55.4487V11.8809ZM63.085 9.4624V11.1318H64.2974V12.2744H63.085V16.1084C63.085 16.3708 63.1357 16.5612 63.2373 16.6797C63.3431 16.7939 63.5293 16.8511 63.7959 16.8511C63.9736 16.8511 64.1535 16.8299 64.3354 16.7876V17.981C63.9842 18.0783 63.6457 18.127 63.3198 18.127C62.1349 18.127 61.5425 17.4731 61.5425 16.1655V12.2744H60.4126V11.1318H61.5425V9.4624H63.085Z" fill="#93A7B8"/>
<path fill-rule="evenodd" clip-rule="evenodd" d="M75 10H73V13H70V15H73V18H75V15H78V13H75V10Z" fill="#93A7B8"/>
<path d="M14 1H81V-1H14V1ZM81 27H14V29H81V27ZM14 27C6.8203 27 1 21.1797 1 14H-1C-1 22.2843 5.71573 29 14 29V27ZM94 14C94 21.1797 88.1797 27 81 27V29C89.2843 29 96 22.2843 96 14H94ZM81 1C88.1797 1 94 6.8203 94 14H96C96 5.71573 89.2843 -1 81 -1V1ZM14 -1C5.71573 -1 -1 5.71573 -1 14H1C1 6.8203 6.8203 1 14 1V-1Z" fill="#B7C4D0"/>
</svg>
