<svg width="94" height="28" viewBox="0 0 94 28" fill="none" xmlns="http://www.w3.org/2000/svg">
<path d="M0 14C0 6.26801 6.26801 0 14 0H80C87.732 0 94 6.26801 94 14V14C94 21.732 87.732 28 80 28H14C6.26801 28 0 21.732 0 14V14Z" fill="#358DFF"/>
<path d="M23.2803 18H17.0659V16.9399L20.1445 13.582C20.5889 13.0869 20.9041 12.6743 21.0903 12.3442C21.2808 12.0099 21.376 11.6756 21.376 11.3413C21.376 10.9012 21.2511 10.5457 21.0015 10.2749C20.756 10.0041 20.4238 9.86865 20.0049 9.86865C19.5055 9.86865 19.1183 10.021 18.8433 10.3257C18.5682 10.6304 18.4307 11.0472 18.4307 11.5762H16.8882C16.8882 11.0133 17.0151 10.5076 17.269 10.0591C17.5272 9.60628 17.8932 9.25505 18.3672 9.00537C18.8454 8.7557 19.3955 8.63086 20.0176 8.63086C20.9147 8.63086 21.6214 8.85726 22.1377 9.31006C22.6582 9.75863 22.9185 10.3807 22.9185 11.1763C22.9185 11.6375 22.7873 12.1221 22.5249 12.6299C22.2668 13.1335 21.8415 13.7069 21.249 14.3501L18.9893 16.7686H23.2803V18ZM30.2754 11.1953C30.2754 11.6481 30.159 12.0522 29.9263 12.4077C29.6935 12.759 29.3761 13.0361 28.9741 13.2393C29.4565 13.4635 29.8268 13.7703 30.085 14.1597C30.3473 14.549 30.4785 14.9891 30.4785 15.48C30.4785 16.2925 30.2035 16.9378 29.6533 17.416C29.1032 17.89 28.3711 18.127 27.457 18.127C26.5387 18.127 25.8024 17.8879 25.248 17.4097C24.6979 16.9315 24.4229 16.2882 24.4229 15.48C24.4229 14.9849 24.554 14.5405 24.8164 14.147C25.0788 13.7534 25.4469 13.4508 25.9209 13.2393C25.5231 13.0361 25.2078 12.759 24.9751 12.4077C24.7466 12.0522 24.6323 11.6481 24.6323 11.1953C24.6323 10.4082 24.8862 9.78402 25.394 9.32275C25.9019 8.86149 26.5874 8.63086 27.4507 8.63086C28.3182 8.63086 29.0059 8.86149 29.5137 9.32275C30.0215 9.78402 30.2754 10.4082 30.2754 11.1953ZM28.936 15.4038C28.936 14.9468 28.7985 14.5786 28.5234 14.2993C28.2526 14.0158 27.8929 13.874 27.4443 13.874C26.9958 13.874 26.6361 14.0137 26.3652 14.293C26.0986 14.5723 25.9653 14.9425 25.9653 15.4038C25.9653 15.8566 26.0965 16.2184 26.3589 16.4893C26.6255 16.7601 26.9915 16.8955 27.457 16.8955C27.9225 16.8955 28.2843 16.7643 28.5425 16.502C28.8049 16.2396 28.936 15.8735 28.936 15.4038ZM28.7393 11.2524C28.7393 10.8504 28.6229 10.5203 28.3901 10.2622C28.1574 9.99984 27.8442 9.86865 27.4507 9.86865C27.0571 9.86865 26.7461 9.99349 26.5176 10.2432C26.2891 10.4886 26.1748 10.825 26.1748 11.2524C26.1748 11.6756 26.2891 12.012 26.5176 12.2617C26.7503 12.5114 27.0635 12.6362 27.457 12.6362C27.8506 12.6362 28.1616 12.5114 28.3901 12.2617C28.6229 12.012 28.7393 11.6756 28.7393 11.2524ZM40.1587 15.6196C40.1587 15.2134 40.0148 14.9002 39.7271 14.6802C39.4435 14.4601 38.9294 14.238 38.1846 14.0137C37.4398 13.7894 36.8473 13.5397 36.4072 13.2646C35.5651 12.7357 35.144 12.0459 35.144 11.1953C35.144 10.4505 35.4466 9.83691 36.0518 9.35449C36.6611 8.87207 37.4504 8.63086 38.4194 8.63086C39.0627 8.63086 39.6361 8.74935 40.1396 8.98633C40.6432 9.22331 41.0389 9.56185 41.3267 10.002C41.6144 10.4378 41.7583 10.9224 41.7583 11.4556H40.1587C40.1587 10.9731 40.0063 10.5965 39.7017 10.3257C39.4012 10.0506 38.9696 9.91309 38.4067 9.91309C37.882 9.91309 37.4736 10.0252 37.1816 10.2495C36.8939 10.4738 36.75 10.7869 36.75 11.189C36.75 11.5275 36.9066 11.811 37.2197 12.0396C37.5329 12.2638 38.0492 12.4839 38.7686 12.6997C39.488 12.9113 40.0656 13.1546 40.5015 13.4297C40.9373 13.7005 41.2568 14.0137 41.46 14.3691C41.6631 14.7204 41.7646 15.133 41.7646 15.6069C41.7646 16.3771 41.4684 16.9907 40.876 17.4478C40.2878 17.9006 39.488 18.127 38.4766 18.127C37.8079 18.127 37.1922 18.0042 36.6294 17.7588C36.0708 17.5091 35.6349 17.1663 35.3218 16.7305C35.0129 16.2946 34.8584 15.7868 34.8584 15.207H36.4644C36.4644 15.7318 36.6379 16.138 36.9849 16.4258C37.3319 16.7135 37.8291 16.8574 38.4766 16.8574C39.0352 16.8574 39.4541 16.7453 39.7334 16.521C40.0169 16.2925 40.1587 15.992 40.1587 15.6196ZM42.7358 14.5024C42.7358 13.8296 42.8691 13.2244 43.1357 12.687C43.4023 12.1453 43.7769 11.7306 44.2593 11.4429C44.7417 11.1509 45.2961 11.0049 45.9224 11.0049C46.8491 11.0049 47.6003 11.3032 48.1758 11.8999C48.7555 12.4966 49.0687 13.2879 49.1152 14.2739L49.1216 14.6357C49.1216 15.3128 48.9904 15.918 48.728 16.4512C48.4699 16.9844 48.0975 17.397 47.6108 17.689C47.1284 17.981 46.5698 18.127 45.9351 18.127C44.966 18.127 44.1895 17.8053 43.6055 17.1621C43.0257 16.5146 42.7358 15.6535 42.7358 14.5786V14.5024ZM44.2783 14.6357C44.2783 15.3424 44.4243 15.8968 44.7163 16.2988C45.0083 16.6966 45.4146 16.8955 45.9351 16.8955C46.4556 16.8955 46.8597 16.6924 47.1475 16.2861C47.4395 15.8799 47.5854 15.2853 47.5854 14.5024C47.5854 13.8084 47.4352 13.2583 47.1348 12.8521C46.8385 12.4458 46.4344 12.2427 45.9224 12.2427C45.4188 12.2427 45.0189 12.4437 44.7227 12.8457C44.4264 13.2435 44.2783 13.8402 44.2783 14.6357ZM52.0669 18H50.5244V8.25H52.0669V18ZM55.3931 18H53.8506V11.1318H55.3931V18ZM53.7554 9.34814C53.7554 9.11117 53.8294 8.91439 53.9775 8.75781C54.1299 8.60124 54.3457 8.52295 54.625 8.52295C54.9043 8.52295 55.1201 8.60124 55.2725 8.75781C55.4248 8.91439 55.501 9.11117 55.501 9.34814C55.501 9.58089 55.4248 9.77555 55.2725 9.93213C55.1201 10.0845 54.9043 10.1606 54.625 10.1606C54.3457 10.1606 54.1299 10.0845 53.9775 9.93213C53.8294 9.77555 53.7554 9.58089 53.7554 9.34814ZM56.7896 14.5151C56.7896 13.4572 57.035 12.6087 57.5259 11.9697C58.0168 11.3265 58.6748 11.0049 59.5 11.0049C60.2279 11.0049 60.8161 11.2588 61.2646 11.7666V8.25H62.8071V18H61.4106L61.3345 17.2891C60.8732 17.8477 60.2575 18.127 59.4873 18.127C58.6833 18.127 58.0316 17.8032 57.5322 17.1558C57.0371 16.5083 56.7896 15.6281 56.7896 14.5151ZM58.332 14.6484C58.332 15.3467 58.4653 15.8926 58.7319 16.2861C59.0028 16.6755 59.3857 16.8701 59.8809 16.8701C60.5114 16.8701 60.9727 16.5887 61.2646 16.0259V13.0933C60.9811 12.5431 60.5241 12.2681 59.8936 12.2681C59.3942 12.2681 59.0091 12.467 58.7383 12.8647C58.4674 13.2583 58.332 13.8529 58.332 14.6484Z" fill="white"/>
<path fill-rule="evenodd" clip-rule="evenodd" d="M74 10H72V13H69V15H72V18H74V15H77V13H74V10Z" fill="white"/>
</svg>
