<svg width="200" height="24" viewBox="0 0 200 24" fill="none" xmlns="http://www.w3.org/2000/svg">
<path d="M0 4C0 1.79086 1.79086 0 4 0H196C198.209 0 200 1.79086 200 4V20C200 22.2091 198.209 24 196 24H4C1.79086 24 0 22.2091 0 20V4Z" fill="#F6F7F9"/>
<path d="M12.9902 16V7.46875H15.3984C16.1406 7.46875 16.7969 7.63281 17.3672 7.96094C17.9375 8.28906 18.377 8.75586 18.6855 9.36133C18.998 9.9668 19.1562 10.6621 19.1602 11.4473V11.9922C19.1602 12.7969 19.0039 13.502 18.6914 14.1074C18.3828 14.7129 17.9395 15.1777 17.3613 15.502C16.7871 15.8262 16.1172 15.9922 15.3516 16H12.9902ZM14.1152 8.39453V15.0801H15.2988C16.166 15.0801 16.8398 14.8105 17.3203 14.2715C17.8047 13.7324 18.0469 12.9648 18.0469 11.9688V11.4707C18.0469 10.502 17.8184 9.75 17.3613 9.21484C16.9082 8.67578 16.2637 8.40234 15.4277 8.39453H14.1152ZM21.873 16H20.7891V9.66016H21.873V16ZM20.7012 7.97852C20.7012 7.80273 20.7539 7.6543 20.8594 7.5332C20.9688 7.41211 21.1289 7.35156 21.3398 7.35156C21.5508 7.35156 21.7109 7.41211 21.8203 7.5332C21.9297 7.6543 21.9844 7.80273 21.9844 7.97852C21.9844 8.1543 21.9297 8.30078 21.8203 8.41797C21.7109 8.53516 21.5508 8.59375 21.3398 8.59375C21.1289 8.59375 20.9688 8.53516 20.8594 8.41797C20.7539 8.30078 20.7012 8.1543 20.7012 7.97852ZM27.3047 14.3184C27.3047 14.0254 27.1934 13.7988 26.9707 13.6387C26.752 13.4746 26.3672 13.334 25.8164 13.2168C25.2695 13.0996 24.834 12.959 24.5098 12.7949C24.1895 12.6309 23.9512 12.4355 23.7949 12.209C23.6426 11.9824 23.5664 11.7129 23.5664 11.4004C23.5664 10.8809 23.7852 10.4414 24.2227 10.082C24.6641 9.72266 25.2266 9.54297 25.9102 9.54297C26.6289 9.54297 27.2109 9.72852 27.6562 10.0996C28.1055 10.4707 28.3301 10.9453 28.3301 11.5234H27.2402C27.2402 11.2266 27.1133 10.9707 26.8594 10.7559C26.6094 10.541 26.293 10.4336 25.9102 10.4336C25.5156 10.4336 25.207 10.5195 24.9844 10.6914C24.7617 10.8633 24.6504 11.0879 24.6504 11.3652C24.6504 11.627 24.7539 11.8242 24.9609 11.957C25.168 12.0898 25.541 12.2168 26.0801 12.3379C26.623 12.459 27.0625 12.6035 27.3984 12.7715C27.7344 12.9395 27.9824 13.1426 28.1426 13.3809C28.3066 13.6152 28.3887 13.9023 28.3887 14.2422C28.3887 14.8086 28.1621 15.2637 27.709 15.6074C27.2559 15.9473 26.668 16.1172 25.9453 16.1172C25.4375 16.1172 24.9883 16.0273 24.5977 15.8477C24.207 15.668 23.9004 15.418 23.6777 15.0977C23.459 14.7734 23.3496 14.4238 23.3496 14.0488H24.4336C24.4531 14.4121 24.5977 14.7012 24.8672 14.916C25.1406 15.127 25.5 15.2324 25.9453 15.2324C26.3555 15.2324 26.6836 15.1504 26.9297 14.9863C27.1797 14.8184 27.3047 14.5957 27.3047 14.3184ZM33.7148 16C33.6523 15.875 33.6016 15.6523 33.5625 15.332C33.0586 15.8555 32.457 16.1172 31.7578 16.1172C31.1328 16.1172 30.6191 15.9414 30.2168 15.5898C29.8184 15.2344 29.6191 14.7852 29.6191 14.2422C29.6191 13.582 29.8691 13.0703 30.3691 12.707C30.873 12.3398 31.5801 12.1562 32.4902 12.1562H33.5449V11.6582C33.5449 11.2793 33.4316 10.9785 33.2051 10.7559C32.9785 10.5293 32.6445 10.416 32.2031 10.416C31.8164 10.416 31.4922 10.5137 31.2305 10.709C30.9688 10.9043 30.8379 11.1406 30.8379 11.418H29.748C29.748 11.1016 29.8594 10.7969 30.082 10.5039C30.3086 10.207 30.6133 9.97266 30.9961 9.80078C31.3828 9.62891 31.8066 9.54297 32.2676 9.54297C32.998 9.54297 33.5703 9.72656 33.9844 10.0938C34.3984 10.457 34.6133 10.959 34.6289 11.5996V14.5176C34.6289 15.0996 34.7031 15.5625 34.8516 15.9062V16H33.7148ZM31.916 15.1738C32.2559 15.1738 32.5781 15.0859 32.8828 14.9102C33.1875 14.7344 33.4082 14.5059 33.5449 14.2246V12.9238H32.6953C31.3672 12.9238 30.7031 13.3125 30.7031 14.0898C30.7031 14.4297 30.8164 14.6953 31.043 14.8867C31.2695 15.0781 31.5605 15.1738 31.916 15.1738ZM41.6953 12.9004C41.6953 13.8691 41.4727 14.6484 41.0273 15.2383C40.582 15.8242 39.9844 16.1172 39.2344 16.1172C38.4336 16.1172 37.8145 15.834 37.377 15.2676L37.3242 16H36.3281V7H37.4121V10.3574C37.8496 9.81445 38.4531 9.54297 39.2227 9.54297C39.9922 9.54297 40.5957 9.83398 41.0332 10.416C41.4746 10.998 41.6953 11.7949 41.6953 12.8066V12.9004ZM40.6113 12.7773C40.6113 12.0391 40.4688 11.4688 40.1836 11.0664C39.8984 10.6641 39.4883 10.4629 38.9531 10.4629C38.2383 10.4629 37.7246 10.7949 37.4121 11.459V14.2012C37.7441 14.8652 38.2617 15.1973 38.9648 15.1973C39.4844 15.1973 39.8887 14.9961 40.1777 14.5938C40.4668 14.1914 40.6113 13.5859 40.6113 12.7773ZM44.2441 16H43.1602V7H44.2441V16ZM48.6152 16.1172C47.7559 16.1172 47.0566 15.8359 46.5176 15.2734C45.9785 14.707 45.709 13.9512 45.709 13.0059V12.8066C45.709 12.1777 45.8281 11.6172 46.0664 11.125C46.3086 10.6289 46.6445 10.2422 47.0742 9.96484C47.5078 9.68359 47.9766 9.54297 48.4805 9.54297C49.3047 9.54297 49.9453 9.81445 50.4023 10.3574C50.8594 10.9004 51.0879 11.6777 51.0879 12.6895V13.1406H46.793C46.8086 13.7656 46.9902 14.2715 47.3379 14.6582C47.6895 15.041 48.1348 15.2324 48.6738 15.2324C49.0566 15.2324 49.3809 15.1543 49.6465 14.998C49.9121 14.8418 50.1445 14.6348 50.3438 14.377L51.0059 14.8926C50.4746 15.709 49.6777 16.1172 48.6152 16.1172ZM48.4805 10.4336C48.043 10.4336 47.6758 10.5938 47.3789 10.9141C47.082 11.2305 46.8984 11.6758 46.8281 12.25H50.0039V12.168C49.9727 11.6172 49.8242 11.1914 49.5586 10.8906C49.293 10.5859 48.9336 10.4336 48.4805 10.4336ZM52.084 12.7773C52.084 11.8047 52.3145 11.0234 52.7754 10.4336C53.2363 9.83984 53.8398 9.54297 54.5859 9.54297C55.3281 9.54297 55.916 9.79688 56.3496 10.3047V7H57.4336V16H56.4375L56.3848 15.3203C55.9512 15.8516 55.3477 16.1172 54.5742 16.1172C53.8398 16.1172 53.2402 15.8164 52.7754 15.2148C52.3145 14.6133 52.084 13.8281 52.084 12.8594V12.7773ZM53.168 12.9004C53.168 13.6191 53.3164 14.1816 53.6133 14.5879C53.9102 14.9941 54.3203 15.1973 54.8438 15.1973C55.5312 15.1973 56.0332 14.8887 56.3496 14.2715V11.3594C56.0254 10.7617 55.5273 10.4629 54.8555 10.4629C54.3242 10.4629 53.9102 10.668 53.6133 11.0781C53.3164 11.4883 53.168 12.0957 53.168 12.9004Z" fill="#606060"/>
<path d="M4 1H196V-1H4V1ZM199 4V20H201V4H199ZM196 23H4V25H196V23ZM1 20V4H-1V20H1ZM4 23C2.34314 23 1 21.6569 1 20H-1C-1 22.7614 1.23857 25 4 25V23ZM199 20C199 21.6569 197.657 23 196 23V25C198.761 25 201 22.7614 201 20H199ZM196 1C197.657 1 199 2.34314 199 4H201C201 1.23858 198.761 -1 196 -1V1ZM4 -1C1.23858 -1 -1 1.23858 -1 4H1C1 2.34315 2.34315 1 4 1V-1Z" fill="#B7C4D0"/>
</svg>
