<svg width="83" height="24" viewBox="0 0 83 24" fill="none" xmlns="http://www.w3.org/2000/svg">
<path d="M18.5449 16H12.8086V15.0215L15.6504 11.9219C16.0605 11.4648 16.3516 11.084 16.5234 10.7793C16.6992 10.4707 16.7871 10.1621 16.7871 9.85352C16.7871 9.44727 16.6719 9.11914 16.4414 8.86914C16.2148 8.61914 15.9082 8.49414 15.5215 8.49414C15.0605 8.49414 14.7031 8.63477 14.4492 8.91602C14.1953 9.19727 14.0684 9.58203 14.0684 10.0703H12.6445C12.6445 9.55078 12.7617 9.08398 12.9961 8.66992C13.2344 8.25195 13.5723 7.92773 14.0098 7.69727C14.4512 7.4668 14.959 7.35156 15.5332 7.35156C16.3613 7.35156 17.0137 7.56055 17.4902 7.97852C17.9707 8.39258 18.2109 8.9668 18.2109 9.70117C18.2109 10.127 18.0898 10.5742 17.8477 11.043C17.6094 11.5078 17.2168 12.0371 16.6699 12.6309L14.584 14.8633H18.5449V16ZM24.4453 12.959H25.5059V14.1016H24.4453V16H23.0215V14.1016H19.3359L19.2949 13.2344L22.9746 7.46875H24.4453V12.959ZM20.7891 12.959H23.0215V9.39648L22.916 9.58398L20.7891 12.959ZM32.8008 12.7129H31.1484V16H29.666V7.46875H32.666C33.6504 7.46875 34.4102 7.68945 34.9453 8.13086C35.4805 8.57227 35.748 9.21094 35.748 10.0469C35.748 10.6172 35.6094 11.0957 35.332 11.4824C35.0586 11.8652 34.6758 12.1602 34.1836 12.3672L36.0996 15.9238V16H34.5117L32.8008 12.7129ZM31.1484 11.5234H32.6719C33.1719 11.5234 33.5625 11.3984 33.8438 11.1484C34.125 10.8945 34.2656 10.5488 34.2656 10.1113C34.2656 9.6543 34.1348 9.30078 33.873 9.05078C33.6152 8.80078 33.2285 8.67188 32.7129 8.66406H31.1484V11.5234ZM38.5312 16H37.1074V9.66016H38.5312V16ZM37.0195 8.01367C37.0195 7.79492 37.0879 7.61328 37.2246 7.46875C37.3652 7.32422 37.5645 7.25195 37.8223 7.25195C38.0801 7.25195 38.2793 7.32422 38.4199 7.46875C38.5605 7.61328 38.6309 7.79492 38.6309 8.01367C38.6309 8.22852 38.5605 8.4082 38.4199 8.55273C38.2793 8.69336 38.0801 8.76367 37.8223 8.76367C37.5645 8.76367 37.3652 8.69336 37.2246 8.55273C37.0879 8.4082 37.0195 8.22852 37.0195 8.01367ZM39.8379 12.7832C39.8379 11.7988 40.0684 11.0137 40.5293 10.4277C40.9941 9.83789 41.6094 9.54297 42.375 9.54297C43.0977 9.54297 43.666 9.79492 44.0801 10.2988L44.1445 9.66016H45.4277V15.8066C45.4277 16.6387 45.168 17.2949 44.6484 17.7754C44.1328 18.2559 43.4355 18.4961 42.5566 18.4961C42.0918 18.4961 41.6367 18.3984 41.1914 18.2031C40.75 18.0117 40.4141 17.7598 40.1836 17.4473L40.8574 16.5918C41.2949 17.1113 41.834 17.3711 42.4746 17.3711C42.9473 17.3711 43.3203 17.2422 43.5938 16.9844C43.8672 16.7305 44.0039 16.3555 44.0039 15.8594V15.4316C43.5938 15.8887 43.0469 16.1172 42.3633 16.1172C41.6211 16.1172 41.0137 15.8223 40.541 15.2324C40.0723 14.6426 39.8379 13.8262 39.8379 12.7832ZM41.2559 12.9062C41.2559 13.543 41.3848 14.0449 41.6426 14.4121C41.9043 14.7754 42.2656 14.957 42.7266 14.957C43.3008 14.957 43.7266 14.7109 44.0039 14.2188V11.4297C43.7344 10.9492 43.3125 10.709 42.7383 10.709C42.2695 10.709 41.9043 10.8945 41.6426 11.2656C41.3848 11.6367 41.2559 12.1836 41.2559 12.9062ZM48.2988 10.3516C48.7637 9.8125 49.3516 9.54297 50.0625 9.54297C51.4141 9.54297 52.0996 10.3145 52.1191 11.8574V16H50.6953V11.9102C50.6953 11.4727 50.5996 11.1641 50.4082 10.9844C50.2207 10.8008 49.9434 10.709 49.5762 10.709C49.0059 10.709 48.5801 10.9629 48.2988 11.4707V16H46.875V7H48.2988V10.3516ZM55.3477 8.11914V9.66016H56.4668V10.7148H55.3477V14.2539C55.3477 14.4961 55.3945 14.6719 55.4883 14.7812C55.5859 14.8867 55.7578 14.9395 56.0039 14.9395C56.168 14.9395 56.334 14.9199 56.502 14.8809V15.9824C56.1777 16.0723 55.8652 16.1172 55.5645 16.1172C54.4707 16.1172 53.9238 15.5137 53.9238 14.3066V10.7148H52.8809V9.66016H53.9238V8.11914H55.3477Z" fill="#0371FF"/>
<path fill-rule="evenodd" clip-rule="evenodd" d="M67 8H65V11H62V13H65V16H67V13H70V11H67V8Z" fill="#0371FF"/>
<path d="M12 1H71V-1H12V1ZM71 23H12V25H71V23ZM12 23C5.92487 23 1 18.0751 1 12H-1C-1 19.1797 4.8203 25 12 25V23ZM82 12C82 18.0751 77.0751 23 71 23V25C78.1797 25 84 19.1797 84 12H82ZM71 1C77.0751 1 82 5.92487 82 12H84C84 4.8203 78.1797 -1 71 -1V1ZM12 -1C4.8203 -1 -1 4.8203 -1 12H1C1 5.92487 5.92487 1 12 1V-1Z" fill="#0371FF"/>
</svg>
