<svg width="84" height="24" viewBox="0 0 84 24" fill="none" xmlns="http://www.w3.org/2000/svg">
<path d="M0 12C0 5.37258 5.37258 0 12 0H72C78.6274 0 84 5.37258 84 12V12C84 18.6274 78.6274 24 72 24H12C5.37258 24 0 18.6274 0 12V12Z" fill="#4B6C89"/>
<path fill-rule="evenodd" clip-rule="evenodd" d="M22 8H20V11H17V13H20V16H22V13H25V11H22V8Z" fill="#FBFCFD"/>
<path d="M36.4668 16H30.7305V15.0215L33.5723 11.9219C33.9824 11.4648 34.2734 11.084 34.4453 10.7793C34.6211 10.4707 34.709 10.1621 34.709 9.85352C34.709 9.44727 34.5938 9.11914 34.3633 8.86914C34.1367 8.61914 33.8301 8.49414 33.4434 8.49414C32.9824 8.49414 32.625 8.63477 32.3711 8.91602C32.1172 9.19727 31.9902 9.58203 31.9902 10.0703H30.5664C30.5664 9.55078 30.6836 9.08398 30.918 8.66992C31.1562 8.25195 31.4941 7.92773 31.9316 7.69727C32.373 7.4668 32.8809 7.35156 33.4551 7.35156C34.2832 7.35156 34.9355 7.56055 35.4121 7.97852C35.8926 8.39258 36.1328 8.9668 36.1328 9.70117C36.1328 10.127 36.0117 10.5742 35.7695 11.043C35.5312 11.5078 35.1387 12.0371 34.5918 12.6309L32.5059 14.8633H36.4668V16ZM42.3672 12.959H43.4277V14.1016H42.3672V16H40.9434V14.1016H37.2578L37.2168 13.2344L40.8965 7.46875H42.3672V12.959ZM38.7109 12.959H40.9434V9.39648L40.8379 9.58398L38.7109 12.959ZM49.0703 14.8164H52.9434V16H47.5879V7.46875H49.0703V14.8164ZM56.7344 16.1172C55.832 16.1172 55.0996 15.834 54.5371 15.2676C53.9785 14.6973 53.6992 13.9395 53.6992 12.9941V12.8184C53.6992 12.1855 53.8203 11.6211 54.0625 11.125C54.3086 10.625 54.6523 10.2363 55.0938 9.95898C55.5352 9.68164 56.0273 9.54297 56.5703 9.54297C57.4336 9.54297 58.0996 9.81836 58.5684 10.3691C59.041 10.9199 59.2773 11.6992 59.2773 12.707V13.2812H55.1348C55.1777 13.8047 55.3516 14.2188 55.6562 14.5234C55.9648 14.8281 56.3516 14.9805 56.8164 14.9805C57.4688 14.9805 58 14.7168 58.4102 14.1895L59.1777 14.9219C58.9238 15.3008 58.584 15.5957 58.1582 15.8066C57.7363 16.0137 57.2617 16.1172 56.7344 16.1172ZM56.5645 10.6855C56.1738 10.6855 55.8574 10.8223 55.6152 11.0957C55.377 11.3691 55.2246 11.75 55.1582 12.2383H57.8711V12.1328C57.8398 11.6562 57.7129 11.2969 57.4902 11.0547C57.2676 10.8086 56.959 10.6855 56.5645 10.6855ZM60.8887 16V10.7148H59.9219V9.66016H60.8887V9.08008C60.8887 8.37695 61.084 7.83398 61.4746 7.45117C61.8652 7.06836 62.4121 6.87695 63.1152 6.87695C63.3652 6.87695 63.6309 6.91211 63.9121 6.98242L63.877 8.0957C63.7207 8.06445 63.5391 8.04883 63.332 8.04883C62.6523 8.04883 62.3125 8.39844 62.3125 9.09766V9.66016H63.6016V10.7148H62.3125V16H60.8887ZM66.4258 8.11914V9.66016H67.5449V10.7148H66.4258V14.2539C66.4258 14.4961 66.4727 14.6719 66.5664 14.7812C66.6641 14.8867 66.8359 14.9395 67.082 14.9395C67.2461 14.9395 67.4121 14.9199 67.5801 14.8809V15.9824C67.2559 16.0723 66.9434 16.1172 66.6426 16.1172C65.5488 16.1172 65.002 15.5137 65.002 14.3066V10.7148H63.959V9.66016H65.002V8.11914H66.4258Z" fill="#FBFCFD"/>
</svg>
