<svg width="97" height="36" viewBox="0 0 97 36" fill="none" xmlns="http://www.w3.org/2000/svg">
<path d="M0 18C0 8.05887 8.05887 0 18 0H79C88.9411 0 97 8.05887 97 18V18C97 27.9411 88.9411 36 79 36H18C8.05888 36 0 27.9411 0 18V18Z" fill="#005BD1"/>
<path fill-rule="evenodd" clip-rule="evenodd" d="M23 12H21V17H16V19H21V24H23V19H28V17H23V12Z" fill="white"/>
<path d="M39.1064 17.2646H40.1182C40.6286 17.2601 41.0319 17.1279 41.3281 16.8682C41.6289 16.6084 41.7793 16.2324 41.7793 15.7402C41.7793 15.2663 41.654 14.8994 41.4033 14.6396C41.1572 14.3753 40.779 14.2432 40.2686 14.2432C39.8219 14.2432 39.4551 14.373 39.168 14.6328C38.8809 14.888 38.7373 15.223 38.7373 15.6377H37.0762C37.0762 15.1273 37.2106 14.6624 37.4795 14.2432C37.7529 13.8239 38.1312 13.498 38.6143 13.2656C39.1019 13.0286 39.6465 12.9102 40.248 12.9102C41.2415 12.9102 42.0208 13.1608 42.5859 13.6621C43.1556 14.1589 43.4404 14.8516 43.4404 15.7402C43.4404 16.1868 43.2969 16.6084 43.0098 17.0049C42.7272 17.3968 42.3604 17.693 41.9092 17.8936C42.4561 18.0804 42.8708 18.3743 43.1533 18.7754C43.4404 19.1764 43.584 19.6549 43.584 20.2109C43.584 21.1042 43.2764 21.8151 42.6611 22.3438C42.0505 22.8724 41.2461 23.1367 40.248 23.1367C39.291 23.1367 38.5072 22.8815 37.8965 22.3711C37.2858 21.8607 36.9805 21.1816 36.9805 20.334H38.6416C38.6416 20.7715 38.7874 21.127 39.0791 21.4004C39.3753 21.6738 39.7718 21.8105 40.2686 21.8105C40.7835 21.8105 41.1891 21.6738 41.4854 21.4004C41.7816 21.127 41.9297 20.7305 41.9297 20.2109C41.9297 19.6868 41.7747 19.2835 41.4648 19.001C41.1549 18.7184 40.6947 18.5771 40.084 18.5771H39.1064V17.2646ZM50.3105 12.999V14.373H50.1055C49.1758 14.3867 48.4329 14.6419 47.877 15.1387C47.321 15.6354 46.9906 16.3395 46.8857 17.251C47.4189 16.6904 48.1003 16.4102 48.9297 16.4102C49.8092 16.4102 50.502 16.7201 51.0078 17.3398C51.5182 17.9596 51.7734 18.7594 51.7734 19.7393C51.7734 20.751 51.4749 21.5713 50.8779 22.2002C50.2855 22.8245 49.5062 23.1367 48.54 23.1367C47.5465 23.1367 46.7399 22.7699 46.1201 22.0361C45.5049 21.3024 45.1973 20.3408 45.1973 19.1514V18.584C45.1973 16.8385 45.6211 15.4714 46.4688 14.4824C47.321 13.4935 48.5446 12.999 50.1396 12.999H50.3105ZM48.5264 17.75C48.1618 17.75 47.8268 17.8525 47.5215 18.0576C47.2207 18.2627 46.9997 18.5361 46.8584 18.8779V19.3838C46.8584 20.1221 47.0133 20.71 47.3232 21.1475C47.6331 21.5804 48.0342 21.7969 48.5264 21.7969C49.0186 21.7969 49.4082 21.6123 49.6953 21.2432C49.9824 20.874 50.126 20.3887 50.126 19.7871C50.126 19.1855 49.9801 18.6956 49.6885 18.3174C49.3968 17.9391 49.0094 17.75 48.5264 17.75ZM58.582 21.6191H63.1006V23H56.8525V13.0469H58.582V21.6191ZM67.5234 23.1367C66.4707 23.1367 65.6162 22.8063 64.96 22.1455C64.3083 21.4801 63.9824 20.596 63.9824 19.4932V19.2881C63.9824 18.5498 64.1237 17.8913 64.4062 17.3125C64.6934 16.7292 65.0944 16.2757 65.6094 15.9521C66.1243 15.6286 66.6986 15.4668 67.332 15.4668C68.3392 15.4668 69.1162 15.7881 69.6631 16.4307C70.2145 17.0732 70.4902 17.9824 70.4902 19.1582V19.8281H65.6572C65.7074 20.4388 65.9102 20.9219 66.2656 21.2773C66.6257 21.6328 67.0768 21.8105 67.6191 21.8105C68.3802 21.8105 69 21.5029 69.4785 20.8877L70.374 21.7422C70.0778 22.1842 69.6813 22.5283 69.1846 22.7744C68.6924 23.016 68.1387 23.1367 67.5234 23.1367ZM67.3252 16.7998C66.8695 16.7998 66.5003 16.9593 66.2178 17.2783C65.9398 17.5973 65.762 18.0417 65.6846 18.6113H68.8496V18.4883C68.8132 17.9323 68.665 17.513 68.4053 17.2305C68.1455 16.9434 67.7855 16.7998 67.3252 16.7998ZM72.3701 23V16.834H71.2422V15.6035H72.3701V14.9268C72.3701 14.1064 72.598 13.473 73.0537 13.0264C73.5094 12.5798 74.1475 12.3564 74.9678 12.3564C75.2594 12.3564 75.5693 12.3975 75.8975 12.4795L75.8564 13.7783C75.6742 13.7419 75.4622 13.7236 75.2207 13.7236C74.4277 13.7236 74.0312 14.1315 74.0312 14.9473V15.6035H75.5352V16.834H74.0312V23H72.3701ZM78.8301 13.8057V15.6035H80.1357V16.834H78.8301V20.9629C78.8301 21.2454 78.8848 21.4505 78.9941 21.5781C79.1081 21.7012 79.3086 21.7627 79.5957 21.7627C79.7871 21.7627 79.9808 21.7399 80.1768 21.6943V22.9795C79.7985 23.0843 79.4339 23.1367 79.083 23.1367C77.807 23.1367 77.1689 22.4326 77.1689 21.0244V16.834H75.9521V15.6035H77.1689V13.8057H78.8301Z" fill="white"/>
</svg>
