<svg width="452" height="47" viewBox="0 0 452 47" fill="none" xmlns="http://www.w3.org/2000/svg">
<rect x="0.5" y="19.5" width="451" height="27" rx="3.5" fill="white"/>
<path d="M14.1152 33.6602V37H12.9902V28.4688H16.1367C17.0703 28.4688 17.8008 28.707 18.3281 29.1836C18.8594 29.6602 19.125 30.291 19.125 31.0762C19.125 31.9043 18.8652 32.543 18.3457 32.9922C17.8301 33.4375 17.0898 33.6602 16.125 33.6602H14.1152ZM14.1152 32.7402H16.1367C16.7383 32.7402 17.1992 32.5996 17.5195 32.3184C17.8398 32.0332 18 31.623 18 31.0879C18 30.5801 17.8398 30.1738 17.5195 29.8691C17.1992 29.5645 16.7598 29.4062 16.2012 29.3945H14.1152V32.7402ZM21.5684 37H20.4844V28H21.5684V37ZM25.9395 37.1172C25.0801 37.1172 24.3809 36.8359 23.8418 36.2734C23.3027 35.707 23.0332 34.9512 23.0332 34.0059V33.8066C23.0332 33.1777 23.1523 32.6172 23.3906 32.125C23.6328 31.6289 23.9688 31.2422 24.3984 30.9648C24.832 30.6836 25.3008 30.543 25.8047 30.543C26.6289 30.543 27.2695 30.8145 27.7266 31.3574C28.1836 31.9004 28.4121 32.6777 28.4121 33.6895V34.1406H24.1172C24.1328 34.7656 24.3145 35.2715 24.6621 35.6582C25.0137 36.041 25.459 36.2324 25.998 36.2324C26.3809 36.2324 26.7051 36.1543 26.9707 35.998C27.2363 35.8418 27.4688 35.6348 27.668 35.377L28.3301 35.8926C27.7988 36.709 27.002 37.1172 25.9395 37.1172ZM25.8047 31.4336C25.3672 31.4336 25 31.5938 24.7031 31.9141C24.4062 32.2305 24.2227 32.6758 24.1523 33.25H27.3281V33.168C27.2969 32.6172 27.1484 32.1914 26.8828 31.8906C26.6172 31.5859 26.2578 31.4336 25.8047 31.4336ZM33.5859 37C33.5234 36.875 33.4727 36.6523 33.4336 36.332C32.9297 36.8555 32.3281 37.1172 31.6289 37.1172C31.0039 37.1172 30.4902 36.9414 30.0879 36.5898C29.6895 36.2344 29.4902 35.7852 29.4902 35.2422C29.4902 34.582 29.7402 34.0703 30.2402 33.707C30.7441 33.3398 31.4512 33.1562 32.3613 33.1562H33.416V32.6582C33.416 32.2793 33.3027 31.9785 33.0762 31.7559C32.8496 31.5293 32.5156 31.416 32.0742 31.416C31.6875 31.416 31.3633 31.5137 31.1016 31.709C30.8398 31.9043 30.709 32.1406 30.709 32.418H29.6191C29.6191 32.1016 29.7305 31.7969 29.9531 31.5039C30.1797 31.207 30.4844 30.9727 30.8672 30.8008C31.2539 30.6289 31.6777 30.543 32.1387 30.543C32.8691 30.543 33.4414 30.7266 33.8555 31.0938C34.2695 31.457 34.4844 31.959 34.5 32.5996V35.5176C34.5 36.0996 34.5742 36.5625 34.7227 36.9062V37H33.5859ZM31.7871 36.1738C32.127 36.1738 32.4492 36.0859 32.7539 35.9102C33.0586 35.7344 33.2793 35.5059 33.416 35.2246V33.9238H32.5664C31.2383 33.9238 30.5742 34.3125 30.5742 35.0898C30.5742 35.4297 30.6875 35.6953 30.9141 35.8867C31.1406 36.0781 31.4316 36.1738 31.7871 36.1738ZM39.8906 35.3184C39.8906 35.0254 39.7793 34.7988 39.5566 34.6387C39.3379 34.4746 38.9531 34.334 38.4023 34.2168C37.8555 34.0996 37.4199 33.959 37.0957 33.7949C36.7754 33.6309 36.5371 33.4355 36.3809 33.209C36.2285 32.9824 36.1523 32.7129 36.1523 32.4004C36.1523 31.8809 36.3711 31.4414 36.8086 31.082C37.25 30.7227 37.8125 30.543 38.4961 30.543C39.2148 30.543 39.7969 30.7285 40.2422 31.0996C40.6914 31.4707 40.916 31.9453 40.916 32.5234H39.8262C39.8262 32.2266 39.6992 31.9707 39.4453 31.7559C39.1953 31.541 38.8789 31.4336 38.4961 31.4336C38.1016 31.4336 37.793 31.5195 37.5703 31.6914C37.3477 31.8633 37.2363 32.0879 37.2363 32.3652C37.2363 32.627 37.3398 32.8242 37.5469 32.957C37.7539 33.0898 38.127 33.2168 38.666 33.3379C39.209 33.459 39.6484 33.6035 39.9844 33.7715C40.3203 33.9395 40.5684 34.1426 40.7285 34.3809C40.8926 34.6152 40.9746 34.9023 40.9746 35.2422C40.9746 35.8086 40.748 36.2637 40.2949 36.6074C39.8418 36.9473 39.2539 37.1172 38.5312 37.1172C38.0234 37.1172 37.5742 37.0273 37.1836 36.8477C36.793 36.668 36.4863 36.418 36.2637 36.0977C36.0449 35.7734 35.9355 35.4238 35.9355 35.0488H37.0195C37.0391 35.4121 37.1836 35.7012 37.4531 35.916C37.7266 36.127 38.0859 36.2324 38.5312 36.2324C38.9414 36.2324 39.2695 36.1504 39.5156 35.9863C39.7656 35.8184 39.8906 35.5957 39.8906 35.3184ZM45.0176 37.1172C44.1582 37.1172 43.459 36.8359 42.9199 36.2734C42.3809 35.707 42.1113 34.9512 42.1113 34.0059V33.8066C42.1113 33.1777 42.2305 32.6172 42.4688 32.125C42.7109 31.6289 43.0469 31.2422 43.4766 30.9648C43.9102 30.6836 44.3789 30.543 44.8828 30.543C45.707 30.543 46.3477 30.8145 46.8047 31.3574C47.2617 31.9004 47.4902 32.6777 47.4902 33.6895V34.1406H43.1953C43.2109 34.7656 43.3926 35.2715 43.7402 35.6582C44.0918 36.041 44.5371 36.2324 45.0762 36.2324C45.459 36.2324 45.7832 36.1543 46.0488 35.998C46.3145 35.8418 46.5469 35.6348 46.7461 35.377L47.4082 35.8926C46.877 36.709 46.0801 37.1172 45.0176 37.1172ZM44.8828 31.4336C44.4453 31.4336 44.0781 31.5938 43.7812 31.9141C43.4844 32.2305 43.3008 32.6758 43.2305 33.25H46.4062V33.168C46.375 32.6172 46.2266 32.1914 45.9609 31.8906C45.6953 31.5859 45.3359 31.4336 44.8828 31.4336ZM56.7188 33.0566H53.0215V36.0801H57.3164V37H51.8965V28.4688H57.2578V29.3945H53.0215V32.1367H56.7188V33.0566ZM59.5723 30.6602L59.6074 31.457C60.0918 30.8477 60.7246 30.543 61.5059 30.543C62.8457 30.543 63.5215 31.2988 63.5332 32.8105V37H62.4492V32.8047C62.4453 32.3477 62.3398 32.0098 62.1328 31.791C61.9297 31.5723 61.6113 31.4629 61.1777 31.4629C60.8262 31.4629 60.5176 31.5566 60.252 31.7441C59.9863 31.9316 59.7793 32.1777 59.6309 32.4824V37H58.5469V30.6602H59.5723ZM66.6387 29.125V30.6602H67.8223V31.498H66.6387V35.4297C66.6387 35.6836 66.6914 35.875 66.7969 36.0039C66.9023 36.1289 67.082 36.1914 67.3359 36.1914C67.4609 36.1914 67.6328 36.168 67.8516 36.1211V37C67.5664 37.0781 67.2891 37.1172 67.0195 37.1172C66.5352 37.1172 66.1699 36.9707 65.9238 36.6777C65.6777 36.3848 65.5547 35.9688 65.5547 35.4297V31.498H64.4004V30.6602H65.5547V29.125H66.6387ZM71.7246 37.1172C70.8652 37.1172 70.166 36.8359 69.627 36.2734C69.0879 35.707 68.8184 34.9512 68.8184 34.0059V33.8066C68.8184 33.1777 68.9375 32.6172 69.1758 32.125C69.418 31.6289 69.7539 31.2422 70.1836 30.9648C70.6172 30.6836 71.0859 30.543 71.5898 30.543C72.4141 30.543 73.0547 30.8145 73.5117 31.3574C73.9688 31.9004 74.1973 32.6777 74.1973 33.6895V34.1406H69.9023C69.918 34.7656 70.0996 35.2715 70.4473 35.6582C70.7988 36.041 71.2441 36.2324 71.7832 36.2324C72.166 36.2324 72.4902 36.1543 72.7559 35.998C73.0215 35.8418 73.2539 35.6348 73.4531 35.377L74.1152 35.8926C73.584 36.709 72.7871 37.1172 71.7246 37.1172ZM71.5898 31.4336C71.1523 31.4336 70.7852 31.5938 70.4883 31.9141C70.1914 32.2305 70.0078 32.6758 69.9375 33.25H73.1133V33.168C73.082 32.6172 72.9336 32.1914 72.668 31.8906C72.4023 31.5859 72.043 31.4336 71.5898 31.4336ZM78.5215 31.6328C78.3574 31.6055 78.1797 31.5918 77.9883 31.5918C77.2773 31.5918 76.7949 31.8945 76.541 32.5V37H75.457V30.6602H76.5117L76.5293 31.3926C76.8848 30.8262 77.3887 30.543 78.041 30.543C78.252 30.543 78.4121 30.5703 78.5215 30.625V31.6328ZM83.877 37H82.752V28.4688H83.877V37ZM86.7949 30.6602L86.8301 31.457C87.3145 30.8477 87.9473 30.543 88.7285 30.543C90.0684 30.543 90.7441 31.2988 90.7559 32.8105V37H89.6719V32.8047C89.668 32.3477 89.5625 32.0098 89.3555 31.791C89.1523 31.5723 88.834 31.4629 88.4004 31.4629C88.0488 31.4629 87.7402 31.5566 87.4746 31.7441C87.209 31.9316 87.002 32.1777 86.8535 32.4824V37H85.7695V30.6602H86.7949ZM92.9238 37V31.498H91.9219V30.6602H92.9238V30.0098C92.9238 29.3301 93.1055 28.8047 93.4688 28.4336C93.832 28.0625 94.3457 27.877 95.0098 27.877C95.2598 27.877 95.5078 27.9102 95.7539 27.9766L95.6953 28.8555C95.5117 28.8203 95.3164 28.8027 95.1094 28.8027C94.7578 28.8027 94.4863 28.9062 94.2949 29.1133C94.1035 29.3164 94.0078 29.6094 94.0078 29.9922V30.6602H95.3613V31.498H94.0078V37H92.9238ZM96.2754 33.7715C96.2754 33.1504 96.3965 32.5918 96.6387 32.0957C96.8848 31.5996 97.2246 31.2168 97.6582 30.9473C98.0957 30.6777 98.5938 30.543 99.1523 30.543C100.016 30.543 100.713 30.8418 101.244 31.4395C101.779 32.0371 102.047 32.832 102.047 33.8242V33.9004C102.047 34.5176 101.928 35.0723 101.689 35.5645C101.455 36.0527 101.117 36.4336 100.676 36.707C100.238 36.9805 99.7344 37.1172 99.1641 37.1172C98.3047 37.1172 97.6074 36.8184 97.0723 36.2207C96.541 35.623 96.2754 34.832 96.2754 33.8477V33.7715ZM97.3652 33.9004C97.3652 34.6035 97.5273 35.168 97.8516 35.5938C98.1797 36.0195 98.6172 36.2324 99.1641 36.2324C99.7148 36.2324 100.152 36.0176 100.477 35.5879C100.801 35.1543 100.963 34.5488 100.963 33.7715C100.963 33.0762 100.797 32.5137 100.465 32.084C100.137 31.6504 99.6992 31.4336 99.1523 31.4336C98.6172 31.4336 98.1855 31.6465 97.8574 32.0723C97.5293 32.498 97.3652 33.1074 97.3652 33.9004ZM106.471 31.6328C106.307 31.6055 106.129 31.5918 105.938 31.5918C105.227 31.5918 104.744 31.8945 104.49 32.5V37H103.406V30.6602H104.461L104.479 31.3926C104.834 30.8262 105.338 30.543 105.99 30.543C106.201 30.543 106.361 30.5703 106.471 30.625V31.6328ZM108.492 30.6602L108.521 31.3633C108.986 30.8164 109.613 30.543 110.402 30.543C111.289 30.543 111.893 30.8828 112.213 31.5625C112.424 31.2578 112.697 31.0117 113.033 30.8242C113.373 30.6367 113.773 30.543 114.234 30.543C115.625 30.543 116.332 31.2793 116.355 32.752V37H115.271V32.8164C115.271 32.3633 115.168 32.0254 114.961 31.8027C114.754 31.5762 114.406 31.4629 113.918 31.4629C113.516 31.4629 113.182 31.584 112.916 31.8262C112.65 32.0645 112.496 32.3867 112.453 32.793V37H111.363V32.8457C111.363 31.9238 110.912 31.4629 110.01 31.4629C109.299 31.4629 108.812 31.7656 108.551 32.3711V37H107.467V30.6602H108.492ZM121.91 37C121.848 36.875 121.797 36.6523 121.758 36.332C121.254 36.8555 120.652 37.1172 119.953 37.1172C119.328 37.1172 118.814 36.9414 118.412 36.5898C118.014 36.2344 117.814 35.7852 117.814 35.2422C117.814 34.582 118.064 34.0703 118.564 33.707C119.068 33.3398 119.775 33.1562 120.686 33.1562H121.74V32.6582C121.74 32.2793 121.627 31.9785 121.4 31.7559C121.174 31.5293 120.84 31.416 120.398 31.416C120.012 31.416 119.688 31.5137 119.426 31.709C119.164 31.9043 119.033 32.1406 119.033 32.418H117.943C117.943 32.1016 118.055 31.7969 118.277 31.5039C118.504 31.207 118.809 30.9727 119.191 30.8008C119.578 30.6289 120.002 30.543 120.463 30.543C121.193 30.543 121.766 30.7266 122.18 31.0938C122.594 31.457 122.809 31.959 122.824 32.5996V35.5176C122.824 36.0996 122.898 36.5625 123.047 36.9062V37H121.91ZM120.111 36.1738C120.451 36.1738 120.773 36.0859 121.078 35.9102C121.383 35.7344 121.604 35.5059 121.74 35.2246V33.9238H120.891C119.562 33.9238 118.898 34.3125 118.898 35.0898C118.898 35.4297 119.012 35.6953 119.238 35.8867C119.465 36.0781 119.756 36.1738 120.111 36.1738ZM125.994 29.125V30.6602H127.178V31.498H125.994V35.4297C125.994 35.6836 126.047 35.875 126.152 36.0039C126.258 36.1289 126.438 36.1914 126.691 36.1914C126.816 36.1914 126.988 36.168 127.207 36.1211V37C126.922 37.0781 126.645 37.1172 126.375 37.1172C125.891 37.1172 125.525 36.9707 125.279 36.6777C125.033 36.3848 124.91 35.9688 124.91 35.4297V31.498H123.756V30.6602H124.91V29.125H125.994ZM129.627 37H128.543V30.6602H129.627V37ZM128.455 28.9785C128.455 28.8027 128.508 28.6543 128.613 28.5332C128.723 28.4121 128.883 28.3516 129.094 28.3516C129.305 28.3516 129.465 28.4121 129.574 28.5332C129.684 28.6543 129.738 28.8027 129.738 28.9785C129.738 29.1543 129.684 29.3008 129.574 29.418C129.465 29.5352 129.305 29.5938 129.094 29.5938C128.883 29.5938 128.723 29.5352 128.613 29.418C128.508 29.3008 128.455 29.1543 128.455 28.9785ZM131.08 33.7715C131.08 33.1504 131.201 32.5918 131.443 32.0957C131.689 31.5996 132.029 31.2168 132.463 30.9473C132.9 30.6777 133.398 30.543 133.957 30.543C134.82 30.543 135.518 30.8418 136.049 31.4395C136.584 32.0371 136.852 32.832 136.852 33.8242V33.9004C136.852 34.5176 136.732 35.0723 136.494 35.5645C136.26 36.0527 135.922 36.4336 135.48 36.707C135.043 36.9805 134.539 37.1172 133.969 37.1172C133.109 37.1172 132.412 36.8184 131.877 36.2207C131.346 35.623 131.08 34.832 131.08 33.8477V33.7715ZM132.17 33.9004C132.17 34.6035 132.332 35.168 132.656 35.5938C132.984 36.0195 133.422 36.2324 133.969 36.2324C134.52 36.2324 134.957 36.0176 135.281 35.5879C135.605 35.1543 135.768 34.5488 135.768 33.7715C135.768 33.0762 135.602 32.5137 135.27 32.084C134.941 31.6504 134.504 31.4336 133.957 31.4336C133.422 31.4336 132.99 31.6465 132.662 32.0723C132.334 32.498 132.17 33.1074 132.17 33.9004ZM139.236 30.6602L139.271 31.457C139.756 30.8477 140.389 30.543 141.17 30.543C142.51 30.543 143.186 31.2988 143.197 32.8105V37H142.113V32.8047C142.109 32.3477 142.004 32.0098 141.797 31.791C141.594 31.5723 141.275 31.4629 140.842 31.4629C140.49 31.4629 140.182 31.5566 139.916 31.7441C139.65 31.9316 139.443 32.1777 139.295 32.4824V37H138.211V30.6602H139.236Z" fill="#404040"/>
<rect x="0.5" y="19.5" width="451" height="27" rx="3.5" stroke="#DB3535"/>
<path d="M5.32812 6.38525H1.93896V9.15674H5.87598V10H0.907715V2.17969H5.82227V3.02832H1.93896V5.54199H5.32812V6.38525ZM9.81299 5.08008C9.6626 5.05501 9.49967 5.04248 9.32422 5.04248C8.67253 5.04248 8.23031 5.31999 7.99756 5.875V10H7.00391V4.18848H7.9707L7.98682 4.85986C8.31266 4.34066 8.77458 4.08105 9.37256 4.08105C9.56592 4.08105 9.71273 4.10612 9.81299 4.15625V5.08008ZM13.5405 5.08008C13.3901 5.05501 13.2272 5.04248 13.0518 5.04248C12.4001 5.04248 11.9578 5.31999 11.7251 5.875V10H10.7314V4.18848H11.6982L11.7144 4.85986C12.0402 4.34066 12.5021 4.08105 13.1001 4.08105C13.2935 4.08105 13.4403 4.10612 13.5405 4.15625V5.08008ZM14.0884 7.04053C14.0884 6.47119 14.1994 5.95915 14.4214 5.50439C14.647 5.04964 14.9585 4.69873 15.356 4.45166C15.757 4.20459 16.2135 4.08105 16.7256 4.08105C17.5169 4.08105 18.1561 4.35498 18.6431 4.90283C19.1336 5.45068 19.3789 6.17936 19.3789 7.08887V7.15869C19.3789 7.72445 19.2697 8.23291 19.0513 8.68408C18.8364 9.13167 18.5267 9.48079 18.1221 9.73145C17.721 9.9821 17.2591 10.1074 16.7363 10.1074C15.9486 10.1074 15.3094 9.8335 14.8188 9.28564C14.3319 8.73779 14.0884 8.0127 14.0884 7.11035V7.04053ZM15.0874 7.15869C15.0874 7.80322 15.236 8.32064 15.5332 8.71094C15.834 9.10124 16.235 9.29639 16.7363 9.29639C17.2412 9.29639 17.6423 9.09945 17.9395 8.70557C18.2367 8.30811 18.3853 7.75309 18.3853 7.04053C18.3853 6.40316 18.2331 5.88753 17.9287 5.49365C17.6279 5.09619 17.2269 4.89746 16.7256 4.89746C16.235 4.89746 15.8394 5.09261 15.5386 5.48291C15.2378 5.87321 15.0874 6.4318 15.0874 7.15869ZM23.4341 5.08008C23.2837 5.05501 23.1208 5.04248 22.9453 5.04248C22.2936 5.04248 21.8514 5.31999 21.6187 5.875V10H20.625V4.18848H21.5918L21.6079 4.85986C21.9338 4.34066 22.3957 4.08105 22.9937 4.08105C23.187 4.08105 23.3338 4.10612 23.4341 4.15625V5.08008Z" fill="#6F89A1"/>
</svg>
