<svg viewBox="0 0 51 33" xmlns="http://www.w3.org/2000/svg">
  <g fill="#000" fill-rule="nonzero">
    <path d="M18.0895238 30.7575l-3.2405714-7.49c-.0025238-.0025-.0025238-.0075-.0050476-.01l-4.3258096-10c-.1993809-.46-.6561904-.7575-1.1609523-.7575-.504762 0-.9615715.2975-1.1609524.7575l-4.3258096 10c-.0025238.0025-.0025238.0075-.0050476.01l-3.2405714 7.49c-.2750952.635.0227143 1.37.663762 1.6425.6410475.2725 1.3830475-.0225 1.6581428-.6575L5.8641905 25h6.9884285l2.9175239 6.7425c.2044285.475.6713333.7575 1.1609523.7575.1665715 0 .3356667-.0325.4971905-.1025.6410476-.2725.9363333-1.0075.6637619-1.6425l-.0025238.0025zM6.944381 22.5l2.4127619-5.5775L11.7699048 22.5H6.9443809zM50.9040952 30.77L45.647 18.27c-.0025238-.0025-.0025238-.0075-.0050476-.01L38.2850476.77c-.1968571-.465-.6561905-.77-1.166-.77-.5098095 0-.9691428.3025-1.166.77l-7.3569047 17.49c-.0025239.0025-.0025239.0075-.0050477.01L23.334 30.77c-.2675238.6375.0353333 1.37.6789048 1.635.6435714.265 1.3830476-.035 1.6505714-.6725l4.9340476-11.73h13.0405238l4.9340476 11.73c.2019048.48.6713334.77 1.166.77.1615238 0 .3255715-.03.4845715-.0975.6435714-.265.9464285-.9975.6789047-1.635h.0025238zM31.6499524 17.5l5.4690952-13 5.4690953 13H31.6499524z"/>
  </g>
</svg>