<svg viewBox="0 0 40 48" xmlns="http://www.w3.org/2000/svg">
  <g fill="#000" fill-rule="nonzero">
    <path d="M39.635 11.7372632L28.385.3688422C28.15.1313683 27.8325 0 27.5 0H3.75C1.6825 0 0 1.7002105 0 3.7894737v40.4210526C0 46.2997895 1.6825 48 3.75 48h32.5c2.0675 0 3.75-1.7002105 3.75-3.7894737V12.6315789c0-.336-.1325-.6568421-.365-.8943157zm-2.6525.8943157H28.75c-.69 0-1.25-.5658947-1.25-1.2631578v-8.319158l9.4825 9.5823158zM36.25 45.4736842H3.75c-.69 0-1.25-.5658947-1.25-1.2631579V3.7894737c0-.6972632.56-1.263158 1.25-1.263158H25v8.8421054c0 2.0892631 1.6825 3.7894736 3.75 3.7894736h8.75v29.0526316c0 .6972632-.56 1.2631579-1.25 1.2631579z"/>
    <path d="M23.75 32.8421053c-2.0675 0-3.75-1.7002106-3.75-3.7894737 0-2.0892632 1.6825-3.7894737 3.75-3.7894737s3.75 1.7002105 3.75 3.7894737c0 2.0892631-1.6825 3.7894737-3.75 3.7894737zm0-5.0526316c-.69 0-1.25.5658947-1.25 1.2631579 0 .6972631.56 1.2631579 1.25 1.2631579S25 29.7498947 25 29.0526316c0-.6972632-.56-1.2631579-1.25-1.2631579z"/>
    <path d="M31.25 20.2105263H8.75c-.69 0-1.25.5658948-1.25 1.2631579v17.6842105c0 .6972632.56 1.2631579 1.25 1.2631579h22.5c.69 0 1.25-.5658947 1.25-1.2631579V21.4736842c0-.6972631-.56-1.2631579-1.25-1.2631579zM10 34.5473684l3.165-3.9966316c.1825-.2298947.41-.3587368.6475-.3637894.2375-.0050527.4725.1111579.665.3309473l6.49 7.3768421H10v-3.3473684zm20 3.3473684h-5.6875l-7.9675-9.0568421c-.68-.7730526-1.63-1.2025263-2.5975-1.1772631-.9675.0252631-1.895.5027368-2.535 1.3111579L10 30.5027368v-7.768421h20v15.160421z"/>
  </g>
</svg>