<svg viewBox="0 0 38 45" xmlns="http://www.w3.org/2000/svg">
  <g fill="#000" fill-rule="nonzero">
    <path d="M36.7333333 45H1.2666667C.5674667 45 0 44.44 0 43.75s.5674667-1.25 1.2666667-1.25h35.4666666C37.4325333 42.5 38 43.06 38 43.75S37.4325333 45 36.7333333 45zM35.3653333 35.7575l-6.5106666-14.99c-.0025334-.0025-.0025334-.0075-.0050667-.01l-8.6842667-20C19.9652.2975 19.5066667 0 19 0c-.5066667 0-.9652.2975-1.1653333.7575l-8.6842667 20c-.0025333.005-.0025333.0075-.0050667.0125L2.6346667 35.76c-.2761334.635.0228 1.37.6662666 1.6425.6434667.2725 1.3882667-.0225 1.6644-.6575l6.1864-14.2425h15.7016l6.1864 14.2425c.2052.475.6738667.7575 1.1653334.7575.1672 0 .3369333-.0325.4990666-.1025.6434667-.2725.9398667-1.0075.6662667-1.6425h-.0050667zM12.236 20L19 4.4225 25.764 20H12.2334667 12.236z"/>
  </g>
</svg>