<svg viewBox="0 0 252 173" xmlns="http://www.w3.org/2000/svg" xmlns:xlink="http://www.w3.org/1999/xlink">
  <defs>
    <path id="a" d="M0 .0551356h252v172H0z"/>
    <linearGradient x1="41.950584%" y1="0%" x2="43.7658295%" y2="59.2096589%" id="c">
      <stop stop-color="#F6F5FB" offset="0%"/>
      <stop stop-color="#FFF" offset="100%"/>
    </linearGradient>
  </defs>
  <g fill="none" fill-rule="evenodd">
    <mask id="b" fill="#fff">
      <use xlink:href="#a"/>
    </mask>
    <use fill="#FFF" xlink:href="#a"/>
    <g mask="url(#b)">
      <g transform="translate(3 39.055136)">
        <path d="M47.3098376 120H36.6972319L6.1931962 71.1833384l7.6324329-4.7692734L47.3098376 120zM6.1931964 62h10.6126057l30.5040357-48.8166616-7.6324329-4.7692734L6.1931964 62z" fill="#EAE6F6"/>
        <ellipse fill="#A494D3" cx="8.5" cy="66" rx="8.5" ry="8"/>
        <ellipse fill="#A494D3" cx="46.5" cy="6" rx="8.5" ry="8"/>
      </g>
      <path d="M11.247575 169.055136c1.9683924-11.838935 15.4339544-21 31.752425-21 16.3184706 0 29.7840326 9.161065 31.752425 21h-63.50485z" fill="#D9D3EA"/>
    </g>
    <g mask="url(#b)">
      <g transform="rotate(-42 73.1867643 26.691974)">
        <ellipse fill="#D9D3EA" cx="71.3038531" cy="5.6137672" rx="14.6757426" ry="5.5"/>
        <path fill="#D9D3EA" d="M56.529703 5.2927632h29.3514851l13.1782178 44.0032894H45.7475248z"/>
        <path fill="url(#c)" d="M45.6061853 49.2960526h53.4262988L195.234961 328.301953.5524406 151.663392z"/>
        <ellipse fill="#FFF" cx="72.4034653" cy="49.5953947" rx="26.6559406" ry="5.9868421"/>
      </g>
    </g>
    <path d="M120 146.055136h8.526316v-5.837838c0-3.486487.315789-8.675676.473684-12.162162h-.315789c-1.263158 3.081081-2.684211 6.162162-4.105264 9.243243L120 146.055136zm26 .548896v10.252365h-5.325301v11.198739h-12.530121v-11.198739H107v-9.463722l16.915663-29.337539h16.759036v28.548896H146zm23.5 22.451104c-10.974576 0-18.5-9.088146-18.5-26.237082 0-17.148937 7.525424-25.762918 18.5-25.762918 10.974576 0 18.5 8.693009 18.5 25.762918 0 17.148936-7.525424 26.237082-18.5 26.237082zm-.5-11c3.243243 0 6-2.517767 6-15.736041 0-13.218274-2.756757-15.263959-6-15.263959s-6 2.045685-6 15.263959 2.756757 15.736041 6 15.736041zm36-12h8.526316v-5.837838c0-3.486487.315789-8.675676.473684-12.162162h-.315789c-1.263158 3.081081-2.684211 6.162162-4.105264 9.243243L205 146.055136zm26 .548896v10.252365h-5.325301v11.198739h-12.530121v-11.198739H192v-9.463722l16.915663-29.337539h16.759036v28.548896H231z" fill="#A494D3" fill-rule="nonzero" mask="url(#b)"/>
  </g>
</svg>