<svg viewBox="0 0 119 30" xmlns="http://www.w3.org/2000/svg">
  <path d="M.321 2.052h9.393v2.79H4.351v21.08h5.363v2.79H.321V2.052zM22.3 24.372c-1.2193394 0-2.3353283-.2376643-3.348-.713-1.0126717-.4753357-1.880663-1.1624955-2.604-2.0615-.7233369-.8990045-1.286498-2.0046601-1.6895-3.317-.403002-1.3123399-.6045-2.7951584-.6045-4.4485s.201498-3.1258269.6045-4.4175c.403002-1.2916731.9661631-2.3766623 1.6895-3.255.723337-.8783377 1.5913283-1.5448311 2.604-1.9995 1.0126717-.4546689 2.1286606-.682 3.348-.682s2.3353283.2273311 3.348.682c1.0126717.4546689 1.8806631 1.1263289 2.604 2.015.723337.8886711 1.286498 1.9736603 1.6895 3.255.403002 1.2813397.6045 2.7486584.6045 4.402s-.201498 3.1361601-.6045 4.4485-.966163 2.4179955-1.6895 3.317c-.7233369.8990045-1.5913283 1.5861643-2.604 2.0615s-2.1286606.713-3.348.713zm0-4.588c.8680043 0 1.5499975-.5321613 2.046-1.5965.4960025-1.0643387.744-2.5161575.744-4.3555 0-1.8393425-.2479975-3.2601617-.744-4.2625-.4960025-1.0023383-1.1779957-1.5035-2.046-1.5035-.8680043 0-1.5499975.5011617-2.046 1.5035-.4960025 1.0023383-.744 2.4231575-.744 4.2625 0 1.8393425.2479975 3.2911613.744 4.3555s1.1779957 1.5965 2.046 1.5965zm11.284-17.36h5.332v5.022l-.124 2.232c.5580028-.4960025 1.1779966-.878332 1.86-1.147.6820034-.268668 1.3743298-.403 2.077-.403.9300047 0 1.7773295.1859981 2.542.558.7646705.3720019 1.415664.8989966 1.953 1.581.537336.6820034.9506652 1.5086618 1.24 2.48.2893348.9713382.434 2.0459941.434 3.224 0 1.34334-.1859981 2.5368281-.558 3.5805-.3720019 1.0436719-.8628303 1.9219964-1.4725 2.635-.6096697.7130036-1.3123294 1.2554981-2.108 1.6275-.7956706.3720019-1.6171624.558-2.4645.558-.7026702 0-1.3949966-.1704983-2.077-.5115-.6820034-.3410017-1.3226637-.8524966-1.922-1.5345h-.124L37.738 24h-4.154V2.424zm5.332 16.864c.3306683.2893348.6768315.4856661 1.0385.589.3616685.1033338.7181649.155 1.0695.155.3306683 0 .6406652-.067166.93-.2015s.5424989-.3564985.7595-.6665c.2170011-.3100015.392666-.7181641.527-1.2245s.2015-1.1314963.2015-1.8755c0-1.2813397-.1911648-2.2009972-.5735-2.759-.3823352-.5580028-.9558295-.837-1.7205-.837-.4133354 0-.7956649.0826658-1.147.248s-.7129981.4546646-1.085.868v5.704zM52.494 8.5h11.222v14.074c0 .9506714-.1136655 1.8599957-.341 2.728-.2273345.8680043-.6251638 1.63783-1.1935 2.3095s-1.3329952 1.208998-2.294 1.612c-.9610048.403002-2.1751593.6045-3.6425.6045-1.0126717 0-1.9116627-.0981657-2.697-.2945-.7853373-.1963343-1.5189966-.4494985-2.201-.7595l1.519-3.782c.6613366.2893348 1.2244977.4753329 1.6895.558.4650023.0826671.9041646.124 1.3175.124.9506714 0 1.6068315-.2221644 1.9685-.6665.3616685-.4443356.5425-1.1934947.5425-2.2475V12.654h-5.89V8.5zm8.37-1.922c-.992005 0-1.8083301-.2841638-2.449-.8525-.6406699-.5683362-.961-1.3174953-.961-2.2475 0-.9300046.3203301-1.6894971.961-2.2785.6406699-.5890029 1.456995-.8835 2.449-.8835.992005 0 1.8083301.2944971 2.449.8835.6406699.5890029.961 1.3484954.961 2.2785 0 .9300047-.3203301 1.6791638-.961 2.2475-.6406699.5683362-1.456995.8525-2.449.8525zm9.92 5.332h14.632v3.72H70.784v-3.72zm18.197 2.17c0-1.6946751.258331-3.1981601.775-4.5105.516669-1.3123399 1.219329-2.4179955 2.108-3.317.888671-.8990045 1.932327-1.5861643 3.131-2.0615 1.198673-.4753357 2.479993-.713 3.844-.713 1.302007 0 2.469661.2634974 3.503.7905 1.033338.5270026 1.911663 1.1314966 2.635 1.8135l-2.914 3.286c-.475336-.4133354-.960998-.7336655-1.457-.961-.496002-.2273345-1.084997-.341-1.767-.341-.620003 0-1.198664.134332-1.736.403s-1.002331.6509975-1.395 1.147c-.392669.4960025-.702666 1.1056631-.93 1.829-.227334.7233369-.341 1.5396621-.341 2.449 0 1.9013428.433996 3.3583283 1.302 4.371.868004 1.0126717 1.983993 1.519 3.348 1.519.661337 0 1.255497-.1498318 1.7825-.4495.527003-.2996682 1.007498-.6871643 1.4415-1.1625l2.914 3.224c-.868004.992005-1.849661 1.7359975-2.945 2.232-1.095339.4960025-2.262994.744-3.503.744-1.322673 0-2.572994-.2118312-3.751-.6355-1.178006-.4236688-2.216496-1.064329-3.1155-1.922-.899004-.857671-1.611997-1.9323269-2.139-3.224-.527003-1.2916731-.7905-2.7951581-.7905-4.5105zm25.668 11.842V4.842h-5.332v-2.79h9.393v26.66h-9.393v-2.79h5.332z" fill="#0095D5" fill-rule="nonzero"/>
</svg>