<svg viewBox="0 0 33 40" xmlns="http://www.w3.org/2000/svg" xmlns:xlink="http://www.w3.org/1999/xlink">
  <defs>
    <path d="M1.2405585 36.8586756L.0014402 3.8417849C-.039483 2.7513665.7966107 1.8272497 1.8856718 1.7591833L29.96885.0039847c1.1085341-.0692834 2.0633439.7731958 2.1326273 1.88173a2.0111186 2.0111186 0 0 1 .0039164.1254486V37.988905C32.1053938 39.0996021 31.2049959 40 30.0942987 40a2.011163 2.011163 0 0 1-.0902337-.0020253l-26.84406-1.2056523c-1.04547-.0469554-1.8801983-.8878591-1.9194465-1.9336468z" id="a"/>
    <path d="M1.2405585 36.8586756L.0014402 3.8417849C-.039483 2.7513665.7966107 1.8272497 1.8856718 1.7591833L29.96885.0039847c1.1085341-.0692834 2.0633439.7731958 2.1326273 1.88173a2.0111186 2.0111186 0 0 1 .0039164.1254486V37.988905C32.1053938 39.0996021 31.2049959 40 30.0942987 40a2.011163 2.011163 0 0 1-.0902337-.0020253l-26.84406-1.2056523c-1.04547-.0469554-1.8801983-.8878591-1.9194465-1.9336468z" id="c"/>
  </defs>
  <g fill="none" fill-rule="evenodd">
    <path d="M1.2405585 36.8586756L.0014402 3.8417849C-.039483 2.7513665.7966107 1.8272497 1.8856718 1.7591833L29.96885.0039847c1.1085341-.0692834 2.0633439.7731958 2.1326273 1.88173a2.0111186 2.0111186 0 0 1 .0039164.1254486V37.988905C32.1053938 39.0996021 31.2049959 40 30.0942987 40a2.011163 2.011163 0 0 1-.0902337-.0020253l-26.84406-1.2056523c-1.04547-.0469554-1.8801983-.8878591-1.9194465-1.9336468z" fill="#FF4785" fill-rule="nonzero"/>
    <g>
      <mask id="b" fill="#fff">
        <use xlink:href="#a"/>
      </mask>
      <path d="M23.7074082 4.9166372l.1918233-4.6136135L27.7558963 0l.1661482 4.75786c.0057823.1655846-.1237629.3045048-.2893474.3102872-.0709012.002476-.1403856-.020255-.1961149-.0641566L25.9493283 3.832385l-1.7608722 1.335729c-.1320039.100133-.3201881.0742966-.4203211-.0577074-.0421511-.055567-.0636242-.1240843-.0607268-.1937694z" fill="#FFF" fill-rule="nonzero" mask="url(#b)"/>
    </g>
    <g>
      <mask id="d" fill="#fff">
        <use xlink:href="#c"/>
      </mask>
      <path d="M18.7751036 15.0765471c0 .7824336 5.2703662.4074336 5.9778665-.1421721 0-5.328186-2.8589797-8.128064-8.094254-8.128064-5.2352744 0-8.1685132 2.8434402-8.1685132 7.1086026 0 7.4284913 10.0249934 7.5706634 10.0249934 11.6225677 0 1.1373767-.556944 1.8126941-1.782221 1.8126941-1.596573 0-2.2277763-.8153808-2.1535171-3.5877364 0-.6014263-6.0892553-.7889263-6.2749033 0-.4727355 6.7184043 3.7129605 8.65625 8.5026796 8.65625 4.6412007 0 8.279902-2.4738731 8.279902-6.9522937 0-7.9616366-10.1735119-7.7483785-10.1735119-11.6936537 0-1.599436 1.1881474-1.8126941 1.8936099-1.8126941.7425921 0 2.0792579.1308859 1.9678691 3.1164996z" fill="#FFF" fill-rule="nonzero" mask="url(#d)"/>
    </g>
  </g>
</svg>