<svg viewBox="0 0 130 104" xmlns="http://www.w3.org/2000/svg">
  <path d="M40.8840189 104c49.0598875 0 75.8869481-40.0080714 75.8869481-74.7003287 0-1.1363661-.023513-2.2676049-.075295-3.3937294 5.207847-3.705965 9.734494-8.3307477 13.304328-13.595375-4.778847 2.0910059-9.921694 3.4986625-15.31675 4.1333885 5.506856-3.2504061 9.734494-8.3921762 11.728716-14.5218706-5.153251 3.0072598-10.860307 5.1929657-16.936567 6.372832C104.608152 3.1915327 97.6790837 0 90.0064111 0 75.2772657 0 63.332746 11.7577485 63.332746 26.2514577c0 2.0602895.2339999 4.0642819.6916086 5.9863625C41.8565409 31.1398528 22.2003398 20.6925058 9.046816 4.8064961c-2.2906257 3.8800048-3.6114342 8.3870532-3.6114342 13.1961087 0 9.1088013 4.7086427 17.150343 11.869111 21.8544653-4.3758384-.1330859-8.4864811-1.3155202-12.0797197-3.2836732-.0039262.1101548-.0039262.2175485-.0039262.3352784 0 12.7149476 9.1936942 23.3312157 21.3982138 25.7370209-2.2412213.6014545-4.599447.9239319-7.0330683.9239319-1.7160171 0-3.3878343-.1662543-5.012847-.4734787 3.3956298 10.431991 13.2419238 18.0230795 24.9160436 18.2355137-9.1286941 7.0433803-20.6286052 11.238193-33.1269248 11.238193-2.1502258 0-4.2744428-.1203922-6.3622642-.3634355C11.8041198 99.6541945 25.8208565 104 40.8853975 104" fill="white" fill-rule="nonzero"/>
</svg>