<svg width="132" height="32" viewBox="0 0 132 32" fill="none" xmlns="http://www.w3.org/2000/svg">
<path d="M0 16C0 7.16344 7.16344 0 16 0H116C124.837 0 132 7.16344 132 16V16C132 24.8366 124.837 32 116 32H16C7.16344 32 0 24.8366 0 16V16Z" fill="#F6F7F9"/>
<rect x="17" y="11" width="10" height="10" fill="#F6F7F9"/>
<path fill-rule="evenodd" clip-rule="evenodd" d="M16 10H28V13V14V22H16V14V13V10ZM17 14V21H27V14H17ZM27 13H17V11H27V13Z" fill="#93A7B8"/>
<path d="M38.666 15.2646H39.6777C40.1882 15.2601 40.5915 15.1279 40.8877 14.8682C41.1885 14.6084 41.3389 14.2324 41.3389 13.7402C41.3389 13.2663 41.2135 12.8994 40.9629 12.6396C40.7168 12.3753 40.3385 12.2432 39.8281 12.2432C39.3815 12.2432 39.0146 12.373 38.7275 12.6328C38.4404 12.888 38.2969 13.223 38.2969 13.6377H36.6357C36.6357 13.1273 36.7702 12.6624 37.0391 12.2432C37.3125 11.8239 37.6908 11.498 38.1738 11.2656C38.6615 11.0286 39.2061 10.9102 39.8076 10.9102C40.8011 10.9102 41.5804 11.1608 42.1455 11.6621C42.7152 12.1589 43 12.8516 43 13.7402C43 14.1868 42.8564 14.6084 42.5693 15.0049C42.2868 15.3968 41.9199 15.693 41.4688 15.8936C42.0156 16.0804 42.4303 16.3743 42.7129 16.7754C43 17.1764 43.1436 17.6549 43.1436 18.2109C43.1436 19.1042 42.8359 19.8151 42.2207 20.3438C41.61 20.8724 40.8057 21.1367 39.8076 21.1367C38.8506 21.1367 38.0667 20.8815 37.4561 20.3711C36.8454 19.8607 36.54 19.1816 36.54 18.334H38.2012C38.2012 18.7715 38.347 19.127 38.6387 19.4004C38.9349 19.6738 39.3314 19.8105 39.8281 19.8105C40.3431 19.8105 40.7487 19.6738 41.0449 19.4004C41.3411 19.127 41.4893 18.7305 41.4893 18.2109C41.4893 17.6868 41.3343 17.2835 41.0244 17.001C40.7145 16.7184 40.2542 16.5771 39.6436 16.5771H38.666V15.2646ZM52.3945 21H45.7021V19.8584L49.0176 16.2422C49.4961 15.709 49.8356 15.2646 50.0361 14.9092C50.2412 14.5492 50.3438 14.1891 50.3438 13.8291C50.3438 13.3551 50.2093 12.9723 49.9404 12.6807C49.6761 12.389 49.3184 12.2432 48.8672 12.2432C48.3294 12.2432 47.9124 12.4072 47.6162 12.7354C47.32 13.0635 47.1719 13.5124 47.1719 14.082H45.5107C45.5107 13.4759 45.6475 12.9313 45.9209 12.4482C46.1989 11.9606 46.5931 11.5824 47.1035 11.3135C47.6185 11.0446 48.2109 10.9102 48.8809 10.9102C49.847 10.9102 50.6081 11.154 51.1641 11.6416C51.7246 12.1247 52.0049 12.7946 52.0049 13.6514C52.0049 14.1481 51.8636 14.6699 51.5811 15.2168C51.3031 15.7591 50.8451 16.3766 50.207 17.0693L47.7734 19.6738H52.3945V21ZM61.1416 19.6191H65.6602V21H59.4121V11.0469H61.1416V19.6191ZM71.083 21.1367C70.0303 21.1367 69.1758 20.8063 68.5195 20.1455C67.8678 19.4801 67.542 18.596 67.542 17.4932V17.2881C67.542 16.5498 67.6833 15.8913 67.9658 15.3125C68.2529 14.7292 68.654 14.2757 69.1689 13.9521C69.6839 13.6286 70.2581 13.4668 70.8916 13.4668C71.8988 13.4668 72.6758 13.7881 73.2227 14.4307C73.7741 15.0732 74.0498 15.9824 74.0498 17.1582V17.8281H69.2168C69.2669 18.4388 69.4697 18.9219 69.8252 19.2773C70.1852 19.6328 70.6364 19.8105 71.1787 19.8105C71.9398 19.8105 72.5596 19.5029 73.0381 18.8877L73.9336 19.7422C73.6374 20.1842 73.2409 20.5283 72.7441 20.7744C72.252 21.016 71.6982 21.1367 71.083 21.1367ZM70.8848 14.7998C70.429 14.7998 70.0599 14.9593 69.7773 15.2783C69.4993 15.5973 69.3216 16.0417 69.2441 16.6113H72.4092V16.4883C72.3727 15.9323 72.2246 15.513 71.9648 15.2305C71.7051 14.9434 71.3451 14.7998 70.8848 14.7998ZM76.9297 21V14.834H75.8018V13.6035H76.9297V12.9268C76.9297 12.1064 77.1576 11.473 77.6133 11.0264C78.069 10.5798 78.707 10.3564 79.5273 10.3564C79.819 10.3564 80.1289 10.3975 80.457 10.4795L80.416 11.7783C80.2337 11.7419 80.0218 11.7236 79.7803 11.7236C78.9873 11.7236 78.5908 12.1315 78.5908 12.9473V13.6035H80.0947V14.834H78.5908V21H76.9297ZM84.3896 11.8057V13.6035H85.6953V14.834H84.3896V18.9629C84.3896 19.2454 84.4443 19.4505 84.5537 19.5781C84.6676 19.7012 84.8682 19.7627 85.1553 19.7627C85.3467 19.7627 85.5404 19.7399 85.7363 19.6943V20.9795C85.3581 21.0843 84.9935 21.1367 84.6426 21.1367C83.3665 21.1367 82.7285 20.4326 82.7285 19.0244V14.834H81.5117V13.6035H82.7285V11.8057H84.3896Z" fill="#93A7B8"/>
<path fill-rule="evenodd" clip-rule="evenodd" d="M114.633 14.6402C115.176 13.9889 114.713 13 113.865 13H108.135C107.287 13 106.824 13.9889 107.367 14.6402L110.232 18.0781C110.632 18.5579 111.368 18.5579 111.768 18.0781L114.633 14.6402Z" fill="#93A7B8"/>
<path d="M16 1H116V-1H16V1ZM116 31H16V33H116V31ZM16 31C7.71573 31 1 24.2843 1 16H-1C-1 25.3888 6.61116 33 16 33V31ZM131 16C131 24.2843 124.284 31 116 31V33C125.389 33 133 25.3888 133 16H131ZM116 1C124.284 1 131 7.71573 131 16H133C133 6.61116 125.389 -1 116 -1V1ZM16 -1C6.61116 -1 -1 6.61116 -1 16H1C1 7.71573 7.71573 1 16 1V-1Z" fill="#B7C4D0"/>
</svg>
