<svg width="89" height="28" viewBox="0 0 89 28" fill="none" xmlns="http://www.w3.org/2000/svg">
<path d="M0 14C0 6.26801 6.26801 0 14 0H75C82.732 0 89 6.26801 89 14V14C89 21.732 82.732 28 75 28H14C6.26802 28 0 21.732 0 14V14Z" fill="#F2F8FF"/>
<path d="M18.9062 18H12.6919V16.9399L15.7705 13.582C16.2148 13.0869 16.5301 12.6743 16.7163 12.3442C16.9067 12.0099 17.002 11.6756 17.002 11.3413C17.002 10.9012 16.8771 10.5457 16.6274 10.2749C16.382 10.0041 16.0498 9.86865 15.6309 9.86865C15.1315 9.86865 14.7443 10.021 14.4692 10.3257C14.1942 10.6304 14.0566 11.0472 14.0566 11.5762H12.5142C12.5142 11.0133 12.6411 10.5076 12.895 10.0591C13.1532 9.60628 13.5192 9.25505 13.9932 9.00537C14.4714 8.7557 15.0215 8.63086 15.6436 8.63086C16.5407 8.63086 17.2474 8.85726 17.7637 9.31006C18.2842 9.75863 18.5444 10.3807 18.5444 11.1763C18.5444 11.6375 18.4132 12.1221 18.1509 12.6299C17.8927 13.1335 17.4674 13.7069 16.875 14.3501L14.6152 16.7686H18.9062V18ZM25.9014 11.1953C25.9014 11.6481 25.785 12.0522 25.5522 12.4077C25.3195 12.759 25.0021 13.0361 24.6001 13.2393C25.0825 13.4635 25.4528 13.7703 25.7109 14.1597C25.9733 14.549 26.1045 14.9891 26.1045 15.48C26.1045 16.2925 25.8294 16.9378 25.2793 17.416C24.7292 17.89 23.9971 18.127 23.083 18.127C22.1647 18.127 21.4284 17.8879 20.874 17.4097C20.3239 16.9315 20.0488 16.2882 20.0488 15.48C20.0488 14.9849 20.18 14.5405 20.4424 14.147C20.7048 13.7534 21.0729 13.4508 21.5469 13.2393C21.1491 13.0361 20.8338 12.759 20.6011 12.4077C20.3726 12.0522 20.2583 11.6481 20.2583 11.1953C20.2583 10.4082 20.5122 9.78402 21.02 9.32275C21.5278 8.86149 22.2134 8.63086 23.0767 8.63086C23.9442 8.63086 24.6318 8.86149 25.1396 9.32275C25.6475 9.78402 25.9014 10.4082 25.9014 11.1953ZM24.562 15.4038C24.562 14.9468 24.4245 14.5786 24.1494 14.2993C23.8786 14.0158 23.5189 13.874 23.0703 13.874C22.6217 13.874 22.262 14.0137 21.9912 14.293C21.7246 14.5723 21.5913 14.9425 21.5913 15.4038C21.5913 15.8566 21.7225 16.2184 21.9849 16.4893C22.2515 16.7601 22.6175 16.8955 23.083 16.8955C23.5485 16.8955 23.9103 16.7643 24.1685 16.502C24.4308 16.2396 24.562 15.8735 24.562 15.4038ZM24.3652 11.2524C24.3652 10.8504 24.2489 10.5203 24.0161 10.2622C23.7834 9.99984 23.4702 9.86865 23.0767 9.86865C22.6831 9.86865 22.3721 9.99349 22.1436 10.2432C21.915 10.4886 21.8008 10.825 21.8008 11.2524C21.8008 11.6756 21.915 12.012 22.1436 12.2617C22.3763 12.5114 22.6895 12.6362 23.083 12.6362C23.4766 12.6362 23.7876 12.5114 24.0161 12.2617C24.2489 12.012 24.3652 11.6756 24.3652 11.2524ZM37.251 10.0527H34.3691V18H32.7759V10.0527H29.9194V8.75781H37.251V10.0527ZM40.7739 18.127C39.7964 18.127 39.0029 17.8201 38.3936 17.2065C37.7884 16.5887 37.4858 15.7677 37.4858 14.7437V14.5532C37.4858 13.8677 37.617 13.2562 37.8794 12.7188C38.146 12.1771 38.5184 11.756 38.9966 11.4556C39.4748 11.1551 40.008 11.0049 40.5962 11.0049C41.5314 11.0049 42.2529 11.3032 42.7607 11.8999C43.2728 12.4966 43.5288 13.3408 43.5288 14.4326V15.0547H39.041C39.0876 15.6217 39.2759 16.0703 39.606 16.4004C39.9403 16.7305 40.3592 16.8955 40.8628 16.8955C41.5695 16.8955 42.145 16.6099 42.5894 16.0386L43.4209 16.832C43.1458 17.2425 42.7777 17.562 42.3164 17.7905C41.8594 18.0148 41.3452 18.127 40.7739 18.127ZM40.5898 12.2427C40.1667 12.2427 39.8239 12.3908 39.5615 12.687C39.3034 12.9832 39.1383 13.3958 39.0664 13.9248H42.0054V13.8105C41.9715 13.2943 41.834 12.9049 41.5928 12.6426C41.3516 12.376 41.0173 12.2427 40.5898 12.2427ZM47.1978 13.3916L48.5054 11.1318H50.2192L48.1182 14.5151L50.2891 18H48.5879L47.2168 15.6514L45.8521 18H44.1382L46.3091 14.5151L44.2144 11.1318H45.9155L47.1978 13.3916ZM53.2026 9.4624V11.1318H54.415V12.2744H53.2026V16.1084C53.2026 16.3708 53.2534 16.5612 53.355 16.6797C53.4608 16.7939 53.647 16.8511 53.9136 16.8511C54.0913 16.8511 54.2712 16.8299 54.4531 16.7876V17.981C54.1019 18.0783 53.7633 18.127 53.4375 18.127C52.2526 18.127 51.6602 17.4731 51.6602 16.1655V12.2744H50.5303V11.1318H51.6602V9.4624H53.2026Z" fill="#0371FF"/>
<path fill-rule="evenodd" clip-rule="evenodd" d="M75.6332 12.6402C76.176 11.9889 75.7128 11 74.865 11H69.135C68.2872 11 67.824 11.9889 68.3668 12.6402L71.2318 16.0781C71.6316 16.5579 72.3684 16.5579 72.7682 16.0781L75.6332 12.6402Z" fill="#0371FF"/>
<path d="M14 1H75V-1H14V1ZM75 27H14V29H75V27ZM14 27C6.8203 27 1 21.1797 1 14H-1C-1 22.2843 5.71573 29 14 29V27ZM88 14C88 21.1797 82.1797 27 75 27V29C83.2843 29 90 22.2843 90 14H88ZM75 1C82.1797 1 88 6.8203 88 14H90C90 5.71573 83.2843 -1 75 -1V1ZM14 -1C5.71573 -1 -1 5.71573 -1 14H1C1 6.8203 6.8203 1 14 1V-1Z" fill="#0371FF"/>
</svg>
