<svg width="105" height="36" viewBox="0 0 105 36" fill="none" xmlns="http://www.w3.org/2000/svg">
<path d="M0 18C0 8.05887 8.05888 0 18 0H87C96.9411 0 105 8.05887 105 18V18C105 27.9411 96.9411 36 87 36H18C8.05887 36 0 27.9411 0 18V18Z" fill="#F2F8FF"/>
<path d="M18.666 17.2646H19.6777C20.1882 17.2601 20.5915 17.1279 20.8877 16.8682C21.1885 16.6084 21.3389 16.2324 21.3389 15.7402C21.3389 15.2663 21.2135 14.8994 20.9629 14.6396C20.7168 14.3753 20.3385 14.2432 19.8281 14.2432C19.3815 14.2432 19.0146 14.373 18.7275 14.6328C18.4404 14.888 18.2969 15.223 18.2969 15.6377H16.6357C16.6357 15.1273 16.7702 14.6624 17.0391 14.2432C17.3125 13.8239 17.6908 13.498 18.1738 13.2656C18.6615 13.0286 19.2061 12.9102 19.8076 12.9102C20.8011 12.9102 21.5804 13.1608 22.1455 13.6621C22.7152 14.1589 23 14.8516 23 15.7402C23 16.1868 22.8564 16.6084 22.5693 17.0049C22.2868 17.3968 21.9199 17.693 21.4688 17.8936C22.0156 18.0804 22.4303 18.3743 22.7129 18.7754C23 19.1764 23.1436 19.6549 23.1436 20.2109C23.1436 21.1042 22.8359 21.8151 22.2207 22.3438C21.61 22.8724 20.8057 23.1367 19.8076 23.1367C18.8506 23.1367 18.0667 22.8815 17.4561 22.3711C16.8454 21.8607 16.54 21.1816 16.54 20.334H18.2012C18.2012 20.7715 18.347 21.127 18.6387 21.4004C18.9349 21.6738 19.3314 21.8105 19.8281 21.8105C20.3431 21.8105 20.7487 21.6738 21.0449 21.4004C21.3411 21.127 21.4893 20.7305 21.4893 20.2109C21.4893 19.6868 21.3343 19.2835 21.0244 19.001C20.7145 18.7184 20.2542 18.5771 19.6436 18.5771H18.666V17.2646ZM29.8701 12.999V14.373H29.665C28.7354 14.3867 27.9925 14.6419 27.4365 15.1387C26.8805 15.6354 26.5501 16.3395 26.4453 17.251C26.9785 16.6904 27.6598 16.4102 28.4893 16.4102C29.3688 16.4102 30.0615 16.7201 30.5674 17.3398C31.0778 17.9596 31.333 18.7594 31.333 19.7393C31.333 20.751 31.0345 21.5713 30.4375 22.2002C29.8451 22.8245 29.0658 23.1367 28.0996 23.1367C27.1061 23.1367 26.2995 22.7699 25.6797 22.0361C25.0645 21.3024 24.7568 20.3408 24.7568 19.1514V18.584C24.7568 16.8385 25.1807 15.4714 26.0283 14.4824C26.8805 13.4935 28.1042 12.999 29.6992 12.999H29.8701ZM28.0859 17.75C27.7214 17.75 27.3864 17.8525 27.0811 18.0576C26.7803 18.2627 26.5592 18.5361 26.418 18.8779V19.3838C26.418 20.1221 26.5729 20.71 26.8828 21.1475C27.1927 21.5804 27.5938 21.7969 28.0859 21.7969C28.5781 21.7969 28.9678 21.6123 29.2549 21.2432C29.542 20.874 29.6855 20.3887 29.6855 19.7871C29.6855 19.1855 29.5397 18.6956 29.248 18.3174C28.9564 17.9391 28.569 17.75 28.0859 17.75ZM43.1934 14.4414H40.0898V23H38.374V14.4414H35.2979V13.0469H43.1934V14.4414ZM46.9873 23.1367C45.9346 23.1367 45.0801 22.8063 44.4238 22.1455C43.7721 21.4801 43.4463 20.596 43.4463 19.4932V19.2881C43.4463 18.5498 43.5876 17.8913 43.8701 17.3125C44.1572 16.7292 44.5583 16.2757 45.0732 15.9521C45.5882 15.6286 46.1624 15.4668 46.7959 15.4668C47.8031 15.4668 48.5801 15.7881 49.127 16.4307C49.6784 17.0732 49.9541 17.9824 49.9541 19.1582V19.8281H45.1211C45.1712 20.4388 45.374 20.9219 45.7295 21.2773C46.0895 21.6328 46.5407 21.8105 47.083 21.8105C47.8441 21.8105 48.4639 21.5029 48.9424 20.8877L49.8379 21.7422C49.5417 22.1842 49.1452 22.5283 48.6484 22.7744C48.1562 23.016 47.6025 23.1367 46.9873 23.1367ZM46.7891 16.7998C46.3333 16.7998 45.9642 16.9593 45.6816 17.2783C45.4036 17.5973 45.2259 18.0417 45.1484 18.6113H48.3135V18.4883C48.277 17.9323 48.1289 17.513 47.8691 17.2305C47.6094 16.9434 47.2493 16.7998 46.7891 16.7998ZM53.9053 18.0371L55.3135 15.6035H57.1592L54.8965 19.2471L57.2344 23H55.4023L53.9258 20.4707L52.4561 23H50.6104L52.9482 19.2471L50.6924 15.6035H52.5244L53.9053 18.0371ZM60.3721 13.8057V15.6035H61.6777V16.834H60.3721V20.9629C60.3721 21.2454 60.4268 21.4505 60.5361 21.5781C60.6501 21.7012 60.8506 21.7627 61.1377 21.7627C61.3291 21.7627 61.5228 21.7399 61.7188 21.6943V22.9795C61.3405 23.0843 60.9759 23.1367 60.625 23.1367C59.349 23.1367 58.7109 22.4326 58.7109 21.0244V16.834H57.4941V15.6035H58.7109V13.8057H60.3721Z" fill="#0371FF"/>
<path fill-rule="evenodd" clip-rule="evenodd" d="M87.6332 16.6402C88.176 15.9889 87.7128 15 86.865 15H81.135C80.2872 15 79.824 15.9889 80.3668 16.6402L83.2318 20.0781C83.6316 20.5579 84.3684 20.5579 84.7682 20.0781L87.6332 16.6402Z" fill="#0371FF"/>
<path d="M18 1H87V-1H18V1ZM87 35H18V37H87V35ZM18 35C8.61116 35 1 27.3888 1 18H-1C-1 28.4934 7.50659 37 18 37V35ZM104 18C104 27.3888 96.3888 35 87 35V37C97.4934 37 106 28.4934 106 18H104ZM87 1C96.3888 1 104 8.61116 104 18H106C106 7.50659 97.4934 -1 87 -1V1ZM18 -1C7.50659 -1 -1 7.50659 -1 18H1C1 8.61116 8.61116 1 18 1V-1Z" fill="#0371FF"/>
</svg>
