<svg width="124" height="32" viewBox="0 0 124 32" fill="none" xmlns="http://www.w3.org/2000/svg">
<path d="M0 16C0 7.16344 7.16344 0 16 0H108C116.837 0 124 7.16344 124 16V16C124 24.8366 116.837 32 108 32H16C7.16344 32 0 24.8366 0 16V16Z" fill="url(#paint0_linear)"/>
<rect x="17" y="11" width="10" height="10" fill="#F6F7F9"/>
<path fill-rule="evenodd" clip-rule="evenodd" d="M16 10H28V13V14V22H16V14V13V10ZM17 14V21H27V14H17ZM27 13H17V11H27V13Z" fill="#9AC6FF"/>
<path d="M36.666 15.2646H37.6777C38.1882 15.2601 38.5915 15.1279 38.8877 14.8682C39.1885 14.6084 39.3389 14.2324 39.3389 13.7402C39.3389 13.2663 39.2135 12.8994 38.9629 12.6396C38.7168 12.3753 38.3385 12.2432 37.8281 12.2432C37.3815 12.2432 37.0146 12.373 36.7275 12.6328C36.4404 12.888 36.2969 13.223 36.2969 13.6377H34.6357C34.6357 13.1273 34.7702 12.6624 35.0391 12.2432C35.3125 11.8239 35.6908 11.498 36.1738 11.2656C36.6615 11.0286 37.2061 10.9102 37.8076 10.9102C38.8011 10.9102 39.5804 11.1608 40.1455 11.6621C40.7152 12.1589 41 12.8516 41 13.7402C41 14.1868 40.8564 14.6084 40.5693 15.0049C40.2868 15.3968 39.9199 15.693 39.4688 15.8936C40.0156 16.0804 40.4303 16.3743 40.7129 16.7754C41 17.1764 41.1436 17.6549 41.1436 18.2109C41.1436 19.1042 40.8359 19.8151 40.2207 20.3438C39.61 20.8724 38.8057 21.1367 37.8076 21.1367C36.8506 21.1367 36.0667 20.8815 35.4561 20.3711C34.8454 19.8607 34.54 19.1816 34.54 18.334H36.2012C36.2012 18.7715 36.347 19.127 36.6387 19.4004C36.9349 19.6738 37.3314 19.8105 37.8281 19.8105C38.3431 19.8105 38.7487 19.6738 39.0449 19.4004C39.3411 19.127 39.4893 18.7305 39.4893 18.2109C39.4893 17.6868 39.3343 17.2835 39.0244 17.001C38.7145 16.7184 38.2542 16.5771 37.6436 16.5771H36.666V15.2646ZM50.3945 21H43.7021V19.8584L47.0176 16.2422C47.4961 15.709 47.8356 15.2646 48.0361 14.9092C48.2412 14.5492 48.3438 14.1891 48.3438 13.8291C48.3438 13.3551 48.2093 12.9723 47.9404 12.6807C47.6761 12.389 47.3184 12.2432 46.8672 12.2432C46.3294 12.2432 45.9124 12.4072 45.6162 12.7354C45.32 13.0635 45.1719 13.5124 45.1719 14.082H43.5107C43.5107 13.4759 43.6475 12.9313 43.9209 12.4482C44.1989 11.9606 44.5931 11.5824 45.1035 11.3135C45.6185 11.0446 46.2109 10.9102 46.8809 10.9102C47.847 10.9102 48.6081 11.154 49.1641 11.6416C49.7246 12.1247 50.0049 12.7946 50.0049 13.6514C50.0049 14.1481 49.8636 14.6699 49.5811 15.2168C49.3031 15.7591 48.8451 16.3766 48.207 17.0693L45.7734 19.6738H50.3945V21ZM59.1416 19.6191H63.6602V21H57.4121V11.0469H59.1416V19.6191ZM69.083 21.1367C68.0303 21.1367 67.1758 20.8063 66.5195 20.1455C65.8678 19.4801 65.542 18.596 65.542 17.4932V17.2881C65.542 16.5498 65.6833 15.8913 65.9658 15.3125C66.2529 14.7292 66.654 14.2757 67.1689 13.9521C67.6839 13.6286 68.2581 13.4668 68.8916 13.4668C69.8988 13.4668 70.6758 13.7881 71.2227 14.4307C71.7741 15.0732 72.0498 15.9824 72.0498 17.1582V17.8281H67.2168C67.2669 18.4388 67.4697 18.9219 67.8252 19.2773C68.1852 19.6328 68.6364 19.8105 69.1787 19.8105C69.9398 19.8105 70.5596 19.5029 71.0381 18.8877L71.9336 19.7422C71.6374 20.1842 71.2409 20.5283 70.7441 20.7744C70.252 21.016 69.6982 21.1367 69.083 21.1367ZM68.8848 14.7998C68.429 14.7998 68.0599 14.9593 67.7773 15.2783C67.4993 15.5973 67.3216 16.0417 67.2441 16.6113H70.4092V16.4883C70.3727 15.9323 70.2246 15.513 69.9648 15.2305C69.7051 14.9434 69.3451 14.7998 68.8848 14.7998ZM74.9297 21V14.834H73.8018V13.6035H74.9297V12.9268C74.9297 12.1064 75.1576 11.473 75.6133 11.0264C76.069 10.5798 76.707 10.3564 77.5273 10.3564C77.819 10.3564 78.1289 10.3975 78.457 10.4795L78.416 11.7783C78.2337 11.7419 78.0218 11.7236 77.7803 11.7236C76.9873 11.7236 76.5908 12.1315 76.5908 12.9473V13.6035H78.0947V14.834H76.5908V21H74.9297ZM82.3896 11.8057V13.6035H83.6953V14.834H82.3896V18.9629C82.3896 19.2454 82.4443 19.4505 82.5537 19.5781C82.6676 19.7012 82.8682 19.7627 83.1553 19.7627C83.3467 19.7627 83.5404 19.7399 83.7363 19.6943V20.9795C83.3581 21.0843 82.9935 21.1367 82.6426 21.1367C81.3665 21.1367 80.7285 20.4326 80.7285 19.0244V14.834H79.5117V13.6035H80.7285V11.8057H82.3896Z" fill="#9AC6FF"/>
<path fill-rule="evenodd" clip-rule="evenodd" d="M106.633 14.6402C107.176 13.9889 106.713 13 105.865 13H100.135C99.2872 13 98.824 13.9889 99.3668 14.6402L102.232 18.0781C102.632 18.5579 103.368 18.5579 103.768 18.0781L106.633 14.6402Z" fill="#9AC6FF"/>
<path d="M16 1H108V-1H16V1ZM108 31H16V33H108V31ZM16 31C7.71573 31 1 24.2843 1 16H-1C-1 25.3888 6.61116 33 16 33V31ZM123 16C123 24.2843 116.284 31 108 31V33C117.389 33 125 25.3888 125 16H123ZM108 1C116.284 1 123 7.71573 123 16H125C125 6.61116 117.389 -1 108 -1V1ZM16 -1C6.61116 -1 -1 6.61116 -1 16H1C1 7.71573 7.71573 1 16 1V-1Z" fill="#9AC6FF"/>
<defs>
<linearGradient id="paint0_linear" x1="0" y1="16" x2="124" y2="16" gradientUnits="userSpaceOnUse">
<stop stop-color="#F7FAFF"/>
<stop offset="1" stop-color="#F7FAFF"/>
</linearGradient>
</defs>
</svg>
