<svg width="92" height="24" viewBox="0 0 92 24" fill="none" xmlns="http://www.w3.org/2000/svg">
<path d="M0 12C0 5.37258 5.37258 0 12 0H80C86.6274 0 92 5.37258 92 12V12C92 18.6274 86.6274 24 80 24H12C5.37259 24 0 18.6274 0 12V12Z" fill="white"/>
<path fill-rule="evenodd" clip-rule="evenodd" d="M12.4268 14C13.4563 16.913 16.2344 19 19.5 19C22.7655 19 25.5436 16.913 26.5732 14H12.4268Z" fill="#F6F7F9"/>
<path fill-rule="evenodd" clip-rule="evenodd" d="M27 11.5C27 15.6421 23.6421 19 19.5 19C15.3579 19 12 15.6421 12 11.5C12 7.35786 15.3579 4 19.5 4C23.6421 4 27 7.35786 27 11.5ZM25.5018 14C24.5223 16.349 22.2039 18 19.5 18C16.7961 18 14.4777 16.349 13.4982 14H18.2H19.341H25.5018ZM25.8261 13H19.891L22.366 8.5L21.5 8L18.75 13H13.1739C13.0602 12.5185 13 12.0163 13 11.5C13 7.91015 15.9101 5 19.5 5C23.0899 5 26 7.91015 26 11.5C26 12.0163 25.9398 12.5185 25.8261 13Z" fill="#4B6C89"/>
<path d="M41.8047 17H40.4854L35.4746 9.33008V17H34.1553V7.04688H35.4746L40.499 14.751V7.04688H41.8047V17ZM43.6025 13.2334C43.6025 12.5088 43.7438 11.8571 44.0264 11.2783C44.3135 10.6995 44.71 10.2529 45.2158 9.93848C45.7262 9.62402 46.3073 9.4668 46.959 9.4668C47.9661 9.4668 48.7796 9.81543 49.3994 10.5127C50.0238 11.21 50.3359 12.1374 50.3359 13.2949V13.3838C50.3359 14.1038 50.1969 14.751 49.9189 15.3252C49.6455 15.8949 49.2513 16.3392 48.7363 16.6582C48.2259 16.9772 47.638 17.1367 46.9727 17.1367C45.9701 17.1367 45.1566 16.7881 44.5322 16.0908C43.9124 15.3936 43.6025 14.4707 43.6025 13.3223V13.2334ZM44.874 13.3838C44.874 14.2041 45.0632 14.8626 45.4414 15.3594C45.8242 15.8561 46.3346 16.1045 46.9727 16.1045C47.6152 16.1045 48.1257 15.8538 48.5039 15.3525C48.8822 14.8467 49.0713 14.1403 49.0713 13.2334C49.0713 12.4222 48.8776 11.766 48.4902 11.2646C48.1074 10.7588 47.597 10.5059 46.959 10.5059C46.3346 10.5059 45.8311 10.7542 45.4482 11.251C45.0654 11.7477 44.874 12.4587 44.874 13.3838ZM55.4971 10.7383C55.3057 10.7064 55.0983 10.6904 54.875 10.6904C54.0456 10.6904 53.4827 11.0436 53.1865 11.75V17H51.9219V9.60352H53.1523L53.1729 10.458C53.5876 9.7972 54.1755 9.4668 54.9365 9.4668C55.1826 9.4668 55.3695 9.4987 55.4971 9.5625V10.7383ZM57.8555 9.60352L57.8896 10.4238C58.432 9.78581 59.1634 9.4668 60.084 9.4668C61.1185 9.4668 61.8226 9.86328 62.1963 10.6562C62.4424 10.3008 62.7614 10.0137 63.1533 9.79492C63.5498 9.57617 64.0169 9.4668 64.5547 9.4668C66.1771 9.4668 67.002 10.3258 67.0293 12.0439V17H65.7646V12.1191C65.7646 11.5905 65.6439 11.1963 65.4023 10.9365C65.1608 10.6722 64.7552 10.54 64.1855 10.54C63.7161 10.54 63.3265 10.6813 63.0166 10.9639C62.7067 11.2419 62.5267 11.6178 62.4766 12.0918V17H61.2051V12.1533C61.2051 11.0778 60.6787 10.54 59.626 10.54C58.7965 10.54 58.2292 10.8932 57.9238 11.5996V17H56.6592V9.60352H57.8555ZM73.5098 17C73.4368 16.8542 73.3776 16.5944 73.332 16.2207C72.7441 16.8314 72.0423 17.1367 71.2266 17.1367C70.4974 17.1367 69.8981 16.9316 69.4287 16.5215C68.9639 16.1068 68.7314 15.5827 68.7314 14.9492C68.7314 14.179 69.0231 13.582 69.6064 13.1582C70.1943 12.7298 71.0192 12.5156 72.0811 12.5156H73.3115V11.9346C73.3115 11.4925 73.1794 11.1416 72.915 10.8818C72.6507 10.6175 72.2611 10.4854 71.7461 10.4854C71.2949 10.4854 70.9167 10.5993 70.6113 10.8271C70.306 11.055 70.1533 11.3307 70.1533 11.6543H68.8818C68.8818 11.2852 69.0117 10.9297 69.2715 10.5879C69.5358 10.2415 69.8913 9.9681 70.3379 9.76758C70.7891 9.56706 71.2835 9.4668 71.8213 9.4668C72.6735 9.4668 73.3411 9.68099 73.8242 10.1094C74.3073 10.5332 74.5579 11.1188 74.5762 11.8662V15.2705C74.5762 15.9495 74.6628 16.4896 74.8359 16.8906V17H73.5098ZM71.4111 16.0361C71.8076 16.0361 72.1836 15.9336 72.5391 15.7285C72.8945 15.5234 73.152 15.2568 73.3115 14.9287V13.4111H72.3203C70.7708 13.4111 69.9961 13.8646 69.9961 14.7715C69.9961 15.168 70.1283 15.4779 70.3926 15.7012C70.6569 15.9245 70.9964 16.0361 71.4111 16.0361ZM77.9326 17H76.668V6.5H77.9326V17Z" fill="#2B455D"/>
</svg>
