<svg width="146" height="146" viewBox="0 0 146 146" fill="none" xmlns="http://www.w3.org/2000/svg">
<circle cx="73" cy="73" r="73" fill="white"/>
<mask id="mask0" mask-type="alpha" maskUnits="userSpaceOnUse" x="0" y="0" width="146" height="146">
<circle cx="73" cy="73" r="73" fill="white"/>
</mask>
<g mask="url(#mask0)">
<circle cx="73" cy="73" r="73" fill="#DAF5FF"/>
<path fill-rule="evenodd" clip-rule="evenodd" d="M33 43C33 41.8954 33.8954 41 35 41H111C112.105 41 113 41.8954 113 43V145C113 146.105 112.105 147 111 147H35C33.8954 147 33 146.105 33 145V43Z" fill="#2E9CF2"/>
<path fill-rule="evenodd" clip-rule="evenodd" d="M47 114C47 113.448 47.4477 113 48 113H98C98.5523 113 99 113.448 99 114C99 114.552 98.5523 115 98 115H48C47.4477 115 47 114.552 47 114ZM47 120C47 119.448 47.4477 119 48 119H78C78.5523 119 79 119.448 79 120C79 120.552 78.5523 121 78 121H48C47.4477 121 47 120.552 47 120ZM48 125C47.4477 125 47 125.448 47 126C47 126.552 47.4477 127 48 127H62C62.5523 127 63 126.552 63 126C63 125.448 62.5523 125 62 125H48Z" fill="#B1EAFF"/>
<circle cx="73" cy="77" r="26" fill="#3048E9" fill-opacity="0.98"/>
<path d="M68 92C67.7348 91.9999 67.4805 91.8945 67.293 91.707L57.586 82L59 80.586L67.9 89.486L86.809 64.6L88.4 65.809L68.8 91.609C68.7137 91.7226 68.6041 91.8165 68.4785 91.8843C68.353 91.9521 68.2144 91.9922 68.072 92.002L68 92Z" fill="#B1EAFF"/>
</g>
</svg>
