<svg width="90" height="90" viewBox="0 0 90 90" fill="none" xmlns="http://www.w3.org/2000/svg">
<circle cx="45" cy="45" r="45" fill="#EDF0F3"/>
<path d="M46.485 60.071L48.778 57.778C49.1684 57.3875 49.1684 56.7545 48.778 56.364L45.768 53.354L48.561 50.561C49.147 49.9751 49.147 49.025 48.561 48.439C47.975 47.8531 47.025 47.8531 46.439 48.439L43.646 51.232L39.768 47.354L42.561 44.561C43.147 43.9751 43.147 43.025 42.561 42.439C41.975 41.8531 41.025 41.8531 40.439 42.439L37.646 45.232L34.636 42.222C34.2455 41.8317 33.6125 41.8317 33.222 42.222L30.929 44.515L46.485 60.071Z" fill="#4B6C89"/>
<path d="M29.515 45.929L29.222 46.222C25.2081 50.2461 24.917 56.6641 28.55 61.035L23.293 66.293C23.033 66.5441 22.9288 66.9159 23.0203 67.2655C23.1118 67.6152 23.3848 67.8882 23.7345 67.9797C24.0841 68.0712 24.4559 67.967 24.707 67.707L29.965 62.45C34.3343 66.0878 40.756 65.7965 44.778 61.778L45.071 61.485L29.515 45.929Z" fill="#4B6C89"/>
<path d="M45.515 29.929L43.222 32.222C42.8316 32.6125 42.8316 33.2455 43.222 33.636L57.364 47.778C57.7545 48.1684 58.3875 48.1684 58.778 47.778L61.071 45.485L45.515 29.929Z" fill="#4B6C89"/>
<path d="M68.707 22.293C68.3165 21.9026 67.6835 21.9026 67.293 22.293L62.035 27.55C57.664 23.917 51.246 24.2082 47.222 28.222L46.929 28.515L62.485 44.071L62.778 43.778C66.7918 39.754 67.083 33.336 63.45 28.965L68.707 23.707C69.0974 23.3165 69.0974 22.6835 68.707 22.293Z" fill="#4B6C89"/>
</svg>
