<svg width="14" height="14" viewBox="0 0 14 14" fill="none" xmlns="http://www.w3.org/2000/svg">
<circle cx="6.99969" cy="7.00031" r="6.99969" fill="#D5391C"/>
<mask id="mask0" mask-type="alpha" maskUnits="userSpaceOnUse" x="0" y="0" width="14" height="14">
<circle cx="6.99969" cy="7.00031" r="6.99969" fill="white"/>
</mask>
<g mask="url(#mask0)">
<path d="M10.7065 3.29347C10.316 2.9031 9.68308 2.9031 9.29259 3.29347L6.99969 5.58637L4.70679 3.29347C4.31443 2.91451 3.69075 2.91993 3.30504 3.30565C2.91932 3.69136 2.9139 4.31504 3.29286 4.70741L5.58576 7.00031L3.29286 9.29321C3.03291 9.54427 2.92866 9.91606 3.02017 10.2657C3.11168 10.6153 3.38471 10.8883 3.73433 10.9798C4.08394 11.0713 4.45573 10.9671 4.70679 10.7071L6.99969 8.41424L9.29259 10.7071C9.68496 11.0861 10.3086 11.0807 10.6944 10.695C11.0801 10.3092 11.0855 9.68557 10.7065 9.29321L8.41363 7.00031L10.7065 4.70741C11.0969 4.31692 11.0969 3.68395 10.7065 3.29347Z" fill="white"/>
</g>
</svg>
