<svg width="67" height="19" viewBox="0 0 67 19" fill="none" xmlns="http://www.w3.org/2000/svg">
<path d="M0 9.5C0 4.2533 4.2533 0 9.5 0H57.5C62.7467 0 67 4.2533 67 9.5V9.5C67 14.7467 62.7467 19 57.5 19H9.5C4.2533 19 0 14.7467 0 9.5V9.5Z" fill="#F6F7F9"/>
<path d="M15.5503 11.2974L17.5376 5.17969H19.0308L16.2163 13H14.9004L12.0967 5.17969H13.5845L15.5503 11.2974ZM23.0161 13C22.9588 12.889 22.9087 12.7082 22.8657 12.4575C22.4504 12.8908 21.9419 13.1074 21.3403 13.1074C20.7567 13.1074 20.2804 12.9409 19.9116 12.6079C19.5428 12.2749 19.3584 11.8631 19.3584 11.3726C19.3584 10.7531 19.5876 10.2786 20.0459 9.94922C20.5078 9.61621 21.1667 9.44971 22.0225 9.44971H22.8228V9.06836C22.8228 8.76758 22.7386 8.52767 22.5703 8.34863C22.402 8.16602 22.146 8.07471 21.8022 8.07471C21.505 8.07471 21.2616 8.1499 21.0718 8.30029C20.882 8.4471 20.7871 8.63509 20.7871 8.86426H19.4819C19.4819 8.54557 19.5876 8.24837 19.7988 7.97266C20.0101 7.69336 20.2965 7.47493 20.6582 7.31738C21.0234 7.15983 21.4299 7.08105 21.8774 7.08105C22.5578 7.08105 23.1003 7.25293 23.5049 7.59668C23.9095 7.93685 24.1172 8.41667 24.1279 9.03613V11.6572C24.1279 12.18 24.2013 12.5972 24.3481 12.9087V13H23.0161ZM21.582 12.0601C21.8398 12.0601 22.0815 11.9974 22.3071 11.8721C22.5363 11.7467 22.7082 11.5785 22.8228 11.3672V10.2715H22.1191C21.6357 10.2715 21.2723 10.3556 21.0288 10.5239C20.7853 10.6922 20.6636 10.9303 20.6636 11.2383C20.6636 11.4889 20.7459 11.6895 20.9106 11.8398C21.0789 11.9867 21.3027 12.0601 21.582 12.0601ZM26.8833 13H25.5781V4.75H26.8833V13ZM31.8301 12.4307C31.4469 12.8818 30.9027 13.1074 30.1973 13.1074C29.5671 13.1074 29.089 12.923 28.7632 12.5542C28.4409 12.1854 28.2798 11.6519 28.2798 10.9536V7.18848H29.585V10.9375C29.585 11.6751 29.8911 12.0439 30.5034 12.0439C31.1372 12.0439 31.5651 11.8166 31.7871 11.3618V7.18848H33.0923V13H31.8623L31.8301 12.4307ZM36.981 13.1074C36.1538 13.1074 35.4824 12.8478 34.9668 12.3286C34.4548 11.8058 34.1987 11.1112 34.1987 10.2446V10.0835C34.1987 9.50342 34.3097 8.986 34.5317 8.53125C34.7573 8.07292 35.0724 7.71663 35.4771 7.4624C35.8817 7.20817 36.3328 7.08105 36.8306 7.08105C37.6219 7.08105 38.2324 7.3335 38.6621 7.83838C39.0954 8.34326 39.312 9.05762 39.312 9.98145V10.5078H35.5146C35.554 10.9876 35.7134 11.3672 35.9927 11.6465C36.2756 11.9258 36.63 12.0654 37.0562 12.0654C37.6541 12.0654 38.1411 11.8237 38.5171 11.3403L39.2207 12.0117C38.988 12.359 38.6764 12.6294 38.2861 12.8228C37.8994 13.0125 37.4644 13.1074 36.981 13.1074ZM36.8252 8.12842C36.4671 8.12842 36.1771 8.25374 35.9551 8.50439C35.7367 8.75505 35.597 9.10417 35.5361 9.55176H38.0229V9.45508C37.9943 9.01823 37.8779 8.6888 37.6738 8.4668C37.4697 8.24121 37.1868 8.12842 36.8252 8.12842Z" fill="#4B6C89"/>
<path fill-rule="evenodd" clip-rule="evenodd" d="M48.793 9.50008L45.6465 6.35359L46.3536 5.64648L49.5001 8.79297L52.6466 5.64648L53.3537 6.35359L50.2072 9.50008L53.3536 12.6465L52.6465 13.3536L49.5001 10.2072L46.3537 13.3536L45.6466 12.6465L48.793 9.50008Z" fill="#4B6C89"/>
<path d="M9.5 1H57.5V-1H9.5V1ZM57.5 18H9.5V20H57.5V18ZM9.5 18C4.80558 18 1 14.1944 1 9.5H-1C-1 15.299 3.70101 20 9.5 20V18ZM66 9.5C66 14.1944 62.1944 18 57.5 18V20C63.299 20 68 15.299 68 9.5H66ZM57.5 1C62.1944 1 66 4.80558 66 9.5H68C68 3.70101 63.299 -1 57.5 -1V1ZM9.5 -1C3.70101 -1 -1 3.70101 -1 9.5H1C1 4.80558 4.80558 1 9.5 1V-1Z" fill="#EDF0F3"/>
</svg>
