<svg width="24" height="24" viewBox="0 0 24 24" fill="none" xmlns="http://www.w3.org/2000/svg">
<circle cx="12" cy="12" r="12" fill="#4B6C89"/>
<path fill-rule="evenodd" clip-rule="evenodd" d="M11.0123 17.0194C10.7471 17.0193 10.4928 16.9139 10.3053 16.7264L7.30531 13.7264C7.04536 13.4753 6.9411 13.1035 7.03262 12.7539C7.12413 12.4042 7.39718 12.1312 7.74681 12.0397C8.09644 11.9482 8.46824 12.0524 8.71931 12.3124L10.8723 14.4644L14.1903 7.45038C14.3898 7.14722 14.7378 6.97591 15.0997 7.00275C15.4616 7.02959 15.7805 7.25037 15.9331 7.57963C16.0856 7.90889 16.0478 8.29495 15.8343 8.58838L11.8343 16.5884C11.6665 16.8337 11.3982 16.9916 11.1023 17.0194C11.0723 17.0194 11.0423 17.0194 11.0123 17.0194Z" fill="white"/>
</svg>
