<svg width="24" height="24" viewBox="0 0 24 24" fill="none" xmlns="http://www.w3.org/2000/svg">
<circle cx="12" cy="12" r="11.5" fill="#F6F7F9" stroke="#93A7B8"/>
<path fill-rule="evenodd" clip-rule="evenodd" d="M15.7 8.3C15.3 7.9 14.7 7.9 14.3 8.3L12 10.6L9.7 8.3C9.3 7.9 8.7 7.9 8.3 8.3C7.9 8.7 7.9 9.3 8.3 9.7L10.6 12L8.3 14.3C7.9 14.7 7.9 15.3 8.3 15.7C8.5 15.9 8.7 16 9 16C9.3 16 9.5 15.9 9.7 15.7L12 13.4L14.3 15.7C14.5 15.9 14.8 16 15 16C15.2 16 15.5 15.9 15.7 15.7C16.1 15.3 16.1 14.7 15.7 14.3L13.4 12L15.7 9.7C16.1 9.3 16.1 8.7 15.7 8.3Z" fill="#6F89A1"/>
</svg>
