<svg width="15" height="15" viewBox="0 0 15 15" fill="none" xmlns="http://www.w3.org/2000/svg">
<path fill-rule="evenodd" clip-rule="evenodd" d="M0.426764 10C1.45636 12.913 4.23445 15 7.5 15C10.7655 15 13.5436 12.913 14.5732 10H0.426764Z" fill="#F6F7F9"/>
<path fill-rule="evenodd" clip-rule="evenodd" d="M15 7.5C15 11.6421 11.6421 15 7.5 15C3.35786 15 0 11.6421 0 7.5C0 3.35786 3.35786 0 7.5 0C11.6421 0 15 3.35786 15 7.5ZM13.5018 10C12.5223 12.349 10.2039 14 7.5 14C4.79605 14 2.47772 12.349 1.49816 10H6.2H7.34103H13.5018ZM13.8261 9H7.89103L10.366 4.5L9.50001 4L6.75 9H1.17393C1.06019 8.51848 1 8.01627 1 7.5C1 3.91015 3.91015 1 7.5 1C11.0899 1 14 3.91015 14 7.5C14 8.01627 13.9398 8.51848 13.8261 9Z" fill="#4B6C89"/>
</svg>
