<svg width="15" height="15" viewBox="0 0 15 15" fill="none" xmlns="http://www.w3.org/2000/svg">
<circle cx="7.5" cy="7.5" r="7" fill="#F6F7F9" stroke="#4B6C89"/>
<path fill-rule="evenodd" clip-rule="evenodd" d="M10.1821 4L10.8892 4.69752L4.81817 10.6863L4.11106 9.98877L10.1821 4ZM11 10.0136C11 10.5584 10.5523 11 10 11C9.44772 11 9 10.5584 9 10.0136C9 9.46876 9.44772 9.02711 10 9.02711C10.5523 9.02711 11 9.46876 11 10.0136ZM5 6.06778C5.55228 6.06778 6 5.62613 6 5.08133C6 4.53653 5.55228 4.09489 5 4.09489C4.44772 4.09489 4 4.53653 4 5.08133C4 5.62613 4.44772 6.06778 5 6.06778Z" fill="#4B6C89"/>
</svg>
