<svg width="87" height="28" viewBox="0 0 87 28" fill="none" xmlns="http://www.w3.org/2000/svg">
<rect width="87" height="28" fill="#F9FAFB"/>
<path d="M20.1758 18H18.9507V13.728H14.2915V18H13.0728V8.75781H14.2915V12.7314H18.9507V8.75781H20.1758V18ZM21.8452 14.5024C21.8452 13.8296 21.9764 13.2244 22.2388 12.687C22.5054 12.1496 22.8735 11.7349 23.3433 11.4429C23.8172 11.1509 24.3568 11.0049 24.9619 11.0049C25.8971 11.0049 26.6525 11.3286 27.228 11.9761C27.8078 12.6235 28.0977 13.4847 28.0977 14.5596V14.6421C28.0977 15.3107 27.9686 15.9116 27.7104 16.4448C27.4565 16.9738 27.0905 17.3864 26.6123 17.6826C26.1383 17.9788 25.5924 18.127 24.9746 18.127C24.0436 18.127 23.2882 17.8032 22.7085 17.1558C22.133 16.5083 21.8452 15.6514 21.8452 14.585V14.5024ZM23.0259 14.6421C23.0259 15.4038 23.2015 16.0153 23.5527 16.4766C23.9082 16.9378 24.3822 17.1685 24.9746 17.1685C25.5713 17.1685 26.0452 16.9357 26.3965 16.4702C26.7477 16.0005 26.9233 15.3446 26.9233 14.5024C26.9233 13.7492 26.7435 13.1398 26.3838 12.6743C26.0283 12.2046 25.5544 11.9697 24.9619 11.9697C24.3822 11.9697 23.9146 12.2004 23.5591 12.6616C23.2036 13.1229 23.0259 13.783 23.0259 14.6421ZM31.7349 16.4067L33.436 11.1318H34.6357L32.1729 18H31.2778L28.7896 11.1318H29.9893L31.7349 16.4067ZM38.5269 18.127C37.5959 18.127 36.8384 17.8223 36.2544 17.2129C35.6704 16.5993 35.3784 15.7804 35.3784 14.7563V14.5405C35.3784 13.8592 35.5075 13.252 35.7656 12.7188C36.028 12.1813 36.3919 11.7624 36.8574 11.4619C37.3271 11.1572 37.835 11.0049 38.3809 11.0049C39.2738 11.0049 39.9678 11.299 40.4629 11.8872C40.958 12.4754 41.2056 13.3175 41.2056 14.4136V14.9023H36.5527C36.5697 15.5794 36.7664 16.1274 37.1431 16.5464C37.5239 16.9611 38.0063 17.1685 38.5903 17.1685C39.005 17.1685 39.3563 17.0838 39.644 16.9146C39.9318 16.7453 40.1836 16.521 40.3994 16.2417L41.1167 16.8003C40.5412 17.6847 39.6779 18.127 38.5269 18.127ZM38.3809 11.9697C37.9069 11.9697 37.5091 12.1432 37.1875 12.4902C36.8659 12.833 36.667 13.3154 36.5908 13.9375H40.0312V13.8486C39.9974 13.252 39.8366 12.7907 39.5488 12.4648C39.2611 12.1348 38.8717 11.9697 38.3809 11.9697ZM45.8901 12.1855C45.7124 12.1559 45.5199 12.1411 45.3125 12.1411C44.5423 12.1411 44.0197 12.4691 43.7446 13.125V18H42.5703V11.1318H43.7129L43.7319 11.9253C44.117 11.3117 44.6629 11.0049 45.3696 11.0049C45.5981 11.0049 45.7716 11.0345 45.8901 11.0938V12.1855Z" fill="#4B6C89"/>
</svg>
