<svg width="452" height="52" viewBox="0 0 452 52" fill="none" xmlns="http://www.w3.org/2000/svg">
<rect x="0.5" y="20.5" width="451" height="31" rx="3.5" fill="white"/>
<path d="M20.4766 37.8418C20.3535 38.8945 19.9639 39.708 19.3076 40.2822C18.6559 40.8519 17.7878 41.1367 16.7031 41.1367C15.5273 41.1367 14.584 40.7152 13.873 39.8721C13.1667 39.029 12.8135 37.901 12.8135 36.4883V35.5312C12.8135 34.6061 12.9775 33.7926 13.3057 33.0908C13.6383 32.389 14.1077 31.8512 14.7139 31.4775C15.32 31.0993 16.0218 30.9102 16.8193 30.9102C17.8766 30.9102 18.7243 31.2064 19.3623 31.7988C20.0003 32.3867 20.3717 33.2025 20.4766 34.2461H19.1572C19.0433 33.4531 18.7949 32.8789 18.4121 32.5234C18.0339 32.168 17.5029 31.9902 16.8193 31.9902C15.9808 31.9902 15.3223 32.3001 14.8438 32.9199C14.3698 33.5397 14.1328 34.4215 14.1328 35.5654V36.5293C14.1328 37.6094 14.3584 38.4684 14.8096 39.1064C15.2607 39.7445 15.8919 40.0635 16.7031 40.0635C17.4323 40.0635 17.9906 39.8994 18.3779 39.5713C18.7699 39.2386 19.0296 38.6621 19.1572 37.8418H20.4766ZM23.3408 34.499C23.9014 33.8109 24.6305 33.4668 25.5283 33.4668C27.0915 33.4668 27.8799 34.3486 27.8936 36.1123V41H26.6289V36.1055C26.6243 35.5723 26.5013 35.1781 26.2598 34.9229C26.0228 34.6676 25.6514 34.54 25.1455 34.54C24.7354 34.54 24.3753 34.6494 24.0654 34.8682C23.7555 35.0869 23.514 35.374 23.3408 35.7295V41H22.0762V30.5H23.3408V34.499ZM29.4521 37.2334C29.4521 36.5088 29.5934 35.8571 29.876 35.2783C30.1631 34.6995 30.5596 34.2529 31.0654 33.9385C31.5758 33.624 32.1569 33.4668 32.8086 33.4668C33.8158 33.4668 34.6292 33.8154 35.249 34.5127C35.8734 35.21 36.1855 36.1374 36.1855 37.2949V37.3838C36.1855 38.1038 36.0465 38.751 35.7686 39.3252C35.4951 39.8949 35.1009 40.3392 34.5859 40.6582C34.0755 40.9772 33.4876 41.1367 32.8223 41.1367C31.8197 41.1367 31.0062 40.7881 30.3818 40.0908C29.762 39.3936 29.4521 38.4707 29.4521 37.3223V37.2334ZM30.7236 37.3838C30.7236 38.2041 30.9128 38.8626 31.291 39.3594C31.6738 39.8561 32.1842 40.1045 32.8223 40.1045C33.4648 40.1045 33.9753 39.8538 34.3535 39.3525C34.7318 38.8467 34.9209 38.1403 34.9209 37.2334C34.9209 36.4222 34.7272 35.766 34.3398 35.2646C33.957 34.7588 33.4466 34.5059 32.8086 34.5059C32.1842 34.5059 31.6807 34.7542 31.2979 35.251C30.915 35.7477 30.7236 36.4587 30.7236 37.3838ZM37.4365 37.2334C37.4365 36.5088 37.5778 35.8571 37.8604 35.2783C38.1475 34.6995 38.5439 34.2529 39.0498 33.9385C39.5602 33.624 40.1413 33.4668 40.793 33.4668C41.8001 33.4668 42.6136 33.8154 43.2334 34.5127C43.8577 35.21 44.1699 36.1374 44.1699 37.2949V37.3838C44.1699 38.1038 44.0309 38.751 43.7529 39.3252C43.4795 39.8949 43.0853 40.3392 42.5703 40.6582C42.0599 40.9772 41.472 41.1367 40.8066 41.1367C39.804 41.1367 38.9906 40.7881 38.3662 40.0908C37.7464 39.3936 37.4365 38.4707 37.4365 37.3223V37.2334ZM38.708 37.3838C38.708 38.2041 38.8971 38.8626 39.2754 39.3594C39.6582 39.8561 40.1686 40.1045 40.8066 40.1045C41.4492 40.1045 41.9596 39.8538 42.3379 39.3525C42.7161 38.8467 42.9053 38.1403 42.9053 37.2334C42.9053 36.4222 42.7116 35.766 42.3242 35.2646C41.9414 34.7588 41.431 34.5059 40.793 34.5059C40.1686 34.5059 39.665 34.7542 39.2822 35.251C38.8994 35.7477 38.708 36.4587 38.708 37.3838ZM50.0625 39.0381C50.0625 38.6963 49.9326 38.432 49.6729 38.2451C49.4176 38.0537 48.9688 37.8896 48.3262 37.7529C47.6882 37.6162 47.18 37.4521 46.8018 37.2607C46.4281 37.0693 46.1501 36.8415 45.9678 36.5771C45.79 36.3128 45.7012 35.9984 45.7012 35.6338C45.7012 35.0277 45.9564 34.515 46.4668 34.0957C46.9818 33.6764 47.638 33.4668 48.4355 33.4668C49.2741 33.4668 49.9531 33.6833 50.4727 34.1162C50.9967 34.5492 51.2588 35.1029 51.2588 35.7773H49.9873C49.9873 35.431 49.8392 35.1325 49.543 34.8818C49.2513 34.6312 48.8822 34.5059 48.4355 34.5059C47.9753 34.5059 47.6152 34.6061 47.3555 34.8066C47.0957 35.0072 46.9658 35.2692 46.9658 35.5928C46.9658 35.8981 47.0866 36.1283 47.3281 36.2832C47.5697 36.4382 48.0049 36.5863 48.6338 36.7275C49.2673 36.8688 49.7799 37.0374 50.1719 37.2334C50.5638 37.4294 50.8532 37.6663 51.04 37.9443C51.2314 38.2178 51.3271 38.5527 51.3271 38.9492C51.3271 39.61 51.0628 40.141 50.5342 40.542C50.0055 40.9385 49.3197 41.1367 48.4766 41.1367C47.8841 41.1367 47.36 41.0319 46.9043 40.8223C46.4486 40.6126 46.0908 40.321 45.8311 39.9473C45.5758 39.569 45.4482 39.1611 45.4482 38.7236H46.7129C46.7357 39.1475 46.9043 39.4847 47.2188 39.7354C47.5378 39.9814 47.957 40.1045 48.4766 40.1045C48.9551 40.1045 49.3379 40.0088 49.625 39.8174C49.9167 39.6214 50.0625 39.3617 50.0625 39.0381ZM56.0439 41.1367C55.0413 41.1367 54.2256 40.8086 53.5967 40.1523C52.9678 39.4915 52.6533 38.6097 52.6533 37.5068V37.2744C52.6533 36.5407 52.7923 35.8867 53.0703 35.3125C53.3529 34.7337 53.7448 34.2826 54.2461 33.959C54.752 33.6309 55.2988 33.4668 55.8867 33.4668C56.8483 33.4668 57.5957 33.7835 58.1289 34.417C58.6621 35.0505 58.9287 35.9574 58.9287 37.1377V37.6641H53.918C53.9362 38.3932 54.1481 38.9834 54.5537 39.4346C54.9639 39.8812 55.4834 40.1045 56.1123 40.1045C56.5589 40.1045 56.9372 40.0133 57.2471 39.8311C57.557 39.6488 57.8281 39.4072 58.0605 39.1064L58.833 39.708C58.2132 40.6605 57.2835 41.1367 56.0439 41.1367ZM55.8867 34.5059C55.3763 34.5059 54.9479 34.6927 54.6016 35.0664C54.2552 35.4355 54.041 35.9551 53.959 36.625H57.6641V36.5293C57.6276 35.8867 57.4544 35.39 57.1445 35.0391C56.8346 34.6836 56.4154 34.5059 55.8867 34.5059ZM67.002 36.5635C65.8763 36.2399 65.056 35.8434 64.541 35.374C64.0306 34.9001 63.7754 34.3167 63.7754 33.624C63.7754 32.8402 64.0876 32.193 64.7119 31.6826C65.3408 31.1676 66.1566 30.9102 67.1592 30.9102C67.8428 30.9102 68.4512 31.0423 68.9844 31.3066C69.5221 31.571 69.9368 31.9355 70.2285 32.4004C70.5247 32.8652 70.6729 33.3734 70.6729 33.9248H69.3535C69.3535 33.3232 69.1621 32.8516 68.7793 32.5098C68.3965 32.1634 67.8564 31.9902 67.1592 31.9902C66.512 31.9902 66.0062 32.1338 65.6416 32.4209C65.2816 32.7035 65.1016 33.0977 65.1016 33.6035C65.1016 34.0091 65.2725 34.3532 65.6143 34.6357C65.9606 34.9137 66.5462 35.1689 67.3711 35.4014C68.2005 35.6338 68.8477 35.8913 69.3125 36.1738C69.7819 36.4518 70.1283 36.7777 70.3516 37.1514C70.5794 37.5251 70.6934 37.9648 70.6934 38.4707C70.6934 39.2773 70.3789 39.9245 69.75 40.4121C69.1211 40.8952 68.2803 41.1367 67.2275 41.1367C66.5439 41.1367 65.9059 41.0068 65.3135 40.7471C64.721 40.4827 64.263 40.1227 63.9395 39.667C63.6204 39.2113 63.4609 38.694 63.4609 38.1152H64.7803C64.7803 38.7168 65.0013 39.193 65.4434 39.5439C65.89 39.8903 66.4847 40.0635 67.2275 40.0635C67.9202 40.0635 68.4512 39.9222 68.8203 39.6396C69.1895 39.3571 69.374 38.972 69.374 38.4844C69.374 37.9967 69.2031 37.6208 68.8613 37.3564C68.5195 37.0876 67.8997 36.8232 67.002 36.5635ZM71.8486 37.2334C71.8486 36.5088 71.9899 35.8571 72.2725 35.2783C72.5596 34.6995 72.9561 34.2529 73.4619 33.9385C73.9723 33.624 74.5534 33.4668 75.2051 33.4668C76.2122 33.4668 77.0257 33.8154 77.6455 34.5127C78.2699 35.21 78.582 36.1374 78.582 37.2949V37.3838C78.582 38.1038 78.443 38.751 78.165 39.3252C77.8916 39.8949 77.4974 40.3392 76.9824 40.6582C76.472 40.9772 75.8841 41.1367 75.2188 41.1367C74.2161 41.1367 73.4027 40.7881 72.7783 40.0908C72.1585 39.3936 71.8486 38.4707 71.8486 37.3223V37.2334ZM73.1201 37.3838C73.1201 38.2041 73.3092 38.8626 73.6875 39.3594C74.0703 39.8561 74.5807 40.1045 75.2188 40.1045C75.8613 40.1045 76.3717 39.8538 76.75 39.3525C77.1283 38.8467 77.3174 38.1403 77.3174 37.2334C77.3174 36.4222 77.1237 35.766 76.7363 35.2646C76.3535 34.7588 75.8431 34.5059 75.2051 34.5059C74.5807 34.5059 74.0771 34.7542 73.6943 35.251C73.3115 35.7477 73.1201 36.4587 73.1201 37.3838ZM81.3574 33.6035L81.3916 34.4238C81.9339 33.7858 82.6654 33.4668 83.5859 33.4668C84.6204 33.4668 85.3245 33.8633 85.6982 34.6562C85.9443 34.3008 86.2633 34.0137 86.6553 33.7949C87.0518 33.5762 87.5189 33.4668 88.0566 33.4668C89.679 33.4668 90.5039 34.3258 90.5312 36.0439V41H89.2666V36.1191C89.2666 35.5905 89.1458 35.1963 88.9043 34.9365C88.6628 34.6722 88.2572 34.54 87.6875 34.54C87.2181 34.54 86.8285 34.6813 86.5186 34.9639C86.2087 35.2419 86.0286 35.6178 85.9785 36.0918V41H84.707V36.1533C84.707 35.0778 84.1807 34.54 83.1279 34.54C82.2985 34.54 81.7311 34.8932 81.4258 35.5996V41H80.1611V33.6035H81.3574ZM94.1611 31.8125V33.6035H95.542V34.5811H94.1611V39.168C94.1611 39.4642 94.2227 39.6875 94.3457 39.8379C94.4688 39.9837 94.6784 40.0566 94.9746 40.0566C95.1204 40.0566 95.321 40.0293 95.5762 39.9746V41C95.2435 41.0911 94.9199 41.1367 94.6055 41.1367C94.0404 41.1367 93.6143 40.9658 93.3271 40.624C93.04 40.2822 92.8965 39.7969 92.8965 39.168V34.5811H91.5498V33.6035H92.8965V31.8125H94.1611ZM98.29 34.499C98.8506 33.8109 99.5798 33.4668 100.478 33.4668C102.041 33.4668 102.829 34.3486 102.843 36.1123V41H101.578V36.1055C101.574 35.5723 101.451 35.1781 101.209 34.9229C100.972 34.6676 100.601 34.54 100.095 34.54C99.6846 34.54 99.3245 34.6494 99.0146 34.8682C98.7048 35.0869 98.4632 35.374 98.29 35.7295V41H97.0254V30.5H98.29V34.499ZM106.11 41H104.846V33.6035H106.11V41ZM104.743 31.6416C104.743 31.4365 104.805 31.2633 104.928 31.1221C105.055 30.9808 105.242 30.9102 105.488 30.9102C105.734 30.9102 105.921 30.9808 106.049 31.1221C106.176 31.2633 106.24 31.4365 106.24 31.6416C106.24 31.8467 106.176 32.0176 106.049 32.1543C105.921 32.291 105.734 32.3594 105.488 32.3594C105.242 32.3594 105.055 32.291 104.928 32.1543C104.805 32.0176 104.743 31.8467 104.743 31.6416ZM109.337 33.6035L109.378 34.5332C109.943 33.8223 110.681 33.4668 111.593 33.4668C113.156 33.4668 113.944 34.3486 113.958 36.1123V41H112.693V36.1055C112.689 35.5723 112.566 35.1781 112.324 34.9229C112.087 34.6676 111.716 34.54 111.21 34.54C110.8 34.54 110.44 34.6494 110.13 34.8682C109.82 35.0869 109.578 35.374 109.405 35.7295V41H108.141V33.6035H109.337ZM115.564 37.2402C115.564 36.0872 115.831 35.1712 116.364 34.4922C116.897 33.8086 117.604 33.4668 118.483 33.4668C119.386 33.4668 120.09 33.7858 120.596 34.4238L120.657 33.6035H121.812V40.8223C121.812 41.7793 121.528 42.5335 120.958 43.085C120.393 43.6364 119.632 43.9121 118.675 43.9121C118.142 43.9121 117.62 43.7982 117.109 43.5703C116.599 43.3424 116.209 43.0303 115.94 42.6338L116.597 41.875C117.139 42.5449 117.802 42.8799 118.586 42.8799C119.201 42.8799 119.68 42.7067 120.021 42.3604C120.368 42.014 120.541 41.5264 120.541 40.8975V40.2617C120.035 40.8451 119.345 41.1367 118.47 41.1367C117.604 41.1367 116.902 40.7881 116.364 40.0908C115.831 39.3936 115.564 38.4434 115.564 37.2402ZM116.836 37.3838C116.836 38.2178 117.007 38.874 117.349 39.3525C117.69 39.8265 118.169 40.0635 118.784 40.0635C119.582 40.0635 120.167 39.7012 120.541 38.9766V35.5996C120.154 34.8932 119.573 34.54 118.798 34.54C118.183 34.54 117.702 34.7793 117.355 35.2578C117.009 35.7363 116.836 36.445 116.836 37.3838Z" fill="#404040"/>
<path fill-rule="evenodd" clip-rule="evenodd" d="M438.633 34.6402C439.176 33.9889 438.713 33 437.865 33H432.135C431.287 33 430.824 33.9889 431.367 34.6402L434.232 38.0781C434.632 38.5579 435.368 38.5579 435.768 38.0781L438.633 34.6402Z" fill="#4B6C89"/>
<rect x="0.5" y="20.5" width="451" height="31" rx="3.5" stroke="#DB3535"/>
<path d="M5.8125 7.05664H2.11523V10.0801H6.41016V11H0.990234V2.46875H6.35156V3.39453H2.11523V6.13672H5.8125V7.05664ZM10.7051 5.63281C10.541 5.60547 10.3633 5.5918 10.1719 5.5918C9.46094 5.5918 8.97852 5.89453 8.72461 6.5V11H7.64062V4.66016H8.69531L8.71289 5.39258C9.06836 4.82617 9.57227 4.54297 10.2246 4.54297C10.4355 4.54297 10.5957 4.57031 10.7051 4.625V5.63281ZM14.7715 5.63281C14.6074 5.60547 14.4297 5.5918 14.2383 5.5918C13.5273 5.5918 13.0449 5.89453 12.791 6.5V11H11.707V4.66016H12.7617L12.7793 5.39258C13.1348 4.82617 13.6387 4.54297 14.291 4.54297C14.502 4.54297 14.6621 4.57031 14.7715 4.625V5.63281ZM15.3691 7.77148C15.3691 7.15039 15.4902 6.5918 15.7324 6.0957C15.9785 5.59961 16.3184 5.2168 16.752 4.94727C17.1895 4.67773 17.6875 4.54297 18.2461 4.54297C19.1094 4.54297 19.8066 4.8418 20.3379 5.43945C20.873 6.03711 21.1406 6.83203 21.1406 7.82422V7.90039C21.1406 8.51758 21.0215 9.07227 20.7832 9.56445C20.5488 10.0527 20.2109 10.4336 19.7695 10.707C19.332 10.9805 18.8281 11.1172 18.2578 11.1172C17.3984 11.1172 16.7012 10.8184 16.166 10.2207C15.6348 9.62305 15.3691 8.83203 15.3691 7.84766V7.77148ZM16.459 7.90039C16.459 8.60352 16.6211 9.16797 16.9453 9.59375C17.2734 10.0195 17.7109 10.2324 18.2578 10.2324C18.8086 10.2324 19.2461 10.0176 19.5703 9.58789C19.8945 9.1543 20.0566 8.54883 20.0566 7.77148C20.0566 7.07617 19.8906 6.51367 19.5586 6.08398C19.2305 5.65039 18.793 5.43359 18.2461 5.43359C17.7109 5.43359 17.2793 5.64648 16.9512 6.07227C16.623 6.49805 16.459 7.10742 16.459 7.90039ZM25.5645 5.63281C25.4004 5.60547 25.2227 5.5918 25.0312 5.5918C24.3203 5.5918 23.8379 5.89453 23.584 6.5V11H22.5V4.66016H23.5547L23.5723 5.39258C23.9277 4.82617 24.4316 4.54297 25.084 4.54297C25.2949 4.54297 25.4551 4.57031 25.5645 4.625V5.63281Z" fill="#DB3535"/>
</svg>
