<svg width="200" height="32" viewBox="0 0 200 32" fill="none" xmlns="http://www.w3.org/2000/svg">
<rect x="0.5" y="0.5" width="199" height="31" rx="3.5" fill="white"/>
<path d="M18.7812 16.3994H14.4678V19.9268H19.4785V21H13.1553V11.0469H19.4102V12.127H14.4678V15.3262H18.7812V16.3994ZM24.4893 14.7383C24.2979 14.7064 24.0905 14.6904 23.8672 14.6904C23.0378 14.6904 22.4749 15.0436 22.1787 15.75V21H20.9141V13.6035H22.1445L22.165 14.458C22.5798 13.7972 23.1676 13.4668 23.9287 13.4668C24.1748 13.4668 24.3617 13.4987 24.4893 13.5625V14.7383ZM25.1865 17.2334C25.1865 16.5088 25.3278 15.8571 25.6104 15.2783C25.8975 14.6995 26.2939 14.2529 26.7998 13.9385C27.3102 13.624 27.8913 13.4668 28.543 13.4668C29.5501 13.4668 30.3636 13.8154 30.9834 14.5127C31.6077 15.21 31.9199 16.1374 31.9199 17.2949V17.3838C31.9199 18.1038 31.7809 18.751 31.5029 19.3252C31.2295 19.8949 30.8353 20.3392 30.3203 20.6582C29.8099 20.9772 29.222 21.1367 28.5566 21.1367C27.554 21.1367 26.7406 20.7881 26.1162 20.0908C25.4964 19.3936 25.1865 18.4707 25.1865 17.3223V17.2334ZM26.458 17.3838C26.458 18.2041 26.6471 18.8626 27.0254 19.3594C27.4082 19.8561 27.9186 20.1045 28.5566 20.1045C29.1992 20.1045 29.7096 19.8538 30.0879 19.3525C30.4661 18.8467 30.6553 18.1403 30.6553 17.2334C30.6553 16.4222 30.4616 15.766 30.0742 15.2646C29.6914 14.7588 29.181 14.5059 28.543 14.5059C27.9186 14.5059 27.415 14.7542 27.0322 15.251C26.6494 15.7477 26.458 16.4587 26.458 17.3838ZM37.0811 14.7383C36.8896 14.7064 36.6823 14.6904 36.459 14.6904C35.6296 14.6904 35.0667 15.0436 34.7705 15.75V21H33.5059V13.6035H34.7363L34.7568 14.458C35.1715 13.7972 35.7594 13.4668 36.5205 13.4668C36.7666 13.4668 36.9535 13.4987 37.0811 13.5625V14.7383ZM41.8252 14.7383C41.6338 14.7064 41.4264 14.6904 41.2031 14.6904C40.3737 14.6904 39.8109 15.0436 39.5146 15.75V21H38.25V13.6035H39.4805L39.501 14.458C39.9157 13.7972 40.5036 13.4668 41.2646 13.4668C41.5107 13.4668 41.6976 13.4987 41.8252 13.5625V14.7383Z" fill="#404040"/>
<rect x="0.5" y="0.5" width="199" height="31" rx="3.5" stroke="#DB3535"/>
</svg>
