<svg width="452" height="43" viewBox="0 0 452 43" fill="none" xmlns="http://www.w3.org/2000/svg">
<rect x="0.5" y="19.5" width="451" height="23" rx="3.5" fill="white"/>
<path d="M19.2656 32.293C19.1602 33.1953 18.8262 33.8926 18.2637 34.3848C17.7051 34.873 16.9609 35.1172 16.0312 35.1172C15.0234 35.1172 14.2148 34.7559 13.6055 34.0332C13 33.3105 12.6973 32.3438 12.6973 31.1328V30.3125C12.6973 29.5195 12.8379 28.8223 13.1191 28.2207C13.4043 27.6191 13.8066 27.1582 14.3262 26.8379C14.8457 26.5137 15.4473 26.3516 16.1309 26.3516C17.0371 26.3516 17.7637 26.6055 18.3105 27.1133C18.8574 27.6172 19.1758 28.3164 19.2656 29.2109H18.1348C18.0371 28.5312 17.8242 28.0391 17.4961 27.7344C17.1719 27.4297 16.7168 27.2773 16.1309 27.2773C15.4121 27.2773 14.8477 27.543 14.4375 28.0742C14.0312 28.6055 13.8281 29.3613 13.8281 30.3418V31.168C13.8281 32.0938 14.0215 32.8301 14.4082 33.377C14.7949 33.9238 15.3359 34.1973 16.0312 34.1973C16.6562 34.1973 17.1348 34.0566 17.4668 33.7754C17.8027 33.4902 18.0254 32.9961 18.1348 32.293H19.2656ZM21.7207 29.4277C22.2012 28.8379 22.8262 28.543 23.5957 28.543C24.9355 28.543 25.6113 29.2988 25.623 30.8105V35H24.5391V30.8047C24.5352 30.3477 24.4297 30.0098 24.2227 29.791C24.0195 29.5723 23.7012 29.4629 23.2676 29.4629C22.916 29.4629 22.6074 29.5566 22.3418 29.7441C22.0762 29.9316 21.8691 30.1777 21.7207 30.4824V35H20.6367V26H21.7207V29.4277ZM26.959 31.7715C26.959 31.1504 27.0801 30.5918 27.3223 30.0957C27.5684 29.5996 27.9082 29.2168 28.3418 28.9473C28.7793 28.6777 29.2773 28.543 29.8359 28.543C30.6992 28.543 31.3965 28.8418 31.9277 29.4395C32.4629 30.0371 32.7305 30.832 32.7305 31.8242V31.9004C32.7305 32.5176 32.6113 33.0723 32.373 33.5645C32.1387 34.0527 31.8008 34.4336 31.3594 34.707C30.9219 34.9805 30.418 35.1172 29.8477 35.1172C28.9883 35.1172 28.291 34.8184 27.7559 34.2207C27.2246 33.623 26.959 32.832 26.959 31.8477V31.7715ZM28.0488 31.9004C28.0488 32.6035 28.2109 33.168 28.5352 33.5938C28.8633 34.0195 29.3008 34.2324 29.8477 34.2324C30.3984 34.2324 30.8359 34.0176 31.1602 33.5879C31.4844 33.1543 31.6465 32.5488 31.6465 31.7715C31.6465 31.0762 31.4805 30.5137 31.1484 30.084C30.8203 29.6504 30.3828 29.4336 29.8359 29.4336C29.3008 29.4336 28.8691 29.6465 28.541 30.0723C28.2129 30.498 28.0488 31.1074 28.0488 31.9004ZM33.8027 31.7715C33.8027 31.1504 33.9238 30.5918 34.166 30.0957C34.4121 29.5996 34.752 29.2168 35.1855 28.9473C35.623 28.6777 36.1211 28.543 36.6797 28.543C37.543 28.543 38.2402 28.8418 38.7715 29.4395C39.3066 30.0371 39.5742 30.832 39.5742 31.8242V31.9004C39.5742 32.5176 39.4551 33.0723 39.2168 33.5645C38.9824 34.0527 38.6445 34.4336 38.2031 34.707C37.7656 34.9805 37.2617 35.1172 36.6914 35.1172C35.832 35.1172 35.1348 34.8184 34.5996 34.2207C34.0684 33.623 33.8027 32.832 33.8027 31.8477V31.7715ZM34.8926 31.9004C34.8926 32.6035 35.0547 33.168 35.3789 33.5938C35.707 34.0195 36.1445 34.2324 36.6914 34.2324C37.2422 34.2324 37.6797 34.0176 38.0039 33.5879C38.3281 33.1543 38.4902 32.5488 38.4902 31.7715C38.4902 31.0762 38.3242 30.5137 37.9922 30.084C37.6641 29.6504 37.2266 29.4336 36.6797 29.4336C36.1445 29.4336 35.7129 29.6465 35.3848 30.0723C35.0566 30.498 34.8926 31.1074 34.8926 31.9004ZM44.625 33.3184C44.625 33.0254 44.5137 32.7988 44.291 32.6387C44.0723 32.4746 43.6875 32.334 43.1367 32.2168C42.5898 32.0996 42.1543 31.959 41.8301 31.7949C41.5098 31.6309 41.2715 31.4355 41.1152 31.209C40.9629 30.9824 40.8867 30.7129 40.8867 30.4004C40.8867 29.8809 41.1055 29.4414 41.543 29.082C41.9844 28.7227 42.5469 28.543 43.2305 28.543C43.9492 28.543 44.5312 28.7285 44.9766 29.0996C45.4258 29.4707 45.6504 29.9453 45.6504 30.5234H44.5605C44.5605 30.2266 44.4336 29.9707 44.1797 29.7559C43.9297 29.541 43.6133 29.4336 43.2305 29.4336C42.8359 29.4336 42.5273 29.5195 42.3047 29.6914C42.082 29.8633 41.9707 30.0879 41.9707 30.3652C41.9707 30.627 42.0742 30.8242 42.2812 30.957C42.4883 31.0898 42.8613 31.2168 43.4004 31.3379C43.9434 31.459 44.3828 31.6035 44.7188 31.7715C45.0547 31.9395 45.3027 32.1426 45.4629 32.3809C45.627 32.6152 45.709 32.9023 45.709 33.2422C45.709 33.8086 45.4824 34.2637 45.0293 34.6074C44.5762 34.9473 43.9883 35.1172 43.2656 35.1172C42.7578 35.1172 42.3086 35.0273 41.918 34.8477C41.5273 34.668 41.2207 34.418 40.998 34.0977C40.7793 33.7734 40.6699 33.4238 40.6699 33.0488H41.7539C41.7734 33.4121 41.918 33.7012 42.1875 33.916C42.4609 34.127 42.8203 34.2324 43.2656 34.2324C43.6758 34.2324 44.0039 34.1504 44.25 33.9863C44.5 33.8184 44.625 33.5957 44.625 33.3184ZM49.752 35.1172C48.8926 35.1172 48.1934 34.8359 47.6543 34.2734C47.1152 33.707 46.8457 32.9512 46.8457 32.0059V31.8066C46.8457 31.1777 46.9648 30.6172 47.2031 30.125C47.4453 29.6289 47.7812 29.2422 48.2109 28.9648C48.6445 28.6836 49.1133 28.543 49.6172 28.543C50.4414 28.543 51.082 28.8145 51.5391 29.3574C51.9961 29.9004 52.2246 30.6777 52.2246 31.6895V32.1406H47.9297C47.9453 32.7656 48.127 33.2715 48.4746 33.6582C48.8262 34.041 49.2715 34.2324 49.8105 34.2324C50.1934 34.2324 50.5176 34.1543 50.7832 33.998C51.0488 33.8418 51.2812 33.6348 51.4805 33.377L52.1426 33.8926C51.6113 34.709 50.8145 35.1172 49.752 35.1172ZM49.6172 29.4336C49.1797 29.4336 48.8125 29.5938 48.5156 29.9141C48.2188 30.2305 48.0352 30.6758 47.9648 31.25H51.1406V31.168C51.1094 30.6172 50.9609 30.1914 50.6953 29.8906C50.4297 29.5859 50.0703 29.4336 49.6172 29.4336ZM59.1445 31.1973C58.1797 30.9199 57.4766 30.5801 57.0352 30.1777C56.5977 29.7715 56.3789 29.2715 56.3789 28.6777C56.3789 28.0059 56.6465 27.4512 57.1816 27.0137C57.7207 26.5723 58.4199 26.3516 59.2793 26.3516C59.8652 26.3516 60.3867 26.4648 60.8438 26.6914C61.3047 26.918 61.6602 27.2305 61.9102 27.6289C62.1641 28.0273 62.291 28.4629 62.291 28.9355H61.1602C61.1602 28.4199 60.9961 28.0156 60.668 27.7227C60.3398 27.4258 59.877 27.2773 59.2793 27.2773C58.7246 27.2773 58.291 27.4004 57.9785 27.6465C57.6699 27.8887 57.5156 28.2266 57.5156 28.6602C57.5156 29.0078 57.6621 29.3027 57.9551 29.5449C58.252 29.7832 58.7539 30.002 59.4609 30.2012C60.1719 30.4004 60.7266 30.6211 61.125 30.8633C61.5273 31.1016 61.8242 31.3809 62.0156 31.7012C62.2109 32.0215 62.3086 32.3984 62.3086 32.832C62.3086 33.5234 62.0391 34.0781 61.5 34.4961C60.9609 34.9102 60.2402 35.1172 59.3379 35.1172C58.752 35.1172 58.2051 35.0059 57.6973 34.7832C57.1895 34.5566 56.7969 34.248 56.5195 33.8574C56.2461 33.4668 56.1094 33.0234 56.1094 32.5273H57.2402C57.2402 33.043 57.4297 33.4512 57.8086 33.752C58.1914 34.0488 58.7012 34.1973 59.3379 34.1973C59.9316 34.1973 60.3867 34.0762 60.7031 33.834C61.0195 33.5918 61.1777 33.2617 61.1777 32.8438C61.1777 32.4258 61.0312 32.1035 60.7383 31.877C60.4453 31.6465 59.9141 31.4199 59.1445 31.1973ZM63.2988 31.7715C63.2988 31.1504 63.4199 30.5918 63.6621 30.0957C63.9082 29.5996 64.248 29.2168 64.6816 28.9473C65.1191 28.6777 65.6172 28.543 66.1758 28.543C67.0391 28.543 67.7363 28.8418 68.2676 29.4395C68.8027 30.0371 69.0703 30.832 69.0703 31.8242V31.9004C69.0703 32.5176 68.9512 33.0723 68.7129 33.5645C68.4785 34.0527 68.1406 34.4336 67.6992 34.707C67.2617 34.9805 66.7578 35.1172 66.1875 35.1172C65.3281 35.1172 64.6309 34.8184 64.0957 34.2207C63.5645 33.623 63.2988 32.832 63.2988 31.8477V31.7715ZM64.3887 31.9004C64.3887 32.6035 64.5508 33.168 64.875 33.5938C65.2031 34.0195 65.6406 34.2324 66.1875 34.2324C66.7383 34.2324 67.1758 34.0176 67.5 33.5879C67.8242 33.1543 67.9863 32.5488 67.9863 31.7715C67.9863 31.0762 67.8203 30.5137 67.4883 30.084C67.1602 29.6504 66.7227 29.4336 66.1758 29.4336C65.6406 29.4336 65.209 29.6465 64.8809 30.0723C64.5527 30.498 64.3887 31.1074 64.3887 31.9004ZM71.4492 28.6602L71.4785 29.3633C71.9434 28.8164 72.5703 28.543 73.3594 28.543C74.2461 28.543 74.8496 28.8828 75.1699 29.5625C75.3809 29.2578 75.6543 29.0117 75.9902 28.8242C76.3301 28.6367 76.7305 28.543 77.1914 28.543C78.582 28.543 79.2891 29.2793 79.3125 30.752V35H78.2285V30.8164C78.2285 30.3633 78.125 30.0254 77.918 29.8027C77.7109 29.5762 77.3633 29.4629 76.875 29.4629C76.4727 29.4629 76.1387 29.584 75.873 29.8262C75.6074 30.0645 75.4531 30.3867 75.4102 30.793V35H74.3203V30.8457C74.3203 29.9238 73.8691 29.4629 72.9668 29.4629C72.2559 29.4629 71.7695 29.7656 71.5078 30.3711V35H70.4238V28.6602H71.4492ZM82.4238 27.125V28.6602H83.6074V29.498H82.4238V33.4297C82.4238 33.6836 82.4766 33.875 82.582 34.0039C82.6875 34.1289 82.8672 34.1914 83.1211 34.1914C83.2461 34.1914 83.418 34.168 83.6367 34.1211V35C83.3516 35.0781 83.0742 35.1172 82.8047 35.1172C82.3203 35.1172 81.9551 34.9707 81.709 34.6777C81.4629 34.3848 81.3398 33.9688 81.3398 33.4297V29.498H80.1855V28.6602H81.3398V27.125H82.4238ZM85.9629 29.4277C86.4434 28.8379 87.0684 28.543 87.8379 28.543C89.1777 28.543 89.8535 29.2988 89.8652 30.8105V35H88.7812V30.8047C88.7773 30.3477 88.6719 30.0098 88.4648 29.791C88.2617 29.5723 87.9434 29.4629 87.5098 29.4629C87.1582 29.4629 86.8496 29.5566 86.584 29.7441C86.3184 29.9316 86.1113 30.1777 85.9629 30.4824V35H84.8789V26H85.9629V29.4277ZM92.666 35H91.582V28.6602H92.666V35ZM91.4941 26.9785C91.4941 26.8027 91.5469 26.6543 91.6523 26.5332C91.7617 26.4121 91.9219 26.3516 92.1328 26.3516C92.3438 26.3516 92.5039 26.4121 92.6133 26.5332C92.7227 26.6543 92.7773 26.8027 92.7773 26.9785C92.7773 27.1543 92.7227 27.3008 92.6133 27.418C92.5039 27.5352 92.3438 27.5938 92.1328 27.5938C91.9219 27.5938 91.7617 27.5352 91.6523 27.418C91.5469 27.3008 91.4941 27.1543 91.4941 26.9785ZM95.4316 28.6602L95.4668 29.457C95.9512 28.8477 96.584 28.543 97.3652 28.543C98.7051 28.543 99.3809 29.2988 99.3926 30.8105V35H98.3086V30.8047C98.3047 30.3477 98.1992 30.0098 97.9922 29.791C97.7891 29.5723 97.4707 29.4629 97.0371 29.4629C96.6855 29.4629 96.377 29.5566 96.1113 29.7441C95.8457 29.9316 95.6387 30.1777 95.4902 30.4824V35H94.4062V28.6602H95.4316ZM100.77 31.7773C100.77 30.7891 100.998 30.0039 101.455 29.4219C101.912 28.8359 102.518 28.543 103.271 28.543C104.045 28.543 104.648 28.8164 105.082 29.3633L105.135 28.6602H106.125V34.8477C106.125 35.668 105.881 36.3145 105.393 36.7871C104.908 37.2598 104.256 37.4961 103.436 37.4961C102.979 37.4961 102.531 37.3984 102.094 37.2031C101.656 37.0078 101.322 36.7402 101.092 36.4004L101.654 35.75C102.119 36.3242 102.688 36.6113 103.359 36.6113C103.887 36.6113 104.297 36.4629 104.59 36.166C104.887 35.8691 105.035 35.4512 105.035 34.9121V34.3672C104.602 34.8672 104.01 35.1172 103.26 35.1172C102.518 35.1172 101.916 34.8184 101.455 34.2207C100.998 33.623 100.77 32.8086 100.77 31.7773ZM101.859 31.9004C101.859 32.6152 102.006 33.1777 102.299 33.5879C102.592 33.9941 103.002 34.1973 103.529 34.1973C104.213 34.1973 104.715 33.8867 105.035 33.2656V30.3711C104.703 29.7656 104.205 29.4629 103.541 29.4629C103.014 29.4629 102.602 29.668 102.305 30.0781C102.008 30.4883 101.859 31.0957 101.859 31.9004Z" fill="#404040"/>
<path fill-rule="evenodd" clip-rule="evenodd" d="M438.633 29.6402C439.176 28.9889 438.713 28 437.865 28H432.135C431.287 28 430.824 28.9889 431.367 29.6402L434.232 33.0781C434.632 33.5579 435.368 33.5579 435.768 33.0781L438.633 29.6402Z" fill="#4B6C89"/>
<rect x="0.5" y="19.5" width="451" height="23" rx="3.5" stroke="#DB3535"/>
<path d="M5.32812 6.38525H1.93896V9.15674H5.87598V10H0.907715V2.17969H5.82227V3.02832H1.93896V5.54199H5.32812V6.38525ZM9.81299 5.08008C9.6626 5.05501 9.49967 5.04248 9.32422 5.04248C8.67253 5.04248 8.23031 5.31999 7.99756 5.875V10H7.00391V4.18848H7.9707L7.98682 4.85986C8.31266 4.34066 8.77458 4.08105 9.37256 4.08105C9.56592 4.08105 9.71273 4.10612 9.81299 4.15625V5.08008ZM13.5405 5.08008C13.3901 5.05501 13.2272 5.04248 13.0518 5.04248C12.4001 5.04248 11.9578 5.31999 11.7251 5.875V10H10.7314V4.18848H11.6982L11.7144 4.85986C12.0402 4.34066 12.5021 4.08105 13.1001 4.08105C13.2935 4.08105 13.4403 4.10612 13.5405 4.15625V5.08008ZM14.0884 7.04053C14.0884 6.47119 14.1994 5.95915 14.4214 5.50439C14.647 5.04964 14.9585 4.69873 15.356 4.45166C15.757 4.20459 16.2135 4.08105 16.7256 4.08105C17.5169 4.08105 18.1561 4.35498 18.6431 4.90283C19.1336 5.45068 19.3789 6.17936 19.3789 7.08887V7.15869C19.3789 7.72445 19.2697 8.23291 19.0513 8.68408C18.8364 9.13167 18.5267 9.48079 18.1221 9.73145C17.721 9.9821 17.2591 10.1074 16.7363 10.1074C15.9486 10.1074 15.3094 9.8335 14.8188 9.28564C14.3319 8.73779 14.0884 8.0127 14.0884 7.11035V7.04053ZM15.0874 7.15869C15.0874 7.80322 15.236 8.32064 15.5332 8.71094C15.834 9.10124 16.235 9.29639 16.7363 9.29639C17.2412 9.29639 17.6423 9.09945 17.9395 8.70557C18.2367 8.30811 18.3853 7.75309 18.3853 7.04053C18.3853 6.40316 18.2331 5.88753 17.9287 5.49365C17.6279 5.09619 17.2269 4.89746 16.7256 4.89746C16.235 4.89746 15.8394 5.09261 15.5386 5.48291C15.2378 5.87321 15.0874 6.4318 15.0874 7.15869ZM23.4341 5.08008C23.2837 5.05501 23.1208 5.04248 22.9453 5.04248C22.2936 5.04248 21.8514 5.31999 21.6187 5.875V10H20.625V4.18848H21.5918L21.6079 4.85986C21.9338 4.34066 22.3957 4.08105 22.9937 4.08105C23.187 4.08105 23.3338 4.10612 23.4341 4.15625V5.08008Z" fill="#DB3535"/>
</svg>
