<svg width="452" height="52" viewBox="0 0 452 52" fill="none" xmlns="http://www.w3.org/2000/svg">
<rect x="0.5" y="20.5" width="451" height="31" rx="3.5" fill="white"/>
<path d="M14.4678 37.1035V41H13.1553V31.0469H16.8262C17.9154 31.0469 18.7676 31.3249 19.3828 31.8809C20.0026 32.4368 20.3125 33.1729 20.3125 34.0889C20.3125 35.055 20.0094 35.8001 19.4033 36.3242C18.8018 36.8438 17.9382 37.1035 16.8125 37.1035H14.4678ZM14.4678 36.0303H16.8262C17.528 36.0303 18.0658 35.8662 18.4395 35.5381C18.8132 35.2054 19 34.7269 19 34.1025C19 33.5101 18.8132 33.0361 18.4395 32.6807C18.0658 32.3252 17.5531 32.1406 16.9014 32.127H14.4678V36.0303ZM23.1631 41H21.8984V30.5H23.1631V41ZM28.2627 41.1367C27.2601 41.1367 26.4443 40.8086 25.8154 40.1523C25.1865 39.4915 24.8721 38.6097 24.8721 37.5068V37.2744C24.8721 36.5407 25.0111 35.8867 25.2891 35.3125C25.5716 34.7337 25.9635 34.2826 26.4648 33.959C26.9707 33.6309 27.5176 33.4668 28.1055 33.4668C29.0671 33.4668 29.8145 33.7835 30.3477 34.417C30.8809 35.0505 31.1475 35.9574 31.1475 37.1377V37.6641H26.1367C26.1549 38.3932 26.3669 38.9834 26.7725 39.4346C27.1826 39.8812 27.7021 40.1045 28.3311 40.1045C28.7777 40.1045 29.1559 40.0133 29.4658 39.8311C29.7757 39.6488 30.0469 39.4072 30.2793 39.1064L31.0518 39.708C30.432 40.6605 29.5023 41.1367 28.2627 41.1367ZM28.1055 34.5059C27.5951 34.5059 27.1667 34.6927 26.8203 35.0664C26.474 35.4355 26.2598 35.9551 26.1777 36.625H29.8828V36.5293C29.8464 35.8867 29.6732 35.39 29.3633 35.0391C29.0534 34.6836 28.6341 34.5059 28.1055 34.5059ZM37.1836 41C37.1107 40.8542 37.0514 40.5944 37.0059 40.2207C36.418 40.8314 35.7161 41.1367 34.9004 41.1367C34.1712 41.1367 33.5719 40.9316 33.1025 40.5215C32.6377 40.1068 32.4053 39.5827 32.4053 38.9492C32.4053 38.179 32.6969 37.582 33.2803 37.1582C33.8682 36.7298 34.693 36.5156 35.7549 36.5156H36.9854V35.9346C36.9854 35.4925 36.8532 35.1416 36.5889 34.8818C36.3245 34.6175 35.9349 34.4854 35.4199 34.4854C34.9688 34.4854 34.5905 34.5993 34.2852 34.8271C33.9798 35.055 33.8271 35.3307 33.8271 35.6543H32.5557C32.5557 35.2852 32.6855 34.9297 32.9453 34.5879C33.2096 34.2415 33.5651 33.9681 34.0117 33.7676C34.4629 33.5671 34.9574 33.4668 35.4951 33.4668C36.3473 33.4668 37.015 33.681 37.498 34.1094C37.9811 34.5332 38.2318 35.1188 38.25 35.8662V39.2705C38.25 39.9495 38.3366 40.4896 38.5098 40.8906V41H37.1836ZM35.085 40.0361C35.4814 40.0361 35.8574 39.9336 36.2129 39.7285C36.5684 39.5234 36.8258 39.2568 36.9854 38.9287V37.4111H35.9941C34.4447 37.4111 33.6699 37.8646 33.6699 38.7715C33.6699 39.168 33.8021 39.4779 34.0664 39.7012C34.3307 39.9245 34.6702 40.0361 35.085 40.0361ZM44.5391 39.0381C44.5391 38.6963 44.4092 38.432 44.1494 38.2451C43.8942 38.0537 43.4453 37.8896 42.8027 37.7529C42.1647 37.6162 41.6566 37.4521 41.2783 37.2607C40.9046 37.0693 40.6266 36.8415 40.4443 36.5771C40.2666 36.3128 40.1777 35.9984 40.1777 35.6338C40.1777 35.0277 40.4329 34.515 40.9434 34.0957C41.4583 33.6764 42.1146 33.4668 42.9121 33.4668C43.7507 33.4668 44.4297 33.6833 44.9492 34.1162C45.4733 34.5492 45.7354 35.1029 45.7354 35.7773H44.4639C44.4639 35.431 44.3158 35.1325 44.0195 34.8818C43.7279 34.6312 43.3587 34.5059 42.9121 34.5059C42.4518 34.5059 42.0918 34.6061 41.832 34.8066C41.5723 35.0072 41.4424 35.2692 41.4424 35.5928C41.4424 35.8981 41.5632 36.1283 41.8047 36.2832C42.0462 36.4382 42.4814 36.5863 43.1104 36.7275C43.7438 36.8688 44.2565 37.0374 44.6484 37.2334C45.0404 37.4294 45.3298 37.6663 45.5166 37.9443C45.708 38.2178 45.8037 38.5527 45.8037 38.9492C45.8037 39.61 45.5394 40.141 45.0107 40.542C44.4821 40.9385 43.7962 41.1367 42.9531 41.1367C42.3607 41.1367 41.8366 41.0319 41.3809 40.8223C40.9251 40.6126 40.5674 40.321 40.3076 39.9473C40.0524 39.569 39.9248 39.1611 39.9248 38.7236H41.1895C41.2122 39.1475 41.3809 39.4847 41.6953 39.7354C42.0143 39.9814 42.4336 40.1045 42.9531 40.1045C43.4316 40.1045 43.8145 40.0088 44.1016 39.8174C44.3932 39.6214 44.5391 39.3617 44.5391 39.0381ZM50.5205 41.1367C49.5179 41.1367 48.7021 40.8086 48.0732 40.1523C47.4443 39.4915 47.1299 38.6097 47.1299 37.5068V37.2744C47.1299 36.5407 47.2689 35.8867 47.5469 35.3125C47.8294 34.7337 48.2214 34.2826 48.7227 33.959C49.2285 33.6309 49.7754 33.4668 50.3633 33.4668C51.3249 33.4668 52.0723 33.7835 52.6055 34.417C53.1387 35.0505 53.4053 35.9574 53.4053 37.1377V37.6641H48.3945C48.4128 38.3932 48.6247 38.9834 49.0303 39.4346C49.4404 39.8812 49.96 40.1045 50.5889 40.1045C51.0355 40.1045 51.4137 40.0133 51.7236 39.8311C52.0335 39.6488 52.3047 39.4072 52.5371 39.1064L53.3096 39.708C52.6898 40.6605 51.7601 41.1367 50.5205 41.1367ZM50.3633 34.5059C49.8529 34.5059 49.4245 34.6927 49.0781 35.0664C48.7318 35.4355 48.5176 35.9551 48.4355 36.625H52.1406V36.5293C52.1042 35.8867 51.931 35.39 51.6211 35.0391C51.3112 34.6836 50.8919 34.5059 50.3633 34.5059ZM64.1719 36.3994H59.8584V39.9268H64.8691V41H58.5459V31.0469H64.8008V32.127H59.8584V35.3262H64.1719V36.3994ZM67.501 33.6035L67.542 34.5332C68.1071 33.8223 68.8454 33.4668 69.7568 33.4668C71.32 33.4668 72.1084 34.3486 72.1221 36.1123V41H70.8574V36.1055C70.8529 35.5723 70.7298 35.1781 70.4883 34.9229C70.2513 34.6676 69.8799 34.54 69.374 34.54C68.9639 34.54 68.6038 34.6494 68.2939 34.8682C67.984 35.0869 67.7425 35.374 67.5693 35.7295V41H66.3047V33.6035H67.501ZM75.7451 31.8125V33.6035H77.126V34.5811H75.7451V39.168C75.7451 39.4642 75.8066 39.6875 75.9297 39.8379C76.0527 39.9837 76.2624 40.0566 76.5586 40.0566C76.7044 40.0566 76.9049 40.0293 77.1602 39.9746V41C76.8275 41.0911 76.5039 41.1367 76.1895 41.1367C75.6243 41.1367 75.1982 40.9658 74.9111 40.624C74.624 40.2822 74.4805 39.7969 74.4805 39.168V34.5811H73.1338V33.6035H74.4805V31.8125H75.7451ZM81.6787 41.1367C80.6761 41.1367 79.8604 40.8086 79.2314 40.1523C78.6025 39.4915 78.2881 38.6097 78.2881 37.5068V37.2744C78.2881 36.5407 78.4271 35.8867 78.7051 35.3125C78.9876 34.7337 79.3796 34.2826 79.8809 33.959C80.3867 33.6309 80.9336 33.4668 81.5215 33.4668C82.4831 33.4668 83.2305 33.7835 83.7637 34.417C84.2969 35.0505 84.5635 35.9574 84.5635 37.1377V37.6641H79.5527C79.571 38.3932 79.7829 38.9834 80.1885 39.4346C80.5986 39.8812 81.1182 40.1045 81.7471 40.1045C82.1937 40.1045 82.5719 40.0133 82.8818 39.8311C83.1917 39.6488 83.4629 39.4072 83.6953 39.1064L84.4678 39.708C83.848 40.6605 82.9183 41.1367 81.6787 41.1367ZM81.5215 34.5059C81.0111 34.5059 80.5827 34.6927 80.2363 35.0664C79.89 35.4355 79.6758 35.9551 79.5938 36.625H83.2988V36.5293C83.2624 35.8867 83.0892 35.39 82.7793 35.0391C82.4694 34.6836 82.0501 34.5059 81.5215 34.5059ZM89.6084 34.7383C89.417 34.7064 89.2096 34.6904 88.9863 34.6904C88.1569 34.6904 87.5941 35.0436 87.2979 35.75V41H86.0332V33.6035H87.2637L87.2842 34.458C87.6989 33.7972 88.2868 33.4668 89.0479 33.4668C89.2939 33.4668 89.4808 33.4987 89.6084 33.5625V34.7383ZM95.8564 41H94.5439V31.0469H95.8564V41ZM99.2607 33.6035L99.3018 34.5332C99.8669 33.8223 100.605 33.4668 101.517 33.4668C103.08 33.4668 103.868 34.3486 103.882 36.1123V41H102.617V36.1055C102.613 35.5723 102.49 35.1781 102.248 34.9229C102.011 34.6676 101.64 34.54 101.134 34.54C100.724 34.54 100.364 34.6494 100.054 34.8682C99.7438 35.0869 99.5023 35.374 99.3291 35.7295V41H98.0645V33.6035H99.2607ZM106.411 41V34.5811H105.242V33.6035H106.411V32.8447C106.411 32.0518 106.623 31.4388 107.047 31.0059C107.471 30.5729 108.07 30.3564 108.845 30.3564C109.136 30.3564 109.426 30.3952 109.713 30.4727L109.645 31.498C109.43 31.457 109.202 31.4365 108.961 31.4365C108.551 31.4365 108.234 31.5573 108.011 31.7988C107.787 32.0358 107.676 32.3776 107.676 32.8242V33.6035H109.255V34.5811H107.676V41H106.411ZM110.321 37.2334C110.321 36.5088 110.463 35.8571 110.745 35.2783C111.032 34.6995 111.429 34.2529 111.935 33.9385C112.445 33.624 113.026 33.4668 113.678 33.4668C114.685 33.4668 115.498 33.8154 116.118 34.5127C116.743 35.21 117.055 36.1374 117.055 37.2949V37.3838C117.055 38.1038 116.916 38.751 116.638 39.3252C116.364 39.8949 115.97 40.3392 115.455 40.6582C114.945 40.9772 114.357 41.1367 113.691 41.1367C112.689 41.1367 111.875 40.7881 111.251 40.0908C110.631 39.3936 110.321 38.4707 110.321 37.3223V37.2334ZM111.593 37.3838C111.593 38.2041 111.782 38.8626 112.16 39.3594C112.543 39.8561 113.053 40.1045 113.691 40.1045C114.334 40.1045 114.844 39.8538 115.223 39.3525C115.601 38.8467 115.79 38.1403 115.79 37.2334C115.79 36.4222 115.596 35.766 115.209 35.2646C114.826 34.7588 114.316 34.5059 113.678 34.5059C113.053 34.5059 112.55 34.7542 112.167 35.251C111.784 35.7477 111.593 36.4587 111.593 37.3838ZM122.216 34.7383C122.024 34.7064 121.817 34.6904 121.594 34.6904C120.764 34.6904 120.201 35.0436 119.905 35.75V41H118.641V33.6035H119.871L119.892 34.458C120.306 33.7972 120.894 33.4668 121.655 33.4668C121.901 33.4668 122.088 33.4987 122.216 33.5625V34.7383ZM124.574 33.6035L124.608 34.4238C125.151 33.7858 125.882 33.4668 126.803 33.4668C127.837 33.4668 128.541 33.8633 128.915 34.6562C129.161 34.3008 129.48 34.0137 129.872 33.7949C130.269 33.5762 130.736 33.4668 131.273 33.4668C132.896 33.4668 133.721 34.3258 133.748 36.0439V41H132.483V36.1191C132.483 35.5905 132.363 35.1963 132.121 34.9365C131.88 34.6722 131.474 34.54 130.904 34.54C130.435 34.54 130.045 34.6813 129.735 34.9639C129.425 35.2419 129.245 35.6178 129.195 36.0918V41H127.924V36.1533C127.924 35.0778 127.397 34.54 126.345 34.54C125.515 34.54 124.948 34.8932 124.643 35.5996V41H123.378V33.6035H124.574ZM140.229 41C140.156 40.8542 140.096 40.5944 140.051 40.2207C139.463 40.8314 138.761 41.1367 137.945 41.1367C137.216 41.1367 136.617 40.9316 136.147 40.5215C135.683 40.1068 135.45 39.5827 135.45 38.9492C135.45 38.179 135.742 37.582 136.325 37.1582C136.913 36.7298 137.738 36.5156 138.8 36.5156H140.03V35.9346C140.03 35.4925 139.898 35.1416 139.634 34.8818C139.369 34.6175 138.98 34.4854 138.465 34.4854C138.014 34.4854 137.635 34.5993 137.33 34.8271C137.025 35.055 136.872 35.3307 136.872 35.6543H135.601C135.601 35.2852 135.73 34.9297 135.99 34.5879C136.255 34.2415 136.61 33.9681 137.057 33.7676C137.508 33.5671 138.002 33.4668 138.54 33.4668C139.392 33.4668 140.06 33.681 140.543 34.1094C141.026 34.5332 141.277 35.1188 141.295 35.8662V39.2705C141.295 39.9495 141.382 40.4896 141.555 40.8906V41H140.229ZM138.13 40.0361C138.526 40.0361 138.902 39.9336 139.258 39.7285C139.613 39.5234 139.871 39.2568 140.03 38.9287V37.4111H139.039C137.49 37.4111 136.715 37.8646 136.715 38.7715C136.715 39.168 136.847 39.4779 137.111 39.7012C137.376 39.9245 137.715 40.0361 138.13 40.0361ZM144.993 31.8125V33.6035H146.374V34.5811H144.993V39.168C144.993 39.4642 145.055 39.6875 145.178 39.8379C145.301 39.9837 145.51 40.0566 145.807 40.0566C145.952 40.0566 146.153 40.0293 146.408 39.9746V41C146.076 41.0911 145.752 41.1367 145.438 41.1367C144.872 41.1367 144.446 40.9658 144.159 40.624C143.872 40.2822 143.729 39.7969 143.729 39.168V34.5811H142.382V33.6035H143.729V31.8125H144.993ZM149.231 41H147.967V33.6035H149.231V41ZM147.864 31.6416C147.864 31.4365 147.926 31.2633 148.049 31.1221C148.176 30.9808 148.363 30.9102 148.609 30.9102C148.855 30.9102 149.042 30.9808 149.17 31.1221C149.298 31.2633 149.361 31.4365 149.361 31.6416C149.361 31.8467 149.298 32.0176 149.17 32.1543C149.042 32.291 148.855 32.3594 148.609 32.3594C148.363 32.3594 148.176 32.291 148.049 32.1543C147.926 32.0176 147.864 31.8467 147.864 31.6416ZM150.927 37.2334C150.927 36.5088 151.068 35.8571 151.351 35.2783C151.638 34.6995 152.034 34.2529 152.54 33.9385C153.05 33.624 153.632 33.4668 154.283 33.4668C155.29 33.4668 156.104 33.8154 156.724 34.5127C157.348 35.21 157.66 36.1374 157.66 37.2949V37.3838C157.66 38.1038 157.521 38.751 157.243 39.3252C156.97 39.8949 156.576 40.3392 156.061 40.6582C155.55 40.9772 154.962 41.1367 154.297 41.1367C153.294 41.1367 152.481 40.7881 151.856 40.0908C151.237 39.3936 150.927 38.4707 150.927 37.3223V37.2334ZM152.198 37.3838C152.198 38.2041 152.387 38.8626 152.766 39.3594C153.148 39.8561 153.659 40.1045 154.297 40.1045C154.939 40.1045 155.45 39.8538 155.828 39.3525C156.206 38.8467 156.396 38.1403 156.396 37.2334C156.396 36.4222 156.202 35.766 155.814 35.2646C155.432 34.7588 154.921 34.5059 154.283 34.5059C153.659 34.5059 153.155 34.7542 152.772 35.251C152.39 35.7477 152.198 36.4587 152.198 37.3838ZM160.442 33.6035L160.483 34.5332C161.049 33.8223 161.787 33.4668 162.698 33.4668C164.261 33.4668 165.05 34.3486 165.063 36.1123V41H163.799V36.1055C163.794 35.5723 163.671 35.1781 163.43 34.9229C163.193 34.6676 162.821 34.54 162.315 34.54C161.905 34.54 161.545 34.6494 161.235 34.8682C160.925 35.0869 160.684 35.374 160.511 35.7295V41H159.246V33.6035H160.442Z" fill="#404040"/>
<rect x="0.5" y="20.5" width="451" height="31" rx="3.5" stroke="#DB3535"/>
<path d="M5.8125 7.05664H2.11523V10.0801H6.41016V11H0.990234V2.46875H6.35156V3.39453H2.11523V6.13672H5.8125V7.05664ZM10.7051 5.63281C10.541 5.60547 10.3633 5.5918 10.1719 5.5918C9.46094 5.5918 8.97852 5.89453 8.72461 6.5V11H7.64062V4.66016H8.69531L8.71289 5.39258C9.06836 4.82617 9.57227 4.54297 10.2246 4.54297C10.4355 4.54297 10.5957 4.57031 10.7051 4.625V5.63281ZM14.7715 5.63281C14.6074 5.60547 14.4297 5.5918 14.2383 5.5918C13.5273 5.5918 13.0449 5.89453 12.791 6.5V11H11.707V4.66016H12.7617L12.7793 5.39258C13.1348 4.82617 13.6387 4.54297 14.291 4.54297C14.502 4.54297 14.6621 4.57031 14.7715 4.625V5.63281ZM15.3691 7.77148C15.3691 7.15039 15.4902 6.5918 15.7324 6.0957C15.9785 5.59961 16.3184 5.2168 16.752 4.94727C17.1895 4.67773 17.6875 4.54297 18.2461 4.54297C19.1094 4.54297 19.8066 4.8418 20.3379 5.43945C20.873 6.03711 21.1406 6.83203 21.1406 7.82422V7.90039C21.1406 8.51758 21.0215 9.07227 20.7832 9.56445C20.5488 10.0527 20.2109 10.4336 19.7695 10.707C19.332 10.9805 18.8281 11.1172 18.2578 11.1172C17.3984 11.1172 16.7012 10.8184 16.166 10.2207C15.6348 9.62305 15.3691 8.83203 15.3691 7.84766V7.77148ZM16.459 7.90039C16.459 8.60352 16.6211 9.16797 16.9453 9.59375C17.2734 10.0195 17.7109 10.2324 18.2578 10.2324C18.8086 10.2324 19.2461 10.0176 19.5703 9.58789C19.8945 9.1543 20.0566 8.54883 20.0566 7.77148C20.0566 7.07617 19.8906 6.51367 19.5586 6.08398C19.2305 5.65039 18.793 5.43359 18.2461 5.43359C17.7109 5.43359 17.2793 5.64648 16.9512 6.07227C16.623 6.49805 16.459 7.10742 16.459 7.90039ZM25.5645 5.63281C25.4004 5.60547 25.2227 5.5918 25.0312 5.5918C24.3203 5.5918 23.8379 5.89453 23.584 6.5V11H22.5V4.66016H23.5547L23.5723 5.39258C23.9277 4.82617 24.4316 4.54297 25.084 4.54297C25.2949 4.54297 25.4551 4.57031 25.5645 4.625V5.63281Z" fill="#DB3535"/>
</svg>
