<svg width="24" height="24" viewBox="0 0 24 24" fill="none" xmlns="http://www.w3.org/2000/svg">
<circle cx="12" cy="12" r="11.5" fill="#3FC513" fill-opacity="0.8" stroke="#31B407"/>
<path d="M10.6357 13.0942V16H9.27686V8.17969H12.2686C13.1423 8.17969 13.8351 8.40706 14.3472 8.86182C14.8628 9.31657 15.1206 9.91813 15.1206 10.6665C15.1206 11.4328 14.8682 12.029 14.3633 12.4551C13.862 12.8812 13.1584 13.0942 12.2524 13.0942H10.6357ZM10.6357 12.0039H12.2686C12.752 12.0039 13.1208 11.8911 13.375 11.6655C13.6292 11.4364 13.7563 11.1069 13.7563 10.6772C13.7563 10.2547 13.6274 9.91813 13.3696 9.66748C13.1118 9.41325 12.7573 9.28255 12.3062 9.27539H10.6357V12.0039Z" fill="white"/>
</svg>
