<svg width="116" height="24" viewBox="0 0 116 24" fill="none" xmlns="http://www.w3.org/2000/svg">
<path d="M0 12C0 5.37258 5.37258 0 12 0H104C110.627 0 116 5.37258 116 12V12C116 18.6274 110.627 24 104 24H12C5.37258 24 0 18.6274 0 12V12Z" fill="white"/>
<path fill-rule="evenodd" clip-rule="evenodd" d="M38.1822 13.7705L39.7197 15.308C40.0981 15.6998 40.0927 16.3225 39.7076 16.7076C39.3225 17.0927 38.6998 17.0981 38.308 16.7197L36.7705 15.1822C34.6266 16.6012 31.7563 16.1659 30.1296 14.1749C28.5029 12.1839 28.6486 9.28451 30.4665 7.46653C32.2845 5.64856 35.1839 5.50294 37.1749 7.12963C39.1659 8.75631 39.6012 11.6266 38.1822 13.7705ZM34.022 8.02677C32.3678 8.02677 31.0268 9.36776 31.0268 11.022C31.0268 12.6761 32.3678 14.0171 34.022 14.0171C35.6761 14.0171 37.0171 12.6761 37.0171 11.022C37.0171 9.36776 35.6761 8.02677 34.022 8.02677Z" fill="#93A7B8"/>
<path d="M50.7959 12.3804C49.7507 12.0799 48.9889 11.7118 48.5107 11.2759C48.0368 10.8358 47.7998 10.2941 47.7998 9.65088C47.7998 8.92301 48.0897 8.3221 48.6694 7.84814C49.2534 7.36995 50.0109 7.13086 50.9419 7.13086C51.5767 7.13086 52.1416 7.25358 52.6367 7.49902C53.1361 7.74447 53.5212 8.08301 53.792 8.51465C54.0671 8.94629 54.2046 9.41813 54.2046 9.93018H52.9795C52.9795 9.37158 52.8018 8.93359 52.4463 8.61621C52.0908 8.2946 51.5894 8.13379 50.9419 8.13379C50.341 8.13379 49.8713 8.26709 49.5327 8.53369C49.1984 8.79606 49.0312 9.16211 49.0312 9.63184C49.0312 10.0085 49.1899 10.328 49.5073 10.5903C49.8289 10.8485 50.3727 11.0854 51.1387 11.3013C51.9089 11.5171 52.5098 11.7562 52.9414 12.0186C53.3773 12.2767 53.6989 12.5793 53.9062 12.9263C54.1178 13.2733 54.2236 13.6816 54.2236 14.1514C54.2236 14.9004 53.9316 15.5013 53.3477 15.9541C52.7637 16.4027 51.9829 16.627 51.0054 16.627C50.3706 16.627 49.7782 16.5063 49.228 16.2651C48.6779 16.0197 48.2526 15.6854 47.9521 15.2622C47.6559 14.839 47.5078 14.3587 47.5078 13.8213H48.7329C48.7329 14.3799 48.9382 14.8221 49.3486 15.1479C49.7633 15.4696 50.3156 15.6304 51.0054 15.6304C51.6486 15.6304 52.1416 15.4992 52.4844 15.2368C52.8271 14.9744 52.9985 14.6169 52.9985 14.1641C52.9985 13.7113 52.8398 13.3621 52.5225 13.1167C52.2051 12.867 51.6296 12.6216 50.7959 12.3804ZM58.4575 16.627C57.5265 16.627 56.769 16.3223 56.1851 15.7129C55.6011 15.0993 55.3091 14.2804 55.3091 13.2563V13.0405C55.3091 12.3592 55.4382 11.752 55.6963 11.2188C55.9587 10.6813 56.3226 10.2624 56.7881 9.96191C57.2578 9.65723 57.7656 9.50488 58.3115 9.50488C59.2044 9.50488 59.8984 9.79899 60.3936 10.3872C60.8887 10.9754 61.1362 11.8175 61.1362 12.9136V13.4023H56.4834C56.5003 14.0794 56.6971 14.6274 57.0737 15.0464C57.4546 15.4611 57.937 15.6685 58.521 15.6685C58.9357 15.6685 59.2869 15.5838 59.5747 15.4146C59.8625 15.2453 60.1143 15.021 60.3301 14.7417L61.0474 15.3003C60.4718 16.1847 59.6086 16.627 58.4575 16.627ZM58.3115 10.4697C57.8376 10.4697 57.4398 10.6432 57.1182 10.9902C56.7965 11.333 56.5977 11.8154 56.5215 12.4375H59.9619V12.3486C59.9281 11.752 59.7673 11.2907 59.4795 10.9648C59.1917 10.6348 58.8024 10.4697 58.3115 10.4697ZM66.7412 16.5C66.6735 16.3646 66.6185 16.1234 66.5762 15.7764C66.0303 16.3434 65.3786 16.627 64.6211 16.627C63.944 16.627 63.3875 16.4365 62.9517 16.0557C62.52 15.6706 62.3042 15.1839 62.3042 14.5957C62.3042 13.8805 62.575 13.3262 63.1167 12.9326C63.6626 12.5348 64.4285 12.3359 65.4146 12.3359H66.5571V11.7964C66.5571 11.3859 66.4344 11.0601 66.189 10.8188C65.9435 10.5734 65.5817 10.4507 65.1035 10.4507C64.6846 10.4507 64.3333 10.5565 64.0498 10.7681C63.7663 10.9797 63.6245 11.2357 63.6245 11.5361H62.4438C62.4438 11.1934 62.5645 10.8633 62.8057 10.5459C63.0511 10.2243 63.3812 9.97038 63.7959 9.78418C64.2148 9.59798 64.674 9.50488 65.1733 9.50488C65.9647 9.50488 66.5846 9.70378 67.0332 10.1016C67.4818 10.4951 67.7145 11.0389 67.7314 11.7329V14.894C67.7314 15.5246 67.8118 16.026 67.9727 16.3984V16.5H66.7412ZM64.7925 15.605C65.1606 15.605 65.5098 15.5098 65.8398 15.3193C66.1699 15.1289 66.409 14.8813 66.5571 14.5767V13.1675H65.6367C64.1979 13.1675 63.4785 13.5885 63.4785 14.4307C63.4785 14.7988 63.6012 15.0866 63.8467 15.2939C64.0921 15.5013 64.4074 15.605 64.7925 15.605ZM72.8921 10.6855C72.7144 10.6559 72.5218 10.6411 72.3145 10.6411C71.5443 10.6411 71.0216 10.9691 70.7466 11.625V16.5H69.5723V9.63184H70.7148L70.7339 10.4253C71.119 9.81169 71.6649 9.50488 72.3716 9.50488C72.6001 9.50488 72.7736 9.53451 72.8921 9.59375V10.6855ZM76.6055 15.6685C77.0244 15.6685 77.3905 15.5415 77.7036 15.2876C78.0168 15.0337 78.1903 14.7163 78.2241 14.3354H79.335C79.3138 14.729 79.1784 15.1035 78.9287 15.459C78.679 15.8145 78.3447 16.098 77.9258 16.3096C77.5111 16.5212 77.071 16.627 76.6055 16.627C75.6702 16.627 74.9255 16.3159 74.3711 15.6938C73.821 15.0675 73.5459 14.2127 73.5459 13.1294V12.9326C73.5459 12.264 73.6686 11.6694 73.9141 11.1489C74.1595 10.6284 74.5107 10.2243 74.9678 9.93652C75.429 9.64876 75.9728 9.50488 76.5991 9.50488C77.3693 9.50488 78.0083 9.73551 78.5161 10.1968C79.0282 10.658 79.3011 11.2568 79.335 11.9932H78.2241C78.1903 11.5488 78.021 11.1849 77.7163 10.9014C77.4159 10.6136 77.0435 10.4697 76.5991 10.4697C76.0024 10.4697 75.5391 10.6855 75.209 11.1172C74.8831 11.5446 74.7202 12.1646 74.7202 12.9771V13.1992C74.7202 13.9906 74.8831 14.5999 75.209 15.0273C75.5348 15.4548 76.0003 15.6685 76.6055 15.6685ZM81.8296 10.4634C82.3501 9.82438 83.0272 9.50488 83.8608 9.50488C85.3123 9.50488 86.0444 10.3237 86.0571 11.9614V16.5H84.8828V11.9551C84.8786 11.46 84.7643 11.0939 84.54 10.8569C84.32 10.62 83.9751 10.5015 83.5054 10.5015C83.1245 10.5015 82.7902 10.603 82.5024 10.8062C82.2147 11.0093 81.9904 11.2759 81.8296 11.606V16.5H80.6553V6.75H81.8296V10.4634Z" fill="#93A7B8"/>
<path d="M12 1H104V-1H12V1ZM104 23H12V25H104V23ZM12 23C5.92487 23 1 18.0751 1 12H-1C-1 19.1797 4.8203 25 12 25V23ZM115 12C115 18.0751 110.075 23 104 23V25C111.18 25 117 19.1797 117 12H115ZM104 1C110.075 1 115 5.92487 115 12H117C117 4.8203 111.18 -1 104 -1V1ZM12 -1C4.8203 -1 -1 4.8203 -1 12H1C1 5.92487 5.92487 1 12 1V-1Z" fill="#B7C4D0"/>
</svg>
