<svg width="75" height="28" viewBox="0 0 75 28" fill="none" xmlns="http://www.w3.org/2000/svg">
<path d="M0 14C0 6.26801 6.26801 0 14 0H61C68.732 0 75 6.26801 75 14C75 21.732 68.732 28 61 28H14C6.26801 28 0 21.732 0 14Z" fill="#0371FF"/>
<path d="M23.002 18H16.7876V16.9399L19.8662 13.582C20.3105 13.0869 20.6258 12.6743 20.812 12.3442C21.0024 12.0099 21.0977 11.6756 21.0977 11.3413C21.0977 10.9012 20.9728 10.5457 20.7231 10.2749C20.4777 10.0041 20.1455 9.86865 19.7266 9.86865C19.2272 9.86865 18.84 10.021 18.5649 10.3257C18.2899 10.6304 18.1523 11.0472 18.1523 11.5762H16.6099C16.6099 11.0133 16.7368 10.5076 16.9907 10.0591C17.2489 9.60628 17.6149 9.25505 18.0889 9.00537C18.5671 8.7557 19.1172 8.63086 19.7393 8.63086C20.6364 8.63086 21.3431 8.85726 21.8594 9.31006C22.3799 9.75863 22.6401 10.3807 22.6401 11.1763C22.6401 11.6375 22.509 12.1221 22.2466 12.6299C21.9884 13.1335 21.5632 13.7069 20.9707 14.3501L18.7109 16.7686H23.002V18ZM29.9971 11.1953C29.9971 11.6481 29.8807 12.0522 29.6479 12.4077C29.4152 12.759 29.0978 13.0361 28.6958 13.2393C29.1782 13.4635 29.5485 13.7703 29.8066 14.1597C30.069 14.549 30.2002 14.9891 30.2002 15.48C30.2002 16.2925 29.9251 16.9378 29.375 17.416C28.8249 17.89 28.0928 18.127 27.1787 18.127C26.2604 18.127 25.5241 17.8879 24.9697 17.4097C24.4196 16.9315 24.1445 16.2882 24.1445 15.48C24.1445 14.9849 24.2757 14.5405 24.5381 14.147C24.8005 13.7534 25.1686 13.4508 25.6426 13.2393C25.2448 13.0361 24.9295 12.759 24.6968 12.4077C24.4683 12.0522 24.354 11.6481 24.354 11.1953C24.354 10.4082 24.6079 9.78402 25.1157 9.32275C25.6235 8.86149 26.3091 8.63086 27.1724 8.63086C28.0399 8.63086 28.7275 8.86149 29.2354 9.32275C29.7432 9.78402 29.9971 10.4082 29.9971 11.1953ZM28.6577 15.4038C28.6577 14.9468 28.5202 14.5786 28.2451 14.2993C27.9743 14.0158 27.6146 13.874 27.166 13.874C26.7174 13.874 26.3577 14.0137 26.0869 14.293C25.8203 14.5723 25.687 14.9425 25.687 15.4038C25.687 15.8566 25.8182 16.2184 26.0806 16.4893C26.3472 16.7601 26.7132 16.8955 27.1787 16.8955C27.6442 16.8955 28.006 16.7643 28.2642 16.502C28.5265 16.2396 28.6577 15.8735 28.6577 15.4038ZM28.4609 11.2524C28.4609 10.8504 28.3446 10.5203 28.1118 10.2622C27.8791 9.99984 27.5659 9.86865 27.1724 9.86865C26.7788 9.86865 26.4678 9.99349 26.2393 10.2432C26.0107 10.4886 25.8965 10.825 25.8965 11.2524C25.8965 11.6756 26.0107 12.012 26.2393 12.2617C26.472 12.5114 26.7852 12.6362 27.1787 12.6362C27.5723 12.6362 27.8833 12.5114 28.1118 12.2617C28.3446 12.012 28.4609 11.6756 28.4609 11.2524ZM41.3467 10.0527H38.4648V18H36.8716V10.0527H34.0151V8.75781H41.3467V10.0527ZM44.8696 18.127C43.8921 18.127 43.0986 17.8201 42.4893 17.2065C41.8841 16.5887 41.5815 15.7677 41.5815 14.7437V14.5532C41.5815 13.8677 41.7127 13.2562 41.9751 12.7188C42.2417 12.1771 42.6141 11.756 43.0923 11.4556C43.5705 11.1551 44.1037 11.0049 44.6919 11.0049C45.6271 11.0049 46.3486 11.3032 46.8564 11.8999C47.3685 12.4966 47.6245 13.3408 47.6245 14.4326V15.0547H43.1367C43.1833 15.6217 43.3716 16.0703 43.7017 16.4004C44.036 16.7305 44.4549 16.8955 44.9585 16.8955C45.6652 16.8955 46.2407 16.6099 46.6851 16.0386L47.5166 16.832C47.2415 17.2425 46.8734 17.562 46.4121 17.7905C45.9551 18.0148 45.4409 18.127 44.8696 18.127ZM44.6855 12.2427C44.2624 12.2427 43.9196 12.3908 43.6572 12.687C43.3991 12.9832 43.234 13.3958 43.1621 13.9248H46.1011V13.8105C46.0672 13.2943 45.9297 12.9049 45.6885 12.6426C45.4473 12.376 45.113 12.2427 44.6855 12.2427ZM51.2935 13.3916L52.6011 11.1318H54.3149L52.2139 14.5151L54.3848 18H52.6836L51.3125 15.6514L49.9478 18H48.2339L50.4048 14.5151L48.3101 11.1318H50.0112L51.2935 13.3916ZM57.2983 9.4624V11.1318H58.5107V12.2744H57.2983V16.1084C57.2983 16.3708 57.3491 16.5612 57.4507 16.6797C57.5565 16.7939 57.7427 16.8511 58.0093 16.8511C58.187 16.8511 58.3669 16.8299 58.5488 16.7876V17.981C58.1976 18.0783 57.859 18.127 57.5332 18.127C56.3483 18.127 55.7559 17.4731 55.7559 16.1655V12.2744H54.626V11.1318H55.7559V9.4624H57.2983Z" fill="white"/>
</svg>
