<svg width="453" height="48" viewBox="0 0 453 48" fill="none" xmlns="http://www.w3.org/2000/svg">
<rect x="0.5" y="20.5" width="452" height="27" rx="3.5" fill="white"/>
<path d="M14.4434 29.4688L17.2324 36.4297L20.0215 29.4688H21.4805V38H20.3555V34.6777L20.4609 31.0918L17.6602 38H16.7988L14.0039 31.1094L14.1152 34.6777V38H12.9902V29.4688H14.4434ZM23.0098 34.7715C23.0098 34.1504 23.1309 33.5918 23.373 33.0957C23.6191 32.5996 23.959 32.2168 24.3926 31.9473C24.8301 31.6777 25.3281 31.543 25.8867 31.543C26.75 31.543 27.4473 31.8418 27.9785 32.4395C28.5137 33.0371 28.7812 33.832 28.7812 34.8242V34.9004C28.7812 35.5176 28.6621 36.0723 28.4238 36.5645C28.1895 37.0527 27.8516 37.4336 27.4102 37.707C26.9727 37.9805 26.4688 38.1172 25.8984 38.1172C25.0391 38.1172 24.3418 37.8184 23.8066 37.2207C23.2754 36.623 23.0098 35.832 23.0098 34.8477V34.7715ZM24.0996 34.9004C24.0996 35.6035 24.2617 36.168 24.5859 36.5938C24.9141 37.0195 25.3516 37.2324 25.8984 37.2324C26.4492 37.2324 26.8867 37.0176 27.2109 36.5879C27.5352 36.1543 27.6973 35.5488 27.6973 34.7715C27.6973 34.0762 27.5312 33.5137 27.1992 33.084C26.8711 32.6504 26.4336 32.4336 25.8867 32.4336C25.3516 32.4336 24.9199 32.6465 24.5918 33.0723C24.2637 33.498 24.0996 34.1074 24.0996 34.9004ZM31.2246 32.4277C31.7051 31.8379 32.3301 31.543 33.0996 31.543C34.4395 31.543 35.1152 32.2988 35.127 33.8105V38H34.043V33.8047C34.0391 33.3477 33.9336 33.0098 33.7266 32.791C33.5234 32.5723 33.2051 32.4629 32.7715 32.4629C32.4199 32.4629 32.1113 32.5566 31.8457 32.7441C31.5801 32.9316 31.373 33.1777 31.2246 33.4824V38H30.1406V29H31.2246V32.4277ZM40.6641 38C40.6016 37.875 40.5508 37.6523 40.5117 37.332C40.0078 37.8555 39.4062 38.1172 38.707 38.1172C38.082 38.1172 37.5684 37.9414 37.166 37.5898C36.7676 37.2344 36.5684 36.7852 36.5684 36.2422C36.5684 35.582 36.8184 35.0703 37.3184 34.707C37.8223 34.3398 38.5293 34.1562 39.4395 34.1562H40.4941V33.6582C40.4941 33.2793 40.3809 32.9785 40.1543 32.7559C39.9277 32.5293 39.5938 32.416 39.1523 32.416C38.7656 32.416 38.4414 32.5137 38.1797 32.709C37.918 32.9043 37.7871 33.1406 37.7871 33.418H36.6973C36.6973 33.1016 36.8086 32.7969 37.0312 32.5039C37.2578 32.207 37.5625 31.9727 37.9453 31.8008C38.332 31.6289 38.7559 31.543 39.2168 31.543C39.9473 31.543 40.5195 31.7266 40.9336 32.0938C41.3477 32.457 41.5625 32.959 41.5781 33.5996V36.5176C41.5781 37.0996 41.6523 37.5625 41.8008 37.9062V38H40.6641ZM38.8652 37.1738C39.2051 37.1738 39.5273 37.0859 39.832 36.9102C40.1367 36.7344 40.3574 36.5059 40.4941 36.2246V34.9238H39.6445C38.3164 34.9238 37.6523 35.3125 37.6523 36.0898C37.6523 36.4297 37.7656 36.6953 37.9922 36.8867C38.2188 37.0781 38.5098 37.1738 38.8652 37.1738ZM44.2969 31.6602L44.3262 32.3633C44.791 31.8164 45.418 31.543 46.207 31.543C47.0938 31.543 47.6973 31.8828 48.0176 32.5625C48.2285 32.2578 48.502 32.0117 48.8379 31.8242C49.1777 31.6367 49.5781 31.543 50.0391 31.543C51.4297 31.543 52.1367 32.2793 52.1602 33.752V38H51.0762V33.8164C51.0762 33.3633 50.9727 33.0254 50.7656 32.8027C50.5586 32.5762 50.2109 32.4629 49.7227 32.4629C49.3203 32.4629 48.9863 32.584 48.7207 32.8262C48.4551 33.0645 48.3008 33.3867 48.2578 33.793V38H47.168V33.8457C47.168 32.9238 46.7168 32.4629 45.8145 32.4629C45.1035 32.4629 44.6172 32.7656 44.3555 33.3711V38H43.2715V31.6602H44.2969ZM54.8203 31.6602L54.8496 32.3633C55.3145 31.8164 55.9414 31.543 56.7305 31.543C57.6172 31.543 58.2207 31.8828 58.541 32.5625C58.752 32.2578 59.0254 32.0117 59.3613 31.8242C59.7012 31.6367 60.1016 31.543 60.5625 31.543C61.9531 31.543 62.6602 32.2793 62.6836 33.752V38H61.5996V33.8164C61.5996 33.3633 61.4961 33.0254 61.2891 32.8027C61.082 32.5762 60.7344 32.4629 60.2461 32.4629C59.8438 32.4629 59.5098 32.584 59.2441 32.8262C58.9785 33.0645 58.8242 33.3867 58.7812 33.793V38H57.6914V33.8457C57.6914 32.9238 57.2402 32.4629 56.3379 32.4629C55.627 32.4629 55.1406 32.7656 54.8789 33.3711V38H53.7949V31.6602H54.8203ZM66.9551 38.1172C66.0957 38.1172 65.3965 37.8359 64.8574 37.2734C64.3184 36.707 64.0488 35.9512 64.0488 35.0059V34.8066C64.0488 34.1777 64.168 33.6172 64.4062 33.125C64.6484 32.6289 64.9844 32.2422 65.4141 31.9648C65.8477 31.6836 66.3164 31.543 66.8203 31.543C67.6445 31.543 68.2852 31.8145 68.7422 32.3574C69.1992 32.9004 69.4277 33.6777 69.4277 34.6895V35.1406H65.1328C65.1484 35.7656 65.3301 36.2715 65.6777 36.6582C66.0293 37.041 66.4746 37.2324 67.0137 37.2324C67.3965 37.2324 67.7207 37.1543 67.9863 36.998C68.252 36.8418 68.4844 36.6348 68.6836 36.377L69.3457 36.8926C68.8145 37.709 68.0176 38.1172 66.9551 38.1172ZM66.8203 32.4336C66.3828 32.4336 66.0156 32.5938 65.7188 32.9141C65.4219 33.2305 65.2383 33.6758 65.168 34.25H68.3438V34.168C68.3125 33.6172 68.1641 33.1914 67.8984 32.8906C67.6328 32.5859 67.2734 32.4336 66.8203 32.4336ZM70.4238 34.7773C70.4238 33.8047 70.6543 33.0234 71.1152 32.4336C71.5762 31.8398 72.1797 31.543 72.9258 31.543C73.668 31.543 74.2559 31.7969 74.6895 32.3047V29H75.7734V38H74.7773L74.7246 37.3203C74.291 37.8516 73.6875 38.1172 72.9141 38.1172C72.1797 38.1172 71.5801 37.8164 71.1152 37.2148C70.6543 36.6133 70.4238 35.8281 70.4238 34.8594V34.7773ZM71.5078 34.9004C71.5078 35.6191 71.6562 36.1816 71.9531 36.5879C72.25 36.9941 72.6602 37.1973 73.1836 37.1973C73.8711 37.1973 74.373 36.8887 74.6895 36.2715V33.3594C74.3652 32.7617 73.8672 32.4629 73.1953 32.4629C72.6641 32.4629 72.25 32.668 71.9531 33.0781C71.6562 33.4883 71.5078 34.0957 71.5078 34.9004ZM85.3184 35.7734H81.7441L80.9414 38H79.7812L83.0391 29.4688H84.0234L87.2871 38H86.1328L85.3184 35.7734ZM82.084 34.8477H84.9844L83.5312 30.8574L82.084 34.8477ZM90.0352 35.0645L89.3555 35.7734V38H88.2715V29H89.3555V34.4434L89.9355 33.7461L91.9102 31.6602H93.2285L90.7617 34.3086L93.5156 38H92.2441L90.0352 35.0645ZM96.1172 35.0645L95.4375 35.7734V38H94.3535V29H95.4375V34.4434L96.0176 33.7461L97.9922 31.6602H99.3105L96.8438 34.3086L99.5977 38H98.3262L96.1172 35.0645ZM104.344 38C104.281 37.875 104.23 37.6523 104.191 37.332C103.688 37.8555 103.086 38.1172 102.387 38.1172C101.762 38.1172 101.248 37.9414 100.846 37.5898C100.447 37.2344 100.248 36.7852 100.248 36.2422C100.248 35.582 100.498 35.0703 100.998 34.707C101.502 34.3398 102.209 34.1562 103.119 34.1562H104.174V33.6582C104.174 33.2793 104.061 32.9785 103.834 32.7559C103.607 32.5293 103.273 32.416 102.832 32.416C102.445 32.416 102.121 32.5137 101.859 32.709C101.598 32.9043 101.467 33.1406 101.467 33.418H100.377C100.377 33.1016 100.488 32.7969 100.711 32.5039C100.938 32.207 101.242 31.9727 101.625 31.8008C102.012 31.6289 102.436 31.543 102.896 31.543C103.627 31.543 104.199 31.7266 104.613 32.0938C105.027 32.457 105.242 32.959 105.258 33.5996V36.5176C105.258 37.0996 105.332 37.5625 105.48 37.9062V38H104.344ZM102.545 37.1738C102.885 37.1738 103.207 37.0859 103.512 36.9102C103.816 36.7344 104.037 36.5059 104.174 36.2246V34.9238H103.324C101.996 34.9238 101.332 35.3125 101.332 36.0898C101.332 36.4297 101.445 36.6953 101.672 36.8867C101.898 37.0781 102.189 37.1738 102.545 37.1738ZM110.021 32.6328C109.857 32.6055 109.68 32.5918 109.488 32.5918C108.777 32.5918 108.295 32.8945 108.041 33.5V38H106.957V31.6602H108.012L108.029 32.3926C108.385 31.8262 108.889 31.543 109.541 31.543C109.752 31.543 109.912 31.5703 110.021 31.625V32.6328Z" fill="#404040"/>
<rect x="0.5" y="20.5" width="452" height="27" rx="3.5" stroke="#B7C4D0"/>
<path d="M6.91797 11H5.88135L1.94434 4.97363V11H0.907715V3.17969H1.94434L5.89209 9.23291V3.17969H6.91797V11ZM8.33057 8.04053C8.33057 7.47119 8.44157 6.95915 8.66357 6.50439C8.88916 6.04964 9.20068 5.69873 9.59814 5.45166C9.99919 5.20459 10.4557 5.08105 10.9678 5.08105C11.7591 5.08105 12.3983 5.35498 12.8853 5.90283C13.3758 6.45068 13.6211 7.17936 13.6211 8.08887V8.15869C13.6211 8.72445 13.5119 9.23291 13.2935 9.68408C13.0786 10.1317 12.7689 10.4808 12.3643 10.7314C11.9632 10.9821 11.5013 11.1074 10.9785 11.1074C10.1908 11.1074 9.5516 10.8335 9.06104 10.2856C8.57406 9.73779 8.33057 9.0127 8.33057 8.11035V8.04053ZM9.32959 8.15869C9.32959 8.80322 9.47819 9.32064 9.77539 9.71094C10.0762 10.1012 10.4772 10.2964 10.9785 10.2964C11.4834 10.2964 11.8844 10.0994 12.1816 9.70557C12.4788 9.30811 12.6274 8.75309 12.6274 8.04053C12.6274 7.40316 12.4753 6.88753 12.1709 6.49365C11.8701 6.09619 11.4691 5.89746 10.9678 5.89746C10.4772 5.89746 10.0815 6.09261 9.78076 6.48291C9.47998 6.87321 9.32959 7.4318 9.32959 8.15869ZM17.6763 6.08008C17.5259 6.05501 17.363 6.04248 17.1875 6.04248C16.5358 6.04248 16.0936 6.31999 15.8608 6.875V11H14.8672V5.18848H15.834L15.8501 5.85986C16.1759 5.34066 16.6379 5.08105 17.2358 5.08105C17.4292 5.08105 17.576 5.10612 17.6763 5.15625V6.08008ZM19.5293 5.18848L19.5562 5.83301C19.9823 5.33171 20.557 5.08105 21.2803 5.08105C22.0931 5.08105 22.6463 5.39258 22.9399 6.01562C23.1333 5.73633 23.384 5.51074 23.6919 5.33887C24.0034 5.16699 24.3704 5.08105 24.793 5.08105C26.0677 5.08105 26.7158 5.75602 26.7373 7.10596V11H25.7437V7.16504C25.7437 6.74967 25.6488 6.43994 25.459 6.23584C25.2692 6.02816 24.9505 5.92432 24.5029 5.92432C24.1341 5.92432 23.828 6.03532 23.5845 6.25732C23.341 6.47575 23.1995 6.77116 23.1602 7.14355V11H22.1611V7.19189C22.1611 6.34684 21.7476 5.92432 20.9204 5.92432C20.2687 5.92432 19.8229 6.20182 19.583 6.75684V11H18.5894V5.18848H19.5293ZM31.8291 11C31.7718 10.8854 31.7253 10.6813 31.6895 10.3877C31.2275 10.8675 30.6761 11.1074 30.0352 11.1074C29.4622 11.1074 28.9914 10.9463 28.6226 10.624C28.2573 10.2982 28.0747 9.88639 28.0747 9.38867C28.0747 8.78353 28.3039 8.31445 28.7622 7.98145C29.2241 7.64486 29.8722 7.47656 30.7065 7.47656H31.6733V7.02002C31.6733 6.67269 31.5695 6.39697 31.3618 6.19287C31.1541 5.98519 30.848 5.88135 30.4434 5.88135C30.0889 5.88135 29.7917 5.97087 29.5518 6.1499C29.3118 6.32894 29.1919 6.54557 29.1919 6.7998H28.1929C28.1929 6.50977 28.2949 6.23047 28.499 5.96191C28.7067 5.68978 28.986 5.47493 29.3369 5.31738C29.6914 5.15983 30.0799 5.08105 30.5024 5.08105C31.172 5.08105 31.6966 5.24935 32.0762 5.58594C32.4557 5.91895 32.6527 6.37907 32.667 6.96631V9.64111C32.667 10.1746 32.735 10.599 32.8711 10.9141V11H31.8291ZM30.1802 10.2427C30.4917 10.2427 30.7871 10.1621 31.0664 10.001C31.3457 9.83984 31.548 9.63037 31.6733 9.37256V8.18018H30.8945C29.6771 8.18018 29.0684 8.53646 29.0684 9.24902C29.0684 9.56055 29.1722 9.80404 29.3799 9.97949C29.5876 10.1549 29.8543 10.2427 30.1802 10.2427ZM35.3042 11H34.3105V2.75H35.3042V11Z" fill="#6F89A1"/>
</svg>
