<svg width="200" height="28" viewBox="0 0 200 28" fill="none" xmlns="http://www.w3.org/2000/svg">
<rect x="0.5" y="0.5" width="199" height="27" rx="3.5" fill="white"/>
<path d="M17.8125 14.0566H14.1152V17.0801H18.4102V18H12.9902V9.46875H18.3516V10.3945H14.1152V13.1367H17.8125V14.0566ZM20.6602 11.6602L20.6895 12.3633C21.1543 11.8164 21.7812 11.543 22.5703 11.543C23.457 11.543 24.0605 11.8828 24.3809 12.5625C24.5918 12.2578 24.8652 12.0117 25.2012 11.8242C25.541 11.6367 25.9414 11.543 26.4023 11.543C27.793 11.543 28.5 12.2793 28.5234 13.752V18H27.4395V13.8164C27.4395 13.3633 27.3359 13.0254 27.1289 12.8027C26.9219 12.5762 26.5742 12.4629 26.0859 12.4629C25.6836 12.4629 25.3496 12.584 25.084 12.8262C24.8184 13.0645 24.6641 13.3867 24.6211 13.793V18H23.5312V13.8457C23.5312 12.9238 23.0801 12.4629 22.1777 12.4629C21.4668 12.4629 20.9805 12.7656 20.7188 13.3711V18H19.6348V11.6602H20.6602ZM35.5195 14.9004C35.5195 15.8652 35.2988 16.6426 34.8574 17.2324C34.416 17.8223 33.8184 18.1172 33.0645 18.1172C32.2949 18.1172 31.6895 17.873 31.248 17.3848V20.4375H30.1641V11.6602H31.1543L31.207 12.3633C31.6484 11.8164 32.2617 11.543 33.0469 11.543C33.8086 11.543 34.4102 11.8301 34.8516 12.4043C35.2969 12.9785 35.5195 13.7773 35.5195 14.8008V14.9004ZM34.4355 14.7773C34.4355 14.0625 34.2832 13.498 33.9785 13.084C33.6738 12.6699 33.2559 12.4629 32.7246 12.4629C32.0684 12.4629 31.5762 12.7539 31.248 13.3359V16.3652C31.5723 16.9434 32.0684 17.2324 32.7363 17.2324C33.2559 17.2324 33.668 17.0273 33.9727 16.6172C34.2812 16.2031 34.4355 15.5898 34.4355 14.7773ZM38.373 10.125V11.6602H39.5566V12.498H38.373V16.4297C38.373 16.6836 38.4258 16.875 38.5312 17.0039C38.6367 17.1289 38.8164 17.1914 39.0703 17.1914C39.1953 17.1914 39.3672 17.168 39.5859 17.1211V18C39.3008 18.0781 39.0234 18.1172 38.7539 18.1172C38.2695 18.1172 37.9043 17.9707 37.6582 17.6777C37.4121 17.3848 37.2891 16.9688 37.2891 16.4297V12.498H36.1348V11.6602H37.2891V10.125H38.373ZM42.9023 16.4121L44.3789 11.6602H45.5391L42.9902 18.9785C42.5957 20.0332 41.9688 20.5605 41.1094 20.5605L40.9043 20.543L40.5 20.4668V19.5879L40.793 19.6113C41.1602 19.6113 41.4453 19.5371 41.6484 19.3887C41.8555 19.2402 42.0254 18.9688 42.1582 18.5742L42.3984 17.9297L40.1367 11.6602H41.3203L42.9023 16.4121Z" fill="#B4B4B4"/>
<rect x="0.5" y="0.5" width="199" height="27" rx="3.5" stroke="#B7C4D0"/>
</svg>
