<svg viewBox="0 0 67 67" xmlns="http://www.w3.org/2000/svg">
  <g fill-rule="nonzero" fill="none">
    <path fill="#F7DF1E" d="M0 0h67v67H0z"/>
    <path d="M45.5494786 52.0310453c1.3652062 2.1976503 3.141373 3.8130081 6.282746 3.8130081 2.6389685 0 4.324767-1.3003471 4.324767-3.0970748 0-2.1531033-1.7320584-2.9157049-4.6367527-4.1683232l-1.5922027-.6735077c-4.5958718-1.9303685-7.6490282-4.3486323-7.6490282-9.460927 0-4.7092506 3.6394743-8.2942207 9.3272959-8.2942207 4.049359 0 6.9605081 1.3894411 9.0583428 5.0274433l-4.9594964 3.1395004c-1.0919499-1.9303685-2.2699648-2.6908489-4.0988464-2.6908489-1.8654591 0-3.0477773 1.1667063-3.0477773 2.6908489 0 1.8837003 1.183394 2.6463019 3.9159582 3.8130081l1.5922027.6724471c5.4113378 2.2878049 8.4666458 4.6201567 8.4666458 9.8639709 0 5.6532221-4.5044277 8.7502969-10.5537224 8.7502969-5.9148181 0-9.7361047-2.7788822-11.6058672-6.4211269l5.1757349-2.9644945zm-22.4984706.5441093c1.0005058 1.7500594 1.9106433 3.229655 4.0988463 3.229655 2.0924556 0 3.4124778-.8071486 3.4124778-3.9455883V30.508497h6.3688111v21.4355756c0 6.5017357-3.8664708 9.460927-9.5101841 9.460927-5.0993521 0-8.0524579-2.6017549-9.5542924-5.7354218l5.1843413-3.0944232z" fill="#000"/>
  </g>
</svg>