<?xml version="1.0" encoding="UTF-8" standalone="no"?>
<!-- Created with Inkscape (http://www.inkscape.org/) -->
<svg
  xmlns:dc="http://purl.org/dc/elements/1.1/"
  xmlns:cc="http://creativecommons.org/ns#"
  xmlns:rdf="http://www.w3.org/1999/02/22-rdf-syntax-ns#"
  xmlns:svg="http://www.w3.org/2000/svg"
  xmlns="http://www.w3.org/2000/svg"
  xmlns:sodipodi="http://sodipodi.sourceforge.net/DTD/sodipodi-0.dtd"
  xmlns:inkscape="http://www.inkscape.org/namespaces/inkscape"
  viewBox="0 0 128 128"
  id="svg2"
  sodipodi:version="0.32"
  inkscape:version="0.46+devel"
  version="1.0"
  sodipodi:docname="greedy-rat.svg"
  inkscape:output_extension="org.inkscape.output.svg.inkscape"
  inkscape:export-filename="/home/nicu/Desktop/rat.png"
  inkscape:export-xdpi="90"
  inkscape:export-ydpi="90">
  <defs
    id="defs4">
    <inkscape:perspective
      sodipodi:type="inkscape:persp3d"
      inkscape:vp_x="0 : 64 : 1"
      inkscape:vp_y="0 : 1000 : 0"
      inkscape:vp_z="128 : 64 : 1"
      inkscape:persp3d-origin="64 : 42.666667 : 1"
      id="perspective17" />
  </defs>
  <sodipodi:namedview
    id="base"
    pagecolor="#ffffff"
    bordercolor="#666666"
    borderopacity="1.0"
    inkscape:pageopacity="0.0"
    inkscape:pageshadow="2"
    inkscape:zoom="1"
    inkscape:cx="64"
    inkscape:cy="64"
    inkscape:document-units="px"
    inkscape:current-layer="layer1"
    showgrid="false"
    inkscape:window-width="1028"
    inkscape:window-height="857"
    inkscape:window-x="485"
    inkscape:window-y="94" />
  <metadata
    id="metadata7">
    <rdf:RDF>
      <cc:Work
        rdf:about="">
        <dc:format>image/svg+xml</dc:format>
        <dc:type
          rdf:resource="http://purl.org/dc/dcmitype/StillImage" />
        <dc:title />
      </cc:Work>
    </rdf:RDF>
  </metadata>
  <g
    inkscape:label="Layer 1"
    inkscape:groupmode="layer"
    id="layer1"
    transform="translate(12.58567,9.96875)">
    <path
      style="color:#000000;fill:#213040;fill-opacity:1;stroke:none;stroke-width:1px;marker:none;visibility:visible;display:inline;overflow:visible;enable-background:accumulate"
      d="M 35.28125,81.28125 24.5,81.46875 13.90625,82.4375 4.53125,83.84375 -3.5,84.5625 l 0.25,0.875 8.5,0.96875 9.34375,0.09375 9.03125,0.4375 8.21875,1.5 2.46875,1 0.96875,-8.15625 z M 97.5,82.875 l -4.59375,0.8125 -6,1.59375 L 89.375,91 l -4.6875,1.53125 6.625,0.25 7.875,-1.25 1.78125,-0.4375 -6.8125,-0.96875 -0.0937,-0.15625 3.625,-1.25 5.125,-1.84375 0.625,-0.90625 L 99.53125,85.625 94.5,86.40625 93.34375,86.34375 97.25,83.6875 97.5,82.875 z m -22.4375,11.5 -12.1875,0.25 4.84375,5.9375 11.6875,8.21875 0.0625,-0.71875 -6.09375,-8.3125 2.65625,1.59375 6.625,4.6875 2.65625,1.25 -0.625,-1.5 -3.6875,-3.8125 -3.90625,-2.8125 0.8125,-0.4375 6.1875,1.3125 C 83.242892,96.650754 78.129847,96.221003 75.0625,94.375 z"
      id="path1064"
      sodipodi:nodetypes="ccccccccccccccccccccccccccccccccccccccccccccc" />
    <path
      style="font-size:medium;font-style:normal;font-variant:normal;font-weight:normal;font-stretch:normal;text-indent:0;text-align:start;text-decoration:none;line-height:normal;letter-spacing:normal;word-spacing:normal;text-transform:none;direction:ltr;block-progression:tb;writing-mode:lr-tb;text-anchor:start;color:#000000;fill:#636e79;fill-opacity:1;stroke:none;stroke-width:1px;marker:none;visibility:visible;display:inline;overflow:visible;enable-background:accumulate;font-family:Bitstream Vera Sans;-inkscape-font-specification:Bitstream Vera Sans"
      d="M 61.46875,1.03125 C 55.194786,1.323466 51.13822,4.3295111 48.432138,9.6688131 39.265174,11.702996 33.870302,18.896835 34.8125,29 c 1.599201,6.116196 8.392533,8.582099 14,8.78125 -7.076347,13.646502 -10.358138,28.194416 -13.068782,43.182138 l -1.681218,8.567862 -0.21875,1.375 C 43.279693,94.524 52.093203,95.18151 62.125,95.1875 l 13.5,-1.15625 c 3.219521,-0.36253 5.711381,-0.31811 8.59375,-1 l 4.68252,-2.17271 -1.74502,-5.95229 C 83.073392,74.543564 78.810986,64.708255 75.5625,53.875 c 1.913915,-0.330721 3.805133,-0.831701 5.875,-0.78125 2.3125,1.3125 3.593812,3.656188 6.9375,3.9375 l 0.0313,0.03125 0.15625,-0.21875 c -0.600474,-2.809228 -3.416667,-3.604167 -5.125,-5.40625 2.416667,-0.208333 5.09225,0.618994 7.25,-0.625 l 0.0937,-0.25 C 89.47469,48.270434 86.21875,49.041667 83.9375,48.28125 85.125,47.010417 87.61939,46.452432 87.5,44.46875 L 87.34375,44.28125 87.3125,44.3125 C 84.258752,44.119706 82.604167,47.125 80.25,48.53125 l -5.625,0.0625 C 73.995277,43.793389 73.87677,38.690513 74.5,33.1875 c 2.131988,0.153452 4.666957,0.452388 6.78125,0.75 L 81.5,43.03125 c 1.526876,0.435446 3.618486,-0.09452 4.96875,-0.71875 l 0.1875,-0.5 0.34375,0.25 c 1.3194,0.429683 1.89568,0.469259 3.15625,-0.21875 l -0.625,-7.40625 c 2.1035,0.337312 4.76891,0.49966 6.28125,0.46875 2.74945,-0.0562 4.98586,-0.773225 7.75,-2.3125 0.88095,-0.482354 0.13482,-1.128566 -0.0625,-1.71875 -2.80641,-1.453535 -4.38006,-3.010391 -6.75,-5.03125 C 96.36955,25.333745 95.77332,25.94323 95.5,26.0625 87.620689,19.460008 87.571083,19.855926 83.40625,17.40625 83.782664,16.934303 83.992896,16.117613 83.9375,15.1875 83.861547,13.912222 83.299489,12.904696 82.625,12.75 82.058164,11.905447 81.139013,11.280513 79.6875,11.09375 78.064565,11.19268 76.945555,12.195835 76.25,13.5 75.641713,12.925302 75.113925,13.092139 74.34375,13 72.651203,6.704893 68.057935,1.19339 61.46875,1.03125 z"
      id="path996"
      sodipodi:nodetypes="ccccccccccccccccccccccccccccccccccscccccsccccc" />
    <path
      style="color:#000000;fill:#ffffff;stroke:none;stroke-width:1px;marker:none;visibility:visible;display:inline;overflow:visible;enable-background:accumulate"
      d="M 81.65625,31.78125 81.75,42.6875 83.5,43 l 2.71875,-0.46875 0.5625,-1.0625 1.125,0.75 1.40625,-0.09375 0.75,-0.4375 -0.25305,-6.780164 0.12666,-0.848871 -0.96736,-0.464715 -7.3125,-1.8125 z"
      id="path999"
      sodipodi:nodetypes="cccccccccccc" />
    <path
      style="color:#000000;fill:#ffffff;stroke:none;stroke-width:1px;marker:none;visibility:visible;display:inline;overflow:visible;enable-background:accumulate"
      d="m 74.3125,13.0625 -2.1875,1.125 -1.4375,3 0.375,4.25 1.5625,1.625 1.625,0.375 1.5,-0.4375 1.625,-1.4375 0.125,-0.875 1.875,0.5625 1.75,-0.0625 1.5625,-2.0625 c 0,0 0.375,-1.625 0.375,-1.875 0,-0.25 -0.9375,-4.5 -0.9375,-4.5 L 79.75,11.3125 77.9375,12.25 76.9375,14 75.75,13.5 74.3125,13.0625 z"
      id="path1001" />
    <path
      style="color:#000000;fill:#ffde00;fill-opacity:1;stroke:none;stroke-width:1px;marker:none;visibility:visible;display:inline;overflow:visible;enable-background:accumulate"
      d="m 70.621976,47.991498 c -0.4375,-0.0625 -4.457646,2.164752 -4.457646,2.164752 l -2.25,2.9375 -1.5625,4.9375 1.625,0 2.6875,-0.1875 2.1875,0 1.5625,0.9375 0.0625,0.3125 -1.125,0.5625 -3.625,0.125 -0.25,0.25 0.75,1.1875 c 0,0 1.625,1.625 1.875,1.875 0.25,0.25 1.1875,2.0625 1.1875,2.0625 l -0.0625,0.9375 c 0,0 -1.375,-0.125 -1.5,-0.375 -0.125,-0.25 -4.625,-3.9375 -4.625,-3.9375 l 0,0.9375 0.8125,3 -0.525888,3.632583 -2.106695,-5.986136 -0.554917,8.416053 0.75,0.75 2.441539,0.47943 c 0.881904,-0.746846 1.763809,-0.890385 2.645713,0.519521 l 12.100248,2.376049 4.875,0.3125 -0.125,-5.625 -1.6875,-1.25 c 0,0 -0.5625,-1.25 0.1875,-1.75 0.75,-0.5 2.4375,-0.875 2.4375,-0.875 l 2.5,-7.0625 -4.995558,-2.885723 c -1.789562,0.960896 -4.488425,-0.487308 -4.341731,-3.296821 l -6.892565,-5.482208 z"
      id="path109"
      sodipodi:nodetypes="cccccccccccccsccscccccccccccccsccccc" />
    <path
      style="font-size:medium;font-style:normal;font-variant:normal;font-weight:normal;font-stretch:normal;text-indent:0;text-align:start;text-decoration:none;line-height:normal;letter-spacing:normal;word-spacing:normal;text-transform:none;direction:ltr;block-progression:tb;writing-mode:lr-tb;text-anchor:start;color:#000000;fill:#000000;fill-opacity:1;stroke:none;stroke-width:1px;marker:none;visibility:visible;display:inline;overflow:visible;enable-background:accumulate;font-family:Bitstream Vera Sans;-inkscape-font-specification:Bitstream Vera Sans"
      d="m 74.0625,11 c -6.273964,0.292216 -10.418918,2.848198 -13.125,8.1875 -9.166964,2.034183 -14.473448,9.678085 -13.53125,19.78125 1.599201,6.116196 8.392533,8.582099 14,8.78125 C 54.329903,61.396502 50.429394,75.856028 47.71875,90.84375 34.537095,90.667493 21.585554,93.099544 8.53125,94.5 8.52339,94.500503 8.507782,94.499497 8.5,94.5 c -0.2373134,0.515566 -0.421126,1.447645 0.09375,1.625 12.858791,1.597352 25.24659,-0.768243 38.0625,3.375 l -0.21875,1.375 c 9.435943,3.61775 18.249453,4.27526 28.28125,4.28125 5.085815,7.03174 11.119837,10.08315 16.96875,14.0625 1.081923,-0.3229 1.102688,-0.64585 1.21875,-0.96875 -1.802083,-2.72917 -2.668537,-4.81986 -6.21875,-7.9375 3.833333,2.375 7.107595,6.14768 11.5,7.125 l 0.15625,-0.1875 c -1.829434,-3.54198 -5.010752,-5.93597 -8.125,-8.28125 l 6.75,1.15625 L 97.0625,110 c -0.691368,-3.23084 -5.895833,-4 -8.84375,-6 3.219521,-0.36253 5.711381,-0.31811 8.59375,-1 5.86483,1.08479 11.23848,-0.77748 16.78125,-1.625 0.83373,-0.28936 0.41188,-0.41321 0.375,-0.59375 l -7.0625,-0.65625 c 3.08356,-1.179343 6.40132,-1.764692 9.25,-3.53125 0.46436,-0.440994 0.35246,-0.832984 -0.125,-1.15625 -3.20867,-0.486372 -6.55526,0.330577 -9.875,0.84375 l 4.21875,-2.71875 -0.15625,-0.875 C 106.07236,92.65259 103.2379,94.141672 99.75,94.875 98.545147,91.816967 97.299204,88.817879 96.09375,85.8125 l -0.8125,-0.03125 c 1.943969,4.6543 4.037575,9.573785 6.0625,15.03125 -17.859107,6.05465 -36.278416,3.69113 -54.25,-0.25 C 49.335611,81.935991 54.542984,64.959602 62.25,47.875 c 1.402796,-0.01336 2.375194,-0.237366 4.03125,-0.46875 l -0.0625,-0.25 c -1.598609,0.223407 -3.080926,-0.08192 -4.4375,-0.0625 C 55.852075,47.282853 51.714961,45.296256 48.9375,39.6875 41.525912,22.919852 73.537858,8.309473 75.96875,32.21875 l 0.25,0.0625 c -0.360955,-4.366499 -1.631134,-8.072001 -3.9375,-10.5 1.248252,-1.213988 2.13827,-2.008625 3.774587,-2.208027 1.135884,-2.554282 1.337241,-2.311616 2.760586,-3.330047 -0.568235,0.908007 -1.454959,1.735651 -0.782818,2.891734 0.325539,-0.01289 -0.0131,0.03467 0.315689,0.05023 0.354178,-0.552186 0.63467,-1.178058 1.241267,-1.477826 -0.798183,0.767227 -0.574655,1.213461 -0.616813,1.854683 0.278557,0.02301 -0.06916,-0.04748 0.208812,-0.0067 -0.08491,-0.697828 1.100412,-1.164936 2.248562,-1.950787 -0.870368,0.756835 -1.529447,1.513671 -1.337372,2.270506 1.630322,0.276607 3.222016,0.824071 4.59375,1.5 l 0.1875,-0.25 C 83.57389,20.398068 82.533831,20.044225 80.96875,19.65625 79.972553,19.376477 82.013447,17.540563 82.5,16.8125 c -1.497653,0.571018 -1.965517,0.965628 -2.625,1.375 l 0.53125,-1.375 c -0.698853,0.388728 -1.527478,0.735467 -2.09375,1.53125 -0.514195,-1.266519 1.656563,-2.409963 2.4375,-3.4375 -2.072416,1.007689 -4.946738,2.246464 -5.09375,4.0625 -1.844152,0.346283 -2.300362,1.179668 -3.78125,2.4375 -2.391786,-2.259158 -5.796166,-3.256646 -10.28125,-2.3125 2.204334,-5.81383 7.438612,-6.843631 12.53125,-6.90625 6.781652,-0.05206 10.107705,4.915364 12.25,10.78125 -0.846949,0.154001 -1.53185,0.745312 -2.09375,1.5625 C 82.497826,26.789551 82.285333,29.579481 83.5,32 c 1.94998,2.530194 5.506462,1.573821 6.8125,-0.875 1.736901,1.243261 3.145762,0.591963 4.5,-0.84375 0.278627,-0.40521 0.511551,-0.890902 0.6875,-1.40625 4.62022,2.192618 8.66438,5.274016 12.8125,8.21875 l -0.71875,7.125 c -0.6512,0.287838 -1.46724,-0.127307 -2.9375,-0.125 -3.4289,-1.451123 -8.426974,-2.170835 -12.75,-2.875 l 4.875,-2.9375 c 0.182872,-0.936923 -0.156836,-0.689371 -0.625,-0.8125 L 91.25,41.09375 C 90.306021,40.936879 89.335206,40.792127 88.5,40.625 l 0.125,0.125 c 0.79465,0.159012 1.600617,0.347487 2.40625,0.53125 l -1.6875,1.25 0.3125,0.0625 1.9375,-1.1875 c 0.758681,0.178083 1.523104,0.364529 2.28125,0.5625 l 0.03125,1.1875 c -3.748095,-0.400697 -7.238241,-0.438118 -9.96875,-0.3125 l 0,0.25 c 0.974255,-0.03184 1.707849,0.10719 2.65625,0.15625 -0.933548,6.747185 -0.624116,12.229467 0.5,18 l 0.75,0.59375 C 87.640605,60.7451 87.402277,59.940373 87.25,58.8125 c 1.594892,0.539383 3.921908,0.30202 5.8125,0.25 1.915984,-1.177474 3.807224,-4.001855 6.53125,-4.4375 0.89997,0.610946 -2.34375,2.5 -3.375,3.59375 l -0.0625,0.46875 c 2.145833,0.71875 4.77399,-0.06313 6.5625,1.90625 C 100.39583,61.589054 97.947917,60.802083 95.625,61 l 0,0.46875 c 1.5625,1.65625 4.46257,2.922906 4.625,4.8125 -2.961187,-0.447275 -3.927083,-2.5 -6,-3.6875 -2.195218,-0.20087 -3.651362,0.0819 -5.15625,0.34375 l 0.84375,0.5 0.03125,0.0625 c 1.314006,-0.250748 2.645659,-0.472034 4.0625,-0.4375 2.3125,1.3125 3.593812,3.656188 6.9375,3.9375 L 101,67.03125 101.15625,66.8125 c -0.60047,-2.809228 -3.416667,-3.604167 -5.125,-5.40625 2.416667,-0.208333 5.09225,0.618994 7.25,-0.625 l 0.0937,-0.25 c -1.30656,-2.292066 -4.5625,-1.520833 -6.84375,-2.28125 1.1875,-1.270833 3.68189,-1.828818 3.5625,-3.8125 L 99.9375,54.25 99.90625,54.28125 c -3.053748,-0.192794 -4.708333,2.8125 -7.0625,4.21875 l -5.625,0.0625 c -0.629723,-4.800361 -0.74823,-9.903237 -0.125,-15.40625 2.131988,0.153452 4.666957,0.452388 6.78125,0.75 L 94.09375,53 c 1.526876,0.435446 3.680986,0.155476 5.03125,-0.46875 l 0.25,-0.9375 0.28125,0.6875 c 1.3194,0.429683 1.83318,0.219259 3.09375,-0.46875 0.28344,-2.418468 0.006,-4.756741 -0.28125,-7.09375 2.1035,0.337312 4.42516,0.18716 5.9375,0.15625 2.74945,-0.0562 4.98586,-0.773225 7.75,-2.3125 0.88095,-0.482354 0.13482,-1.128566 -0.0625,-1.71875 -2.80641,-1.453535 -4.38006,-3.010391 -6.75,-5.03125 -0.38045,-0.510005 -0.97668,0.09948 -1.25,0.21875 -1.10563,-0.926463 -1.76345,-1.446933 -2.59375,-2.125 l 3.8125,-4.25 -0.3125,-0.125 -4.28125,3.75 c -0.30237,-0.24418 -0.76196,-0.630229 -1.03125,-0.84375 l 5.125,-7.8125 -0.1875,-0.0625 -5.6875,7.28125 c -0.41338,-0.320599 -0.81177,-0.652409 -1.15625,-0.90625 l 2.125,-4.125 -0.1875,-0.0625 -2.625,3.71875 C 99.34051,29.235357 98.265851,28.707731 96,27.375 c 0.376414,-0.471947 0.586646,-1.288637 0.53125,-2.21875 -0.07595,-1.275278 -0.638011,-2.282804 -1.3125,-2.4375 -0.566836,-0.844553 -1.485987,-1.469487 -2.9375,-1.65625 -1.622935,0.09893 -2.741945,1.102085 -3.4375,2.40625 -0.608287,-0.574698 -1.136075,-0.407861 -1.90625,-0.5 C 85.244953,16.673643 80.651685,11.16214 74.0625,11 z m 18.15625,10.625 c 1.068339,0.162647 1.738151,0.662841 2.1875,1.34375 -0.439043,0.442234 -0.71658,1.330787 -0.65625,2.34375 0.08301,1.393759 0.776479,2.482754 1.53125,2.46875 -0.135238,0.644489 -0.410379,1.167517 -0.8125,1.9375 -1.228789,1.652418 -2.380771,1.598654 -4,0.65625 0.03578,-0.1089 0.0615,-0.207608 0.09375,-0.3125 0.50875,-0.392113 0.815606,-1.33596 0.75,-2.4375 C 91.24938,26.56514 90.865652,25.67123 90.34375,25.3125 90.130162,24.898287 89.894228,24.466773 89.5625,24 c 0.566368,-1.385457 1.23105,-2.041432 2.65625,-2.375 z M 63.4375,22.8125 c -8.496166,-0.02895 -15.091414,7.758412 -13.125,15.46875 l 0.28125,-0.3125 C 49.223765,26.523283 64.819485,17.618101 71.6875,29.875 l 0.1875,0.09375 C 70.719143,25.806336 67.100795,22.781364 63.4375,22.8125 z m 23.59375,0.59375 c 0.571528,-0.03386 1.188173,0.150867 1.90625,0.5625 0.409692,0.541151 0.664638,0.909061 0.84375,1.1875 -0.767485,0.04571 -1.334164,1.211854 -1.25,2.625 0.07835,1.315473 0.704085,2.366551 1.40625,2.46875 -0.09129,0.265664 -0.193898,0.524862 -0.25,0.78125 -1.319785,2.059528 -3.055171,2.819054 -4.9375,0.875 -1.628984,-2.497816 -1.056956,-3.981208 -0.34375,-6.6875 0.868049,-1.120879 1.672454,-1.756065 2.625,-1.8125 z m 8.28125,11.4375 -15.25,1.375 0,0.25 15.3125,-0.625 c 0.933168,-0.605905 0.03954,-0.689869 -0.0625,-1 z M 94.4375,36.75 77.8125,42 78,42.25 94.75,37.6875 C 95.168943,36.982668 94.618455,37.004908 94.4375,36.75 z m 0.09375,5.40625 c 2.674312,0.719898 5.087312,0.862983 7.5,1.8125 0.24464,2.734783 0.6657,5.756249 0.28125,7.46875 -0.79711,0.567989 -0.70259,0.838549 -2.4375,0.46875 0.34571,-2.055695 -0.686489,-5.819305 -1.09375,-7.875 l -0.09375,0.1875 c 0.261465,2.074562 0.29575,5.838466 0,7.96875 -1.194126,0.593151 -2.899625,0.564511 -4.09375,0.28125 0.06934,-2.874912 -0.240751,-7.615544 -0.25,-9.21875 l 0.1875,-1.09375 z M 69.71875,63.4375 69.5625,63.625 c 1.702089,1.506244 2.804303,3.612364 5.125,4.5 2.697917,0.260417 6.181459,-1.207542 8.09375,0.78125 -0.984583,0.816786 -3.291667,0.5 -4.9375,0.75 L 77.75,69.875 c 0.365878,2.146951 4.400937,4.111771 3.75,5.875 -2.122323,-0.387045 -3.864583,-3.09375 -5.78125,-4.40625 L 75.40625,71.75 c 0.166667,2.28125 1.189996,5.442342 0.46875,7.03125 L 73.59375,71.5625 c -1.532035,-2.481761 -5.647875,-3.656974 -8.5625,-4.75 l -0.0625,0.25 c 2.988522,0.785438 5.607958,2.739762 8.15625,4.9375 0.715019,3.121061 1.894122,5.004565 2.84375,7.5 L 76.5,79.4375 C 77.04681,76.958333 75.958333,74.479167 75.6875,72 c 2.010417,1.385417 3.005539,4.014342 6.03125,4.15625 L 81.90625,76 c 0.218973,-2.89719 -2.541623,-4.072942 -3.8125,-6.09375 1.708333,-0.239583 3.571438,0.294692 5.125,-0.71875 l 0.03125,-0.25 c -1.493244,-2.493898 -5.479167,-0.833333 -8.21875,-1.25 -1.856125,-1.757831 -3.541689,-2.833422 -5.3125,-4.25 z M 43.65625,92 c 1.353831,-0.01679 2.709638,-0.02552 4.0625,0 -0.376014,2.124661 -0.558641,4.409148 -1.1875,7 C 43.25551,97.94203 39.969067,97.277789 36.6875,96.84375 37.715074,94.032375 40.911885,93.226645 43.65625,92 z m -1.9375,0.03125 C 39.276069,93.363117 36.63921,94.594523 35.84375,96.75 32.062063,96.294374 28.277321,96.116776 24.5,96 c 1.333654,-1.880838 3.377064,-2.709335 5.5625,-3.3125 3.881732,-0.316158 7.774628,-0.55895 11.65625,-0.65625 z M 27.15625,92.9375 C 25.623627,93.563927 24.312768,94.448733 23.5,95.875 l 0.0625,0.09375 C 20.577176,95.8814 17.600258,95.797453 14.625,95.625 c 0.379688,-0.906076 1.724929,-1.322865 3.0625,-1.75 L 17.625,93.84375 c 3.184011,-0.320406 6.347208,-0.620577 9.53125,-0.90625 z m 82.5,0.53125 -3.96875,2.84375 c -0.11045,0.281558 0.0398,0.425673 0.15625,0.59375 3.23945,-0.114873 5.9032,-1.657909 9.625,-0.6875 -2.84756,1.932681 -5.98958,2.062504 -9,3.34375 -0.58961,0.16175 -0.19269,0.4765 0,0.75 l 6.1875,0.90625 c -4.82496,0.62492 -10.05057,2.10837 -14.125,1.125 1.56365,-0.39029 2.19067,-0.85119 3.59375,-1.34375 -0.65075,-1.73394 -1.50996,-3.802535 -2.1875,-5.53125 3.23601,-0.663399 7.38115,-2.106666 9.71875,-2 z M 15.625,94.0625 c -1.097856,0.435577 -1.777926,0.908043 -1.9375,1.5 C 12.489912,95.48375 11.288928,95.405221 10.09375,95.28125 9.7715778,95.24783 10.07289,94.661621 9.75,94.625 c 1.956068,-0.177687 3.918892,-0.367381 5.875,-0.5625 z m 71.5625,10.5625 c 3.03125,1.70833 7.578938,1.90023 9.09375,5.125 -2.135417,-0.6328 -4.270833,-1.39773 -6.40625,-1.125 l -0.5625,0.40625 c 2.739278,2.46727 6.90282,4.68328 8.125,7.65625 l -11.625,-7.15625 -0.1875,0.1875 c 3.038594,3.50827 4.563304,6.17556 6,8.5625 -5.032142,-3.94569 -10.957956,-6.87594 -15.09375,-13.0625 3.580261,-0.0335 7.183587,-0.21846 10.65625,-0.59375 z"
      transform="translate(-12.58567,-9.96875)"
      id="path12"
      sodipodi:nodetypes="cccccssccccccccccccccccccccccccccccccccccccccccccccccccccccccccccccccccccccccccccccccccccccccccccccccccccccccccccccccccccccscccccccccccccccccscccccccsccccsccccccccccccscccccccccccccccccccccccccccccccccccccccccccccccccccccccccccccccccccccccccccccccscccccccccccc" />
    <path
      style="fill:#ffffff;fill-opacity:1;stroke:none"
      d="m 82.90625,13.375 c -0.413868,0.578899 0.05588,2.217204 0.564721,2.607075 C 84.005409,15.037982 83.120206,13.785048 82.90625,13.375 z m -5.125,2.383502 c -0.944198,0.844065 0.100075,2.526564 0.520527,2.607076 0.44605,-0.59054 -0.306571,-2.197027 -0.520527,-2.607076 z"
      id="path1003"
      sodipodi:nodetypes="cccccc" />
    <path
      style="color:#000000;fill:#ffffff;stroke:none;stroke-width:1px;marker:none;visibility:visible;display:inline;overflow:visible;enable-background:accumulate"
      d="m 96.54089,26.490332 c 0.18097,0.889493 0.16917,1.746857 -0.35355,2.519068 2.01234,1.236645 4.41571,1.788991 6.89429,2.209709 -2.4075,-0.894508 -4.47931,-2.796065 -6.54074,-4.728777 z"
      id="path1009"
      sodipodi:nodetypes="cccc" />
    <path
      style="color:#000000;fill:#ffb400;stroke:none;stroke-width:1px;stroke-linecap:butt;stroke-linejoin:miter;stroke-miterlimit:4;stroke-opacity:1;stroke-dasharray:none;stroke-dashoffset:0;marker:none;visibility:visible;display:inline;overflow:visible;enable-background:accumulate;fill-opacity:1"
      d="m 82.955425,57.822303 -4.299175,2.333947 1.4375,1.28125 11.375,6.0625 7.25,2.28125 L 99,69.5625 c -1.60965,-1.008107 -3.01731,-1.795242 -4.520614,-2.803349 -2.51173,1.594793 -4.787734,-0.983759 -4.343663,-3.310928 L 87.78125,61 85.316124,58.648163 82.955425,57.822303 z M 78.4375,63 l -0.15625,1.53125 0.6875,1.78125 0.9375,0.6875 1.1875,0.15625 c 0,0 1.101333,-0.52903 0.96875,-0.75 -0.132583,-0.220971 -0.398668,-1.198223 -0.53125,-1.375 -0.132583,-0.176777 -1.643306,-1.635723 -1.6875,-1.8125 L 78.4375,63 z m 13.34375,7.3125 c -0.147256,0.004 -0.303022,0.02746 -0.46875,0.09375 l -0.84375,1.15625 -0.125,1.8125 0.78125,1.90625 1.25,0.4375 L 93.34375,75.0625 94,74.3125 c 0,0 0.405331,-0.65809 -0.125,-1.71875 -0.464039,-0.928078 -1.062955,-2.309044 -2.09375,-2.28125 z m -6.71875,0.34375 c -0.35105,0.0085 -0.90625,1 -0.90625,1 L 83.875,72.875 l 1.15625,1.46875 1,0.3125 1,-0.53125 L 87.0625,73.03125 86.625,72.125 85.21875,70.71875 c -0.03867,-0.04419 -0.1061,-0.06371 -0.15625,-0.0625 z m -7,4.40625 -0.625,0.46875 -0.5,1.875 0.28125,1.1875 0.96875,0.53125 0.78125,0 1.0625,-0.3125 c 0,0 0.327669,-0.984835 0.0625,-1.25 -0.265165,-0.265165 -0.942861,-1.666973 -1.03125,-1.84375 -0.08839,-0.176776 -1,-0.65625 -1,-0.65625 z m 6.96875,3.90625 C 84.945538,78.951141 84.884315,78.977903 84.8125,79 l -1.1875,1.0625 -0.15625,1.125 0.9375,1.65625 1.03125,0.3125 c 0,0 1.080806,0.220971 1.125,0 0.04419,-0.22097 0.375,-1.34375 0.375,-1.34375 0,0 0.07767,-1.052697 -0.1875,-1.40625 -0.232019,-0.30936 -1.118763,-1.31424 -1.71875,-1.4375 z m 7.375,2.75 L 91.75,81.8125 91.40625,83.375 91.9375,85 l 1.40625,0.03125 c 0,0 0.479473,-0.263864 0.65625,-0.75 0.176777,-0.486136 -0.0085,-1.315641 -0.40625,-1.625 -0.397747,-0.30936 -0.568782,-0.628141 -1.1875,-0.9375 z"
      transform="translate(-12.58567,-9.96875)"
      id="path900"
      sodipodi:nodetypes="ccccccccccccccccssccccccccccsccccccccccccccccccsscccccccscsccccccssc" />
    <path
      style="font-size:medium;font-style:normal;font-variant:normal;font-weight:normal;font-stretch:normal;text-indent:0;text-align:start;text-decoration:none;line-height:normal;letter-spacing:normal;word-spacing:normal;text-transform:none;direction:ltr;block-progression:tb;writing-mode:lr-tb;text-anchor:start;color:#000000;fill:#000000;fill-opacity:1;stroke:none;stroke-width:1px;marker:none;visibility:visible;display:inline;overflow:visible;enable-background:accumulate;font-family:Bitstream Vera Sans;-inkscape-font-specification:Bitstream Vera Sans"
      d="m 83.074724,57.521876 c -1.690855,0.535262 -3.281605,1.254927 -4.762224,2.290624 -2.021608,2.99946 -2.839454,4.31502 -3.625,7.90625 l 0.625,0.21875 c 0.187853,-2.240686 1.300075,-3.77073 3.1875,-7.3125 6.133759,4.05754 12.788285,8.023056 20.1875,9.4375 -0.460391,3.264261 -1.838139,4.118068 -2.53125,6.5 -2.712452,0.56722 -2.783748,2.470917 -0.75,4.21875 0.209481,1.643136 0.968579,3.73444 0.09375,4.84375 -5.49049,-0.07068 -10.954559,-1.143383 -16.03125,-2.375 -1.444649,-2.196136 -2.195744,-0.817601 -3.1875,-0.75 -0.869365,-0.20999 -1.724506,-0.418506 -2.59375,-0.625 0.155297,-1.790316 0.05217,-6.649209 0.21875,-8.4375 l -0.4375,-0.3125 -0.65625,9.28125 c 1.126937,0.287383 2.248064,0.553868 3.375,0.8125 0.99784,-0.137186 2.089959,-1.891949 2.9375,0.65625 5.811978,1.215059 11.625522,2.083185 17.4375,2.78125 l -0.15625,-6.375 c -3.233499,-1.413707 -2.70231,-2.443263 0.625,-3.1875 l 3,-7.75 c -2.019785,-0.67572 -3.873093,-1.596546 -5.591893,-2.704079 -2.25847,1.30843 -4.518274,-0.698062 -3.919825,-3.220205 -2.278747,-1.840945 -3.354988,-3.044492 -4.926468,-5.04194 -1.033836,-0.15799 -1.39564,-0.138378 -2.51834,-0.85565 z M 84.21875,58.25 c 1.894429,2.761275 3.13347,3.637036 5.847851,5.544106 -0.581894,2.44883 2.095301,4.051837 4.15968,3.211043 1.410706,0.880629 2.791453,1.683576 4.054969,2.432351 -6.422766,-1.575423 -13.597962,-5.40274 -19.125,-9.0625 1.472311,-1.137539 3.304856,-1.609005 5.0625,-2.125 z M 78.75,62.65625 c -0.867662,0.02124 -0.937734,1.097136 -0.625,2.53125 0.786872,1.956378 1.025509,2.150344 3.0625,2.09375 2.557753,-1.180936 0.727606,-2.399039 -0.71875,-3.9375 -0.755904,-0.499838 -1.324358,-0.697155 -1.71875,-0.6875 z m 0.25,0.875 c 0.294019,0.01105 0.658924,0.09701 1.03125,0 1.232423,1.256833 1.949434,2.051187 1,3.3125 C 79.779268,66.944668 79.259846,66.29373 78.75,65.25 78.254899,63.710498 78.509969,63.512826 79,63.53125 z m 12.21875,6.40625 c -1.17225,0.261881 -1.416036,2.342938 -1.0625,3.90625 0.691237,3.513257 4.645042,2.270308 4.125,-1.25 -0.34423,-0.866239 -0.921789,-1.684577 -1.5625,-2.21875 -0.606341,-0.400302 -1.10925,-0.524794 -1.5,-0.4375 z M 85,70.53125 c -2.040033,0.993981 -1.402901,2.443124 -0.34375,4.0625 2.187976,0.687755 2.987937,0.09792 2.53125,-1.9375 C 86.797073,71.471852 85.947357,71.059276 85,70.53125 z m 7.25,0.09375 c 0.458854,0.382555 1.153407,1.722594 1.4375,2.4375 0.553861,2.455891 -2.097809,2.750221 -2.9375,1.03125 -0.810653,-2.461762 0.505003,-3.208723 1.5,-3.46875 z m -7.46875,0.34375 c 0.697928,0.270367 1.818746,1.396858 2.1875,2 0.335748,1.188197 -0.687017,1.337087 -1.8125,1.3125 -0.822522,-0.969936 -0.683035,-2.301381 -0.375,-3.3125 z m -6.9375,4.09375 c -1.205023,0.03442 -1.168552,1.642027 -1.125,3.125 0.98223,1.361046 2.262217,1.334005 3.625,0.65625 0.638505,-1.506698 -0.250822,-2.601795 -1.4375,-3.53125 -0.423114,-0.180219 -0.784418,-0.257943 -1.0625,-0.25 z m 0.4375,0.3125 c 1.469046,0.673234 1.734272,2.798619 1.53125,3.4375 -0.759041,0.401949 -2.026626,-0.259208 -2.625,-0.53125 -0.450061,-1.41409 0.888626,-2.709961 1.09375,-2.90625 z m 6.5625,3.3125 c -0.599299,0.02496 -1.157949,0.535715 -1.53125,1.71875 -0.0323,1.071311 0.516833,1.870476 1.09375,2.71875 0.469088,0.373063 1.223252,0.246367 1.8125,0.25 1.387256,-0.524424 1.257644,-1.39429 0.9375,-2.6875 -0.695748,-1.254509 -1.541973,-2.032096 -2.3125,-2 z m 0.21875,0.53125 c 0.449885,-0.03137 0.959179,0.379185 1.53125,1.5625 0.349879,3.70301 -2.403711,1.974936 -2.875,0.15625 0.309012,-0.890831 0.765327,-1.67842 1.34375,-1.71875 z m 7.15625,2.3125 c -1.581012,0.07633 -1.170715,2.211463 -0.4375,3.53125 1.803654,0.559357 2.715221,-0.137106 2.28125,-2.03125 -0.229396,-0.545176 -0.595454,-1.063116 -1.03125,-1.40625 -0.311594,-0.08191 -0.586641,-0.104654 -0.8125,-0.09375 z m -0.09375,0.3125 c 0.251963,0.198389 1.586391,0.986173 1.75,1.375 0.674581,1.342047 -1.434143,1.27571 -1.71875,1.625 -0.522991,-0.722314 -0.36155,-2.223813 -0.03125,-3 z"
      transform="translate(-12.58567,-9.96875)"
      id="path66"
      sodipodi:nodetypes="cccccccccccccccccccccccccccccccccccccccccccccccccccccccccccccccccccccccccccccccccccccc" />
  </g>
</svg>
